<svg aria-hidden="true" class="desktop-navbar__logo" fill="currentColor" height="32" viewbox="0 0 147 32" width="147" xmlns="http://www.w3.org/2000/svg"><path d="M111.968 17.209c0-5.971 13.54-11.646 18.728-12.856 0 0-.788-1.89-1.084-2.043-.098-.05-8.92 1.833-17.353 9.758-3.167 2.977-5.725 6.013-8.772 8.716 0 0-4.964 5.081-8.305 5.302 0 0-.645.087-1.397-.257-1.166-.526-3.181-2.843-4.115-4.515-1.724 1.136-3.18 3.564-3.234 3.674-.061.106-.17.355-.24.466-.073.113-.666.291-.867.115l.031-.304c.355-2.088.562-3.67 3.184-6.393 0 0-1.06-2.575-.892-5.605.235-4.24 1.608-7.27 3.492-8.402 0 0 2.306-1.356 4.024-2.276 0 0 .526-.45 1.488-.394.958.056 2.395.867 4.43 2.594 2.018 1.742 4.014 3.682 4.316 5.196 0 0 .168.627-.109 1.21l-2.219 3.344c-.501.752-3.215 1.325-7.26 3.307 0 0-.366.159-.48.215 0 0 1.202 1.828 2.18 2.116s2.502-.447 5.996-3.799c.998-.962 4.869-4.866 7.695-7.262 0 0 7.48-6.815 14.742-8.886 0 0 1.238-.4 2.186-.145 1.767.48 3.477 1.21 4.534 1.616.785.408 1.3.774 1.926 1.66 4.587-.992 9.836-1.342 9.836-1.342l1.568.598c.627.235.641.442.347.532-.081.022-6.239.91-10.653 2.364 1.127 2.815 1.571 5.247 1.621 9.817.068 6.331-2.518 16.523-12.626 16.668-4.274.059-9.338-4.226-11.796-7.687 0 0-.475-.716-.57-1.286 0 0-.346-3.594-.346-5.816zm11.159 8.897c6.549.302 8.805-7.204 8.959-12.582 0-2.37-.232-4.71-.618-6.641-9.608 3.77-15.67 8.48-17.666 12.604 4.335 6.482 9.322 6.619 9.322 6.619zM93.774 15.268c1.984-1.02 6.582-2.6 8.025-3.074l.042-.054c-.783-1.151-1.873-2.333-3.357-3.48 0 0-3.181-2.51-4.52-3.15l-.04-.022c-.572 1.361-.97 3.12-.989 4.366 0 0-.271 2.756.839 5.417M56.952 7.51l.19.002v.003h2.16v-1.77c-1.19-.123-3.955-.302-5.036-.016l-.084.027c-.514.164-2.044.655-2.044 3.47v1.254h-1.576v2.027h1.576v13.557h3.184V12.507h3.123V10.48h-3.123V8.74c0-1.257.93-1.242 1.63-1.23m4.35-1.737h3.172v2.555h-3.173zm17.338 19.86v.003zM78.21 23.646l.43 1.987-.37.094c-1.234.316-2.554.652-4.896.652-.148 0-.467-.036-.93-.125-.47-.087-.954-.31-1.466-.7-.506-.373-.958-.938-1.344-1.685-.397-.76-.6-1.797-.6-3.133v-8.212h-1.818v-2.038h1.817l.615-2.756h2.61v2.756h5.614v2.038h-5.613v8.268c0 2.18.875 3.268 2.636 3.268.6 0 2.951-.35 3.315-.414M.217 7.07v19.036h13.669v-2.51l-10.05-.003.065-6.16h8.833V15.2H3.901V9.664h9.772V7.07z" fill="#00973A"></path><path clip-rule="evenodd" d="M45.78 25.849q1.096-.227 2.16-.576l.008-.003-.01-.011V23.2c-.255.081-.66.18-1.206.269a45 45 0 0 1-1.872.296c-.71.095-1.468.176-2.262.24-.805.06-1.587.093-2.336.093-.389 0-1.071-.062-1.398-.207a2.9 2.9 0 0 1-.836-.562 2.6 2.6 0 0 1-.54-.802 2.3 2.3 0 0 1-.198-.948v-2.035h9.89c.366 0 .668-.134.914-.408.251-.262.374-.637.374-1.14v-3.13c0-.499-.067-1.002-.223-1.516a3.6 3.6 0 0 0-.786-1.42c-.377-.428-.883-.788-1.526-1.05-.646-.264-1.459-.4-2.446-.4h-4.114q-1.412.002-2.413.435c-.66.294-1.204.68-1.635 1.177a5 5 0 0 0-.945 1.697 6.4 6.4 0 0 0-.304 2.015v4.984c0 1.328.206 2.373.637 3.12.425.76.917 1.32 1.459 1.7.55.38 1.07.611 1.576.698.506.081.836.123.979.123 1.25 0 3.508-.053 4.509-.17q1.492-.17 2.543-.412m-.83-12.618c.368.433.553.986.553 1.672v2.753h-8.216v-2.754c0-.682.193-1.236.554-1.672q.54-.64 1.767-.64h3.58c.81 0 1.392.213 1.761.64" fill="#00973A" fill-rule="evenodd"></path><path d="M64.443 10.489h-3.172v15.617h3.172zm-39.259-.053-5.543.866-.484-.85h-2.61V26.11h3.231V13.457c7.767-1.861 7.754.274 7.744 1.986l-.001.184v10.481h3.223l.058-10.314c0-5.406-3.38-5.666-5.62-5.356z" fill="#00973A"></path></svg>