<?xml version="1.0" encoding="UTF-8"?>
<svg id="Calque_1" xmlns="http://www.w3.org/2000/svg" version="1.1" viewBox="0 0 1725.3 487">
  <!-- Generator: Adobe Illustrator 29.7.1, SVG Export Plug-In . SVG Version: 2.1.1 Build 8)  -->
  <defs>
    <style>
      .st0 {
        fill: #171717;
      }
    </style>
  </defs>
  <path class="st0" d="M861.8,123.8c-4.1-10-10.3-17.1-18.6-21.3-8.3-4.5-19.8-6.7-34.6-6.7s-29.5,2.1-38.4,6.1c-8.8,4.1-13.3,10.1-13.3,17.8s2.7,12.9,8,16.4c5.5,3.5,15.5,6.3,29.8,8.5l43.4,6.7c25.8,4.1,44.7,11.3,56.7,21.7,12,10.2,18,24.2,18,42.1s-8.7,36.1-26.3,47.4c-17.4,11.2-42.1,16.6-74.4,16.6s-42.9-2.7-58.5-8.2c-15.4-5.5-27.2-13.8-35.5-24.8-8.1-11.2-12.9-25.3-14.5-42.5h47.5c2,13.7,7.7,23.7,17.5,30.1,9.6,6.2,24.1,9.4,43.4,9.4s30.3-2.2,39-6.7c8.8-4.7,13.3-11.5,13.3-20.5s-3-12.9-8.8-17c-5.7-4.1-14.8-7-27.4-8.8l-35.5-4.9c-28.7-3.9-49.9-10.9-63.2-21.1-13.2-10.3-19.8-24.7-19.8-43.3s4-23.3,11.8-32.5c7.9-9.2,19.3-16.2,34.3-21.1,15.1-5,33.2-7.6,54.1-7.6s51,4.8,66.8,14.3c15.7,9.4,26.1,24.2,31,44.5l-45.7,5.5Z"/>
  <path class="st0" d="M1060.2,274l-55.5-79.9-29.8,22v58h-44V65h44v109.8l71.5-53.5h57l-66.1,49.1,73,103.7h-49.9Z"/>
  <path class="st0" d="M1284.5,197c0,25-8.5,44.9-25.4,59.8-16.9,14.7-39.8,22-68.5,22s-51.2-7.1-67.3-21.3c-16.1-14.2-24.2-33.9-24.2-59.1s3.8-30.4,11.2-42.7c7.5-12.3,18.2-21.9,32.2-28.7,14.2-6.8,31-10.3,50.2-10.3,28.7,0,51.2,7.1,67.3,21.3,16.2,14,24.4,33.7,24.4,59.1ZM1239.1,197.6c0-15.2-4.1-26.9-12.4-35.1-8.1-8.4-19.7-12.6-34.8-12.6s-26.5,4.2-34.8,12.6c-8.3,8.4-12.4,20.1-12.4,35.1s4,27,12.1,35.5c8.3,8.2,19.9,12.3,34.8,12.3s26.5-4.1,34.8-12.3c8.5-8.5,12.7-20.2,12.7-35.5Z"/>
  <path class="st0" d="M1303.3,274V65h44v209.1h-44Z"/>
  <path class="st0" d="M1491.4,274v-20.8c-9.1,8.5-18.8,14.9-29.2,19-10.3,3.9-22,5.8-35.5,5.8-20.2,0-35.8-4-46.7-12-10.8-8.2-16.3-19.8-16.3-34.8s7.1-29.2,21.2-37.4c14.2-8.2,36.5-12.7,67-13.5l37.8-.9v-5.8c0-8.5-3.1-15.1-9.4-19.6-6.3-4.7-15.3-7-26.9-7-22.2,0-35.5,6.2-39.9,18.7l-39.9-3.8c3.1-15.4,11.4-26.8,24.8-34.3,13.6-7.4,32.4-11.2,56.4-11.2,51.4,0,77.1,20.1,77.1,60.3v97.2h-40.7ZM1489.9,205.2l-36.9.9c-15.9.4-27.6,2.4-35.2,6.1-7.3,3.5-10.9,8.9-10.9,16.1s2.7,11.1,8,14.3c5.5,3.3,13.4,4.9,23.7,4.9s15.8-1,22.8-3c6.9-2.2,12.7-5.1,17.5-9.1,7.5-5.8,11.2-13.2,11.2-22.2v-8.1h-.2Z"/>
  <path class="st0" d="M1591.1,208.2c.2,7.6,2.2,14.3,6.2,20.2,4.1,5.8,9.7,10.4,16.8,13.8,7.3,3.3,15.7,4.9,25.1,4.9,23,0,37.3-6.9,42.8-20.8h41c-4.1,17.7-13.3,31-27.4,39.5-13.9,8.5-33.3,12.9-57.9,12.9s-49.7-6.9-65.2-20.8c-15.4-13.9-23-33.3-23-58.2s3.5-30.2,10.6-42.7c7.3-12.7,17.6-22.5,31-29.6,13.6-7.2,29.4-10.8,47.5-10.8,27.5,0,48.9,6.9,63.8,20.8,15.1,13.7,22.8,32.8,22.8,57.7v13.1h-134.2ZM1684.2,181.5c-.4-10.7-4.6-19-12.7-24.8-8.1-6-19.3-9.1-33.7-9.1s-22.7,3.2-31.3,9.6c-8.5,6.5-13.2,14.6-14.2,24.3h91.9Z"/>
  <path class="st0" d="M0,119.6C0,53.5,53.9,0,120.3,0h113.7v122.8c0,64.2-52.4,116.2-117,116.2S0,187,0,122.8v-3.2Z"/>
  <path class="st0" d="M380.3,0h-127c15.4,183,157.8,224.4,227,222.3v-122.9C480.3,44.5,435.6,0,380.3,0Z"/>
  <path class="st0" d="M486.3,367.4c0,66.1-53.9,119.6-120.3,119.6h-113.6v-122.8c0-64.2,52.4-116.2,117-116.2s117,52.1,117,116.2v3.2h0Z"/>
  <path class="st0" d="M105.6,485.9h127c-15.3-183.1-157.8-224.5-227-222.5v123c0,54.9,44.7,99.4,100,99.4h0Z"/>
  <g>
    <path class="st0" d="M741.4,437.6v-77.7h-28.1v-19.6h78.1v19.6h-28.1v77.7h-22Z"/>
    <path class="st0" d="M885.2,436.2v1.4h-25.6l-21-34.3h-13.6v34.3h-21.8v-97.3h44.5c10,0,18.1,3.1,24,9,6.1,6,9.2,13.3,9.2,22,0,13.9-7.1,24.5-19.2,29.3l23.5,35.6ZM825.1,359.8v24h21.5c8.2,0,12-5.6,12-12.4s-4-11.7-12-11.7h-21.5Z"/>
    <path class="st0" d="M949.3,340.3l33.5,95.9v1.4h-24.2l-5.7-18.5h-36.1l-5.7,18.5h-23.1v-1.4l33.4-95.9h27.9ZM922.8,400h24.2l-11.8-37.8h-.6l-11.8,37.8Z"/>
    <path class="st0" d="M993.9,437.6v-97.3h22v97.3h-22Z"/>
    <path class="st0" d="M1035.3,437.6v-97.3h25.7l35.9,63.5h.6v-63.5h21.7v97.3h-25.8l-35.9-63.1h-.6v63.1h-21.5Z"/>
    <path class="st0" d="M1138.6,437.6v-97.3h22v97.3h-22Z"/>
    <path class="st0" d="M1180,437.6v-97.3h25.7l35.9,63.5h.6v-63.5h21.7v97.3h-25.8l-35.9-63.1h-.6v63.1h-21.5Z"/>
    <path class="st0" d="M1289.9,424.8c-8.2-9.3-12.2-21.3-12.2-35.7s4-26.7,12.2-36c8.2-9.3,19.7-14,34.9-14s22,3.3,29.7,10.1c7.8,6.7,12.2,15,13.3,25h-22.2c-1.7-8.9-8.2-15.4-20.8-15.4s-24.9,10.7-24.9,30.3,8.8,30.2,24.9,30.2,18.5-5,21-14.9h-18.2v-19.3h41v11c0,12.9-4,23.2-12.2,31.1-8.2,7.8-18.6,11.7-31.5,11.7s-26.7-4.7-34.9-14Z"/>
  </g>
</svg>