<svg xmlns="http://www.w3.org/2000/svg" id="Layer_1" data-name="Layer 1" viewBox="0 0 280.34 288"><defs><style>.cls-1{fill:#007a61;}</style></defs><path class="cls-1" d="M278.26,283.72c-7.59-.55-10.21-7.64-10.47-8.46l-24-63.85H233l1,3.24-20.82,61.29a.76.76,0,0,1-.83.68c-.69,0-1.65-.68-2.76-1.91-5.77-6.42-12.07-16.66-15.91-23.26,0-.13-.14-.27-.14-.54a2.28,2.28,0,0,1,1.39-1.65c7.51-3.44,10.39-9.49,10.39-17.32,0-16.76-16-20.41-30.23-20.41H147.67v3.65c7.45.95,10.48,2.74,10.48,8V274.3c0,6.14-2.89,9.16-10.48,9.56v3h34.17v-3c-13.76-.4-13.76-7-13.76-9.56V254.21h4.12a40.29,40.29,0,0,0,9.36-.69c1.39,0,1.52.42,2.07,1.11C195.19,272.8,204.36,288,220.9,288c1.51,0,3-.14,8.82-1.1v-3c-9.51,0-11.31-3-11.31-5.32a8.65,8.65,0,0,1,.42-2.74l6.9-20.48h23.85l7.17,19.94a5.62,5.62,0,0,1,.56,2.32c0,3.82-2.49,5.88-11.31,6.28v3h34.34v-3Zm-104-32.4h-6.19V214.5h7c14.74,0,19.56,9.88,19.56,18.95C194.65,243.34,187.62,251.32,174.27,251.32Zm53.39-1.66,9.24-28.3,10.48,28.3Z"></path><path class="cls-1" d="M101,212.22l-33.13.41v2.69c7.72,1,10.47,3,10.47,9.2v51c0,6.69-2.48,7.51-3.71,7.51-2.49,0-5.51-3.28-7-7.51l-24.37-64H32.76l1,3.12L13.21,274.17c-1.92,5.59-6.61,9.29-13.21,9.69v3H29v-3c-8.81-.27-10.74-3.42-10.74-6.42a7.44,7.44,0,0,1,.7-3.14l3.66-11.23,2.53-7.75h24l7.29,19.26a9.09,9.09,0,0,1,.7,3.13c0,3.83-3.72,6.15-11.43,6.15v3h65.09c17.55,0,39.22-17.11,39.22-36.13C150,235.1,141.6,212.22,101,212.22ZM27.11,249.66l9.51-27.89,10.45,27.89ZM104.3,284C93.66,284,88,282.63,88,275.53V215.58l13.55-.26c29.84,0,36.62,19,36.62,36.13C138.16,276.89,118.53,284,104.3,284Z"></path><path class="cls-1" d="M221.91,76.28c6.22,0,12.43-4.52,12.43-13.74,0-9.8-7.35-15.26-14.31-15.26-6.22,0-12.24,4.52-12.24,13.94C207.79,71,214.94,76.28,221.91,76.28Z"></path><path class="cls-1" d="M140.17,77.79c10.36,0,18.65-8.66,18.65-19.21a18.65,18.65,0,1,0-37.3,0C121.52,69.13,129.81,77.79,140.17,77.79Z"></path><path class="cls-1" d="M72.55,61.22c0-9.42-6-13.94-12.25-13.94-7,0-14.31,5.46-14.31,15.26,0,9.22,6.21,13.74,12.43,13.74C65.39,76.28,72.55,71,72.55,61.22Z"></path><path class="cls-1" d="M140.17,179.31c61.4,0,123.93-35.41,123.93-89.65S201.57,0,140.17,0,16.23,35.41,16.23,89.66,78.76,179.31,140.17,179.31ZM68,149.93V93.61a54.12,54.12,0,0,0,15.44-4.74v.79c0,32,10.93,60.27,27.13,75.91A137.43,137.43,0,0,1,68,149.93Zm56.31,13C106.83,152.19,94.4,123.18,94.4,89.66V88c9,3.87,20.19,6.28,29.94,7.52Zm31.65,0V95.72c9.79-1.45,21.08-3.9,29.95-7.79v1.73C185.94,123.18,173.5,152.19,156,162.92Zm56.32-13a137.61,137.61,0,0,1-42.57,15.64c16.2-15.64,27.12-43.89,27.12-75.91v-.79a54.09,54.09,0,0,0,15.45,4.74Zm40.87-60.27c0,16.93-7.57,32-19.78,44.24V92.48A58.51,58.51,0,0,0,253,82.88C253.09,85.52,253.18,88.15,253.18,89.66ZM249,68.75c-8.67,7.91-18.47,11.68-29,11.68-8.33,0-16.39-2.65-24.11-7-2.07-21-11.09-45.25-26.18-59.47C204.21,20.15,237.36,39.18,249,68.75ZM140.17,11.68c24.31,0,41.36,31.8,44.86,62a109.84,109.84,0,0,1-44.86,10.19A109.85,109.85,0,0,1,95.3,73.63C98.8,43.48,115.86,11.68,140.17,11.68ZM110.6,13.94C95.51,28.16,86.49,52.44,84.42,73.41c-7.72,4.37-15.79,7-24.11,7-10.55,0-20.28-3.8-29-11.62C42.92,39.27,76.16,20.18,110.6,13.94ZM27.52,83a58.4,58.4,0,0,0,19.41,9.48V133.9c-12.21-12.27-19.78-27.31-19.78-44.24C27.15,87.42,27.34,85.1,27.52,83Z"></path></svg>