<svg xmlns="http://www.w3.org/2000/svg" xmlns:xlink="http://www.w3.org/1999/xlink" id="Group_865" data-name="Group 865" width="216" height="58" viewBox="0 0 216 58"><defs><clipPath id="clip-path"><rect id="Rectangle_939" data-name="Rectangle 939" width="216" height="58" fill="#007b5f"></rect></clipPath></defs><g id="Group_605" data-name="Group 605" transform="translate(0 0)" clip-path="url(#clip-path)"><path id="Path_1374" data-name="Path 1374" d="M266.287,49.491c-3.557-.258-4.787-3.622-4.912-4.012L250.122,15.216H245.08l.45,1.536-9.766,29.054a.352.352,0,0,1-.388.32c-.321,0-.771-.32-1.292-.9A74.27,74.27,0,0,1,226.622,34.2c0-.063-.067-.13-.067-.259a1.083,1.083,0,0,1,.65-.781c3.524-1.633,4.876-4.5,4.876-8.211,0-7.943-7.523-9.67-14.179-9.67h-12.86V17c3.495.453,4.916,1.3,4.916,3.773v24.25c0,2.911-1.355,4.339-4.916,4.53V51H221.07V49.556c-6.455-.191-6.455-3.3-6.455-4.53V35.505h1.934a18.79,18.79,0,0,0,4.391-.326c.649,0,.713.2.969.525,5.42,8.612,9.721,15.815,17.478,15.815a24.9,24.9,0,0,0,4.137-.52V49.556c-4.46,0-5.3-1.425-5.3-2.521a4.124,4.124,0,0,1,.194-1.3l3.235-9.708h11.187l3.359,9.448a2.682,2.682,0,0,1,.263,1.1c0,1.812-1.165,2.785-5.3,2.976V51h16.1V49.556ZM217.52,34.135h-2.9V16.684H217.9c6.914,0,9.171,4.681,9.171,8.981,0,4.687-3.292,8.47-9.554,8.47m25.036-.786,4.335-13.416L251.8,33.349Z" transform="translate(-51.261 -3.682)" fill="#007b5f"></path><path id="Path_1375" data-name="Path 1375" d="M160.063,15.622l-15.536.192v1.274c3.617.455,4.91,1.43,4.91,4.363V45.626c0,3.172-1.163,3.562-1.742,3.562-1.165,0-2.581-1.555-3.292-3.562L132.977,15.3h-4.91l.452,1.474L118.9,44.983a6.653,6.653,0,0,1-6.2,4.593v1.443h13.617V49.575c-4.13-.128-5.034-1.619-5.034-3.044a3.57,3.57,0,0,1,.325-1.486l1.72-5.327,1.185-3.669H135.75l3.422,9.127a4.419,4.419,0,0,1,.326,1.486c0,1.812-1.745,2.913-5.359,2.913v1.443h30.527c8.231,0,18.4-8.11,18.4-17.126,0-7.428-3.949-18.271-23-18.271M125.421,33.368l4.458-13.222,4.9,13.222Zm36.2,16.275c-4.992,0-7.648-.648-7.648-4.017V17.214l6.353-.126c13.994,0,17.174,8.985,17.174,17.128,0,12.059-9.207,15.427-15.879,15.427" transform="translate(-28.176 -3.702)" fill="#007b5f"></path><path id="Path_1376" data-name="Path 1376" d="M85.663,20.172c-1.989,0-3.916,1.464-3.916,4.509a4.576,4.576,0,0,0,4.52,4.875c1.989,0,3.979-1.461,3.979-4.446a4.677,4.677,0,0,0-4.583-4.938" transform="translate(-20.437 -4.882)" fill="#007b5f"></path><path id="Path_1377" data-name="Path 1377" d="M50.9,16.88a6.187,6.187,0,1,0,5.968,6.153A6.078,6.078,0,0,0,50.9,16.88" transform="translate(-11.233 -4.085)" fill="#007b5f"></path><path id="Path_1378" data-name="Path 1378" d="M17.282,20.172A4.679,4.679,0,0,0,12.7,25.11c0,2.985,1.99,4.446,3.979,4.446A4.578,4.578,0,0,0,21.2,24.681c0-3.046-1.93-4.509-3.919-4.509" transform="translate(-3.175 -4.882)" fill="#007b5f"></path><path id="Path_1379" data-name="Path 1379" d="M39.667,0C20.015,0,0,11.453,0,29S20.015,58,39.667,58,79.333,46.548,79.333,29,59.32,0,39.667,0M9.828,43.312C5.919,39.343,3.5,34.476,3.5,29c0-.722.058-1.474.115-2.152a18.678,18.678,0,0,0,6.215,3.066ZM4.836,22.255C8.541,12.7,19.182,6.527,30.2,4.508c-4.83,4.6-7.717,12.457-8.378,19.236a15.548,15.548,0,0,1-7.717,2.272,13.458,13.458,0,0,1-9.271-3.76M16.578,48.495V30.279a17.144,17.144,0,0,0,4.943-1.533V29c0,10.356,3.5,19.495,8.681,24.554a43.612,43.612,0,0,1-13.624-5.059M34.6,52.7C29,49.227,25.018,39.845,25.018,29v-.537A36.9,36.9,0,0,0,34.6,30.891ZM25.308,23.818c1.118-9.755,6.578-20.04,14.359-20.04s13.239,10.284,14.357,20.04a34.848,34.848,0,0,1-14.357,3.293,34.866,34.866,0,0,1-14.359-3.293M44.731,52.7V30.963a39.246,39.246,0,0,0,9.586-2.521V29c0,10.845-3.981,20.227-9.586,23.7m18.024-4.206A43.612,43.612,0,0,1,49.13,53.554c5.186-5.059,8.681-14.2,8.681-24.554v-.254a17.166,17.166,0,0,0,4.943,1.533ZM75.838,29c0,5.476-2.422,10.343-6.331,14.312v-13.4a18.69,18.69,0,0,0,6.269-3.107c.035.856.062,1.7.062,2.193m-10.61-2.985a15.541,15.541,0,0,1-7.717-2.272C56.847,16.965,53.96,9.107,49.13,4.508c11.034,2.01,21.642,8.164,25.38,17.729a13.361,13.361,0,0,1-9.283,3.778" transform="translate(0 0)" fill="#007b5f"></path></g></svg>