<svg xmlns="http://www.w3.org/2000/svg" viewBox="0 0 386.45 95.86"><g id="Calque_2" data-name="Calque 2"><g id="Calque_1-2" data-name="Calque 1"><path d="M15.17,76l4.49-15.07H37.44L41.66,76H58.13L41.75,18.54c-.93-3.37-3-5-6.55-5H11.89V19h2c2.44,0,3.75.94,3.75,2.81,0,1.22-.28,2.25-1.22,5.06L0,76H15.17m20-25.27H22L29,27.8Z" fill="#004c93" fill-rule="evenodd"/><path d="M77.11,76V18.35c0-3-1.77-4.78-4.67-4.78H58V19H59c2.44,0,3.47,1,3.47,3.47V76H77.11" fill="#004c93"/><path d="M102.09,76V18.35c0-3-1.78-4.78-4.68-4.78H83V19h.93c2.44,0,3.47,1,3.47,3.47V76h14.7" fill="#004c93"/><path d="M127.43,76V34c0-3-1.78-4.77-4.68-4.77H108.52v5.33h.84c2.44,0,3.47,1.13,3.47,3.56V76h14.6m.28-56.72c0-4.22-3.09-6.75-8.42-6.75s-8.43,2.53-8.43,6.75S114,26,119.29,26,127.71,23.5,127.71,19.29Z" fill="#004c93" fill-rule="evenodd"/><path d="M139.86,42.6a35.06,35.06,0,0,1,14.41-3.66c3.93,0,5.34,1.41,5.34,5.53v1c-6,.94-7.87,1.32-11.24,2.06a36,36,0,0,0-5.52,1.78c-5.9,2.34-8.71,6.93-8.71,14,0,8.89,3.84,13.2,11.8,13.2a21,21,0,0,0,7.87-1.5,26.88,26.88,0,0,0,6.27-4v.65c0,2.91,1.49,4.4,4.4,4.4h13.38V71h-.65c-2.53,0-3.47-1.13-3.47-4.12V44.56c0-11.89-4.12-16-16-16a50,50,0,0,0-11.24,1.31,38.59,38.59,0,0,0-9.92,3.75l3.28,9m19.75,10.95v9.08c-2.44,2.52-5.43,4-8,4s-3.56-1.31-3.56-4.78.75-5.05,3.37-6.09A37.12,37.12,0,0,1,159.61,53.55Z" fill="#004c93" fill-rule="evenodd"/><path d="M199.18,76V44.37c2.43-2.71,5-3.93,7.86-3.93,3.09,0,3.84,1.22,3.84,5.9V76h14.6V44.18c0-7.39-.56-9.73-2.9-12.26-2-2.15-5-3.27-8.8-3.27-5.71,0-9.74,1.77-15.16,6.83V33.61c0-2.91-1.5-4.4-4.5-4.4H180.27v5.33h.84c2.44,0,3.47,1.13,3.47,3.56V76h14.6" fill="#004c93" fill-rule="evenodd"/><path d="M268.81,66.19H248.4l19.47-27.34V29.21H237.36c-3.47,0-5.06,1.59-5.06,5v8.52h5.43v-.84c0-2.16,1.12-3.19,3.47-3.19h10.48L232,66.37V76h36.79V66.19" fill="#004c93"/><path d="M386.45,47.93C386.45,20.5,366,0,338.52,0S290.6,20.5,290.6,47.93s20.5,47.93,47.92,47.93,47.93-20.5,47.93-47.93m-8.14,0c0,23.31-16.76,40.25-39.79,40.25s-39.78-16.94-39.78-40.25S315.5,7.68,338.52,7.68,378.31,24.71,378.31,47.93ZM325.51,74.8V28h-8.14c-4,0-5.62,1.5-5.62,5.62V74.8Zm26,0H365.3V33.61c0-4.12-1.59-5.62-5.61-5.62h-8.16Zm-6.08,0V21.9c0-4.21-1.5-5.61-5.61-5.61H327.48v5.9h.75c2.81,0,3.37.65,3.37,4V74.8Z" fill="#004c93" fill-rule="evenodd"/></g></g></svg>