<?xml version="1.0" encoding="utf-8"?>
<!-- Generator: Adobe Illustrator 24.3.0, SVG Export Plug-In . SVG Version: 6.00 Build 0)  -->
<svg version="1.1" id="Logo" xmlns="http://www.w3.org/2000/svg" xmlns:xlink="http://www.w3.org/1999/xlink" x="0px" y="0px"
	 viewBox="0 0 1224.4 141.7" style="enable-background:new 0 0 1224.4 141.7;" xml:space="preserve">
<style type="text/css">
	.st0{fill:#003781;}
	.st1{fill:#0075C9;}
</style>
<g>
	<path class="st0" d="M699.3,72.3h-20L690,37.5L699.3,72.3z M734,110.5l-24.8-87c-1.4-5.1-4.5-7.5-9.9-7.5H664v8.2h3
		c3.7,0,5.7,1.4,5.7,4.3c0,1.8-0.4,3.4-1.9,7.6L646,110.5h23l6.8-22.8h26.9l6.4,22.8H734z M740.5,110.5h22.2V23.2
		c0-4.5-2.7-7.2-7.1-7.2h-21.8v8.2h1.4c3.7,0,5.2,1.6,5.2,5.3V110.5z M778.4,110.5h22.3V23.2c0-4.5-2.7-7.2-7.1-7.2h-21.8v8.2h1.4
		c3.7,0,5.3,1.6,5.3,5.3V110.5z M831.9,39.7h-21.5v8.1h1.3c3.7,0,5.2,1.7,5.2,5.4v57.4H839V46.9C839,42.4,836.3,39.7,831.9,39.7
		 M839.4,24.6c0-6.3-4.7-10.2-12.8-10.2c-7.9,0-12.8,3.8-12.8,10.2c0,6.4,4.8,10.2,12.8,10.2C834.7,34.8,839.4,31,839.4,24.6
		 M887.7,90.3c-3.7,3.8-8.2,6.1-12,6.1c-4,0-5.4-2-5.4-7.3c0-5.2,1.1-7.6,5.1-9.2c3-1.3,6.8-2.4,12.3-3.5V90.3z M895.1,110.5h20.3
		v-7.6h-1c-3.8,0-5.2-1.7-5.2-6.2V62.9c0-18-6.2-24.3-24.3-24.3c-5.8,0-11.5,0.7-17,2c-5.6,1.3-8.4,2.4-15,5.7l4.9,13.6
		c7.4-3.5,15.5-5.5,21.8-5.5c6,0,8.1,2.1,8.1,8.3v1.6c-9.1,1.4-11.9,2-17,3.1c-2.9,0.7-5.7,1.5-8.4,2.7
		c-8.9,3.6-13.2,10.5-13.2,21.1c0,13.5,5.8,20,17.8,20c4.4,0,8.4-0.8,11.9-2.2c3.1-1.4,5-2.5,9.5-6.1v1
		C888.4,108.3,890.7,110.5,895.1,110.5 M965.4,110.5h22.1V62.4c0-11.2-0.8-14.8-4.4-18.6c-3-3.3-7.5-5-13.4-5
		c-8.7,0-14.7,2.7-22.9,10.3v-2.8c0-4.4-2.3-6.7-6.8-6.7h-21v8.1h1.3c3.7,0,5.3,1.7,5.3,5.4v57.4h22.1V62.6c3.7-4.1,7.5-6,11.9-6
		c4.7,0,5.8,1.9,5.8,9V110.5z M997.4,110.5h55.7V95.7h-30.9l29.5-41.4V39.7h-46.2c-5.3,0-7.7,2.4-7.7,7.7v12.9h8.2V59
		c0-3.3,1.7-4.8,5.2-4.8h15.9L997.4,96V110.5z"/>
	<path class="st1" d="M221.5,97.9c2.3-3.5,3.5-7.9,3.5-13c0-4.2-0.8-7.8-2.4-10.6c-1.6-2.9-3.7-5.3-6.3-7.2
		c-2.6-1.9-5.6-3.4-8.9-4.5c-3.3-1.1-6.7-2-10.2-2.8c-3.6-0.8-7-1.5-10.3-2.2c-3.3-0.7-6.3-1.5-8.9-2.4c-2.6-0.9-4.7-2.1-6.3-3.6
		c-1.6-1.4-2.4-3.3-2.4-5.7c0-1.9,0.6-3.4,1.7-4.6c1.1-1.2,2.5-2,4.1-2.7c1.6-0.6,3.3-1,5.2-1.2c1.8-0.2,3.4-0.3,4.7-0.3
		c4.2,0,8,0.8,11.2,2.3c3.3,1.6,5.3,4.6,6.2,9.1H222c-0.6-4.8-1.9-8.8-4.1-12.2c-2.2-3.4-4.9-6.1-8.1-8.2c-3.3-2.1-6.9-3.6-11-4.6
		c-4-0.9-8.3-1.4-12.7-1.4c-3.9,0-8,0.4-12.2,1.2c-4.3,0.8-8.2,2.1-11.6,4.1c-3.5,1.9-6.4,4.5-8.6,7.7c-2.3,3.2-3.4,7.1-3.4,11.7
		c0,4.3,0.8,8,2.3,10.9c1.6,2.9,3.6,5.3,6.2,7.2c2.6,1.9,5.5,3.4,8.8,4.5c3.3,1.1,6.7,2.1,10.2,2.8c3.4,0.8,6.8,1.5,10.1,2.2
		c3.3,0.7,6.3,1.5,8.9,2.4c2.6,0.9,4.7,2.2,6.4,3.7c1.7,1.6,2.5,3.6,2.7,6c0.1,2.4-0.5,4.4-1.7,5.9c-1.3,1.5-2.9,2.6-4.9,3.4
		c-2,0.8-4.1,1.3-6.4,1.6c-2.3,0.3-4.3,0.4-6.1,0.4c-5.1,0-9.5-1.1-13.1-3.3c-3.7-2.2-5.8-6.1-6.3-11.6h-19
		c0.1,5.1,1.1,9.5,3.1,13.2c1.9,3.7,4.6,6.8,8,9.3c3.4,2.5,7.4,4.4,12,5.6c4.6,1.2,9.6,1.8,15.1,1.8c4.4,0,8.9-0.5,13.5-1.5
		c4.6-1,8.7-2.6,12.4-4.8C216.1,104.3,219.2,101.5,221.5,97.9 M276.2,83.1c0,1.1-0.1,2.6-0.3,4.4c-0.2,1.8-0.8,3.6-1.9,5.4
		c-1,1.8-2.6,3.3-4.7,4.6c-2.1,1.3-5.1,1.9-8.9,1.9c-1.6,0-3.1-0.1-4.5-0.4c-1.5-0.3-2.7-0.8-3.8-1.4c-1.1-0.7-2-1.6-2.6-2.8
		c-0.6-1.2-1-2.6-1-4.4c0-1.8,0.3-3.3,1-4.5c0.6-1.2,1.5-2.2,2.5-2.9c1-0.8,2.3-1.4,3.7-1.8c1.4-0.5,2.9-0.8,4.3-1.1
		c1.6-0.3,3.1-0.5,4.7-0.7c1.6-0.2,3-0.4,4.5-0.7c1.4-0.3,2.7-0.6,4-1c1.2-0.4,2.3-1,3.1-1.7V83.1z M278.4,110.6h19.7
		c-0.9-1.5-1.6-3.7-1.9-6.6c-0.4-2.9-0.5-6-0.5-9.2V57.9c0-4.3-1-7.7-2.9-10.3c-1.9-2.6-4.4-4.6-7.4-6.1c-3-1.5-6.4-2.4-10-2.9
		c-3.7-0.5-7.3-0.8-10.8-0.8c-3.9,0-7.8,0.4-11.7,1.2c-3.9,0.8-7.4,2.1-10.5,3.9c-3.1,1.8-5.7,4.3-7.7,7.3c-2,3-3.2,6.8-3.4,11.4
		h19.5c0.4-3.8,1.6-6.6,3.8-8.2c2.2-1.6,5.2-2.5,9-2.5c1.7,0,3.4,0.1,4.9,0.3c1.5,0.2,2.8,0.7,4,1.4c1.1,0.7,2.1,1.6,2.7,2.9
		c0.7,1.2,1,2.9,1,5c0.1,2-0.5,3.5-1.8,4.6c-1.3,1.1-3,1.8-5.2,2.4c-2.2,0.5-4.7,1-7.5,1.2c-2.8,0.3-5.7,0.6-8.6,1.1
		c-2.9,0.5-5.8,1.1-8.7,1.8c-2.9,0.8-5.4,1.9-7.7,3.5c-2.2,1.6-4.1,3.6-5.5,6.2c-1.4,2.6-2.1,5.9-2.1,9.9c0,3.7,0.6,6.8,1.8,9.5
		c1.2,2.7,2.9,4.8,5.1,6.6c2.2,1.7,4.8,3,7.7,3.8c2.9,0.8,6.1,1.2,9.5,1.2c4.4,0,8.7-0.6,12.9-1.9c4.2-1.3,7.9-3.5,11-6.7
		c0.1,1.2,0.3,2.4,0.5,3.5C277.7,108.3,278,109.5,278.4,110.6 M350.4,110.6h19.5V67c0-4.4-0.4-8.4-1.2-12c-0.8-3.6-2.1-6.7-4-9.2
		c-1.9-2.5-4.5-4.5-7.9-5.9c-3.3-1.4-7.6-2.1-12.8-2.1c-4.1,0-8.1,0.9-12.1,2.8c-3.9,1.9-7.1,4.9-9.6,9h-0.4v-9.9h-18.5v70.9h19.5
		V73.4c0-7.2,1.2-12.4,3.6-15.6c2.4-3.2,6.2-4.7,11.5-4.7c4.7,0,7.9,1.4,9.7,4.3c1.8,2.9,2.7,7.2,2.7,13.1V110.6z M377.3,110.6h19.5
		V12.7h-19.5V110.6z M449.6,83.1c0,1.1-0.1,2.6-0.3,4.4c-0.2,1.8-0.8,3.6-1.8,5.4c-1,1.8-2.6,3.3-4.7,4.6c-2.1,1.3-5.1,1.9-8.9,1.9
		c-1.6,0-3.1-0.1-4.5-0.4c-1.5-0.3-2.7-0.8-3.8-1.4c-1.1-0.7-2-1.6-2.6-2.8c-0.6-1.2-1-2.6-1-4.4c0-1.8,0.3-3.3,1-4.5
		c0.6-1.2,1.5-2.2,2.5-2.9c1.1-0.8,2.3-1.4,3.7-1.8c1.4-0.5,2.9-0.8,4.3-1.1c1.6-0.3,3.1-0.5,4.7-0.7c1.6-0.2,3-0.4,4.5-0.7
		c1.4-0.3,2.7-0.6,4-1c1.2-0.4,2.3-1,3.1-1.7V83.1z M451.8,110.6h19.7c-0.9-1.5-1.6-3.7-1.9-6.6c-0.4-2.9-0.5-6-0.5-9.2V57.9
		c0-4.3-1-7.7-2.9-10.3c-1.9-2.6-4.4-4.6-7.4-6.1c-3-1.5-6.4-2.4-10-2.9c-3.7-0.5-7.3-0.8-10.8-0.8c-3.9,0-7.8,0.4-11.7,1.2
		c-3.9,0.8-7.4,2.1-10.5,3.9c-3.1,1.8-5.7,4.3-7.7,7.3c-2,3-3.2,6.8-3.4,11.4h19.5c0.4-3.8,1.6-6.6,3.8-8.2c2.2-1.6,5.2-2.5,9-2.5
		c1.7,0,3.4,0.1,4.9,0.3c1.5,0.2,2.8,0.7,4,1.4c1.1,0.7,2.1,1.6,2.7,2.9c0.7,1.2,1,2.9,1,5c0.1,2-0.5,3.5-1.8,4.6
		c-1.3,1.1-3,1.8-5.2,2.4c-2.2,0.5-4.7,1-7.5,1.2c-2.8,0.3-5.7,0.6-8.6,1.1c-2.9,0.5-5.8,1.1-8.7,1.8c-2.9,0.8-5.4,1.9-7.7,3.5
		c-2.2,1.6-4.1,3.6-5.5,6.2c-1.4,2.6-2.1,5.9-2.1,9.9c0,3.7,0.6,6.8,1.8,9.5c1.2,2.7,3,4.8,5.1,6.6c2.2,1.7,4.8,3,7.7,3.8
		c2.9,0.8,6.1,1.2,9.5,1.2c4.4,0,8.7-0.6,12.9-1.9c4.2-1.3,7.9-3.5,11-6.7c0.1,1.2,0.2,2.4,0.5,3.5
		C451.2,108.3,451.5,109.5,451.8,110.6 M584.8,110.6V63.1c0-4.6-0.6-8.5-1.9-11.7c-1.3-3.2-3.1-5.9-5.3-7.9c-2.3-2-5-3.5-8.2-4.4
		c-3.2-0.9-6.7-1.4-10.4-1.4c-4.9,0-9.2,1.2-12.8,3.6c-3.6,2.4-6.5,5.1-8.6,8.2c-1.9-4.4-4.7-7.4-8.4-9.2c-3.7-1.7-7.8-2.6-12.3-2.6
		c-4.7,0-8.8,1-12.4,3c-3.6,2-6.7,4.8-9.3,8.5h-0.3v-9.6h-18.4v70.9H496V69.4c0-3.5,0.5-6.3,1.5-8.4c1-2.1,2.2-3.8,3.6-4.9
		c1.4-1.1,2.9-1.9,4.4-2.3c1.5-0.4,2.7-0.6,3.6-0.6c3.1,0,5.5,0.5,7.1,1.6c1.6,1.1,2.7,2.4,3.4,4.2c0.7,1.7,1.1,3.6,1.2,5.7
		c0.1,2.1,0.1,4.1,0.1,6.2v39.7h19.5V71.1c0-2.2,0.2-4.4,0.5-6.5c0.3-2.1,1-4.1,1.9-5.8c1-1.7,2.3-3.1,4-4.1c1.7-1,3.9-1.6,6.6-1.6
		c2.7,0,4.9,0.5,6.5,1.4c1.6,0.9,2.8,2.1,3.6,3.7c0.8,1.6,1.3,3.4,1.5,5.5c0.2,2.1,0.3,4.3,0.3,6.7v40.2H584.8z"/>
	<rect x="617.3" class="st0" width="5.9" height="141.7"/>
	<path class="st0" d="M1224.4,70.9c0-40.5-30.3-70.9-70.9-70.9c-40.6,0-70.9,30.3-70.9,70.9c0,40.6,30.3,70.9,70.9,70.9
		C1194,141.7,1224.4,111.5,1224.4,70.9 M1213,70.9c0,34.5-25.1,59.5-59.5,59.5c-34.5,0-59.5-25.1-59.5-59.5
		c0-34.5,25.1-59.5,59.5-59.5C1187.9,11.3,1213,36.6,1213,70.9 M1113.9,110.6h20.4V39.7h-12.1c-6,0-8.3,2.2-8.3,8.3V110.6z
		 M1143.3,110.6h20.5V32.2c0-6.2-2.2-8.3-8.3-8.3h-18.3v8.7h1.1c4.2,0,5,0.9,5,6V110.6z M1172.8,110.6h20.3V48
		c0-6.1-2.4-8.3-8.3-8.3h-12V110.6z"/>
	<g>
		<path class="st1" d="M46.2,21.2c3.3-6,8.1-13,2.2-21.2c0,0-1.6,2.7-47.3,64.1L1,64.3c-0.6,0.9-1,2.1-1,3.5v0.1
			c0,1.7,0.5,3.2,1.3,4.4l0,0l17.2,27.9c1.6,3,2.1,8.6,2.1,13c0,2,0,6.6,0,9.4h0c0,4.9,4.2,7.8,9.5,7.8h21.1v-23.8
			c0-1.6,0.1-9.5-0.5-11.3c-0.6-2.8-1.8-4.5-4-6.5c-5.4-5-10.3-8.1-14.1-14.1c-3.3-4.3-5.4-10.3-5.4-15.8c0-5.4,1.6-9.8,4.3-13.6
			C35,39.7,38.7,34,41.8,29l0,0C43.3,26.6,44.7,24,46.2,21.2"/>
		<path class="st1" d="M54.5,37c-12.1,0-21.9,9.7-21.9,21.6c0,11.9,9.8,21.6,21.9,21.6c12.1,0,21.9-9.7,21.9-21.6
			C76.4,46.7,66.6,37,54.5,37"/>
		<path class="st1" d="M107.8,72.3c0.8-1.2,1.3-2.7,1.3-4.4v-0.1c0-1.4-0.4-2.5-1-3.5l-0.2-0.2C62.3,2.7,60.7,0,60.7,0
			c-6,8.1-1.1,15.2,2.2,21.2c1.5,2.9,3,5.4,4.4,7.8l0,0c3.1,5,6.8,10.7,10.3,16.3c2.7,3.8,4.3,8.1,4.3,13.6c0,5.4-2.2,11.4-5.4,15.8
			c-3.8,6-8.8,9.2-14.1,14.1c-2.2,2-3.4,3.7-4,6.5c-0.6,1.8-0.5,9.7-0.5,11.3v23.8H79c5.3-0.1,9.5-2.9,9.5-7.8h0c0-2.7,0-7.4,0-9.4
			c0.1-4.5,0.6-10,2.1-13L107.8,72.3L107.8,72.3z"/>
	</g>
</g>
</svg>
