<?xml version="1.0" encoding="UTF-8"?>
<svg id="Calque_1" xmlns="http://www.w3.org/2000/svg" xmlns:xlink="http://www.w3.org/1999/xlink" version="1.1" viewBox="0 0 269 380.7">
  <!-- Generator: Adobe Illustrator 29.2.0, SVG Export Plug-In . SVG Version: 2.1.0 Build 108)  -->
  <defs>
    <style>
      .st0 {
        fill: #fff;
      }

      .st1 {
        fill: #ffed00;
      }

      .st2 {
        fill: #008bd2;
      }

      .st3 {
        fill: #e30613;
      }

      .st4 {
        fill: #040603;
      }
    </style>
  </defs>
  <polygon class="st0" points="225.7 31 39.6 31 39.6 316.1 229.9 316.1 229.9 31 225.7 31"/>
  <path class="st0" d="M230.9,317.1H38.6V30h192.3v287.1ZM40.6,315.1h188.3V32H40.6v283.1Z"/>
  <path class="st0" d="M230.2,316.3H39.3V30.8h190.8v285.5h0ZM39.8,315.8h189.8V31.2H39.8v284.6Z"/>
  <path class="st0" d="M231.2,317.3H38.3V29.8h192.8v287.5h0ZM40.8,314.8h187.8V32.2H40.8v282.6Z"/>
  <polygon class="st1" points="204.8 35.3 225.5 35.3 225.5 311.9 43.9 311.9 43.9 255.6 204.8 35.3"/>
  <polygon class="st3" points="43.8 35.2 43.9 255.2 204.8 35.3 43.8 35.2"/>
  <path class="st4" d="M40.1,31.5v284h189.3V31.5H40.1ZM221.9,39v269.1H47.6V39h174.3Z"/>
  <polygon class="st2" points="202.1 39 40.5 259.8 59.2 260.6 200.7 68.8 202.1 39"/>
  <polygon class="st4" points="182.1 169.4 107.8 120.4 187.9 80.2 182.1 169.4"/>
  <polygon class="st4" points="177.5 251 122.6 251.1 150.2 203.2 177.5 251"/>
  <path class="st3" d="M136.9,278c.1-11.3,25-10.4,35.3,0h-35.3Z"/>
  <path class="st0" d="M49.1,345.5l-3,3.9h-7.5l14.2-18.8h5.5l13.8,18.8h-7.6l-2.8-3.9h-12.6ZM55.3,335.9h0l-4.1,6.6h8.6l-4.5-6.6Z"/>
  <path class="st0" d="M96.4,346.2h10v3.1h-17.1v-18.3h7.1v15.2Z"/>
  <path class="st0" d="M135.5,349.3h-7.1v-15.2h-7.4v-3.1h21.8v3.1h-7.3v15.2Z"/>
  <path class="st0" d="M167.5,334.1v4h11.3v3.1h-11.3v5h11.7v3.1h-18.8v-18.3h18.8v3.1h-11.7Z"/>
  <path class="st0" d="M198.9,330.5h5.1l19.2,12.8h.1v-12.3h7.1v18.7h-5.1l-19.2-12.8h-.1v12.4h-7.1v-18.8Z"/>
</svg>