<?xml version="1.0" encoding="UTF-8" standalone="no"?>
<!-- Created with Inkscape (http://www.inkscape.org/) -->

<svg
   width="223.04054mm"
   height="47.360924mm"
   viewBox="0 0 223.04054 47.360924"
   version="1.1"
   id="svg1"
   inkscape:version="1.3.2 (091e20e, 2023-11-25, custom)"
   sodipodi:docname="logoandre-w.svg"
   xmlns:inkscape="http://www.inkscape.org/namespaces/inkscape"
   xmlns:sodipodi="http://sodipodi.sourceforge.net/DTD/sodipodi-0.dtd"
   xmlns="http://www.w3.org/2000/svg"
   xmlns:svg="http://www.w3.org/2000/svg">
  <sodipodi:namedview
     id="namedview1"
     pagecolor="#ffffff"
     bordercolor="#000000"
     borderopacity="0.25"
     inkscape:showpageshadow="2"
     inkscape:pageopacity="0.0"
     inkscape:pagecheckerboard="0"
     inkscape:deskcolor="#d1d1d1"
     inkscape:document-units="mm"
     inkscape:zoom="0.73139029"
     inkscape:cx="442.99194"
     inkscape:cy="-133.30776"
     inkscape:window-width="1920"
     inkscape:window-height="1017"
     inkscape:window-x="-8"
     inkscape:window-y="-8"
     inkscape:window-maximized="1"
     inkscape:current-layer="layer1" />
  <defs
     id="defs1">
    <clipPath
       clipPathUnits="userSpaceOnUse"
       id="clipPath2">
      <path
         d="M 0,595.276 H 841.89 V 0 H 0 Z"
         transform="translate(-375.79931,-250.65941)"
         id="path2" />
    </clipPath>
    <clipPath
       clipPathUnits="userSpaceOnUse"
       id="clipPath4">
      <path
         d="M 0,595.276 H 841.89 V 0 H 0 Z"
         transform="translate(-390.50201,-250.65941)"
         id="path4" />
    </clipPath>
    <clipPath
       clipPathUnits="userSpaceOnUse"
       id="clipPath6">
      <path
         d="M 0,595.276 H 841.89 V 0 H 0 Z"
         transform="translate(-404.54391,-257.22671)"
         id="path6" />
    </clipPath>
    <clipPath
       clipPathUnits="userSpaceOnUse"
       id="clipPath8">
      <path
         d="M 0,595.276 H 841.89 V 0 H 0 Z"
         transform="translate(-419.26271,-260.52661)"
         id="path8" />
    </clipPath>
    <clipPath
       clipPathUnits="userSpaceOnUse"
       id="clipPath10">
      <path
         d="M 0,595.276 H 841.89 V 0 H 0 Z"
         transform="translate(-435.26861,-259.5041)"
         id="path10" />
    </clipPath>
    <clipPath
       clipPathUnits="userSpaceOnUse"
       id="clipPath12">
      <path
         d="M 0,595.276 H 841.89 V 0 H 0 Z"
         transform="translate(-454.03031,-262.34201)"
         id="path12" />
    </clipPath>
    <clipPath
       clipPathUnits="userSpaceOnUse"
       id="clipPath14">
      <path
         d="M 0,595.276 H 841.89 V 0 H 0 Z"
         transform="translate(-467.09861,-254.4377)"
         id="path14" />
    </clipPath>
    <clipPath
       clipPathUnits="userSpaceOnUse"
       id="clipPath16">
      <path
         d="M 0,595.276 H 841.89 V 0 H 0 Z"
         transform="translate(-482.39551,-259.5041)"
         id="path16" />
    </clipPath>
    <clipPath
       clipPathUnits="userSpaceOnUse"
       id="clipPath18">
      <path
         d="M 0,595.276 H 841.89 V 0 H 0 Z"
         transform="translate(-499.32621,-250.7912)"
         id="path18" />
    </clipPath>
    <clipPath
       clipPathUnits="userSpaceOnUse"
       id="clipPath20">
      <path
         d="M 0,595.276 H 841.89 V 0 H 0 Z"
         transform="translate(-510.26662,-260.52661)"
         id="path20" />
    </clipPath>
    <clipPath
       clipPathUnits="userSpaceOnUse"
       id="clipPath22">
      <path
         d="M 0,595.276 H 841.89 V 0 H 0 Z"
         transform="translate(-527.62501,-260.52661)"
         id="path22" />
    </clipPath>
    <clipPath
       clipPathUnits="userSpaceOnUse"
       id="clipPath24">
      <path
         d="M 0,595.276 H 841.89 V 0 H 0 Z"
         id="path24" />
    </clipPath>
    <clipPath
       clipPathUnits="userSpaceOnUse"
       id="clipPath26">
      <path
         d="M 0,595.276 H 841.89 V 0 H 0 Z"
         transform="translate(-553.64651,-250.7912)"
         id="path26" />
    </clipPath>
    <clipPath
       clipPathUnits="userSpaceOnUse"
       id="clipPath28">
      <path
         d="M 0,595.276 H 841.89 V 0 H 0 Z"
         transform="translate(-565.74221,-250.65941)"
         id="path28" />
    </clipPath>
    <clipPath
       clipPathUnits="userSpaceOnUse"
       id="clipPath30">
      <path
         d="M 0,595.276 H 841.89 V 0 H 0 Z"
         transform="translate(-341.56541,-270.9113)"
         id="path30" />
    </clipPath>
    <clipPath
       clipPathUnits="userSpaceOnUse"
       id="clipPath32">
      <path
         d="M 0,595.276 H 841.89 V 0 H 0 Z"
         transform="translate(-360.05921,-348.75311)"
         id="path32" />
    </clipPath>
    <clipPath
       clipPathUnits="userSpaceOnUse"
       id="clipPath34">
      <path
         d="M 0,595.276 H 841.89 V 0 H 0 Z"
         transform="translate(-308.20861,-350.72711)"
         id="path34" />
    </clipPath>
    <clipPath
       clipPathUnits="userSpaceOnUse"
       id="clipPath36">
      <path
         d="M 0,595.276 H 841.89 V 0 H 0 Z"
         transform="translate(-402.81981,-337.50451)"
         id="path36" />
    </clipPath>
    <clipPath
       clipPathUnits="userSpaceOnUse"
       id="clipPath38">
      <path
         d="M 0,595.276 H 841.89 V 0 H 0 Z"
         transform="translate(-323.16351,-267.227)"
         id="path38" />
    </clipPath>
    <clipPath
       clipPathUnits="userSpaceOnUse"
       id="clipPath40">
      <path
         d="M 0,595.276 H 841.89 V 0 H 0 Z"
         transform="translate(-383.60371,-343.52731)"
         id="path40" />
    </clipPath>
    <clipPath
       clipPathUnits="userSpaceOnUse"
       id="clipPath42">
      <path
         d="M 0,595.276 H 841.89 V 0 H 0 Z"
         transform="translate(-309.46921,-265.22011)"
         id="path42" />
    </clipPath>
    <clipPath
       clipPathUnits="userSpaceOnUse"
       id="clipPath44">
      <path
         d="M 0,595.276 H 841.89 V 0 H 0 Z"
         transform="translate(-305.00501,-288.20671)"
         id="path44" />
    </clipPath>
    <clipPath
       clipPathUnits="userSpaceOnUse"
       id="clipPath46">
      <path
         d="M 0,595.276 H 841.89 V 0 H 0 Z"
         transform="translate(-349.02051,-281.93861)"
         id="path46" />
    </clipPath>
    <clipPath
       clipPathUnits="userSpaceOnUse"
       id="clipPath48">
      <path
         d="M 0,595.276 H 841.89 V 0 H 0 Z"
         transform="translate(-372.79091,-290.17441)"
         id="path48" />
    </clipPath>
    <clipPath
       clipPathUnits="userSpaceOnUse"
       id="clipPath50">
      <path
         d="M 0,595.276 H 841.89 V 0 H 0 Z"
         transform="translate(-410.56871,-306.45471)"
         id="path50" />
    </clipPath>
    <clipPath
       clipPathUnits="userSpaceOnUse"
       id="clipPath52">
      <path
         d="M 0,595.276 H 841.89 V 0 H 0 Z"
         transform="translate(-434.37421,-319.39871)"
         id="path52" />
    </clipPath>
    <clipPath
       clipPathUnits="userSpaceOnUse"
       id="clipPath54">
      <path
         d="M 0,595.276 H 841.89 V 0 H 0 Z"
         transform="translate(-478.03441,-298.9475)"
         id="path54" />
    </clipPath>
    <clipPath
       clipPathUnits="userSpaceOnUse"
       id="clipPath56">
      <path
         d="M 0,595.276 H 841.89 V 0 H 0 Z"
         transform="translate(-502.61131,-296.01461)"
         id="path56" />
    </clipPath>
    <clipPath
       clipPathUnits="userSpaceOnUse"
       id="clipPath58">
      <path
         d="M 0,595.276 H 841.89 V 0 H 0 Z"
         transform="translate(-539.60491,-285.91271)"
         id="path58" />
    </clipPath>
    <clipPath
       clipPathUnits="userSpaceOnUse"
       id="clipPath60">
      <path
         d="M 0,595.276 H 841.89 V 0 H 0 Z"
         id="path60" />
    </clipPath>
    <clipPath
       clipPathUnits="userSpaceOnUse"
       id="clipPath62">
      <path
         d="M 0,595.276 H 841.89 V 0 H 0 Z"
         transform="translate(-572.19151,-286.5494)"
         id="path62" />
    </clipPath>
    <clipPath
       clipPathUnits="userSpaceOnUse"
       id="clipPath64">
      <path
         d="M 0,595.276 H 841.89 V 0 H 0 Z"
         transform="translate(-613.93342,-286.35421)"
         id="path64" />
    </clipPath>
    <clipPath
       clipPathUnits="userSpaceOnUse"
       id="clipPath66">
      <path
         d="M 0,595.276 H 841.89 V 0 H 0 Z"
         transform="translate(-629.80541,-305.36891)"
         id="path66" />
    </clipPath>
    <clipPath
       clipPathUnits="userSpaceOnUse"
       id="clipPath68">
      <path
         d="M 0,595.276 H 841.89 V 0 H 0 Z"
         transform="translate(-655.07782,-301.25291)"
         id="path68" />
    </clipPath>
    <clipPath
       clipPathUnits="userSpaceOnUse"
       id="clipPath70">
      <path
         d="M 0,595.276 H 841.89 V 0 H 0 Z"
         transform="translate(-687.92981,-281.93861)"
         id="path70" />
    </clipPath>
    <clipPath
       clipPathUnits="userSpaceOnUse"
       id="clipPath72">
      <path
         d="M 0,595.276 H 841.89 V 0 H 0 Z"
         transform="translate(-618.19202,-274.5635)"
         id="path72" />
    </clipPath>
    <clipPath
       clipPathUnits="userSpaceOnUse"
       id="clipPath74">
      <path
         d="M 0,595.276 H 841.89 V 0 H 0 Z"
         transform="translate(-250.65781,-283.77091)"
         id="path74" />
    </clipPath>
    <clipPath
       clipPathUnits="userSpaceOnUse"
       id="clipPath76">
      <path
         d="M 0,595.276 H 841.89 V 0 H 0 Z"
         transform="translate(-124.5567,-352.96411)"
         id="path76" />
    </clipPath>
    <clipPath
       clipPathUnits="userSpaceOnUse"
       id="clipPath78">
      <path
         d="M 0,595.276 H 841.89 V 0 H 0 Z"
         transform="translate(-251.96551,-379.84431)"
         id="path78" />
    </clipPath>
    <clipPath
       clipPathUnits="userSpaceOnUse"
       id="clipPath80">
      <path
         d="M 0,595.276 H 841.89 V 0 H 0 Z"
         transform="translate(-293.50381,-263.52041)"
         id="path80" />
    </clipPath>
    <clipPath
       clipPathUnits="userSpaceOnUse"
       id="clipPath82">
      <path
         d="M 0,595.276 H 841.89 V 0 H 0 Z"
         transform="translate(-139.5372,-279.74741)"
         id="path82" />
    </clipPath>
    <clipPath
       clipPathUnits="userSpaceOnUse"
       id="clipPath84">
      <path
         d="M 0,595.276 H 841.89 V 0 H 0 Z"
         transform="translate(-706.59112,-300.98861)"
         id="path84" />
    </clipPath>
    <clipPath
       clipPathUnits="userSpaceOnUse"
       id="clipPath86">
      <path
         d="M 0,595.276 H 841.89 V 0 H 0 Z"
         transform="translate(-722.78982,-322.88181)"
         id="path86" />
    </clipPath>
  </defs>
  <g
     inkscape:label="Livello 1"
     inkscape:groupmode="layer"
     id="layer1"
     transform="translate(12.435417,-183.62084)">
    <path
       id="path1"
       d="m 0,0 c -0.792,0 -1.43,0.226 -1.914,0.677 -0.55,0.527 -0.825,1.248 -0.825,2.161 V 4.34 h 1.815 V 2.838 c 0,-0.396 0.082,-0.671 0.247,-0.825 C -0.534,1.881 -0.308,1.815 0,1.815 c 0.319,0 0.544,0.066 0.676,0.198 0.165,0.143 0.248,0.418 0.248,0.825 v 0.726 c 0,0.506 -0.204,0.946 -0.611,1.32 -0.088,0.077 -0.319,0.22 -0.692,0.429 -0.518,0.275 -0.897,0.517 -1.139,0.726 -0.396,0.353 -0.699,0.754 -0.908,1.205 -0.209,0.45 -0.313,0.935 -0.313,1.452 v 0.281 c 0,0.913 0.275,1.633 0.825,2.161 0.484,0.451 1.122,0.676 1.914,0.676 0.792,0 1.43,-0.225 1.914,-0.676 C 2.464,10.61 2.739,9.89 2.739,8.977 V 7.97 H 0.924 V 8.977 C 0.924,9.384 0.841,9.658 0.676,9.802 0.544,9.934 0.319,10 0,10 -0.308,10 -0.534,9.934 -0.677,9.802 -0.842,9.647 -0.924,9.372 -0.924,8.977 V 8.696 c 0,-0.507 0.203,-0.941 0.611,-1.303 C -0.204,7.304 0.011,7.172 0.33,6.996 0.902,6.688 1.298,6.436 1.518,6.237 2.332,5.511 2.739,4.62 2.739,3.564 V 2.838 C 2.739,1.925 2.464,1.204 1.914,0.677 1.43,0.226 0.792,0 0,0"
       style="fill:#ffffff;fill-opacity:1;fill-rule:nonzero;stroke:none"
       transform="matrix(0.35277776,0,0,-0.35277776,84.95115,229.57943)"
       clip-path="url(#clipPath2)" />
    <path
       id="path3"
       d="m 0,0 c -0.792,0 -1.43,0.226 -1.914,0.677 -0.55,0.527 -0.825,1.248 -0.825,2.161 v 8.845 h 1.815 V 2.838 c 0,-0.407 0.077,-0.682 0.231,-0.825 C -0.55,1.881 -0.319,1.815 0,1.815 c 0.308,0 0.533,0.066 0.676,0.198 0.165,0.154 0.248,0.429 0.248,0.825 v 8.845 H 2.739 V 2.838 C 2.739,1.947 2.464,1.227 1.914,0.677 1.408,0.226 0.77,0 0,0"
       style="fill:#ffffff;fill-opacity:1;fill-rule:nonzero;stroke:none"
       transform="matrix(0.35277776,0,0,-0.35277776,90.137936,229.57943)"
       clip-path="url(#clipPath4)" />
    <path
       id="path5"
       d="M 0,0 H 0.924 C 1.232,0 1.458,0.065 1.601,0.198 1.766,0.352 1.848,0.627 1.848,1.023 V 2.277 C 1.848,2.662 1.766,2.938 1.601,3.103 1.458,3.234 1.232,3.3 0.924,3.3 H 0 Z M 0,-6.436 H -1.815 V 5.115 H 0.924 C 1.705,5.115 2.343,4.884 2.838,4.422 3.388,3.916 3.663,3.201 3.663,2.277 V 1.023 C 3.663,0.088 3.388,-0.633 2.838,-1.139 2.354,-1.59 1.716,-1.815 0.924,-1.815 H 0 Z"
       style="fill:#ffffff;fill-opacity:1;fill-rule:nonzero;stroke:none"
       transform="matrix(0.35277776,0,0,-0.35277776,95.091608,227.26263)"
       clip-path="url(#clipPath6)" />
    <path
       id="path7"
       d="M 0,0 V -2.904 H 2.046 V -4.719 H 0 V -7.92 H 2.97 V -9.735 H -1.815 V 1.815 H 2.97 V 0 Z"
       style="fill:#ffffff;fill-opacity:1;fill-rule:nonzero;stroke:none"
       transform="matrix(0.35277776,0,0,-0.35277776,100.28407,226.0985)"
       clip-path="url(#clipPath8)" />
    <path
       id="path9"
       d="m 0,0 c 0,0.385 -0.082,0.66 -0.247,0.825 -0.144,0.132 -0.369,0.197 -0.677,0.197 h -0.924 v -3.283 h 0.924 c 0.308,0 0.533,0.066 0.677,0.198 C -0.082,-1.909 0,-1.634 0,-1.238 Z m 1.766,-8.713 h -1.848 l -0.941,4.637 H -1.848 V -8.713 H -3.663 V 2.838 h 2.739 C -0.143,2.838 0.495,2.606 0.99,2.145 1.54,1.639 1.815,0.924 1.815,0 V -1.238 C 1.815,-2.173 1.54,-2.894 0.99,-3.399 0.913,-3.477 0.825,-3.548 0.727,-3.614 Z"
       style="fill:#ffffff;fill-opacity:1;fill-rule:nonzero;stroke:none"
       transform="matrix(0.35277776,0,0,-0.35277776,105.9306,226.45921)"
       clip-path="url(#clipPath10)" />
    <path
       id="path11"
       d="m 0,0 v -11.551 h -1.814 v 5.759 L -3.283,-9.735 H -4.34 l -1.468,3.943 v -5.759 H -7.623 V 0 h 1.039 L -3.812,-6.402 -1.039,0 Z"
       style="fill:#ffffff;fill-opacity:1;fill-rule:nonzero;stroke:none"
       transform="matrix(0.35277776,0,0,-0.35277776,112.54931,225.45807)"
       clip-path="url(#clipPath12)" />
    <path
       id="path13"
       d="M 0,0 -0.726,4.142 -1.452,0 Z m 0.313,-1.814 h -2.079 l -0.33,-1.832 h -1.847 l 2.309,11.55 h 1.816 l 2.31,-11.55 H 0.644 Z"
       style="fill:#ffffff;fill-opacity:1;fill-rule:nonzero;stroke:none"
       transform="matrix(0.35277776,0,0,-0.35277776,117.15951,228.24653)"
       clip-path="url(#clipPath14)" />
    <path
       id="path15"
       d="m 0,0 c 0,0.385 -0.082,0.66 -0.247,0.825 -0.144,0.132 -0.369,0.197 -0.677,0.197 h -0.924 v -3.283 h 0.924 c 0.308,0 0.533,0.066 0.677,0.198 C -0.082,-1.909 0,-1.634 0,-1.238 Z m 1.766,-8.713 h -1.848 l -0.941,4.637 H -1.848 V -8.713 H -3.663 V 2.838 h 2.739 C -0.143,2.838 0.495,2.606 0.99,2.145 1.54,1.639 1.815,0.924 1.815,0 V -1.238 C 1.815,-2.173 1.54,-2.894 0.99,-3.399 0.913,-3.477 0.825,-3.548 0.727,-3.614 Z"
       style="fill:#ffffff;fill-opacity:1;fill-rule:nonzero;stroke:none"
       transform="matrix(0.35277776,0,0,-0.35277776,122.55592,226.45921)"
       clip-path="url(#clipPath16)" />
    <path
       id="path17"
       d="M 0,0 H -1.947 L -3.35,3.696 -3.977,2.261 V 0 h -1.815 v 11.551 h 1.815 V 6.864 l 2.013,4.687 H 0 L -2.327,6.072 Z"
       style="fill:#ffffff;fill-opacity:1;fill-rule:nonzero;stroke:none"
       transform="matrix(0.35277776,0,0,-0.35277776,128.5287,229.53293)"
       clip-path="url(#clipPath18)" />
    <path
       id="path19"
       d="M 0,0 V -2.904 H 2.046 V -4.719 H 0 V -7.92 H 2.97 V -9.735 H -1.815 V 1.815 H 2.97 V 0 Z"
       style="fill:#ffffff;fill-opacity:1;fill-rule:nonzero;stroke:none"
       transform="matrix(0.35277776,0,0,-0.35277776,132.38823,226.0985)"
       clip-path="url(#clipPath20)" />
    <path
       id="path21"
       d="M 0,0 H -1.849 V -9.735 H -3.664 V 0 H -5.512 V 1.815 H 0 Z"
       style="fill:#ffffff;fill-opacity:1;fill-rule:nonzero;stroke:none"
       transform="matrix(0.35277776,0,0,-0.35277776,138.51188,226.0985)"
       clip-path="url(#clipPath22)" />
    <path
       id="path23"
       d="m 538.499,250.791 h -1.815 v 11.551 h 1.815 z"
       style="fill:#ffffff;fill-opacity:1;fill-rule:nonzero;stroke:none"
       transform="matrix(0.35277776,0,0,-0.35277776,-47.622489,318.00649)"
       clip-path="url(#clipPath24)" />
    <path
       id="path25"
       d="M 0,0 H -1.056 L -3.828,5.857 V 0 h -1.816 v 11.551 h 1.057 l 2.772,-5.842 v 5.842 H 0 Z"
       style="fill:#ffffff;fill-opacity:1;fill-rule:nonzero;stroke:none"
       transform="matrix(0.35277776,0,0,-0.35277776,147.69169,229.53293)"
       clip-path="url(#clipPath26)" />
    <path
       id="path27"
       d="m 0,0 c -0.771,0 -1.408,0.226 -1.914,0.677 -0.551,0.55 -0.825,1.27 -0.825,2.161 v 6.139 c 0,0.89 0.274,1.611 0.825,2.161 0.506,0.451 1.143,0.676 1.914,0.676 0.792,0 1.43,-0.225 1.914,-0.676 C 2.464,10.61 2.739,9.89 2.739,8.977 V 7.953 H 0.924 V 8.977 C 0.924,9.384 0.847,9.658 0.692,9.802 0.55,9.934 0.318,10 0,10 -0.309,10 -0.534,9.934 -0.677,9.802 -0.842,9.647 -0.924,9.372 -0.924,8.977 V 2.838 c 0,-0.396 0.082,-0.671 0.247,-0.825 C -0.534,1.881 -0.309,1.815 0,1.815 c 0.318,0 0.55,0.066 0.692,0.198 0.155,0.143 0.232,0.418 0.232,0.825 V 5 H 0.017 V 6.814 H 2.739 V 2.838 C 2.739,1.925 2.464,1.204 1.914,0.677 1.43,0.226 0.792,0 0,0"
       style="fill:#ffffff;fill-opacity:1;fill-rule:nonzero;stroke:none"
       transform="matrix(0.35277776,0,0,-0.35277776,151.95878,229.57943)"
       clip-path="url(#clipPath28)" />
    <path
       id="path29"
       d="m 0,0 8.184,-18.427 c 2.012,0.319 4.022,0.651 6.032,0.999 L 4.773,1.169 C 3.186,0.761 1.596,0.373 0,0"
       style="fill:#ffffff;fill-opacity:1;fill-rule:nonzero;stroke:none"
       transform="matrix(0.35277776,0,0,-0.35277776,72.874191,222.43501)"
       clip-path="url(#clipPath30)" />
    <path
       id="path31"
       d="m 0,0 -2.992,-8.088 c 2.442,-0.767 4.874,-1.575 7.286,-2.443 2.356,-0.848 4.704,-1.745 7.029,-2.704 l 4.941,9.848 c -2.21,0.525 -4.424,1.028 -6.638,1.5 C 6.427,-1.204 3.217,-0.589 0,0"
       style="fill:#ffffff;fill-opacity:1;fill-rule:nonzero;stroke:none"
       transform="matrix(0.35277776,0,0,-0.35277776,79.398393,194.97415)"
       clip-path="url(#clipPath32)" />
    <path
       id="path33"
       d="m 0,0 c 14.049,-1.788 28.124,-4.22 41.809,-7.988 l 2.692,7.274 c -12.73,2.05 -25.567,3.46 -38.407,4.475 -17.087,1.35 -34.236,1.877 -51.37,1.562 L -45.565,3.286 C -30.299,3.007 -15.063,1.919 0,0"
       style="fill:#ffffff;fill-opacity:1;fill-rule:nonzero;stroke:none"
       transform="matrix(0.35277776,0,0,-0.35277776,61.106655,194.27777)"
       clip-path="url(#clipPath34)" />
    <path
       id="path35"
       d="m 0,0 -12.01,-13.052 c 0.949,-0.778 1.872,-1.606 2.761,-2.474 L 4.956,-1.899 C 3.313,-1.244 1.662,-0.609 0,0"
       style="fill:#ffffff;fill-opacity:1;fill-rule:nonzero;stroke:none"
       transform="matrix(0.35277776,0,0,-0.35277776,94.483384,198.9424)"
       clip-path="url(#clipPath36)" />
    <path
       id="path37"
       d="m 0,0 4.751,-17.667 c 4.784,0.522 9.559,1.118 14.319,1.793 L 11.097,2.074 C 7.41,1.319 3.714,0.619 0,0"
       style="fill:#ffffff;fill-opacity:1;fill-rule:nonzero;stroke:none"
       transform="matrix(0.35277776,0,0,-0.35277776,66.382412,223.73475)"
       clip-path="url(#clipPath38)" />
    <path
       id="path39"
       d="m 0,0 -5.533,-11.03 c 2.303,-1.142 4.558,-2.376 6.731,-3.744 L 11.649,-3.419 C 7.797,-2.177 3.91,-1.041 0,0"
       style="fill:#ffffff;fill-opacity:1;fill-rule:nonzero;stroke:none"
       transform="matrix(0.35277776,0,0,-0.35277776,87.70437,196.81769)"
       clip-path="url(#clipPath40)" />
    <path
       id="path41"
       d="m 0,0 c -2.883,-0.37 -5.771,-0.696 -8.66,-0.998 l 2.162,-16.722 c 5.858,0.334 11.711,0.763 17.551,1.309 L 6.406,0.879 C 4.272,0.57 2.135,0.275 0,0"
       style="fill:#ffffff;fill-opacity:1;fill-rule:nonzero;stroke:none"
       transform="matrix(0.35277776,0,0,-0.35277776,61.551366,224.44273)"
       clip-path="url(#clipPath42)" />
    <path
       id="path43"
       d="M 0,0 V 6.125 C -2.174,5.242 -3.761,4.45 -4.765,3.749 -5.767,3.043 -6.266,2.09 -6.266,0.889 c 0,-0.865 0.249,-1.526 0.75,-1.982 0.501,-0.458 1.082,-0.687 1.746,-0.687 0.629,0 1.251,0.173 1.87,0.52 0.62,0.349 1.254,0.766 1.9,1.26 M 12.757,-4.974 C 11.415,-5.504 10.175,-5.93 9.038,-6.252 7.901,-6.576 6.533,-6.737 4.94,-6.737 c -1.51,0 -2.563,0.269 -3.16,0.804 -0.593,0.536 -1.017,1.188 -1.271,1.956 -0.988,-0.801 -2.084,-1.461 -3.289,-1.982 -1.207,-0.516 -2.788,-0.778 -4.743,-0.778 -1.886,0 -3.412,0.328 -4.575,0.979 -1.167,0.655 -1.982,1.477 -2.45,2.471 -0.467,0.992 -0.699,2.014 -0.699,3.067 0,1.594 0.405,2.915 1.21,3.959 0.808,1.045 1.892,1.896 3.251,2.56 1.36,0.661 3.163,1.347 5.405,2.061 1.274,0.407 2.24,0.718 2.893,0.932 0.656,0.21 1.144,0.375 1.468,0.495 0.321,0.118 0.661,0.271 1.02,0.458 0,1.254 -0.256,2.238 -0.766,2.949 -0.511,0.711 -1.613,1.068 -3.314,1.068 -2.006,0 -3.868,-0.442 -5.584,-1.324 -1.715,-0.882 -3.288,-2.02 -4.718,-3.412 v 7.035 c 1.14,0.814 2.372,1.484 3.696,2 1.327,0.522 2.709,0.907 4.153,1.165 1.444,0.254 2.906,0.383 4.385,0.383 3.753,0 6.58,-0.727 8.474,-2.179 1.894,-1.449 2.841,-3.447 2.841,-5.992 V 1.935 c 0,-0.95 0.088,-1.658 0.266,-2.125 0.179,-0.466 0.505,-0.699 0.979,-0.699 0.579,0 1.359,0.247 2.345,0.738 z"
       style="fill:#ffffff;fill-opacity:1;fill-rule:nonzero;stroke:none"
       transform="matrix(0.35277776,0,0,-0.35277776,59.976495,216.33357)"
       clip-path="url(#clipPath44)" />
    <path
       id="path45"
       d="m 0,0 h -9.167 v 13.421 0.534 c 0,1.421 -0.233,2.665 -0.699,3.723 -0.465,1.059 -1.484,1.588 -3.054,1.588 -0.745,0 -1.401,-0.14 -1.967,-0.421 -0.567,-0.277 -1.072,-0.639 -1.521,-1.078 -0.45,-0.441 -0.824,-0.865 -1.127,-1.271 -0.307,-0.408 -0.62,-0.84 -0.939,-1.297 V 0 h -9.166 v 25.91 h 9.166 v -3.729 c 1.439,1.552 2.882,2.639 4.332,3.261 1.448,0.622 3.061,0.935 4.841,0.935 C -3.102,26.377 0,22.659 0,15.224 Z"
       style="fill:#ffffff;fill-opacity:1;fill-rule:nonzero;stroke:none"
       transform="matrix(0.35277776,0,0,-0.35277776,75.504187,218.54482)"
       clip-path="url(#clipPath46)" />
    <path
       id="path47"
       d="m 0,0 v 9.893 c -1.076,0.592 -1.914,1.016 -2.524,1.27 -0.604,0.256 -1.318,0.384 -2.135,0.384 -1.45,0 -2.658,-0.61 -3.623,-1.834 -0.964,-1.217 -1.446,-2.881 -1.446,-4.984 0,-2.287 0.508,-3.954 1.522,-4.995 1.018,-1.043 2.199,-1.563 3.547,-1.563 1.11,0 2.005,0.172 2.689,0.52 C -1.289,-0.96 -0.632,-0.525 0,0 M 9.166,-8.236 H 0 v 2.332 c -0.971,-0.815 -1.994,-1.485 -3.076,-2.012 -1.079,-0.525 -2.573,-0.789 -4.475,-0.789 -1.887,0 -3.741,0.466 -5.563,1.399 -1.817,0.935 -3.313,2.39 -4.488,4.369 -1.173,1.98 -1.761,4.471 -1.761,7.477 0,2.359 0.442,4.571 1.327,6.635 0.884,2.06 2.272,3.738 4.157,5.028 1.888,1.291 4.2,1.938 6.939,1.938 1.702,0 3.078,-0.19 4.135,-0.564 1.054,-0.375 1.988,-0.852 2.805,-1.429 v 10.927 h 9.166 z"
       style="fill:#ffffff;fill-opacity:1;fill-rule:nonzero;stroke:none"
       transform="matrix(0.35277776,0,0,-0.35277776,83.889854,215.63941)"
       clip-path="url(#clipPath48)" />
    <path
       id="path49"
       d="m 0,0 -3.384,-9.201 c -1.394,1.324 -2.804,1.988 -4.231,1.988 -1.287,0 -2.404,-0.438 -3.345,-1.312 -0.944,-0.874 -1.848,-2.488 -2.713,-4.847 v -11.144 h -9.168 v 25.91 h 9.168 v -6.261 c 0.578,1.544 1.596,3.054 3.055,4.522 1.46,1.468 3.175,2.206 5.144,2.206 1.035,0 1.941,-0.156 2.713,-0.459 C -1.989,1.095 -1.07,0.627 0,0"
       style="fill:#ffffff;fill-opacity:1;fill-rule:nonzero;stroke:none"
       transform="matrix(0.35277776,0,0,-0.35277776,97.217022,209.89609)"
       clip-path="url(#clipPath50)" />
    <path
       id="path51"
       d="m 0,0 -9.412,-8.09 h -4.9 L -9.923,0 Z m -4.492,-22.168 c 0,1.649 -0.411,2.965 -1.235,3.949 -0.824,0.982 -2.008,1.477 -3.554,1.477 -1.529,0 -2.769,-0.502 -3.71,-1.504 -0.944,-1 -1.413,-2.309 -1.413,-3.922 z m 8.605,-4.535 h -18.265 c 0.357,-1.582 1.23,-2.875 2.626,-3.877 1.391,-1.002 2.972,-1.503 4.737,-1.503 3.089,0 6.505,0.866 10.242,2.599 v -5.688 c -1.341,-0.699 -2.968,-1.333 -4.877,-1.903 -1.912,-0.568 -4.344,-0.854 -7.299,-0.854 -3.192,0 -5.911,0.594 -8.149,1.784 -2.243,1.187 -3.917,2.8 -5.029,4.837 -1.114,2.039 -1.669,4.347 -1.669,6.928 0,2.547 0.555,4.825 1.669,6.84 1.112,2.011 2.786,3.592 5.029,4.735 2.238,1.149 4.957,1.722 8.149,1.722 2.107,0 4.139,-0.455 6.099,-1.362 1.962,-0.909 3.575,-2.392 4.841,-4.452 1.267,-2.062 1.896,-4.72 1.896,-7.976 z"
       style="fill:#ffffff;fill-opacity:1;fill-rule:nonzero;stroke:none"
       transform="matrix(0.35277776,0,0,-0.35277776,105.61507,205.32973)"
       clip-path="url(#clipPath52)" />
    <path
       id="path53"
       d="m 0,0 v -17.009 h -4.676 v 13.037 c 0,2.597 -0.348,4.41 -1.044,5.437 -0.695,1.028 -1.905,1.542 -3.636,1.542 -0.969,0 -1.853,-0.222 -2.66,-0.664 C -12.819,1.902 -13.74,1.12 -14.776,0 v -17.009 h -4.63 v 23.43 h 4.63 V 3.335 c 2.359,2.368 4.671,3.555 6.929,3.555 2.969,0 5.272,-1.416 6.903,-4.244 2.479,2.828 5.065,4.244 7.768,4.244 2.274,0 4.143,-0.833 5.613,-2.495 1.469,-1.66 2.203,-4.194 2.203,-7.6 v -13.804 h -4.631 v 13.884 c 0,1.953 -0.399,3.448 -1.196,4.483 C 8.015,2.396 6.866,2.914 5.372,2.914 3.457,2.914 1.663,1.939 0,0"
       style="fill:#ffffff;fill-opacity:1;fill-rule:nonzero;stroke:none"
       transform="matrix(0.35277776,0,0,-0.35277776,121.01742,212.54446)"
       clip-path="url(#clipPath54)" />
    <path
       id="path55"
       d="M 0,0 H 11.785 C 11.671,1.856 11.117,3.287 10.132,4.291 9.147,5.297 7.825,5.799 6.162,5.799 4.498,5.799 3.137,5.297 2.076,4.291 1.015,3.287 0.325,1.856 0,0 M 16.37,-2.758 H -0.094 c 0.121,-2.245 0.872,-4.032 2.252,-5.356 1.382,-1.325 3.165,-1.988 5.351,-1.988 3.05,0 5.863,0.935 8.44,2.806 v -4.519 c -1.424,-0.946 -2.836,-1.622 -4.233,-2.03 -1.4,-0.404 -3.04,-0.607 -4.919,-0.607 -2.578,0 -4.662,0.535 -6.255,1.606 -1.594,1.071 -2.872,2.511 -3.827,4.324 -0.958,1.81 -1.439,3.904 -1.439,6.283 0,3.571 1.011,6.472 3.029,8.708 2.02,2.234 4.64,3.354 7.864,3.354 3.104,0 5.579,-1.09 7.43,-3.261 1.848,-2.174 2.771,-5.085 2.771,-8.738 z"
       style="fill:#ffffff;fill-opacity:1;fill-rule:nonzero;stroke:none"
       transform="matrix(0.35277776,0,0,-0.35277776,129.68761,213.57912)"
       clip-path="url(#clipPath56)" />
    <path
       id="path57"
       d="m 0,0 v 14.853 c -1.44,0.729 -2.895,1.096 -4.373,1.096 -2.304,0 -4.141,-0.757 -5.503,-2.269 -1.366,-1.512 -2.048,-3.551 -2.048,-6.115 0,-2.412 0.593,-4.27 1.78,-5.579 C -9.431,1.204 -8.679,0.68 -7.883,0.406 -7.084,0.135 -5.653,0 -3.583,0 Z M 0,31.615 H 4.678 V -3.974 h -9.901 c -3.462,0 -6.222,1.094 -8.287,3.285 -2.06,2.19 -3.093,5.128 -3.093,8.812 0,3.45 1.082,6.285 3.243,8.51 2.163,2.223 4.918,3.337 8.278,3.337 1.559,0 3.253,-0.332 5.082,-0.994 z"
       style="fill:#ffffff;fill-opacity:1;fill-rule:nonzero;stroke:none"
       transform="matrix(0.35277776,0,0,-0.35277776,142.73813,217.14285)"
       clip-path="url(#clipPath58)" />
    <path
       id="path59"
       d="m 550.658,305.369 h 4.63 v -23.43 h -4.63 z m 2.278,9.867 c 0.762,0 1.416,-0.262 1.96,-0.787 0.541,-0.528 0.814,-1.174 0.814,-1.937 0,-0.746 -0.273,-1.39 -0.814,-1.935 -0.544,-0.54 -1.198,-0.813 -1.96,-0.813 -0.715,0 -1.34,0.275 -1.884,0.828 -0.543,0.549 -0.816,1.192 -0.816,1.92 0,0.713 0.273,1.344 0.816,1.897 0.544,0.55 1.169,0.827 1.884,0.827"
       style="fill:#ffffff;fill-opacity:1;fill-rule:nonzero;stroke:none"
       transform="matrix(0.35277776,0,0,-0.35277776,-47.622489,318.00649)"
       clip-path="url(#clipPath60)" />
    <path
       id="path61"
       d="M 0,0 V 6.987 L -3.106,5.786 C -4.685,5.153 -5.802,4.519 -6.457,3.881 -7.109,3.242 -7.437,2.445 -7.437,1.492 c 0,-0.974 0.31,-1.767 0.932,-2.379 0.618,-0.614 1.42,-0.919 2.405,-0.919 1.477,0 2.842,0.602 4.1,1.806 m 4.538,9.462 v -9.975 c 0,-0.8 0.271,-1.199 0.82,-1.199 0.562,0 1.443,0.403 2.639,1.216 V -3.284 C 6.951,-3.943 6.113,-4.39 5.479,-4.629 4.848,-4.866 4.183,-4.987 3.494,-4.987 c -1.976,0 -3.14,0.763 -3.494,2.29 -1.982,-1.527 -4.092,-2.29 -6.328,-2.29 -1.639,0 -3.005,0.538 -4.099,1.618 -1.093,1.081 -1.639,2.435 -1.639,4.064 0,1.48 0.531,2.802 1.593,3.965 1.064,1.164 2.572,2.087 4.527,2.765 L 0,9.465 v 1.247 c 0,2.816 -1.414,4.225 -4.238,4.225 -2.537,0 -5.007,-1.294 -7.406,-3.881 v 5.054 c 1.8,2.117 4.39,3.178 7.772,3.178 2.532,0 4.56,-0.665 6.09,-1.993 0.51,-0.423 0.97,-0.99 1.375,-1.696 C 4.002,14.894 4.26,14.188 4.369,13.481 4.48,12.776 4.538,11.436 4.538,9.462"
       style="fill:#ffffff;fill-opacity:1;fill-rule:nonzero;stroke:none"
       transform="matrix(0.35277776,0,0,-0.35277776,154.23395,216.91823)"
       clip-path="url(#clipPath62)" />
    <path
       id="path63"
       d="m 0,0 v 14.664 h -2.935 c -2.011,0 -3.349,-0.091 -4.021,-0.267 -0.675,-0.178 -1.255,-0.423 -1.75,-0.735 -0.494,-0.316 -0.947,-0.7 -1.354,-1.157 -1.276,-1.437 -1.914,-3.218 -1.914,-5.334 0,-2.386 0.719,-4.339 2.158,-5.855 1.438,-1.515 3.297,-2.272 5.577,-2.272 0.529,0 0.961,0.033 1.3,0.096 0.344,0.068 1.091,0.287 2.248,0.664 l 0.358,0.099 z M -4.136,19.015 H 4.629 V -8.908 H 0 v 4.886 c -2.023,-0.543 -3.733,-0.814 -5.125,-0.814 -3.331,0 -6.086,1.118 -8.263,3.362 -2.173,2.242 -3.261,5.086 -3.261,8.536 0,3.652 1.128,6.558 3.386,8.715 2.26,2.158 5.304,3.238 9.127,3.238"
       style="fill:#ffffff;fill-opacity:1;fill-rule:nonzero;stroke:none"
       transform="matrix(0.35277776,0,0,-0.35277776,168.95957,216.98709)"
       clip-path="url(#clipPath64)" />
    <path
       id="path65"
       d="m 0,0 v -5.378 l 0.254,0.409 c 2.239,3.625 4.48,5.438 6.717,5.438 1.749,0 3.569,-0.887 5.471,-2.655 L 10,-6.268 c -1.612,1.526 -3.105,2.291 -4.478,2.291 -1.493,0 -2.786,-0.712 -3.88,-2.139 C 0.546,-7.542 0,-9.233 0,-11.183 V -23.43 H -4.678 V 0 Z"
       style="fill:#ffffff;fill-opacity:1;fill-rule:nonzero;stroke:none"
       transform="matrix(0.35277776,0,0,-0.35277776,174.55886,210.27913)"
       clip-path="url(#clipPath66)" />
    <path
       id="path67"
       d="m 0,0 c -2.221,0 -4.045,-0.731 -5.468,-2.193 -1.427,-1.458 -2.141,-3.32 -2.141,-5.578 0,-2.242 0.73,-4.072 2.19,-5.489 1.458,-1.419 3.335,-2.127 5.623,-2.127 2.275,0 4.137,0.717 5.587,2.15 1.451,1.437 2.175,3.275 2.175,5.518 0,2.225 -0.756,4.068 -2.266,5.526 C 4.193,-0.731 2.292,0 0,0 m 0.266,4.163 c 3.563,0 6.528,-1.152 8.887,-3.454 2.358,-2.302 3.536,-5.193 3.536,-8.676 0,-3.381 -1.195,-6.187 -3.59,-8.419 -2.39,-2.232 -5.403,-3.349 -9.037,-3.349 -3.513,0 -6.449,1.131 -8.808,3.398 -2.358,2.268 -3.539,5.102 -3.539,8.498 0,3.432 1.192,6.29 3.578,8.573 2.384,2.285 5.374,3.429 8.973,3.429"
       style="fill:#ffffff;fill-opacity:1;fill-rule:nonzero;stroke:none"
       transform="matrix(0.35277776,0,0,-0.35277776,183.4744,211.73116)"
       clip-path="url(#clipPath68)" />
    <path
       id="path69"
       d="M 0,0 V 3.001 C -0.987,1.919 -2.119,1.078 -3.39,0.479 c -1.272,-0.602 -2.541,-0.9 -3.802,-0.9 -1.488,0 -2.857,0.368 -4.111,1.107 -1.253,0.739 -2.202,1.743 -2.842,3.008 -0.638,1.265 -0.961,3.367 -0.961,6.305 V 23.43 h 4.63 V 10.073 c 0,-2.459 0.356,-4.177 1.066,-5.151 0.711,-0.976 1.957,-1.462 3.737,-1.462 2.225,0 4.115,1.077 5.673,3.233 V 23.43 H 4.63 V 0 Z"
       style="fill:#ffffff;fill-opacity:1;fill-rule:nonzero;stroke:none"
       transform="matrix(0.35277776,0,0,-0.35277776,195.06385,218.54482)"
       clip-path="url(#clipPath70)" />
    <path
       id="path71"
       d="m 0,0 c -0.514,-1.826 -1.391,-2.355 -2.061,-2.783 -2.005,-1.326 -4.667,-1.99 -7.989,-1.99 -4.434,0 -7.83,1.059 -10.192,3.177 v 5.055 c 3.148,-2.587 6.387,-3.881 9.713,-3.881 3.705,0 6.27,0.887 6.27,4.223 l 4.63,1.25 C 0.371,3.079 0.482,1.712 0,0"
       style="fill:#ffffff;fill-opacity:1;fill-rule:nonzero;stroke:none"
       transform="matrix(0.35277776,0,0,-0.35277776,170.46191,221.14659)"
       clip-path="url(#clipPath72)" />
    <path
       id="path73"
       d="m 0,0 c -0.744,-2.781 -2.286,-3.867 -5.106,-5.103 l -77.028,-31.642 c -2.812,-1.079 -5.8,0.718 -6.705,4.453 l -18.187,99.703 c 0,2.823 1.033,4.248 5.103,5.102 L 6.519,93.656 c 3.443,0.799 5.642,-0.132 5.103,-5.106 z"
       style="fill:#ffffff;fill-opacity:1;fill-rule:nonzero;stroke:none"
       transform="matrix(0.35277776,0,0,-0.35277776,40.804012,217.89842)"
       clip-path="url(#clipPath74)" />
    <path
       id="path75"
       d="m 0,0 c -1.293,5.5 -0.72,5.086 5.826,3.182 8.701,-2.53 9.438,-2.211 10.173,-5.891 l 16.065,-83.69 c 0.134,-0.712 1.746,-8.821 2.074,-10.706 0.762,-4.395 0.833,-6.502 -3.398,-4.688 -4.069,1.742 -3.377,1.663 -6.526,13.378 z"
       style="fill:#ffffff;fill-opacity:1;fill-rule:nonzero;stroke:none"
       transform="matrix(0.35277776,0,0,-0.35277776,-3.6816537,193.4886)"
       clip-path="url(#clipPath76)" />
    <path
       id="path77"
       d="m 0,0 c -5.168,1.195 -5.71,1.321 -9.578,0.8 -4.258,-0.565 -112.419,-15.456 -112.419,-15.456 -8.263,-1.111 -6.439,-3.549 -1.63,-4.892 6.21,-1.72 8.161,-2.618 10.636,-2.585 1.437,0.016 3.516,0.076 6.537,0.626 0,0 105.893,20.033 106.158,20.075 C 1.746,-1.084 1.378,-0.317 0,0"
       style="fill:#ffffff;fill-opacity:1;fill-rule:nonzero;stroke:none"
       transform="matrix(0.35277776,0,0,-0.35277776,41.265339,184.00587)"
       clip-path="url(#clipPath78)" />
    <path
       id="path79"
       d="m 0,0 c -14.037,-1.217 -28.134,-1.719 -42.221,-1.657 -11.493,0.051 -22.989,0.554 -34.443,1.523 l -24.859,-10.269 c 15.655,-2.625 31.471,-4.309 47.309,-5.32 18.7,-1.195 37.54,-1.448 56.335,-0.661 z"
       style="fill:#ffffff;fill-opacity:1;fill-rule:nonzero;stroke:none"
       transform="matrix(0.35277776,0,0,-0.35277776,55.919128,225.04235)"
       clip-path="url(#clipPath80)" />
    <path
       id="path81"
       d="m 0,0 c -7.574,3.12 -15.335,6.869 -21.568,12.276 -5.115,4.433 -9.685,10.826 -8.616,17.941 0.916,6.11 5.447,11.048 10.083,14.779 2.61,2.103 5.421,3.932 8.333,5.588 l -0.225,0.836 c -3.481,-1.684 -6.88,-3.527 -10.12,-5.609 -6.715,-4.312 -13.601,-10.047 -16.459,-17.747 -6.381,-17.19 13.674,-29.894 26.556,-36.095 5.866,-2.823 11.924,-5.223 18.086,-7.341 L 2.136,-0.823 C 1.421,-0.555 0.705,-0.29 0,0"
       style="fill:#ffffff;fill-opacity:1;fill-rule:nonzero;stroke:none"
       transform="matrix(0.35277776,0,0,-0.35277776,1.6031337,219.31783)"
       clip-path="url(#clipPath82)" />
    <path
       id="path83"
       d="m 0,0 h -3.288 v -14.439 c 1.427,-0.746 2.925,-1.119 4.486,-1.119 2.175,0 3.955,0.756 5.339,2.272 1.386,1.515 2.079,3.465 2.079,5.849 0,1.535 -0.329,2.887 -0.983,4.062 C 6.977,-2.2 6.086,-1.342 4.958,-0.806 3.826,-0.27 2.174,0 0,0 M -8.019,-31.115 V 4.357 h 8.123 c 4.161,0 7.403,-1.04 9.721,-3.115 2.315,-2.078 3.477,-4.981 3.477,-8.707 0,-3.523 -1.094,-6.418 -3.276,-8.68 -2.186,-2.264 -4.962,-3.396 -8.347,-3.396 -1.491,0 -3.15,0.332 -4.967,0.992 v -12.566 z"
       style="fill:#ffffff;fill-opacity:1;fill-rule:nonzero;stroke:none"
       transform="matrix(0.35277776,0,0,-0.35277776,201.64715,211.8244)"
       clip-path="url(#clipPath84)" />
    <path
       id="path85"
       d="m 0,0 v -2.423 h 1.589 c 0.675,0 1.168,0.097 1.479,0.294 0.311,0.194 0.467,0.504 0.467,0.927 0,0.444 -0.151,0.755 -0.452,0.934 C 2.782,-0.089 2.25,0 1.489,0 Z m 0,-6.96 h -1.301 v 8.052 h 2.79 c 0.987,0 1.683,-0.077 2.09,-0.233 C 3.986,0.704 4.313,0.444 4.558,0.08 4.802,-0.285 4.925,-0.672 4.925,-1.082 4.925,-1.698 4.71,-2.217 4.279,-2.641 3.849,-3.064 3.297,-3.303 2.621,-3.356 2.926,-3.482 3.212,-3.689 3.48,-3.976 3.748,-4.264 4.087,-4.736 4.497,-5.391 L 5.471,-6.96 H 3.882 l -0.705,1.261 c -0.51,0.907 -0.913,1.494 -1.211,1.763 -0.298,0.267 -0.695,0.402 -1.191,0.402 H 0 Z M 1.698,3.306 c -1.721,0 -3.192,-0.61 -4.413,-1.832 -1.222,-1.22 -1.833,-2.692 -1.833,-4.413 0,-1.727 0.61,-3.199 1.828,-4.413 1.218,-1.215 2.69,-1.822 4.418,-1.822 1.721,0 3.19,0.609 4.409,1.827 1.217,1.218 1.826,2.687 1.826,4.408 0,1.721 -0.611,3.193 -1.831,4.413 C 4.88,2.696 3.412,3.306 1.698,3.306 m 0,1.241 c 1.336,0 2.584,-0.335 3.743,-1.008 1.158,-0.671 2.073,-1.584 2.745,-2.74 0.672,-1.155 1.008,-2.401 1.008,-3.738 0,-1.343 -0.334,-2.591 -1.003,-3.743 -0.669,-1.152 -1.582,-2.062 -2.74,-2.73 -1.158,-0.669 -2.409,-1.003 -3.753,-1.003 -1.351,0 -2.605,0.332 -3.763,0.998 -1.159,0.664 -2.072,1.575 -2.74,2.73 -0.669,1.155 -1.004,2.405 -1.004,3.748 0,1.344 0.336,2.593 1.009,3.749 0.671,1.154 1.586,2.066 2.744,2.735 1.159,0.668 2.41,1.002 3.754,1.002"
       style="fill:#ffffff;fill-opacity:1;fill-rule:nonzero;stroke:none"
       transform="matrix(0.35277776,0,0,-0.35277776,207.36169,204.10097)"
       clip-path="url(#clipPath86)" />
  </g>
</svg>
