<?xml version="1.0" encoding="UTF-8"?>
<svg id="Ebene_1" xmlns="http://www.w3.org/2000/svg" version="1.1" viewBox="0 0 252.9 220.9">
  <!-- Generator: Adobe Illustrator 29.7.0, SVG Export Plug-In . SVG Version: 2.1.1 Build 138)  -->
  <rect x="17.2" y="206.9" width=".3" height=".2"/>
  <rect x="27.8" y="190.1" width=".2" height=".2"/>
  <rect x="19.6" y="203.6" height=".2"/>
  <path d="M40,184.2h-1.4c-1.6,0-2.5-.2-2.5-.2l-.6.2h-2.5v-.2c.7-1.2,2.1-4.1,4-8.6,1-.3,2.3-.7,4.1-1h.2c2,0,3.1-.2,3.5-.3h1.3c1.6,0,2.5.2,2.8.4h.2c1.6.6,2.5,1.1,2.5,1.6s0,.2,0,.3v.6c-.4,1.1-1.5,2.4-3.3,3.8-2.1,1.2-4.8,2.3-8.1,3.5M44.1,186.6c1.7.8,2.7,1.2,3,1.2.2.3.4.5.8.7.2,0,.4.2.7.4.5.7.9,1.1,1.1,1.2.2.4.5,1.1.8,1.9-.3,1.5-.7,2.3-1.1,2.6-.6.9-1.6,1.6-3,2.2-1,.7-3.4,1.2-7.2,1.6l-1.3-.2-.2.2c-.2,0-.5-.2-1-.3h-.4c-1.6-.2-2.4-.4-2.4-.4-1.2-.2-2-.4-2.1-.5-1.7-.5-3.4-1.2-4.9-2.1,1.6-3.1,3-5.7,4.3-7.7,0,0,.6-.2,1.6-.4h.2c1.6,0,2.4-.2,2.4-.5h.2c.2,0,1.6-.2,3.9-.7.7,0,1.6,0,2.6.2h.2c.7.3,1.3.5,1.7.5M26.7,193h-.2v-.2h.2v.2ZM28.1,189.8s0-.2.2-.2h.2v.2h-.4ZM22.8,199.1v.2c-.1,0-.2,0-.2-.2s0-.2.2-.2h0v.2ZM47,183.1c1.3-.7,2.4-1.3,3.2-2.1,1.6-1.5,2.6-2.9,3-4.3,0-.7-.2-1.5-.8-2.2-.7-.8-2.1-1.3-3.9-1.7h-.2c-.4,0-1.2-.2-2.3-.3,0,0-.2,0-.4.2,0,0,0-.2-.3-.2h-1c-2.6.3-4.2.5-4.9.8h-.3c-.6,0-.8.2-.8.2h-.5c-.5,0-1.3.3-2.5.7-2.1.7-3.1,1.1-3.1,1.3-.6,0-.9.2-.9.2-.7,0-1.6.6-2.9,1.4h.2s.2,0,.2.2v.2h-.8c-1.1.5-1.6.8-1.6,1.1-.7.3-1.6.8-2.7,1.6-.2.4-.8.9-1.7,1.6-1,.8-1.6,1.6-1.6,2.4s.4.7.9.7h.3l.5-1.2c.9-.9,2.2-2,4.1-3.2,3.1-2,6-3.5,8.6-4.3h.2c-1,2.4-1.6,3.7-1.8,3.9-.3,1.2-.7,2-1,2.3l-.4.9h.3l-.7.6.2.2c-.2,0-.5.2-.7.7-1.9.6-2.9,1.2-2.9,1.9h.2c0-.1,0-.2.2-.2h.2l-.2.3h.2v.4h0c.7,0,1.1.2,1.1.5h0c0-.1,0-.2.2-.2h.2v.2h-.2c-.2.7-.6,1-.9,1v.2l.2.2v.2h-.5c-.2.4-.3.7-.3.8l.2.2s0,.2-.2.4h-.2c-.2,0-.3.2-.3.6v.2s-.3.2-.4.4l-.8,1.4v.2h.2v.2s-.2,0-.2-.2c-.2.2-.4.3-.4.4v.2l.2-.2c0,.6,0,.9-.2,1h-.3v-.2h0l-.2.2h0c-.5-.2-1.2-.6-2.2-1.1-.9-.7-1.6-1.2-2.1-1.5-.2-.3-.4-.5-.7-.5h-.2s-.2,0-.2-.2l.2-.2h0c-.7,0-1-.4-1-1-.5-.5-.8-.9-1-1.4,0,0-.2,0-.3.2.2.4.4.7.6.7,0,0,0,.2-.2.2v.2s.2,0,.3.2v.3s.2,0,.2.3h.3v.3c.2.5.4.7.7.7.5.7.8,1,.9,1t0,0h0c1,.8,1.7,1.2,2.2,1.4.3.6.7.8,1.1.8s.7.3.9.9v.2h-.3v.5h-.2v.5c-.7.5-1,.8-1,1.1v.2c0,.2,0,.3-.5.4-.4.7-.8,1.5-1.3,2.1h0c.2,0,.2.2.3.3,0,.2-.2.4-.5.7h0v-.2s.2-.2.2-.3h0s-.3.2-.5.6c0,.4-.2.6-.2.6,0,.3-.2.4-.3.4v.3h.3c0,.2-.3.5-.7.8h0v.3s-.3.2-.7.3c-.2.5-.4.9-.7,1.1v.3c-.4.2-.7.5-.7.6v.2h.7c.2-.4.5-.7.7-.7,1.1-1.2,1.6-1.6,1.7-1.6.8-1.2,1.3-1.7,1.4-1.7.3-1,.7-1.5,1-1.6.4-.7.7-1,.7-1,.4-.9,1.2-2.1,2.4-3.7h.2c.2,0,.2.2.2.3.7.2,1.2.4,1.4.7.7,0,1,.2,1,.2.8.2,1.3.5,1.4.6h.2c.2,0,.3.2.4.2h.4c.4,0,.6.2.6.6h.5c0,.1.1.2.3.2h0l.2-.2h0c.2,0,.6.3,1.3.4h.4c.2.2.7.2,1.6.4h.2c.2,0,.5,0,.7.2h1.8l.2.2c1.2,0,2.1,0,2.6-.3l.3.2,2.7-.5c2.5-1,4.2-1.9,5-2.9,1.2-1.5,1.7-2.6,1.7-3.5s0-.5-.2-.9v-.2c-.4-1.5-.8-2.4-1.3-2.7-2.1-2-4.7-3.3-7.6-4v-.2c2.1-.7,3.3-1.4,4-1.7"/>
  <path d="M68.6,180.9c.4,0,1-.2,1.8-.7,1.6-1.1,2.5-1.9,2.7-2.6v-.3s-.3,0-.9-.2c-.7.3-1.4.7-1.8,1-1.7.8-2.6,1.5-2.6,1.9s.2.7.8.8"/>
  <path d="M101.2,180.9c.4,0,1-.2,1.8-.7,1.6-1.1,2.5-1.9,2.7-2.6v-.3s-.3,0-.9-.2c-.7.3-1.4.7-1.8,1-1.7.8-2.6,1.5-2.6,1.9s.2.7.8.8"/>
  <path d="M122.3,198.5c0,.5-.2,1-.6,1.5-.4,1.6-1.4,3.5-2.9,5.8-1.7,2.4-3,3.7-4.1,4-1.1.2-1.3-.7-.7-2.8.6-2.1,1.6-4,3-5.8,1.5-2,2.7-3.5,3.8-4.4l2.8-2.1c-.7,2.6-1.2,3.9-1.3,3.9M124.9,185.5c-.7,1.3-1.8,2.3-3,3h-.6c-.2,0-.5,0-.5-.2v-.7c0-.2,0-.6.3-1.1,1.2-1.4,2.4-2.2,3.5-2.5h.3v1.4h0v.1ZM88.6,187.6c-1.4,1.2-2.5,1.8-3.2,2-.7,0-1-.2-1-.4v-.7c0-.2,0-.4.2-.8,1.6-2.1,2.9-3.1,4-3.1h.2v.4c0,.6.2,1.1.5,1.5,0,0-.2.5-.7,1.1M79.8,179c1.5-1.7,2.5-2.6,3-2.6v.4c-.5,1.5-1,2.4-1.3,2.7-.9,1.5-2.3,2.7-4,3.6h-.2c0-.8.9-2.1,2.5-4.2M92.1,183.1c1.4-3.4,2.6-5.1,3.4-5.3v.3l-1.4,2.8c-1,1.6-1.6,2.4-1.9,2.5h0v-.3h-.1ZM131.8,185.3c-.7,1.1-1.1,1.7-1.4,2.1-.3.2-.8.7-1.6,1.5-.8.7-1.4,1.2-1.7,1.6-.3.3-.7.7-1.2,1,.6-2.8.8-4.9.8-6.3s-.2-1-.3-1c0-.6-.6-.9-1.6-1.2,0,0-.3,0-.7.2-1.2.5-2.1,1.1-2.9,1.6h-.2c-.2,0-.4.2-.7.7l-.2.2c-.2.2-.3.3-.4.5-.5.5-1.1,1.1-1.9,1.7-1.1.9-2.3,1.5-3.7,1.8h-.2c-.2,0-.3-.2-.3-.2v-.5c0-.4,0-1.2.4-2.6v-.2s0-.3.2-.6c0-1.3-.7-2-1.8-2h-.5c-.5.2-.7.4-.7.5-.6,0-1.4.7-2.5,1.9h0v-.2c.3-.5.5-.9.4-1.4v-.2c0-.4-.3-.6-.8-.7-.2,0-.3,0-.5.2-.2.5-.3.9-.5,1.3-1.3,1.5-2.1,2.2-2.1,2.2-.2.3-.3.5-.5.5-1.8,1.6-3.1,2.5-3.9,2.5h-.5c-.3-.2-.5-.5-.5-.9v-.9c0-1.1.5-2.5,1.4-4.3h0c-.2-.3-.3-.5-.7-.5h-.2l-.7.7c-.3.3-.6.7-.8,1.2-.2.2-.3.3-.5.6-2.4,2.1-4.4,3-6,3s-1.2-.5-1.2-1.6v-.2c0-.3.5-1.1,1.5-2.1,1.7-2.1,2.9-3.9,3.5-5.6v-.2c.8-1.3,1.3-2.3,1.3-3s-.5-.9-1.4-1.2c-.6,0-1.4.6-2.4,1.8-.9,1-1.4,1.7-1.6,2.3-1,1.5-1.6,2.8-1.7,3.9h-.2c-.2,0-.6,0-1.2-.2-1.1,0-2.1.4-2.9,1l-.3.3c-1.3,1-2.2,2-2.7,3-.7.7-1.5,1.3-2.3,1.8-1.3.9-2.5,1.4-3.6,1.4h-.3c-.7,0-1.1-.3-1.2-1v-.7c0-1.8.3-3,.6-3.5,0-.3.8-.8,2.6-1.6,1.7-1.1,3-2.2,3.8-3.5.7-.7,1.2-2.1,1.5-4.1,0-.7-.5-1.1-1.4-1.1s-2.6,1.3-4.6,3.9c-1.3,1.6-2.1,2.6-2.1,3.3-.5.7-.7,1.2-.7,1.3-.2,0-.4.2-.6.6v1.2c-1.3,1.4-2,2.1-2.1,2.1-.2.3-.3.5-.5.5-1.8,1.6-3.1,2.5-3.9,2.5h-.7c-.3-.2-.5-.5-.5-.9v-.9c0-1.1.5-2.5,1.4-4.3v-.3c-.2-.2-.3-.4-.7-.4h-.2l-.7.7c-.2.2-.4.5-.6.7-2.4,2.5-3.9,3.6-4.8,3.6-.2-.2-.4-.3-.4-.4v-.7c.3-1,.6-1.6.8-2,.7-.7,1-1.2,1-1.3-.2-.3-.2-.4-.3-.4h-.2c-.2,0-.6,0-1,.2-1.2,1.3-2.1,2.5-3,3.3-1.6,1.4-2.7,2.1-3.3,2.1s-.3-.2-.3-.4c0-1.1.2-1.8.5-2.3,1-1.6,1.5-2.4,1.5-2.6-.3-.2-.6-.3-.8-.3-.3,0-.5.2-.6.2-1.5,1.7-2.2,3.5-2.2,5.1h0c.3,1.3.8,1.9,1.7,1.9s.6,0,1-.2c.5,0,1.6-.8,3.4-2.6.5,1.4,1.2,2.1,2.2,2.1h0c1,0,2-.5,3-1.4.2-.2.4-.5.7-.7,0,.2,0,.4-.2.6,0,.3,0,.5.2.5,0,1.6,1,2.6,2.9,2.8l.8-.2c1.2-.3,2.6-1.2,4.2-2.8.2-.3.5-.6.7-.9v1.6c.7,1.4,1.6,2.1,3,2.1h.4c1.6,0,3.5-.9,5.4-2.6.2.7.8,1.2,1.9,1.5h1.2c1.1-.2,2.3-.9,3.7-2,.8,1.3,1.9,2,3.1,2s2.5-.7,4.2-1.9c.5-.4.9-.7,1.3-1.1,0,.3-.2.6-.3.9,0,.3,0,.5.2.5,0,1.6,1,2.6,2.9,2.8l.8-.2c1.1-.2,2.4-1.2,3.9-2.6-.2.8-.4,1.5-.5,2.1h0c0,.5.4.7,1.1.8.1,0,.2,0,.2-.2.2,0,.5-.6,1.1-1.6.2-.7.3-1.2.5-1.2.7-1.1,1.1-1.6,1.2-1.6.3-.5.6-.7.7-.7.8-.8,1.6-1.5,2.5-2.1h.2s.2,0,.2.2v.6c-.4,1.9-.7,3-.7,3.4v.4c0,.9.9,1.5,2.4,1.6.7-.2,1.2-.3,1.5-.5,1.1-.6,2.1-1.3,2.8-2l.3-.3c0,.9.7,1.5,2,1.7,1.4,0,2.6-.7,3.7-2.2h.2v.2l-1.1,5c-1.7.7-4,2.6-6.6,5.2-2.3,2.6-3.7,4.7-4.3,6.5-.6,1.8-.8,3.2-.8,4.3s.4,1.7,1.1,2,1.6,0,2.9-.7c1.2-.7,2.3-1.9,3.3-3.5s1.7-3,2.3-4.2c.5-.7.7-1.2.7-1.3.5-1.2.7-1.8.7-1.9.5-.6,1.1-2.4,1.8-5.3.8-.9,2.1-2.1,4-3.5,1.1-1.2,2.1-2.3,2.9-3.3s1.2-1.8,1.2-2.2q0-.2,0,0c-.2-.3-.7-.2-1.4.4"/>
  <rect x="203.9" y="174.9" width=".3" height=".4"/>
  <path d="M203.4,175.1l.2-.2h0c-.2,0-.3,0-.2.2"/>
  <path d="M206.3,174.8h-.2.2"/>
  <path d="M206.4,174.9h0Z"/>
  <path d="M202.2,175.2l.7-.2h-1,.2v.2"/>
  <path d="M194.4,174.7h0"/>
  <path d="M201.5,174.7c0,.2.2.2.3.2v-.4h-.6v.4h.3v-.2Z"/>
  <rect x="197.1" y="174.4" width=".3" height=".4"/>
  <path d="M214,187.7h-.2c-.7.2-1.3-.2-1.8-1.2-.3-.9,0-1.5,1.1-1.7h.2c.5,0,.9.2,1.3,1.2,0,.4-.2,1-.7,1.6M211.7,189.9h-.9c-.3,0-.7-.5-.9-1.4v-.2c-.3-.8-.2-1.6.4-2.5v.9c.2.9,1.1,1.6,2.3,2.2,0,.2-.3.6-1.1,1M184.2,187.7h-.2c-.7.2-1.3-.2-1.8-1.2-.3-.9,0-1.5,1.1-1.7h.2c.5,0,.9.2,1.3,1.2,0,.4-.3,1-.7,1.6M181.8,189.9h-.9c-.3,0-.7-.5-.9-1.4v-.2c-.3-.8-.2-1.6.4-2.5v.9c.3.9,1.1,1.6,2.3,2.2,0,.2-.3.6-1.1,1M157.8,187.7h-.2c-.7.2-1.3-.2-1.8-1.2-.3-.9,0-1.5,1.1-1.7h.2c.5,0,.9.2,1.3,1.2,0,.4-.3,1-.7,1.6M155.5,189.9h-.9c-.3,0-.7-.5-.9-1.4v-.2c-.3-.8-.2-1.6.4-2.5v.9c.2.9,1.1,1.6,2.3,2.2,0,.2-.4.6-1.1,1M238.7,184.2c-.6.4-.9.7-.9,1h-.3c-2.1.9-3.6,1.4-4.4,1.4s-.2,0-.3-.2c0-.5,0-1.3.2-2.5,0-.2-.2-.4-.6-.4,0,.5-.3.8-1.1,1l-.6,2.1c-2.3,2.8-3.9,4.3-5.1,4.3h0c-.6-.2-.8-.8-.8-1.7l1.1-2.6c-.2-.2-.2-.3-.3-.3h-.9l-.3.2c-.6,1-.9,1.5-1,1.5-1.9,2.1-3.2,3.2-4,3.2h-.2c-.2-.2-.4-.3-.4-.4v-1.2c0-.3.5-1.5,1.5-3.5.7-1.1,1.2-1.6,1.2-1.8s-.2-.2-.6-.3c-.2,0-.5.2-.7.3-.2,0-.4.2-.7.3-2,1.5-3.1,2.3-3.5,2.5.2-.8.2-1.3,0-1.6-.4-.8-.7-1.2-.7-1.2-.2-.5-1.1-.7-2.7-.6h-.2c-.3.2-.5.2-.4.2-.9.2-1.6.6-2,1.1-.6.4-.9.9-1.2,1.5-2,2.1-3.5,3.2-4.5,3.5h-.3c-.2,0-.4,0-.4-.3,0-.7.3-1.5.7-2.6,1.5-2.2,2.2-3.6,2.2-4.2-.2-.7-.6-1.1-.8-1.1h-.6c-.7.3-1.7.7-3,.9l-.5-.3-1.1.2h-.5c-.3.2-.5.4-.5.7h0l.5.7v.3c-.4.2-.6.5-.7.7,0,0,0,.2.2.2-2.5,2.7-4.4,4.2-5.5,4.6h-.3c-.2,0-.4,0-.4-.3,0-.7.2-1.5.7-2.6,1.5-2.2,2.2-3.6,2.2-4.2-.2-.7-.6-1.1-.8-1.1h-.6c-.7.3-1.7.7-3,.9l-.5-.3-1.1.2h-.5c-.3.2-.5.4-.5.7h0l.5.7v.3c-.2.2-.4.2-.5.4-1.7,1.3-2.7,2.1-3.1,2.1.2-.8.2-1.3,0-1.6-.4-.8-.7-1.2-.7-1.2-.2-.5-1.1-.7-2.7-.6h-.2c-.3.2-.5.2-.4.2-.6.2-1,.3-1.4.6h0c-.2.2-.3.2-.4.4-.7.5-1.1,1.2-1.3,1.8-1.6,1.6-2.9,2.6-3.8,2.6h-.2c-.3,0-.4-.2-.4-.5v-.4c0-.7.2-2.1.8-4,0-.5-.4-.8-1.1-1.1-.4,0-1.4.6-2.8,1.7h0c-.5-1-1.2-1.5-1.9-1.5h-.4c-1.2.4-1.7.7-1.7.8-.7.4-1.6,1.2-2.7,2.6h-.2v-2.1l-.5-.7h-.7c-.2,0-.2.2-.2.5-1.8,1.4-3,2.1-3.3,2.3.2-.8.2-1.3,0-1.6-.4-.8-.7-1.2-.7-1.2-.2-.5-1.1-.7-2.7-.6h-.2c-.3.2-.5.2-.4.2-.7.2-1.2.4-1.6.7v-.7c-1,1.4-1.8,2.5-2.6,3.2-.6.4-1.2.9-1.9,1.3-2.4,1.6-4,2.4-4.9,2.4s-1.2-.4-1.4-1.2v-.8c0-.7,0-1.3.2-2v-.3c0-.2.5-1.7,1.6-4.8.9-1.7,1.3-2.6,1.3-2.8.4-.7.6-1,.5-1,5.5-.6,10-1,13.6-1.2h5.3c.5-.2.9-.2,1.2-.2h5l.4.2h1c1.2,0,2.6,0,4.3-.2h.2l1.2-.2c.3,0,.6.2.7.2h.3c.4,0,.6-.2.7-.2h.5c.2,0,.4,0,.6.2,0,0,.2-.2.5-.2h3c.7-.2,1.1-.4,1.2-.4h0c.2,0,.3,0,.5.2,0,0,.2,0,.3-.2h.2c0,.2.5.2,1.2.4.6,0,.9-.2,1.1-.2h2c.3,0,0,0,.2,0h0s.2,0,.3-.2h.5c.7,0,1.1-.2,1.2-.2h.2v.2h.5v-.2h.9c.2,0,.3,0,.5.2,0,.2.2,0,.6-.2h.9l.3-.2h1.1s.3,0,.6-.2v.2h.7v-.7h-.7v.3h-.5c-.2,0-.2-.2-.2,0h-.5c-.3,0-.5.3-.5.5h-.3c-.5-.3-.7-.4-.7-.3h0v.2l-.2.2c-.2-.2-.4-.3-.6-.3-.2.2-.4.2-.6.2h-.2v-.5h-.9c.2,0,.4.2.4.5-.2,0-.4-.2-.5-.5h-.3.3v-.2h-.2l-.2.2h.2c0,.2,0,.3-.2.3-.4-.4-.8-.6-1.2-.6l.2.2v.4h-.4v-.3h-.2l-.2-.2h-1.9s-.2.2-.2.6h-.2v-.2c0-.2-.3-.2-.3,0l-.4-.2c-.3,0-.6.2-.7.2,0,0,0-.2-.2-.2h-3.8l-.4-.2-1.2.2h-2.9v.2h-2.5l-1,.2h-3.2l-.6-.2h-1.4c-.2,0-.3,0-.5.2h-.2c-1.6,0-2.1,0-1.3,0h-3.6c-.2,0-.4,0-.7.2-.3-.2-.7-.2-1-.2s-.7,0-1.2.2h-1.6c-1,0-1.5.2-1.6.2h-1.6l-1.3.2c-4.4.3-6.7.6-7,.7h-1.3s-.2,0-.2-.2c1.1-1.9,1.6-3,1.6-3.3s0-.4-.3-.7h-.9c-.6,1.3-.9,2.1-1.2,2.4,0,.3-.4,1.2-1.2,2.3-1.7.2-4.9.7-9.4,1.7l-.2.4v.5c0,.3.3.6.8.8l7.1-1.3h.2c0,.2-.2.7-.6,1.4-.3.4-.6,1.1-.7,1.9-.3.4-.6,1.1-.7,1.8-.5,1.2-.8,2.4-1,3.3v1.7l-.2.2v.2c.2.2.2.5.2.7v.3c.2.4.3.7.3.9.5.7,1.3,1.1,2.5,1.2,1,0,2.1-.5,3.5-1.4.7-.4,1.2-.8,1.6-1.2.5-.2,1.3-1,2.4-2.1,0,.4,0,.9.2,1.3.2.3.3.7.5,1,.8,1,1.9,1.4,3,1.1.2,0,.4-.2.5-.2.5-.3,1.3-1.1,2.3-2.1.5,0,1.1-.4,1.7-.8,1.1-.9,1.9-1.6,2.5-2.2v.4c-.3,1.9-1.1,3.7-2.3,5.6,0,.4.3.7.8.8h.2c.3,0,.7-.7,1.2-2,2.6-3.5,4.7-5.3,6.3-5.9.4,0,.7,0,.7.3v1c-.2.7-.3,1.2-.3,1.3-.7.7-1.1,1.3-1.1,1.8v.2c.2.3.3.5.6.5h0c.2,0,.3,0,.6-.3,1.2-2.1,2.4-3.6,3.6-4.4h.2c-.4,1.2-.7,2.1-.8,3v.4c0,.2,0,.5.2.9.4,1,1.1,1.5,2.1,1.5s2-.7,3.3-2.2c0,0,0-.2.2-.2,0,.2,0,.4.2.6.2.3.3.7.5,1,.8,1,1.9,1.4,3,1.1.2,0,.4-.2.5-.2.5-.3,1.3-1.1,2.3-2.1.5,0,1.1-.4,1.7-.8,1.2-.9,2.1-1.7,2.6-2.4h.6c.7-.9,1.1-1.4,1.2-1.4h0c.9,0,1.9-.3,3-.9h.2c0,.2-.2.6-.4,1.2-.4.5-.7.8-.7,1-1.2,1.6-1.8,2.7-2,3.6v1.1c.3.9,1.1,1.3,2.1,1.3h.2c1.1-.4,2.1-1.1,3.2-2.1,1.6-1.6,2.5-2.6,2.7-3.3.2-.2.2-.3.3-.4h.3c.7-.9,1.1-1.4,1.2-1.4h0c.9,0,1.9-.3,3-.9h.2c0,.2-.2.6-.4,1.2-.4.5-.7.8-.7,1-1.2,1.6-1.8,2.7-2,3.6v1.1c.3.9,1.1,1.3,2.1,1.3h.2c1.1-.4,2.1-1.1,3.2-2.1.4-.4.8-.8,1.1-1.2,0,.2,0,.5.2.8s.3.7.5,1c.8,1,1.9,1.4,3,1.1.2,0,.4-.2.5-.2.5-.3,1.3-1.1,2.3-2.1.5,0,1.1-.4,1.7-.8.6-.5,1.1-.9,1.5-1.2-.8,1.6-1.3,2.9-1.3,4,.4,1.3,1.2,2,2.3,2h0c1.2-.2,2.6-1.2,3.9-2.9h.2c.3,1.6,1.2,2.5,2.6,2.5s3.2-1.5,5.8-4.5c.9.2,1.5.3,1.9.3s.8,0,1.3-.3c2.7-1.4,4.1-2.6,4.1-3.7h.4v-.1Z"/>
  <path d="M244.7,95.7c0,26.3-14.9,44.6-36,57.8H46.9c-21.1-13.2-35.5-31.9-35.5-57.8,0-45.1,54-86.7,116.6-86.7s116.7,41.6,116.7,86.7M231.4,95.7c0-34.6-44.4-73.5-103.4-73.5S24.6,61.1,24.6,95.7c0,18.49,9.5,33.6,26.1,44.5h154.1c17-11,26.7-26.1,26.7-44.5"/>
  <path d="M177.1,131.2h-21.8V33.8s13.2,2.6,23.9,8.1v12.8s-7-3.1-11.9-4v24.6s14.1,3.3,21.8,6.8v11.1s-13.9-5.2-21.8-6.3v34.1h9.8v10.3h0v-.1Z"/>
  <path d="M209.9,125.6l-6.1-17.9-10.3,23.4h-12.5l17.4-40.6-14.1-46.5s7.5,3.6,15.5,9.8l5.7,19.3,4.4-10s5.4,6,7.8,10.6l-7.1,17.4,8.1,23.4s-3,5.8-8.8,11.1"/>
  <path d="M56.9,84.2l-12.3,6.6c.9-12.6,12.3-21.7,12.3-21.7v15.1ZM32.5,91.1c-2.6,22.4,15.3,36,15.3,36l5.6-10.3c-4.7-5.4-8.1-13.7-8.1-13.7l11.4-5.8v34.1h11.6V46c-17.3,10-33.7,25.4-35.9,45.1"/>
  <path d="M94.7,72.6c-1.9.7-6.1,2.1-6.1,2.1v-23.5l5.2-2.4s2.6-1.2,2.6,1.2v20.3s.2,1.6-1.6,2.4M108.3,70.7v-31.3s.5-2.6-1.1-4.1c-1.6-1.6-4.6-1.5-4.6-1.5-13.7,2.6-26.3,9.1-26.3,9.1v88.5h12.2v-44.4s1.5-.7,4.1-1.2c2.9-.5,3.7,2.2,3.7,2.2v43.2h11.9v-49.2c0-3.5-4.3-5.3-4.3-5.3,4.5-1.2,4.4-6,4.4-6"/>
  <path d="M135.5,117.1s-.2,3.3-2.1,3.3h-5.5V42.8h5.5s2.1.2,2.1,3c0,0,0,71.3,0,71.3ZM140.2,31.9c-10.5-1.5-24.2,0-24.2,0v99.2h26.7c4.8,0,4.8-6.8,4.8-6.8V41c0-7.9-7.2-9.1-7.2-9.1"/>
</svg>