<?xml version="1.0" encoding="UTF-8"?>
<!DOCTYPE svg PUBLIC "-//W3C//DTD SVG 1.1//EN" "http://www.w3.org/Graphics/SVG/1.1/DTD/svg11.dtd">
<svg xmlns="http://www.w3.org/2000/svg" version="1.1" width="1182px" height="452px" style="shape-rendering:geometricPrecision; text-rendering:geometricPrecision; image-rendering:optimizeQuality; fill-rule:evenodd; clip-rule:evenodd" xmlns:xlink="http://www.w3.org/1999/xlink">
<g><path style="opacity:0.973" fill="#fefffe" d="M 798.5,133.5 C 808.5,133.5 818.5,133.5 828.5,133.5C 828.5,193.833 828.5,254.167 828.5,314.5C 819.167,314.5 809.833,314.5 800.5,314.5C 800.666,309.156 800.499,303.823 800,298.5C 786.061,313.371 768.895,319.537 748.5,317C 719.564,313.064 701.731,296.897 695,268.5C 689.821,243.01 695.987,220.843 713.5,202C 736.171,184.643 760.504,181.977 786.5,194C 790.916,196.412 794.749,199.578 798,203.5C 798.5,180.169 798.667,156.836 798.5,133.5 Z M 755.5,214.5 C 785.318,214.15 799.818,228.817 799,258.5C 794.593,278.214 782.259,288.547 762,289.5C 735.551,286.717 723.217,272.05 725,245.5C 728.681,228.653 738.847,218.32 755.5,214.5 Z"/></g>
<g><path style="opacity:0.954" fill="#feed00" d="M 868.5,133.5 C 888.515,132.678 896.349,142.012 892,161.5C 886.559,170.319 878.726,173.486 868.5,171C 856.924,165.621 853.09,156.788 857,144.5C 859.412,139.252 863.246,135.586 868.5,133.5 Z"/></g>
<g><path style="opacity:0.971" fill="#fefffe" d="M 188.5,186.5 C 207.957,184.705 224.457,190.705 238,204.5C 238.499,199.511 238.666,194.511 238.5,189.5C 248.5,189.5 258.5,189.5 268.5,189.5C 268.5,231.167 268.5,272.833 268.5,314.5C 258.5,314.5 248.5,314.5 238.5,314.5C 238.666,309.489 238.499,304.489 238,299.5C 224.463,313.458 207.963,319.291 188.5,317C 157.46,312.294 139.294,294.461 134,263.5C 130.846,242.782 135.513,224.115 148,207.5C 159.168,195.834 172.668,188.834 188.5,186.5 Z M 195.5,214.5 C 227.527,214.693 241.694,230.693 238,262.5C 233.299,278.199 222.799,287.033 206.5,289C 185.182,290.267 171.349,280.767 165,260.5C 161.96,236.215 172.126,220.881 195.5,214.5 Z"/></g>
<g><path style="opacity:0.962" fill="#fefffe" d="M 334.5,186.5 C 354.756,185.431 374.089,189.098 392.5,197.5C 393.833,207.167 393.833,216.833 392.5,226.5C 377.063,217.965 360.563,212.965 343,211.5C 334.413,211.026 327.08,213.693 321,219.5C 319.071,223.851 320.238,227.351 324.5,230C 337.19,234.673 350.19,238.34 363.5,241C 377.656,243.81 388.822,250.976 397,262.5C 405.125,288.745 395.958,305.912 369.5,314C 341.654,320.707 315.154,317.207 290,303.5C 289.333,293.5 289.333,283.5 290,273.5C 305.144,283.216 321.644,289.382 339.5,292C 348.25,293.153 356.584,291.819 364.5,288C 369.833,283 369.833,278 364.5,273C 359.739,270.413 354.739,268.413 349.5,267C 332.636,264.045 316.636,258.712 301.5,251C 286.762,237.063 284.928,221.563 296,204.5C 306.687,193.777 319.52,187.777 334.5,186.5 Z"/></g>
<g><path style="opacity:0.964" fill="#fefffe" d="M 469.5,186.5 C 508.904,185.602 533.071,204.269 542,242.5C 542.667,248.833 542.667,255.167 542,261.5C 508.716,263.158 475.216,264.158 441.5,264.5C 447.645,281.245 459.645,290.245 477.5,291.5C 488.293,291.075 497.293,286.908 504.5,279C 515.161,278.5 525.828,278.333 536.5,278.5C 526.587,300.482 509.587,313.315 485.5,317C 454.003,319.34 431.169,306.507 417,278.5C 405.637,246.27 413.137,219.437 439.5,198C 448.845,192.149 458.845,188.315 469.5,186.5 Z M 474.5,212.5 C 492.756,212.787 505.422,221.287 512.5,238C 489.16,238.833 465.826,238.666 442.5,237.5C 448.335,222.923 459.002,214.589 474.5,212.5 Z"/></g>
<g><path style="opacity:0.978" fill="#fefffe" d="M 618.5,186.5 C 634.71,184.742 649.376,188.575 662.5,198C 670.082,205.331 674.915,214.164 677,224.5C 677.5,254.498 677.667,284.498 677.5,314.5C 667.5,314.5 657.5,314.5 647.5,314.5C 647.966,286.449 647.466,258.449 646,230.5C 640.746,219.862 632.079,214.529 620,214.5C 604.18,214.728 594.18,222.395 590,237.5C 588.567,263.133 588.067,288.8 588.5,314.5C 578.5,314.5 568.5,314.5 558.5,314.5C 558.5,272.833 558.5,231.167 558.5,189.5C 568.5,189.5 578.5,189.5 588.5,189.5C 588.334,193.514 588.501,197.514 589,201.5C 597.218,193.141 607.052,188.141 618.5,186.5 Z"/></g>
<g><path style="opacity:0.975" fill="#fefffe" d="M 966.5,186.5 C 985.721,184.517 1002.22,190.184 1016,203.5C 1016.5,198.845 1016.67,194.179 1016.5,189.5C 1026.5,189.5 1036.5,189.5 1046.5,189.5C 1046.5,231.167 1046.5,272.833 1046.5,314.5C 1036.5,314.5 1026.5,314.5 1016.5,314.5C 1016.67,309.821 1016.5,305.155 1016,300.5C 997.591,317.158 976.424,321.658 952.5,314C 925.612,302.259 911.946,281.592 911.5,252C 912.787,215.566 931.121,193.733 966.5,186.5 Z M 973.5,214.5 C 996.412,212.525 1010.91,222.525 1017,244.5C 1019.75,266.173 1010.92,280.673 990.5,288C 959.536,292.026 943.703,278.526 943,247.5C 945.771,229.565 955.938,218.565 973.5,214.5 Z"/></g>
<g><path style="opacity:0.983" fill="#fefffe" d="M 859.5,189.5 C 869.5,189.5 879.5,189.5 889.5,189.5C 889.5,231.167 889.5,272.833 889.5,314.5C 879.5,314.5 869.5,314.5 859.5,314.5C 859.5,272.833 859.5,231.167 859.5,189.5 Z"/></g>
</svg>
