<svg xmlns="http://www.w3.org/2000/svg" width="151" height="40" viewBox="0 0 151 40" fill="none"><path d="M32.2466 13.8083L35.8482 12.1798V18.6938C36.5214 18.4563 37.7332 17.9813 39.7865 17.9813C44.2296 17.9813 46.4176 20.3562 46.4176 25.8185C46.4176 32.1968 43.9267 33.6217 38.2381 33.6217C35.5116 33.6217 33.2901 33.1128 32.2466 32.6717V13.8083ZM38.5074 30.704C41.6715 30.704 42.8832 28.6683 42.8832 25.8185C42.8832 23.0704 41.7051 20.9669 38.5074 20.9669C37.6322 20.9669 36.3868 21.2722 35.8146 21.4419V30.1951C36.3868 30.4326 37.5649 30.704 38.5074 30.704ZM54.6643 33.6217C49.9519 33.6217 48.1679 32.0611 48.1679 28.804C48.1679 25.5131 49.8846 24.0203 54.1931 24.0203C55.7078 24.0203 57.3235 24.2918 57.6601 24.3257V23.24C57.6601 22.0526 57.0879 21.0008 53.8901 21.0008C51.4666 21.0008 49.8509 21.6794 49.3797 21.8829L49.1104 19.1348C49.7499 18.8634 51.8369 18.0152 54.9336 18.0152C59.5787 18.0152 61.2954 20.0169 61.2954 23.8846V32.57C60.4202 32.9092 57.7947 33.6217 54.6643 33.6217ZM57.6938 26.9041C56.9869 26.8023 55.5732 26.5988 54.496 26.5988C51.9378 26.5988 51.5339 27.7862 51.5339 28.7023C51.5339 30.0594 52.4091 30.67 54.597 30.67C56.0107 30.67 57.1888 30.5004 57.6938 30.3308V26.9041ZM108.622 33.5199C110.17 33.5199 111.045 33.2824 111.214 33.2485L111.382 30.3647C111.247 30.4326 110.372 30.6361 109.867 30.6361C108.05 30.6361 107.511 29.3469 107.511 27.6166V21.5437H111.853V18.4224H107.511V15.335L103.909 16.9974V28.5666C103.909 31.9593 105.693 33.5199 108.622 33.5199ZM67.8591 33.2485V26.4631H68.9699L73.8843 33.2485H77.8899L71.7974 24.5971L77.3513 18.3884H73.4131L68.8353 23.6132H67.8255V12.0441L64.2238 13.8422V33.2824H67.8591V33.2485ZM85.8001 30.704C88.0217 30.704 89.4017 30.1611 90.0749 29.9236L90.4115 32.57C89.8393 32.8414 87.9543 33.6217 85.5308 33.6217C80.1788 33.6217 77.587 30.8736 77.587 25.547C77.587 20.1526 80.0778 17.9813 84.6556 17.9813C89.6373 17.9813 91.1857 20.7633 91.1857 25.4792C91.1857 25.9881 91.1521 26.5988 91.1184 26.8024H81.155C81.1213 29.4826 82.8043 30.704 85.8001 30.704ZM87.7524 24.2917V23.8846C87.7524 21.9168 86.6752 20.9669 84.5546 20.9669C82.2321 20.9669 81.2559 22.2901 81.1886 24.3257H87.7524V24.2917ZM97.1436 33.2485V21.5097C97.5812 21.374 98.6246 21.1705 99.8364 21.1705C100.476 21.1705 101.688 21.2044 102.226 21.2722V18.1509C101.822 18.0492 100.712 17.9813 99.6681 17.9813C97.0763 17.9813 94.821 18.6259 93.5419 19.2027V33.2146H97.1436V33.2485ZM137.704 40C137.839 40 138.546 39.8643 138.748 39.8643C142.282 39.3214 144.874 37.7269 146.288 33.3842C147.264 30.4325 151 18.4224 151 18.4224H147.196L143.763 30.1272H143.157L140.229 18.4224H136.492L140.498 33.2824H142.787C142.787 33.2824 142.686 33.5878 142.619 33.8253C142.147 35.4877 140.027 36.7769 137.233 37.184L137.704 40ZM116.061 16.5564C114.916 16.5564 114.041 16.1153 114.041 14.4529C114.041 12.9601 114.815 12.3155 116.061 12.3155C117.34 12.3155 118.148 12.7905 118.148 14.419C118.148 16.0135 117.373 16.5564 116.061 16.5564ZM114.277 33.2485V18.3884H117.878V33.2485H114.277ZM128.212 33.3164L128.313 30.4665C128.145 30.5004 127.572 30.6022 127.169 30.6022C125.822 30.6022 125.486 29.7201 125.486 28.5326V12.078L121.884 13.7065V29.1094C121.884 31.2807 122.961 33.486 126.058 33.486C127.303 33.486 128.044 33.3503 128.212 33.3164ZM136.29 33.3164L136.391 30.4665C136.223 30.5004 135.651 30.6022 135.247 30.6022C133.901 30.6022 133.564 29.7201 133.564 28.5326V12.078L129.962 13.7065V29.1094C129.962 31.2807 131.039 33.486 134.136 33.486C135.415 33.486 136.156 33.3503 136.29 33.3164Z" fill="white"></path><path d="M23.7642 11.5013C23.7642 11.7727 23.7642 12.3155 23.7642 12.587C22.6197 10.5853 20.4318 9.29602 18.1765 9.29602C14.6086 9.29602 11.6128 12.3155 11.6128 16.1832C11.6128 19.9831 14.5412 22.9008 18.2439 22.9008C19.1864 22.9008 20.1962 22.6972 20.9367 22.324C20.5664 22.8669 20.2971 23.2061 19.9269 23.6133C19.7249 23.8507 19.4556 24.1561 19.1527 24.2579C18.8161 24.3936 18.1429 24.665 16.9311 24.665C13.0602 24.665 10.1991 21.7812 8.88631 19.8134C7.60722 17.8796 6.49643 15.2672 6.49643 12.4852C6.49643 7.15861 11.1415 4.24089 15.955 4.24089C21.4416 4.17303 23.7642 8.41392 23.7642 11.5013ZM18.7488 11.3995C15.7193 11.3995 13.3631 13.7405 13.3631 16.4886C13.3631 19.3045 15.5174 21.9169 18.8498 21.9169C19.5566 21.9169 20.3645 21.7133 21.105 21.408C21.2396 21.3741 21.3743 21.3062 21.4753 21.2044C21.5762 21.1366 21.6436 20.9669 21.6772 20.8652C22.5187 19.3384 23.4612 16.0814 23.6295 14.1476C23.6295 13.944 23.5959 13.8762 23.4612 13.7065C22.7207 12.6887 21.1723 11.3995 18.7488 11.3995ZM17.7053 0.746395C16.6618 0.237489 15.0798 0 13.5651 0C6.63107 0 0 3.93555 0 10.5853C0 12.9262 0.740526 15.4368 2.01962 17.7099C3.46701 20.2545 5.52029 22.5954 7.91016 24.2239C9.72782 25.4792 11.8821 26.3614 14.07 26.3614C15.8877 26.3614 17.1331 25.8524 17.537 25.5132C17.3687 25.5471 16.8975 25.615 16.3589 25.615C10.3674 25.615 6.26081 20.492 4.94806 16.6582C4.47682 15.2333 3.97191 13.4691 3.97191 11.7388C3.97191 4.64801 10.1317 0.780324 16.6282 0.780324C16.9648 0.780324 17.3014 0.780321 17.6716 0.814248C17.7053 0.814248 17.7053 0.780322 17.7053 0.746395Z" fill="white"></path></svg>