<?xml version="1.0" encoding="UTF-8"?> <svg xmlns="http://www.w3.org/2000/svg" id="Layer_1" data-name="Layer 1" viewBox="0 0 448.68 117.86"><defs><style> .cls-1 { fill: #231f20; } </style></defs><path class="cls-1" d="M95.82,40.72l10.71-4.84v19.23c1.98-.7,5.64-2.07,11.75-2.07,13.23,0,19.66,7.05,19.66,23.09,0,18.79-7.38,23.03-24.33,23.03-8.11,0-14.7-1.49-17.78-2.78v-55.66ZM114.49,90.5c9.39,0,12.99-5.98,12.99-14.37s-3.46-14.25-12.99-14.25c-2.61,0-6.32.87-7.96,1.39v25.85c1.64.54,5.09,1.39,7.96,1.39ZM162.49,99.11c-14.03,0-19.32-4.61-19.32-14.17s5.14-14.1,17.95-14.1c4.47,0,9.3.76,10.31.9v-3.27c0-3.51-1.73-6.58-11.25-6.58-7.22,0-11.96,2.01-13.42,2.58l-.83-8.14c1.93-.76,8.08-3.29,17.29-3.29,13.84,0,18.88,5.9,18.88,17.27v25.65c-2.53,1.03-10.34,3.16-19.61,3.16ZM171.43,79.29c-2.1-.33-6.31-.88-9.53-.88-7.57,0-8.82,3.51-8.82,6.25,0,4.02,2.62,5.84,9.13,5.84,4.25,0,7.66-.54,9.23-.98v-10.23ZM322.8,98.74c4.65,0,7.24-.72,7.74-.85l.49-8.46c-.4.16-3,.79-4.52.79-5.37,0-7.04-3.81-7.04-8.87v-17.88h12.92v-9.23h-12.92v-9.13l-10.68,4.86v34.13c0,10.04,5.24,14.62,14.01,14.62ZM201.62,98.02v-20.02h3.34l14.65,20.02h11.92l-18.14-25.45,16.51-18.32h-11.72l-13.58,15.37h-2.96v-34.16l-10.68,5.27v57.3h10.68ZM254.94,90.47c6.57,0,10.7-1.63,12.73-2.25l1.03,7.82c-1.7.78-7.29,3.12-14.53,3.12-15.87,0-23.63-8.13-23.63-23.82s7.4-22.29,20.99-22.29c14.81,0,19.37,8.19,19.37,22.05,0,1.48-.1,3.33-.19,3.92h-29.65c0,7.91,4.96,11.46,13.88,11.46ZM260.78,71.55v-1.25c0-5.78-3.15-8.63-9.55-8.63-6.88,0-9.82,3.86-10,9.88h19.54ZM288.67,98.02v-34.6c1.31-.44,4.38-.96,8.04-.96,1.92,0,5.49.14,7.06.32v-9.2c-1.22-.35-4.52-.45-7.57-.45-7.67,0-14.41,1.94-18.2,3.63v41.27h10.68ZM409.18,117.86c.39,0,2.52-.36,3.09-.44,10.5-1.61,18.2-6.25,22.44-19.07,2.89-8.73,13.99-44.1,13.99-44.1h-11.33l-10.2,34.46h-1.82l-8.7-34.46h-11.08l11.85,43.8h6.82s-.27.87-.47,1.56c-1.42,4.88-7.69,8.73-16.02,9.92l1.42,8.34ZM344.82,48.81c-3.43,0-6.03-1.34-6.03-6.19,0-4.44,2.34-6.28,6.03-6.28s6.2,1.42,6.2,6.2-2.26,6.28-6.2,6.28ZM339.57,98.03v-43.8h10.68v43.8h-10.68ZM380.97,98.16l.32-8.35c-.46.1-2.22.38-3.41.38-3.96,0-5.03-2.57-5.03-6.09v-48.45l-10.68,4.83v45.38c0,6.44,3.2,12.88,12.45,12.88,3.67,0,5.88-.48,6.35-.57ZM405,98.16l.32-8.35c-.46.1-2.22.38-3.41.38-3.96,0-5.03-2.57-5.03-6.09v-48.45l-10.68,4.83v45.38c0,6.44,3.2,12.88,12.45,12.88,3.67,0,5.88-.48,6.35-.57Z"></path><path class="cls-1" d="M70.69,33.86c0,.77-.02,2.42-.04,3.17-3.36-5.91-9.89-9.7-16.64-9.7-10.57,0-19.46,8.85-19.46,20.28s8.7,19.78,19.65,19.78c2.78,0,5.79-.64,7.97-1.74-1.09,1.6-1.85,2.59-2.97,3.83-.6.66-1.43,1.57-2.27,1.88-.96.35-2.98,1.16-6.58,1.16-11.48,0-20.02-8.52-23.87-14.27-3.83-5.73-7.14-13.41-7.14-21.62,0-15.75,13.83-24.32,28.07-24.32,16.31,0,23.28,12.44,23.28,21.55ZM55.8,33.59c-9.01,0-15.99,6.88-15.99,15.02s6.41,16.01,16.32,16.01c2.12,0,4.54-.63,6.66-1.46.37-.14.83-.32,1.14-.56.25-.2.49-.69.65-.98,2.49-4.49,5.34-14.1,5.76-19.78.04-.58-.12-.79-.47-1.26-2.34-3.17-6.89-6.99-14.08-6.99ZM52.63,2.15h0c-3.05-1.51-7.78-2.15-12.33-2.15C19.66,0,0,11.64,0,31.23c0,6.92,2.2,14.32,6.03,20.95,4.34,7.5,10.35,14.35,17.53,19.22,5.45,3.7,11.76,6.28,18.28,6.28,5.43,0,9.08-1.49,10.34-2.53-.55.09-1.86.28-3.48.28-17.78,0-29.97-15.09-33.87-26.36-1.44-4.16-2.94-9.41-2.94-14.51C11.9,13.7,30.24,2.25,49.49,2.25c1.02,0,2.05.03,3.08.1.08,0,.13-.04.13-.1,0-.03-.02-.07-.07-.1Z"></path></svg> 