<?xml version="1.0" encoding="utf-8"?>
<!-- Generator: Adobe Illustrator 28.2.0, SVG Export Plug-In . SVG Version: 6.00 Build 0)  -->
<svg version="1.1" id="Ebene_1" xmlns="http://www.w3.org/2000/svg" xmlns:xlink="http://www.w3.org/1999/xlink" x="0px" y="0px"
	 viewBox="0 0 252 56" style="enable-background:new 0 0 252 56;" xml:space="preserve">
<style type="text/css">
	.st0{fill:#7AC92D;}
</style>
<g>
	<path class="st0" d="M45.1,9.2C42,3.5,36,0,29.5,0C23,0,17,3.5,13.9,9.2L2.6,28.8c-1.7,2.8-2.6,6-2.6,9.3c0,9.8,8,17.8,17.8,17.8
		h23.4c9.8,0,17.8-8,17.8-17.8c0-3.3-0.9-6.5-2.6-9.3L45.1,9.2z M27.6,42.6H18c-2.5,0-4.5-2-4.5-4.5c0-2.5,2-4.5,4.5-4.5h3.2h6.4
		V42.6z M27.6,29.7h-6.4c-1.8,0-3.2-1.4-3.2-3.2c0-1.8,1.4-3.2,3.2-3.2h6.4V29.7z M27.6,19.5h-2.8c-1.2,0-2.1-1-2.1-2.1
		c0-1.2,1-2.1,2.1-2.1h2.8V19.5z M41.2,52.1h-9.8v-5.7h9.7c4.6,0,8.3-3.7,8.3-8.3c0-3.6-2.3-6.7-5.6-7.8c0.7-1.1,1.1-2.3,1.1-3.7
		c0-3.2-2.2-6-5.2-6.8c0.3-0.7,0.5-1.5,0.5-2.4c0-3.3-2.7-5.9-5.9-5.9h-9.5c-3.3,0-5.9,2.7-5.9,5.9c0,0.8,0.2,1.7,0.5,2.4
		c-3,0.8-5.2,3.5-5.2,6.8c0,1.4,0.4,2.6,1.1,3.7C12,31.3,9.7,34.4,9.7,38c0,4.6,3.7,8.3,8.3,8.3h9.7v5.7h-9.8c-7.7,0-14-6.3-14-14
		c0-2.6,0.7-5.1,2.1-7.3l11.3-19.6l0,0c2.5-4.5,7.2-7.3,12.3-7.3c5.1,0,9.8,2.8,12.3,7.3l11.3,19.6l0,0c1.4,2.2,2.1,4.7,2.1,7.3
		C55.2,45.8,49,52.1,41.2,52.1z M37.9,23.3c1.8,0,3.2,1.4,3.2,3.2c0,1.8-1.4,3.2-3.2,3.2h-6.4v-6.5H37.9z M31.4,19.5v-4.3h2.8
		c1.2,0,2.1,1,2.1,2.1c0,1.2-1,2.1-2.1,2.1H31.4z M37.9,33.5h3.2c2.5,0,4.5,2,4.5,4.5c0,2.5-2,4.5-4.5,4.5h-9.7v-9H37.9z"/>
	<path class="st0" d="M79.8,32.3v-0.2c1.5-0.9,2.9-2.8,2.9-5.4c0-4.8-2.7-7.2-7.9-7.2h-8.8v26.9h9.7c5,0,8-3.2,8-7.7
		C83.6,35.1,82.1,33.2,79.8,32.3z M70.1,23.2h4.2c3,0,4,1.4,4,3.7c0,2.2-1.2,3.8-4,3.8h-4.2V23.2z M75.1,42.6h-4.9v-8.4h4.9
		c2.8,0,4.2,1.3,4.2,4.2C79.3,41.2,77.5,42.6,75.1,42.6z"/>
	<path class="st0" d="M95,25.4c-6,0-8.6,4.3-8.6,10.7c0,6.6,3,10.6,9.1,10.6c2.8,0,5.1-0.5,6.8-1.1l-0.7-3.3
		c-1.5,0.5-3.6,0.9-5.9,0.9c-3.2,0-4.8-1.9-5-5.6h12.9v-1.4C103.4,29.6,101.4,25.4,95,25.4z M90.5,34.3c0.2-3.6,1.6-5.5,4.5-5.5
		c3.2,0,4.2,1.9,4.4,5.5H90.5z"/>
	<path class="st0" d="M133.8,25.4c-2.3,0-4.8,0.4-6.8,1l0.7,3.4c1.7-0.4,3.9-0.8,6.1-0.8c3.2,0,4.1,1.4,4.1,3.3v1.3l-5.4,0.5
		c-4,0.4-6.4,2.4-6.4,5.9v0.9c0,3.3,2.3,5.8,6.1,5.8c2.8,0,4.7-1.2,6-2.1l0.3,1.8h3.4v-14C142,27.6,139.5,25.4,133.8,25.4z
		 M138,41.5c-0.9,0.8-2.9,1.8-4.8,1.8c-1.8,0-3.1-1-3.1-2.8v-0.4c0-1.9,1.4-2.8,3.5-3l4.4-0.4V41.5z"/>
	<path class="st0" d="M159.6,19.5h-8.9v26.9h4.2v-9.5h4.7c5.6,0,8.7-3.7,8.7-8.7C168.3,22.9,165.1,19.5,159.6,19.5z M159.4,33h-4.5
		v-9.8h4.5c3.3,0,4.5,2.1,4.5,4.9C164,30.9,162.8,33,159.4,33z"/>
	<path class="st0" d="M188.7,25.4c-2.3,0-4.8,0.4-6.8,1l0.7,3.4c1.7-0.4,3.9-0.8,6.1-0.8c3.2,0,4.1,1.4,4.1,3.3v1.3l-5.4,0.5
		c-4,0.4-6.4,2.4-6.4,5.9v0.9c0,3.3,2.3,5.8,6.1,5.8c2.8,0,4.7-1.2,6-2.1l0.3,1.8h3.4v-14C196.8,27.6,194.3,25.4,188.7,25.4z
		 M192.8,41.5c-0.9,0.8-2.9,1.8-4.8,1.8c-1.8,0-3.1-1-3.1-2.8v-0.4c0-1.9,1.4-2.8,3.5-3l4.4-0.4V41.5z"/>
	<path class="st0" d="M211.7,25.4c-2.8,0-5.2,1.2-6.8,2.3l-0.3-2h-3.4v20.7h4V30.8c1.1-0.8,3.1-1.8,5-1.8c2.3,0,3.1,1.3,3.1,3.6
		v13.8h4V31.6C217.4,28,215.8,25.4,211.7,25.4z"/>
	<path class="st0" d="M243.9,25.4c-2.3,0-4.8,0.4-6.8,1l0.7,3.4c1.7-0.4,3.9-0.8,6.1-0.8c3.2,0,4.1,1.4,4.1,3.3v1.3l-5.4,0.5
		c-4,0.4-6.4,2.4-6.4,5.9v0.9c0,3.3,2.3,5.8,6.1,5.8c2.8,0,4.7-1.2,6-2.1l0.3,1.8h3.4v-14C252,27.6,249.6,25.4,243.9,25.4z
		 M248,41.5c-0.9,0.8-2.9,1.8-4.8,1.8c-1.8,0-3.1-1-3.1-2.8v-0.4c0-1.9,1.4-2.8,3.5-3l4.4-0.4V41.5z"/>
	<path class="st0" d="M177.4,42.9c-1,0-1.5-0.5-1.5-1.9V19.5h-4v21.8c0,3.5,1.5,5.2,4.6,5.2c1,0,2-0.1,2.6-0.3l-0.5-3.4
		C178.3,42.9,177.9,42.9,177.4,42.9z"/>
	<path class="st0" d="M122.6,42.9c-1,0-1.5-0.5-1.5-1.9V19.5h-4v21.8c0,3.5,1.5,5.2,4.6,5.2c1,0,2-0.1,2.6-0.3l-0.5-3.4
		C123.5,42.9,123,42.9,122.6,42.9z"/>
	<path class="st0" d="M112.6,42.9c-1,0-1.5-0.5-1.5-1.9V19.5h-4v21.8c0,3.5,1.5,5.2,4.6,5.2c1,0,2-0.1,2.6-0.3l-0.5-3.4
		C113.5,42.9,113,42.9,112.6,42.9z"/>
	<path class="st0" d="M230.1,42.9c-2,0-2.4-0.9-2.4-2.7V29h5.6v-3.3h-5.6v-4.4h-4v4.4h-3.5V29h3.5v11.5c0,4.2,1.5,5.9,5.6,5.9
		c1.7,0,3.6-0.4,4.9-0.7l-0.7-3.3C232.7,42.7,231.1,42.9,230.1,42.9z"/>
</g>
</svg>
