<svg xmlns="http://www.w3.org/2000/svg" width="236.807" height="133.762"><defs><clipPath id="a"><path d="M0 0h236.807v133.762H0Z"/></clipPath></defs><g fill="#808285" clip-path="url(#a)"><path d="M134.517 29.203c4.087-2.336 7.582-2.838 10.952-2.614 10.158.673 16.128 9.091 18.175 12.337 2.592 4.108 7.105 5.276 10.873 3.231 2.56-1.389 5.481-5.85 2.787-11.253-6.36-12.757-28.78-18.025-42.787-1.7m43.86 43.612c-4.087 2.335-7.582 2.837-10.952 2.614-10.158-.673-16.128-9.091-18.175-12.338-2.592-4.108-7.105-5.276-10.873-3.231-2.56 1.39-5.48 5.85-2.787 11.254 6.36 12.757 28.78 18.025 42.787 1.7"/><path d="M134.641 72.94c-2.335-4.087-2.837-7.582-2.614-10.952.673-10.158 9.091-16.128 12.337-18.176 4.108-2.592 5.276-7.104 3.232-10.873-1.39-2.56-5.85-5.48-11.254-2.786-12.757 6.36-18.025 28.779-1.7 42.787m43.611-43.86c2.335 4.086 2.837 7.581 2.614 10.95-.673 10.158-9.09 16.128-12.337 18.176-4.109 2.592-5.277 7.104-3.232 10.873 1.39 2.56 5.851 5.48 11.254 2.787 12.757-6.36 18.025-28.78 1.701-42.787m-65.125-10.078c1.907 0 3.162 1.543 2.804 3.45l-8.794 47.228c-1.037 5.543 5.193 6.896 9.134 4.041l-1.797 3.682c-1.674 3.04-4.231 4.265-6.361 5.054 0 0-14.55 4.343-11.697-10.853l9.847-52.602ZM39.192 58.685c-1.903 0-3.739 1.545-4.097 3.454l-8.927 47.222c-1.037 5.549-7.783 6.897-10.65 4.044l.414 3.678c.535 3.044 2.627 4.266 4.461 5.057 0 0 12.923 4.345 15.774-10.851l9.89-52.604Zm.528-5.095h7.524l1.45-7.199c.36-1.907-.9-3.45-2.805-3.45l-7.618-.022-1.353 7.22c-.357 1.903.897 3.45 2.803 3.45m31.074 15.046c6.515 0 8.589-3.084 9.618-8.541l1.4-7.482s-3.683-1.497-7.552-1.497c-5.987 0-8.674 2.115-9.687 7.484l-.277 1.495c-1.025 5.457-.106 8.541 6.498 8.541m-16.3 2.902c-1.954-2.287-2.411-6.867-1.803-10.117l.78-4.144C55.437 46.8 64.878 42.931 73.769 42.931c4.845 0 9.073 1.847 13.386 1.847 2.03 0 4.499-.53 7.817-1.765L91.517 61.42c-1.834 9.765-9.707 15.578-22.29 15.578-6.605 0-10.631-2.462-10.631-2.462-.43.879-.958 2.286-1.171 3.427-.744 3.965 3.188 4.584 9.26 4.584h2.91c9.326 0 19.556-.091 17.194 12.501-1.75 9.327-9.524 15.575-23.871 15.575-11.972 0-18.567-3.78-17.481-9.592.433-2.287 1.75-4.664 4.377-7.393-.508 6.953 6.483 8.629 13.879 8.629 7.836 0 11.04-2.557 11.802-6.61.772-4.133-2.661-4.576-7.767-4.576h-4.316c-9.243 0-17.125-1.143-15.455-10.034.66-3.518 3.09-6.164 6.538-9.51m41.04 32.812q1.417.9 3.564.9 1.589 0 2.737-.74t1.149-2.2a2.24 2.24 0 0 0-.43-1.331 3.6 3.6 0 0 0-1.062-.987q-.633-.388-1.385-.838t-1.384-.88a3.6 3.6 0 0 1-1.063-1.138 2.96 2.96 0 0 1-.43-1.567q0-1.997 1.62-3.221 1.622-1.223 3.876-1.224 2.168 0 3.736.902l-.451.795q-.279.536-.687.537-.172 0-.58-.215a7 7 0 0 0-1.084-.43 5 5 0 0 0-1.492-.215q-1.289 0-2.254.677-.966.676-.966 1.878 0 .816.6 1.482.603.666 1.46 1.137.86.474 1.708.999a5.2 5.2 0 0 1 1.449 1.342q.6.816.6 1.867 0 1.225-.525 2.169a4.1 4.1 0 0 1-1.417 1.503 7.2 7.2 0 0 1-1.954.848 8.4 8.4 0 0 1-2.222.29q-2.32 0-3.971-.966Zm14.993-6.989q-1.041.827-1.643 2.223.945.064 1.675.064 2.126 0 3.06-.548.933-.547.933-1.363 0-.6-.407-.901-.409-.301-1.396-.301-1.18 0-2.222.827m-2.029 3.338a7.5 7.5 0 0 0-.215 1.868q0 2.748 2.598 2.748 1.718 0 3.242-1.245l.537.923q-1.976 1.695-4.25 1.696-1.697 0-2.706-.976-1.01-.978-1.009-2.824 0-1.782.751-3.5a7.44 7.44 0 0 1 2.276-2.91 5.44 5.44 0 0 1 3.435-1.19q1.439 0 2.158.58.72.579.72 1.567 0 1.48-1.279 2.426-1.276.944-4.132.944-1.16 0-2.126-.107m10.797-5.153h.773q.386 0 .537.15.15.15.064.537l-.28 1.288a4.9 4.9 0 0 1 1.804-1.62q1.139-.613 2.34-.613 1.44 0 2.062.826.623.828.279 2.416l-1.675 7.901h-1.503l1.61-7.729q.236-1.009-.16-1.535-.398-.525-1.364-.526-1.289 0-2.447.933-1.16.934-1.417 2.137l-1.417 6.72h-1.503Zm9.508 8.995q.473.387 1.331.634a6.1 6.1 0 0 0 1.696.247q1.095 0 1.943-.505.849-.504.848-1.535 0-.708-.397-1.073-.397-.366-1.535-.837a18 18 0 0 1-1.073-.473 7 7 0 0 1-.837-.516q-.495-.343-.709-.783a2.25 2.25 0 0 1-.215-.998q0-1.567 1.278-2.49 1.276-.924 3.016-.924 1.976 0 3.263.923l-.429.752q-.236.343-.516.344-.255-.001-.622-.215-1.008-.603-2.083-.602-.944 0-1.642.451-.697.452-.697 1.331 0 .709.418 1.106.42.397 1.578.891.623.257 1.02.451t.87.537q.471.342.697.794.226.45.226 1.01 0 1.716-1.407 2.672-1.406.956-3.359.956-1.998 0-3.35-.988Zm13.277-7.181q-1.041.827-1.643 2.223.945.064 1.675.064 2.126 0 3.06-.548.933-.547.933-1.363 0-.6-.407-.901-.409-.301-1.396-.301-1.18 0-2.222.827m-2.029 3.338a7.5 7.5 0 0 0-.215 1.868q0 2.748 2.599 2.748 1.716 0 3.241-1.245l.537.923q-1.976 1.695-4.251 1.696-1.696 0-2.705-.976-1.01-.978-1.009-2.824 0-1.782.752-3.5a7.4 7.4 0 0 1 2.275-2.91 5.44 5.44 0 0 1 3.435-1.19q1.438 0 2.158.58.719.579.719 1.567 0 1.48-1.277 2.426-1.278.944-4.133.944-1.16 0-2.126-.107m18.052-3.908h-1.782l.258-1.245h1.781l.473-2.21q.172-.753.88-.753h.794l-.644 2.963h3.371l-.279 1.245h-3.35l-1.523 7.171q-.28 1.352.879 1.352.88 0 1.997-.773l.301 1.01q-1.524 1.137-3.049 1.138-2.232 0-1.674-2.555Zm8.156-6.054q.15-.73.88-.73h.773l-1.589 7.514a5 5 0 0 1 1.761-1.62 4.64 4.64 0 0 1 2.297-.612q1.418 0 2.007.816.59.815.247 2.383l-1.674 7.943h-1.525l1.654-7.771q.43-2.02-1.46-2.02-1.288 0-2.405.924-1.116.922-1.374 2.148l-1.417 6.719h-1.503Zm12.032 6.623q-1.041.827-1.643 2.223.945.064 1.675.064 2.125 0 3.06-.548.933-.547.933-1.363 0-.6-.407-.901-.409-.301-1.396-.301-1.181 0-2.222.827m-2.03 3.338a7.5 7.5 0 0 0-.214 1.868q0 2.748 2.599 2.748 1.718 0 3.24-1.245l.538.923q-1.976 1.695-4.251 1.696-1.696 0-2.706-.976-1.008-.978-1.008-2.824 0-1.782.75-3.5a7.44 7.44 0 0 1 2.276-2.91 5.44 5.44 0 0 1 3.436-1.19q1.438 0 2.158.58.718.579.719 1.567 0 1.48-1.278 2.426-1.278.944-4.132.944-1.16 0-2.126-.107m18.481-9.318h1.653l-2.92 13.676h6.957q.256 0 .343.118.086.12.02.44l-.15.816h-9.102Zm10.796 1.406q-.193-.247-.107-.677.107-.429.408-.697.3-.269.73-.269.429 0 .633.27.204.267.118.696-.214.924-1.159.924-.43 0-.623-.247m-.687 2.76h1.524l-2.318 10.884h-1.503Zm5.151 1.244h-1.76l.257-1.245h1.782l.408-1.91q.365-1.719 1.44-2.674 1.072-.955 2.467-.955 1.074 0 1.976.322l-.237.558q-.3.645-.708.644a4 4 0 0 1-.515-.096 3.6 3.6 0 0 0-.795-.097q-.73 0-1.288.462-.558.46-.75 1.428l-.495 2.318h2.426l-.258 1.245h-2.426l-2.919 13.72q-.108.664-.859.665h-.794Zm7.61.569q-1.041.827-1.643 2.223.946.064 1.675.064 2.126 0 3.06-.548.933-.547.933-1.363 0-.6-.407-.901-.409-.301-1.396-.301-1.18 0-2.222.827m-2.03 3.338a7.5 7.5 0 0 0-.214 1.868q0 2.748 2.599 2.748 1.717 0 3.24-1.245l.538.923q-1.976 1.695-4.251 1.696-1.696 0-2.705-.976-1.01-.978-1.01-2.824.001-1.782.752-3.5a7.44 7.44 0 0 1 2.276-2.91 5.44 5.44 0 0 1 3.435-1.19q1.438 0 2.158.58.719.579.719 1.567 0 1.48-1.277 2.426-1.278.944-4.133.944-1.16 0-2.126-.107"/></g></svg>