<?xml version="1.0" encoding="UTF-8"?>
<svg width="91px" height="25px" viewBox="0 0 91 25" version="1.1" xmlns="http://www.w3.org/2000/svg" xmlns:xlink="http://www.w3.org/1999/xlink">
    <title>logo2</title>
    <g id="Mobile-Mijn-gegevens" stroke="none" stroke-width="1" fill="none" fill-rule="evenodd">
        <g id="2" transform="translate(-27.000000, -54.000000)" fill-rule="nonzero">
            <g id="Top-header">
                <g id="logo2" transform="translate(27.000000, 54.000000)">
                    <path d="M5.69333333,23.88 C4.76,23.88 3.82666667,23.88 2.9,23.7933333 C1.92471925,23.7285868 0.955472416,23.5926694 -1.18423789e-15,23.3866667 L-1.18423789e-15,6.81333333 C0.855769467,6.65686964 1.71918851,6.5456043 2.58666667,6.48 C3.52666667,6.40666667 4.4,6.37333333 5.2,6.37333333 C6.20485251,6.36460231 7.20858186,6.44267015 8.2,6.60666667 C9.02592117,6.73067066 9.8229521,7.00161602 10.5533333,7.40666667 C11.1887642,7.76075118 11.7198693,8.2757622 12.0933333,8.9 C12.4918721,9.59225182 12.6903566,10.3815737 12.6666667,11.18 C12.6657684,12.547781 11.8912362,13.7973596 10.6666667,14.4066667 C11.5820734,14.6864771 12.3686545,15.2817276 12.8866667,16.0866667 C13.2883247,16.8196177 13.4927741,17.6443068 13.48,18.48 C13.5756026,20.0762626 12.8329271,21.6070836 11.52,22.52 C10.2177778,23.4266667 8.27555556,23.88 5.69333333,23.88 Z M3.74666667,13.2733333 L5.62,13.2733333 C6.4911727,13.3354397 7.36409991,13.1796417 8.16,12.82 C8.6796357,12.5125939 8.977528,11.9349419 8.92666667,11.3333333 C8.9769403,10.7320269 8.66519874,10.1583176 8.13333333,9.87333333 C7.40469755,9.55806394 6.61272808,9.4165593 5.82,9.46 L4.76,9.46 C4.38,9.46 4.04666667,9.46 3.74666667,9.52666667 L3.74666667,13.2733333 Z M3.74666667,16.2066667 L3.74666667,20.62 C4,20.6666667 4.33333333,20.6666667 4.66666667,20.6666667 C5,20.6666667 5.33333333,20.6666667 5.75333333,20.6666667 C6.70672426,20.7021006 7.65671795,20.5339199 8.54,20.1733333 C9.2451881,19.8511035 9.6701327,19.118809 9.6,18.3466667 C9.65067419,17.6612777 9.30664692,17.0068499 8.71333333,16.66 C7.92231204,16.2815007 7.04903745,16.1073042 6.17333333,16.1533333 L3.74666667,16.2066667 Z" id="Shape" fill="#002664"></path>
                    <polygon id="Path" fill="#002664" points="16.0733333 23.6533333 16.0733333 6.56666667 27.6133333 6.56666667 27.6133333 9.8 19.92 9.8 19.92 13.1333333 26.7533333 13.1333333 26.7533333 16.2866667 19.92 16.2866667 19.92 20.4066667 28.18 20.4066667 28.18 23.6333333"></polygon>
                    <path d="M42.48,23.6533333 C41.3822222,21.7022222 40.1911111,19.7711111 38.9066667,17.86 C37.6476426,15.9824667 36.2809086,14.1794464 34.8133333,12.46 L34.8133333,23.6533333 L31.0133333,23.6533333 L31.0133333,6.56666667 L34.1466667,6.56666667 C34.6933333,7.11333333 35.2933333,7.77333333 35.9466667,8.56666667 C36.6,9.36 37.28,10.1933333 37.9466667,11.0933333 C38.6133333,11.9933333 39.28,12.92 39.98,13.88 C40.68,14.84 41.3133333,15.7666667 41.8733333,16.6533333 L41.8733333,6.56666667 L45.7,6.56666667 L45.7,23.6533333 L42.48,23.6533333 Z" id="Path" fill="#002664"></path>
                    <path d="M56.12,24 C55.0619638,24.0255302 54.008432,23.8537095 53.0133333,23.4933333 C52.1958961,23.1944735 51.4572295,22.7134283 50.8533333,22.0866667 C50.2797656,21.4767933 49.8513311,20.7452643 49.6,19.9466667 C49.3188053,19.0563738 49.1815227,18.1269031 49.1933333,17.1933333 L49.1933333,6.56666667 L53.04,6.56666667 L53.04,16.8733333 C53.0218489,17.4797192 53.1006179,18.0851148 53.2733333,18.6666667 C53.4077937,19.1035025 53.6352241,19.5060543 53.94,19.8466667 C54.2044528,20.1518873 54.5448155,20.3818621 54.9266667,20.5133333 C55.3347542,20.6502813 55.7629039,20.7178839 56.1933333,20.7133333 C57.0402152,20.7505119 57.8649811,20.4370044 58.4733333,19.8466667 C59.06,19.2733333 59.3533333,18.2933333 59.3533333,16.9133333 L59.3533333,6.56666667 L63.2,6.56666667 L63.2,17.1933333 C63.2107818,18.1300349 63.0689246,19.0622393 62.78,19.9533333 C62.5201566,20.7614522 62.0802074,21.5000198 61.4933333,22.1133333 C60.8789456,22.7400779 60.1284253,23.2168521 59.3,23.5066667 C58.2775532,23.8580271 57.2008439,24.0250638 56.12,24 L56.12,24 Z" id="Path" fill="#002664"></path>
                    <path d="M89.3333333,6.61333333 L83.68,6.61333333 L83.68,0.966666667 C83.6800126,0.435384104 83.2512699,0.00366401752 82.72,0 L74.2333333,0 C73.6994581,0 73.2666667,0.432791408 73.2666667,0.966666667 L73.2666667,6.61333333 L67.6133333,6.61333333 C67.0872846,6.62421942 66.6666666,7.05383869 66.6666666,7.58 L66.6666666,16.0733333 C66.6703003,16.6020143 67.0979857,17.0296997 67.6266667,17.0333333 L73.28,17.0333333 L73.28,22.6666667 C73.283664,23.1979366 73.7153841,23.6266667 74.2466667,23.6266667 L82.7333333,23.6266667 C83.259409,23.6194219 83.6830881,23.19278 83.6866667,22.6666667 L83.6866667,17.0333333 L89.3333333,17.0333333 C89.8620143,17.0296997 90.2896997,16.6020143 90.2933333,16.0733333 L90.2933333,7.58 C90.2933333,7.04871744 89.8646033,6.61699735 89.3333333,6.61333333 Z" id="Path" fill="#58A618"></path>
                    <path d="M76.22,10.7733333 C76.2166778,10.7133793 76.2166778,10.6532873 76.22,10.5933333 C76.2286872,9.14087156 76.9601064,7.78811089 78.1707033,6.98550522 C79.3813002,6.18289955 80.9120885,6.0358541 82.2533333,6.59333333 C81.50191,5.99022783 80.605393,5.59484083 79.6533333,5.44666667 C78.9614804,5.37304828 78.263652,5.51261395 77.6533333,5.84666667 C77.2487208,6.05511071 76.8957033,6.35118989 76.62,6.71333333 C76.6432384,6.28571884 76.832152,5.88397863 77.1466667,5.59333333 L77.3266667,5.44 C76.7404542,5.52254591 76.175039,5.71478707 75.66,6.00666667 C75.236098,6.27661439 74.9109963,6.67655968 74.7333333,7.14666667 C74.5885838,7.53416179 74.5228485,7.94670746 74.54,8.36 C74.3336492,8.00620838 74.2276277,7.60286551 74.2333333,7.19333333 C74.2436592,7.10188634 74.2660772,7.01221442 74.3,6.92666667 C73.8350648,7.20839198 73.4692776,7.62776589 73.2533333,8.12666667 C73.1003736,8.51174434 73.0839044,8.93759238 73.2066667,9.33333333 C73.2870416,9.63286126 73.440521,9.90774965 73.6533333,10.1333333 C73.3651109,10.0286843 73.1144987,9.84072514 72.9333333,9.59333333 C72.8378096,9.41524347 72.7767416,9.22073077 72.7533333,9.02 C71.9186002,10.8614915 72.0101901,12.9903396 73,14.7533333 C73.1849155,12.9037826 74.449818,11.3403317 76.22,10.7733333 L76.22,10.7733333 Z" id="Path" fill="#FFFFFF" opacity="0.4"></path>
                    <path d="M89.0733333,11.44 C89.0733333,11.44 87.6266667,11 85.92,8.98666667 L85.74,8.78666667 C86.56,9.25333333 87.16,9.62 87.9133333,9.53333333 C86.4866667,9.20666667 85.86,8.02666667 84.58,7.53333333 C83.1757004,6.96994822 81.577023,7.20414936 80.3933333,8.14666667 L80.3933333,8.14666667 L79.86,8.48 C78.7738556,9.13876688 77.7437182,9.885728 76.78,10.7133333 L80.04,9.06666667 C80.3760121,9.42518178 80.8488545,9.6235585 81.3400836,9.61210498 C81.8313127,9.60065145 82.2943956,9.38045263 82.6133333,9.00666667 C82.5260793,8.92503153 82.4299192,8.8534705 82.3266667,8.79333333 C82.0370637,8.62412668 81.6985738,8.5583092 81.3666667,8.60666667 C81.4339423,8.67120201 81.4723906,8.7601135 81.4733333,8.85333333 C81.430818,9.00216665 81.2947866,9.10478095 81.14,9.10478095 C80.9852134,9.10478095 80.849182,9.00216665 80.8066667,8.85333333 C80.8090274,8.70654397 80.9019108,8.57650712 81.04,8.52666667 L81.0866667,8.52666667 L81.0866667,8.52666667 C81.6424909,8.34695894 82.2519475,8.47646847 82.6866667,8.86666667 C83.2417939,9.28415934 83.4469371,10.0226746 83.1866667,10.6666667 C82.52,12.0533333 81.0066667,11.84 80.3733333,11.6733333 L80.3733333,11.6733333 L80.1533333,11.6133333 L80.0866667,11.6133333 L80.0866667,11.6133333 C79.8733333,11.5466667 79.6933333,11.48 79.56,11.4266667 L79.3333333,11.3333333 L79.3333333,11.3333333 C78.831231,11.1401957 78.2979668,11.0407736 77.76,11.04 C75.3826742,11.0434673 73.4491671,12.956184 73.42,15.3333333 L73.42,15.3733333 C73.8347576,15.926083 74.3342499,16.4098256 74.9,16.8066667 L75.0066667,16.8733333 C75.220195,17.0146781 75.4429114,17.1416265 75.6733333,17.2533333 L75.6733333,17.2533333 C76.5413618,17.6923587 77.500597,17.920748 78.4733333,17.9200018 L78.4733333,17.9200018 C78.1933669,17.6830861 78.0008924,17.3591657 77.9266667,17 C78.1663577,17.2784423 78.4708581,17.4936531 78.8133333,17.6266667 C79.1635542,17.7516141 79.5355864,17.8037894 79.9066667,17.78 C80.380403,17.7217333 80.8355658,17.5601505 81.24,17.3066667 C81.1144528,17.2977217 80.9896965,17.2798994 80.8666667,17.2533333 C80.419531,17.1668498 80.0405533,16.8720894 79.8466667,16.46 C80.2542925,16.6308293 80.6862244,16.7365626 81.1266667,16.7733333 C81.7162268,16.8227546 82.3019127,16.6410725 82.76,16.2666667 C83.1462621,15.9892614 83.463364,15.6265333 83.6866667,15.2066667 C83.5786665,15.2642863 83.4673622,15.3154863 83.3533333,15.36 C82.8407541,15.4835029 82.3017374,15.4342883 81.82,15.22 C82.3459745,15.1729194 82.8532371,15.0015469 83.3,14.72 C83.9182279,14.3749212 84.3915387,13.8187809 84.6333333,13.1533333 C84.7739758,12.659407 84.8369505,12.1466132 84.82,11.6333333 C84.82,11.56 84.82,11.4933333 84.82,11.42 C84.7913718,11.542691 84.7534855,11.6630357 84.7066667,11.78 C83.9733333,13.5866667 81.2666667,14.2 78.6666667,13.1133333 L78.28,12.94 L78.28,12.8666667 C78.3149839,12.6828445 78.4337261,12.5258684 78.6010926,12.4421852 C78.7684591,12.3585019 78.9652853,12.3576938 79.1333333,12.44 C79.44,12.5466667 79.88,12.66 80.26,12.7466667 C83.06,13.32 84.18,11.2866667 84.3066667,10.8 C84.5369543,9.94565921 84.3598052,9.03284926 83.8266667,8.32666667 C83.7468934,8.20880864 83.6503163,8.10324772 83.54,8.01333333 C84.3161129,8.26738174 85.0108817,8.72289243 85.5533333,9.33333333 C87.54,11.3333333 89.0733333,11.44 89.0733333,11.44 Z" id="Path" fill="#FFFFFF"></path>
                </g>
            </g>
        </g>
    </g>
</svg>