<svg id="Layer_1" data-name="Layer 1" xmlns="http://www.w3.org/2000/svg" viewBox="0 0 221.98 65.59"><defs><style>.cls-1{fill:#f58236;}</style></defs><path class="cls-1" d="M77,11.85h2.57V28.4h8.71v2.41H77Z"/><path class="cls-1" d="M98.8,11.85h2.33l8.12,19h-3l-1.9-4.69h-9l-1.87,4.69h-3Zm4.61,12-3.53-8.7h-.06l-3.59,8.7Z"/><path class="cls-1" d="M111.71,11.85h3.38l10.44,15.58h.06V11.85h2.57v19h-3.27L114.34,15.22h-.06V30.81h-2.57Z"/><path class="cls-1" d="M148.51,20.2v9.35a9.28,9.28,0,0,1-1.58.75,17.13,17.13,0,0,1-1.84.55,17.51,17.51,0,0,1-1.92.34c-.65.06-1.27.1-1.84.1a11,11,0,0,1-4.3-.8,9.64,9.64,0,0,1-3.18-2.17,9.18,9.18,0,0,1-2-3.18,10.57,10.57,0,0,1-.69-3.82,10.41,10.41,0,0,1,.74-3.93,9.8,9.8,0,0,1,2-3.16,9.28,9.28,0,0,1,3.12-2.1,10.26,10.26,0,0,1,4-.77,11.77,11.77,0,0,1,4.28.66,7.75,7.75,0,0,1,2.78,1.81l-1.81,1.95a6.84,6.84,0,0,0-2.5-1.57,8.65,8.65,0,0,0-2.75-.43,6.88,6.88,0,0,0-5.2,2.22,7.16,7.16,0,0,0-1.45,2.39,8.4,8.4,0,0,0-.51,2.93,7.73,7.73,0,0,0,.57,3,7.35,7.35,0,0,0,1.55,2.4,7.1,7.1,0,0,0,2.33,1.59,7.22,7.22,0,0,0,2.92.58,12.54,12.54,0,0,0,2.58-.26,7,7,0,0,0,2.08-.73V22.61h-4.2V20.2Z"/><path class="cls-1" d="M154.08,11.85V23.47a7.42,7.42,0,0,0,.24,1.83,5.22,5.22,0,0,0,.81,1.76,4.34,4.34,0,0,0,1.47,1.31,4.59,4.59,0,0,0,6-1.31,5.42,5.42,0,0,0,.81-1.76,7.91,7.91,0,0,0,.23-1.83V11.85h2.58v12a7.65,7.65,0,0,1-.57,3,7,7,0,0,1-1.55,2.34,6.79,6.79,0,0,1-2.33,1.53,8,8,0,0,1-5.79,0,6.75,6.75,0,0,1-2.32-1.53,7.16,7.16,0,0,1-1.56-2.34,7.84,7.84,0,0,1-.56-3v-12Z"/><path class="cls-1" d="M176.66,11.85H179l8.11,19h-3l-1.9-4.69h-9l-1.88,4.69h-3Zm4.6,12-3.53-8.7h0l-3.59,8.7Z"/><path class="cls-1" d="M204.37,20.2v9.35a8.93,8.93,0,0,1-1.58.75,16.3,16.3,0,0,1-1.83.55,17.69,17.69,0,0,1-1.93.34c-.65.06-1.26.1-1.83.1a11,11,0,0,1-4.3-.8,9.69,9.69,0,0,1-3.19-2.17,9.48,9.48,0,0,1-2-3.18,10.78,10.78,0,0,1-.68-3.82,10.41,10.41,0,0,1,.73-3.93,9.82,9.82,0,0,1,2-3.16,9.18,9.18,0,0,1,3.12-2.1,10.21,10.21,0,0,1,4-.77,11.79,11.79,0,0,1,4.29.66A7.93,7.93,0,0,1,204,13.83l-1.82,1.95a6.89,6.89,0,0,0-2.49-1.57,8.67,8.67,0,0,0-2.76-.43A6.88,6.88,0,0,0,191.74,16a7.16,7.16,0,0,0-1.45,2.39,8.4,8.4,0,0,0-.51,2.93,7.92,7.92,0,0,0,.56,3,7.54,7.54,0,0,0,1.56,2.4,7,7,0,0,0,2.33,1.59,7.17,7.17,0,0,0,2.91.58,12.63,12.63,0,0,0,2.59-.26,7,7,0,0,0,2.07-.73V22.61h-4.2V20.2Z"/><path class="cls-1" d="M208.26,11.85H220.5v2.41h-9.67v5.65h9v2.41h-9V28.4H221v2.41H208.26Z"/><path class="cls-1" d="M77.51,50.05a4.25,4.25,0,0,0,1.78,1.54,5.37,5.37,0,0,0,2.24.5,4.63,4.63,0,0,0,1.31-.2,4,4,0,0,0,1.22-.6,3.19,3.19,0,0,0,.9-1,2.62,2.62,0,0,0,.35-1.36,2.06,2.06,0,0,0-.7-1.68,6,6,0,0,0-1.73-1q-1-.39-2.25-.75a9.13,9.13,0,0,1-2.25-1,5.57,5.57,0,0,1-1.72-1.73,5.32,5.32,0,0,1-.7-2.93,5.06,5.06,0,0,1,1.5-3.49,6.22,6.22,0,0,1,2-1.29,7.34,7.34,0,0,1,2.93-.53,10.4,10.4,0,0,1,3,.43,5.06,5.06,0,0,1,2.49,1.74l-2.09,1.91a3.42,3.42,0,0,0-1.36-1.21,4.38,4.38,0,0,0-2-.46,4.77,4.77,0,0,0-1.78.29,3,3,0,0,0-1.14.72,2.38,2.38,0,0,0-.6.95,2.83,2.83,0,0,0-.18.94,2.35,2.35,0,0,0,.7,1.84,5.37,5.37,0,0,0,1.73,1.05,20.59,20.59,0,0,0,2.25.72,9.46,9.46,0,0,1,2.24.9,5.25,5.25,0,0,1,1.73,1.55,4.52,4.52,0,0,1,.7,2.69,5.63,5.63,0,0,1-.52,2.47A5.52,5.52,0,0,1,86.11,53,6.22,6.22,0,0,1,84,54.1a8,8,0,0,1-2.57.4A9.52,9.52,0,0,1,78,53.86a5.65,5.65,0,0,1-2.6-2Z"/><path class="cls-1" d="M105,39.16a5.3,5.3,0,0,0-2-1.62,6.13,6.13,0,0,0-2.54-.56,7,7,0,0,0-2.91.6,6.67,6.67,0,0,0-2.22,1.66,7.33,7.33,0,0,0-1.44,2.44,8.82,8.82,0,0,0-.5,3,8.39,8.39,0,0,0,.48,2.84,7,7,0,0,0,1.39,2.35,6.54,6.54,0,0,0,2.22,1.61,7.27,7.27,0,0,0,3,.59,5.87,5.87,0,0,0,2.86-.67,6.21,6.21,0,0,0,2.09-1.87l2.17,1.62a7,7,0,0,1-.75.85,7.62,7.62,0,0,1-1.42,1.1,9.59,9.59,0,0,1-2.13,1,9,9,0,0,1-2.88.42,9.4,9.4,0,0,1-4.06-.86,9.77,9.77,0,0,1-5-5.39,10.06,10.06,0,0,1-.67-3.55,11.18,11.18,0,0,1,.73-4.06,9.47,9.47,0,0,1,2-3.21,9,9,0,0,1,3.12-2.11,10.43,10.43,0,0,1,4-.75,9.73,9.73,0,0,1,3.68.73,6.9,6.9,0,0,1,3,2.22Z"/><path class="cls-1" d="M110.7,35.06h2.57v7.87h9.83V35.06h2.57V54H123.1V45.34h-9.83V54H110.7Z"/><path class="cls-1" d="M139.24,54.5a10.24,10.24,0,0,1-4-.76,9.3,9.3,0,0,1-3.12-2.11,9.69,9.69,0,0,1-2-3.16,10.83,10.83,0,0,1,0-7.87,9.8,9.8,0,0,1,2-3.16,9.43,9.43,0,0,1,3.12-2.1,10.75,10.75,0,0,1,8,0,9.43,9.43,0,0,1,3.12,2.1,9.8,9.8,0,0,1,2,3.16,10.83,10.83,0,0,1,0,7.87,9.69,9.69,0,0,1-2,3.16,9.3,9.3,0,0,1-3.12,2.11A10.25,10.25,0,0,1,139.24,54.5Zm0-2.41a7,7,0,0,0,5.2-2.22,7.11,7.11,0,0,0,1.45-2.4,8.7,8.7,0,0,0,0-5.87,7,7,0,0,0-3.7-4,7.53,7.53,0,0,0-5.89,0,7,7,0,0,0-3.7,4,8.7,8.7,0,0,0,0,5.87,7.11,7.11,0,0,0,1.45,2.4,7,7,0,0,0,5.19,2.22Z"/><path class="cls-1" d="M161.53,54.5a10.25,10.25,0,0,1-4-.76,9.3,9.3,0,0,1-3.12-2.11,9.69,9.69,0,0,1-2-3.16,10.83,10.83,0,0,1,0-7.87,9.8,9.8,0,0,1,2-3.16,9.43,9.43,0,0,1,3.12-2.1,10.75,10.75,0,0,1,8,0,9.43,9.43,0,0,1,3.12,2.1,9.8,9.8,0,0,1,2,3.16,10.83,10.83,0,0,1,0,7.87,9.69,9.69,0,0,1-2,3.16,9.3,9.3,0,0,1-3.12,2.11A10.24,10.24,0,0,1,161.53,54.5Zm0-2.41a7,7,0,0,0,5.19-2.22,7.11,7.11,0,0,0,1.45-2.4,8.7,8.7,0,0,0,0-5.87,7,7,0,0,0-3.7-4,7.11,7.11,0,0,0-2.94-.6,7,7,0,0,0-6.65,4.62,8.7,8.7,0,0,0,0,5.87,7.27,7.27,0,0,0,1.45,2.4,7,7,0,0,0,2.25,1.61A6.89,6.89,0,0,0,161.53,52.09Z"/><path class="cls-1" d="M175.1,35.06h2.58V51.61h8.7V54H175.1Z"/><path class="cls-1" d="M190.9,50.05a4.21,4.21,0,0,0,1.79,1.54,5.32,5.32,0,0,0,2.23.5,4.63,4.63,0,0,0,1.31-.2,4,4,0,0,0,1.22-.6,3.19,3.19,0,0,0,.9-1,2.62,2.62,0,0,0,.35-1.36,2.06,2.06,0,0,0-.7-1.68,6,6,0,0,0-1.73-1q-1-.39-2.25-.75a8.9,8.9,0,0,1-2.24-1,5.49,5.49,0,0,1-1.73-1.73,5.32,5.32,0,0,1-.7-2.93,5.06,5.06,0,0,1,1.5-3.49,6.22,6.22,0,0,1,2-1.29,7.34,7.34,0,0,1,2.93-.53,10.4,10.4,0,0,1,3,.43,5.06,5.06,0,0,1,2.49,1.74l-2.09,1.91a3.42,3.42,0,0,0-1.36-1.21,4.38,4.38,0,0,0-2-.46,4.77,4.77,0,0,0-1.78.29,3,3,0,0,0-1.14.72,2.38,2.38,0,0,0-.6.95,2.83,2.83,0,0,0-.18.94,2.38,2.38,0,0,0,.7,1.84,5.37,5.37,0,0,0,1.73,1.05,20.59,20.59,0,0,0,2.25.72,9.71,9.71,0,0,1,2.25.9,5.21,5.21,0,0,1,1.72,1.55,4.52,4.52,0,0,1,.7,2.69,5.63,5.63,0,0,1-.52,2.47A5.52,5.52,0,0,1,199.5,53a6.22,6.22,0,0,1-2.09,1.15,8,8,0,0,1-2.57.4,9.52,9.52,0,0,1-3.45-.64,5.65,5.65,0,0,1-2.6-2Z"/><path class="cls-1" d="M28.13,45.26l0-.06h0Z"/><path class="cls-1" d="M56.51,12.47a30.62,30.62,0,1,0-.16,43.13A30.5,30.5,0,0,0,56.51,12.47ZM56,55.27a29.92,29.92,0,1,1,.17-42.47A30,30,0,0,1,56,55.27Z"/><path class="cls-1" d="M33.75,5.52A27.58,27.58,0,0,0,9.61,46.44l.32.57a.52.52,0,0,0,.67.18l.25-.12A26.56,26.56,0,0,1,19,44.49l-4.12-3,5.35,2.89.76,0c.73,0,1.43,0,2.12,0L17.2,38.27l7.87,6.31c.37,0,.74.08,1.1.14l-6.09-9.17,8.39,9.6h0L23.39,33.39l6.63,11L26.84,31.92l4.62,12L30.32,31.08,33,43.73l.66-12.9.91,12.92,3.23-12.52L36.27,44.08l5.43-11.7L37.87,44.72,45.28,34.2l-6,11.44,9.13-9L40.57,46.78l10.55-7.24-9.52,8.6,11.64-5.23L43,49.25l.65.06,11-2.89-7.57,3h.31A22.22,22.22,0,0,0,58,46.29,27.59,27.59,0,0,0,33.75,5.52ZM19.22,12.63c0-.11,0-.34.33-.34h2.62c.35,0,.33.23.33.34V14.8a.26.26,0,0,1-.27.26H19.48a.26.26,0,0,1-.27-.26Zm3.3,17.14a.25.25,0,0,1-.25.25H19.43a.25.25,0,0,1-.25-.25v-.68c0-2.43,0-11,0-11v-.48a.25.25,0,0,1,.25-.25h2.83a.25.25,0,0,1,.24.25V18s0,8.62,0,11.05Zm7.5.3-.19.05c-.52.09-1.76.23-2.09.23-2.83,0-3.14-1.8-3.14-2.41V12.54a.25.25,0,0,1,.25-.25h2.67a.25.25,0,0,1,.25.25V14.8s0,8.1,0,11.19v.61a1.07,1.07,0,0,0,1.06,1.07H30a.25.25,0,0,1,.25.25v1.9C30.27,30,30.2,30,30,30.07Zm9.06-.27c-1.34.89-5.31.49-6.29.37l-.24,0a.26.26,0,0,1-.24-.25v-2c0-.14.11-.28.24-.25l.25.07a10.65,10.65,0,0,0,3.58.26c.57-.06,1-.44,1-1.37S36.16,25,35.47,24.51c-2.67-1.84-3.16-2.36-3.16-4.06s1.17-2.73,2.79-3.21a15,15,0,0,1,4.79,0l.23,0a.26.26,0,0,1,.25.24v.21s-.07,1.63-.08,1.81-.16.18-.31.16l-1.47-.21c-.45-.07-2.42-.22-2.89.47A1.3,1.3,0,0,0,36,21.62c.29.21,1.22.84,1.84,1.21a14.42,14.42,0,0,1,1.87,1.38C40.81,25.11,41.33,28.45,39.08,29.8Zm11.31.27-.25.08a8.63,8.63,0,0,1-1.48.21,5.92,5.92,0,0,1-4-.9c-1.69-1.15-2.19-2.93-2.19-6.27s1.44-4.8,2.41-5.44a6.21,6.21,0,0,1,3.2-.72,13.82,13.82,0,0,1,2.27.28c.33.09.3.21.3.33v1.78a.25.25,0,0,1-.25.25h-.16l-.25,0c-.35,0-1-.12-1.64-.14a2.1,2.1,0,0,0-2,1,7.93,7.93,0,0,0-.49,2.88,11.82,11.82,0,0,0,.38,3.22c.25.77.71,1.07,1.67,1.26A5.31,5.31,0,0,0,50,27.69l.33-.07c.13,0,.24.11.24.25l0,1.95C50.64,30,50.51,30,50.39,30.07Z"/><path class="cls-1" d="M38.92,60.14a23,23,0,0,1-4.56.58,29.26,29.26,0,0,1-16.92-5.4l-.17-.14c0-.06,0-.17,0-.2l.35-.08a20.07,20.07,0,0,1,4-.32A34.85,34.85,0,0,1,34.3,57.83c1.42.65,2.91,1.34,4.63,1.94l.28.13c.07,0,0,.16,0,.19Z"/><path class="cls-1" d="M48.16,56.66a27.58,27.58,0,0,1-5.53,2.49,37.27,37.27,0,0,1-8.3-2.95A34.15,34.15,0,0,0,21.72,53a20,20,0,0,0-5.74.57l-.28.07c-.12.05-.21.08-.41-.11l-1.78-1.76a.24.24,0,0,1,0-.34l.19-.09A22.46,22.46,0,0,1,22,49.88a34.28,34.28,0,0,1,12.66,3c3.39,1.46,7.06,3.2,13.44,3.35l.34,0a.12.12,0,0,1,0,.17Z"/><path class="cls-1" d="M56.32,49.09a27.68,27.68,0,0,1-5.19,5.4,20.18,20.18,0,0,1-3.06.17c-6.36-.15-10-1.89-13.4-3.34a34.11,34.11,0,0,0-12.61-3,23.27,23.27,0,0,0-9.33,1.84l-.24.09c-.22.11-.26.07-.34,0l-.93-1.26c-.15-.23-.06-.25,0-.34l.25-.14a24.24,24.24,0,0,1,9.92-2.63,34.25,34.25,0,0,1,12.75,2.37c3.45,1.28,7.2,2.82,13.56,2.63a21.6,21.6,0,0,0,8.37-2l.19-.08a.12.12,0,0,1,.17,0,.12.12,0,0,1,0,.17Z"/><path class="cls-1" d="M55.44,10.1a30.62,30.62,0,1,0-.17,43.13A30.5,30.5,0,0,0,55.44,10.1ZM55,52.9a29.92,29.92,0,1,1,.16-42.47A30,30,0,0,1,55,52.9Z"/><path class="cls-1" d="M54,12.07a30.62,30.62,0,0,0-43.3,43.3A30.62,30.62,0,0,0,54,12.07Zm-.5,42.8A29.92,29.92,0,1,1,11.16,12.56,29.92,29.92,0,1,1,53.47,54.87Z"/></svg>