<?xml version="1.0" encoding="UTF-8" standalone="no"?>
<svg
   xml:space="preserve"
   viewBox="0 0 1071.6122 340.93662"
   height="51.835617"
   width="162.91782"
   version="1.1"
   id="svg1"
   sodipodi:docname="logo.svg"
   inkscape:version="1.4 (e7c3feb100, 2024-10-09)"
   xmlns:inkscape="http://www.inkscape.org/namespaces/inkscape"
   xmlns:sodipodi="http://sodipodi.sourceforge.net/DTD/sodipodi-0.dtd"
   xmlns="http://www.w3.org/2000/svg"
   xmlns:svg="http://www.w3.org/2000/svg"><defs
   id="defs1" /><sodipodi:namedview
   id="namedview1"
   pagecolor="#505050"
   bordercolor="#eeeeee"
   borderopacity="1"
   inkscape:showpageshadow="0"
   inkscape:pageopacity="0"
   inkscape:pagecheckerboard="0"
   inkscape:deskcolor="#505050"
   inkscape:zoom="9.125"
   inkscape:cx="74.794521"
   inkscape:cy="38.90411"
   inkscape:window-width="3440"
   inkscape:window-height="1371"
   inkscape:window-x="0"
   inkscape:window-y="32"
   inkscape:window-maximized="1"
   inkscape:current-layer="svg1" />
    <path
   d="m 259.93065,84.930064 c -43.89,0 -79.47,38.449996 -79.47,85.879996 0,47.43 35.58,85.88 79.47,85.88 43.89,0 79.47,-38.45 79.47,-85.88 0,-47.43 -35.58,-85.879996 -79.47,-85.879996 z m 0,144.279996 c -26.26,0 -47.55,-26.15 -47.55,-58.4 0,-32.25 21.29,-58.4 47.55,-58.4 26.26,0 47.55,26.15 47.55,58.4 0,32.25 -21.28,58.4 -47.55,58.4 z M 84.10065,84.930064 c -17.76,0 -34.15,6.3 -47.38,16.929996 V 9.4900639 c 0,-3.63 -2.27,-5.9 -5.93,-5.94 -8.51,-0.13 -20.17,3.9 -24.5999999,15.4500001 -1.44,3.76 -1.56,7.55 -1.56,10.81 l 0.01,144.089996 0.07,-0.04 c 1.49,46.01 36.4599999,82.82 79.3999999,82.82 43.89,0 79.47,-38.45 79.47,-85.88 -0.01,-47.42 -35.59,-85.869996 -79.48,-85.869996 z m 0,144.279996 c -26.26,0 -47.55,-26.15 -47.55,-58.4 0,-32.25 21.29,-58.4 47.55,-58.4 26.26,0 47.55,26.15 47.55,58.4 0,32.25 -21.29,58.4 -47.55,58.4 z m 388.26,1.42 c 0,3.26 0.12,7.05 1.56,10.81 4.43,11.56 16.08,15.58 24.6,15.45 3.66,-0.04 5.94,-2.31 5.93,-5.94 v -93.67 c 0,-39.79 -32.56,-72.349996 -72.35,-72.349996 -39.79,0 -72.35,32.559996 -72.35,72.349996 v 93.67 c 0,3.63 2.27,5.9 5.93,5.94 8.51,0.13 20.17,-3.9 24.6,-15.45 1.44,-3.76 1.56,-7.55 1.56,-10.81 v -77.95 c 0,-22.14 18.12,-40.26 40.26,-40.26 22.14,0 40.26,18.12 40.26,40.26 z m 134.75,-145.699996 c -42.94,0 -77.9,36.809996 -79.4,82.819996 l -0.07,164.38 c 0,3.63 2.27,5.9 5.93,5.94 8.51,0.13 20.17,-3.9 24.6,-15.45 1.44,-3.76 1.56,-7.55 1.56,-10.81 v -72.05 c 13.23,10.64 29.62,16.93 47.38,16.93 43.89,0 79.47,-38.45 79.47,-85.88 0,-47.43 -35.58,-85.879996 -79.47,-85.879996 z m 0,144.289996 c -26.26,0 -47.55,-26.15 -47.55,-58.4 0,-32.25 21.29,-58.4 47.55,-58.4 26.26,0 47.55,26.15 47.55,58.4 0,32.25 -21.29,58.4 -47.55,58.4 z m 130.52,-67.18 c 0,-42.89 14.37,-45.02 27.15,-45.02 3.26,0 7.05,-0.12 10.81,-1.56 11.56,-4.43 15.58,-16.079996 15.45,-24.599996 -0.04,-3.66 -2.32,-5.94 -5.94,-5.93 h -10.18 c -54.33,0 -69.38,30.549996 -69.38,66.419996 v 99.6 c 0,3.63 2.27,5.9 5.93,5.94 8.51,0.13 20.17,-3.9 24.6,-15.45 1.44,-3.76 1.56,-7.55 1.56,-10.81 z m 258.08,56.37 c -2.73,-3.25 -39.67,-47.27 -39.67,-47.27 l 24.72,-29.46 c 0,0 12.22,-14.56 14.94,-17.81 2.1,-2.5 4.44005,-5.48 5.76005,-9.29 4.04,-11.7 -2.30005,-22.279996 -8.91005,-27.649996 -2.83,-2.33 -6.04,-2.04 -8.36,0.74 l -49.09,58.509996 -49.09,-58.509996 c -2.33,-2.78 -5.53,-3.06 -8.36,-0.74 -6.61,5.37 -12.95,15.949996 -8.91,27.649996 1.32,3.81 3.66,6.79 5.76,9.29 2.73,3.25 5.84,6.96 14.94,17.81 l 24.72,29.46 c 0,0 -36.94,44.02 -39.67,47.27 -2.1,2.5 -4.44,5.48 -5.76,9.29 -4.04,11.7 2.3,22.28 8.91,27.65 2.83,2.33 6.04,2.04 8.36,-0.74 l 49.09,-58.51 49.09,58.51 c 2.33,2.78 5.53,3.06 8.36,0.74 6.61,-5.37 12.95005,-15.95 8.91005,-27.65 -1.3,-3.82 -3.65005,-6.8 -5.74005,-9.29 z m -154.44,-127.529996 c 0,-3.63 -2.27,-5.9 -5.93,-5.94 -8.51,-0.13 -20.17,3.9 -24.6,15.449996 -1.44,3.76 -1.56,7.55 -1.56,10.81 v 139.75 c 0,3.63 2.27,5.9 5.93,5.94 8.51,0.13 20.17,-3.9 24.6,-15.45 1.44,-3.76 1.56,-7.55 1.56,-10.81 z M 1066.2607,221.46006 c 0,-3.63 -2.27,-5.9 -5.93,-5.94 -8.51,-0.13 -20.17,3.9 -24.6,15.45 -1.44,3.76 -1.56,7.55 -1.56,10.81 v 9.17 c 0,3.63 2.27,5.9 5.93,5.94 8.51,0.13 20.17,-3.9 24.6,-15.45 1.44,-3.76 1.56,-7.55 1.56,-10.81 z"
   id="path1" />
</svg>
