<?xml version="1.0" encoding="utf-8"?>
<!-- Generator: Adobe Illustrator 22.1.0, SVG Export Plug-In . SVG Version: 6.00 Build 0)  -->
<svg version="1.1" id="Capa_1" xmlns="http://www.w3.org/2000/svg" xmlns:xlink="http://www.w3.org/1999/xlink" x="0px" y="0px"
	 viewBox="0 0 388 83" style="enable-background:new 0 0 388 83;" xml:space="preserve">
<style type="text/css">
	.st0{fill:#F78B00;}
	.st1{fill:#ED5505;}
	.st2{fill:#00285F;}
</style>
<g>
	<polygon class="st0" points="50.2,60.2 90.2,60.2 90.2,1 	"/>
	<polygon class="st1" points="0.6,0 0.6,60.2 90.2,0 	"/>
	<path class="st2" d="M381,2.3c3.5,0,6.4,2.8,6.4,6.4c0,3.5-2.9,6.3-6.4,6.3s-6.4-2.8-6.4-6.3C374.7,5.1,377.5,2.3,381,2.3 M381,14
		c3,0,5.4-2.4,5.4-5.4S384,3.2,381,3.2s-5.4,2.4-5.4,5.4C375.7,11.6,378.1,14,381,14 M378.5,5h2.5c1.3,0,2.7,0.6,2.7,2.1
		c0,1-0.6,1.7-1.7,1.9l1.9,3.1h-1.6l-1.7-3h-0.9v3h-1.3V5H378.5z M380.9,8.2c0.7,0,1.6-0.2,1.6-1.1c0-0.8-0.8-1-1.4-1h-1.2v2h1V8.2z
		 M365.5,51.5c-5,0-7.4-2.5-7.4-7.7V23.6h9.7v-8.7h-9.7V2.3h-9.9v41.4c0,10.5,6,16.8,15.7,16.8c2,0,4-0.3,4-0.3v-8.8
		C366.7,51.5,366,51.5,365.5,51.5 M337,20.2c-4.1-4.3-9.7-6.3-15.6-6.3c-12.5,0-22.1,10.4-22.1,23.5c0,13.2,9.4,23.3,22.4,23.3
		c6.8,0,13.7-3.5,17.9-8.9l-7.7-5.4c-2.5,3.5-6.8,5.3-10.2,5.3c-5.3,0-10.7-3.8-12-10.3h33.2C342.8,41.2,345.9,29.4,337,20.2
		 M309.8,33c0.4-2.7,3.6-10.2,11.7-10.2c7.8,0,11.3,7.2,11.6,10.2H309.8z M284.4,14.8v4.1c-3.5-3.4-8.3-5.1-13.1-5.1
		c-12.7,0-22.6,10.1-22.6,23.3c0,13.3,9.9,23.4,22.6,23.4c4.6,0,9.3-1.7,12.8-4.9c0,0,2,17.1-13.1,17.1c-6.4,0-10.8-4.6-12.9-8
		l-7.9,5.6C254.1,77.6,262.3,82,271,82c5.8,0,11.5-1.7,15.6-5.2c4.8-4.2,7.4-10.1,7.4-18v-44C294,14.8,284.4,14.8,284.4,14.8z
		 M271.3,51.4c-7.1,0-12.7-6.3-12.7-14.4c0-7.8,5.7-14.1,12.7-14.1s12.8,6.5,12.8,14.1C284.1,45,278.4,51.4,271.3,51.4 M220.5,60.5
		c-12.7,0-22.6-10.1-22.6-23.3c0-13.3,9.9-23.4,22.6-23.4c4.6,0,9.3,1.7,12.8,4.9V0h9.9v59.6h-9.6v-4.2
		C230.1,58.8,225.3,60.5,220.5,60.5 M220.5,23c-7.1,0-12.7,6.3-12.7,14.3c0,7.8,5.7,14.1,12.7,14.1s12.8-6.5,12.8-14.1
		C233.4,29.4,227.6,23,220.5,23 M193,37.9V14.8h-9.9v23.1c0,8.2-4.2,13.5-10.8,13.5s-10.8-5.3-10.8-13.5V14.8h-9.9v23.1
		c0,13.8,9.2,22.6,20.7,22.6C183.9,60.5,193,51.7,193,37.9 M105.2,60.2V0h20.9c8.1,0,18,4.3,18,15.6c0,6.8-3.2,11.1-6,12.7
		c7.7,2.9,9.2,10.2,9.2,14.5c0,9.6-7.9,17.4-20.6,17.4H105.2z M125.5,51.2c2.6,0,4.6-0.3,6.2-0.9c3.2-1.5,5.2-4.1,5.2-8
		c0-3.7-2.1-6.5-5.3-7.9c-2.3-1-4.2-1-7-1h-9.4v17.8H125.5z M123.9,24.7c1.8,0,4.8-0.1,6.5-0.9c2.6-1.4,3.4-3.7,3.4-7.1
		c0-3.7-2.2-5.8-4.1-6.7c-1.4-0.7-3.2-1-6.1-1h-8.4v15.7H123.9z"/>
</g>
</svg>
