<?xml version="1.0" encoding="UTF-8"?>
<svg xmlns="http://www.w3.org/2000/svg" width="791" height="213" viewBox="0 0 791 213" fill="none">
  <g clip-path="url(#clip0_1307_467)">
    <path d="M195.171 208.928H0V14.5181H194.307V55.7279H45.9564V92.2904H185.922V131.156H45.9564V167.718H195.171V208.928Z" fill="black"></path>
    <path d="M305.499 208.928H258.227L197.925 62.9663H246.923L282.027 152.912L316.803 62.9663H365.842L305.499 208.928Z" fill="black"></path>
    <path d="M587.896 0H541.487V208.928H587.896V0Z" fill="black"></path>
    <path d="M728.355 208.928L664.846 135.803H654.693V208.928H606.846V14.5181H654.693V91.7146H661.64L727.779 14.5181H785.204L702.54 111.991L791 208.928H728.355Z" fill="black"></path>
    <path d="M467.045 163.236C473.992 156.162 477.486 147.114 477.486 136.091C477.486 125.069 473.951 116.021 466.88 108.947C459.81 101.873 451.671 98.3363 442.381 98.3363C433.091 98.3363 424.295 101.873 417.142 108.947C409.99 116.021 406.414 125.069 406.414 136.091C406.414 147.114 409.949 156.162 417.019 163.236C424.089 170.31 432.516 173.847 442.381 173.847C452.247 173.847 460.057 170.31 467.045 163.236ZM498.943 80.9393C514.399 95.2517 522.127 113.636 522.127 136.091C522.127 158.547 514.399 177.178 498.943 191.532C483.487 205.844 464.62 213 442.381 213C420.143 213 400.659 205.844 385.121 191.532C369.542 177.219 361.773 158.753 361.773 136.091C361.773 113.43 369.542 95.2929 385.121 80.9393C400.7 66.6269 419.773 59.4707 442.381 59.4707C464.99 59.4707 483.487 66.6269 498.943 80.9393Z" fill="black"></path>
  </g>
  <defs>
    <clipPath id="clip0_1307_467">
      <rect width="791" height="213" fill="white"></rect>
    </clipPath>
  </defs>
</svg>
