<?xml version="1.0" encoding="UTF-8"?>
<svg id="Camada_2" data-name="Camada 2" xmlns="http://www.w3.org/2000/svg" xmlns:xlink="http://www.w3.org/1999/xlink" viewBox="0 0 755.78 198.27">
  <defs>
    <style>
      .cls-1 {
        fill: url(#Gradiente_sem_nome_3-7);
      }

      .cls-2 {
        fill: url(#Gradiente_sem_nome_3-12);
      }

      .cls-3 {
        fill: url(#Gradiente_sem_nome_15-2);
      }

      .cls-4 {
        fill: url(#Gradiente_sem_nome_3-11);
      }

      .cls-5 {
        fill: url(#Gradiente_sem_nome_15);
      }

      .cls-6 {
        fill: url(#Gradiente_sem_nome_3-2);
      }

      .cls-6, .cls-7, .cls-8, .cls-9, .cls-10 {
        fill-rule: evenodd;
      }

      .cls-7 {
        fill: url(#Gradiente_sem_nome_3-4);
      }

      .cls-11 {
        fill: url(#Gradiente_sem_nome_3-9);
      }

      .cls-12 {
        fill: url(#Gradiente_sem_nome_8-2);
      }

      .cls-13 {
        fill: url(#Gradiente_sem_nome_3-8);
      }

      .cls-8 {
        fill: url(#Gradiente_sem_nome_3);
      }

      .cls-9 {
        fill: url(#Gradiente_sem_nome_3-5);
      }

      .cls-14 {
        fill: url(#Gradiente_sem_nome_3-10);
      }

      .cls-15 {
        fill: url(#Gradiente_sem_nome_8);
      }

      .cls-16 {
        fill: url(#Gradiente_sem_nome_3-13);
      }

      .cls-10 {
        fill: url(#Gradiente_sem_nome_3-3);
      }

      .cls-17 {
        fill: url(#Gradiente_sem_nome_3-6);
      }
    </style>
    <linearGradient id="Gradiente_sem_nome_3" data-name="Gradiente sem nome 3" x1="201.16" y1="78.49" x2="402.05" y2="78.49" gradientUnits="userSpaceOnUse">
      <stop offset="0" stop-color="#1f50d6"/>
      <stop offset="1" stop-color="#1131a8"/>
    </linearGradient>
    <linearGradient id="Gradiente_sem_nome_3-2" data-name="Gradiente sem nome 3" x1="201.16" y1="151.64" x2="356.82" y2="151.64" xlink:href="#Gradiente_sem_nome_3"/>
    <linearGradient id="Gradiente_sem_nome_3-3" data-name="Gradiente sem nome 3" x1="357.87" y1="149.03" x2="401.69" y2="149.03" xlink:href="#Gradiente_sem_nome_3"/>
    <linearGradient id="Gradiente_sem_nome_3-4" data-name="Gradiente sem nome 3" x1="0" y1="154.54" x2="177.49" y2="154.54" xlink:href="#Gradiente_sem_nome_3"/>
    <linearGradient id="Gradiente_sem_nome_3-5" data-name="Gradiente sem nome 3" x1="9.57" y1="92.59" x2="189.51" y2="92.59" xlink:href="#Gradiente_sem_nome_3"/>
    <linearGradient id="Gradiente_sem_nome_3-6" data-name="Gradiente sem nome 3" x1="639.94" y1="172.59" x2="661.88" y2="172.59" xlink:href="#Gradiente_sem_nome_3"/>
    <linearGradient id="Gradiente_sem_nome_3-7" data-name="Gradiente sem nome 3" x1="665.66" y1="172.23" x2="687.05" y2="172.23" xlink:href="#Gradiente_sem_nome_3"/>
    <linearGradient id="Gradiente_sem_nome_3-8" data-name="Gradiente sem nome 3" x1="690.71" y1="172.49" x2="714.44" y2="172.49" xlink:href="#Gradiente_sem_nome_3"/>
    <linearGradient id="Gradiente_sem_nome_3-9" data-name="Gradiente sem nome 3" x1="717.25" y1="172.47" x2="739.03" y2="172.47" xlink:href="#Gradiente_sem_nome_3"/>
    <linearGradient id="Gradiente_sem_nome_3-10" data-name="Gradiente sem nome 3" x1="464.38" y1="99.14" x2="470.9" y2="99.14" xlink:href="#Gradiente_sem_nome_3"/>
    <linearGradient id="Gradiente_sem_nome_3-11" data-name="Gradiente sem nome 3" x1="531.61" y1="95.89" x2="742.97" y2="95.89" xlink:href="#Gradiente_sem_nome_3"/>
    <linearGradient id="Gradiente_sem_nome_8" data-name="Gradiente sem nome 8" x1="518.13" y1="101.96" x2="566.81" y2="101.96" gradientUnits="userSpaceOnUse">
      <stop offset="0" stop-color="#fba415"/>
      <stop offset="1" stop-color="#fa9f1a"/>
    </linearGradient>
    <linearGradient id="Gradiente_sem_nome_15" data-name="Gradiente sem nome 15" x1="582.27" y1="165.21" x2="605.94" y2="165.21" gradientUnits="userSpaceOnUse">
      <stop offset="0" stop-color="#03723c"/>
      <stop offset="1" stop-color="#00bf7d"/>
    </linearGradient>
    <linearGradient id="Gradiente_sem_nome_15-2" data-name="Gradiente sem nome 15" x1="651.98" y1="38.07" x2="695.61" y2="38.07" xlink:href="#Gradiente_sem_nome_15"/>
    <linearGradient id="Gradiente_sem_nome_8-2" data-name="Gradiente sem nome 8" x1="709.71" y1="105.43" x2="755.78" y2="105.43" xlink:href="#Gradiente_sem_nome_8"/>
    <linearGradient id="Gradiente_sem_nome_3-12" data-name="Gradiente sem nome 3" x1="656.18" y1="68.73" x2="754.59" y2="68.73" xlink:href="#Gradiente_sem_nome_3"/>
    <linearGradient id="Gradiente_sem_nome_3-13" data-name="Gradiente sem nome 3" x1="517.38" y1="140.15" x2="601.53" y2="140.15" xlink:href="#Gradiente_sem_nome_3"/>
  </defs>
  <g id="Camada_1-2" data-name="Camada 1">
    <g>
      <g>
        <g>
          <path class="cls-8" d="M270.36,44.05c0,1.23-.21,2.88-.63,4.95-.42,2.07-.95,3.73-1.58,4.98-.64,1.25-1.35,1.88-2.14,1.88-.57,0-1.25-.36-2.04-1.09-.79-.73-1.83-1.51-3.1-2.34-1.28-.84-2.9-1.62-4.88-2.34-1.98-.73-4.44-1.09-7.39-1.09-3.25,0-6.22.65-8.91,1.95-2.68,1.3-5.08,3.01-7.19,5.15-2.11,2.13-3.96,4.59-5.54,7.36-1.58,2.77-2.89,5.65-3.93,8.64-1.03,2.99-1.8,5.97-2.31,8.94-.51,2.97-.76,5.73-.76,8.28,0,3.08.38,5.78,1.16,8.12.77,2.33,1.88,4.27,3.33,5.81,1.45,1.54,3.23,2.69,5.34,3.46,2.11.77,4.49,1.15,7.13,1.15,3.12,0,5.8-.33,8.02-.99,2.22-.66,4.11-1.39,5.67-2.18,1.56-.79,2.86-1.52,3.89-2.18,1.03-.66,1.97-.99,2.8-.99.57,0,.96.21,1.16.63.2.42.3,1,.3,1.75,0,.31-.04.77-.13,1.39-.09.62-.2,1.31-.33,2.08-.13.77-.29,1.61-.46,2.51-.18.9-.37,1.74-.59,2.51-.22.77-.47,1.47-.76,2.11-.29.64-.67,1.2-1.15,1.68-.48.48-1.43,1.11-2.84,1.88-1.41.77-3.12,1.49-5.15,2.14-2.02.66-4.31,1.22-6.86,1.68-2.55.46-5.28.69-8.18.69-4.79,0-9.11-.64-12.96-1.91-3.85-1.28-7.11-3.21-9.8-5.81-2.68-2.59-4.75-5.85-6.2-9.76-1.45-3.91-2.18-8.49-2.18-13.72,0-4.09.42-8.35,1.25-12.77.84-4.42,2.1-8.74,3.79-12.96,1.69-4.22,3.84-8.22,6.43-12.01,2.59-3.78,5.66-7.09,9.2-9.93,3.54-2.84,7.57-5.09,12.07-6.76,4.51-1.67,9.51-2.51,15.01-2.51,3.08,0,5.99.32,8.74.96,2.75.64,5.15,1.48,7.19,2.54,2.05,1.06,3.48,2.01,4.29,2.87.81.86,1.22,1.95,1.22,3.27h0ZM348.68,66.68c0-5.06-.76-9.51-2.28-13.36-1.52-3.85-3.81-7.07-6.86-9.67-3.06-2.6-6.86-4.55-11.41-5.87-4.55-1.32-10.22-1.98-16.99-1.98h-20.59c-1.63,0-3.04.43-4.22,1.29-1.19.86-1.96,2.25-2.31,4.19l-14.91,74.42c-.22,1.06-.25,1.94-.1,2.64.15.7.44,1.26.86,1.68.42.42.95.72,1.58.89.64.18,1.31.26,2.01.26h21.71c6.03,0,11.22-.48,15.57-1.45,4.35-.97,8.27-2.32,11.74-4.06,3.47-1.74,6.54-3.79,9.2-6.17,2.66-2.38,4.96-4.94,6.89-7.69,1.94-2.75,3.55-5.63,4.85-8.64,1.3-3.01,2.33-6.05,3.1-9.1.77-3.06,1.32-6.06,1.65-9.01.33-2.95.49-5.74.49-8.38h0ZM330.47,68.72c0,2.81-.24,5.72-.73,8.71-.48,2.99-1.27,5.92-2.34,8.78-1.08,2.86-2.46,5.57-4.16,8.15-1.69,2.57-3.74,4.84-6.14,6.8-2.4,1.96-5.17,3.5-8.31,4.62-3.14,1.12-7.03,1.68-11.64,1.68h-9.11l11.68-58.06h9.04c4.4,0,7.91.48,10.52,1.45,2.62.97,4.76,2.31,6.43,4.02,1.67,1.72,2.88,3.76,3.63,6.14.75,2.38,1.12,4.95,1.12,7.72h0ZM402.05,109.5c0,.31-.03.8-.1,1.48-.07.68-.18,1.46-.33,2.34-.15.88-.35,1.78-.59,2.7-.24.92-.53,1.77-.86,2.54-.33.77-.71,1.4-1.15,1.88-.44.48-.95.73-1.52.73h-39.12c-.7,0-1.35-.1-1.95-.3-.59-.2-1.08-.53-1.45-.99-.37-.46-.63-1.03-.76-1.72-.13-.68-.11-1.51.07-2.47l15.57-77.59c.04-.44.24-.84.59-1.19s.89-.64,1.62-.86c.73-.22,1.65-.38,2.77-.49,1.12-.11,2.54-.16,4.26-.16s3.06.05,4.16.16c1.1.11,1.96.28,2.57.49.62.22,1.02.51,1.22.86.2.35.25.75.16,1.19l-13.72,68.75h26.92c.62,0,1.05.24,1.29.73.24.48.36,1.12.36,1.91Z"/>
          <g>
            <path class="cls-6" d="M216.03,142.14c0,.26-.04.62-.14,1.07-.09.45-.2.8-.34,1.07-.14.27-.29.41-.46.41-.13,0-.27-.08-.44-.24-.17-.15-.39-.32-.67-.5-.27-.18-.62-.35-1.05-.5-.43-.16-.96-.24-1.59-.24-.7,0-1.34.14-1.92.42-.58.28-1.09.65-1.54,1.11-.46.46-.85.98-1.19,1.58-.34.6-.62,1.21-.85,1.85-.22.64-.39,1.28-.49,1.92-.11.63-.16,1.23-.16,1.78,0,.66.08,1.24.25,1.74.17.5.41.92.72,1.24.31.33.7.58,1.15.75.45.16.96.25,1.53.25.67,0,1.24-.07,1.72-.21.47-.14.88-.3,1.22-.47.33-.17.61-.33.83-.47.22-.14.43-.21.61-.21.12,0,.2.04.24.14.04.09.06.21.06.38,0,.06,0,.16-.03.3-.02.14-.04.28-.07.45-.03.16-.06.34-.1.54-.04.19-.08.37-.13.54-.05.16-.1.31-.16.45-.06.14-.15.26-.25.36-.11.11-.31.24-.61.41-.3.16-.67.32-1.1.46-.44.14-.93.27-1.48.36-.55.1-1.13.15-1.76.15-1.03,0-1.96-.14-2.78-.41-.83-.28-1.53-.69-2.11-1.25-.58-.56-1.02-1.25-1.33-2.1-.31-.84-.47-1.83-.47-2.95,0-.88.09-1.79.27-2.75.18-.95.45-1.88.81-2.78.36-.91.82-1.77,1.38-2.58.56-.81,1.22-1.53,1.98-2.14.76-.61,1.63-1.09,2.6-1.45.97-.36,2.04-.54,3.22-.54.66,0,1.29.07,1.88.21.59.14,1.11.32,1.54.55.44.23.75.43.92.61.17.18.26.42.26.71h0ZM227.17,158.25l2.53-12.7c.02-.09,0-.17-.03-.25-.04-.07-.11-.13-.22-.17-.11-.04-.26-.08-.45-.1-.18-.02-.42-.03-.7-.03-.58,0-1,.04-1.26.13-.26.09-.41.23-.45.43l-.23,1.12c-.45-.62-.98-1.09-1.58-1.42-.61-.32-1.3-.49-2.08-.49-.84,0-1.6.15-2.27.45-.67.3-1.26.7-1.77,1.2-.52.5-.96,1.08-1.33,1.72-.37.65-.67,1.32-.91,2.02-.24.7-.41,1.4-.53,2.11-.11.7-.17,1.35-.17,1.95,0,.63.06,1.24.19,1.82.13.58.34,1.09.64,1.54.3.45.71.8,1.21,1.07.5.27,1.13.4,1.89.4.55,0,1.08-.09,1.6-.27.52-.18.99-.4,1.41-.68.42-.27.79-.58,1.1-.91.31-.33.54-.65.68-.96l-.4,2.03c-.02.1,0,.19.02.26.03.07.11.13.22.17.11.04.26.07.45.09.18.02.42.03.71.03.58,0,1-.04,1.26-.13.26-.09.41-.23.45-.43h0ZM225.4,149.36l-.38,1.92c-.13.65-.34,1.26-.63,1.84-.29.57-.62,1.08-1,1.51-.38.43-.79.77-1.22,1.02-.44.25-.86.38-1.28.38-.3,0-.54-.06-.73-.18-.19-.12-.35-.27-.46-.47-.11-.2-.19-.43-.24-.68-.04-.25-.06-.52-.06-.8,0-.39.03-.81.09-1.27.06-.46.16-.91.29-1.36.13-.45.29-.88.48-1.3.19-.41.42-.78.68-1.09.26-.31.55-.57.89-.76.33-.19.7-.28,1.1-.28.53,0,.99.13,1.39.39.4.26.76.64,1.09,1.15h0ZM250.62,158.23c-.02.09-.06.17-.14.25s-.18.13-.34.18c-.15.04-.35.08-.58.11-.24.02-.53.03-.89.03-.33,0-.61,0-.84-.03-.22-.02-.39-.06-.51-.11-.12-.05-.2-.11-.25-.18-.04-.07-.05-.15-.02-.25l1.48-7.6c.04-.22.07-.44.1-.65.03-.21.04-.43.04-.64,0-.45-.08-.81-.25-1.08-.16-.28-.46-.41-.88-.41-.38,0-.77.12-1.17.37-.41.25-.79.58-1.17,1s-.7.92-.99,1.48c-.29.56-.49,1.16-.62,1.8l-1.16,5.74c-.02.09-.06.17-.14.25-.07.07-.18.13-.33.18-.15.04-.34.08-.58.11-.23.02-.52.03-.87.03s-.62,0-.84-.03c-.22-.02-.39-.06-.52-.11-.12-.05-.2-.11-.25-.18-.04-.07-.05-.15-.03-.25l1.51-7.6c.06-.22.1-.45.12-.68.02-.23.03-.46.03-.67,0-.42-.08-.76-.26-1.03-.17-.27-.46-.41-.89-.41-.38,0-.77.12-1.18.37-.41.25-.8.58-1.17,1-.37.42-.71.92-.99,1.48-.29.56-.49,1.16-.62,1.8l-1.14,5.74c-.02.09-.06.17-.14.25-.07.07-.18.13-.33.18-.15.04-.34.08-.58.11-.24.02-.53.03-.87.03s-.63,0-.85-.03c-.22-.02-.39-.06-.52-.11-.13-.05-.21-.11-.25-.18-.04-.07-.05-.15-.03-.25l2.53-12.68c.02-.09.06-.17.12-.25.06-.07.15-.13.29-.17.13-.04.29-.08.49-.1.2-.02.45-.03.73-.03s.53,0,.72.03c.18.02.33.06.44.1.1.04.17.1.2.17.03.07.04.16.02.25l-.41,2.09c.2-.33.46-.67.79-1.01.33-.34.7-.65,1.12-.92.42-.28.88-.5,1.37-.67.5-.17,1.01-.26,1.54-.26s1.03.07,1.43.22c.4.15.73.35.99.61.26.26.46.56.6.91.14.35.22.73.26,1.13.22-.34.49-.68.83-1.02.33-.34.71-.65,1.13-.92.42-.28.88-.5,1.37-.67.49-.17,1-.26,1.52-.26.66,0,1.22.09,1.67.28.45.18.81.44,1.08.76.28.32.47.71.6,1.15.12.44.18.92.18,1.43,0,.33-.02.66-.06,1-.03.33-.09.68-.17,1.03l-1.53,7.82h0ZM268.06,149.59c0,.62-.06,1.27-.17,1.99-.12.71-.29,1.41-.53,2.11-.23.7-.54,1.38-.91,2.02-.37.65-.81,1.22-1.33,1.71-.51.49-1.1.89-1.77,1.18-.67.3-1.41.44-2.25.44-.38,0-.73-.04-1.06-.11-.33-.08-.63-.18-.91-.32-.28-.14-.53-.3-.76-.48-.22-.18-.42-.38-.59-.59l-1.14,5.71c-.02.1-.07.18-.14.26-.07.07-.18.14-.33.19-.15.05-.34.09-.58.12-.24.03-.53.04-.88.04s-.63-.01-.85-.04c-.22-.03-.39-.07-.52-.12-.13-.05-.21-.12-.25-.19-.04-.08-.05-.16-.03-.26l3.54-17.69c.04-.2.18-.34.44-.43.26-.08.68-.13,1.26-.13.29,0,.53,0,.72.03.18.02.33.06.44.1.11.04.18.1.22.17.04.07.05.16.03.25l-.4,2.07c.14-.31.36-.64.67-.97.31-.33.67-.64,1.1-.92.43-.28.91-.51,1.42-.69.51-.18,1.05-.27,1.59-.27.73,0,1.34.13,1.84.38.49.25.9.59,1.21,1.03.3.44.53.94.67,1.53.14.59.2,1.22.2,1.89h0ZM264.4,149.9c0-.32-.02-.61-.08-.88-.05-.27-.14-.49-.26-.67-.12-.18-.28-.32-.46-.42-.18-.09-.41-.14-.68-.14-.43,0-.86.13-1.28.38-.43.25-.84.59-1.22,1.02-.38.43-.71.93-1.01,1.51-.29.57-.5,1.18-.62,1.83l-.39,1.93c.33.52.69.91,1.09,1.17.4.26.86.39,1.39.39.39,0,.75-.1,1.08-.29.32-.19.62-.44.88-.76.26-.32.49-.68.68-1.1.19-.42.36-.85.48-1.3.13-.45.22-.91.29-1.37.06-.46.09-.89.09-1.3h0ZM276.68,141.3c-.07.35-.16.64-.27.89-.12.24-.27.44-.46.58-.19.15-.42.25-.7.31-.28.06-.62.09-1.03.09s-.72-.03-.97-.09c-.25-.06-.44-.16-.56-.31-.13-.15-.2-.34-.22-.58-.01-.24,0-.54.09-.89.07-.34.15-.63.27-.87.12-.24.27-.43.46-.58.19-.15.42-.26.69-.32.27-.07.61-.1,1.02-.1s.73.03.98.1c.26.06.45.17.58.32.13.15.2.34.21.58.01.24,0,.53-.08.87h0ZM273.01,158.23c-.02.09-.06.17-.14.25-.07.07-.18.13-.33.18-.15.04-.34.08-.58.11-.24.02-.53.03-.87.03s-.63,0-.85-.03c-.22-.02-.39-.06-.52-.11-.13-.05-.21-.11-.25-.18-.04-.07-.05-.15-.03-.25l2.5-12.64c.02-.09.06-.17.14-.25.07-.07.18-.14.32-.18.15-.05.34-.09.57-.12.23-.03.52-.04.88-.04s.63.01.86.04c.22.03.4.07.53.12.13.05.21.11.25.18.04.07.05.16.03.25l-2.5,12.64h0ZM290.18,148.4c0,.33-.02.66-.06.99-.04.33-.1.67-.16,1.02l-1.55,7.82c-.02.09-.06.17-.14.25-.07.07-.18.13-.33.18-.15.04-.34.08-.58.11-.23.02-.53.03-.88.03s-.63,0-.85-.03c-.22-.02-.39-.06-.51-.11-.12-.05-.2-.11-.25-.18-.04-.07-.05-.15-.03-.25l1.51-7.6c.05-.23.08-.46.11-.7.02-.24.03-.45.03-.62,0-.43-.09-.78-.27-1.06-.18-.28-.48-.41-.91-.41-.39,0-.79.12-1.21.37-.42.25-.82.58-1.19,1s-.71.92-1,1.48c-.29.56-.5,1.16-.62,1.8l-1.14,5.74c-.02.09-.06.17-.14.25-.07.07-.18.13-.33.18-.15.04-.34.08-.58.11-.24.02-.53.03-.87.03s-.63,0-.85-.03c-.22-.02-.39-.06-.52-.11-.13-.05-.21-.11-.25-.18-.04-.07-.05-.15-.03-.25l2.53-12.68c.02-.09.06-.17.12-.25.06-.07.16-.13.29-.17.13-.04.29-.08.49-.1.2-.02.45-.03.73-.03s.53,0,.72.03c.18.02.33.06.44.1.1.04.17.1.2.17.03.07.04.16.02.25l-.41,2.09c.2-.33.46-.67.79-1.01.33-.34.71-.65,1.14-.92.43-.28.9-.5,1.4-.67.5-.17,1.03-.26,1.58-.26.66,0,1.22.1,1.67.29.45.19.81.45,1.09.79.28.33.48.72.61,1.15.12.44.18.91.18,1.4h0ZM303.64,158.25c-.04.2-.19.34-.45.43-.26.08-.68.13-1.26.13-.29,0-.53,0-.71-.03-.18-.02-.33-.05-.45-.09-.12-.04-.19-.1-.22-.17-.03-.07-.04-.16-.02-.26l.4-2.03c-.15.31-.37.62-.68.96-.31.33-.68.64-1.1.91-.43.28-.9.5-1.41.68-.51.18-1.05.27-1.6.27-.76,0-1.38-.13-1.89-.4-.5-.27-.91-.62-1.21-1.07-.3-.45-.52-.96-.64-1.54-.13-.58-.19-1.18-.19-1.82,0-.6.06-1.24.17-1.95.12-.71.29-1.41.53-2.11.24-.7.54-1.38.91-2.02.37-.64.81-1.22,1.33-1.72.51-.5,1.1-.9,1.77-1.2.67-.3,1.42-.45,2.27-.45.78,0,1.48.16,2.08.49.61.32,1.13.8,1.58,1.42l.23-1.12c.04-.2.19-.34.45-.43.26-.08.68-.13,1.26-.13.28,0,.52,0,.7.03.19.02.34.06.45.1.11.04.18.1.22.17.04.07.05.16.03.25l-2.53,12.7h0ZM301.87,149.36c-.33-.51-.69-.9-1.09-1.15-.4-.26-.87-.39-1.39-.39-.4,0-.77.09-1.1.28-.33.19-.63.45-.89.76-.26.31-.48.68-.68,1.09-.19.42-.35.85-.48,1.3-.13.45-.22.9-.29,1.36-.06.46-.09.88-.09,1.27,0,.28.02.55.06.8.04.26.13.48.24.68.12.2.27.35.46.47.19.12.44.18.73.18.42,0,.84-.13,1.28-.38.44-.25.84-.59,1.22-1.02.38-.43.71-.93,1-1.51.29-.57.5-1.18.63-1.84l.38-1.92h0ZM331.82,142.3c.01.1.01.22,0,.37-.01.15-.04.31-.07.49-.03.17-.07.35-.12.52-.05.18-.1.34-.17.48-.07.14-.14.26-.22.35-.08.09-.16.14-.25.14-.14,0-.34-.08-.6-.24-.26-.16-.59-.34-.99-.54-.41-.2-.9-.38-1.49-.54-.59-.16-1.28-.24-2.09-.24s-1.54.12-2.22.35c-.68.23-1.29.55-1.84.95-.56.4-1.05.88-1.47,1.42-.42.55-.77,1.13-1.07,1.76-.29.62-.51,1.27-.65,1.95s-.21,1.34-.21,1.99c0,.73.11,1.37.31,1.92.21.55.51,1.01.9,1.38.4.37.87.65,1.43.84.56.19,1.19.29,1.88.29.46,0,.92-.05,1.37-.15.45-.1.87-.24,1.25-.44l.87-4.24h-3.47c-.11,0-.2-.04-.27-.14-.07-.09-.1-.23-.1-.43,0-.1,0-.22.03-.37.02-.15.04-.31.08-.47.03-.16.07-.33.12-.5.05-.17.11-.32.18-.45.07-.14.15-.24.24-.33.08-.08.18-.13.29-.13h6.17c.31,0,.53.1.66.3.14.2.16.49.09.88l-1.46,7.35c-.04.18-.09.33-.14.46-.06.13-.14.24-.23.35-.1.11-.34.25-.72.4-.38.16-.84.31-1.38.46-.54.15-1.15.28-1.82.38-.67.1-1.36.15-2.05.15-1.32,0-2.47-.15-3.48-.45-1.01-.3-1.84-.76-2.52-1.36-.68-.6-1.19-1.34-1.54-2.21-.35-.87-.53-1.87-.53-3.01,0-1.02.11-2.02.33-3.01.22-.99.55-1.92.99-2.81.44-.88.99-1.7,1.64-2.45.65-.75,1.4-1.4,2.26-1.95.86-.55,1.81-.98,2.86-1.29,1.05-.31,2.2-.46,3.45-.46.69,0,1.34.05,1.95.16.61.11,1.16.24,1.65.4.48.15.89.32,1.22.5.33.18.55.32.66.42.11.1.18.21.22.33.04.13.06.28.06.46h0ZM342.8,145.38c0,.06,0,.18-.03.35-.02.17-.05.37-.08.6-.04.22-.09.46-.15.7-.06.24-.12.46-.19.67-.07.21-.15.38-.24.51-.09.13-.19.19-.29.19-.09,0-.17-.01-.26-.05-.09-.03-.18-.06-.29-.1-.1-.03-.22-.07-.34-.1-.13-.03-.27-.05-.43-.05-.32,0-.66.12-1.03.37-.36.25-.71.57-1.04.97-.33.4-.62.87-.88,1.4-.26.54-.45,1.1-.56,1.69l-1.14,5.69c-.02.09-.06.17-.14.25-.07.07-.18.13-.33.18-.15.04-.34.08-.58.11-.24.02-.53.03-.87.03s-.63,0-.85-.03c-.22-.02-.39-.06-.52-.11-.13-.05-.21-.11-.25-.18-.04-.07-.05-.15-.03-.25l2.53-12.68c.02-.09.06-.17.13-.25.07-.07.16-.13.29-.17.13-.04.29-.08.49-.1.2-.02.45-.03.73-.03.3,0,.53,0,.72.03.18.02.33.06.43.1.11.04.17.1.21.17.03.07.04.16.02.25l-.38,2.02c.23-.41.49-.78.78-1.12.3-.34.61-.63.95-.89.33-.25.68-.45,1.04-.59.36-.14.71-.21,1.06-.21.14,0,.29,0,.43.03.15.02.29.04.41.07.13.03.24.07.34.11.1.04.18.09.23.14.06.06.09.15.09.27h0ZM354.28,158.25c-.04.2-.19.34-.45.43-.26.08-.68.13-1.26.13-.29,0-.53,0-.71-.03-.18-.02-.33-.05-.45-.09-.12-.04-.19-.1-.22-.17-.03-.07-.04-.16-.02-.26l.4-2.03c-.14.31-.37.62-.68.96-.31.33-.68.64-1.1.91-.43.28-.9.5-1.41.68-.51.18-1.05.27-1.6.27-.76,0-1.38-.13-1.89-.4-.5-.27-.91-.62-1.21-1.07-.3-.45-.52-.96-.64-1.54-.13-.58-.19-1.18-.19-1.82,0-.6.06-1.24.17-1.95.12-.71.29-1.41.53-2.11.24-.7.54-1.38.91-2.02.37-.64.81-1.22,1.33-1.72.51-.5,1.1-.9,1.77-1.2.67-.3,1.42-.45,2.27-.45.78,0,1.48.16,2.08.49.61.32,1.13.8,1.58,1.42l.23-1.12c.04-.2.19-.34.45-.43.26-.08.68-.13,1.26-.13.28,0,.52,0,.7.03.19.02.34.06.45.1.11.04.18.1.22.17.04.07.05.16.03.25l-2.53,12.7h0ZM352.51,149.36c-.33-.51-.69-.9-1.09-1.15-.4-.26-.87-.39-1.39-.39-.4,0-.77.09-1.1.28-.33.19-.63.45-.89.76-.26.31-.48.68-.68,1.09-.19.42-.35.85-.48,1.3-.13.45-.22.9-.29,1.36-.06.46-.09.88-.09,1.27,0,.28.02.55.06.8.04.26.13.48.24.68.12.2.27.35.46.47.19.12.44.18.73.18.42,0,.84-.13,1.28-.38.44-.25.84-.59,1.22-1.02.38-.43.71-.93,1-1.51.29-.57.5-1.18.63-1.84l.38-1.92Z"/>
            <path class="cls-10" d="M371.47,148.4c0,.33-.02.66-.06.99-.04.33-.1.67-.16,1.02l-1.55,7.82c-.02.09-.06.17-.14.25-.07.07-.18.13-.33.18-.15.04-.34.08-.58.11-.23.02-.53.03-.88.03s-.62,0-.85-.03c-.22-.02-.39-.06-.51-.11-.12-.05-.2-.11-.25-.18-.04-.07-.05-.15-.03-.25l1.51-7.6c.05-.23.08-.46.11-.7.02-.24.03-.45.03-.62,0-.43-.09-.78-.27-1.06-.18-.28-.48-.41-.91-.41-.39,0-.79.12-1.21.37-.42.25-.82.58-1.19,1-.37.42-.71.92-1,1.48-.29.56-.5,1.16-.62,1.8l-1.14,5.74c-.02.09-.06.17-.14.25-.07.07-.18.13-.33.18-.15.04-.34.08-.58.11-.24.02-.53.03-.87.03s-.63,0-.85-.03c-.22-.02-.39-.06-.52-.11-.13-.05-.21-.11-.25-.18-.04-.07-.05-.15-.03-.25l2.53-12.68c.02-.09.06-.17.12-.25.06-.07.15-.13.29-.17.13-.04.29-.08.49-.1.2-.02.45-.03.73-.03s.53,0,.72.03c.18.02.33.06.44.1.1.04.17.1.2.17.03.07.04.16.02.25l-.41,2.09c.2-.33.46-.67.79-1.01.33-.34.71-.65,1.14-.92.43-.28.9-.5,1.4-.67.5-.17,1.03-.26,1.58-.26.66,0,1.22.1,1.67.29.45.19.81.45,1.09.79.28.33.48.72.61,1.15.12.44.18.91.18,1.4h0ZM384.96,158.24c-.04.2-.19.34-.45.43-.27.09-.69.13-1.27.13-.29,0-.53,0-.71-.03-.19-.02-.33-.05-.45-.09-.11-.04-.18-.1-.22-.17-.03-.07-.04-.16-.02-.27l.36-2.03c-.14.3-.37.62-.68.96-.31.33-.68.64-1.1.92-.42.28-.89.51-1.4.68s-1.05.26-1.59.26-1.01-.07-1.41-.2c-.4-.14-.75-.32-1.04-.56-.29-.24-.53-.52-.72-.84-.19-.32-.34-.66-.46-1.02-.12-.36-.2-.73-.24-1.11-.05-.38-.07-.76-.07-1.12,0-.61.06-1.28.17-1.98.12-.7.29-1.4.53-2.1.24-.7.55-1.37.92-2.01.37-.64.81-1.21,1.33-1.7.51-.49,1.1-.89,1.77-1.18.67-.3,1.42-.44,2.25-.44.37,0,.72.04,1.06.12.34.08.64.19.93.32.28.14.53.3.76.49.22.19.42.39.58.6l1.33-6.67c.02-.1.06-.18.13-.26.06-.07.17-.14.32-.19.15-.05.34-.09.58-.12.23-.03.52-.04.88-.04s.63.01.85.04c.22.03.39.07.51.12.12.05.2.12.24.19.04.08.05.16.03.26l-3.68,18.61h0ZM383.17,149.38c-.33-.52-.7-.91-1.1-1.17-.4-.26-.87-.39-1.39-.39-.39,0-.75.09-1.08.28-.33.18-.62.43-.88.74-.26.3-.49.66-.69,1.07-.19.41-.35.84-.48,1.29-.13.45-.23.91-.29,1.36-.07.45-.1.88-.1,1.29,0,.72.12,1.25.36,1.62.24.36.62.55,1.14.55.42,0,.85-.13,1.28-.38.44-.25.84-.59,1.22-1,.38-.42.72-.92,1-1.49.29-.57.5-1.18.63-1.83l.38-1.93h0ZM401.69,148.36c0,.68-.15,1.29-.46,1.84-.31.55-.78,1.01-1.43,1.4-.65.39-1.47.69-2.46.9-.99.21-2.18.31-3.56.31h-1.3c-.03.22-.06.43-.08.64-.02.21-.03.41-.03.59,0,.76.2,1.34.59,1.73.4.39,1.03.58,1.91.58.62,0,1.18-.04,1.68-.14.49-.09.93-.19,1.3-.3.38-.11.68-.21.93-.3.25-.09.43-.14.54-.14s.19.03.24.1c.05.07.07.17.07.31,0,.16-.01.34-.04.55-.03.21-.07.42-.12.61-.05.2-.12.4-.2.58-.08.18-.17.31-.28.41-.11.11-.32.23-.62.34-.3.12-.66.22-1.09.31-.43.09-.91.17-1.43.23-.53.06-1.07.09-1.62.09-.91,0-1.7-.1-2.38-.29-.67-.19-1.24-.47-1.69-.86-.45-.39-.79-.88-1.02-1.48-.23-.6-.34-1.31-.34-2.14,0-.63.06-1.31.18-2.03.12-.73.31-1.44.57-2.14.27-.71.61-1.38,1.02-2.02.42-.64.92-1.21,1.51-1.69.6-.48,1.28-.88,2.05-1.17.77-.3,1.66-.44,2.65-.44.86,0,1.6.1,2.21.31.62.2,1.13.47,1.52.81.4.33.69.72.89,1.15.19.43.29.87.29,1.33h0ZM398.18,148.62c0-.38-.14-.69-.44-.94-.3-.25-.72-.38-1.28-.38-.47,0-.9.09-1.27.26-.37.17-.7.4-.98.69s-.53.63-.73,1.02c-.2.4-.36.81-.48,1.26h1.18c.75,0,1.38-.05,1.89-.15.51-.1.92-.23,1.23-.4.31-.17.53-.37.67-.61.14-.23.21-.48.21-.75Z"/>
          </g>
        </g>
        <path class="cls-7" d="M0,170.72h153.31c1.32,0,2.58-.56,3.45-1.55,8.61-9.86,15.52-20.13,20.73-30.82-30.89,17.24-89.93,25.89-173.42,27.08-1.31,1.77-2.66,3.54-4.06,5.29h0Z"/>
        <path class="cls-9" d="M180.99,130.48c-43.1,20.14-101.46,28.19-171.42,27.06,25-38.11,30.07-80.3,13.51-126.9-.53-1.51.6-3.08,2.19-3.08h152.06c14.91,37.67,16.13,71.99,3.66,102.93Z"/>
      </g>
      <g>
        <path class="cls-17" d="M661.88,183.68h-7.46c-.08-.36-.15-.73-.22-1.11-.06-.38-.12-.78-.17-1.19-1.03,1.03-2.12,1.79-3.28,2.28-1.16.49-2.43.74-3.81.74-2.15,0-3.86-.59-5.11-1.78-1.25-1.19-1.88-2.79-1.88-4.8,0-1.85.49-3.35,1.47-4.51.98-1.16,2.46-1.97,4.45-2.44,1.1-.25,2.49-.51,4.17-.8,2.52-.41,3.78-1.01,3.78-1.81v-.53c0-.64-.24-1.13-.73-1.47-.49-.34-1.21-.5-2.17-.5-1.04,0-1.87.21-2.48.64-.61.43-.99,1.05-1.14,1.87h-6.74c.36-2.52,1.4-4.4,3.14-5.63,1.73-1.23,4.2-1.85,7.39-1.85,1.99,0,3.66.24,5.03.72,1.36.48,2.43,1.21,3.2,2.18.53.7.91,1.53,1.13,2.5.22.97.33,2.52.33,4.66v8.47c0,1.01.09,1.81.28,2.4.19.58.46.96.83,1.14v.84ZM653.82,173.15c-.56.36-1.55.69-2.96.99-.69.14-1.21.25-1.56.35-.88.25-1.5.56-1.86.95-.36.38-.54.9-.54,1.54,0,.8.25,1.44.74,1.92.49.49,1.14.73,1.95.73,1.25,0,2.27-.36,3.05-1.08.79-.72,1.18-1.66,1.18-2.83v-2.57Z"/>
        <path class="cls-1" d="M665.66,183.68v-22.35h7.16v3.06c.77-1.22,1.71-2.13,2.82-2.72,1.11-.6,2.43-.89,3.97-.89,2.62,0,4.51.65,5.69,1.96,1.17,1.31,1.76,3.44,1.76,6.41v14.54h-7.32v-11.25c0-2.63-.22-4.31-.66-5.03-.44-.72-1.25-1.08-2.43-1.08-1.29,0-2.23.43-2.82,1.29-.59.86-.88,2.22-.88,4.1v11.97h-7.28Z"/>
        <path class="cls-13" d="M690.71,172.48c0-3.74,1.05-6.67,3.15-8.78,2.1-2.11,5-3.17,8.7-3.17s6.62,1.06,8.73,3.17c2.1,2.11,3.16,5.04,3.16,8.78s-1.05,6.67-3.16,8.79c-2.1,2.12-5.01,3.18-8.73,3.18s-6.63-1.06-8.72-3.17c-2.08-2.11-3.13-5.04-3.13-8.8ZM698.21,172.48c0,2.04.38,3.61,1.13,4.71.75,1.1,1.82,1.65,3.21,1.65s2.48-.55,3.24-1.66c.76-1.1,1.14-2.67,1.14-4.7s-.38-3.57-1.14-4.67c-.76-1.1-1.84-1.65-3.24-1.65s-2.47.54-3.22,1.63c-.75,1.09-1.12,2.65-1.12,4.68Z"/>
        <path class="cls-11" d="M717.25,176.86h7.32c.08.99.45,1.73,1.1,2.22.65.49,1.59.74,2.83.74,1.03,0,1.84-.2,2.43-.6.59-.4.88-.93.88-1.6,0-.86-1.15-1.59-3.45-2.18-1.23-.32-2.23-.6-2.98-.84-2.8-.92-4.71-1.87-5.74-2.87-1.03-.99-1.54-2.3-1.54-3.92,0-2.26.86-4.04,2.59-5.34,1.73-1.3,4.11-1.94,7.14-1.94,3.23,0,5.73.55,7.48,1.66,1.75,1.1,2.74,2.75,2.96,4.95h-7.03c-.15-.75-.49-1.31-1.03-1.68-.53-.36-1.27-.54-2.22-.54-.88,0-1.55.17-2.03.5-.47.34-.71.81-.71,1.43,0,.88,1.19,1.64,3.58,2.28.58.15,1.02.27,1.34.37,2.22.64,3.76,1.13,4.63,1.45.86.32,1.49.63,1.87.92.81.59,1.4,1.27,1.79,2.06.38.78.58,1.69.58,2.73,0,2.43-.95,4.33-2.84,5.7-1.89,1.37-4.53,2.06-7.92,2.06s-5.94-.66-7.85-1.97c-1.92-1.32-2.97-3.17-3.17-5.57Z"/>
      </g>
      <path class="cls-14" d="M467.64,198.27c-4.33-66-4.37-132.27,0-198.27,4.37,66,4.33,132.27,0,198.27h0Z"/>
      <path class="cls-4" d="M608.7,173.17c1.31-5.66,1.97-11.58,1.97-17.65,0-13.27-3.24-25.94-9.36-36.66-2.19-4.4-5.06-8.36-8.55-11.77-13.41-14.77-32.86-22.9-54.77-22.9-2.14,0-4.27.08-6.38.23l41.25-65.82c8,.43,14.98,4.83,18.84,11.96,4.07,7.51,3.71,16.26-.96,23.41l-8.45,12.95c-.45.69-.51,1.57-.15,2.31.35.74,1.07,1.25,1.89,1.33,12.46,1.28,23.6,5.76,32.22,12.96.43.36.97.55,1.52.55.33,0,.67-.07.99-.22.83-.38,1.36-1.21,1.38-2.12.33-25.38,12.8-46.38,33.71-57.43-4.33,9.47-6.59,20.14-6.59,31.25,0,12.98,2.94,24.93,8.73,35.53,4.57,10.46,12.34,18.81,22.47,24.16,11.82,7.62,26.15,11.64,41.47,11.64,8.06,0,15.78-1.09,23.04-3.24-12.32,16.44-31.96,25.73-54.91,25.73-19.6,0-37.24-6.97-49.65-19.64-.45-.46-1.06-.71-1.69-.71-.26,0-.53.04-.79.14-.87.31-1.48,1.09-1.57,2-1.72,17.9-10.98,32.93-25.67,41.99Z"/>
      <path class="cls-15" d="M518.13,114.99c1.4-8.1,4.64-15.95,10.36-25.51,3.12-.37,6.31-.56,9.51-.56,10.34,0,20.09,1.92,28.82,5.58-2.66-.4-5.4-.61-8.19-.61-17.43,0-32.21,7.97-40.5,21.1Z"/>
      <path class="cls-5" d="M582.27,181.79c12.53-6.63,21.08-18.62,23.37-33.17.2,2.26.3,4.56.3,6.9,0,7.22-.99,14.19-2.95,20.73-6.41,3.02-13.36,4.87-20.72,5.54Z"/>
      <path class="cls-3" d="M652.1,59.96c-.08-1.45-.12-2.91-.12-4.38,0-12.5,3.04-24.38,8.8-34.42,8.4-3.29,17.57-4.96,27.28-4.96,2.56,0,5.08.12,7.55.35-23.23,3.68-40.09,20.47-43.51,43.42Z"/>
      <path class="cls-12" d="M719.92,122.17c-3.47,0-6.88-.22-10.21-.65,21.89-1.48,39-14.15,46.08-32.85-.8,10.33-3.73,20.09-8.58,28.54-8.4,3.29-17.57,4.96-27.29,4.96Z"/>
      <path class="cls-2" d="M705.38,116.94c-6.62,0-12.85-1.05-18.59-3.14.42.01.84.02,1.26.02,17.67,0,30.49-13.05,30.49-31.03s-12.82-31.03-30.49-31.03-29.68,12.25-30.45,29.36c-.95-3.96-1.43-8.1-1.43-12.39,0-27.94,20.69-48.22,49.2-48.22,3.75,0,7.43.35,10.94,1.04,20.03,8.2,33.97,25.18,38.27,46.65,0,.18,0,.35,0,.53,0,27.94-20.7,48.22-49.21,48.22Z"/>
      <path class="cls-16" d="M568.64,181.68c-29.32-3.13-49.86-24.53-51.26-53.41,5.03-18.03,21.18-29.65,41.24-29.65,5.88,0,11.48.99,16.59,2.89-13.91.36-24.31,10.7-24.31,24.33s10.78,24.33,25.07,24.33c12.48,0,22.29-7.98,24.57-19.24.66,3.11.99,6.36.99,9.72,0,20.85-12.9,36.92-32.89,41.03Z"/>
    </g>
  </g>
</svg>