<svg width="80" height="28" viewBox="0 0 80 28" fill="none" xmlns="http://www.w3.org/2000/svg">
<path d="M79.2715 2.20799C79.2715 2.43401 79.2367 2.74695 79.1498 3.13813C79.0715 3.52932 78.9672 3.84226 78.8542 4.07697C78.7325 4.31168 78.6021 4.43338 78.4543 4.43338C78.3413 4.43338 78.2196 4.36384 78.0718 4.22475C77.9241 4.08566 77.7328 3.93788 77.4894 3.78141C77.2547 3.62494 76.9418 3.47716 76.5767 3.33807C76.2029 3.19898 75.7335 3.12944 75.1858 3.12944C74.5686 3.12944 74.0123 3.25114 73.5081 3.49454C73.0039 3.73795 72.5519 4.05959 72.152 4.46815C71.7521 4.86803 71.4044 5.32875 71.1089 5.85033C70.8046 6.37191 70.5612 6.91087 70.37 7.47591C70.1787 8.04095 70.031 8.5973 69.9353 9.16234C69.8397 9.71869 69.7962 10.2403 69.7962 10.7184C69.7962 11.2921 69.8658 11.805 70.0136 12.2483C70.1613 12.683 70.37 13.0481 70.6395 13.3349C70.9176 13.6218 71.2479 13.8391 71.6478 13.9869C72.0477 14.1347 72.491 14.2042 72.9865 14.2042C73.5689 14.2042 74.0731 14.1434 74.4991 14.0217C74.9163 13.9 75.2727 13.7609 75.5683 13.6131C75.8639 13.4653 76.1073 13.3263 76.2985 13.2046C76.4897 13.0829 76.6723 13.0133 76.8288 13.0133C76.9331 13.0133 77.0026 13.0481 77.0374 13.135C77.0722 13.2132 77.0896 13.3263 77.0896 13.4653C77.0896 13.5175 77.0809 13.6131 77.0635 13.7261C77.0461 13.8478 77.0287 13.9695 77.0026 14.1173C76.9765 14.2651 76.9505 14.4216 76.9157 14.5867C76.8809 14.7606 76.8461 14.9084 76.8027 15.0648C76.7592 15.2126 76.7158 15.343 76.6549 15.4647C76.6028 15.5864 76.5245 15.6907 76.4376 15.7777C76.342 15.8733 76.1681 15.995 75.8986 16.1341C75.6378 16.2819 75.3075 16.4123 74.9337 16.534C74.5512 16.6643 74.1166 16.7687 73.6385 16.8556C73.1604 16.9425 72.6475 16.986 72.0999 16.986C71.2045 16.986 70.3874 16.8643 69.6658 16.6296C68.9443 16.3862 68.3272 16.0298 67.823 15.5343C67.3188 15.0475 66.9276 14.439 66.6581 13.7001C66.3799 12.9612 66.2496 12.1006 66.2496 11.1183C66.2496 10.3446 66.3278 9.55352 66.4843 8.71031C66.6407 7.87578 66.8754 7.06734 67.1971 6.27628C67.51 5.48523 67.9186 4.72894 68.4054 4.01612C68.8922 3.3033 69.4659 2.67741 70.1353 2.14714C70.8046 1.61687 71.5609 1.19092 72.4041 0.87797C73.256 0.565024 74.1948 0.408551 75.2293 0.408551C75.8117 0.408551 76.3594 0.469402 76.8722 0.591103C77.3938 0.712804 77.8458 0.869277 78.2283 1.06921C78.6108 1.26915 78.889 1.44301 79.0368 1.60818C79.1932 1.77334 79.2628 1.98197 79.2628 2.22538M61.9901 4.97234C61.9901 4.57247 61.8944 4.23344 61.7032 3.93788C61.512 3.65102 61.2164 3.44239 60.8252 3.32938C60.6514 3.27722 60.4514 3.23376 60.2428 3.20768C60.0255 3.19029 59.7908 3.1816 59.5213 3.1816H58.087L56.9917 8.64946H58.4868C58.9649 8.64946 59.3735 8.5973 59.7038 8.48429C60.0429 8.37128 60.3384 8.2235 60.5905 8.04095C60.8426 7.8584 61.0599 7.64108 61.2338 7.39767C61.4076 7.14558 61.5554 6.88479 61.6684 6.61531C61.7814 6.33714 61.8597 6.06765 61.9118 5.78948C61.964 5.51131 61.9901 5.24182 61.9901 4.98104V4.97234ZM65.4237 4.60724C65.4237 5.06797 65.3716 5.55477 65.2673 6.05896C65.163 6.56315 64.9978 7.05865 64.7631 7.54545C64.5284 8.03226 64.2328 8.49298 63.859 8.92763C63.4939 9.36228 63.0419 9.74477 62.5029 10.0838C61.964 10.4228 61.3468 10.6836 60.6427 10.8835C59.9385 11.0835 59.1127 11.1791 58.1565 11.1791H56.4788L55.453 16.3166C55.4443 16.3949 55.4009 16.4731 55.3313 16.5426C55.2618 16.6035 55.1575 16.6643 55.0184 16.6991C54.8793 16.7339 54.6967 16.7687 54.4794 16.7947C54.2621 16.8121 54.0013 16.8208 53.6884 16.8208C53.3754 16.8208 53.132 16.8208 52.9234 16.7947C52.7235 16.7687 52.5583 16.7339 52.4453 16.6991C52.3323 16.6557 52.2541 16.6035 52.2106 16.5426C52.1671 16.4818 52.1584 16.4036 52.1845 16.3166L55.0879 1.84289C55.1575 1.4517 55.3226 1.15614 55.5747 0.964899C55.8181 0.773654 56.1224 0.669339 56.4875 0.669339H59.9994C60.434 0.669339 60.8165 0.678032 61.1555 0.712804C61.4946 0.747576 61.8336 0.79104 62.1639 0.860584C62.6681 0.956206 63.1201 1.11268 63.5287 1.32131C63.9286 1.52125 64.2676 1.78204 64.5545 2.09498C64.8326 2.40793 65.0499 2.77303 65.1977 3.19029C65.3455 3.60755 65.4237 4.07697 65.4237 4.61593V4.60724ZM51.6021 1.90374C51.6021 1.97328 51.6021 2.06021 51.5847 2.1906C51.576 2.3123 51.5586 2.45139 51.5325 2.59917C51.5065 2.74695 51.4717 2.90342 51.4369 3.0512C51.4022 3.19898 51.35 3.34676 51.2978 3.47716C51.2457 3.60755 51.1761 3.71187 51.1153 3.7988C51.0457 3.87703 50.9762 3.9205 50.898 3.9205C50.785 3.9205 50.6372 3.86834 50.4633 3.76402C50.2895 3.65971 50.0721 3.5467 49.8201 3.425C49.568 3.3033 49.2724 3.19029 48.9334 3.08598C48.5944 2.98166 48.2119 2.9295 47.7772 2.9295C47.3426 2.9295 46.9514 2.99035 46.6472 3.12075C46.3342 3.24245 46.0821 3.40761 45.8822 3.60755C45.6909 3.80749 45.5432 4.03351 45.4475 4.29429C45.3519 4.54639 45.2998 4.80718 45.2998 5.05927C45.2998 5.35483 45.378 5.62431 45.5258 5.85033C45.6736 6.07635 45.8735 6.28498 46.1256 6.48491C46.3777 6.67616 46.6559 6.8674 46.9775 7.04996C47.2991 7.23251 47.6208 7.41506 47.9511 7.615C48.2727 7.81493 48.6031 8.03226 48.9247 8.26697C49.2463 8.50168 49.5245 8.77116 49.7766 9.0841C50.0287 9.39705 50.2286 9.75346 50.3764 10.1533C50.5242 10.5532 50.6024 11.0226 50.6024 11.5355C50.6024 12.3092 50.4459 13.0394 50.1243 13.7001C49.8114 14.3607 49.368 14.9431 48.7856 15.4386C48.2032 15.9341 47.5078 16.3166 46.6906 16.5948C45.8735 16.8817 44.9607 17.0208 43.9698 17.0208C43.4308 17.0208 42.944 16.9773 42.4833 16.8904C42.0313 16.8034 41.6314 16.6991 41.275 16.5774C40.9273 16.4557 40.6317 16.3253 40.397 16.1862C40.1536 16.0471 39.9797 15.9168 39.8667 15.7951C39.7537 15.6647 39.6929 15.4821 39.6929 15.23C39.6929 15.1692 39.6929 15.0648 39.719 14.9345C39.7363 14.8041 39.7537 14.6563 39.7885 14.4998C39.8233 14.3433 39.8493 14.1869 39.8928 14.0217C39.9363 13.8652 39.9884 13.7087 40.0406 13.5784C40.1014 13.448 40.1623 13.3349 40.2318 13.248C40.3014 13.1698 40.3796 13.1263 40.4578 13.1263C40.5969 13.1263 40.7621 13.1872 40.9533 13.3176C41.1533 13.448 41.388 13.587 41.6835 13.7348C41.9704 13.8913 42.3181 14.0391 42.718 14.1695C43.1179 14.2999 43.5873 14.3694 44.1436 14.3694C44.6304 14.3694 45.0651 14.3086 45.4302 14.1869C45.7953 14.0652 46.1082 13.8913 46.3603 13.6827C46.6124 13.4653 46.7949 13.2219 46.9253 12.9351C47.0557 12.6482 47.1253 12.344 47.1253 12.0049C47.1253 11.7007 47.047 11.4312 46.8993 11.1965C46.7515 10.9618 46.5515 10.7531 46.3081 10.5532C46.0647 10.3533 45.7866 10.1707 45.4736 9.99686C45.1607 9.823 44.8477 9.64045 44.5261 9.44051C44.2045 9.24058 43.8828 9.02325 43.5786 8.78854C43.2656 8.56253 42.9875 8.29305 42.7528 7.9801C42.5094 7.66715 42.3094 7.31074 42.1616 6.90218C42.0139 6.5023 41.9356 6.02419 41.9356 5.48523C41.9356 4.74633 42.0834 4.05959 42.379 3.425C42.6745 2.79911 43.0918 2.26015 43.6134 1.80811C44.1436 1.35608 44.7782 1.00836 45.5084 0.747576C46.2386 0.49548 47.047 0.373779 47.9337 0.373779C48.351 0.373779 48.7508 0.399858 49.1246 0.469402C49.4984 0.530252 49.8374 0.608489 50.1504 0.704111C50.4546 0.799733 50.7154 0.904048 50.9327 1.02575C51.1501 1.13876 51.2978 1.23438 51.3848 1.32131C51.4717 1.39955 51.5325 1.48648 51.5673 1.56471C51.6021 1.65164 51.6195 1.76465 51.6195 1.89504L51.6021 1.90374Z" fill="white"/>
<path d="M77.175 27.0178C77.175 27.0178 77.175 27.0786 77.175 27.1308C77.175 27.183 77.1576 27.2438 77.1489 27.3047C77.1402 27.3742 77.1228 27.4351 77.1054 27.5046C77.088 27.5741 77.062 27.635 77.0359 27.6958C77.0098 27.7567 76.9837 27.8002 76.9489 27.8349C76.9142 27.8697 76.8794 27.8871 76.8359 27.8871H73.8891C73.8369 27.8871 73.7847 27.8871 73.7413 27.861C73.6978 27.8436 73.663 27.8175 73.6283 27.7828C73.6022 27.748 73.5761 27.7045 73.5674 27.6524C73.5587 27.6002 73.5587 27.5394 73.5674 27.4698L74.741 21.6195C74.741 21.6195 74.7583 21.5586 74.7844 21.5326C74.8105 21.5065 74.854 21.4804 74.9061 21.463C74.9583 21.4456 75.0278 21.4369 75.1148 21.4282C75.2017 21.4282 75.306 21.4195 75.4364 21.4195C75.5668 21.4195 75.6624 21.4195 75.7493 21.4282C75.8363 21.4282 75.8971 21.4543 75.9406 21.463C75.984 21.4804 76.0188 21.5065 76.0275 21.5326C76.0362 21.5586 76.0449 21.5934 76.0362 21.6195L75.0017 26.8005H77.0359C77.0793 26.8005 77.1141 26.8179 77.1315 26.8526C77.1489 26.8874 77.1576 26.9396 77.1576 27.0004M70.125 27.7045C70.125 27.7045 70.099 27.7654 70.0729 27.7915C70.0468 27.8175 70.0033 27.8349 69.9512 27.8523C69.899 27.8697 69.8295 27.8784 69.7426 27.8871C69.6556 27.8958 69.5513 27.8958 69.4209 27.8958C69.2905 27.8958 69.1862 27.8958 69.108 27.8871C69.0297 27.8871 68.9602 27.8697 68.9167 27.8523C68.8733 27.8349 68.8385 27.8175 68.8211 27.7915C68.8037 27.7654 68.8037 27.7306 68.8124 27.7045L70.0294 21.6195C70.0294 21.6195 70.0468 21.5586 70.0729 21.5326C70.099 21.5065 70.1424 21.4804 70.1946 21.463C70.2467 21.4456 70.3163 21.4369 70.4032 21.4282C70.4901 21.4282 70.5945 21.4195 70.7162 21.4195C70.8379 21.4195 70.9509 21.4195 71.0291 21.4282C71.1073 21.4282 71.1769 21.4543 71.229 21.463C71.2812 21.4804 71.3073 21.5065 71.3247 21.5326C71.3421 21.5586 71.342 21.5934 71.342 21.6195L70.125 27.7045ZM66.5871 21.9411C66.5871 21.9411 66.5871 22.002 66.5871 22.0541C66.5871 22.1063 66.5784 22.1584 66.561 22.2193C66.5523 22.2801 66.5349 22.341 66.5262 22.4018C66.5088 22.4627 66.4914 22.5149 66.474 22.5757C66.448 22.6279 66.4219 22.6713 66.3958 22.7061C66.3697 22.7409 66.335 22.7583 66.3089 22.7583C66.2654 22.7583 66.2046 22.7409 66.135 22.6974C66.0655 22.6539 65.9786 22.6105 65.8829 22.5583C65.7786 22.5062 65.6656 22.4627 65.5265 22.4192C65.3874 22.3758 65.2397 22.3584 65.0658 22.3584C64.8919 22.3584 64.7355 22.3845 64.6138 22.4366C64.4921 22.4888 64.3878 22.5496 64.3095 22.6279C64.2313 22.7061 64.1704 22.8017 64.1357 22.906C64.1009 23.0017 64.0748 23.106 64.0748 23.2103C64.0748 23.332 64.1096 23.4363 64.1617 23.5232C64.2226 23.6102 64.3008 23.6971 64.3965 23.7753C64.5008 23.8536 64.6138 23.9318 64.7355 24.0013C64.8659 24.0709 64.9963 24.1491 65.1267 24.2274C65.257 24.3056 65.3874 24.3925 65.5178 24.4882C65.6482 24.5838 65.7612 24.6881 65.8569 24.8185C65.9525 24.9402 66.0394 25.088 66.0916 25.2444C66.1524 25.4009 66.1785 25.5922 66.1785 25.8008C66.1785 26.1137 66.1176 26.4006 65.9873 26.6701C65.8569 26.9396 65.683 27.1656 65.4483 27.3655C65.2136 27.5655 64.9354 27.7132 64.6138 27.8262C64.2834 27.9392 63.927 28.0001 63.5272 28.0001C63.3098 28.0001 63.1099 27.9827 62.9274 27.9479C62.7448 27.9132 62.5883 27.8697 62.4406 27.8175C62.3015 27.7654 62.1798 27.7132 62.0842 27.6611C61.9885 27.6089 61.919 27.5568 61.8668 27.5046C61.8234 27.4524 61.7973 27.3742 61.7973 27.2786C61.7973 27.2525 61.7973 27.209 61.806 27.1569C61.806 27.1047 61.8234 27.0439 61.8321 26.983C61.8408 26.9222 61.8581 26.8613 61.8755 26.7918C61.8929 26.7309 61.9103 26.6701 61.9364 26.6179C61.9625 26.5658 61.9885 26.5223 62.0146 26.4875C62.0407 26.4528 62.0755 26.4354 62.1015 26.4354C62.1624 26.4354 62.2232 26.4615 62.3015 26.5136C62.3797 26.5658 62.4753 26.6179 62.597 26.6788C62.71 26.7396 62.8491 26.8005 63.0056 26.8526C63.1621 26.9048 63.3533 26.9309 63.5793 26.9309C63.7793 26.9309 63.9444 26.9048 64.0922 26.8613C64.24 26.8092 64.3617 26.7396 64.466 26.6614C64.5616 26.5745 64.6399 26.4788 64.692 26.3658C64.7442 26.2528 64.7703 26.1311 64.7703 25.992C64.7703 25.8703 64.7442 25.7573 64.6833 25.6704C64.6225 25.5748 64.5442 25.4965 64.4486 25.4183C64.353 25.3401 64.24 25.2618 64.1183 25.1923C63.9966 25.1227 63.8662 25.0532 63.7358 24.9663C63.6054 24.888 63.475 24.8011 63.3533 24.7055C63.2316 24.6099 63.1186 24.5055 63.023 24.3838C62.9274 24.2621 62.8491 24.1144 62.7883 23.9492C62.7274 23.784 62.7014 23.6015 62.7014 23.3841C62.7014 23.0886 62.7622 22.8104 62.8752 22.5583C62.9969 22.3062 63.1621 22.0889 63.3707 21.915C63.5793 21.7325 63.8314 21.5934 64.127 21.4891C64.4225 21.3935 64.7442 21.3413 65.1006 21.3413C65.2657 21.3413 65.4309 21.35 65.5787 21.3761C65.7265 21.4022 65.8656 21.4282 65.9873 21.4717C66.109 21.5065 66.2133 21.5499 66.3002 21.6021C66.3871 21.6456 66.448 21.689 66.4827 21.7151C66.5175 21.7499 66.5436 21.776 66.5523 21.8107C66.5697 21.8455 66.5784 21.889 66.5784 21.9411H66.5871ZM57.2944 22.6713L55.8601 25.4009H57.6682L57.3031 22.6713H57.2944ZM59.2503 27.3916C59.2677 27.5133 59.2764 27.6002 59.2764 27.6785C59.2764 27.748 59.2503 27.8002 59.2068 27.8349C59.1634 27.8697 59.0938 27.8871 58.9895 27.8958C58.8852 27.9045 58.7461 27.9045 58.5722 27.9045C58.4419 27.9045 58.3375 27.9045 58.2593 27.9045C58.1811 27.9045 58.1202 27.8871 58.0681 27.8784C58.0246 27.8697 57.9985 27.8436 57.9811 27.8175C57.9637 27.7915 57.955 27.7567 57.9464 27.7132L57.7725 26.418H55.3646L54.7039 27.6785C54.6778 27.7219 54.6518 27.7654 54.6257 27.7915C54.5996 27.8262 54.5561 27.8436 54.4953 27.861C54.4431 27.8784 54.3649 27.8871 54.2693 27.8958C54.1737 27.8958 54.052 27.9045 53.9129 27.9045C53.7651 27.9045 53.6347 27.9045 53.5565 27.8871C53.4695 27.8784 53.4174 27.8523 53.3826 27.8175C53.3565 27.7828 53.3478 27.7306 53.3739 27.6524C53.4 27.5828 53.4435 27.4872 53.5043 27.3742L56.6164 21.6629C56.6511 21.6108 56.6859 21.5586 56.7207 21.5239C56.7554 21.4891 56.7989 21.463 56.8684 21.4456C56.9293 21.4282 57.0162 21.4195 57.1205 21.4109C57.2248 21.4109 57.3639 21.4109 57.5378 21.4109C57.729 21.4109 57.8855 21.4109 57.9985 21.4109C58.1115 21.4109 58.1985 21.4282 58.2593 21.4456C58.3201 21.463 58.3636 21.4891 58.381 21.5239C58.3984 21.5586 58.4158 21.6108 58.4245 21.6716L59.2677 27.3742L59.2503 27.3916ZM50.1923 23.0973C50.1923 23.0017 50.1749 22.9147 50.1402 22.8365C50.1054 22.7583 50.0619 22.6887 49.9837 22.6279C49.9141 22.5757 49.8272 22.5235 49.7142 22.4975C49.6012 22.4627 49.4708 22.4453 49.3143 22.4453H48.5668L48.2017 24.2795H48.8275C49.0796 24.2795 49.2883 24.2448 49.4621 24.1752C49.636 24.1057 49.7751 24.01 49.8794 23.897C49.9837 23.784 50.0619 23.6623 50.1141 23.5232C50.1662 23.3841 50.1836 23.2451 50.1836 23.106L50.1923 23.0973ZM51.5919 22.8539C51.5919 23.0712 51.5658 23.2798 51.5049 23.4885C51.4441 23.6971 51.3572 23.897 51.2268 24.0796C51.0964 24.2708 50.9399 24.436 50.74 24.5838C50.54 24.7316 50.2966 24.8533 50.0098 24.9402C50.1662 25.001 50.3053 25.1314 50.4096 25.314C50.514 25.5052 50.6096 25.7573 50.6791 26.079L50.9312 27.3829C50.9486 27.4524 50.9573 27.522 50.9747 27.5741C50.9834 27.635 50.9921 27.6785 50.9921 27.7219C50.9921 27.7567 50.9834 27.7828 50.9573 27.8002C50.9312 27.8262 50.8964 27.8436 50.8356 27.861C50.7747 27.8784 50.6965 27.8871 50.6009 27.8958C50.5053 27.8958 50.3749 27.9045 50.2271 27.9045C50.088 27.9045 49.9837 27.9045 49.8968 27.8958C49.8098 27.8958 49.749 27.8784 49.7055 27.8523C49.6621 27.8349 49.6273 27.8089 49.6186 27.7828C49.6012 27.748 49.5925 27.7132 49.5838 27.6785L49.3404 26.2528C49.3143 26.0877 49.2796 25.9399 49.2274 25.8182C49.1839 25.6878 49.1231 25.5835 49.0536 25.5052C48.984 25.4183 48.8971 25.3574 48.7928 25.314C48.6885 25.2705 48.5668 25.2531 48.4277 25.2531H48.0191L47.5323 27.7045C47.5323 27.7045 47.5062 27.7654 47.4802 27.7915C47.4541 27.8175 47.4106 27.8349 47.3584 27.8523C47.3063 27.8697 47.2367 27.8784 47.1498 27.8871C47.0629 27.8958 46.9586 27.8958 46.8282 27.8958C46.6978 27.8958 46.6022 27.8958 46.5152 27.8871C46.437 27.8871 46.3675 27.8697 46.324 27.8523C46.2805 27.8349 46.2458 27.8175 46.2284 27.7915C46.211 27.7654 46.211 27.7393 46.2197 27.7045L47.3932 21.8542C47.4193 21.7064 47.4801 21.6021 47.5671 21.5412C47.6627 21.4804 47.767 21.4456 47.88 21.4456H49.6099C49.9141 21.4456 50.1836 21.4717 50.427 21.5326C50.6704 21.5847 50.8791 21.6716 51.0529 21.7933C51.2268 21.9064 51.3572 22.0541 51.4528 22.228C51.5484 22.4018 51.5919 22.6105 51.5919 22.8452V22.8539ZM42.1775 25.7399C42.1775 25.5313 42.0993 25.3574 41.9428 25.2357C41.7863 25.114 41.5342 25.0532 41.1952 25.0532H40.3259L39.9608 26.8874H40.8823C41.117 26.8874 41.3169 26.8526 41.4734 26.7918C41.6299 26.7222 41.7689 26.644 41.8733 26.531C41.9776 26.4267 42.0558 26.305 42.108 26.1659C42.1601 26.0268 42.1862 25.8877 42.1862 25.7486L42.1775 25.7399ZM42.4035 23.0017C42.4035 22.906 42.3861 22.8278 42.3514 22.7583C42.3166 22.6887 42.2644 22.6279 42.2036 22.5757C42.134 22.5235 42.0558 22.4888 41.9515 22.4627C41.8559 22.4366 41.7255 22.4192 41.569 22.4192H40.8562L40.5259 24.0883H41.2561C41.4734 24.0883 41.6472 24.0535 41.795 23.984C41.9341 23.9144 42.0558 23.8275 42.1427 23.7232C42.2297 23.6189 42.2992 23.4972 42.3427 23.3668C42.3861 23.2364 42.4035 23.1147 42.4035 22.993V23.0017ZM43.7422 22.7583C43.7422 22.9495 43.7161 23.1407 43.664 23.3146C43.6118 23.4885 43.5336 23.6536 43.4293 23.7927C43.325 23.9405 43.2033 24.0622 43.0555 24.1752C42.9077 24.2882 42.7425 24.3751 42.56 24.4447C42.7078 24.4708 42.8382 24.5142 42.9599 24.5838C43.0816 24.6533 43.1859 24.7316 43.2728 24.8359C43.3597 24.9402 43.4293 25.0619 43.4727 25.201C43.5249 25.3401 43.5423 25.4965 43.5423 25.6791C43.5423 25.8356 43.5162 26.0007 43.4814 26.1746C43.438 26.3484 43.3684 26.5136 43.2815 26.6701C43.1859 26.8352 43.0642 26.9917 42.9164 27.1395C42.7686 27.2873 42.5861 27.4177 42.3774 27.522C42.1688 27.635 41.9254 27.7219 41.6559 27.7828C41.3778 27.8523 41.0648 27.8784 40.6997 27.8784H38.909C38.7699 27.8784 38.6743 27.8436 38.6134 27.7741C38.5526 27.7045 38.5352 27.6002 38.57 27.4611L39.6913 21.8542C39.7174 21.7064 39.7783 21.6021 39.8652 21.5412C39.9608 21.4804 40.0651 21.4456 40.1868 21.4456H41.7342C42.0732 21.4456 42.3687 21.4717 42.6208 21.5239C42.8642 21.576 43.0816 21.6543 43.2467 21.7673C43.4119 21.8716 43.5423 22.0107 43.6292 22.1758C43.7161 22.341 43.7596 22.5322 43.7596 22.7583H43.7422Z" fill="white"/>
<path d="M0 27.9131H30.2913C32.1147 25.8772 33.5621 23.749 34.6362 21.529C27.7268 25.385 15.2499 26.5962 0.799843 26.8703C0.541772 27.2196 0.275635 27.5673 0 27.9131Z" fill="white"/>
<path d="M34.5714 0C37.4939 7.3827 37.7184 14.1022 35.2464 20.1595C28.4826 23.527 16.9449 25.5922 1.86474 25.3425C6.84582 17.7487 7.76957 9.32548 4.27987 0H34.5714Z" fill="white"/>
</svg>
