<?xml version="1.0" encoding="UTF-8"?>
<svg id="Logo" xmlns="http://www.w3.org/2000/svg" viewBox="0 0 1000.02 198.38">
  <g>
    <path d="M962.54,2.17h-16.73c-2.25,0-3.67,1.38-3.67,3.41s1.42,3.41,3.67,3.41h4.72v15.39c0,2.4,1.45,3.92,3.63,3.92s3.67-1.52,3.67-3.92v-15.39h4.72c2.25,0,3.67-1.38,3.67-3.41s-1.42-3.41-3.67-3.41h0Z"/>
    <path d="M994.74,2.02c-2.54,0-4.36,1.31-5.55,3.92l-4.49,9.72-4.44-9.65c-1.23-2.65-3.09-3.99-5.7-3.99-3.41,0-5.41,2.07-5.41,5.55v17.21c0,2.14,1.31,3.52,3.34,3.52s3.34-1.38,3.34-3.56l-.11-14.12,5.09,11.03c.76,1.67,2.03,2.5,3.7,2.5s2.87-.8,3.67-2.5l5.05-10.94v14.03c0,2.18,1.27,3.56,3.38,3.56s3.41-1.38,3.41-3.52V7.47c0-3.41-1.96-5.44-5.26-5.44h-.02Z"/>
  </g>
  <g>
    <path d="M103.83,141.65c31.85,0,28.53-27.87,56.06-27.87,17.91,0,30.19,12.61,30.19,29.52,0,28.53-34.5,55.07-85.59,55.07-61.7,0-104.49-41.13-104.49-99.18S43.13,0,104.83,0c50.76,0,85.26,27.53,85.26,55.07,0,16.59-12.27,28.86-29.86,28.86-26.54,0-24.55-27.2-56.39-27.2-23.55,0-38.15,16.25-38.15,42.46s15.59,42.46,38.15,42.46h0Z"/>
    <path d="M235.86,198.38c-18.25,0-31.51-12.94-31.51-31.18V30.85C204.35,12.94,217.62,0,235.86,0,250.12,0,260.08,7.63,264.39,20.24,275.01,7.63,290.6,0,308.51,0,330.4,0,345.33,12.94,345.33,32.18c0,17.25-12.94,30.52-29.86,30.52-8.29,0-15.59-2.99-24.55-2.99-15.92,0-23.55,8.96-23.55,27.53v79.95c0,18.24-12.94,31.18-31.51,31.18h0Z"/>
    <path d="M552.33,99.19c0,58.05-44.12,99.19-106.49,99.19s-106.49-41.13-106.49-99.19S383.48,0,445.84,0s106.49,41.13,106.49,99.19ZM486.64,99.19c0-25.54-16.25-42.46-40.8-42.46s-40.8,16.92-40.8,42.46,16.25,42.46,40.8,42.46,40.8-16.92,40.8-42.46Z"/>
    <path d="M669.42,141.65c31.85,0,28.53-27.87,56.06-27.87,17.91,0,30.19,12.61,30.19,29.52,0,28.53-34.5,55.07-85.59,55.07-61.7,0-104.5-41.13-104.5-99.19S608.71,0,670.42,0c50.76,0,85.26,27.53,85.26,55.07,0,16.59-12.27,28.86-29.86,28.86-26.54,0-24.55-27.2-56.39-27.2-23.55,0-38.15,16.25-38.15,42.46s15.59,42.46,38.15,42.46h-.01Z"/>
    <path d="M763.63,147.95c0-14.93,10.95-25.21,26.87-25.21,25.21,0,32.18,25.88,64.69,25.88,13.93,0,19.9-4.98,19.9-12.27,0-6.3-4.31-10.28-13.93-11.94l-33.84-5.97c-37.82-6.64-57.06-25.88-57.06-55.73C770.26,25.22,804.43,0,856.18,0c45.12,0,77.96,19.57,77.96,46.11,0,14.6-9.95,24.55-25.21,24.55-22.23,0-27.87-20.9-54.07-20.9-12.61,0-19.9,4.64-19.9,12.27,0,5.97,4.31,9.29,14.6,10.95l35.5,6.3c35.83,6.3,54.74,25.21,54.74,54.4,0,39.14-34.5,64.69-87.58,64.69s-88.57-22.23-88.57-50.42h-.02Z"/>
  </g>
</svg>