<svg version="1.2" xmlns="http://www.w3.org/2000/svg" viewBox="0 0 1087 226" width="1087" height="226"><style></style><path  d="m1033 9.6h-17.8c-2.4 0-3.9 1.5-3.9 3.6 0 2.2 1.5 3.7 3.9 3.7h5v16.4c0 2.5 1.6 4.1 3.9 4.1 2.3 0 3.9-1.6 3.9-4.1v-16.4h5c2.4 0 3.9-1.5 3.9-3.7 0-2.1-1.5-3.6-3.9-3.6z"/><path  d="m1067.3 9.4c-2.7 0-4.7 1.4-5.9 4.2l-4.8 10.4-4.7-10.3c-1.3-2.8-3.3-4.3-6.1-4.3-3.6 0-5.8 2.2-5.8 5.9v18.4c0 2.2 1.4 3.7 3.6 3.7 2.2 0 3.5-1.5 3.5-3.8l-0.1-15 5.4 11.7c0.9 1.8 2.2 2.7 4 2.7 1.8 0 3-0.9 3.9-2.7l5.4-11.6v14.9c0 2.3 1.3 3.8 3.5 3.8 2.3 0 3.7-1.5 3.7-3.8v-18.4c0-3.6-2.1-5.8-5.6-5.8z"/><path  d="m119 158.1c33.9 0 30.4-29.7 59.7-29.7 19.1 0 32.1 13.4 32.1 31.4 0 30.4-36.7 58.6-91.1 58.6-65.7 0-111.2-43.7-111.2-105.5 0-62.2 45.9-105.6 111.6-105.6 54 0 90.7 29.3 90.7 58.6 0 17.7-13 30.7-31.8 30.7-28.2 0-26.1-28.9-60-28.9-25.1 0-40.6 17.3-40.6 45.2 0 26.8 16.6 45.2 40.6 45.2z"/><path  d="m259.6 218.4c-19.5 0-33.6-13.7-33.6-33.1v-145.2c0-19 14.1-32.8 33.5-32.8 15.2 0 25.8 8.1 30.4 21.5 11.3-13.4 27.9-21.5 47-21.5 23.3 0 39.2 13.8 39.2 34.2 0 18.4-13.8 32.5-31.8 32.5-8.8 0-16.6-3.2-26.1-3.2-17 0-25.1 9.6-25.1 29.4v85.1c0 19.4-13.8 33.1-33.6 33.1z"/><path  d="m596.4 112.9c0 61.8-47 105.5-113.4 105.5-66.3 0-113.3-43.7-113.3-105.5 0-61.8 47-105.6 113.3-105.6 66.4 0 113.4 43.8 113.4 105.6zm-69.9 0c0-27.2-17.3-45.2-43.4-45.2-26.2 0-43.5 18-43.5 45.2 0 27.2 17.3 45.2 43.5 45.2 26.1 0 43.4-18 43.4-45.2z"/><path  d="m721 158.1c33.9 0 30.4-29.7 59.7-29.7 19.1 0 32.1 13.4 32.1 31.4 0 30.4-36.7 58.6-91.1 58.6-65.7 0-111.2-43.7-111.2-105.5 0-62.2 45.9-105.6 111.6-105.6 54 0 90.7 29.3 90.7 58.6 0 17.7-13 30.7-31.8 30.7-28.2 0-26.1-28.9-60-28.9-25.1 0-40.6 17.3-40.6 45.2 0 26.8 16.6 45.2 40.6 45.2z"/><path  d="m821.3 164.8c0-15.9 11.7-26.9 28.6-26.9 26.8 0 34.2 27.6 68.8 27.6 14.9 0 21.2-5.3 21.2-13.1 0-6.7-4.6-10.9-14.8-12.7l-36-6.3c-40.3-7.1-60.7-27.6-60.7-59.4 0-39.9 36.3-66.7 91.4-66.7 48 0 83 20.8 83 49.1 0 15.5-10.6 26.1-26.8 26.1-23.7 0-29.7-22.2-57.6-22.2-13.4 0-21.2 4.9-21.2 13 0 6.4 4.6 9.9 15.6 11.7l37.7 6.7c38.2 6.7 58.3 26.8 58.3 57.9 0 41.7-36.7 68.8-93.2 68.8-53.7 0-94.3-23.6-94.3-53.6z"/></svg>