<?xml version="1.0" encoding="utf-8"?>
<svg version="1.1" xmlns="http://www.w3.org/2000/svg" xmlns:xlink="http://www.w3.org/1999/xlink" x="0px" y="0px"
	 viewBox="0 0 610.3 197.5" style="enable-background:new 0 0 610.3 197.5;" xml:space="preserve">
<path style="fill:#e2353f;" d="M380.7,0.4c29.1,0,57.8,0,86.5,0c9.2,38,18.4,75.9,27.6,113.8c0.4,0.1,0.8,0.1,1.3,0.2c9.2-38,18.5-75.9,27.7-113.9
	c29.1,0,57.7,0,86.5,0c0,65.6,0,130.8,0,196.4c-19.1,0-38,0-57.3,0c0-40.8,0-81.4,0-121.9c-0.5-0.1-1-0.2-1.5-0.3
	c-11,40.7-22,81.4-33.1,122.3c-15.2,0-30.2,0-45.7,0c-11.1-40.9-22.2-81.9-33.2-122.8c-0.4,0-0.8,0.1-1.2,0.1c0,40.7,0,81.4,0,122.5
	c-19.5,0-38.2,0-57.5,0C380.7,131.6,380.7,66.2,380.7,0.4z"/>
<path style="fill:#e2353f;" d="M0,197.4C0,131.3,0,66.1,0,0.5c1.9-0.1,3.7-0.3,5.4-0.3c37.2-0.1,74.3-0.4,111.5,0c16.3,0.2,31.3,4.9,43.2,17.3
	c13.1,13.7,15.5,41.1,4.2,56.4c-2.8,3.8-6.8,6.8-10.4,10c-1.5,1.4-3.4,2.5-5.3,3.9c4.4,2.6,8.6,4.7,12.3,7.3
	c13.8,9.5,19.8,22.8,20.1,39.4c0.2,10.3-1,20.1-5.8,29.4c-7.2,13.9-18.6,22.8-32.8,28.2c-10.5,4-21.4,5.5-32.7,5.4
	c-34.3-0.3-68.7-0.1-103-0.1C4.6,197.4,2.5,197.4,0,197.4z M61.6,149.5c15.1,0,29.5,0.8,43.9-0.2c12.3-0.9,15.4-9.6,15.2-19
	c-0.2-10.4-7.7-16.3-18.7-16.3c-11.6,0-23.3,0-34.9,0c-1.8,0-3.5,0-5.4,0C61.6,126.4,61.6,137.9,61.6,149.5z M61.8,47.2
	c0,10.2,0,19.5,0,29.3c12.8,0,25,0.3,37.3-0.1c8.6-0.3,14.4-6.2,14.6-13.9c0.3-9.2-3.9-14.6-13.3-15.1
	C87.7,46.7,74.9,47.2,61.8,47.2z"/>
<path style="fill:#e2353f;" d="M374.8,197.2c-21.5,0-42,0-63.1,0c-2.7-9.2-5.5-18.3-8.3-27.6c-20.9,0-41.5,0-62.8,0c-2.9,9-5.7,18-8.7,27.4
	c-20.1,0-40.3,0-61.2,0C195,131.2,219,65.9,243.1,0.4c20,0,39.8,0,60.2,0C327,65.7,350.8,131.1,374.8,197.2z M291.2,126.9
	c-5.9-20.3-11.6-39.9-17.3-59.5c-0.5,0-0.9,0-1.4,0c-6.1,19.6-12.3,39.2-18.6,59.4C266.7,126.9,278.5,126.9,291.2,126.9z"/>
<path style="fill:#FFFFFF;" d="M61.6,149.5c0-11.5,0-23.1,0-35.5c1.9,0,3.6,0,5.4,0c11.6,0,23.3,0,34.9,0c11,0,18.5,5.8,18.7,16.3
	c0.2,9.4-2.9,18.2-15.2,19C91.1,150.3,76.7,149.5,61.6,149.5z"/>
<path style="fill:#FFFFFF;" d="M61.8,47.2c13.1,0,25.9-0.5,38.6,0.2c9.5,0.5,13.6,5.9,13.3,15.1c-0.2,7.7-6,13.6-14.6,13.9
	c-12.3,0.4-24.6,0.1-37.3,0.1C61.8,66.7,61.8,57.4,61.8,47.2z"/>
<path style="fill:#FFFFFF;" d="M291.2,126.9c-12.7,0-24.6,0-37.2,0c6.3-20.2,12.4-39.8,18.6-59.4c0.5,0,0.9,0,1.4,0
	C279.6,87,285.3,106.6,291.2,126.9z"/>
</svg>
