<?xml version="1.0" encoding="utf-8"?>
<!-- Generator: Adobe Illustrator 27.0.1, SVG Export Plug-In . SVG Version: 6.00 Build 0)  -->
<svg version="1.1" id="Lager_1" xmlns="http://www.w3.org/2000/svg" xmlns:xlink="http://www.w3.org/1999/xlink" x="0px" y="0px"
	 viewBox="0 0 296 67.3" style="enable-background:new 0 0 296 67.3;" xml:space="preserve">
<style type="text/css">
	.st0{fill:#FFFFFF;}
</style>
<g>
	<g>
		<g>
			<path class="st0" d="M286.1,45.4h-18.6c-5.2,0-8.4-4.3-7-9.6l1-3.8l1-3.8c1.5-5.3,6.9-9.6,12.1-9.6h18.7l1.5-5.8h-28.2
				c-8.5,0-17.3,6.9-19.5,15.4l-1,3.8l-1,3.8c-2.3,8.5,2.8,15.4,11.3,15.4h28.1L286.1,45.4L286.1,45.4z M85.8,18.6h-5.8
				c-5.2,0-10.8,4.3-12.2,9.5h15.4L85.8,18.6L85.8,18.6z M91.1,12.9c6.3,0,10.1,5.2,8.4,11.5l-1,3.8c-1.2,4.2-5.5,7.7-9.8,7.7H65.9
				c-1.4,5.3,1.8,9.6,7,9.6h14.8l-1.6,5.8H61.8l0,0c-7.4,0-12.3-5.3-11.8-12.3c0-0.2,0-0.5,0.1-0.8c0.1-0.5,0.2-1,0.3-1.5
				c0.1-0.3,0.1-0.5,0.2-0.8l2.1-7.7c2.3-8.5,11-15.3,19.5-15.3L91.1,12.9L91.1,12.9z M36.7,18.6h-5.8c-5.3,0-10.7,4.3-12.1,9.5
				l-2,7.7c-1.4,5.3,1.8,9.6,7,9.6h2.9h0.9h1.9l1.2-4.5l4.5-16.6c0.1-0.2,0.1-0.3,0.1-0.5L36.7,18.6L36.7,18.6z M56.7,1.4L45.4,43.5
				c-1.1,4.2-5.5,7.6-9.8,7.6h-23c-8.4,0-13.6-6.9-11.3-15.4l2.1-7.7c2.3-8.5,11-15.3,19.5-15.3h9.5h5.8l1.8-6.7
				c1.2-2.8,4.1-4.8,6.9-4.8L56.7,1.4L56.7,1.4z M160.6,45.4h5.8l0,0c5.3,0,10.7-4.3,12.1-9.5l2-7.7c1.4-5.3-1.8-9.6-7-9.6h-2.9
				h-0.9h-1.9l-1.2,4.5l-4.5,16.6c-0.1,0.2-0.1,0.3-0.1,0.5L160.6,45.4L160.6,45.4z M140.6,62.7l11.3-42.2c1.1-4.2,5.5-7.7,9.8-7.7
				h22.9c8.5,0,13.6,6.9,11.3,15.4l-2.1,7.7c-2.3,8.4-11,15.3-19.4,15.3h-9.5H159l-1.8,6.7c-1.2,2.8-4.1,4.8-6.9,4.8H140.6
				L140.6,62.7z M231.8,18.6H226c-5.2,0-10.8,4.3-12.2,9.5h15.4L231.8,18.6L231.8,18.6z M237.1,12.9c6.3,0,10.1,5.2,8.5,11.5l-1,3.8
				c-1.2,4.2-5.5,7.7-9.8,7.7h-23c-1.4,5.3,1.8,9.6,7,9.6h14.8l-1.5,5.8h-24.4l0,0c-7.4,0-12.3-5.3-11.8-12.3c0-0.2,0-0.5,0.1-0.8
				c0.1-0.5,0.1-1,0.3-1.5c0.1-0.3,0.1-0.5,0.2-0.8l2.1-7.7c2.3-8.5,11-15.3,19.5-15.3L237.1,12.9L237.1,12.9z M143.7,41.6
				c-1.5,5.3-6.9,9.6-12.2,9.6h-0.1H96.6l1.6-5.8h25.3c0.9,0,1.9-0.3,2.7-0.9c1-0.7,1.9-1.8,2.2-3l0.5-1.9c0.6-2.1-0.7-3.8-2.8-3.8
				h-17.3c-5.2,0-8.4-4.3-7-9.6l1-3.8c1.5-5.3,6.9-9.6,12.2-9.6h0.1h34.3l-1.5,5.8H123c-0.9,0-1.9,0.3-2.7,0.9c-1,0.7-1.9,1.8-2.2,3
				l-0.5,1.9c-0.6,2.1,0.7,3.8,2.8,3.8h17.3c5.2,0,8.4,4.3,7,9.6L143.7,41.6L143.7,41.6z"/>
		</g>
	</g>
	<path class="st0" d="M252.8,63.7c-0.3-0.1-0.5-0.2-0.7-0.3l-0.4,0.9c0.2,0.1,0.5,0.2,0.8,0.3c0.3,0.1,0.7,0.1,1,0.1
		c0.6,0,1.1-0.1,1.5-0.2c0.4-0.1,0.8-0.3,1-0.5c0.3-0.2,0.5-0.5,0.6-0.8c0.2-0.3,0.3-0.7,0.4-1.1l1.4-5.1c-0.1-0.1-0.2-0.1-0.4-0.2
		c-0.1-0.1-0.3-0.1-0.4-0.1s-0.3-0.1-0.4-0.1c-0.1,0-0.3,0-0.4,0c-0.7,0-1.3,0.1-1.9,0.3c-0.5,0.2-1,0.5-1.4,0.9
		c-0.4,0.4-0.6,0.8-0.8,1.3s-0.3,1-0.3,1.5c0,0.6,0.2,1,0.5,1.3c0.3,0.3,0.8,0.5,1.5,0.5c0.3,0,0.6,0,0.8-0.1
		c0.3-0.1,0.5-0.2,0.6-0.2l0,0.2c-0.1,0.2-0.2,0.5-0.3,0.7s-0.3,0.4-0.4,0.5s-0.4,0.2-0.6,0.3c-0.2,0.1-0.5,0.1-0.9,0.1
		C253.4,63.8,253.1,63.8,252.8,63.7L252.8,63.7z M254,61.2c-0.2-0.2-0.3-0.5-0.3-0.9c0-0.4,0.1-0.7,0.2-1.1c0.1-0.3,0.4-0.6,0.6-0.9
		c0.3-0.3,0.6-0.5,0.9-0.6s0.8-0.2,1.2-0.2c0.1,0,0.2,0,0.3,0c0.1,0,0.2,0,0.3,0.1l-0.9,3.4c-0.1,0.1-0.4,0.2-0.6,0.3
		s-0.6,0.2-0.9,0.2C254.4,61.5,254.2,61.4,254,61.2L254,61.2z M261.4,56.7c-0.4,0.1-0.7,0.2-1,0.2l-1.5,5.7h1.1l1.4-5
		c0.1,0,0.3-0.1,0.4-0.1s0.3,0,0.5,0c0.2,0,0.4,0,0.6,0.1c0.2,0,0.4,0.1,0.5,0.1l0.3-0.9c0,0-0.1,0-0.2-0.1s-0.2,0-0.3-0.1
		s-0.2,0-0.4,0s-0.2,0-0.3,0C262.1,56.6,261.8,56.7,261.4,56.7L261.4,56.7z M267.2,62.4c0.5-0.3,0.8-0.6,1.1-1s0.5-0.8,0.6-1.3
		c0.1-0.5,0.2-0.9,0.2-1.4c0-0.6-0.2-1.1-0.5-1.5c-0.4-0.4-0.9-0.6-1.5-0.6c-0.6,0-1.2,0.1-1.6,0.4c-0.5,0.3-0.8,0.6-1.1,1
		s-0.5,0.8-0.6,1.3c-0.1,0.5-0.2,0.9-0.2,1.4c0,0.6,0.2,1.1,0.5,1.5c0.4,0.4,0.9,0.6,1.5,0.6C266.2,62.8,266.8,62.6,267.2,62.4
		L267.2,62.4z M264.9,61.5c-0.2-0.2-0.2-0.5-0.2-0.9c0-0.3,0.1-0.7,0.2-1.1c0.1-0.4,0.3-0.7,0.5-1c0.2-0.3,0.4-0.6,0.7-0.8
		c0.3-0.2,0.6-0.3,1-0.3c0.4,0,0.7,0.1,0.9,0.3c0.2,0.2,0.2,0.5,0.2,0.9c0,0.3-0.1,0.7-0.2,1.1c-0.1,0.4-0.3,0.7-0.5,1
		c-0.2,0.3-0.4,0.6-0.7,0.8c-0.3,0.2-0.6,0.3-1,0.3C265.4,61.9,265.1,61.8,264.9,61.5L264.9,61.5z M272.7,62.7
		c0.2-0.1,0.4-0.1,0.5-0.2c0.2-0.1,0.3-0.1,0.4-0.2c0.1-0.1,0.2-0.2,0.3-0.2c0,0.1,0,0.2,0.1,0.3c0,0.1,0.1,0.2,0.1,0.3l1-0.1
		c-0.1-0.2-0.1-0.4-0.2-0.6c0-0.2,0-0.3,0-0.5s0-0.3,0-0.5s0.1-0.3,0.1-0.5l1-3.7H275l-1,3.6c0,0.2-0.1,0.3-0.1,0.4s0,0.2,0,0.4
		c-0.2,0.2-0.4,0.3-0.7,0.5s-0.6,0.2-0.9,0.2c-0.2,0-0.4,0-0.5-0.1c-0.1-0.1-0.2-0.1-0.3-0.2c-0.1-0.1-0.1-0.2-0.1-0.3
		c0-0.1,0-0.2,0-0.4c0-0.2,0-0.5,0.1-0.7c0.1-0.2,0.1-0.4,0.2-0.6l0.8-2.8h-1.1l-0.8,3c0,0.2-0.1,0.4-0.1,0.6s-0.1,0.4-0.1,0.6
		c0,0.3,0,0.5,0.1,0.7c0.1,0.2,0.2,0.4,0.3,0.6c0.1,0.2,0.3,0.3,0.6,0.4s0.5,0.2,0.9,0.2C272.3,62.8,272.5,62.8,272.7,62.7
		L272.7,62.7z M279,56.7c-0.4,0.1-0.8,0.2-1.1,0.3l-2.1,7.7h1.1l0.5-2c0.1,0,0.2,0,0.3,0c0.1,0,0.2,0,0.3,0c0.7,0,1.4-0.1,1.9-0.3
		c0.5-0.2,1-0.5,1.3-0.9c0.4-0.4,0.6-0.8,0.8-1.3c0.2-0.5,0.3-1,0.3-1.5c0-0.3,0-0.6-0.1-0.8c-0.1-0.2-0.2-0.5-0.4-0.7
		c-0.2-0.2-0.4-0.3-0.7-0.4s-0.6-0.2-1-0.2C279.7,56.6,279.4,56.6,279,56.7L279,56.7z M278.8,57.6c0.1,0,0.2-0.1,0.4-0.1
		c0.2,0,0.4-0.1,0.5-0.1c0.3,0,0.5,0,0.7,0.1c0.2,0.1,0.3,0.2,0.4,0.3c0.1,0.1,0.2,0.3,0.2,0.4c0,0.2,0,0.3,0,0.5
		c0,0.4-0.1,0.8-0.2,1.2s-0.3,0.7-0.6,1s-0.6,0.5-0.9,0.7c-0.4,0.2-0.8,0.2-1.2,0.2c-0.1,0-0.2,0-0.3,0c-0.1,0-0.2,0-0.3,0
		L278.8,57.6L278.8,57.6z"/>
	<path class="st0" d="M200.2,61.7c-0.3-0.1-0.6-0.2-0.7-0.3l-0.5,0.9c0.1,0.1,0.2,0.1,0.3,0.2c0.1,0.1,0.3,0.1,0.5,0.2
		c0.2,0.1,0.4,0.1,0.7,0.2c0.3,0,0.5,0.1,0.9,0.1c0.5,0,0.9-0.1,1.3-0.2c0.4-0.1,0.8-0.3,1.1-0.5c0.3-0.2,0.5-0.5,0.7-0.8
		s0.3-0.7,0.3-1.1c0-0.3,0-0.6-0.1-0.8c-0.1-0.2-0.2-0.4-0.4-0.6c-0.2-0.2-0.3-0.3-0.5-0.4c-0.2-0.1-0.4-0.2-0.7-0.3
		c-0.2-0.1-0.4-0.2-0.5-0.3c-0.2-0.1-0.3-0.2-0.4-0.3c-0.1-0.1-0.2-0.2-0.3-0.3c-0.1-0.1-0.1-0.3-0.1-0.5c0-0.2,0-0.4,0.1-0.6
		s0.2-0.3,0.4-0.4c0.2-0.1,0.4-0.2,0.6-0.2s0.5-0.1,0.7-0.1c0.4,0,0.8,0,1,0.1s0.5,0.2,0.6,0.3l0.5-0.9c-0.1-0.1-0.2-0.1-0.3-0.2
		c-0.1-0.1-0.3-0.1-0.5-0.2s-0.4-0.1-0.6-0.1c-0.2,0-0.4-0.1-0.7-0.1c-0.5,0-1,0.1-1.4,0.2s-0.7,0.3-1,0.5c-0.3,0.2-0.5,0.4-0.6,0.7
		c-0.1,0.3-0.2,0.6-0.2,0.9c0,0.3,0,0.6,0.1,0.8c0.1,0.2,0.2,0.4,0.4,0.6c0.1,0.2,0.3,0.3,0.5,0.4s0.4,0.2,0.5,0.3
		c0.2,0.1,0.4,0.2,0.6,0.3c0.2,0.1,0.3,0.2,0.5,0.3s0.2,0.2,0.3,0.4c0.1,0.1,0.1,0.3,0.1,0.5c0,0.3-0.1,0.5-0.2,0.7
		s-0.3,0.3-0.5,0.4s-0.4,0.2-0.6,0.2c-0.2,0.1-0.5,0.1-0.7,0.1C201,61.8,200.6,61.8,200.2,61.7L200.2,61.7z M208.6,62.6l0.8-3.1
		c0.8-0.8,1.5-1.6,2.1-2.4c0.7-0.8,1.3-1.5,1.9-2.3h-1.3c-0.4,0.6-0.9,1.2-1.5,1.9c-0.5,0.6-1.1,1.2-1.6,1.8
		c-0.2-0.6-0.4-1.2-0.6-1.8c-0.2-0.6-0.3-1.2-0.5-1.9h-1.2c0.2,0.8,0.4,1.5,0.7,2.3c0.2,0.8,0.5,1.6,0.8,2.4l-0.8,3.1H208.6
		L208.6,62.6z M213.2,61.7c-0.3-0.1-0.6-0.2-0.7-0.3l-0.5,0.9c0.1,0.1,0.2,0.1,0.3,0.2c0.1,0.1,0.3,0.1,0.5,0.2
		c0.2,0.1,0.4,0.1,0.7,0.2c0.3,0,0.5,0.1,0.9,0.1c0.5,0,0.9-0.1,1.3-0.2c0.4-0.1,0.8-0.3,1.1-0.5c0.3-0.2,0.5-0.5,0.7-0.8
		s0.3-0.7,0.3-1.1c0-0.3,0-0.6-0.1-0.8c-0.1-0.2-0.2-0.4-0.4-0.6c-0.2-0.2-0.3-0.3-0.5-0.4c-0.2-0.1-0.4-0.2-0.7-0.3
		c-0.2-0.1-0.4-0.2-0.5-0.3s-0.3-0.2-0.4-0.3c-0.1-0.1-0.2-0.2-0.3-0.3c-0.1-0.1-0.1-0.3-0.1-0.5c0-0.2,0-0.4,0.1-0.6
		s0.2-0.3,0.4-0.4c0.2-0.1,0.4-0.2,0.6-0.2s0.5-0.1,0.7-0.1c0.4,0,0.8,0,1,0.1s0.5,0.2,0.6,0.3l0.5-0.9c-0.1-0.1-0.2-0.1-0.3-0.2
		c-0.1-0.1-0.3-0.1-0.5-0.2s-0.4-0.1-0.6-0.1c-0.2,0-0.4-0.1-0.7-0.1c-0.5,0-1,0.1-1.4,0.2s-0.7,0.3-1,0.5c-0.3,0.2-0.5,0.4-0.6,0.7
		c-0.1,0.3-0.2,0.6-0.2,0.9c0,0.3,0,0.6,0.1,0.8c0.1,0.2,0.2,0.4,0.4,0.6c0.1,0.2,0.3,0.3,0.5,0.4s0.4,0.2,0.5,0.3
		c0.2,0.1,0.4,0.2,0.6,0.3c0.2,0.1,0.3,0.2,0.5,0.3s0.2,0.2,0.3,0.4c0.1,0.1,0.1,0.3,0.1,0.5c0,0.3-0.1,0.5-0.2,0.7
		s-0.3,0.3-0.5,0.4c-0.2,0.1-0.4,0.2-0.6,0.2c-0.2,0.1-0.5,0.1-0.7,0.1C213.9,61.8,213.5,61.8,213.2,61.7L213.2,61.7z M220,54.8
		l-0.2,0.9h2.5l-1.9,6.9h1.1l1.9-6.9h2.5l0.2-0.9H220L220,54.8z M230.4,62.6l0.2-0.9h-4l0.8-2.8h3.3l0.2-0.9h-3.3l0.6-2.4h3.7
		l0.2-0.9h-4.9l-2.1,7.8L230.4,62.6L230.4,62.6z M237.2,60.6c0,0.3,0.1,0.7,0.1,1s0.1,0.7,0.1,1h1.2c-0.1-0.8-0.2-1.6-0.2-2.3
		c-0.1-0.7-0.1-1.4-0.2-2c-0.1-0.6-0.2-1.2-0.3-1.8c-0.1-0.6-0.2-1.2-0.3-1.7h-1.1c-0.9,1.1-1.7,2.3-2.6,3.6s-1.8,2.7-2.7,4.2h1.3
		l1.2-2L237.2,60.6L237.2,60.6z M234.1,59.7c0.5-0.9,1-1.6,1.4-2.2s0.8-1.1,1.1-1.5c0.1,0.6,0.2,1.3,0.3,1.9
		c0.1,0.6,0.1,1.2,0.2,1.8L234.1,59.7L234.1,59.7z M247.4,59.5c-0.2,1-0.5,2.1-0.7,3.2h1.1c0.3-1.3,0.6-2.6,0.8-3.9
		c0.2-1.3,0.5-2.6,0.6-3.9h-1.1c-0.3,0.3-0.6,0.7-0.9,1.2s-0.7,0.9-1,1.4c-0.4,0.5-0.7,1-1.1,1.5c-0.4,0.5-0.7,0.9-1,1.3
		c-0.1-0.4-0.1-0.8-0.2-1.3c-0.1-0.5-0.2-1-0.3-1.5c-0.1-0.5-0.2-1-0.3-1.4c-0.1-0.4-0.2-0.8-0.3-1.2H242c-0.2,0.6-0.4,1.2-0.7,1.8
		c-0.2,0.6-0.5,1.3-0.7,1.9s-0.5,1.3-0.7,2c-0.2,0.7-0.4,1.4-0.6,2.1h1.1c0.3-1.1,0.6-2.1,1-3.1c0.3-1,0.7-2,1-3
		c0,0.2,0.1,0.4,0.1,0.6c0,0.3,0.1,0.6,0.2,0.9c0.1,0.3,0.1,0.7,0.2,1s0.1,0.7,0.2,1s0.1,0.6,0.2,0.9c0,0.3,0.1,0.5,0.1,0.7h0.9
		c0.1-0.2,0.3-0.4,0.5-0.7c0.2-0.3,0.4-0.6,0.6-0.9c0.2-0.3,0.5-0.7,0.7-1c0.2-0.3,0.5-0.7,0.7-1c0.2-0.3,0.4-0.6,0.6-0.9
		c0.2-0.3,0.4-0.5,0.5-0.6C247.8,57.4,247.6,58.4,247.4,59.5L247.4,59.5z"/>
	<path class="st0" d="M163.5,56.7c-0.4,0.1-0.8,0.2-1.1,0.3l-2.1,7.7h1.1l0.6-2c0.1,0,0.2,0,0.3,0c0.1,0,0.2,0,0.3,0
		c0.7,0,1.4-0.1,1.9-0.3c0.5-0.2,1-0.5,1.3-0.9c0.4-0.4,0.6-0.8,0.8-1.3c0.2-0.5,0.3-1,0.3-1.5c0-0.3,0-0.6-0.1-0.8
		c-0.1-0.2-0.2-0.5-0.4-0.7c-0.2-0.2-0.4-0.3-0.7-0.4s-0.6-0.2-1-0.2C164.3,56.6,163.9,56.6,163.5,56.7L163.5,56.7z M163.4,57.6
		c0.1,0,0.2-0.1,0.4-0.1c0.2,0,0.4-0.1,0.6-0.1c0.3,0,0.5,0,0.7,0.1s0.3,0.2,0.4,0.3c0.1,0.1,0.2,0.3,0.2,0.4c0,0.2,0.1,0.3,0.1,0.5
		c0,0.4-0.1,0.8-0.2,1.2s-0.3,0.7-0.6,1s-0.6,0.5-0.9,0.7c-0.4,0.2-0.8,0.2-1.2,0.2c-0.1,0-0.2,0-0.3,0c-0.1,0-0.2,0-0.3,0
		L163.4,57.6L163.4,57.6z M172.6,62.6c-0.1-0.2-0.1-0.4-0.2-0.6s0-0.3,0-0.5c0-0.2,0-0.3,0.1-0.5s0.1-0.3,0.1-0.5l1-3.6
		c-0.2-0.1-0.4-0.2-0.7-0.2s-0.5-0.1-0.8-0.1c-0.7,0-1.4,0.1-1.9,0.3c-0.5,0.2-1,0.5-1.4,0.9s-0.6,0.8-0.8,1.3s-0.3,1-0.3,1.5
		c0,0.3,0,0.6,0.1,0.8s0.2,0.5,0.3,0.7c0.2,0.2,0.4,0.3,0.6,0.4s0.6,0.2,0.9,0.2c0.4,0,0.8-0.1,1.1-0.2s0.5-0.3,0.7-0.4
		c0,0.1,0.1,0.2,0.1,0.3s0.1,0.2,0.1,0.3L172.6,62.6L172.6,62.6z M169.4,61.8c-0.1-0.1-0.2-0.2-0.3-0.3c-0.1-0.1-0.1-0.3-0.2-0.4
		s0-0.3,0-0.5c0-0.4,0.1-0.8,0.2-1.2s0.4-0.7,0.6-1c0.3-0.3,0.6-0.5,0.9-0.7c0.4-0.2,0.8-0.2,1.2-0.2c0.1,0,0.1,0,0.2,0
		c0.1,0,0.2,0,0.2,0l-0.8,2.8c0,0.1-0.1,0.3-0.1,0.4s0,0.3-0.1,0.4c-0.2,0.2-0.4,0.3-0.6,0.5s-0.5,0.2-0.9,0.2
		C169.7,61.9,169.5,61.8,169.4,61.8L169.4,61.8z M176.4,56.7c-0.4,0.1-0.7,0.2-1,0.2l-1.5,5.7h1.1l1.4-5c0.1,0,0.3-0.1,0.4-0.1
		s0.3,0,0.5,0c0.2,0,0.4,0,0.6,0.1c0.2,0,0.4,0.1,0.6,0.1l0.3-0.9c-0.1,0-0.1,0-0.2-0.1c-0.1,0-0.2,0-0.3-0.1s-0.2,0-0.4,0
		c-0.1,0-0.2,0-0.3,0C177.2,56.6,176.8,56.7,176.4,56.7L176.4,56.7z M181.4,62.7c0.3-0.1,0.5-0.2,0.6-0.2l-0.1-0.9
		c-0.1,0.1-0.3,0.1-0.5,0.2c-0.2,0.1-0.5,0.1-0.7,0.1c-0.3,0-0.6-0.1-0.7-0.2c-0.1-0.1-0.2-0.3-0.2-0.5c0-0.3,0.1-0.6,0.2-0.9
		l0.7-2.6h2.1l0.2-0.9h-2.1l0.5-1.8l-1.2,0.2l-1.4,5c-0.1,0.5-0.2,0.9-0.2,1.2c0,0.5,0.1,0.8,0.4,1.1c0.3,0.2,0.7,0.4,1.3,0.4
		C180.8,62.8,181.1,62.7,181.4,62.7L181.4,62.7z M189.7,62.4c0.5-0.3,0.8-0.6,1.1-1s0.5-0.8,0.6-1.3c0.1-0.5,0.2-0.9,0.2-1.4
		c0-0.6-0.2-1.1-0.5-1.5c-0.4-0.4-0.9-0.6-1.5-0.6c-0.6,0-1.2,0.1-1.6,0.4c-0.5,0.3-0.8,0.6-1.1,1s-0.5,0.8-0.6,1.3
		c-0.1,0.5-0.2,0.9-0.2,1.4c0,0.6,0.2,1.1,0.5,1.5c0.4,0.4,0.9,0.6,1.5,0.6S189.3,62.6,189.7,62.4L189.7,62.4z M187.4,61.5
		c-0.2-0.2-0.2-0.5-0.2-0.9c0-0.3,0.1-0.7,0.2-1.1c0.1-0.4,0.3-0.7,0.5-1c0.2-0.3,0.4-0.6,0.7-0.8c0.3-0.2,0.6-0.3,1-0.3
		c0.4,0,0.7,0.1,0.9,0.3c0.2,0.2,0.2,0.5,0.2,0.9c0,0.3-0.1,0.7-0.2,1.1c-0.1,0.4-0.3,0.7-0.5,1c-0.2,0.3-0.4,0.6-0.7,0.8
		c-0.3,0.2-0.6,0.3-1,0.3C187.8,61.9,187.5,61.8,187.4,61.5L187.4,61.5z M195.1,56.2c0.1-0.2,0.1-0.4,0.2-0.6s0.2-0.3,0.3-0.5
		c0.1-0.1,0.3-0.2,0.5-0.3s0.4-0.1,0.7-0.1c0.3,0,0.5,0,0.7,0.1s0.3,0.1,0.3,0.1l0.5-0.8c-0.1-0.1-0.3-0.1-0.6-0.2
		c-0.2-0.1-0.5-0.1-0.8-0.1c-0.4,0-0.8,0.1-1.1,0.2s-0.6,0.3-0.8,0.5s-0.4,0.4-0.6,0.7s-0.3,0.6-0.4,1l-1.4,5.2
		c-0.1,0.4-0.2,0.8-0.3,1.1c-0.1,0.3-0.2,0.5-0.2,0.7c-0.1,0.2-0.2,0.4-0.4,0.6c-0.1,0.2-0.3,0.4-0.6,0.7l1,0.1
		c0.3-0.3,0.5-0.5,0.7-0.8c0.2-0.2,0.3-0.5,0.4-0.8c0.1-0.3,0.2-0.6,0.3-0.8c0.1-0.3,0.2-0.6,0.3-1l1-3.7h2.1l0.2-0.9H195
		L195.1,56.2L195.1,56.2z"/>
</g>
</svg>
