<svg width="59" height="36" viewBox="0 0 59 36" fill="none" xmlns="http://www.w3.org/2000/svg">
<path d="M22.3011 15.6316C21.2546 15.6316 20.5903 16.3116 20.3838 17.2131H24.1075C23.9811 16.2177 23.2829 15.6316 22.3011 15.6316Z" fill="#F72717"/>
<path d="M12.3494 16.0269C11.0177 16.0269 10.1777 16.9437 10.1777 18.2252C10.1777 19.4913 11.0331 20.439 12.3494 20.439C13.6656 20.439 14.5518 19.5375 14.5518 18.2252C14.5518 16.913 13.6641 16.0269 12.3494 16.0269Z" fill="#F72717"/>
<path d="M39.2236 13.924C37.2245 13.924 35.6679 14.7209 35.4136 16.7901C35.3951 16.7916 35.4259 16.7901 35.4074 16.7901C34.7786 7.41353 27.3682 0 17.8154 0C10.2663 0 3.80383 4.63211 1.11587 11.2026H7.51673L7.18382 13.3533H2.16085V15.6316H6.70911L6.36079 17.7039H2.16085V19.033C2.16085 19.8392 2.50917 20.2191 3.175 20.2191H7.46895L7.12063 22.3698H2.36584C2.13465 22.3698 1.91425 22.3483 1.70464 22.3114V22.3129C1.70464 22.3129 0.881601 22.2237 0.371444 21.5622C0.359114 21.5468 0.151044 21.3006 0.0493203 20.896C0.0231189 20.7899 0.0200364 20.7837 0 20.7007C0.0339077 20.9683 0.0909345 21.3283 0.117136 21.4606C0.262014 22.2114 0.445425 22.8467 0.462378 22.8913C2.59857 30.4541 9.55582 36 17.8154 36C26.2646 36 33.4022 30.1987 35.3581 22.3714H32.9337V17.9746C32.9337 16.7885 32.4744 16.0285 31.3015 16.0285C30.1286 16.0285 29.6693 16.7885 29.6693 17.9746V22.3714H27.2449V17.3731C27.2449 14.984 28.988 13.9256 31.3015 13.9256C33.6149 13.9256 35.3581 14.9855 35.3581 17.3731L35.3565 22.3714H37.7964V17.9746C37.7964 16.7885 38.1138 16.0285 39.2698 16.0285C39.6351 16.0285 40.0774 16.1393 40.2362 16.2178L40.6955 14.0979C40.4288 14.0656 39.7476 13.924 39.2236 13.924ZM16.9924 17.7362C16.9924 20.7576 15.2015 22.5283 12.2376 22.5283C9.49571 22.5283 7.64157 20.693 7.64157 18.2254C7.64157 15.647 9.40015 13.9225 12.0311 13.9225C13.2348 13.9225 14.1226 14.3963 14.5665 14.8717V11.2026H16.9909V17.7362H16.9924ZM23.1097 20.7099C23.8233 20.7099 24.4829 20.5037 25.1025 20.2191L24.9006 22.1329C24.204 22.4175 23.364 22.5283 22.524 22.5283C19.7343 22.5283 17.7692 20.8991 17.7692 18.1315C17.7692 15.727 19.5278 13.924 22.2219 13.924C25.2644 13.924 26.7856 15.8532 26.7224 18.8269H20.4479C20.6853 20.1884 21.9846 20.7099 23.1097 20.7099Z" fill="#F72717"/>
<path d="M44.7213 13.9241C42.0271 13.9241 40.2686 15.7271 40.2686 18.1316C40.2686 20.8992 42.2337 22.5283 45.0233 22.5283C45.8633 22.5283 46.7033 22.4176 47.4 22.133L47.6019 20.2192C46.9838 20.5038 46.3226 20.7099 45.6106 20.7099C44.4854 20.7099 43.1862 20.1884 42.9488 18.8269H49.2248C49.2849 15.8532 47.7637 13.9241 44.7213 13.9241ZM42.8825 17.2147C43.0891 16.3132 43.7549 15.6332 44.7999 15.6332C45.7832 15.6332 46.4798 16.2178 46.6062 17.2147H42.8825Z" fill="#F72717"/>
<path d="M56.4181 11.2026V14.8717C55.9742 14.3979 55.0864 13.9225 53.8827 13.9225C51.2517 13.9225 49.4932 15.6471 49.4932 18.2254C49.4932 20.693 51.3473 22.5283 54.0892 22.5283C57.0531 22.5283 58.844 20.7561 58.844 17.7362V11.2026H56.4181ZM54.1986 20.4407C52.8839 20.4407 52.027 19.4915 52.027 18.227C52.027 16.9455 52.867 16.0286 54.1986 16.0286C55.5133 16.0286 56.4011 16.9147 56.4011 18.227C56.4026 19.5392 55.5149 20.4407 54.1986 20.4407Z" fill="#F72717"/>
</svg>
