<?xml version="1.0" encoding="utf-8"?>
<!-- Generator: Adobe Illustrator 16.0.0, SVG Export Plug-In . SVG Version: 6.00 Build 0)  -->
<!DOCTYPE svg PUBLIC "-//W3C//DTD SVG 1.1//EN" "http://www.w3.org/Graphics/SVG/1.1/DTD/svg11.dtd">
<svg version="1.1" id="Layer_1" xmlns="http://www.w3.org/2000/svg" xmlns:xlink="http://www.w3.org/1999/xlink" x="0px" y="0px"
	 width="163.151px" height="100px" viewBox="0 0 163.151 100" enable-background="new 0 0 163.151 100" xml:space="preserve">
<g>
	<g>
		<path fill="#E72327" d="M62.444,43.545c-2.903,0-4.748,1.89-5.319,4.395h10.326C67.099,45.173,65.166,43.545,62.444,43.545"/>
		<path fill="#E72327" d="M34.849,44.869c-3.691,0-6.019,2.549-6.019,6.11c0,3.514,2.371,6.148,6.019,6.148s6.108-2.502,6.108-6.148
			C40.957,47.331,38.496,44.869,34.849,44.869"/>
		<path fill="#E72327" d="M64.684,57.676c1.976,0,3.809-0.572,5.524-1.363l-0.56,5.318c-1.935,0.791-4.262,1.098-6.592,1.098
			c-7.732,0-13.182-4.525-13.182-12.217c0-6.678,4.88-11.688,12.346-11.688c8.438,0,12.657,5.361,12.48,13.623H57.303
			C57.96,56.227,61.562,57.676,64.684,57.676 M47.724,49.414c0,8.393-4.965,13.315-13.181,13.315
			c-7.603,0-12.744-5.098-12.744-11.951c0-7.163,4.877-11.953,12.171-11.953c3.34,0,5.8,1.319,7.03,2.638V31.267h6.723V49.414z
			 M109.365,38.824c-5.543,0-9.861,2.214-10.564,7.961c-0.053,0.003,0.035-0.001-0.02,0.002c-1.74-26.049-22.292-46.64-48.777-46.64
			c-20.934,0-38.851,12.867-46.3,31.119h17.745l-0.923,5.976H6.598v6.329h12.611l-0.968,5.754H6.598v3.691
			c0,2.24,0.966,3.295,2.812,3.295h11.908l-0.967,5.977H7.168c-0.643,0-1.252-0.061-1.834-0.164v0.006c0,0-2.284-0.252-3.695-2.088
			C1.604,60,1.031,59.316,0.747,58.191c-0.074-0.295-0.079-0.312-0.139-0.541c0.092,0.744,0.252,1.74,0.323,2.111
			c0.4,2.086,0.909,3.852,0.957,3.975c5.921,21.008,25.211,36.412,48.116,36.412c23.426,0,43.214-16.113,48.64-37.859h-6.721V50.074
			c0-3.297-1.273-5.406-4.521-5.406c-3.256,0-4.529,2.109-4.529,5.406v12.215H76.15V48.403c0-6.635,4.833-9.579,11.251-9.579
			c6.412,0,11.246,2.944,11.246,9.579l-0.004,13.886h6.766V50.074c0-3.297,0.877-5.406,4.084-5.406c1.012,0,2.244,0.309,2.682,0.528
			l1.273-5.889C112.703,39.22,110.812,38.824,109.365,38.824"/>
		<path fill="#E72327" d="M119.513,48.157c0.572-2.504,2.418-4.393,5.316-4.393c2.727,0,4.658,1.626,5.01,4.393H119.513z
			 M124.609,39.019c-7.467,0-12.348,5.009-12.348,11.688c0,7.689,5.449,12.215,13.184,12.215c2.328,0,4.658-0.309,6.588-1.1
			l0.561-5.314c-1.715,0.791-3.545,1.361-5.523,1.361c-3.119,0-6.721-1.451-7.381-5.229h17.4
			C137.263,44.378,133.048,39.019,124.609,39.019"/>
		<path fill="#E72327" d="M150.884,55.957c-3.646,0-6.018-2.635-6.018-6.149c0-3.56,2.326-6.108,6.018-6.108
			c3.646,0,6.107,2.461,6.107,6.108C156.992,53.453,154.531,55.957,150.884,55.957 M157.037,30.299v10.194
			c-1.229-1.318-3.691-2.637-7.033-2.637c-7.293,0-12.168,4.79-12.168,11.953c0,6.852,5.139,11.95,12.74,11.95
			c8.217,0,13.184-4.922,13.184-13.312V30.299H157.037z"/>
	</g>
</g>
</svg>
