<?xml version="1.0" encoding="UTF-8"?>
<svg id="logo-engie-blue" xmlns="http://www.w3.org/2000/svg" version="1.1" viewBox="0 0 319.13 113.38" width="319" height="113">
  <!-- Generator: Adobe Illustrator 29.6.0, SVG Export Plug-In . SVG Version: 2.1.1 Build 207)  -->
  <defs>
    <style>
      .st0, .st1 {
        fill: #fff;
      }

      .st1 {
        fill-rule: evenodd;
      }
    </style>
  </defs>
  <path class="st1" d="M319.13,45.82C276.37,17.27,220.59,0,159.57,0S42.76,17.27,0,45.82c42.53-14.14,92.25-22.91,159.57-22.91s117.04,8.77,159.56,22.91Z"/>
  <path class="st0" d="M135.1,60.66c-3.14,0-4.75,2.54-5.16,5.65-.46,3.44-2.27,15.35-2.67,18.37-.24,1.82-.37,3.71-2.13,4.49s-3.9-.42-5.72-2l-28.84-24.52c-1.49-1.29-3.39-2-5.36-2-4.08,0-8,2.53-8,8.72v38.35c-.15,2.55,1.78,4.74,4.33,4.89.1,0,.2,0,.3,0,2.62.07,4.82-1.94,5-4.55,0,0,3-18.27,3.33-20.31.42-2.37.79-4.23,3.08-4.94,2.07-.64,4,.56,6.94,3.11s27.2,24.48,27.2,24.48c1.56,1.52,3.68,2.32,5.86,2.21,2.39,0,6.73-1,6.73-8.28v-38.2c0-3.54-2.22-5.48-4.89-5.48Z"/>
  <path class="st0" d="M309.11,101.53c-21.19,4.56-45.45-.31-45.45-15.31,0-11.33,10.51-15.94,18.79-16.61,8.69-.69,15.48,1.13,19,4.76,2.18,2.27,1.57,5.36-2.72,5.61-3.94.24-11.35.47-17.51.7-3.5.13-5.37,2-5.37,4.53,0,2,1.5,4.28,5.53,4.3,5.77,0,20.42.12,27.69.14,4.81,0,7.17-2.68,7.17-8.21,0-8.75-7.93-22-31.14-22-21,0-36.24,10.48-36.24,27.6,0,24.28,35.73,31.69,61.91,22.67,2.48-.85,4.73-2.64,4-5.41-.64-2.49-2.65-3.42-5.66-2.77Z"/>
  <path class="st0" d="M63.2,101.53c-21.2,4.56-45.45-.31-45.45-15.31,0-11.33,10.5-15.94,18.79-16.61,8.68-.69,15.47,1.13,19,4.76,2.18,2.27,1.57,5.36-2.71,5.61-3.95.24-11.36.47-17.52.7-3.5.13-5.37,2-5.37,4.53,0,2,1.5,4.28,5.53,4.3,5.77,0,20.43.12,27.7.14,4.8,0,7.17-2.68,7.17-8.21,0-8.75-7.94-22-31.15-22-21,0-36.24,10.48-36.24,27.6,0,24.28,35.73,31.69,61.92,22.67,2.48-.85,4.73-2.64,4-5.41-.65-2.49-2.66-3.42-5.67-2.77Z"/>
  <path class="st0" d="M227.37,78.18c.47,13.24,1.72,24.22,2.07,28.07.45,5,3,6.38,5.59,6.38s5.1-1.29,5.55-6.34c.42-4.24,1.64-17.29,2.25-30.29.08-.42-.2-.82-.62-.9-.13-.02-.26-.01-.38.03l-13.8,2.23c-.39.08-.66.42-.66.82Z"/>
  <path class="st0" d="M235.07,59.41c-4.21-.26-7.83,2.93-8.09,7.14-.02.29-.02.58,0,.86,0,.57.07,2.13.16,4.08.03.47.43.83.9.8.04,0,.07,0,.1-.01l14.4-2.34c.39-.06.69-.39.7-.79,0-.68,0-1.37.06-1.7.17-4.27-3.15-7.87-7.42-8.05-.27-.01-.53,0-.8,0Z"/>
  <path class="st0" d="M213.91,80.52c-4.8,0-19.62.12-29.1.14-4.6,0-5.75,2.48-5.75,4.53,0,1.78,1.24,4.08,5.53,4.3,6.53.34,14.85.73,18.69.93,5.17.26,5.24,2.92,3.49,5.2-3.51,4.56-12.05,7.55-20.9,7.55-11.58,0-24.32-6.58-24.32-17,0-9.8,10.91-20.59,43.3-16,2.85.4,5.65-.11,6.35-2.75.75-2.8-1.08-4.6-4.76-5.57-6.68-1.71-13.55-2.53-20.44-2.44-21.81,0-39.29,10.41-39.29,27.23,0,18,17.42,26.74,39.14,26.74,24.25,0,36.06-13.2,36.06-24.74.02-5.87-2.97-8.12-8-8.12Z"/>
</svg>