<svg width="206" height="54" viewBox="0 0 206 54" fill="none" xmlns="http://www.w3.org/2000/svg">
<g id="Layer_1" clip-path="url(#clip0_202_717)">
<g id="Group">
<g id="Group_2">
<path id="Vector" d="M65.4614 38.9006H68.5658V38.2863H65.4614V35.7062H69.1177V35.0889H64.8418V42.227H69.2811V41.6097H65.4614V38.9006Z" fill="#2A3C60"/>
<path id="Vector_2" d="M79.8122 41.5236L75.4284 35.1349H74.5098L74.5344 42.2116H75.1541L75.1294 35.7891L79.5255 42.1932H80.4319V35.1165H79.8122V41.5236Z" fill="#2A3C60"/>
<path id="Vector_3" d="M86.979 38.9006H90.0803V38.2863H86.979V35.7062H90.6322V35.0889H86.3594V42.227H90.7986V41.6097H86.979V38.9006Z" fill="#2A3C60"/>
<path id="Vector_4" d="M101.121 37.3525C101.121 36.0226 100.113 35.095 98.6728 35.095H96.0586V42.2116H96.6782V39.6101H98.6728C98.7037 39.6101 98.7345 39.6101 98.7653 39.6101L100.365 42.2116H101.09L99.4281 39.5149C100.452 39.2415 101.117 38.4091 101.117 37.3525H101.121ZM96.6752 35.7093H98.6697C99.7611 35.7093 100.495 36.3696 100.495 37.3494C100.495 38.3293 99.7611 38.9896 98.6697 38.9896H96.6752V35.7062V35.7093Z" fill="#2A3C60"/>
<path id="Vector_5" d="M110.433 39.1064H111.867V41.4438C111.306 41.6373 110.6 41.7632 110.054 41.7632C108.204 41.7632 106.913 40.4947 106.913 38.6764C106.913 36.8581 108.229 35.6479 110.113 35.6479C110.668 35.6479 111.349 35.7492 111.768 35.8936L112.086 36.0011V35.35L111.922 35.2947C111.38 35.1134 110.621 35.0305 110.113 35.0305C107.896 35.0305 106.29 36.5632 106.29 38.6764C106.29 40.7896 107.875 42.3806 110.054 42.3806C110.766 42.3806 111.685 42.1963 112.339 41.923L112.487 41.8615V38.4921H110.433V39.1095V39.1064Z" fill="#2A3C60"/>
<path id="Vector_6" d="M120.258 38.7132L118.011 35.1165H117.283L119.95 39.352V42.2116H120.569V39.3582L123.248 35.1165H122.518L120.258 38.7132Z" fill="#2A3C60"/>
<path id="Vector_7" d="M136.234 38.3261C135.155 38.0466 134.495 37.8347 134.495 36.9993C134.495 36.1147 135.244 35.5864 136.502 35.5864C136.909 35.5864 137.399 35.6847 137.753 35.8352L138.086 35.9795V35.3069L137.938 35.2454C137.519 35.0734 136.98 34.969 136.502 34.969C134.905 34.969 133.872 35.7645 133.872 36.9993C133.872 38.3538 135.108 38.6732 136.132 38.9404C137.242 39.2261 137.914 39.4595 137.914 40.3318C137.914 41.5359 136.684 41.7171 135.95 41.7171C135.293 41.7171 134.729 41.6126 134.227 41.4007L133.894 41.2594V41.9321L134.042 41.9935C134.606 42.2208 135.229 42.3344 135.947 42.3344C137.568 42.3344 138.536 41.585 138.536 40.3349C138.536 38.9159 137.288 38.5964 136.234 38.3292V38.3261Z" fill="#2A3C60"/>
<path id="Vector_8" d="M144.443 38.9006H147.547V38.2863H144.443V35.7062H148.099V35.0889H143.823V42.227H148.266V41.6097H144.443V38.9006Z" fill="#2A3C60"/>
<path id="Vector_9" d="M158.584 37.3525C158.584 36.0226 157.576 35.095 156.137 35.095H153.522V42.2116H154.142V39.6101H156.137C156.168 39.6101 156.198 39.6101 156.229 39.6101L157.832 42.2116H158.557L156.895 39.5149C157.919 39.2415 158.584 38.4091 158.584 37.3525ZM154.142 35.7093H156.137C157.228 35.7093 157.962 36.3696 157.962 37.3494C157.962 38.3293 157.228 38.9896 156.137 38.9896H154.142V35.7062V35.7093Z" fill="#2A3C60"/>
<path id="Vector_10" d="M166.87 41.5758H166.383L163.966 35.1165H163.31L165.955 42.1932H167.302L169.854 35.1165H169.198L166.87 41.5758Z" fill="#2A3C60"/>
<path id="Vector_11" d="M175.617 35.1165H174.997V42.2085H175.617V35.1165Z" fill="#2A3C60"/>
<path id="Vector_12" d="M184.89 34.9998C182.757 34.9998 181.147 36.5908 181.147 38.6978C181.147 40.8049 182.763 42.3621 184.902 42.3621C185.371 42.3621 185.91 42.2946 186.342 42.184L186.521 42.1379V41.496L186.219 41.5789C185.836 41.6833 185.331 41.7478 184.899 41.7478C183.083 41.7478 181.764 40.467 181.764 38.7009C181.764 36.9348 183.108 35.6202 184.887 35.6202C185.331 35.6202 185.827 35.6939 186.206 35.8137L186.518 35.912V35.2547L186.345 35.2055C185.901 35.0796 185.356 35.0028 184.887 35.0028L184.89 34.9998Z" fill="#2A3C60"/>
<path id="Vector_13" d="M192.458 38.9006H195.563V38.2863H192.458V35.7062H196.115V35.0889H191.839V42.227H196.278V41.6097H192.458V38.9006Z" fill="#2A3C60"/>
<path id="Vector_14" d="M203.698 38.3261C202.619 38.0466 201.96 37.8347 201.96 36.9993C201.96 36.1147 202.709 35.5864 203.967 35.5864C204.373 35.5864 204.864 35.6847 205.218 35.8352L205.551 35.9795V35.3069L205.403 35.2454C204.984 35.0734 204.444 34.969 203.967 34.969C202.37 34.969 201.337 35.7645 201.337 36.9993C201.337 38.3538 202.573 38.6732 203.597 38.9404C204.706 39.223 205.382 39.4595 205.382 40.3318C205.382 41.5359 204.152 41.7171 203.418 41.7171C202.761 41.7171 202.197 41.6126 201.695 41.4007L201.362 41.2594V41.9321L201.51 41.9935C202.074 42.2208 202.696 42.3344 203.415 42.3344C205.036 42.3344 206.004 41.585 206.004 40.3349C206.004 38.9159 204.753 38.5964 203.701 38.3292L203.698 38.3261Z" fill="#2A3C60"/>
</g>
<g id="Group_3">
<path id="Vector_15" d="M79.8947 19.4671C79.8947 15.0933 76.4882 11.6655 72.1353 11.6655C67.7823 11.6655 64.3789 15.0933 64.3789 19.4671C64.3789 23.8409 67.7854 27.2902 72.1353 27.2902C76.4851 27.2902 79.8947 23.8532 79.8947 19.4671ZM72.1384 25.4197C68.849 25.4197 66.2718 22.8059 66.2718 19.4671C66.2718 16.1284 68.849 13.5391 72.1384 13.5391C75.4277 13.5391 78.005 16.1438 78.005 19.4671C78.005 22.7905 75.4277 25.4197 72.1384 25.4197Z" fill="#2A3C60"/>
<path id="Vector_16" d="M101.062 16.7765C101.062 13.8801 98.8976 11.856 95.7994 11.856H90.2041V26.9585H92.0815V22.1148H95.559C98.6942 22.1148 101.059 19.8204 101.059 16.7765H101.062ZM95.559 20.2442H92.0815V13.7265H95.7994C97.8464 13.7265 99.172 14.9244 99.172 16.7765C99.172 18.816 97.6861 20.2411 95.562 20.2411L95.559 20.2442Z" fill="#2A3C60"/>
<path id="Vector_17" d="M120.332 11.939H109.209V13.7972H113.83V26.9586H115.711V13.7972H120.332V11.939Z" fill="#2A3C60"/>
<path id="Vector_18" d="M131.819 20.2349H138.123V18.3644H131.819V13.7387H139.245V11.8682H129.941V26.9922H139.581V25.1217H131.819V20.2349Z" fill="#2A3C60"/>
<path id="Vector_19" d="M160.298 16.7765C160.298 13.9384 158.075 11.8774 155.011 11.8774H149.391V26.9554H151.268V21.6724H155.026L158.278 26.9554H160.483L157.027 21.3469C159.021 20.6558 160.298 18.9296 160.298 16.7734V16.7765ZM151.271 13.7511H155.014C157.045 13.7511 158.408 14.9674 158.408 16.7765C158.408 18.5856 157.042 19.8019 155.014 19.8019H151.271V13.7511Z" fill="#2A3C60"/>
<path id="Vector_20" d="M178.56 21.3499C180.558 20.6589 181.831 18.9327 181.831 16.7765C181.831 13.9384 179.608 11.8774 176.544 11.8774H170.924V26.9554H172.801V21.6724H176.559L179.812 26.9554H182.016L178.56 21.3469V21.3499ZM172.801 13.7511H176.544C178.575 13.7511 179.938 14.9674 179.938 16.7765C179.938 18.5856 178.572 19.8019 176.544 19.8019H172.801V13.7511Z" fill="#2A3C60"/>
<path id="Vector_21" d="M194.046 23.6628H202.301L203.532 26.9585H205.542L199.922 11.8928H196.426L190.806 26.9585H192.816L194.046 23.6628ZM198.621 13.7634L201.602 21.7892H194.742L197.724 13.7634H198.621Z" fill="#2A3C60"/>
</g>
</g>
<g id="Group_4">
<g id="Group_5">
<path id="Vector_22" d="M30.6248 10.7626L30.7913 10.824L33.0017 0.645098L32.8506 0.611311C32.0984 0.448522 31.4048 0.325662 30.7327 0.236588L30.5786 0.215088L29.2129 10.308L29.3393 10.3449C29.811 10.4831 30.2302 10.6182 30.6217 10.7595L30.6248 10.7626Z" fill="#F9BB32"/>
<path id="Vector_23" d="M4.4485 20.6344L0.989576 19.6853L0.949499 19.8327C0.820021 20.3027 0.702874 20.7726 0.604223 21.2303L0.570312 21.3808L3.73945 22.0719L3.79186 21.9582C3.99532 21.5128 4.17721 21.1443 4.35909 20.8033L4.4485 20.6344Z" fill="#F9BB32"/>
<path id="Vector_24" d="M17.2976 10.3234C17.7138 10.2036 18.1515 10.093 18.6016 9.99163L18.7928 9.94863L15.2075 2.72754L15.0687 2.79511C14.483 3.08383 13.9527 3.36641 13.4441 3.66435L13.3115 3.74113L17.1805 10.3571L17.2976 10.3234Z" fill="#F9BB32"/>
<path id="Vector_25" d="M28.4882 0.0337563L28.334 0.0276133C27.6774 -0.00310165 26.9807 -0.00617315 26.2655 0.0153273L26.1113 0.0214703L26.4073 9.7059L26.5337 9.72433C26.9437 9.78576 27.3753 9.86869 27.8531 9.97005L28.0319 10.01L28.4882 0.0337563Z" fill="#F9BB32"/>
<path id="Vector_26" d="M11.1538 5.15391C10.6945 5.48871 10.2259 5.85114 9.76656 6.23201L9.64941 6.3303L14.0208 11.5703L14.1287 11.5181C14.5326 11.3276 14.9488 11.1464 15.3619 10.9836L15.5468 10.9099L11.2771 5.06177L11.1538 5.15084V5.15391Z" fill="#F9BB32"/>
<path id="Vector_27" d="M4.8152 11.6133C4.49767 12.0679 4.20172 12.5194 3.9366 12.9494L3.85645 13.0815L8.16314 15.7015L8.24946 15.6186C8.57007 15.3053 8.89685 15.0012 9.22671 14.7156L9.37469 14.5865L4.90152 11.4905L4.81212 11.6164L4.8152 11.6133Z" fill="#F9BB32"/>
<path id="Vector_28" d="M7.75044 8.08421C7.36817 8.47122 6.9859 8.88587 6.58513 9.34659L6.4834 9.46331L10.9812 13.3426L11.0799 13.275C11.4529 13.017 11.8383 12.7682 12.2205 12.5379L12.3901 12.4365L7.85833 7.97363L7.75044 8.08421Z" fill="#F9BB32"/>
<path id="Vector_29" d="M2.52511 15.5571C2.33089 15.9717 2.13051 16.4294 1.92088 16.9546L1.8623 17.0959L5.70041 18.6286L5.77132 18.5303C6.0426 18.1463 6.30156 17.8023 6.5636 17.4798L6.68691 17.3262L2.58985 15.4158L2.52511 15.554V15.5571Z" fill="#F9BB32"/>
<path id="Vector_30" d="M20.4699 9.65999C20.8861 9.6047 21.3239 9.5617 21.8079 9.53099L21.999 9.5187L19.4711 1.0813L19.3231 1.1243C18.7497 1.29323 18.1547 1.49595 17.5043 1.74167L17.3594 1.79696L20.3466 9.67842L20.4669 9.66306L20.4699 9.65999Z" fill="#F9BB32"/>
<path id="Vector_31" d="M42.5148 22.6401C42.6628 23.1562 42.783 23.6783 42.8755 24.1913L42.9033 24.3418L52.6388 22.6033V22.4712C52.6049 21.6327 52.5186 20.7573 52.3799 19.8666L52.3521 19.6946L42.4717 22.4927L42.5148 22.6401Z" fill="#F9BB32"/>
<path id="Vector_32" d="M17.6155 39.8988C17.0605 39.4903 16.5395 39.0603 16.074 38.6211L15.8613 38.8422C16.3361 39.2968 16.854 39.7453 17.3997 40.1814L17.526 40.2797L17.7418 39.991L17.6185 39.8988H17.6155Z" fill="#F9BB32"/>
<path id="Vector_33" d="M31.9623 11.3032C32.3878 11.4905 32.8009 11.6902 33.1893 11.8898L33.3404 11.9697L37.3603 1.99959L37.2185 1.94123C36.5465 1.67094 35.8374 1.42215 35.1099 1.19793L34.9619 1.15186L31.8359 11.2448L31.9623 11.3001V11.3032Z" fill="#F9BB32"/>
<path id="Vector_34" d="M39.2015 37.4907C38.9178 37.8163 38.6743 38.0774 38.4338 38.317C38.2581 38.492 38.0762 38.6641 37.8943 38.8299L37.7803 38.9343L40.9772 42.4205L41.082 42.3652C41.4026 42.1963 41.6893 42.0366 41.9544 41.8799C42.3798 41.6311 42.8145 41.3516 43.2523 41.0506L43.4157 40.937L39.3032 37.374L39.2015 37.4907Z" fill="#F9BB32"/>
<path id="Vector_35" d="M38.7389 16.0394C38.9916 16.3035 39.2413 16.5892 39.5281 16.9424L39.6267 17.0622L48.2 10.0929L48.1075 9.97315C47.6574 9.3957 47.1765 8.83669 46.674 8.31147L46.3842 8.0166L38.4521 15.7476L38.7389 16.0394Z" fill="#F9BB32"/>
<path id="Vector_36" d="M34.3793 12.5595C34.7678 12.796 35.1593 13.0478 35.5385 13.312L35.671 13.4041L41.4328 4.07291L41.3003 3.99305C40.5974 3.56304 39.9376 3.19139 39.2779 2.86274L39.1392 2.79517L34.2529 12.4827L34.3762 12.5564L34.3793 12.5595Z" fill="#F9BB32"/>
<path id="Vector_37" d="M36.5809 14.0858C36.9446 14.3745 37.3084 14.6817 37.6629 15.0011L37.7801 15.1056L45.0925 6.79715L44.9754 6.6958C44.3958 6.189 43.7854 5.7037 43.1134 5.21226L42.99 5.12012L36.4668 13.9967L36.5839 14.0889L36.5809 14.0858Z" fill="#F9BB32"/>
<path id="Vector_38" d="M41.5813 20.1706C41.8033 20.6344 42.0037 21.1135 42.1763 21.5988L42.2287 21.7432L52.0568 18.2141L52.0228 18.0789C51.8163 17.2312 51.5604 16.3988 51.2614 15.6064L51.2028 15.4497L41.5166 20.0324L41.5813 20.1706Z" fill="#F9BB32"/>
<path id="Vector_39" d="M40.2523 17.8854C40.5329 18.2847 40.8042 18.7116 41.0539 19.1539L41.1309 19.2891L50.5644 13.9661L50.5027 13.8371C50.1297 13.0631 49.7135 12.3168 49.2696 11.6195L49.1833 11.4844L40.166 17.7625L40.2554 17.8884L40.2523 17.8854Z" fill="#F9BB32"/>
<path id="Vector_40" d="M23.7868 0.202857C23.0747 0.288859 22.4304 0.390219 21.82 0.510007L21.6689 0.540722L23.4446 9.48185H23.571C24.0458 9.49107 24.4836 9.50949 24.909 9.54021L25.097 9.55557L23.9441 0.1875L23.7899 0.205929L23.7868 0.202857Z" fill="#F9BB32"/>
<path id="Vector_41" d="M37.3082 39.3367C36.8242 39.736 36.3001 40.1168 35.7545 40.467L35.625 40.5499L37.7182 43.7934L37.8323 43.7566C38.6123 43.4955 39.3953 43.1822 40.1567 42.8259L40.3355 42.743L37.4254 39.2415L37.3082 39.3397V39.3367Z" fill="#F9BB32"/>
<path id="Vector_42" d="M35.1345 40.8447C34.5673 41.1734 33.9754 41.4683 33.3742 41.7232L33.2324 41.7846L34.4316 44.5951L34.5519 44.5735C35.3442 44.4415 36.1488 44.2572 36.9472 44.0268L37.1384 43.9715L35.2732 40.7649L35.1407 40.8417L35.1345 40.8447Z" fill="#F9BB32"/>
<path id="Vector_43" d="M30.1932 42.6938C29.518 42.8259 28.8306 42.915 28.1493 42.958L27.9951 42.9672L28.1092 44.6903L28.2356 44.7056C29.0094 44.8009 29.8016 44.8561 30.5909 44.8684H30.782L30.3473 42.6631L30.1962 42.6938H30.1932Z" fill="#F9BB32"/>
<path id="Vector_44" d="M40.7705 35.3622C40.4561 35.8721 40.1046 36.3758 39.7254 36.858L39.6299 36.9778L44.0815 40.4517L44.177 40.378C44.8491 39.8619 45.5057 39.2876 46.1315 38.6763L46.2734 38.5381L40.8538 35.2271L40.7736 35.3591L40.7705 35.3622Z" fill="#F9BB32"/>
<path id="Vector_45" d="M32.7399 41.972C32.111 42.2055 31.4636 42.4051 30.8132 42.5587L30.6621 42.5955L31.2047 44.8715H31.328C32.1449 44.8531 32.9496 44.7947 33.7264 44.6934L33.9176 44.6688L32.8817 41.9167L32.7368 41.972H32.7399Z" fill="#F9BB32"/>
<path id="Vector_46" d="M43.1037 27.8709C43.0729 28.433 43.0143 28.9951 42.928 29.5449L42.9033 29.6954L51.193 31.0069L51.2362 30.8902C51.5537 30.0578 51.8188 29.207 52.0223 28.3623L52.0655 28.1811L43.1099 27.7112L43.1006 27.8648L43.1037 27.8709Z" fill="#F9BB32"/>
<path id="Vector_47" d="M43.0234 25.2324C43.085 25.7699 43.1189 26.3197 43.122 26.8664V27.02L52.3212 26.9309L52.3427 26.805C52.4876 25.9449 52.5801 25.0604 52.6171 24.185L52.6264 24.0068L43.0049 25.0849L43.0234 25.2385V25.2324Z" fill="#F9BB32"/>
<path id="Vector_48" d="M41.9632 33.0063C41.7413 33.5561 41.4854 34.0967 41.2048 34.6157L41.1309 34.7509L46.9204 37.8685L47.0005 37.7794C47.5739 37.1528 48.1289 36.4617 48.6468 35.7338L48.7608 35.5741L42.0187 32.865L41.9601 33.0063H41.9632Z" fill="#F9BB32"/>
<path id="Vector_49" d="M42.7463 30.4846C42.6199 31.0467 42.4627 31.6088 42.2808 32.1524L42.2314 32.2968L49.3466 34.6956L49.4113 34.5912C49.8799 33.8356 50.3023 33.0524 50.666 32.263L50.7462 32.091L42.7802 30.3372L42.7463 30.4877V30.4846Z" fill="#F9BB32"/>
<path id="Vector_50" d="M19.8722 41.281C19.2001 40.9432 18.5496 40.5562 17.9423 40.1323L17.8159 40.0432L17.6094 40.3381L17.7265 40.4272C18.3431 40.8971 18.9843 41.3332 19.6317 41.7264L19.7735 41.8124L20.0109 41.3455L19.8722 41.2749V41.281Z" fill="#F9BB32"/>
<path id="Vector_51" d="M2.13056 34.1888C2.06891 33.811 2.01958 33.424 1.97951 33.0401L1.96101 32.865L0.681641 33.1691L0.718634 33.3196C0.817285 33.7342 0.915935 34.1151 1.02383 34.4837L1.06699 34.6311L2.15523 34.3209L2.13365 34.1857L2.13056 34.1888Z" fill="#F9BB32"/>
<path id="Vector_52" d="M27.557 42.9825C26.8572 43.004 26.1482 42.9764 25.4514 42.9057L25.2973 42.8904L25.1709 44.1067L25.2973 44.1405C26.0557 44.3401 26.8202 44.5029 27.5755 44.6196L27.7574 44.6473L27.7111 42.9795H27.557V42.9825Z" fill="#F9BB32"/>
<path id="Vector_53" d="M1.88402 29.9319C1.90252 29.5019 1.92718 29.1087 1.96726 28.7278L1.98576 28.5466L0.03125 28.6756L0.0404984 28.8292C0.0682438 29.2531 0.10832 29.6831 0.157646 30.1039L0.176142 30.2575L1.88094 30.0639L1.88711 29.9319H1.88402Z" fill="#F9BB32"/>
<path id="Vector_54" d="M4.68554 41.4284L4.60538 41.2871L4.21387 41.539L4.2971 41.668C4.48824 41.9598 4.67937 42.2516 4.88284 42.5372L4.97224 42.6631L5.3021 42.4328L5.22195 42.3099C5.03698 42.0243 4.85818 41.7263 4.68554 41.4284Z" fill="#F9BB32"/>
<path id="Vector_55" d="M2.88213 37.3465L2.82972 37.1868L2.08984 37.5001L2.1515 37.6414C2.29331 37.9731 2.44745 38.3109 2.62009 38.6703L2.68791 38.8085L3.29831 38.5198L3.24898 38.3877C3.12259 38.056 3.00544 37.7151 2.88521 37.3465H2.88213Z" fill="#F9BB32"/>
<path id="Vector_56" d="M22.3263 42.2699C21.6295 42.0549 20.939 41.7877 20.2731 41.4744L20.1344 41.4099L19.9062 41.8952L20.0296 41.9659C20.6893 42.3467 21.3768 42.6969 22.0796 43.0071L22.2369 43.0777L22.4742 42.316L22.3263 42.2699Z" fill="#F9BB32"/>
<path id="Vector_57" d="M7.21379 44.9392L6.97949 45.1419L7.23845 45.4245C7.33093 45.5289 7.4265 45.6334 7.52515 45.7347L7.74711 45.5228C7.63921 45.4092 7.53748 45.2955 7.43267 45.1788L7.2107 44.9392H7.21379Z" fill="#F9BB32"/>
<path id="Vector_58" d="M22.8004 42.4144L22.6525 42.3745L22.4336 43.167L22.56 43.2192C23.2505 43.5048 23.9812 43.7628 24.7365 43.984L24.9091 44.0362L25.0694 42.869L24.9153 42.8475C24.1939 42.7492 23.4818 42.6049 22.8035 42.4175L22.8004 42.4144Z" fill="#F9BB32"/>
<path id="Vector_59" d="M2.46024 25.8036C2.57431 25.3398 2.67604 24.9559 2.78394 24.5965L2.83943 24.4184L0.123466 24.145L0.108052 24.2986C0.0648923 24.7317 0.0309813 25.174 0.00631876 25.6531L-0.00292969 25.8067L2.42633 25.9296L2.45716 25.8067L2.46024 25.8036Z" fill="#F9BB32"/>
</g>
<g id="Group_6">
<path id="Vector_60" d="M48.4655 35.5402C48.1942 35.9242 47.9322 36.2682 47.6732 36.5938L47.5869 36.7013L51.573 38.5595L51.6192 38.4612C51.8289 38.0005 52.0323 37.5367 52.2296 37.0729L52.2728 36.9715L48.5179 35.4727L48.4686 35.5433L48.4655 35.5402Z" fill="#2A3C60"/>
<path id="Vector_61" d="M52.2631 20.9998L52.2755 21.1227L53.447 20.8432L53.0924 19.4702L52.0967 19.7559L52.1121 19.8511C52.1737 20.2289 52.2231 20.6159 52.2631 21.0029V20.9998Z" fill="#2A3C60"/>
<path id="Vector_62" d="M51.3596 16.6843L51.3966 16.7979L52.0471 16.5215L51.4798 15.3052L50.9619 15.5509L50.9958 15.643C51.1222 15.9748 51.2425 16.3249 51.3596 16.6843Z" fill="#2A3C60"/>
<path id="Vector_63" d="M36.2845 13.8739L36.3739 13.9353L36.528 13.7142L36.4448 13.6528C35.8313 13.1859 35.1932 12.7497 34.5427 12.3566L34.4441 12.2952L34.2529 12.676L34.3485 12.7252C35.0236 13.0661 35.6741 13.4531 36.2845 13.877V13.8739Z" fill="#2A3C60"/>
<path id="Vector_64" d="M26.6139 9.46936L26.4844 9.45093L26.5275 11.0174H26.6354C27.3383 10.9959 28.0474 11.0205 28.7502 11.0911L28.8581 11.1034L28.9753 9.97001L28.8859 9.94544C28.1306 9.74579 27.3661 9.58607 26.6139 9.46936Z" fill="#2A3C60"/>
<path id="Vector_65" d="M33.9423 12.5285L34.041 12.5746L34.2321 12.1692L34.1458 12.12C33.4891 11.7392 32.7986 11.3921 32.1019 11.0819L31.9909 11.0327L31.7812 11.7023L31.883 11.733C32.5828 11.9511 33.2764 12.2183 33.9392 12.5285H33.9423Z" fill="#2A3C60"/>
<path id="Vector_66" d="M23.9966 11.3061C24.6748 11.1741 25.3654 11.085 26.0467 11.0389L26.1546 11.0328L26.0467 9.3926L25.9573 9.38032C25.1835 9.2851 24.3912 9.22982 23.6081 9.21753H23.4756L23.8887 11.3246L23.9935 11.3031L23.9966 11.3061Z" fill="#2A3C60"/>
<path id="Vector_67" d="M31.4074 11.5888L31.5122 11.6164L31.7095 10.9069L31.6201 10.87C30.9327 10.5844 30.2021 10.3264 29.4498 10.1052L29.3296 10.0684L29.1816 11.1372L29.2895 11.1526C30.014 11.2509 30.7261 11.3952 31.4074 11.5857V11.5888Z" fill="#2A3C60"/>
<path id="Vector_68" d="M49.5501 12.593L49.6056 12.6913L49.9077 12.4978L49.8553 12.4087C49.7936 12.3012 49.7227 12.1998 49.6549 12.0985L49.5254 11.9081C49.4637 11.819 49.399 11.733 49.3373 11.647L49.1986 11.4565L48.9551 11.6285L49.0106 11.7145C49.1925 11.9971 49.3713 12.292 49.547 12.5961L49.5501 12.593Z" fill="#2A3C60"/>
<path id="Vector_69" d="M40.1696 42.5278L40.0926 42.5647C39.6825 42.7582 39.2664 42.9394 38.8502 43.1022L38.7207 43.1544L42.9195 48.9073L43.1137 48.7691C43.2401 48.677 43.3696 48.5879 43.496 48.4927C43.6193 48.3975 43.7426 48.3022 43.8659 48.204L44.4856 47.6879L40.219 42.5954L40.1665 42.5309L40.1696 42.5278Z" fill="#2A3C60"/>
<path id="Vector_70" d="M45.9807 38.4612C45.66 38.7776 45.3302 39.0816 45.0003 39.3673L44.8955 39.4564L49.2731 42.4879L49.7879 41.7446C49.8249 41.6893 49.8619 41.634 49.8989 41.5788L49.9328 41.5296C49.9945 41.4313 50.0592 41.333 50.1209 41.2317L50.1517 41.1795C50.1764 41.1426 50.1979 41.1027 50.2195 41.0628L50.2689 40.9737L46.0392 38.4028L45.9776 38.4612H45.9807Z" fill="#2A3C60"/>
<path id="Vector_71" d="M23.5589 43.3264L23.4417 43.2834L21.2745 53.2597L21.2529 53.361L21.3516 53.3887C21.5242 53.4347 21.6999 53.4685 21.851 53.4931L21.8911 53.5023C21.9805 53.5177 22.0699 53.533 22.1593 53.5484L23.5805 53.7695L24.9338 43.7718L24.8444 43.7472C24.3727 43.609 23.9535 43.4739 23.5589 43.3295V43.3264Z" fill="#2A3C60"/>
<path id="Vector_72" d="M51.8033 28.1657L51.7817 28.2517C51.6677 28.7155 51.5659 29.0994 51.455 29.4618L51.418 29.5878L54.0168 29.8488L54.0322 29.7475C54.0538 29.5878 54.0661 29.4281 54.0815 29.2438V29.1977C54.0908 29.124 54.0969 29.0472 54.1031 28.9704C54.1154 28.7769 54.1216 28.5834 54.1308 28.3868V28.2793L51.8033 28.1626V28.1657Z" fill="#2A3C60"/>
<path id="Vector_73" d="M21.4415 12.031C22.0704 11.7945 22.7209 11.5979 23.3745 11.4443L23.4793 11.4198L22.9552 9.22363H22.8689C22.055 9.24206 21.2504 9.30042 20.4735 9.39871L20.3379 9.41714L21.3367 12.0709L21.4385 12.0341L21.4415 12.031Z" fill="#2A3C60"/>
<path id="Vector_74" d="M52.3622 24.1143C52.3437 24.5474 52.3159 24.9406 52.2789 25.3214L52.2666 25.4474L54.1132 25.3245L54.0824 24.9068C54.0639 24.6518 54.0485 24.3969 54.0207 24.142L53.9868 23.8379L52.3653 24.0222V24.1143H52.3622Z" fill="#2A3C60"/>
<path id="Vector_75" d="M17.5904 39.9971C17.2267 39.7084 16.8629 39.4012 16.5084 39.0818L16.4282 39.0081L9.18359 47.2366L9.26683 47.3072C9.35931 47.3871 9.4518 47.47 9.54428 47.553L9.71692 47.7065C9.8464 47.8202 10.0036 47.9553 10.1732 48.0782L11.2121 48.8553L17.6737 40.0616L17.5935 39.9971H17.5904Z" fill="#2A3C60"/>
<path id="Vector_76" d="M36.6119 14.1105C37.1699 14.519 37.6908 14.952 38.1564 15.3913L38.3043 15.2346C37.8327 14.7831 37.3147 14.3316 36.7691 13.8985L36.6797 13.8279L36.5225 14.0429L36.6088 14.1074L36.6119 14.1105Z" fill="#2A3C60"/>
<path id="Vector_77" d="M14.961 16.5247C15.2446 16.1991 15.4913 15.935 15.7317 15.6954C15.9105 15.5173 16.0893 15.3483 16.2743 15.1825L16.3544 15.1088L13.1946 11.6902L13.1206 11.7301C12.8092 11.8929 12.5287 12.0496 12.2666 12.2062C11.8474 12.455 11.4158 12.7284 10.9842 13.0232L10.8701 13.1031L14.8901 16.6077L14.961 16.5278V16.5247Z" fill="#2A3C60"/>
<path id="Vector_78" d="M11.0456 26.1723C11.0764 25.6071 11.135 25.042 11.2244 24.4922L11.2398 24.3847L3.03332 23.0854L3.00249 23.1684C2.68805 24.0008 2.42292 24.8485 2.21638 25.6901L2.18555 25.816L11.0394 26.2798L11.0456 26.1723Z" fill="#2A3C60"/>
<path id="Vector_79" d="M22.2183 42.783C21.7897 42.5956 21.3766 42.3959 20.9882 42.1932L20.8834 42.1379L16.9405 51.9145L16.9004 52.0159L17.0021 52.0558C17.6526 52.2985 18.3308 52.5411 19.0214 52.7745L19.2063 52.8329L22.3046 42.8229L22.2183 42.783Z" fill="#2A3C60"/>
<path id="Vector_80" d="M30.7171 44.6103H30.6308C30.1561 44.6042 29.7152 44.5857 29.2898 44.5519L29.1572 44.5427L30.2979 53.8033L31.3892 53.6589L31.6666 53.6159C31.793 53.5944 31.9194 53.5729 32.0489 53.5484L32.4743 53.4593L30.7356 44.6963L30.7171 44.6103Z" fill="#2A3C60"/>
<path id="Vector_81" d="M27.6559 44.3678C27.2458 44.3064 26.8112 44.2235 26.3333 44.1221L26.2069 44.0945L25.7568 53.9571L26.1021 53.9724C26.2778 53.9816 26.4536 53.9878 26.6293 53.9939H26.6971C26.7896 53.9939 26.8821 53.997 26.9807 54.0001L28.035 53.9724L27.7391 44.3801L27.6497 44.3678H27.6559Z" fill="#2A3C60"/>
<path id="Vector_82" d="M19.0399 13.1612C19.6103 12.8326 20.2053 12.5346 20.8064 12.2797L20.905 12.2367L19.7397 9.5L19.6565 9.51536C18.8673 9.64743 18.0627 9.83172 17.2673 10.059L17.1348 10.0959L18.9475 13.2104L19.0399 13.1551V13.1612Z" fill="#2A3C60"/>
<path id="Vector_83" d="M43.1291 40.8171C42.7622 41.072 42.3831 41.3146 42.0069 41.5419L41.8867 41.6126L46.3537 45.9895L46.4308 45.9127C46.5973 45.7437 46.7576 45.5748 46.9179 45.4028L47.6177 44.6073L43.1969 40.771L43.1291 40.8201V40.8171Z" fill="#2A3C60"/>
<path id="Vector_84" d="M50.4474 32.1063C50.2439 32.5548 50.0621 32.9203 49.8802 33.2643L49.8154 33.3841L53.1726 34.3055L53.2404 34.0567C53.3422 33.639 53.4408 33.2244 53.5364 32.8036L53.5611 32.6991L50.4844 32.0295L50.4474 32.1094V32.1063Z" fill="#2A3C60"/>
<path id="Vector_85" d="M15.427 38.0405C15.1742 37.7764 14.9245 37.4877 14.6347 37.1344L14.5669 37.0515L6.06445 43.9624L6.12919 44.0453C6.30491 44.2695 6.4868 44.4907 6.67485 44.7118C7.02629 45.1081 7.3839 45.4981 7.74459 45.8851L7.81858 45.965L15.6828 38.2985L15.427 38.0375V38.0405Z" fill="#2A3C60"/>
<path id="Vector_86" d="M36.9135 43.7656C36.4973 43.8854 36.0595 43.996 35.6063 44.0974L35.4707 44.1281L39.0098 51.257L39.2102 51.1587C39.7342 50.8884 40.2583 50.5936 40.7207 50.3325L40.8163 50.2803L36.9936 43.7441L36.9135 43.7687V43.7656Z" fill="#2A3C60"/>
<path id="Vector_87" d="M33.7355 44.4291C33.3193 44.4844 32.8815 44.5274 32.3944 44.5612L32.2588 44.5704L34.7559 52.9003L34.8607 52.8665C35.4403 52.6853 36.0383 52.4857 36.6364 52.2768L36.7782 52.2246L33.8187 44.4199L33.7324 44.4322L33.7355 44.4291Z" fill="#2A3C60"/>
<path id="Vector_88" d="M19.795 41.5266C19.4065 41.2901 19.015 41.0383 18.6328 40.771L18.5403 40.7065L12.834 49.9456L13.9222 50.5876C14.0424 50.6551 14.1627 50.7258 14.286 50.7933L15.0413 51.1742L19.8813 41.5788L19.795 41.5266Z" fill="#2A3C60"/>
<path id="Vector_89" d="M11.4065 23.5521C11.5329 22.9901 11.6901 22.428 11.8751 21.8812L11.909 21.7799L4.87093 19.4087L4.82469 19.4824C4.3561 20.238 3.93376 21.0212 3.57307 21.8075L3.51758 21.9273L11.3818 23.6596L11.4065 23.5552V23.5521Z" fill="#2A3C60"/>
<path id="Vector_90" d="M13.3886 18.6593C13.7061 18.1463 14.0576 17.6426 14.4368 17.1604L14.5046 17.0744L10.1208 13.6497L10.053 13.7019C9.38403 14.2179 8.72739 14.7892 8.10158 15.4004L8.00293 15.4956L13.3331 18.7514L13.3886 18.6593Z" fill="#2A3C60"/>
<path id="Vector_91" d="M12.1894 21.0212C12.4114 20.4714 12.6672 19.9278 12.9509 19.4087L13.0033 19.3135L7.28464 16.2358L7.22915 16.2973C6.65883 16.9239 6.10393 17.6119 5.58601 18.3398L5.50586 18.4504L12.1493 21.1195L12.1894 21.0212Z" fill="#2A3C60"/>
<path id="Vector_92" d="M16.8596 14.6756C17.3467 14.2733 17.8708 13.8924 18.4165 13.5423L18.5059 13.4839L16.4589 10.311L16.3787 10.3387C15.5957 10.5998 14.8127 10.913 14.0512 11.2693L13.9248 11.3277L16.7733 14.7432L16.8566 14.6756H16.8596Z" fill="#2A3C60"/>
<path id="Vector_93" d="M12.5752 33.894C12.3532 33.4271 12.1528 32.9449 11.9771 32.4627L11.9401 32.3613L2.19531 35.8598L2.21689 35.955C2.42344 36.7966 2.67931 37.6289 2.97835 38.4245L3.01842 38.535L12.6183 33.9923L12.5721 33.894H12.5752Z" fill="#2A3C60"/>
<path id="Vector_94" d="M13.9066 36.1853C13.626 35.7829 13.3548 35.356 13.102 34.9137L13.0496 34.8215L3.78261 40.0523L3.69629 40.1014L3.73945 40.1905C4.11247 40.9645 4.52557 41.7078 4.96949 42.402L5.03115 42.4972L13.9713 36.2744L13.9097 36.1853H13.9066Z" fill="#2A3C60"/>
<path id="Vector_95" d="M11.6378 31.4184C11.4898 30.8993 11.3665 30.3741 11.2771 29.8642L11.2586 29.7598L1.60938 31.4829V31.575C1.6402 32.4105 1.72652 33.2858 1.86525 34.1766L1.88375 34.2964L11.6686 31.5228L11.6378 31.4184Z" fill="#2A3C60"/>
<path id="Vector_96" d="M11.1256 28.8199C11.0639 28.2824 11.03 27.7296 11.0269 27.1798V27.0723L1.91411 27.1613L1.8987 27.2504C1.75381 28.1104 1.66132 28.9889 1.62433 29.8673L1.61816 29.9933L11.141 28.9275L11.1287 28.8199H11.1256Z" fill="#2A3C60"/>
</g>
<path id="Vector_97" d="M13.5396 13.5115C6.81595 20.2104 8.39744 32.2538 15.1241 38.9527C21.8478 45.6516 33.9355 47.2304 40.6591 40.5314C47.3827 33.8325 45.8013 21.7892 39.0746 15.0902C32.3509 8.39129 20.2632 6.81254 13.5396 13.5115ZM27.0978 42.5678C18.4813 42.5678 11.4957 35.6078 11.4957 27.023C11.4957 18.4382 18.4813 11.4781 27.0978 11.4781C35.7143 11.4781 42.6999 18.4382 42.6999 27.023C42.6999 35.6078 35.7143 42.5678 27.0978 42.5678Z" fill="#2A3C60"/>
</g>
</g>
<defs>
<clipPath id="clip0_202_717">
<rect width="206" height="54" fill="white"/>
</clipPath>
</defs>
</svg>
