<svg xmlns="http://www.w3.org/2000/svg" xmlns:xlink="http://www.w3.org/1999/xlink" id="Warstwa_1" x="0px" y="0px" viewBox="0 0 350 100" style="enable-background:new 0 0 350 100;" xml:space="preserve"><style type="text/css">	.st0{fill:#D4021D;}</style><g>	<path d="M194.3,22.7l8.8,3.7c0,0-1.6,3.3-2.3,5.5c-0.7,2-2.3,7-2.3,7s-4.7,5.6-7.1,15.2c-2,8-2,14.3-2,14.3l-3.7,0  c0,0-0.5-10.4,2.1-23.1C189.6,36.7,194.3,22.7,194.3,22.7L194.3,22.7z"></path>	<path class="st0" d="M0,68.2V39.9h11.3v9.6h10.7v-9.6h11.3v28.3H22.1v-11H11.3v11H0z M35.3,68.2l12.4-28.3h11.5l12.4,28.3H60.3  L59,64.4H47.7l-1.3,3.7H35.3z M53.4,48.4l-3.5,10.1H57L53.4,48.4z M98.4,55.3L98,48.9v-9h10.9v28.3H98.2L85.9,52.8l0.4,6.4v9H75.5  V39.9h10.6L98.4,55.3z M131.8,47.9c-0.2-1-0.8-1.6-1.6-1.9c-0.8-0.4-1.8-0.5-2.9-0.5c-2.5,0-3.6,0.6-3.6,1.6  c0,4.2,19.9,1.6,19.9,11.9c0,6.6-6.7,9.8-16.2,9.8c-9.1,0-15.1-4.4-15.3-9.5h10.9c0.2,1,0.9,1.8,1.9,2.2c0.9,0.5,2.1,0.7,3.2,0.7  c2.8,0,4.7-0.7,4.7-2.1c0-4.3-19.9-1.3-19.9-12.2c0-6,6.3-9,15-9c9.6,0,14,4,14.8,9L131.8,47.9L131.8,47.9z M144.5,68.2l12.4-28.3  h11.5l12.4,28.3h-11.3l-1.3-3.7h-11.3l-1.3,3.7H144.5z M162.5,48.4L159,58.6h7.2L162.5,48.4z M218.8,68.2V39.9h26.9v6.6h-15.6v5.2  h12.4v6.6h-12.4v9.9L218.8,68.2L218.8,68.2z M251.9,68.2V39.9h11.3v21.7h15.6v6.6L251.9,68.2L251.9,68.2z M282,68.2V39.9h28.2v6.6  h-16.9v4.1h14.3v6.6h-14.3v4.4h17.5v6.6L282,68.2L282,68.2z M326.1,68.2h-12.7l12.3-14.7l-11.1-13.6h12.7l4.9,7.2l4.9-7.2h12.7  l-11.7,13.6L350,68.2h-12.7l-5.6-7.9L326.1,68.2z M207.2,28.5c0,0-8.3,9.2-12.3,18.5c-4.9,11.3-4.6,21.3-4.6,21.3l8.6,0  c0,0,0.1-8,4.3-17.7c3.9-9.1,10.6-16,10.6-16L207.2,28.5z"></path></g></svg>