<?xml version="1.0" encoding="UTF-8"?>
<svg xmlns="http://www.w3.org/2000/svg" viewBox="0 0 192 160">
  <path fill="#df4432" d="M158.093 127.662h12.16c2.687 0 4.917.87 6.695 2.61 1.773 1.74 2.662 3.912 2.662 6.515 0 1.301-.22 2.49-.658 3.565-.438 1.075-.962 1.916-1.57 2.525-.608.608-1.224 1.124-1.846 1.549s-1.146.707-1.57.849l-.658.212 7.172 12.604h-3.692l-6.748-12.159h-8.679v12.16h-3.268v-30.43Zm12.16 3.056h-8.892v12.159h8.891c1.853 0 3.332-.547 4.435-1.644 1.103-1.096 1.655-2.574 1.655-4.434s-.552-3.339-1.655-4.435-2.582-1.646-4.435-1.646Zm-30.907 18.907H125l-3.48 8.466h-3.48l12.605-30.429h3.034l12.604 30.43h-3.458l-3.48-8.467Zm-1.316-3.056-5.857-14.344-5.877 14.344h11.734Zm-31.528 11.522H87.595v-30.429h3.268v27.395h15.639v3.034Zm-35.977-26.29c3.041 3.04 4.562 6.733 4.562 11.076s-1.52 8.035-4.562 11.076c-3.042 3.042-6.734 4.563-11.077 4.563s-8.035-1.521-11.077-4.563c-3.041-3.041-4.562-6.733-4.562-11.076s1.521-8.035 4.562-11.077c3.042-3.041 6.734-4.562 11.077-4.562s8.035 1.52 11.077 4.562Zm-19.883 2.1c-2.39 2.419-3.586 5.41-3.586 8.976s1.195 6.557 3.586 8.976 5.326 3.628 8.806 3.628 6.415-1.21 8.806-3.628 3.586-5.411 3.586-8.976-1.195-6.557-3.586-8.976c-2.39-2.42-5.326-3.629-8.806-3.629s-6.415 1.21-8.806 3.629Zm-20.43 15.936c0-1.047-.303-1.938-.912-2.674-.608-.735-1.398-1.308-2.367-1.719-.969-.41-2.04-.78-3.213-1.113s-2.349-.7-3.523-1.103-2.247-.896-3.213-1.476c-.972-.58-1.76-1.4-2.368-2.461-.608-1.061-.912-2.327-.912-3.799 0-2.291.898-4.239 2.695-5.844 1.796-1.606 4.159-2.41 7.087-2.41 1.104 0 2.155.14 3.15.415 1 .276 1.83.601 2.495.976.664.375 1.259.75 1.782 1.125.523.375.898.695 1.125.964l.36.424-2.185 2.186c-.057-.085-.142-.193-.255-.328s-.382-.375-.806-.721-.875-.658-1.347-.934c-.476-.276-1.103-.523-1.89-.743a8.97 8.97 0 0 0-2.429-.33c-1.995 0-3.584.51-4.762 1.528-1.184 1.019-1.773 2.25-1.773 3.692 0 1.047.304 1.938.912 2.674s1.4 1.309 2.377 1.719 2.05.783 3.225 1.115c1.174.332 2.346.7 3.51 1.103 1.17.404 2.24.894 3.216 1.474s1.769 1.398 2.377 2.452c.608 1.054.912 2.322.912 3.808 0 2.574-.905 4.666-2.716 6.271-1.81 1.606-4.314 2.408-7.511 2.408-1.302 0-2.54-.158-3.714-.477s-2.136-.693-2.886-1.124a17.122 17.122 0 0 1-1.994-1.328c-.58-.452-.983-.834-1.21-1.146l-.403-.488 1.995-2.206c.056.084.16.216.306.393.151.177.472.481.967.913a9.244 9.244 0 0 0 1.603 1.124c.57.319 1.346.616 2.323.892.976.275 1.98.412 3.013.412 2.235 0 3.954-.519 5.156-1.558 1.202-1.04 1.804-2.403 1.804-4.086ZM192 96.57c-29.827 7.718-62.125 11.885-95.456 12.128-1.033.008-2.062.012-3.094.012-32.58 0-64.182-3.77-93.45-10.973v3.04c29.305 7.15 60.898 10.893 93.453 10.893 1.035 0 2.075-.004 3.112-.012 33.295-.243 65.576-4.382 95.435-12.04V96.57Zm-20.153-35.722c-.227.2-.455.402-.71.614-1.336 1.113-2.875 2.22-4.62 3.312-1.745 1.097-3.944 2.042-6.597 2.84-2.656.799-5.428 1.197-8.323 1.197-7.462 0-13.698-2.505-18.706-7.518-5.013-5.008-7.517-11.243-7.517-18.706 0-7.458 2.504-13.693 7.517-18.706 5.008-5.009 11.244-7.515 18.706-7.515 2.708 0 5.362.417 7.96 1.253 2.597.834 4.696 1.746 6.293 2.727a26.593 26.593 0 0 1 4.425 3.426c.47.451.862.84 1.216 1.2l10.882-10.883c-.78-.825-1.773-1.748-3.024-2.788-1.874-1.56-4.028-3.118-6.458-4.677-2.43-1.559-5.54-2.885-9.325-3.982C159.78 1.55 155.791 1 151.597 1c-12.174 0-22.447 4.065-30.817 12.191-8.37 8.131-12.554 17.93-12.554 29.396 0 11.471 4.184 21.28 12.554 29.424 8.37 8.15 18.643 12.22 30.817 12.22 4.155 0 8.174-.573 12.052-1.725 3.878-1.151 7.015-2.42 9.41-3.814a43.04 43.04 0 0 0 6.735-4.842 93.44 93.44 0 0 0 2.653-2.402l-10.6-10.6ZM91.129 40.436c5.41-3.628 8.947-9.536 8.947-16.226 0-11.04-9.593-21.54-21.426-21.54H40.608v79.836h36.188c7.905 0 15.913-2.952 20.538-7.44 4.176-4.117 6.76-9.624 6.76-15.571 0-8.427-5.308-15.679-12.965-19.06ZM57.755 16.923h15.923c2.82 0 5.046.78 6.68 2.338 1.633 1.559 2.45 3.639 2.45 6.235 0 2.6-.817 4.677-2.45 6.236-1.634 1.559-3.86 2.338-6.68 2.338H57.755V16.923Zm25.973 48.379c-2.062 1.969-4.65 2.952-7.769 2.952H57.755V47.709H75.96c3.118 0 5.707.995 7.769 2.98 2.058 1.986 3.089 4.426 3.089 7.32s-1.03 5.327-3.09 7.293ZM14.432 82.506V2.67h17.147v79.836H14.432Z"/>
</svg>