<?xml version="1.0" encoding="UTF-8"?> <!-- Generator: Adobe Illustrator 23.0.4, SVG Export Plug-In . SVG Version: 6.00 Build 0) --> <svg xmlns="http://www.w3.org/2000/svg" xmlns:xlink="http://www.w3.org/1999/xlink" id="Layer_1" x="0px" y="0px" viewBox="0 0 553 172" style="enable-background:new 0 0 553 172;" xml:space="preserve"> <style type="text/css"> .st0{clip-path:url(#SVGID_2_);fill:#FF3300;} .st1{clip-path:url(#SVGID_2_);fill:#BBBDBF;} .st2{clip-path:url(#SVGID_2_);} .st3{fill:none;stroke:#FF3300;stroke-width:1.25;} </style> <g> <defs> <rect id="SVGID_1_" x="1" y="1" width="414" height="142.9"></rect> </defs> <clipPath id="SVGID_2_"> <use xlink:href="#SVGID_1_" style="overflow:visible;"></use> </clipPath> <path class="st0" d="M1,30.1C1,14,14,1,30.2,1c16.1,0,29.1,13,29.1,29.1c0,16.1-13.1,29.2-29.1,29.2C14,59.3,1,46.2,1,30.1"></path> <rect x="3.8" y="68" class="st1" width="52.6" height="75.7"></rect> <rect x="44.6" y="82.3" class="st2" width="11.9" height="31.5"></rect> <polygon class="st2" points="61.3,82.3 76.7,82.3 83.4,101.3 83.5,101.3 83.5,82.3 93.7,82.3 93.7,113.8 78.4,113.8 71.6,95.2 71.5,95.2 71.5,113.8 61.3,113.8 "></polygon> <path class="st2" d="M110.2,89h1.9c2.2,0,2.9,0.8,2.9,3.3v11.6c0,2.4-0.8,3.3-2.9,3.3h-1.9V89z M98.4,113.8h16.9 c8.2,0,11.6-3.4,11.6-10.5V92.8c0-7.2-3.4-10.5-11.6-10.5H98.5l0,0V113.8z"></path> <path class="st2" d="M159.6,102.4c0,10.7-7.1,12.3-14.3,12.3c-7.1,0-14.3-1.6-14.3-12.3V82.3H143V105c0,2.6,0.5,3.1,2.4,3.1 c1.9,0,2.4-0.4,2.4-3.1V82.3h11.9V102.4z"></path> <path class="st2" d="M181,93.4v-2.9c0-1.6-0.8-2.6-2.6-2.6c-1.8,0-2.6,1.1-2.6,2.6v15.1c0,1.6,0.8,2.6,2.6,2.6c1.8,0,2.6-1,2.6-2.6 v-3.4h11.7c0,7-2.3,12.6-14.3,12.6c-12.3,0-14.6-4.8-14.7-16.7c0-12.9,3.1-16.7,14.6-16.7c11.8,0,14.3,4.8,14.3,12H181z"></path> <polygon class="st2" points="193.6,82.3 219.5,82.3 219.5,89.8 212.6,89.8 212.6,113.8 200.7,113.8 200.7,89.8 193.6,89.8 "></polygon> <path class="st2" d="M233,90.5c0-1.6,0.8-2.6,2.6-2.6c1.8,0,2.6,1.1,2.6,2.6v15.1c0,1.6-0.8,2.6-2.6,2.6c-1.8,0-2.6-1-2.6-2.6V90.5 z M220.9,98c0,12.9,3.1,16.7,14.6,16.7c11.5,0,14.7-3.8,14.7-16.7s-3.1-16.7-14.7-16.7C224.1,81.3,220.9,85.1,220.9,98"></path> <polygon class="st2" points="251.6,82.3 277.6,82.3 277.6,89.8 270.6,89.8 270.6,113.8 258.7,113.8 258.7,89.8 251.6,89.8 "></polygon> <polygon class="st2" points="279.8,82.3 291.7,82.3 291.7,92.6 296.3,92.6 296.3,82.3 308.3,82.3 308.3,113.8 296.3,113.8 296.3,101.7 291.7,101.7 291.7,113.8 279.8,113.8 "></polygon> <polygon class="st2" points="313,82.3 337.5,82.3 337.5,89.8 324.9,89.8 324.9,94.5 336.4,94.5 336.4,101.2 324.9,101.2 324.9,106.3 337.5,106.3 337.5,113.8 313,113.8 "></polygon> <path class="st2" d="M352.9,88.4h1.6c1.8,0,3.2,0.7,3.2,3c0,1.8-0.8,3.4-3,3.4h-1.9V88.4z M341,113.8h11.9v-13h1.7 c2.2,0,3,1.1,3,3.7v6.9c0,1.4,0.7,2.3,1.7,2.3h11.8l0-0.1c-0.8-0.3-1.6-1.1-1.6-2.9v-7.1c0-3.9-3.7-5.5-6.1-5.7v-0.1 c3.9-0.4,6.3-2.9,6.3-6.9c0-6.2-3.3-8.7-10.2-8.7H341V113.8z"></path> <polygon class="st2" points="373.4,82.3 390.6,82.3 393.2,101.1 393.3,101.1 396.3,82.3 413.1,82.3 413.1,113.8 403.1,113.8 403.1,89.8 403,89.8 398.4,113.8 388.1,113.8 383.5,89.8 383.4,89.8 383.4,113.8 373.4,113.8 "></polygon> <path class="st2" d="M316.6,143.2h-4.8l-0.9-3.4h-0.1c-0.8,2.4-2.5,4.1-7.7,4.1c-4.9,0-8.5-2.2-8.5-8.9v-6 c0-6.8,2.9-10.1,11.3-10.1c3.5,0,10.8,0.7,10.8,8H308v-1.4c0-1-0.4-1.8-2.4-1.8c-1.2,0-2,0.7-2,2.5v10.4c0,2.2,0.9,2.5,2.3,2.5 c1.2,0,2.2-0.5,2.2-2.1v-1.4H306v-4.8h10.5V143.2z"></path> <path class="st2" d="M328.4,124.3h1.2c1.3,0,2.4,0.5,2.4,2.2c0,1.3-0.6,2.5-2.2,2.5h-1.4V124.3z M319.5,143.2h8.9v-9.7h1.3 c1.6,0,2.3,0.8,2.3,2.8v5.2c0,1.1,0.5,1.7,1.3,1.7h8.8l0-0.1c-0.6-0.2-1.2-0.8-1.2-2.1v-5.3c0-2.9-2.7-4.1-4.6-4.3v-0.1 c2.9-0.3,4.7-2.2,4.7-5.1c0-4.6-2.5-6.5-7.6-6.5h-13.8V143.2z"></path> <path class="st2" d="M352.4,125.8c0-1.2,0.6-2,1.9-2c1.3,0,1.9,0.8,1.9,2v11.3c0,1.2-0.6,2-1.9,2c-1.3,0-1.9-0.8-1.9-2V125.8z M343.3,131.5c0,9.6,2.3,12.5,10.9,12.5c8.6,0,10.9-2.8,10.9-12.5c0-9.7-2.3-12.5-10.9-12.5C345.7,119,343.3,121.8,343.3,131.5"></path> <path class="st2" d="M389.6,134.8c0,8-5.3,9.2-10.7,9.2c-5.3,0-10.7-1.2-10.7-9.2v-15h8.9v16.9c0,2,0.4,2.3,1.8,2.3 c1.4,0,1.8-0.3,1.8-2.3v-16.9h8.9V134.8z"></path> <path class="st2" d="M402.2,124.5h1.4c1.4,0,2.4,1.2,2.4,2.8c0,2.1-0.8,3.7-2.2,3.7h-1.6V124.5z M393.3,143.2h8.9v-7.4h6 c4.6,0,6.7-3.1,6.7-7.8c0-5.9-2.7-8.3-8.5-8.3h-13.1V143.2z"></path> </g> <line class="st3" x1="426.2" y1="82.3" x2="426.2" y2="143.2"></line> <path d="M444,135.7v1.4c0,1.2,0.6,2,1.7,2c1.3,0,1.9-0.8,1.9-2v-17.3h8.9v16.1c0,5.3-4,8.1-10.7,8.1c-5.7,0-10.7-1.8-10.7-8.3H444z"></path> <path d="M463.6,119.8h12.2l6,23.5h-9.1l-0.7-3.7h-4.9l-0.7,3.7h-9.1L463.6,119.8z M468,135.1h3.5l-1.6-11h-0.1L468,135.1z"></path> <path d="M483.1,119.8h13.1c5.8,0,8.5,2.4,8.5,8.3c0,4.6-2.1,7.8-6.7,7.8h-6v7.4h-8.9V119.8z M492,131.1h1.6c1.5,0,2.2-1.5,2.2-3.6 c0-1.6-1-2.8-2.4-2.8H492V131.1z"></path> <path d="M510.5,119.8h12.2l6,23.5h-9.1l-0.7-3.7h-4.9l-0.7,3.7h-9.1L510.5,119.8z M514.9,135.1h3.5l-1.6-11h-0.1L514.9,135.1z"></path> <path d="M529.8,119.8h11.5l5,14.2h0.1v-14.2h7.6v23.5h-11.4l-5.1-13.8h-0.1v13.8h-7.6V119.8z"></path> </svg> 