<svg width="210" height="26" viewBox="0 0 210 26" fill="none" xmlns="http://www.w3.org/2000/svg">
<g clip-path="url(#clip0_2025_47896)">
<path d="M78.6827 7.03186H76.6807V17.1786H78.6827V7.03186Z" fill="#020B24"/>
<path d="M136.562 7.03186H134.56V17.1786H136.562V7.03186Z" fill="#020B24"/>
<path d="M114.512 17.1786V7.03186H122.535V8.44529H116.397V11.5249H120.775V12.9353H116.397V17.1786H114.512Z" fill="#020B24"/>
<path d="M190.313 17.1786V8.44823H186.664V7.03186H195.891V8.44823H192.242V17.1786H190.313Z" fill="#020B24"/>
<path d="M174.545 7.03186H172.543V17.1786H174.545V7.03186Z" fill="#020B24"/>
<path d="M210 7.03186H207.998V17.1786H210V7.03186Z" fill="#020B24"/>
<path d="M157.803 17.1786L151.65 9.97919V17.1786H149.765V7.03186H151.249L157.439 14.2489V7.03186H159.328V17.1786H157.803Z" fill="#020B24"/>
<path d="M99.9247 17.1786L93.7685 9.97919V17.1786H91.8828V7.03186H93.3675L99.5604 14.2489V7.03186H101.446V17.1786H99.9247Z" fill="#020B24"/>
<path d="M28.2367 0.675859C15.1469 0.675859 4.5949 5.89173 4.5949 12.1596C4.5949 15.7123 8.90204 18.4892 15.4224 20.0289L26.8133 7.03187H28.2367L18.3796 26C7.64694 24.1605 0 19.3736 0 13.5466C0 6.05334 12.649 0 28.2367 0C43.8245 0 56.4735 6.05334 56.4735 13.5466C56.4735 19.3736 48.8265 24.1605 38.0939 26L28.2367 7.03187H29.6602L41.048 20.0289C47.5714 18.4892 51.8755 15.7123 51.8755 12.1596C51.8755 5.89173 41.3235 0.675859 28.2337 0.675859H28.2367Z" fill="#020B24"/>
</g>
<defs>
<clipPath id="clip0_2025_47896">
<rect width="210" height="26" fill="white"/>
</clipPath>
</defs>
</svg>
