<svg width="189" height="24" viewBox="0 0 189 24" fill="none" xmlns="http://www.w3.org/2000/svg">
<g id="Logo">
<g id="Group">
<path id="Vector" d="M70.5279 6.49097H68.7333V15.8572H70.5279V6.49097Z" fill="#020B24"/>
<path id="Vector_2" d="M122.408 6.49097H120.613V15.8572H122.408V6.49097Z" fill="#020B24"/>
<path id="Vector_3" d="M102.643 15.8572V6.49097H109.835V7.79567H104.333V10.6383H108.257V11.9403H104.333V15.8572H102.643Z" fill="#020B24"/>
<path id="Vector_4" d="M170.589 15.8572V7.79838H167.318V6.49097H175.588V7.79838H172.318V15.8572H170.589Z" fill="#020B24"/>
<path id="Vector_5" d="M156.455 6.49097H154.66V15.8572H156.455V6.49097Z" fill="#020B24"/>
<path id="Vector_6" d="M188.235 6.49097H186.441V15.8572H188.235V6.49097Z" fill="#020B24"/>
<path id="Vector_7" d="M141.448 15.8572L135.933 9.21158V15.8572H134.242V6.49097H135.573L141.122 13.1528V6.49097H142.815V15.8572H141.448Z" fill="#020B24"/>
<path id="Vector_8" d="M89.5682 15.8572L84.0501 9.21158V15.8572H82.3598V6.49097H83.6906L89.2416 13.1528V6.49097H90.9319V15.8572H89.5682Z" fill="#020B24"/>
</g>
<path id="Vector_9" d="M25.3102 0.62387C13.5771 0.62387 4.11868 5.43852 4.11868 11.2242C4.11868 14.5036 7.97942 17.0669 13.824 18.4882L24.0343 6.49096H25.3102L16.4747 24C6.8544 22.302 0 17.8834 0 12.5045C0 5.5877 11.338 0 25.3102 0C39.2825 0 50.6205 5.5877 50.6205 12.5045C50.6205 17.8834 43.7661 22.302 34.1458 24L25.3102 6.49096H26.5862L36.7937 18.4882C42.6411 17.0669 46.4991 14.5036 46.4991 11.2242C46.4991 5.43852 37.0406 0.62387 25.3075 0.62387H25.3102Z" fill="#020B24"/>
</g>
</svg>
