<?xml version="1.0" encoding="utf-8"?>
<!-- Generator: Adobe Illustrator 25.4.1, SVG Export Plug-In . SVG Version: 6.00 Build 0)  -->
<svg version="1.1" id="Layer_1" xmlns="http://www.w3.org/2000/svg" xmlns:xlink="http://www.w3.org/1999/xlink" x="0px" y="0px"
	 viewBox="0 0 288.4 77.8" style="enable-background:new 0 0 288.4 77.8;" xml:space="preserve">
<style type="text/css">
	.st0{fill:#FFFFFF;}
	.st1{fill:#DF1D3F;}
	.st2{fill-rule:evenodd;clip-rule:evenodd;fill:#FFFFFF;}
</style>
<g>
	<g>
		<path class="st0" d="M285.6,48.3c-1-2.5-3-3.8-5.4-3.9c0-0.1,0-4.2-2-8.4c-1.9-3.8-7.5-12.2-20.8-12.7c-0.2,0-1.7,0-1.9,0
			c-0.5-1.6-1.3-4.5-1.3-4.6c2.3-1.4,6.7-4.7,6.1-10.2C259.8,6,257.4,1,251.5,1c-6.3-0.1-14.4,5.6-16.9,13.6
			c-6.1,0.9-15.5,4.3-15.3,11.4c0.2,5.6,5,7.6,8.6,7.6c2.8,0.1,4.7-1.2,4.7-1.2l1.4,1.6c-1.8,2.2-3.4,6.2-4,9.9
			c-0.6,3.7,0,7.9,1.3,11.2l0.1,0.3l-0.3,0.2c-2.6,2-3.3,4.4-3,6.9c1.1,11.7,17.8,13,20.5,13.4c2,0.3,10.3,1,10.3,1s3,1.1,6.4,0.5
			c5.7-1,7.4-4.2,8.3-5.7C277.9,68.8,289.5,58.6,285.6,48.3"/>
		<g>
			<path d="M268.4,68.2c-2.1,1.9-5,2.7-8.7,0.8c-0.6-0.3,0.2,0.5,0.6,0.8c2.9,2.1,7.7,1.2,8.9-2.1C269.5,66.7,268.9,67.6,268.4,68.2
				z"/>
			<path d="M256.1,54.1c0.2-1.5,0.5-6.7-1.5-10.6c-1.7-3.3-5.6-6-9.1-4.2c-5.3,2.8-4.4,10-1.6,14.9c-0.1,0-0.5,0.2-0.5,0.2
				c-0.3,0.3,0,0.6,0.3,0.6c0.2,0,3-0.5,6.4-0.8C251.5,54.1,255.4,54,256.1,54.1z M242.8,48.7c-1.1-4.7,1.3-7.8,3.3-8.7
				c2.5-1,5.1,0.1,7,2.7c2.5,3.6,2.3,9.6,2.2,10.5c-0.1,0-1.9,0-2.9,0c0.2-1.8,0.4-4-0.9-6.2l-2.9,1.8l1.5-3.6
				C246.6,42.7,243.2,45.3,242.8,48.7z"/>
			<path d="M270.6,48.8c2-0.9,3-1.5,3.7-1.8c0.7-0.4,0.9-0.4,0.8-0.7c-0.1-0.3-0.5-0.1-0.5-0.1s0-2.8-1.2-5.6
				c-1.3-3.1-3.2-5.1-5.8-5.7c-2.4-0.5-4.7,0.8-5.6,3.5c-1.2,3.7,1,10.4,3.5,13.1C266.3,51,268.6,49.7,270.6,48.8z M262.8,43.9
				c-0.1-0.4-0.6-2.4-0.3-4.3c0.4-2.9,2.1-4,4.1-4c2.5,0,4.7,2.4,6,5.3c0.8,1.9,1.1,4.2,1.2,5.5c-0.1,0-1.3,0.6-1.9,0.9
				c0.1-2.1-1-4.2-1.4-4.9l-2.6,1.7l1.4-3.1c-1.5-1.4-3.5-1.2-4.8-0.2C262.9,41.8,262.9,43.8,262.8,43.9z"/>
			<path d="M262.1,58.2c0.8,0.1,2.1-0.1,2.7-0.7c1.1-0.9,1-1.9,0.6-2.6c-0.1-0.2-0.5-0.6-0.6-0.5c-0.1,0.1,0.2,0.3,0.2,0.6
				c0.1,0.6-0.3,1.4-1.4,1.8c-1.3,0.5-2.8,0.2-3.5-0.1c-0.4-0.2-0.9-0.5-0.9-0.5c-0.1,0,0.1,0.5,0.5,0.9
				C260.3,57.7,261.2,58.1,262.1,58.2z"/>
			<path d="M276.8,53.1c-0.2-0.2-0.5,0.3-2.2,0.6c-1.5,0.2-2.1-0.2-2.2,0c-0.1,0.3,0.3,0.7,1.3,0.9c0.2,0-0.8,1.5-0.8,1.5
				c-2.5,3.3-6.8,5.3-10.9,6c-6.2,1-13-0.5-13.2-0.9c0.5-0.7,0.5-1.4,0.2-1.4c-0.3,0-0.5,0.7-1.7,1.5c-1.5,0.9-2.5,0.6-2.6,0.9
				c-0.1,0.2,1,0.3,1.8,0.2c0.9-0.1,1.5-0.3,1.7-0.4c0.9,0,6.9,2.2,9.1,3.5c2.7,1.6,4.8,3.2,8.2,2.3c3-0.7,4.3-4.5,4.8-5.8
				c1.6-3.8,4.2-7.3,4.7-7.6C275.5,54.2,277.1,53.3,276.8,53.1z"/>
		</g>
		<path class="st1" d="M266.3,63.1c-1,0.1-1.6,0.6-1.9,0.8c0.4,0.3,0.8,0.8,0.7,1.1c-0.1-0.1-0.7-0.5-1.1-0.6
			c-0.3-0.1-1.6-0.5-3.2-0.1c-2,0.4-2.3,1-2.3,1s2.8,2.2,5.7,1.9c3.1-0.3,4.3-3.5,4.3-3.5S267.4,63,266.3,63.1"/>
		<path d="M285.6,48.3c-1-2.5-3-3.8-5.5-3.9c0-0.1,0-4.2-2-8.4c-1.9-3.8-7.5-12.2-20.8-12.7c-0.2,0-1.7,0-1.9,0
			c-0.5-1.6-1.3-4.5-1.3-4.6c2.3-1.4,6.7-4.7,6.1-10.2C259.8,6,257.4,1,251.5,1c-6.3-0.1-14.4,5.6-16.9,13.6
			c-6.1,0.9-15.5,4.3-15.3,11.4c0.2,5.5,5,7.6,8.6,7.6c2.8,0.1,4.7-1.2,4.7-1.2l1.4,1.6c-1.8,2.2-3.4,6.2-4,9.9
			c-0.6,3.7,0,7.9,1.3,11.2l0.1,0.3l-0.3,0.2c-2.6,2-3.3,4.4-3,6.9c1.1,11.7,17.8,13,20.5,13.4c2,0.3,10.3,1,10.3,1s3,1.1,6.4,0.5
			c5.7-1,7.4-4.2,8.3-5.7C277.9,68.8,289.5,58.6,285.6,48.3 M227.8,27.7c-0.2-0.1-0.7-0.3-0.8-0.2c-0.1,0.1,0.4,0.4,0.6,0.6
			c1.2,0.9,4.2,3.6,4.2,3.6s-1.3,0.9-3.4,0.9c-4.2,0-7.8-2.3-8-6.6c-0.2-5.8,6.7-8.9,13.8-10.3c-0.2,0.6-0.5,1.7-0.7,2.4
			c0,0.1-0.1,0.4,0.2,0.5c0.2,0,0.5-0.4,0.6-0.8C238.4,4.6,248,2.1,251.6,2.1c5.1,0,7.4,4.4,7.5,7.2c0.1,5.3-5.3,8.3-5.3,8.3
			s-0.8-3.4-1-4.7c0-0.4-0.1-0.6-0.3-0.5c-0.1,0-0.2,0.4-0.2,0.6c-0.3,2.3,0.8,6.8,1.9,10.4c-5.8,0.2-14.7,3.7-19.4,9.7
			C231.3,29.6,229.4,28.4,227.8,27.7 M274,70.2c0-0.2,0.1-1.4-0.1-1.4c-0.3,0-0.6,2.4-2.6,4.6c-1.8,1.9-4.6,3.3-7.9,3.3
			c-3.1,0-5.2-1.1-6.5-1.6c-1.3-0.5-1.7-0.8-1.9-0.7c-0.2,0.2,0.1,0.5,0.5,0.9c0.3,0.2,0.4,0.3,0.7,0.6c-4.4-0.3-10.7-1-15.8-2.4
			c-3.6-1-11.4-4.1-11.4-11.9c0-3.7,3.3-6.7,7.5-6.7c2.2,0,4.3,0.5,4.3,0.5c0.1-0.1-0.1-0.3-0.1-0.4c-0.1-0.1-4.3-2.1-8.6,0.1
			c0,0-2.6-5.7-1-12.2c3.5-14.8,17.6-17.7,21.5-18.3c2-0.3,9.4-0.8,15.4,2.6c7.4,3.8,10.8,11.1,10.9,17.4c0,0-1.7,0.3-2.6,1.2
			c0,0.1,0,0.3,0,0.3c3.5-1.7,7-0.5,8.1,2.8C287.7,57.4,279.4,66.2,274,70.2"/>
		<path class="st1" d="M273.2,35.8c-2.9-3.7-6.1-5.4-10.1-4.1c-3.7,1.2-4.9,5.5-5,7.5c0,1.4,0,2.7,0,2.7s-0.2-0.3-0.4-0.6
			c-2.3-3.7-6-6.3-9.5-6.4c-3.6-0.1-8.5,2-9.7,8.2c-1.2,6.2,2.2,12,2.2,12c-0.1-0.1-4.3-2.1-8.6,0.1c0,0-2.6-5.7-1-12.2
			c2.1-9.1,8.3-13.7,13.6-16l0,0c-0.8-1.2-1.2-2.2-1.5-3.6c-0.7-2.7-0.4-5,0.3-6.2c0.4-0.6,1.3-0.9,1.7-0.3c0.7,1.1,0.3,4.2,0.2,5.4
			c-0.1,1.2,0.1,2.5,0.8,4l0,0c2.7-1,5.1-1.5,6.4-1.7c0.8-0.1,2.7-0.3,5-0.2l0,0c0-4,0.9-5.5,1.8-7.1c1.5-2.5,3.3-2.7,3.7-2.1
			c0.5,0.8-0.2,1.9-1.8,4.1c-1.6,2.2-2,3.4-2.1,5.2l0,0c2.7,0.3,5.9,1,8.7,2.6c7.4,3.8,10.8,11.1,10.9,17.4c0,0-1.7,0.3-2.6,1.2
			C276.5,45.6,276.6,40.1,273.2,35.8"/>
		<path d="M248.3,28.4c-0.2,0.1-0.3,0-0.7-0.5c-1.8-2.1-2.1-4.1-2-5.7c0.1-1.2,0.5-4.3-0.2-5.4c-0.4-0.7-1.4-0.3-1.7,0.3
			c-0.7,1.2-1.1,3.5-0.3,6.2c0.5,2,1.1,3,2.6,5.3c0.2,0.3,0.6,0.7,0.5,0.9c-0.2,0.1-0.5-0.2-0.8-0.5c0,0-2.1-2.1-3.1-5.3
			c-0.8-2.6-0.4-5.9,0.5-7.2c0.4-0.6,1-1,1.6-1c2.1-0.1,2.1,2.7,1.9,5.6c-0.2,2.4-0.1,3.5,1,5.8C247.8,27.3,248.5,28.2,248.3,28.4"
			/>
		<path d="M257.4,25.7c-0.3-2.2-0.2-4.1,0.3-6c1.1-3.6,3.5-5.7,5-5.8c1.2,0,2.8,1.1,0.5,4.4c-1.6,2.4-2.9,2.9-3.2,7.1
			c0,0.3,0,1.2-0.1,1.2c-0.2,0-0.3-0.6-0.3-0.9c-0.1-2.7,0.1-3.8,2.1-6.5c1.6-2.2,2.2-3.3,1.8-4.1c-0.4-0.7-2.2-0.4-3.7,2.1
			c-1,1.7-2,3.3-1.8,8.3c0,0.3,0.1,0.8-0.1,0.9C257.6,26.5,257.4,26,257.4,25.7"/>
	</g>
	<g>
		<path class="st2" d="M108.2,23.9c4-0.6,7.2,2.4,7.2,6.1c0,4.2-3.4,6.4-6.4,6.4c-1.8,0-3.6-0.9-4.7-2.1c-0.9-1-1.8-2.9-1.5-5.3
			C103.2,26.3,105.5,24.2,108.2,23.9z"/>
		<path class="st2" d="M1,62.9c0-0.7,0-1.5,0-2.2c0.4-3.3,4.6-5.1,7.7-3.5c2.3,1.2,2.8,3.8,4.5,5.3c2.7,2.5,6.9,1.3,8-1.6
			c0.7-2,0.3-5.2,0.3-8.1c0-6.4,0-10.7,0-16.9c0-1.4-0.1-2.9,0.1-4.1c0.6-3.4,4.2-5.6,7.7-4.2c2,0.8,3.2,2.7,3.3,5.2
			c0.3,5.4,0,11.6,0,16.9c0,5.8,0.5,11.3-1.2,15.5c-1.7,4.1-4.6,6.8-8.7,8.2c-4.6,1.6-10.5,0.9-14.1-1C5,70.5,2.2,67.2,1,62.9z"/>
		<path class="st2" d="M130.7,42.9c1.7-0.2,2.4-0.7,3.8-0.8c5.4-0.4,9.6,1.8,12.1,4c2.7,2.3,5,5.9,5.3,10.7
			c0.3,5.2-1.6,9.1-4.1,11.9c-2.5,2.8-6,5.2-10.5,5.5c-10,0.8-16.5-4.6-17.7-13.2c-0.4-2.9-0.2-6.7-0.2-10.2c0-3.4-0.1-6.4-0.1-10.3
			c0-3.6-0.3-7.7,0.5-9.8c0.7-1.8,2.2-3.3,4.6-3.5c3-0.3,4.8,1.3,5.7,3.3C131.5,33.6,130.3,38.7,130.7,42.9z M129.7,57.3
			c-0.5,4.9,4.4,7.9,8.3,6.2c0.7-0.3,1.4-0.7,2-1.4c3.8-4,0.5-10.6-5-10C132.1,52.4,130,54.5,129.7,57.3z"/>
		<path class="st2" d="M77.1,30.1c2.4-0.2,4.6,1.1,5.5,3.3c0.8,2.1,0.4,6,0.4,9c0,6.6,0,12.1,0,18.8c0,2.9,0.3,7.2-0.4,9
			c-1.7,4.2-8.1,4.3-10,0.4c-0.9-1.8-0.6-5.7-0.6-9c0-6.2,0-13.1,0-19.2c0-2.3-0.4-6.9,0.5-9C73.3,31.3,75,30.2,77.1,30.1z"/>
		<path class="st2" d="M92.8,30.1c0,0,0-0.1,0.1-0.1c2.2-0.1,4.4,1.2,5.3,3.1c0.9,1.9,0.6,5.9,0.6,9.1c0,7.1,0,12,0,19.2
			c0,3.2,0.2,7.2-0.6,9c-0.5,1.2-1.6,2.3-2.6,2.7c-2.7,1.2-6.2-0.1-7.4-2.9c-0.8-1.9-0.4-5.8-0.4-9c0-5.7,0-13,0-18.8
			c0-2.2-0.4-6.9,0.4-9C88.9,31.4,90.9,30.2,92.8,30.1z"/>
		<path class="st2" d="M50.7,41.5c5.7-0.5,10.4,1.8,13.2,4.7c2.7,2.7,5.2,7.1,4.7,13.2c-0.3,4.5-2.6,8.1-5.2,10.5
			c-2.8,2.7-7,4.4-11.2,4.4c-4.4,0-8.4-1.7-11.2-4.4c-3.1-3-5.7-7.2-5.2-13.6c0.2-2.2,1-4.2,1.7-5.7c1.6-3.2,3.9-5.8,7.3-7.5
			C46.5,42.2,48.4,41.7,50.7,41.5z M48,53.6c-3.2,3.1-1.5,9,2.7,10c4.5,1.1,7.6-2.6,7.4-6.1c-0.1-1.3-1-3.2-1.6-3.8
			c-1.2-1.2-3-2-5.4-1.6C49.7,52.3,48.7,52.9,48,53.6z"/>
		<path class="st2" d="M108.5,41.5c2.4-0.3,4.6,1.1,5.5,2.9c0.7,1.4,0.6,3.7,0.6,6.1c0,5.1,0,8.1,0,13.4c0,2.4,0.1,4.8-0.4,6.2
			c-0.9,2.3-3.6,4.3-7,3.1c-1.5-0.5-2.9-1.7-3.4-3.5c-0.4-1.2-0.2-3.7-0.2-6.1c0-4.1,0-8.5,0-12.6c0-1.9-0.3-4.1,0.3-5.9
			C104.5,43.2,106,41.7,108.5,41.5z"/>
		<path class="st2" d="M165,61.4c0.6,1.7,1.6,2.4,2.8,2.9c1.9,0.8,4.5,0.9,6.8,0.4c2.2-0.4,4.5-1.8,6.7-0.7c1.5,0.7,2.5,3.1,1.5,5.3
			c-1,2.2-3.5,3.3-5.9,4.1c-6.6,2.1-13.9,0.1-17.8-3.7c-2.9-2.9-5-7.1-5-11.9c0-4.7,1.7-8.5,4.2-11.3c2.6-2.9,6.4-5.5,12.6-5.1
			c6.7,0.4,12,4.8,13.5,11c0.6,2.4,1,5.2-0.1,7c-0.7,1.1-2.4,1.8-4.2,2C175.3,61.8,169.8,61.1,165,61.4z M169.4,49.8
			c-2.7,0.2-4.4,2-4.8,4.5c3.5,0,7.1,0,10.6,0C174.9,51.4,172.5,49.5,169.4,49.8z"/>
		<path class="st2" d="M198.1,61.4c0.6,1.8,1.9,2.7,3.5,3.2c2.2,0.7,5,0.4,7.2-0.2c1.9-0.5,3.7-1.2,5.4-0.4c1.6,0.7,2.6,2.6,1.8,5
			c-0.7,2.1-2.8,3.1-4.6,3.9c-1.8,0.8-4.5,1.4-7,1.4c-8.8,0-14-4.7-16.3-11.3c-2.5-7.2,0.5-14.5,4.8-18.1c2.2-1.8,5.3-3.2,8.8-3.5
			c5.7-0.4,9.6,1.8,12.4,4.8c1.3,1.4,2.4,3.3,3.1,5.5c0.9,3.1,1.5,7.3-1.1,8.9c-1.8,1.1-5.4,0.8-8.6,0.8
			C204.1,61.4,201,61.4,198.1,61.4z M197.7,54.3c3.5,0,7.1,0,10.6,0C207.9,48.3,197.9,48.5,197.7,54.3z"/>
		<g>
			<path class="st0" d="M223.2,44.1L223.2,44.1c0.1-0.1,0.6-0.2,0.6-1c0-0.6-0.4-1-1.2-1h-1.8v3.8h0.7v-1.6h1c0.6,0,0.7,0.3,0.7,1
				c0,0.2,0,0.4,0.1,0.6h0.7c-0.1-0.2-0.2-0.6-0.2-1C223.7,44.3,223.4,44.1,223.2,44.1z M222.5,43.8h-1.1v-1.2h1.1
				c0.3,0,0.7,0.1,0.7,0.6C223.1,43.6,222.9,43.8,222.5,43.8z"/>
			<path class="st0" d="M222.3,40.3c-2,0-3.7,1.6-3.7,3.7c0,2,1.6,3.7,3.7,3.7S226,46,226,44C226,41.9,224.4,40.3,222.3,40.3z
				 M222.3,47.1c-1.7,0-3.1-1.4-3.1-3.1c0-1.7,1.4-3.1,3.1-3.1c1.7,0,3.1,1.4,3.1,3.1C225.5,45.7,224.1,47.1,222.3,47.1z"/>
		</g>
	</g>
</g>
</svg>
