<svg xmlns="http://www.w3.org/2000/svg" id="Ebene_1" data-name="Ebene 1" viewBox="0 0 680.24 507.65"><defs><style>      .cls-1 {        fill: #f7007e;      }      .cls-2 {        fill: #e6007e;      }      .cls-3 {        fill: #ffed00;      }    </style></defs><path class="cls-2" d="m334.92,393.95l-174.75,46.83c-12.84,3.44-26.04-4.18-29.48-17.03l-7.99-29.8h212.22Z"></path><path class="cls-2" d="m596.23,323.93l-30.74,8.24v-179.57c0-13.3-10.78-24.08-24.07-24.08h-241.42l227.53-60.97c12.84-3.44,26.04,4.17,29.48,17.02l56.23,209.87c3.44,12.84-4.17,26.04-17.02,29.48Z"></path><path class="cls-3" d="m565.49,152.6v217.28c0,13.3-10.78,24.08-24.07,24.08H89.97c-13.3,0-24.08-10.78-24.08-24.08v-217.28c0-13.3,10.78-24.08,24.08-24.08h451.46c13.29,0,24.07,10.78,24.07,24.08Z"></path><g><polygon class="cls-1" points="195.29 175.67 241.95 175.67 215.59 274.53 168.93 274.53 195.29 175.67"></polygon><polygon class="cls-1" points="126.48 227.34 173.41 227.34 146.78 326.2 113.04 276.77 126.48 227.34"></polygon></g><path class="cls-1" d="m255.4,215.32c0-.86.16-1.66.49-2.42.33-.76.78-1.42,1.35-1.99.57-.57,1.23-1.02,1.99-1.35.76-.33,1.56-.49,2.42-.49s1.66.16,2.42.49c.76.33,1.42.78,1.99,1.35.57.57,1.02,1.24,1.35,1.99.33.76.49,1.56.49,2.42s-.16,1.66-.49,2.42c-.33.76-.78,1.42-1.35,1.99s-1.24,1.02-1.99,1.35c-.76.33-1.56.49-2.42.49s-1.66-.16-2.42-.49c-.76-.33-1.42-.78-1.99-1.35-.57-.57-1.02-1.23-1.35-1.99-.33-.76-.49-1.56-.49-2.42Zm11.83,12.07v47.12h-11.09v-47.12h11.09Z"></path><path class="cls-1" d="m285.36,227.39v17.71c0,3.88,1.88,5.82,5.64,5.82s5.64-1.94,5.64-5.82v-17.71h11.09v19.85c0,4.25-1.4,7.44-4.2,9.56-2.8,2.12-6.98,3.19-12.53,3.19s-9.73-1.06-12.53-3.19c-2.8-2.12-4.2-5.31-4.2-9.56v-19.85h11.09Z"></path><path class="cls-1" d="m314.71,227.39h11.09v3.98c1.51-1.84,3.04-3.07,4.6-3.71,1.55-.63,3.37-.95,5.45-.95,2.21,0,4.09.36,5.67,1.07,1.57.72,2.91,1.73,4.01,3.03.9,1.06,1.51,2.25,1.84,3.55.33,1.31.49,2.8.49,4.47v19.97h-11.09v-15.87c0-1.55-.11-2.81-.34-3.77-.23-.96-.62-1.72-1.19-2.3-.49-.49-1.04-.84-1.66-1.04-.61-.2-1.27-.31-1.96-.31-1.88,0-3.32.56-4.32,1.68-1,1.12-1.5,2.73-1.5,4.81v16.79h-11.09v-31.43Z"></path><path class="cls-1" d="m390.02,227.39v29.29c0,1.76-.1,3.33-.31,4.72-.2,1.39-.49,2.61-.86,3.68-.49,1.35-1.26,2.6-2.3,3.77-1.04,1.16-2.3,2.18-3.77,3.03-1.47.86-3.14,1.53-4.99,2.02-1.86.49-3.87.73-6.04.73-2.45,0-4.7-.31-6.74-.92-2.04-.61-3.83-1.46-5.36-2.54-1.53-1.08-2.79-2.35-3.77-3.8-.98-1.45-1.64-3.03-1.96-4.75h12.5c.78,2.08,2.53,3.13,5.27,3.13,2.33,0,4.11-.65,5.36-1.96,1.25-1.31,1.87-3.13,1.87-5.45v-3c-.82.78-1.6,1.42-2.36,1.93-.76.51-1.52.93-2.3,1.26-.78.33-1.59.56-2.45.7s-1.8.21-2.82.21c-2.25,0-4.31-.39-6.19-1.16-1.88-.78-3.5-1.86-4.87-3.25-1.37-1.39-2.43-3.05-3.19-4.99-.76-1.94-1.13-4.09-1.13-6.46s.41-4.65,1.23-6.71c.82-2.06,1.93-3.86,3.34-5.39,1.41-1.53,3.08-2.74,5.03-3.62,1.94-.88,4.05-1.32,6.34-1.32,3.72,0,6.84,1.39,9.37,4.17v-3.31h11.09Zm-24.88,15.56c0,1.02.18,1.97.55,2.85.37.88.87,1.65,1.5,2.3.63.65,1.39,1.16,2.27,1.53.88.37,1.83.55,2.85.55s1.91-.18,2.79-.55c.88-.37,1.63-.88,2.27-1.53.63-.65,1.14-1.42,1.53-2.3.39-.88.58-1.81.58-2.79s-.19-1.96-.58-2.82c-.39-.86-.91-1.61-1.56-2.27-.65-.65-1.42-1.16-2.3-1.53-.88-.37-1.79-.55-2.73-.55s-1.9.19-2.76.58c-.86.39-1.61.9-2.27,1.53-.65.63-1.17,1.38-1.56,2.24-.39.86-.58,1.78-.58,2.76Z"></path><path class="cls-1" d="m407.72,244.98c0,4.78,2.25,7.17,6.74,7.17,2.41,0,4.23-.98,5.45-2.94h10.72c-2.16,7.19-7.58,10.78-16.24,10.78-2.66,0-5.09-.4-7.29-1.19-2.2-.8-4.09-1.93-5.67-3.4-1.57-1.47-2.79-3.23-3.65-5.27-.86-2.04-1.29-4.33-1.29-6.86s.41-4.97,1.23-7.08c.82-2.1,1.98-3.89,3.49-5.36,1.51-1.47,3.34-2.6,5.48-3.4,2.14-.8,4.56-1.19,7.26-1.19s5.05.4,7.17,1.19c2.12.8,3.92,1.95,5.39,3.46,1.47,1.51,2.59,3.36,3.37,5.54.78,2.19,1.17,4.65,1.17,7.38v1.17h-23.35Zm12.99-6.43c-.37-1.55-1.12-2.8-2.27-3.74s-2.53-1.41-4.17-1.41c-1.72,0-3.12.45-4.2,1.35-1.08.9-1.77,2.16-2.05,3.8h12.68Z"></path><g><path class="cls-1" d="m289.53,275.22v50.86h-11.09v-50.86h11.09Z"></path><path class="cls-1" d="m295.84,282.57c0-.86.16-1.66.49-2.42.33-.76.78-1.42,1.35-1.99.57-.57,1.23-1.02,1.99-1.35.76-.33,1.56-.49,2.42-.49s1.66.16,2.42.49c.76.33,1.42.78,1.99,1.35.57.57,1.02,1.24,1.35,1.99.33.76.49,1.56.49,2.42s-.16,1.66-.49,2.42c-.33.76-.78,1.42-1.35,1.99-.57.57-1.24,1.02-1.99,1.35-.76.33-1.56.49-2.42.49s-1.66-.16-2.42-.49c-.76-.33-1.42-.78-1.99-1.35-.57-.57-1.02-1.23-1.35-1.99-.33-.76-.49-1.56-.49-2.42Zm11.83,12.07v31.43h-11.09v-31.43h11.09Z"></path><path class="cls-1" d="m325.8,275.22v22.55c2.61-2.74,5.88-4.11,9.8-4.11,2.33,0,4.46.44,6.4,1.32,1.94.88,3.59,2.06,4.96,3.55,1.37,1.49,2.44,3.25,3.22,5.27.78,2.02,1.17,4.18,1.17,6.47s-.4,4.51-1.19,6.56c-.8,2.04-1.91,3.82-3.34,5.33-1.43,1.51-3.12,2.71-5.05,3.59-1.94.88-4.03,1.32-6.28,1.32-4.08,0-7.31-1.49-9.68-4.47v3.49h-11.09v-50.86h11.09Zm13.97,35.23c0-.98-.18-1.91-.55-2.79-.37-.88-.88-1.64-1.53-2.3-.65-.65-1.41-1.17-2.27-1.56-.86-.39-1.8-.58-2.82-.58s-1.9.18-2.76.55c-.86.37-1.6.88-2.24,1.53-.63.65-1.14,1.42-1.53,2.3-.39.88-.58,1.81-.58,2.79s.18,1.9.55,2.76c.37.86.88,1.6,1.53,2.24.65.63,1.42,1.14,2.3,1.53.88.39,1.81.58,2.79.58s1.9-.18,2.76-.55c.86-.37,1.6-.88,2.24-1.53.63-.65,1.14-1.41,1.53-2.27.39-.86.58-1.75.58-2.7Z"></path><path class="cls-1" d="m367.1,312.23c0,4.78,2.25,7.17,6.74,7.17,2.41,0,4.23-.98,5.45-2.94h10.72c-2.16,7.19-7.58,10.78-16.24,10.78-2.66,0-5.09-.4-7.29-1.19-2.2-.8-4.09-1.93-5.67-3.4-1.57-1.47-2.79-3.23-3.65-5.27-.86-2.04-1.29-4.33-1.29-6.86s.41-4.97,1.23-7.08,1.98-3.89,3.49-5.36,3.34-2.6,5.48-3.4c2.14-.8,4.56-1.19,7.26-1.19s5.05.4,7.17,1.19c2.12.8,3.92,1.95,5.39,3.46,1.47,1.51,2.59,3.36,3.37,5.54.78,2.19,1.17,4.65,1.17,7.38v1.17h-23.35Zm12.99-6.43c-.37-1.55-1.12-2.8-2.27-3.74s-2.53-1.41-4.17-1.41c-1.72,0-3.12.45-4.2,1.35-1.08.9-1.77,2.16-2.05,3.8h12.68Z"></path><path class="cls-1" d="m396.2,294.64h11.09v5.15c1.18-1.88,2.63-3.32,4.35-4.32,1.72-1,3.72-1.5,6-1.5h.95c.35,0,.74.04,1.19.12v10.6c-1.47-.74-3.06-1.1-4.78-1.1-2.57,0-4.5.76-5.79,2.3s-1.93,3.77-1.93,6.71v13.48h-11.09v-31.43Z"></path><path class="cls-1" d="m448.83,294.64h11.15v31.43h-11.15v-3.49c-2.37,2.98-5.58,4.47-9.62,4.47-2.29,0-4.39-.42-6.31-1.26-1.92-.84-3.6-2.01-5.03-3.52-1.43-1.51-2.54-3.29-3.34-5.33-.8-2.04-1.19-4.27-1.19-6.68,0-2.25.39-4.38,1.16-6.4.78-2.02,1.86-3.79,3.25-5.3,1.39-1.51,3.04-2.71,4.96-3.59,1.92-.88,4.04-1.32,6.37-1.32,3.92,0,7.17,1.37,9.74,4.11v-3.12Zm-13.97,15.63c0,1.02.18,1.97.55,2.85.37.88.87,1.65,1.5,2.3.63.65,1.39,1.16,2.27,1.53.88.37,1.83.55,2.85.55s1.91-.18,2.79-.55c.88-.37,1.63-.88,2.27-1.53.63-.65,1.14-1.41,1.53-2.27.39-.86.58-1.78.58-2.76s-.19-1.91-.58-2.79c-.39-.88-.9-1.64-1.53-2.3-.63-.65-1.39-1.16-2.27-1.53-.88-.37-1.81-.55-2.79-.55s-1.97.18-2.85.55c-.88.37-1.64.88-2.27,1.53-.63.65-1.13,1.4-1.5,2.24-.37.84-.55,1.75-.55,2.73Z"></path><path class="cls-1" d="m478.06,275.22v50.86h-11.09v-50.86h11.09Z"></path><path class="cls-1" d="m495.1,312.23c0,4.78,2.25,7.17,6.74,7.17,2.41,0,4.23-.98,5.45-2.94h10.72c-2.16,7.19-7.58,10.78-16.24,10.78-2.66,0-5.09-.4-7.29-1.19-2.2-.8-4.09-1.93-5.67-3.4-1.57-1.47-2.79-3.23-3.65-5.27-.86-2.04-1.29-4.33-1.29-6.86s.41-4.97,1.23-7.08c.82-2.1,1.98-3.89,3.49-5.36s3.34-2.6,5.48-3.4c2.14-.8,4.56-1.19,7.26-1.19s5.05.4,7.17,1.19c2.12.8,3.92,1.95,5.39,3.46,1.47,1.51,2.59,3.36,3.37,5.54.78,2.19,1.17,4.65,1.17,7.38v1.17h-23.35Zm12.99-6.43c-.37-1.55-1.12-2.8-2.27-3.74s-2.53-1.41-4.17-1.41c-1.72,0-3.12.45-4.2,1.35s-1.77,2.16-2.05,3.8h12.68Z"></path></g></svg>