<?xml version="1.0" encoding="UTF-8"?>
<svg xmlns="http://www.w3.org/2000/svg" xmlns:xlink="http://www.w3.org/1999/xlink" width="360" height="37" viewBox="0 0 360 37">
  <defs>
    <style>.a{fill:none;}.b{clip-path:url(#c);}.c{fill:#0c2647;}.d{clip-path:url(#a);}.e{fill:#006db7;}</style>
    <clipPath id="a">
      <rect class="a" width="350.377" height="31.768"></rect>
    </clipPath>
    <clipPath id="c">
      <rect width="360" height="37"></rect>
    </clipPath>
  </defs>
  <g id="b" class="b">
    <g transform="translate(4.34 3.392)">
      <path class="c" d="M63.374.427,52.405,13.983V.427H46.3V31.575h6.106V22.159l4.035-4.865,7.969,14.178h7.14L60.477,12.638,70.825.427Z" transform="translate(1.61 0.01)"></path>
      <path class="c" d="M75.2.427V31.575H95.689V26.09H81.2V18.537H93.515V13.155H81.2V5.808H95.689V.427Z" transform="translate(2.616 0.01)"></path>
      <g transform="translate(0 0.127)">
        <g class="d">
          <path class="c" d="M117.956,31.574l-6.105-12.417h-4.346V31.574H101.4V.427h12.21a11.806,11.806,0,0,1,4.243.724,8.168,8.168,0,0,1,3.208,2.07,8.4,8.4,0,0,1,1.966,3,11.347,11.347,0,0,1,.724,3.725,8.354,8.354,0,0,1-1.656,5.174,9.639,9.639,0,0,1-4.036,3l6.933,13.452ZM116.508,6.946A4.535,4.535,0,0,0,113.3,5.808h-5.691v8.278H113.3a4.7,4.7,0,0,0,3.208-1.138,3.981,3.981,0,0,0,1.242-3,4.144,4.144,0,0,0-1.242-3" transform="translate(3.527 -0.117)"></path>
          <path class="c" d="M148.219,31.574,135.905,12.431V31.574H129.8V.427h5.381l12.314,19.04V.427H153.6V31.574h-5.381Z" transform="translate(4.515 -0.117)"></path>
          <path class="c" d="M171.1,31.574V.427h6.105V26.193h14.176v5.381Z" transform="translate(5.951 -0.117)"></path>
          <rect class="c" width="6.105" height="31.147" transform="translate(202.921 0.31)"></rect>
          <path class="c" d="M209.7,31.574V.427h20.489V5.808H215.7v7.347h12.314v5.381H215.7V26.09h14.487v5.381H209.7Z" transform="translate(7.294 -0.117)"></path>
          <path class="c" d="M255.871,29.195a9.951,9.951,0,0,1-6.933,2.38H235.9V.428h12.521a9.985,9.985,0,0,1,7.14,2.38,8.357,8.357,0,0,1,2.587,6.416,6.9,6.9,0,0,1-1.242,4.036,6.025,6.025,0,0,1-2.69,2.38,7.912,7.912,0,0,1,3,2.483,6.956,6.956,0,0,1,1.242,4.45,8.806,8.806,0,0,1-2.587,6.623M251.008,6.844a4.42,4.42,0,0,0-3-1.035h-6v7.14h6a4.606,4.606,0,0,0,3-1.035,3.217,3.217,0,0,0,1.035-2.587,3.432,3.432,0,0,0-1.035-2.587m.414,12.831a3.966,3.966,0,0,0-3-1.035h-6.312v7.657h6.312a4.049,4.049,0,0,0,3-1.138,3.907,3.907,0,0,0,1.035-2.794,3.665,3.665,0,0,0-1.035-2.69" transform="translate(8.205 -0.118)"></path>
          <path class="c" d="M264.5,31.574V.427h20.489V5.808H270.5v7.347h12.314v5.381H270.5V26.09h14.487v5.381H264.5Z" transform="translate(9.2 -0.117)"></path>
          <path class="c" d="M307.257,31.574l-6.105-12.417h-4.346V31.574H290.7V.427h12.21a11.806,11.806,0,0,1,4.243.724,8.168,8.168,0,0,1,3.208,2.07,8.4,8.4,0,0,1,1.966,3,11.347,11.347,0,0,1,.724,3.725,8.355,8.355,0,0,1-1.656,5.174,9.64,9.64,0,0,1-4.036,3l6.933,13.452ZM305.808,6.946A4.535,4.535,0,0,0,302.6,5.808h-5.691v8.278H302.6a4.7,4.7,0,0,0,3.208-1.138,3.981,3.981,0,0,0,1.242-3,4.144,4.144,0,0,0-1.242-3" transform="translate(10.111 -0.117)"></path>
          <path class="c" d="M336.061,29.312a12.635,12.635,0,0,1-8.278,2.483,22.38,22.38,0,0,1-6.416-.931,12.123,12.123,0,0,1-4.967-3.208l3.932-3.932a7.27,7.27,0,0,0,3.311,1.966,14.515,14.515,0,0,0,4.243.621c3.725,0,5.484-1.242,5.484-3.829A3.451,3.451,0,0,0,332.543,20a5.2,5.2,0,0,0-2.9-1.242l-1.759-.31-1.966-.31a10.531,10.531,0,0,1-6-2.587,8.335,8.335,0,0,1-2.276-6.105,9,9,0,0,1,2.9-6.83A10.982,10.982,0,0,1,328.4.028a17.638,17.638,0,0,1,5.691.828,12.066,12.066,0,0,1,4.346,2.794l-3.829,3.829a8.39,8.39,0,0,0-2.9-1.759,13.114,13.114,0,0,0-3.518-.414,5.326,5.326,0,0,0-3.518,1.138,3.7,3.7,0,0,0-1.242,2.794,2.818,2.818,0,0,0,.931,2.173,4.909,4.909,0,0,0,2.9,1.242l1.863.31,1.759.31a19.378,19.378,0,0,1,3.518.828,6.292,6.292,0,0,1,2.484,1.552,8.637,8.637,0,0,1,2.38,6.623,8.534,8.534,0,0,1-3.208,6.933" transform="translate(11.005 -0.132)"></path>
          <rect class="e" width="33.63" height="17.074" transform="translate(0 0.31)"></rect>
          <rect class="c" width="33.63" height="8.796" transform="translate(0 22.869)"></rect>
        </g>
      </g>
    </g>
  </g>
</svg>
