<?xml version="1.0" encoding="UTF-8"?><svg id="Layer_2" xmlns="http://www.w3.org/2000/svg" viewBox="0 0 218.31 57.27"><g id="Layer_1-2"><polygon points="0 46.81 7.77 46.81 26.23 10.49 30.96 19.72 34.98 12.86 28.51 0 24.02 0 0 46.81" style="fill:#1b498d;"/><polygon points="44.84 46.81 52.33 46.81 37.35 17.59 33.8 25.16 44.84 46.81" style="fill:#1b498d;"/><polygon points="33.45 33.84 26 33.84 32.61 46.81 40.11 46.81 33.45 33.84" style="fill:#1b498d;"/><path d="M75.59,24.07c-6.78,0-8.87,3.98-8.87,3.98l1.85,1.81s1.22-2.96,6.82-2.96,5.01,6.41,5.01,6.93h-8.72s-6.27.52-6.27,6,3.9,6.74,7.14,6.74,7.81-3.79,7.81-3.79v3.39h3.23v-14.87s0-7.26-8.01-7.26ZM80.32,40.43s-2.37,3.79-6.9,3.59c-5.2-.23-5.05-4.02-4.85-5.01.2-.99,1.38-2.92,3.35-2.92h8.4v4.34Z" style="fill:#808083;"/><rect x="161.68" y="24.58" width="3.19" height="21.57" style="fill:#808083;"/><path d="M100.48,24.07c-2.29.18-4.43,2.97-5.68,4.98v-4.46h-3.19v21.57h3.19v-13.81c1.1-2.42,4.25-7.97,8.52-4.33l1.55-2.49s-1.6-1.66-4.39-1.45Z" style="fill:#808083;"/><path d="M119.72,43.55c-4.53,0-8.2-3.67-8.2-8.2s3.67-8.2,8.2-8.2c2.41,0,4.57,1.05,6.07,2.71l2.38-2.21c-2.09-2.3-5.1-3.75-8.46-3.75-6.32,0-11.45,5.13-11.45,11.45s5.12,11.45,11.45,11.45c3.52,0,6.66-1.59,8.76-4.09l-2.47-2.11c-1.5,1.8-3.77,2.95-6.3,2.95Z" style="fill:#808083;"/><path d="M145.67,24.05c-4.46.01-7,3-8.12,4.8V7.66h-3.19v38.49h3.19v-13.79c1.48-3.17,3.43-5.26,7.34-5.26,4.93,0,5.64,5.64,5.64,5.64v13.41h3.19v-13.41c0-3.43-1.66-8.72-8.05-8.7Z" style="fill:#808083;"/><path d="M183.41,11.88l2.37-2.09s-.91-2.13-5.76-2.13-5.48,4.79-5.36,6.42v10.5h-3.76v2.64h3.76v18.94h3.19v-18.94h6.12v-2.64h-6.12v-10.5s1.3-6.46,5.56-2.2Z" style="fill:#808083;"/><path d="M163.28,12.25c-1.21,0-2.2.98-2.2,2.2s.98,2.2,2.2,2.2,2.2-.98,2.2-2.2-.98-2.2-2.2-2.2Z" style="fill:#808083;"/><polygon points="198.43 41.14 191.46 24.58 187.56 24.58 197.02 44.37 191.38 57.27 194.81 57.27 209.17 24.58 205.66 24.58 198.43 41.14" style="fill:#808083;"/><path d="M215.6,24.5c-1.5,0-2.72,1.22-2.72,2.72s1.22,2.72,2.72,2.72,2.72-1.22,2.72-2.72-1.22-2.72-2.72-2.72ZM215.6,29.4c-1.2,0-2.18-.98-2.18-2.18s.98-2.18,2.18-2.18,2.18.98,2.18,2.18-.98,2.18-2.18,2.18Z" style="fill:#808083;"/><path d="M216.16,27.59c-.07-.08-.17-.15-.29-.22.23-.03.41-.11.52-.24.12-.13.17-.29.17-.49,0-.16-.04-.29-.12-.42s-.18-.21-.31-.25c-.13-.05-.33-.07-.61-.07h-1.12v2.64h.53v-1.1h.11c.12,0,.21,0,.27.03s.11.06.16.11c.05.05.14.18.28.39l.39.57h.64l-.32-.51c-.13-.21-.23-.35-.3-.43ZM215.34,27.01h-.39v-.67h.42c.22,0,.35,0,.39,0,.09.01.15.05.2.1.05.05.07.13.07.21,0,.08-.02.15-.05.2s-.09.09-.15.11c-.06.02-.22.03-.48.03Z" style="fill:#808083;"/></g></svg>