<svg xmlns="http://www.w3.org/2000/svg" viewBox="0 0 1075.39 1075.37">
    <path d="M1075.39,537.66c0,297-240.74,537.71-537.64,537.71S0,834.66,0,537.66,240.74,0,537.75,0,1075.39,240.71,1075.39,537.66Z"/>
    <path fill="#fff"
          d="M1008.09,593.94a36.89,36.89,0,1,1-36.88-36.83A36.93,36.93,0,0,1,1008.09,593.94ZM700.61,629.4H758V460.94H700.61Zm-200.1-84.72a86.16,86.16,0,1,1-86.13-86.16A86.24,86.24,0,0,1,500.51,544.68Zm-49.29,0a36.88,36.88,0,1,0-36.84,36.89A36.71,36.71,0,0,0,451.22,544.7Zm407.67-36.89a36.71,36.71,0,0,1,25.06,9.8l34.87-34.88a86.22,86.22,0,1,0-1.45,125.09l-34.91-34.9a36.45,36.45,0,0,1-23.57,8.67,36.89,36.89,0,1,1,0-73.78ZM633.24,460.94h49.29V630.39h0c-.39,46.8-38.5,85.45-86.07,85.45a85.55,85.55,0,0,1-52.57-18l24.45-24.43,11.07-11.09a36.87,36.87,0,0,0,53.87-32.7v-9.84s-13.23,11-36.82,11a86.15,86.15,0,1,1,0-172.29c23,0,36.82,12.81,36.82,12.81Zm0,83.76a36.87,36.87,0,1,0-36.85,36.89A36.71,36.71,0,0,0,633.24,544.7ZM255.16,591.57a37.91,37.91,0,0,0,38,37.83h19.45V374.13H255.16Z"/>
</svg>
