<?xml version="1.0" encoding="UTF-8"?>
<svg width="315px" height="50px" viewBox="0 0 315 50" version="1.1" xmlns="http://www.w3.org/2000/svg" xmlns:xlink="http://www.w3.org/1999/xlink">
    <title>4F81BFC8-7A51-4BE7-A54F-E13B2164D0FC</title>
    <defs>
        <path d="M0,0 L315,0 L315,50 L0,50 L0,0 Z" id="path-1"></path>
        <radialGradient cx="0.57%" cy="99.690176%" fx="0.57%" fy="99.690176%" r="187.519%" gradientTransform="translate(0.0057, 0.9969), scale(1, 0.7231), translate(-0.0057, -0.9969)" id="radialGradient-2">
            <stop stop-color="#FFF0C1" offset="0%"></stop>
            <stop stop-color="#D9E6BA" offset="9.814%"></stop>
            <stop stop-color="#9DD5AF" offset="26.78%"></stop>
            <stop stop-color="#71C8A7" offset="41.24%"></stop>
            <stop stop-color="#56C1A2" offset="52.43%"></stop>
            <stop stop-color="#4CBEA0" offset="59%"></stop>
        </radialGradient>
    </defs>
    <g id="LuminisHealthLogo" stroke="none" fill="none" xlink:href="#path-1" fill-rule="evenodd" stroke-width="1">
        <g id="Group">
            <path d="M308.637076,44.028125 C308.637076,44.028125 309.052004,44.375 309.536433,44.375 C309.813398,44.375 310.020862,44.2364583 310.020862,43.9583333 C310.020862,43.3333333 308.361149,43.403125 308.361149,42.3614583 C308.361149,41.7364583 308.84454,41.3197917 309.536433,41.3197917 C310.228326,41.3197917 310.573753,41.7364583 310.573753,41.7364583 L310.296789,42.2916667 C310.296789,42.2916667 309.951361,42.0135417 309.536433,42.0135417 C309.259468,42.0135417 308.983541,42.221875 308.983541,42.4302083 C308.983541,43.0552083 310.643254,42.9166667 310.643254,44.028125 C310.643254,44.5833333 310.228326,45.0697917 309.466933,45.0697917 C308.706577,45.0697917 308.222148,44.5833333 308.222148,44.5833333 L308.637076,44.028125 L308.637076,44.028125 Z M311.541573,41.3197917 L312.233466,41.3197917 L312.925359,43.0552083 C312.993822,43.2635417 313.132823,43.6114583 313.132823,43.6114583 C313.132823,43.6114583 313.201286,43.3333333 313.340287,43.0552083 L314.031143,41.3197917 L314.723035,41.3197917 L315,44.8614583 L314.377608,44.8614583 L314.238607,42.846875 L314.238607,42.2916667 C314.238607,42.2916667 314.100643,42.6385417 314.031143,42.846875 L313.478251,44.2364583 L312.925359,44.2364583 L312.37143,42.846875 C312.302967,42.6385417 312.163966,42.2916667 312.163966,42.2916667 L312.163966,42.846875 L312.026002,44.8614583 L311.196146,44.8614583 L311.541573,41.3197917 L311.541573,41.3197917 Z" id="Shape" fill="#009D88" fill-rule="nonzero"></path>
            <polygon id="Path" fill="#4CBEA0" fill-rule="nonzero" points="0 15.1385417 20.7464097 0 7.95313617 39.653125"></polygon>
            <polygon id="Path" fill="url(#radialGradient-2)" fill-rule="nonzero" points="20.7464097 0 40.8009267 16.3197917 36.5831816 27.4302083 14.0380581 37.0135417"></polygon>
            <path d="M73.0273622,24.375 L76.9691801,24.375 L76.9691801,36.6666667 C76.9691801,39.5135417 77.5220719,41.8052083 80.8414974,41.8052083 C84.9907794,41.8052083 87.4803485,38.125 87.4803485,34.028125 L87.4803485,24.375 L91.4221664,24.375 L91.4221664,44.9302083 L87.6193495,44.9302083 L87.6193495,42.221875 C87.6193495,41.3885417 87.6878126,40.6947917 87.6878126,40.6947917 L87.6193495,40.6947917 C86.7894931,42.7083333 84.0924598,45.4166667 80.0811415,45.4166667 C75.4474309,45.4166667 73.0968627,42.9864583 73.0968627,37.5 L73.0968627,24.375 L73.0273622,24.375 Z M96.3328416,24.375 L100.135658,24.375 L100.135658,27.0833333 C100.135658,27.9166667 100.067195,28.6114583 100.067195,28.6114583 L100.135658,28.6114583 C101.104516,26.1802083 104.009013,23.8885417 107.189438,23.8885417 C110.647864,23.8885417 112.653005,25.4864583 113.344898,28.5416667 L113.413361,28.5416667 C114.520182,26.0416667 117.355179,23.8885417 120.674604,23.8885417 C125.308315,23.8885417 127.452456,26.528125 127.452456,31.8052083 L127.452456,45 L123.510638,45 L123.510638,32.5697917 C123.510638,29.653125 122.956709,27.4302083 119.844748,27.4302083 C116.94025,27.4302083 114.797146,29.8614583 114.105253,32.6385417 C113.897789,33.471875 113.828289,34.4447917 113.828289,35.4864583 L113.828289,44.8614583 L109.955972,44.8614583 L109.955972,32.5697917 C109.955972,29.8614583 109.541043,27.4302083 106.359581,27.4302083 C103.386621,27.4302083 101.242479,29.9302083 100.482124,32.846875 C100.274659,33.6802083 100.205159,34.5833333 100.205159,35.5552083 L100.205159,44.9302083 L96.2633411,44.9302083 L96.2633411,24.375 L96.3328416,24.375 Z M132.431594,16.3197917 L136.373412,16.3197917 L136.373412,20.346875 L132.431594,20.346875 L132.431594,16.3197917 L132.431594,16.3197917 Z M132.431594,24.375 L136.373412,24.375 L136.373412,44.9302083 L132.431594,44.9302083 L132.431594,24.375 L132.431594,24.375 Z M141.352551,24.375 L145.155368,24.375 L145.155368,27.0833333 C145.155368,27.9166667 145.086904,28.6114583 145.086904,28.6114583 L145.155368,28.6114583 C145.985224,26.8052083 148.40633,23.8885417 152.831539,23.8885417 C157.672714,23.8885417 159.885318,26.528125 159.885318,31.8052083 L159.885318,45 L155.943501,45 L155.943501,32.6385417 C155.943501,29.721875 155.321108,27.5 152.071183,27.5 C148.959222,27.5 146.469653,29.5833333 145.570296,32.5697917 C145.294369,33.403125 145.224868,34.3052083 145.224868,35.346875 L145.224868,45 L141.28305,45 L141.28305,24.375 L141.352551,24.375 Z M164.864457,16.3197917 L168.806275,16.3197917 L168.806275,20.346875 L164.864457,20.346875 L164.864457,16.3197917 Z M164.864457,24.375 L168.806275,24.375 L168.806275,44.9302083 L164.864457,44.9302083 L164.864457,24.375 Z M174.615269,39.5833333 C174.615269,39.5833333 176.897374,42.0135417 180.493765,42.0135417 C182.222978,42.0135417 183.882691,41.1114583 183.882691,39.4447917 C183.882691,35.6947917 173.370485,36.4583333 173.370485,29.721875 C173.370485,25.971875 176.68991,23.8885417 180.770729,23.8885417 C185.265439,23.8885417 187.34008,26.1802083 187.34008,26.1802083 L185.749867,29.1666667 C185.749867,29.1666667 183.951154,27.3614583 180.701229,27.3614583 C178.972015,27.3614583 177.312303,28.125 177.312303,29.8614583 C177.312303,33.5416667 187.824508,32.778125 187.824508,39.5135417 C187.824508,42.9166667 184.920011,45.4864583 180.424264,45.4864583 C175.376663,45.4864583 172.679629,42.5 172.679629,42.5 L174.615269,39.5833333 L174.615269,39.5833333 Z M198.266176,16.3197917 L201.03271,16.3197917 L201.03271,30 L214.65584,30 L214.65584,16.3197917 L217.422374,16.3197917 L217.422374,44.8614583 L214.65584,44.8614583 L214.65584,32.5697917 L201.03271,32.5697917 L201.03271,44.9302083 L198.266176,44.9302083 L198.266176,16.3197917 L198.266176,16.3197917 Z M232.014361,23.9583333 C237.615892,23.9583333 240.520389,28.3333333 240.520389,33.403125 C240.520389,33.8885417 240.450889,34.7916667 240.450889,34.7916667 L224.821581,34.7916667 C224.960582,40 228.487471,42.846875 232.705217,42.846875 C236.43957,42.846875 238.929139,40.346875 238.929139,40.346875 L240.173924,42.4302083 C240.173924,42.4302083 237.200964,45.278125 232.636753,45.278125 C226.550794,45.278125 221.986584,40.903125 221.986584,34.5833333 C221.986584,27.9864583 226.481294,23.9583333 232.014361,23.9583333 Z M237.684355,32.5697917 C237.546391,28.3333333 234.918858,26.3197917 231.87536,26.3197917 C228.487471,26.3197917 225.513474,28.471875 224.891081,32.5697917 L237.684355,32.5697917 Z M255.941195,32.2916667 L257.048016,32.2916667 L257.048016,31.7364583 C257.048016,27.778125 254.903875,26.4583333 251.999378,26.4583333 C248.611489,26.4583333 246.259883,28.403125 246.259883,28.403125 L244.945598,26.3197917 C244.945598,26.3197917 247.642632,24.028125 252.206842,24.028125 C257.117517,24.028125 259.81455,26.7364583 259.81455,31.875 L259.81455,44.9302083 L257.18598,44.9302083 L257.18598,42.7083333 C257.18598,41.6666667 257.255481,40.971875 257.255481,40.971875 L257.18598,40.971875 C257.18598,40.971875 255.457804,45.4166667 250.409165,45.4166667 C247.020239,45.4166667 243.49335,43.403125 243.49335,39.375 C243.49335,32.4302083 252.414306,32.2916667 255.941195,32.2916667 Z M250.893594,43.0552083 C254.765911,43.0552083 257.117517,38.9583333 257.117517,35.4864583 L257.117517,34.5833333 L255.941195,34.5833333 C252.760771,34.5833333 246.329384,34.721875 246.329384,39.2364583 C246.329384,41.1114583 247.850096,43.0552083 250.893594,43.0552083 L250.893594,43.0552083 Z M264.862152,16.3197917 L267.628685,16.3197917 L267.628685,39.4447917 C267.628685,42.153125 268.87347,42.5 269.91079,42.5 C270.256218,42.5 270.602683,42.4302083 270.602683,42.4302083 L270.602683,44.9302083 C270.602683,44.9302083 270.118255,45 269.565363,45 C267.836149,45 264.862152,44.4447917 264.862152,40 L264.862152,16.3197917 L264.862152,16.3197917 Z M274.820428,27.0135417 L272.123395,27.0135417 L272.123395,24.721875 L274.820428,24.721875 L274.820428,18.8197917 L277.517462,18.8197917 L277.517462,24.721875 L282.635601,24.721875 L282.635601,27.0135417 L277.517462,27.0135417 L277.517462,37.153125 C277.517462,41.9447917 280.56096,42.5697917 282.081672,42.5697917 C282.635601,42.5697917 282.981029,42.5 282.981029,42.5 L282.981029,45 C282.981029,45 282.5661,45.0697917 281.805744,45.0697917 C279.454139,45.0697917 274.751965,44.3052083 274.751965,37.5 L274.751965,27.0135417 L274.820428,27.0135417 Z M287.06081,16.3197917 L289.827344,16.3197917 L289.827344,27.3614583 C289.827344,28.2635417 289.757843,29.028125 289.757843,29.028125 L289.827344,29.028125 C290.5877,27.0833333 293.284733,23.9583333 297.918444,23.9583333 C302.967082,23.9583333 304.695258,26.875 304.695258,31.875 L304.695258,44.8614583 L301.929762,44.8614583 L301.929762,32.6385417 C301.929762,29.4447917 301.445333,26.596875 297.503515,26.596875 C294.046126,26.596875 291.002628,29.028125 290.104308,32.4302083 C289.827344,33.2635417 289.757843,34.1666667 289.757843,35.1385417 L289.757843,44.9302083 L286.992347,44.9302083 L286.992347,16.3197917 L287.06081,16.3197917 L287.06081,16.3197917 Z M55.0474862,16.3197917 L59.0577672,16.3197917 L59.0577672,39.028125 C59.0577672,40.346875 60.0950877,41.3885417 61.4093728,41.3885417 L69.6384362,41.3885417 L69.6384362,44.8614583 L60.0950877,44.8614583 C57.3295913,44.8614583 55.0474862,42.5697917 55.0474862,39.7916667 L55.0474862,16.3197917 Z M20.7464097,50 L30.7741869,42.7083333 L36.6516447,27.4302083 L12.862774,43.6114583 L20.7464097,50 Z" id="Shape" fill="#009D88" fill-rule="nonzero"></path>
        </g>
    </g>
</svg>