<svg xmlns="http://www.w3.org/2000/svg" fill-rule="evenodd" stroke-linejoin="round" stroke-miterlimit="1.414" clip-rule="evenodd" viewBox="0 0 1375 266"><path fill="red" d="M42.8 65.9L4 257.9h76.7l19.3-98.6c2.7-13.9 6.2-25.1 11.5-30.9 5.3-5.9 9.6-11.3 22-11 12.7.4 18.8 6.8 19.9 17.8.7 6.6-.8 14.6-2.7 23.4l-21 99.3 77.8.1 19.5-98.7c2.4-12.1 4.5-25.7 14-34.6 4.7-4.4 11.3-7.3 18.5-7.6 14.1-.6 24.1 12.4 20.8 28.3l-23.8 112.5h77.2l24.4-115.3c2.1-10.1 3.5-19.3 3.5-27.3.1-30.9-27.7-57.7-65.2-57.2-25 .3-45.8 10.2-66.7 34.6-11.2-29.9-34.3-34.3-53.6-34.6-26-.4-51.9 12.9-63.9 33.7l.3-25.8-69.7-.1zm436.4 136.6c-5.6 5.6-12.8 10.1-21.1 12.1-14.6 3.4-31-1.1-30.1-14.7 1.3-20.9 32.9-24.1 44.2-26.1 11.3-2 15.4-2.5 21-3.9-1.8 16.6-6.7 25.4-14 32.6zm-24.7-73.2c5.1-14.4 16.2-24.2 34.1-24.2 8.9 0 18.4 2.6 17.8 14.5-.3 6.1-5.2 11.8-13.3 13.4-15.9 3.2-41.2 3.7-58 6-21.2 3-46 8.4-60.8 22.6-10.7 10.2-17.6 23.6-18.4 42.7-1.3 33.2 28.1 57.6 65.2 57.5 27.6-.1 50.8-11.4 57.6-19.8v15.8h79.5l-1.3-3.5c-1.8-6-4.5-12.1-1.1-27.5l19.8-90.6c4.1-18.6 4.3-38.6-8.3-54-11.4-13.9-38-23.2-67.6-24.2-41.2-1.4-71.6 6.1-90 18.1-20.5 13.3-28.8 35.5-30.1 53.2h74.9zm141-63.2l-8.6 43.3h23.8l-20.1 89.9c-9 40.2 8.7 58.6 53.9 58.6h39.3l8.7-54.1c-20.3-2.4-27.9 1.2-23.8-19.9l14.4-74.7h31l8.6-43h-31.8l13.3-58.3h-16.3c-24.1 18.4-40.3 31.3-62.6 33.9L619.8 66h-24.3v.1zm546.3 74h-77.3c1.3-14.2-3.2-25.7-21.6-25.2-21.5-1.7-33 19.8-37.3 43-3.9 16.5-5 49.8 23 47.1 17.2-.3 25.4-14 29.5-30.7h77.5c-10.8 46.2-35.7 90.6-111.4 88.1-60.1 0-104.5-37.2-96.7-99.5 8-63.6 51.4-104.9 120.1-104.9 37.7 0 83.9 10 92.5 53.4 1.7 9 2.3 18.3 1.7 28.7z"/><path fill="red" d="M846.8 136.8h-58.5c4.4-15.2 16.9-26.2 32.2-26.2 21.6.1 27.3 12.1 26.3 26.2zm-68.6 43.1c-3.8 16.1 7.3 29.8 25.8 30.2 13.8.3 23.7-5.5 29.4-14.4h74.4c-15.9 52.8-73.3 69.4-109.2 66.3-70.2.5-100.2-38.5-94.7-98.6 6-63.6 62.4-107.7 121.3-104.8 60.9-.6 96.4 25.9 92 101.3-.7 6.5-1.7 14-3 20h-136zm506.1-18.2c-4.8 21.4-12.4 46.4-38 47.2-29.3 1-26.9-33.5-24.1-48.9 4.2-22.3 17-50.3 39.9-50.3 25.5 0 27.1 30.2 22.2 52zM1265.4 58c-70.4.6-113.9 42.7-119.7 106-5.6 61.1 23.6 97.5 93.8 98.4 69.8.9 111.8-40.7 122.3-103.9 11.9-72.3-34.1-101-96.4-100.5z"/></svg>