<?xml version="1.0" encoding="utf-8"?>
<!-- Generator: Adobe Illustrator 26.5.1, SVG Export Plug-In . SVG Version: 6.00 Build 0)  -->
<svg version="1.1" id="Calque_1" xmlns="http://www.w3.org/2000/svg" xmlns:xlink="http://www.w3.org/1999/xlink" x="0px" y="0px"
	 viewBox="0 0 1441.2 510.2" style="enable-background:new 0 0 1441.2 510.2;" xml:space="preserve">
<style type="text/css">
	.st0{display:none;}
	.st1{fill:url(#SVGID_1_);}
	.st2{fill:url(#SVGID_00000022519799731148224140000015352413023757899709_);}
	.st3{fill:#2F2483;}
	.st4{fill:#E4002C;}
</style>
<g id="Repères" class="st0">
</g>
<g>
	<g>
		
			<linearGradient id="SVGID_1_" gradientUnits="userSpaceOnUse" x1="1242.7991" y1="619.0253" x2="1069.649" y2="885.6503" gradientTransform="matrix(1 0 0 1 0 -568.724)">
			<stop  offset="0" style="stop-color:#E4002C"/>
			<stop  offset="0.53" style="stop-color:#662282"/>
			<stop  offset="1" style="stop-color:#2F2483"/>
		</linearGradient>
		<path class="st1" d="M1266.6,425.2v-85h-173.4v-85.1h170.1v-85h-170.1V85h255.2l-85.1-85h-255.1v425.2H1266.6z"/>
		
			<linearGradient id="SVGID_00000146465154711621732000000013081856104089596809_" gradientUnits="userSpaceOnUse" x1="1441.4764" y1="748.0493" x2="1268.3264" y2="1014.6743" gradientTransform="matrix(1 0 0 1 0 -568.724)">
			<stop  offset="0" style="stop-color:#E4002C"/>
			<stop  offset="0.53" style="stop-color:#662282"/>
			<stop  offset="1" style="stop-color:#2F2483"/>
		</linearGradient>
		<path style="fill:url(#SVGID_00000146465154711621732000000013081856104089596809_);" d="M1348.4,510.2l92.8-92.8V177.9L1348.4,85
			V510.2z"/>
	</g>
	<g>
		<g>
			<path class="st3" d="M508.2,296.2h20.6v-28.1h35v-18.7h-35v-11.2h36.6v-18.7h-57.2V296.2z"/>
			<path class="st3" d="M595.3,241.5l-0.4,1.9l-3.3-15.8h-16.7v68.6h21.5v-30.3c0-9.1,1.7-13.4,6.2-15.4c2.5-1.1,5.9-1.7,10-1.7h7.7
				v-22.1h-3.5C603.9,226.6,597.5,231.1,595.3,241.5z"/>
			<path class="st3" d="M679.7,229.5c-4.5-2.2-10.4-3.3-18.1-3.3c-20.2,0-32,9.2-33.3,26h21.3c0.5-6.8,4.4-10,12-10
				c7,0,10.2,2.3,10.2,7.1c0,4.9-4.6,6-15.2,7.5c-8,1.1-12.5,2.1-16.1,3.4c-1.7,0.5-3.3,1.4-4.9,2.4L635,263
				c-6,3.7-8.9,9.2-8.9,16.9c0,11.8,7.8,18.3,22,18.3c11.6,0,19.7-4.4,24-13.2l0.5-1l2.6,12.4h17.2v-43.9
				C692.4,240.9,688.2,233.4,679.7,229.5z M671.9,268.7c0,4.7-2.7,9.2-7.1,12.1l0,0c-2.2,1.4-4.8,2.1-7.9,2.1
				c-5.4,0-8.4-2.3-8.4-6.5c0-2.4,1-4.3,3-5.8c2.4-1.5,4.8-2.1,10.6-3.2c4.2-0.8,7.2-1.7,9.2-3.2l0.6-0.5V268.7L671.9,268.7z"/>
			<path class="st3" d="M747.3,226.2c-9.9,0-17.3,4.5-21.2,12.9l-0.5,1.2l-2.2-12.7h-17.8v68.6H727v-35.8c0-10.9,3.8-16.2,11.8-16.2
				c9.3,0,10.6,7.3,10.6,14.5v37.5h21.2v-43.7C770.5,235.5,762.3,226.2,747.3,226.2z"/>
			<path class="st3" d="M828.1,267.1c-0.6,8.6-4.9,12.9-12.6,12.9c-8.5,0-13.3-6.1-13.3-16.7v-1.9c0-11.4,4.8-17.6,13.4-17.6
				c7.6,0,11.8,4.2,12.4,12.6v0.1h21.8c-0.5-13.3-6.1-22.4-16.7-27.1c-5.4-2.1-11.3-3.2-17.5-3.2c-13.8,0-24.2,5.4-30.2,15.7
				c-3,5.2-4.5,11.8-4.5,19.5v2.2c0,22.5,11.9,34.4,34.5,34.4c14.1,0,24.1-4.4,29.7-13.2c2.9-4.3,4.5-10.2,4.8-17.5v-0.2H828.1
				L828.1,267.1z"/>
			<path class="st3" d="M912.6,230.9c-5-3.1-11.6-4.7-19.8-4.7c-14.2,0-24.9,5.7-30.9,16.4c-2.9,5.2-4.4,11.4-4.4,18.9v2
				c0,22.5,12.1,34.4,34.9,34.4c18.6,0,30.1-7.7,34.3-23h-22.3c-1.8,4.3-5.7,6.6-11.4,6.6c-8.6,0-13.5-4.5-14.6-13.3l-0.1-0.4h49
				v-7.4C927.3,247.2,922.2,236.9,912.6,230.9z M878.3,255l0.1-0.5c1.4-8.4,6.4-12.7,14.6-12.7c8,0,12.5,4.3,13.6,12.7l0.1,0.4
				h-28.4V255z"/>
		</g>
		<g>
			<path class="st3" d="M401,243.3h-0.6c-4.8-5.8-11.6-8.6-20.4-8.6c-8.3,0-15,2.7-20.1,8.2s-7.7,13.1-7.7,23s2.6,17.6,7.7,23
				c5.1,5.5,11.8,8.2,20.1,8.2c9.4,0,16.4-3,21-9.2h0.6l1.3,8.1h7.4v-81H401V243.3z M395.6,282.9c-3.6,4-8.4,6-14.4,6
				s-10.9-2-14.4-6c-3.6-4-5.4-9.7-5.4-17.1c0-7.4,1.8-13.1,5.4-17.1c3.6-4,8.4-6,14.4-6s10.8,2,14.4,6s5.4,9.7,5.4,17.1
				C401,273.2,399.1,278.9,395.6,282.9z"/>
			<path class="st3" d="M450.3,234.7c-8.6,0-15.6,2.7-21,8.2c-5.4,5.5-8.1,13.1-8.1,23s2.7,17.6,8.2,23c5.4,5.5,12.6,8.2,21.5,8.2
				c12.6,0,22.3-5.9,26.6-16.7h-9.9c-3.7,5.8-9.2,8.6-16.7,8.6c-5.8,0-10.6-1.8-14.3-5.4c-3.7-3.6-5.8-8.7-6.1-15.4h48.8
				c0,0,0,0,0-5.8c0-5.7-2.5-12.9-7.1-18.4C467.8,238.4,459.7,234.7,450.3,234.7z M430.6,260.6c0.5-5.6,2.7-10,6.3-13.2
				c3.6-3.1,8.2-4.7,13.5-4.7c5.4,0,9.8,1.6,13.5,4.7c3.6,3.2,5.7,7.6,6.3,13.2H430.6z"/>
		</g>
		<g>
			<path class="st3" d="M232.4,154.7h35.1v-18h-35.1v-11h38.9v-17.9h-59.5v76.7h60.7v-18.7h-40.1V154.7z"/>
			<path class="st3" d="M325.4,114.5c-9.9,0-17.3,4.5-21.2,12.9l-0.5,1.2l-2.2-12.7h-17.8v68.6H305v-35.8c0-10.9,3.8-16.2,11.8-16.2
				c9.3,0,10.6,7.3,10.6,14.5v37.5h21.2v-43.7C348.6,123.8,340.3,114.5,325.4,114.5z"/>
			<path class="st3" d="M356.4,117.1v17.3h11.7v21.3c0,15.2,2.7,22.5,9.7,26.1c3.9,1.8,9.1,2.7,16,2.7h10.6v-19.4h-4
				c-6.9,0-10.2-0.7-11.6-4.7c-0.6-2.2-0.9-5.4-0.9-9v-17h16.5v-18.5h-16.5V98.6h-17.2c-0.1,1.9-0.3,5.8-0.7,9.1
				c-0.6,6-2.3,8.1-7.2,8.7C360.6,116.9,358.9,117.1,356.4,117.1z"/>
			<path class="st3" d="M437.4,154.2c0-9.1,1.7-13.4,6.2-15.4c2.5-1.1,5.9-1.7,10-1.7h7.7V115h-3.5c-12.8,0-19.2,4.4-21.4,14.9
				l-0.4,1.9l-3.3-15.8H416v68.6h21.5v-30.4H437.4z"/>
			<path class="st3" d="M537.3,163.3H515c-1.8,4.3-5.7,6.6-11.4,6.6c-8.6,0-13.5-4.5-14.6-13.3l-0.1-0.4h49v-7.4
				c0-13.3-5.1-23.5-14.8-29.6c-5-3.1-11.6-4.7-19.8-4.7c-14.2,0-24.9,5.7-30.9,16.4c-2.9,5.2-4.4,11.4-4.4,18.9v2
				c0,22.5,12.1,34.4,34.9,34.4C521.6,186.3,533.1,178.6,537.3,163.3z M489,142.9c1.4-8.4,6.4-12.7,14.6-12.7
				c8,0,12.5,4.3,13.6,12.7l0.1,0.4H489V142.9z"/>
			<path class="st3" d="M613.4,171.2c2.4-5.1,3.6-11.4,3.6-19.1v-2c0-23-9.6-35.6-27-35.6c-9.8,0-16.9,4.6-20.6,13.2l-0.5,1.2
				l-2.2-13h-17.8V204h20.6v-30.9l0.8,1.6c3.6,7.4,10.3,11.1,19.9,11.1C600.9,185.8,609,180.8,613.4,171.2z M569.2,151.5V150
				c0-11.4,4.9-17.9,13.6-17.9c8.5,0,13.4,6.6,13.4,18v1.7c0,10.6-4.9,16.7-13.6,16.7C574.3,168.5,569.2,162.1,569.2,151.5z"/>
			<path class="st3" d="M628.1,184.5h21.5v-30.3c0-9.1,1.7-13.4,6.2-15.4c2.5-1.1,5.9-1.7,10-1.7h7.7V115H670
				c-12.8,0-19.2,4.4-21.4,14.9l-0.4,1.9l-3.3-15.8h-16.7L628.1,184.5L628.1,184.5z"/>
			<path class="st3" d="M693,90.3c-9.1,0-12.6,2.9-12.6,10.5c0,7.8,3.2,10.4,12.6,10.4c9.1,0,12.6-2.9,12.6-10.4
				C705.7,93.4,702,90.3,693,90.3z"/>
			<path class="st3" d="M696.7,117.5c-1.3,0.1-2.5,0.2-3.7,0.2c-2.4,0-6.1-0.2-8.8-0.6c-1-0.1-1.7-0.2-2.2-0.4v67.8h21.8v-68
				c-1.3,0.4-3.9,0.9-6.6,1H696.7z"/>
			<path class="st3" d="M769.7,147.2c-5.3-2.9-11.6-4-17.6-4.9h-0.2c-10.5-1.3-16.3-2.1-16.3-6.7c0-2.9,1.6-6.3,9.5-6.3
				c6.6,0,10.4,2.4,11.5,7.4h20.6c-2.4-14.9-13.1-22.4-31.8-22.4c-18.7,0-29.9,8.4-29.9,22.6c0,7.5,2.7,12.6,8.4,15.6
				c5.1,2.9,11.4,3.9,17.3,4.7c5.2,0.5,10.9,1.3,14,2.9c1.6,0.9,2.5,2.2,2.5,3.9c0,4.3-3.4,6.5-10.2,6.5c-7.1,0-11.5-2.9-13.1-8.5
				h-21.7c2.5,16.1,13.8,24.3,33.8,24.3c13.5,0,23.2-4,28.3-11.5c2.3-3.7,3.4-7.7,3.4-12.2C778.1,155.4,775.4,150.4,769.7,147.2z"/>
			<path class="st3" d="M840.4,119.2c-5-3.1-11.6-4.7-19.8-4.7c-14.2,0-24.9,5.7-30.9,16.4c-2.9,5.2-4.4,11.4-4.4,18.9v2
				c0,22.5,12.1,34.4,34.9,34.4c18.6,0,30.1-7.7,34.3-23h-22.3c-1.8,4.3-5.7,6.6-11.4,6.6c-8.6,0-13.5-4.5-14.6-13.3l-0.1-0.4h49
				v-7.4C855.1,135.5,850,125.3,840.4,119.2z M806.1,143.3l0.1-0.5c1.4-8.4,6.4-12.7,14.6-12.7c8,0,12.5,4.3,13.6,12.7l0.1,0.4
				h-28.4V143.3z"/>
			<path class="st3" d="M918.9,147.2c-5.3-2.9-11.6-4-17.6-4.9h-0.2c-10.5-1.3-16.3-2.1-16.3-6.7c0-2.9,1.6-6.3,9.5-6.3
				c6.6,0,10.4,2.4,11.5,7.4h20.6c-2.4-14.9-13.1-22.4-31.8-22.4c-18.7,0-29.9,8.4-29.9,22.6c0,7.5,2.7,12.6,8.4,15.6
				c5.1,2.9,11.4,3.9,17.3,4.7c5.2,0.5,10.9,1.3,14,2.9c1.6,0.9,2.5,2.2,2.5,3.9c0,4.3-3.4,6.5-10.2,6.5c-7.1,0-11.5-2.9-13.1-8.5
				h-21.7c2.5,16.1,13.8,24.3,33.8,24.3c13.5,0,23.2-4,28.3-11.5c2.3-3.7,3.4-7.7,3.4-12.2C927.3,155.4,924.6,150.4,918.9,147.2z"/>
		</g>
		<g>
			<path class="st3" d="M48.8,131.2h-0.6c-4.8-5.8-11.6-8.6-20.4-8.6c-8.3,0-15,2.7-20.1,8.2S0,143.8,0,153.7c0,9.9,2.6,17.6,7.7,23
				c5.1,5.4,11.8,8.2,20.1,8.2c9.4,0,16.4-3,21-9.2h0.6l1.3,8.1h7.4v-81h-9.3V131.2z M43.5,170.8c-3.6,4-8.4,6-14.4,6
				s-10.9-2-14.4-6c-3.6-4-5.4-9.7-5.4-17.1c0-7.4,1.8-13.1,5.4-17.1s8.4-6,14.4-6s10.8,2,14.4,6s5.4,9.7,5.4,17.1
				C48.8,161.1,47,166.8,43.5,170.8z"/>
			<path class="st3" d="M98.2,122.5c-8.6,0-15.6,2.7-21,8.2c-5.4,5.5-8.1,13.1-8.1,23c0,9.9,2.7,17.6,8.2,23
				c5.4,5.5,12.6,8.2,21.5,8.2c12.6,0,22.3-5.9,26.6-16.7h-9.9c-3.7,5.8-9.2,8.6-16.7,8.6c-5.8,0-10.6-1.8-14.3-5.4
				c-3.7-3.6-5.8-8.7-6.1-15.4h48.8c0,0,0,0,0-5.8c0-5.7-2.5-12.9-7.1-18.4C115.7,126.3,107.6,122.5,98.2,122.5z M78.5,148.5
				c0.5-5.6,2.7-10,6.3-13.2c3.6-3.1,8.2-4.7,13.5-4.7c5.4,0,9.8,1.6,13.5,4.7c3.6,3.2,5.7,7.6,6.3,13.2H78.5z"/>
			<path class="st3" d="M169.3,152c-3.8-1-7.5-1.8-11.3-2.6c-3.7-0.7-6.9-1.9-9.5-3.5c-2.7-1.5-4-3.7-4-6.6c0-5.4,4.5-8.7,13.6-8.7
				c6.9,0,11.5,2.3,13.6,6.9h9.8c-1.2-4.8-4-8.5-8.3-11.1s-9.4-3.9-15.2-3.9c-6.8,0-12.4,1.6-16.5,5c-4.2,3.3-6.3,7.2-6.3,11.8
				c0,3.8,1,6.9,2.9,9.4c1.9,2.5,4.3,4.3,7.1,5.3s5.9,1.9,9.2,2.8c3.3,0.8,6.4,1.6,9.2,2.1c5.7,1.2,9.9,4.1,9.9,8.6
				c0,5.6-5.4,9.3-15.5,9.3c-7.1,0-12.9-3-14.8-8.6h-9.9c1.2,5,4,9,8.5,12.1c4.4,3.1,9.8,4.6,16.2,4.6c7.5,0,13.5-1.7,18-5.1
				c4.5-3.4,6.8-7.5,6.8-12.3c0-4.2-1.3-7.6-3.9-10.2C176.2,154.8,173,152.9,169.3,152z"/>
		</g>
		<g>
			<path class="st3" d="M327.2,53.2l29.9-42.4h0.5v67.1h9.1V0h-13l-26.5,37.6l0,0L300.7,0h-13v77.9h9.1V10.8h0.5L327.2,53.2z"/>
			<path class="st3" d="M409.8,79.2c9.1,0,16.5-2.8,22.1-8.4c5.6-5.6,8.4-13.5,8.4-23.7s-2.8-18-8.4-23.6s-13-8.4-22.1-8.4
				c-9.2,0-16.6,2.8-22.1,8.4c-5.6,5.6-8.4,13.5-8.4,23.6s2.8,18,8.4,23.7C393.2,76.4,400.6,79.2,409.8,79.2z M394.6,29.6
				c3.8-4.1,8.9-6.2,15.2-6.2c6.3,0,11.3,2.1,15.2,6.2c3.8,4.2,5.8,10,5.8,17.5s-1.9,13.4-5.8,17.5c-3.9,4.2-8.9,6.3-15.2,6.3
				c-6.3,0-11.4-2.1-15.2-6.3c-3.8-4.1-5.8-10-5.8-17.5S390.8,33.7,394.6,29.6z"/>
			<path class="st3" d="M477.1,79.2c8.7,0,15.1-3.1,19-9.5h0.6L498,78h7.6V16.2H496v38c0,4.5-1.7,8.4-5.1,11.7
				c-3.4,3.3-7.6,4.9-12.7,4.9c-4.9,0-8.9-1.5-11.9-4.4s-4.6-7-4.6-12.2v-38h-9.6v38c0,7.5,2.4,13.6,7.1,18.1
				C464.1,76.9,470,79.2,477.1,79.2z"/>
			<path class="st3" d="M549.4,78l26.1-61.8h-10.2l-21,50.5h-0.6l-21-50.5h-10.1l26,61.8H549.4z"/>
			<path class="st3" d="M607.8,15.1c-8.8,0-16,2.8-21.5,8.4S578,37,578,47.1s2.8,18,8.4,23.7c5.6,5.6,13,8.4,22.1,8.4
				c12.9,0,22.9-6.1,27.3-17.2h-10.2c-3.8,5.9-9.5,8.9-17.1,8.9c-6,0-10.9-1.9-14.7-5.6c-3.8-3.7-6-8.9-6.3-15.8h50.2c0,0,0,0,0-5.9
				s-2.5-13.2-7.3-18.9C625.8,19,617.5,15.1,607.8,15.1z M587.6,41.8c0.6-5.8,2.7-10.3,6.5-13.6c3.7-3.2,8.4-4.8,13.9-4.8
				s10.1,1.6,13.8,4.8s5.9,7.8,6.5,13.6H587.6z"/>
			<path class="st3" d="M659.3,39.9c0-4.7,1.6-8.6,4.8-11.8c3.2-3.2,6.9-4.8,11.1-4.8c4.6,0,8.3,1.4,11.1,4.4s4.2,7,4.2,12.2v38h9.5
				v-38c0-4.8,1.6-8.7,4.6-11.9s6.8-4.8,11.3-4.8c4.6,0,8.3,1.4,11.1,4.4s4.2,7,4.2,12.2v38h9.6v-38c0-7.5-2.2-13.6-6.5-18.2
				c-4.4-4.5-9.9-6.8-16.4-6.8c-9.7-0.1-16.7,3.7-21,11.3h-0.6c-3.9-7.1-10.8-11.3-19-11.3c-7.9-0.1-13.8,3.1-17.8,9.5h-0.6
				l-1.3-8.3H650v61.8h9.6V39.9H659.3z"/>
			<path class="st3" d="M781.8,15.1c-8.8,0-16,2.8-21.5,8.4S752,37,752,47.1s2.8,18,8.4,23.7c5.6,5.6,13,8.4,22.1,8.4
				c12.9,0,22.9-6.1,27.3-17.2h-10.2c-3.8,5.9-9.5,8.9-17.1,8.9c-6,0-10.9-1.9-14.7-5.6c-3.8-3.7-6-8.9-6.3-15.8h50.2c0,0,0,0,0-5.9
				s-2.5-13.2-7.3-18.9C799.7,19,791.4,15.1,781.8,15.1z M761.5,41.8c0.6-5.8,2.7-10.3,6.5-13.6c3.7-3.2,8.4-4.8,13.9-4.8
				s10.1,1.6,13.8,4.8s5.9,7.8,6.5,13.6H761.5z"/>
			<path class="st3" d="M833.2,39.9c0-4.5,1.7-8.4,5.1-11.7c3.4-3.3,7.6-4.9,12.7-4.9c4.9,0,8.9,1.4,11.9,4.4s4.6,7,4.6,12.2v38h9.6
				v-38c0-7.5-2.4-13.6-7.1-18.2c-4.7-4.5-10.6-6.8-17.7-6.8c-8.7-0.1-15.1,3.1-19,9.5h-0.6l-1.3-8.3h-7.6v61.8h9.6v-38H833.2z"/>
			<path class="st3" d="M905.5,62.5V24.7h17.2l-8.3-8.2h-9v-9L898,0h-2v16.4h-10.1v8.2H896v37.8c0,4.4,1.5,8,4.7,11
				c3.1,2.9,7,4.4,11.7,4.4h10.1v-8.2H913C908.6,69.6,905.5,66.6,905.5,62.5z"/>
		</g>
		<g transform="translate(705.7,384.3) translate(-705.7,-384.3)">
			<path class="st4" d="M488.5,413.2l8.7-10.3c7.8,6.8,15.7,10.6,25.9,10.6c8.9,0,14.5-4.1,14.5-10.3V403c0-5.8-3.3-9-18.5-12.5
				c-17.4-4.2-27.3-9.4-27.3-24.5v-0.2c0-14,11.7-23.8,28-23.8c11.9,0,21.4,3.6,29.7,10.3l-7.7,10.9c-7.4-5.5-14.7-8.4-22.2-8.4
				c-8.4,0-13.3,4.3-13.3,9.7v0.2c0,6.3,3.7,9.1,19.4,12.9c17.3,4.2,26.3,10.4,26.3,24v0.2c0,15.3-12.1,24.5-29.3,24.5
				C510.2,426.3,498.4,421.9,488.5,413.2z"/>
			<path class="st4" d="M563.9,394.6v-0.2c0-17.7,14-32.3,33-32.3s32.9,14.4,32.9,32.1v0.2c0,17.6-14,32.2-33.1,32.2
				C577.8,426.5,563.9,412.1,563.9,394.6z M615.6,394.6v-0.2c0-10.9-7.8-19.9-19-19.9c-11.3,0-18.6,8.9-18.6,19.7v0.2
				c0,10.8,7.8,19.9,18.8,19.9C608.4,414.2,615.6,405.2,615.6,394.6z"/>
			<path class="st4" d="M644.2,363.3h14.2v9.4c4-5.5,9.4-10.6,18.8-10.6c8.9,0,15.1,4.3,18.4,10.9c5-6.6,11.6-10.9,20.9-10.9
				c13.5,0,21.6,8.5,21.6,23.6v39.4h-14.2V390c0-9.8-4.6-15.1-12.5-15.1c-7.7,0-13.2,5.4-13.2,15.3v34.9H684v-35.2
				c0-9.6-4.7-15-12.5-15s-13.2,5.9-13.2,15.4v34.8h-14.2v-61.8H644.2z"/>
			<path class="st4" d="M755.3,363.3h14.2v9.4c4-5.5,9.4-10.6,18.8-10.6c8.9,0,15.1,4.3,18.4,10.9c5-6.6,11.6-10.9,20.9-10.9
				c13.5,0,21.6,8.5,21.6,23.6v39.4H835V390c0-9.8-4.6-15.1-12.5-15.1c-7.7,0-13.2,5.4-13.2,15.3v34.9h-14.2v-35.2
				c0-9.6-4.7-15-12.5-15c-7.8,0-13.2,5.9-13.2,15.4v34.8h-14.2L755.3,363.3L755.3,363.3z"/>
			<path class="st4" d="M863.1,394.4v-0.2c0-17.7,12.5-32.2,30.2-32.2c19.7,0,29.6,15.4,29.6,33.2c0,1.3-0.1,2.6-0.2,4h-45.4
				c1.5,10.1,8.7,15.7,17.8,15.7c6.9,0,11.8-2.6,16.7-7.4l8.3,7.4c-5.9,7-13.9,11.6-25.3,11.6C876.9,426.5,863.1,413.5,863.1,394.4z
				 M908.8,389.9c-0.9-9.1-6.3-16.3-15.7-16.3c-8.7,0-14.7,6.7-16,16.3H908.8z"/>
		</g>
	</g>
</g>
</svg>
