<svg width="190" height="53" viewBox="0 0 190 53" fill="none" xmlns="http://www.w3.org/2000/svg">
	<path d="M172.016 43.7819V35.0277H154.17V26.2708H171.681V17.5138H154.17V8.75692H180.438L171.681 0H145.413V43.7819H172.016Z" fill="url(#paint0_linear_496_6828)"/>
	<path d="M180.438 52.5387L190 42.9788V18.3167L180.438 8.75684V52.5387Z" fill="url(#paint1_linear_496_6828)"/>
	<path d="M75.1274 43.782H78.1771V39.632H83.3409V36.8662H78.1771V35.2062H83.587V32.4431H75.1274V43.782Z" fill="#312783"/>
	<path d="M88.0043 35.7009L87.9475 35.9767L87.4582 33.6435H84.9844V43.782H88.1557V39.2967C88.1557 37.9503 88.4125 37.3096 89.0749 37.0149C89.448 36.8473 89.9428 36.7635 90.5484 36.7635H91.692V33.5029H91.1675C89.275 33.5029 88.3287 34.1599 88.007 35.7009H88.0043Z" fill="#312783"/>
	<path d="M100.476 33.922C99.8166 33.5921 98.9406 33.4326 97.7943 33.4326C94.8095 33.4326 93.063 34.7979 92.871 37.2771H96.0234C96.0964 36.2768 96.6777 35.7928 97.7943 35.7928C98.8243 35.7928 99.3029 36.1254 99.3029 36.8418C99.3029 37.5583 98.6189 37.7313 97.0589 37.9449C95.8774 38.1125 95.2123 38.2558 94.6851 38.4532C94.4364 38.5316 94.2012 38.6641 93.9552 38.8046L93.8633 38.856C92.9792 39.4021 92.5493 40.2186 92.5493 41.3514C92.5493 43.0925 93.7037 44.0523 95.7963 44.0523C97.5077 44.0523 98.7054 43.398 99.3515 42.103L99.4272 41.9516L99.8057 43.7874H102.353V37.3014C102.353 35.6117 101.739 34.5059 100.476 33.9247V33.922ZM99.3218 39.7212C99.3218 40.416 98.9271 41.0838 98.2701 41.5028C97.9403 41.711 97.5591 41.8137 97.1076 41.8137C96.3046 41.8137 95.8639 41.4731 95.8639 40.854C95.8639 40.4998 96.0099 40.2186 96.3127 39.9942C96.6723 39.7671 97.0183 39.6779 97.8754 39.5238C98.4972 39.3994 98.9406 39.2778 99.2299 39.0588L99.3245 38.9858V39.7239L99.3218 39.7212Z" fill="#312783"/>
	<path d="M110.476 33.4326C109.008 33.4326 107.924 34.0923 107.346 35.3441L107.267 35.5144L106.943 33.6435H104.31V43.7819H107.465V38.4829C107.465 36.8716 108.032 36.0902 109.203 36.0902C110.579 36.0902 110.766 37.1744 110.766 38.2369V43.7847H113.902V37.3177C113.902 34.8114 112.685 33.4326 110.476 33.4326Z" fill="#312783"/>
	<path d="M122.416 39.4805C122.324 40.7485 121.697 41.3893 120.556 41.3893C119.304 41.3893 118.587 40.4917 118.587 38.9263V38.6424C118.587 36.9608 119.293 36.0362 120.575 36.0362C121.699 36.0362 122.316 36.6607 122.402 37.8962V37.9125H125.628C125.56 35.9497 124.727 34.6006 123.151 33.9057C122.359 33.5921 121.486 33.4326 120.558 33.4326C118.523 33.4326 116.982 34.2356 116.1 35.755C115.659 36.5309 115.435 37.5015 115.435 38.6424V38.9615C115.435 42.2896 117.201 44.0496 120.539 44.0496C122.621 44.0496 124.097 43.3926 124.927 42.0949C125.349 41.4542 125.59 40.5836 125.644 39.5076V39.4805H122.418H122.416Z" fill="#312783"/>
	<path d="M134.901 34.1301C134.163 33.6678 133.179 33.4326 131.978 33.4326C129.875 33.4326 128.296 34.2707 127.415 35.8604C126.979 36.6283 126.769 37.5421 126.769 38.6614V38.9615C126.769 42.2896 128.553 44.0496 131.927 44.0496C134.668 44.0496 136.374 42.906 136.996 40.6485H133.701C133.433 41.2838 132.852 41.6218 132.016 41.6218C130.743 41.6218 130.016 40.9621 129.853 39.659L129.845 39.5914H137.085V38.5018C137.085 36.539 136.331 35.0277 134.904 34.1301H134.901ZM129.84 37.6935L129.851 37.6259C130.064 36.3849 130.791 35.755 132.014 35.755C133.236 35.755 133.865 36.3849 134.017 37.6286L134.025 37.6935H129.84Z" fill="#312783"/>
	<path d="M59.2706 35.9659H59.1814C58.4757 35.1143 57.4673 34.6898 56.1642 34.6898C54.9422 34.6898 53.9499 35.09 53.1929 35.901C52.4332 36.7094 52.0493 37.8368 52.0493 39.2968C52.0493 40.7567 52.4332 41.8922 53.1929 42.7006C53.9526 43.5089 54.9422 43.9118 56.1642 43.9118C57.5484 43.9118 58.5839 43.4603 59.2706 42.5519H59.3598L59.5464 43.7442H60.644V31.7781H59.2706V35.9686V35.9659ZM58.4784 41.8246C57.9512 42.4167 57.2375 42.7168 56.3534 42.7168C55.4694 42.7168 54.7475 42.4167 54.2203 41.8246C53.6931 41.2325 53.4254 40.389 53.4254 39.2968C53.4254 38.2045 53.6931 37.361 54.2203 36.7689C54.7475 36.1768 55.4612 35.8848 56.3534 35.8848C57.2456 35.8848 57.9512 36.1768 58.4784 36.7689C59.0056 37.361 59.2733 38.2045 59.2733 39.2968C59.2733 40.389 59.0056 41.2325 58.4784 41.8246Z" fill="#312783"/>
	<path d="M66.5677 34.6897C65.2997 34.6897 64.2643 35.0898 63.4694 35.9009C62.6745 36.7093 62.2744 37.8367 62.2744 39.2966C62.2744 40.7565 62.6773 41.8921 63.4883 42.7004C64.2913 43.5088 65.3538 43.9116 66.665 43.9116C68.5224 43.9116 69.958 43.0357 70.5933 41.4406H69.128C68.5846 42.2922 67.7627 42.7166 66.665 42.7166C65.808 42.7166 65.1024 42.449 64.5508 41.9164C63.9966 41.3892 63.6938 40.6322 63.6505 39.6373H70.8718C70.8718 39.6373 70.8718 39.6346 70.8718 38.7856C70.8718 37.9367 70.5068 36.8823 69.8282 36.0658C69.1496 35.2493 67.9628 34.6897 66.5704 34.6897H66.5677ZM63.6505 38.5288C63.7316 37.6934 64.0426 37.0445 64.5779 36.5768C65.1132 36.1172 65.7837 35.8847 66.5785 35.8847C67.3734 35.8847 68.0331 36.1172 68.5684 36.5768C69.1037 37.0445 69.4173 37.6961 69.4957 38.5288H63.6505Z" fill="#312783"/>
	<path d="M34.3573 22.867H39.5373V20.2067H34.3573V18.5791H40.1024V15.9377H31.3076V27.2766H40.2808V24.5135H34.3573V22.867Z" fill="#312783"/>
	<path d="M48.1024 16.9272C46.6344 16.9272 45.5502 17.5869 44.9717 18.8387L44.8933 19.009L44.5688 17.1381H41.9355V27.2766H45.0906V21.9775C45.0906 20.3662 45.6584 19.5849 46.829 19.5849C48.2052 19.5849 48.3917 20.669 48.3917 21.7315V27.2793H51.5279V20.8123C51.5279 18.3061 50.3113 16.9272 48.1024 16.9272Z" fill="#312783"/>
	<path d="M52.6792 17.3137V19.8659H54.4122V23.021C54.4122 25.2703 54.815 26.3518 55.8478 26.8763C56.421 27.1466 57.1942 27.2764 58.208 27.2764H59.7761V24.4052H59.1813C58.1648 24.4052 57.6727 24.3052 57.4645 23.7104C57.3807 23.3805 57.3375 22.9128 57.3375 22.3829V19.8659H59.7788V17.138H57.3375V14.575H54.8015C54.788 14.8534 54.7583 15.4347 54.6988 15.9213C54.6096 16.8135 54.3608 17.1163 53.639 17.2109C53.3037 17.2785 53.055 17.3137 52.6819 17.3164L52.6792 17.3137Z" fill="#312783"/>
	<path d="M64.6618 22.7911C64.6618 21.4447 64.9186 20.804 65.581 20.5093C65.9541 20.3417 66.4488 20.2552 67.0544 20.2552H68.1981V16.9946H67.6736C65.7811 16.9946 64.8348 17.6516 64.5131 19.1926L64.4563 19.4684L63.9669 17.1352H61.4932V27.2737H64.6645V22.7884L64.6618 22.7911Z" fill="#312783"/>
	<path d="M79.4315 24.1404H76.1358C75.8682 24.7785 75.2869 25.1137 74.4515 25.1137C73.1781 25.1137 72.4509 24.4541 72.2886 23.1509L72.2805 23.0833H79.5207V21.9938C79.5207 20.031 78.7664 18.5197 77.3389 17.6221C76.6009 17.1598 75.6167 16.9246 74.4164 16.9246C72.313 16.9246 70.7341 17.7654 69.8527 19.3524C69.4174 20.1175 69.2065 21.034 69.2065 22.1533V22.4534C69.2065 25.7815 70.9909 27.5415 74.365 27.5415C77.1064 27.5415 78.8124 26.3979 79.4342 24.1404H79.4315ZM72.2886 21.1205C72.5022 19.8796 73.2295 19.2496 74.4515 19.2496C75.6735 19.2496 76.3035 19.8796 76.4549 21.1232L76.463 21.1881H72.2778L72.2886 21.1205Z" fill="#312783"/>
	<path d="M90.6782 25.3138C91.0324 24.5541 91.2027 23.6321 91.2027 22.4912V22.1911C91.2027 18.7954 89.786 16.9272 87.2122 16.9272C85.7658 16.9272 84.7141 17.6004 84.1707 18.8711L84.0923 19.055L83.7651 17.1381H81.1318V30.1667H84.1788V25.5922L84.2896 25.8247C84.8168 26.917 85.8063 27.4712 87.2257 27.4712C88.8262 27.4712 90.0185 26.725 90.6728 25.3111L90.6782 25.3138ZM84.149 22.402V22.1722C84.149 20.4933 84.879 19.5308 86.1524 19.5308C87.4258 19.5308 88.1395 20.4987 88.1395 22.1884V22.4372C88.1395 24.0025 87.4096 24.9001 86.1362 24.9001C84.8628 24.9001 84.149 23.9647 84.149 22.402Z" fill="#312783"/>
	<path d="M92.8545 27.2764H96.0258V22.7911C96.0258 21.4447 96.2826 20.804 96.945 20.5093C97.3181 20.3417 97.8129 20.2552 98.4185 20.2552H99.5621V16.9946H99.0376C97.1451 16.9946 96.1988 17.6516 95.8771 19.1926L95.8203 19.4684L95.331 17.1352H92.8572V27.2737L92.8545 27.2764Z" fill="#312783"/>
	<path d="M102.45 13.353C101.106 13.353 100.582 13.7883 100.582 14.9022C100.582 16.0161 101.052 16.4351 102.45 16.4351C103.847 16.4351 104.318 16.0052 104.318 14.9022C104.318 13.7991 103.777 13.353 102.45 13.353Z" fill="#312783"/>
	<path d="M102.996 17.3733C102.798 17.3896 102.625 17.4031 102.452 17.4031C102.09 17.4031 101.557 17.3679 101.155 17.3139C101.014 17.3031 100.908 17.2814 100.83 17.249V27.2766H104.055V17.2192C103.866 17.2841 103.485 17.3517 103.074 17.3652L102.996 17.3706V17.3733Z" fill="#312783"/>
	<path d="M113.783 21.7638C113.004 21.3394 112.074 21.1664 111.188 21.0447L111.155 21.0393C109.603 20.8419 108.749 20.7311 108.749 20.0471C108.749 19.6253 108.992 19.1224 110.152 19.1224C111.131 19.1224 111.685 19.482 111.845 20.2201H114.894C114.545 18.0221 112.964 16.9082 110.187 16.9082C107.411 16.9082 105.772 18.1546 105.772 20.2444C105.772 21.3556 106.178 22.1072 107.013 22.5452C107.77 22.9669 108.695 23.1238 109.576 23.2454C110.339 23.3238 111.193 23.4293 111.647 23.6753C111.891 23.8051 112.015 24.0024 112.015 24.2566C112.015 24.8946 111.507 25.2163 110.506 25.2163C109.452 25.2163 108.8 24.7946 108.568 23.9619H105.356C105.721 26.3491 107.4 27.5576 110.347 27.5576C112.334 27.5576 113.78 26.9683 114.524 25.8517C114.862 25.3001 115.027 24.7081 115.027 24.0457C115.027 22.9778 114.621 22.2289 113.783 21.7638Z" fill="#312783"/>
	<path d="M124.23 17.6248C123.492 17.1625 122.508 16.9272 121.307 16.9272C119.204 16.9272 117.625 17.7681 116.744 19.3551C116.309 20.1202 116.098 21.0367 116.098 22.156V22.4561C116.098 25.7842 117.882 27.5442 121.256 27.5442C123.998 27.5442 125.703 26.4006 126.325 24.1431H123.03C122.762 24.7812 122.181 25.1164 121.345 25.1164C120.072 25.1164 119.345 24.4567 119.182 23.1536L119.174 23.086H126.415V21.9965C126.415 20.0337 125.66 18.5224 124.233 17.6248H124.23ZM119.169 21.1881L119.18 21.1205C119.393 19.8796 120.121 19.2496 121.343 19.2496C122.565 19.2496 123.195 19.8796 123.346 21.1232L123.354 21.1881H119.169Z" fill="#312783"/>
	<path d="M135.839 21.7638C135.061 21.3394 134.131 21.1664 133.244 21.0447L133.211 21.0393C131.659 20.8419 130.805 20.7311 130.805 20.0471C130.805 19.6253 131.048 19.1224 132.208 19.1224C133.187 19.1224 133.741 19.482 133.901 20.2201H136.95C136.602 18.0221 135.02 16.9082 132.243 16.9082C129.467 16.9082 127.828 18.1546 127.828 20.2444C127.828 21.3556 128.234 22.1072 129.069 22.5452C129.826 22.9669 130.751 23.1238 131.632 23.2454C132.395 23.3238 133.249 23.4293 133.703 23.6753C133.947 23.8051 134.071 24.0024 134.071 24.2566C134.071 24.8946 133.563 25.2163 132.562 25.2163C131.508 25.2163 130.856 24.7946 130.624 23.9619H127.412C127.777 26.3491 129.456 27.5576 132.403 27.5576C134.39 27.5576 135.836 26.9683 136.58 25.8517C136.918 25.3001 137.083 24.7081 137.083 24.0457C137.083 22.9778 136.677 22.2289 135.839 21.7638Z" fill="#312783"/>
	<path d="M7.22128 19.3873H7.13206C6.42643 18.5357 5.41799 18.1112 4.11486 18.1112C2.89284 18.1112 1.90062 18.5114 1.14362 19.3224C0.383909 20.1308 0 21.2582 0 22.7181C0 24.1781 0.383909 25.3136 1.14362 26.122C1.90333 26.9303 2.89284 27.3332 4.11486 27.3332C5.4991 27.3332 6.53457 26.8817 7.22128 25.9733H7.3105L7.49705 27.1655H8.5947V15.1995H7.22128V19.39V19.3873ZM6.42643 25.246C5.89923 25.8381 5.18548 26.1382 4.30141 26.1382C3.41733 26.1382 2.69548 25.8381 2.16828 25.246C1.64108 24.6539 1.37342 23.8104 1.37342 22.7181C1.37342 21.6259 1.64108 20.7824 2.16828 20.1903C2.69548 19.5982 3.40922 19.3062 4.30141 19.3062C5.19359 19.3062 5.89923 19.5982 6.42643 20.1903C6.95363 20.7824 7.22128 21.6259 7.22128 22.7181C7.22128 23.8104 6.95363 24.6539 6.42643 25.246Z" fill="#312783"/>
	<path d="M14.5184 18.1113C13.2504 18.1113 12.2149 18.5115 11.4201 19.3225C10.6252 20.1309 10.2251 21.2583 10.2251 22.7182C10.2251 24.1782 10.6279 25.3137 11.439 26.1221C12.242 26.9304 13.3045 27.3333 14.6157 27.3333C16.4731 27.3333 17.9087 26.4573 18.544 24.8622H17.0787C16.5353 25.7138 15.7134 26.1383 14.6157 26.1383C13.7587 26.1383 13.0531 25.8706 12.5015 25.338C11.9473 24.8108 11.6445 24.0538 11.6012 23.0589H18.8225C18.8225 23.0589 18.8225 23.0562 18.8225 22.2073C18.8225 21.3583 18.4575 20.3039 17.7789 19.4875C17.1003 18.671 15.9134 18.1113 14.5211 18.1113H14.5184ZM11.5985 21.9504C11.6796 21.115 11.9905 20.4662 12.5259 19.9984C13.0612 19.5388 13.7317 19.3063 14.5265 19.3063C15.3214 19.3063 15.981 19.5388 16.5163 19.9984C17.0517 20.4662 17.3653 21.1177 17.4437 21.9504H11.5985Z" fill="#312783"/>
	<path d="M25.0272 22.4668C24.4648 22.3262 23.9106 22.1991 23.3591 22.0829C22.8048 21.9747 22.3317 21.799 21.9478 21.5665C21.5558 21.3421 21.3584 21.015 21.3584 20.5905C21.3584 19.7902 22.0181 19.3063 23.3672 19.3063C24.3945 19.3063 25.0731 19.6497 25.384 20.3337H26.8386C26.6601 19.6253 26.2492 19.0819 25.6057 18.6899C24.9623 18.306 24.2134 18.114 23.3645 18.114C22.356 18.114 21.5341 18.3573 20.9177 18.8494C20.2932 19.3414 19.9796 19.9173 19.9796 20.5932C19.9796 21.1528 20.1229 21.6125 20.4067 21.9856C20.6825 22.3613 21.0394 22.629 21.4611 22.7696C21.8802 22.921 22.3263 23.0535 22.8183 23.1778C23.3104 23.3022 23.7646 23.4103 24.1836 23.4942C25.0218 23.6699 25.6463 24.0943 25.6463 24.7702C25.6463 25.5975 24.8514 26.1383 23.3618 26.1383C22.3182 26.1383 21.4503 25.6868 21.1746 24.8622H19.7119C19.8904 25.6057 20.3094 26.1977 20.9691 26.6492C21.6206 27.1088 22.4236 27.3332 23.3618 27.3332C24.4675 27.3332 25.3516 27.0818 26.0221 26.5816C26.6926 26.0815 27.0224 25.4813 27.0224 24.7702C27.0224 24.1457 26.8251 23.6428 26.4411 23.2589C26.0491 22.875 25.576 22.6074 25.0218 22.4668H25.0272Z" fill="#312783"/>
	<path d="M48.3674 7.86744L52.785 1.60323H52.8634L52.8661 11.5092H54.2098V0H52.2849L48.3674 5.55317L44.4526 0H42.5249V11.5092H43.8713V1.60323H43.9497L48.3674 7.86744Z" fill="#312783"/>
	<path d="M60.5792 11.7012C61.9256 11.7012 63.0178 11.2902 63.8424 10.4575C64.667 9.62482 65.0807 8.45957 65.0807 6.95908C65.0807 5.45859 64.667 4.30145 63.8424 3.46875C63.0178 2.63604 61.9256 2.2251 60.5792 2.2251C59.2328 2.2251 58.1297 2.63604 57.3051 3.46875C56.4805 4.30145 56.0669 5.45859 56.0669 6.95908C56.0669 8.45957 56.4805 9.62482 57.3051 10.4575C58.1297 11.2902 59.222 11.7012 60.5792 11.7012ZM58.3325 4.37175C58.9003 3.76344 59.6519 3.45523 60.5792 3.45523C61.5065 3.45523 62.2473 3.76344 62.8259 4.37175C63.3936 4.98816 63.6775 5.85602 63.6775 6.96178C63.6775 8.06755 63.3936 8.94351 62.8259 9.55182C62.2473 10.1682 61.5065 10.4791 60.5792 10.4791C59.6519 10.4791 58.9003 10.1709 58.3325 9.55182C57.7647 8.94351 57.4809 8.07836 57.4809 6.96178C57.4809 5.8452 57.7647 4.99087 58.3325 4.37175Z" fill="#312783"/>
	<path d="M70.5259 11.7012C71.8182 11.7012 72.7537 11.2389 73.3404 10.3035H73.4323L73.6242 11.5309H74.7516V2.40088H73.3404V8.01623C73.3404 8.68402 73.0835 9.25988 72.5807 9.74923C72.0778 10.2386 71.4533 10.4792 70.7098 10.4792C69.9663 10.4792 69.3985 10.2656 68.9497 9.82763C68.5009 9.38965 68.2711 8.78946 68.2711 8.01893V2.40088H66.8599V8.01623C66.8599 9.13011 67.2086 10.0223 67.9062 10.6901C68.6037 11.3687 69.4742 11.7012 70.5286 11.7012H70.5259Z" fill="#312783"/>
	<path d="M81.2182 11.5309L85.0681 2.40088H83.5649L80.4666 9.86008H80.3747L77.2737 2.40088H75.7705L79.6231 11.5309H81.2182Z" fill="#312783"/>
	<path d="M89.8537 2.22778C88.5505 2.22778 87.488 2.63873 86.6715 3.47143C85.8551 4.30414 85.4414 5.46127 85.4414 6.96176C85.4414 8.46226 85.8551 9.6275 86.6878 10.4602C87.5124 11.2929 88.6046 11.7039 89.951 11.7039C91.8597 11.7039 93.3359 10.8036 93.9847 9.16519H92.4815C91.9219 10.0412 91.0784 10.4764 89.951 10.4764C89.0696 10.4764 88.3451 10.2034 87.7773 9.65454C87.2096 9.11382 86.8959 8.33519 86.85 7.31323H94.2686C94.2686 7.31323 94.2686 7.30782 94.2686 6.43727C94.2686 5.56671 93.8928 4.48258 93.1953 3.64176C92.4978 2.80094 91.2784 2.22778 89.8482 2.22778H89.8537ZM86.8554 6.17232C86.9392 5.31528 87.2582 4.64749 87.8098 4.16626C88.3586 3.69583 89.048 3.45521 89.8645 3.45521C90.681 3.45521 91.3596 3.69583 91.9084 4.16626C92.4572 4.64749 92.7789 5.31528 92.8628 6.17232H86.8554Z" fill="#312783"/>
	<path d="M97.4562 5.89385C97.4562 5.19903 97.6941 4.61776 98.1618 4.14463C98.6295 3.67421 99.1784 3.43359 99.8029 3.43359C100.482 3.43359 101.033 3.64717 101.444 4.08515C101.858 4.52313 102.058 5.12333 102.058 5.89385V11.5092H103.461V5.89385C103.461 5.19092 103.691 4.60694 104.139 4.13652C104.588 3.66609 105.14 3.43359 105.808 3.43359C106.475 3.43359 107.035 3.64717 107.449 4.08515C107.862 4.52313 108.062 5.12333 108.062 5.89385V11.5092H109.474V5.89385C109.474 4.77997 109.152 3.88779 108.511 3.20919C107.86 2.5414 107.054 2.20616 106.091 2.20616C104.661 2.19805 103.626 2.75499 102.993 3.86886H102.901C102.323 2.81447 101.306 2.20616 100.087 2.20616C98.9215 2.19805 98.0429 2.66847 97.4562 3.60391H97.3643L97.1723 2.37648H96.0449V11.5065H97.4562V5.89115V5.89385Z" fill="#312783"/>
	<path d="M115.565 2.22778C114.261 2.22778 113.199 2.63873 112.382 3.47143C111.566 4.30414 111.152 5.46127 111.152 6.96176C111.152 8.46226 111.566 9.6275 112.399 10.4602C113.223 11.2929 114.316 11.7039 115.662 11.7039C117.571 11.7039 119.047 10.8036 119.696 9.16519H118.192C117.633 10.0412 116.789 10.4764 115.662 10.4764C114.781 10.4764 114.056 10.2034 113.488 9.65454C112.92 9.11382 112.607 8.33519 112.561 7.31323H119.98C119.98 7.31323 119.98 7.30782 119.98 6.43727C119.98 5.56671 119.604 4.48258 118.906 3.64176C118.209 2.80094 116.989 2.22778 115.559 2.22778H115.565ZM112.566 6.17232C112.65 5.31528 112.969 4.64749 113.521 4.16626C114.07 3.69583 114.759 3.45521 115.575 3.45521C116.392 3.45521 117.07 3.69583 117.619 4.16626C118.168 4.64749 118.49 5.31528 118.574 6.17232H112.566Z" fill="#312783"/>
	<path d="M123.164 5.89387C123.164 5.22608 123.421 4.65022 123.924 4.16087C124.43 3.67152 125.052 3.4309 125.795 3.4309C126.539 3.4309 127.106 3.64448 127.555 4.08247C128.004 4.52045 128.234 5.12064 128.234 5.89117V11.5065H129.645V5.89117C129.645 4.77729 129.296 3.8851 128.599 3.2065C127.901 2.53872 127.031 2.20347 125.976 2.20347C124.684 2.19536 123.748 2.66579 123.162 3.60123H123.07L122.878 2.3738H121.75V11.5038H123.162V5.88846L123.164 5.89387Z" fill="#312783"/>
	<path d="M133.849 9.24086V3.64984H136.396L135.174 2.43052H133.849V1.10577L132.749 0H132.446V2.42782H130.951V3.64714H132.446V9.24086C132.446 9.88972 132.673 10.425 133.138 10.8603C133.595 11.2956 134.168 11.5092 134.871 11.5092H136.366V10.2899H134.971C134.314 10.2899 133.849 9.84646 133.849 9.24086Z" fill="#312783"/>
	<defs>
		<linearGradient id="paint0_linear_496_6828" x1="169.566" y1="5.18007" x2="151.736" y2="32.635" gradientUnits="userSpaceOnUse">
			<stop stop-color="#E4032E"/>
			<stop offset="0.53" stop-color="#662483"/>
			<stop offset="1" stop-color="#312783"/>
		</linearGradient>
		<linearGradient id="paint1_linear_496_6828" x1="190.046" y1="18.4357" x2="172.243" y2="45.8473" gradientUnits="userSpaceOnUse">
			<stop stop-color="#E4032E"/>
			<stop offset="0.53" stop-color="#662483"/>
			<stop offset="1" stop-color="#312783"/>
		</linearGradient>
	</defs>
</svg>
