<svg width="120" height="40" viewBox="0 0 120 40" fill="none" xmlns="http://www.w3.org/2000/svg">
<path d="M118.815 20C118.815 9.67716 110.587 1.29921 100.413 1H19.7008C9.30315 1.22441 1 9.60236 1 20C1 30.4724 9.52756 39 20 39C20.1496 39 100.339 39 100.339 39C110.661 38.7008 118.815 30.3228 118.815 20Z" fill="#00697F" stroke="white" stroke-width="2" stroke-miterlimit="10"/>
<path d="M19.1772 30.8465V24.563H14.315C11.7717 24.563 9.75197 22.5433 9.75197 20C9.75197 17.4567 11.7717 15.437 14.315 15.437H33.2402V15.9606V16.4843H14.315C12.3701 16.4843 10.7244 18.1299 10.7244 20.0748C10.7244 22.0197 12.3701 23.6654 14.315 23.6654H19.7008C19.8504 23.6654 19.9252 23.7402 20.0748 23.815C20.1496 23.8898 20.2244 24.0394 20.2244 24.189V30.9961C20.2244 33.0158 21.8701 34.7362 23.815 34.7362C25.7598 34.7362 27.4055 33.0158 27.4055 30.9961V24.189C27.4055 24.0394 27.4803 23.9646 27.5551 23.815C27.6299 23.7402 27.7795 23.6654 27.9291 23.6654H33.315C35.2598 23.6654 36.9055 22.0197 36.9055 20.0748C36.9055 18.0551 35.2598 16.4843 33.315 16.4843V15.9606V15.437C35.8583 15.437 37.878 17.4567 37.878 20C37.878 22.5433 35.8583 24.563 33.315 24.563H28.4528V30.8465C28.4528 33.3898 26.4331 35.5591 23.8898 35.5591C21.1969 35.5591 19.1772 33.3898 19.1772 30.8465Z" fill="white"/>
<path d="M21.1969 30.9961V22.6181H14.315C12.8937 22.6181 11.7717 21.4961 11.7717 20.0748C11.7717 18.6535 12.8937 17.5315 14.315 17.5315H33.1654V18.0551V18.4291H14.315C13.4173 18.4291 12.7441 19.1772 12.7441 20C12.7441 20.8976 13.4921 21.5709 14.315 21.5709H22.1693V30.9961C22.1693 31.8937 22.9173 32.5669 23.7402 32.5669C24.6378 32.5669 25.311 31.8189 25.311 30.9961V21.6457H33.1654C34.063 21.6457 34.7362 20.8976 34.7362 20.0748C34.7362 19.1772 33.9882 18.5039 33.1654 18.5039V17.9803V17.4567C34.5866 17.4567 35.7087 18.5787 35.7087 20C35.7087 21.4213 34.5866 22.5433 33.1654 22.5433H26.2835V30.9961C26.2835 32.4173 25.1614 33.5394 23.7402 33.5394C22.3189 33.6142 21.1969 32.4173 21.1969 30.9961Z" fill="white"/>
<path d="M58.4488 25.5354C58.4488 25.7598 58.374 26.3583 57.5512 26.3583C57.0276 26.3583 56.6535 26.059 56.6535 25.5354L56.7284 17.6811C56.7284 16.7086 56.7283 16.4094 56.8032 15.6614C56.878 15.437 56.878 15.2126 56.878 15.063C56.8032 15.2874 56.7284 15.5118 56.6535 15.811C56.3543 16.8583 56.2047 17.0827 55.6811 18.5039L52.689 25.9842C52.6142 26.2086 52.4646 26.4331 51.8661 26.4331C51.2677 26.4331 51.1181 26.2086 51.0433 25.9842L48.2008 18.2047C47.5276 16.4094 47.378 16.0354 47.1535 14.9134C47.3032 15.8858 47.3032 16.0354 47.3032 17.4567L47.4528 25.5354C47.4528 25.7598 47.378 26.3583 46.6299 26.3583C45.8071 26.3583 45.7323 25.8346 45.7323 25.5354V13.6417C45.7323 13.4173 45.8071 13.1929 45.9567 13.0433C46.0315 12.9685 46.2559 12.7441 47.0039 12.7441C47.9016 12.7441 48.0512 13.0433 48.2008 13.3425L51.8661 22.6929C52.0158 23.1417 52.0906 23.2913 52.2402 23.9646C52.3898 23.4409 52.4646 23.1417 52.6142 22.6929L56.2047 13.3425C56.3543 13.0433 56.5039 12.7441 57.4016 12.7441C58.5236 12.7441 58.5984 13.2677 58.5984 13.6417V25.5354H58.4488Z" fill="white"/>
<path d="M63.8347 14.4645V18.5787H69.9685C70.1929 18.5787 70.7165 18.6535 70.7165 19.4016C70.7165 20.0748 70.1929 20.1496 69.9685 20.1496H63.8347V24.6378H70.6417C70.8661 24.6378 71.3898 24.7126 71.3898 25.4606C71.3898 26.2086 70.8661 26.2834 70.6417 26.2834H62.937C62.189 26.2834 62.0394 25.8346 62.0394 25.3858V13.7165C62.1142 13.1929 62.2638 12.8189 62.937 12.8189H70.2677C70.4921 12.8189 71.0906 12.8937 71.0906 13.6417C71.0906 14.3897 70.4921 14.4645 70.2677 14.4645H63.8347Z" fill="white"/>
<path d="M75.6535 26.2086C75.4291 26.2086 74.7559 26.1338 74.7559 25.311V13.7165C74.7559 13.1181 74.9803 12.8189 75.6535 12.8189H79.0945C80.815 12.8189 82.685 12.9685 84.1063 14.4645C85.4528 15.8858 85.752 17.9055 85.752 19.4016C85.752 21.7205 85.0787 23.5905 84.0315 24.6378C82.4606 26.2086 80.2913 26.2834 78.6457 26.2834H75.6535V26.2086ZM76.5512 24.6378H77.8976C80.4409 24.6378 82.0866 24.6378 83.1339 22.7677C83.8071 21.6457 83.8819 20.1496 83.8819 19.4016C83.8819 18.4291 83.7323 17.3071 83.2087 16.3346C82.311 14.7638 80.815 14.5393 79.7677 14.4645C79.4685 14.4645 78.7205 14.4645 78.1969 14.4645H76.5512V24.6378Z" fill="white"/>
<path d="M90.689 25.4606C90.689 25.685 90.6142 26.3583 89.7914 26.3583C89.2677 26.3583 88.8937 26.059 88.8937 25.4606V13.5669C88.8937 13.2677 88.9685 12.6693 89.7914 12.6693C90.6142 12.6693 90.689 13.2677 90.689 13.5669V25.4606Z" fill="white"/>
<path d="M103.854 25.311C103.48 25.6102 102.283 26.4331 100.114 26.4331C96.2244 26.4331 93.7559 23.7401 93.7559 19.5512C93.7559 18.3543 93.9803 17.1575 94.5039 16.0354C95.3268 14.315 97.1968 12.6693 100.114 12.6693C103.929 12.6693 106.472 15.2874 106.472 19.626C106.472 20.2992 106.398 20.9724 106.248 21.7205C105.874 23.1417 105.276 23.8897 105.051 24.189L106.323 25.4606C106.472 25.6102 106.547 25.7598 106.547 25.9842C106.547 26.4331 106.098 26.8819 105.65 26.8819C105.425 26.8819 105.276 26.8071 105.126 26.6575L103.854 25.311ZM103.78 22.8425C104.303 21.9449 104.602 20.6732 104.602 19.4016C104.602 16.185 102.732 14.1653 100.114 14.1653C97.6457 14.1653 95.7008 16.1102 95.7008 19.5512C95.7008 22.6181 97.2717 24.937 100.189 24.937C101.461 24.937 102.134 24.4882 102.657 24.189L101.76 23.2913C101.61 23.1417 101.61 22.9921 101.61 22.9173C101.61 22.5433 102.059 21.9449 102.583 21.9449C102.732 21.9449 102.807 22.0197 102.957 22.0945L103.78 22.8425Z" fill="white"/>
<path d="M18.7283 9.45276C18.7283 6.68504 20.9724 4.44095 23.7402 4.44095C26.5079 4.44095 28.752 6.68504 28.752 9.45276C28.752 12.2205 26.5079 14.4646 23.7402 14.4646C20.9724 14.4646 18.7283 12.2205 18.7283 9.45276ZM19.7008 9.45276C19.7008 11.6969 21.4961 13.4921 23.7402 13.4921C25.9843 13.4921 27.7795 11.6969 27.7795 9.45276C27.7795 7.20866 25.9843 5.41339 23.7402 5.41339C21.4961 5.41339 19.7008 7.20866 19.7008 9.45276Z" fill="white"/>
<path d="M20.748 9.45276C20.748 7.80709 22.0945 6.38583 23.815 6.38583C25.4606 6.38583 26.8819 7.73229 26.8819 9.45276C26.8819 11.0984 25.5354 12.5197 23.815 12.5197C22.0945 12.4449 20.748 11.0984 20.748 9.45276ZM21.7205 9.45276C21.7205 10.5748 22.6181 11.5473 23.815 11.5473C24.937 11.5473 25.9094 10.6496 25.9094 9.45276C25.9094 8.33071 25.0118 7.35827 23.815 7.35827C22.6181 7.35827 21.7205 8.25591 21.7205 9.45276Z" fill="white"/>
</svg>
