<svg width="248" height="69" viewBox="0 0 248 69" fill="none" xmlns="http://www.w3.org/2000/svg">
<g id="Mersen" clip-path="url(#clip0_7727_14258)">
<path id="Vector" d="M80.172 28.3841H58.7989V26.3611C58.7989 25.2477 59.6557 24.3539 60.7228 24.3382H78.2482C79.3153 24.3382 80.172 25.2477 80.172 26.3611V28.3841ZM80.157 17.5166H58.829C54.4852 17.5166 50.9531 20.9823 50.9531 25.2634V38.342C50.9531 42.6232 54.4852 46.0889 58.829 46.0889H91.3696V39.2516H60.7529C59.6857 39.2516 58.814 38.342 58.814 37.2286V35.2057H82.9226C85.7483 35.2057 88.0329 32.822 88.0329 29.8582V25.232C88.0329 20.9509 84.5008 17.4852 80.157 17.4852" fill="#E84E0F"/>
<path id="Vector_2" d="M197.889 28.3841H176.516V26.3611C176.516 25.2477 177.373 24.3539 178.44 24.3382H195.965C197.032 24.3382 197.889 25.2477 197.889 26.3611V28.3841ZM197.859 17.5166H176.531C172.187 17.5166 168.655 20.9823 168.655 25.2634V38.342C168.655 42.6232 172.187 46.0889 176.531 46.0889H209.072V39.2516H178.455C177.388 39.2516 176.516 38.342 176.516 37.2286V35.2057H200.625C203.45 35.2057 205.735 32.822 205.735 29.8582V25.232C205.735 20.9509 202.203 17.4852 197.859 17.4852" fill="#E84E0F"/>
<path id="Vector_3" d="M126.239 29.8739V22.8484C126.239 19.9002 123.94 17.5009 121.114 17.5009H91.3389V24.3382H116.439C117.507 24.3382 118.378 25.2477 118.378 26.3611C118.378 27.4745 117.507 28.3841 116.439 28.3841H91.3389V46.0889H99.1847V35.2214H111.089L117.882 46.0889H127.517L119.821 35.2214H121.099C123.925 35.2214 126.224 32.8377 126.224 29.8739" fill="#517485"/>
<path id="Vector_4" d="M165.333 40.757V33.7316C165.333 30.7834 163.048 28.3998 160.238 28.3998H140.653C139.586 28.3998 138.714 27.4902 138.714 26.3768C138.714 25.2634 139.586 24.3539 140.653 24.3539H165.333V17.5166H135.979C133.153 17.5166 130.854 19.9002 130.854 22.8484V29.8739C130.854 32.822 133.153 35.2057 135.979 35.2057H155.548C156.615 35.2057 157.472 36.1152 157.472 37.2286C157.472 38.342 156.6 39.2516 155.533 39.2516H130.854V46.0889H160.208C163.033 46.0889 165.333 43.7052 165.333 40.7414" fill="#517485"/>
<path id="Vector_5" d="M39.981 16.952C37.1102 16.952 34.6152 18.5986 33.3075 21.045L23.7934 38.5773L14.2792 21.1548C12.9715 18.7084 10.4765 16.9364 7.60572 16.9364C3.39723 16.9364 -0.0146484 20.4961 -0.0146484 24.9027V46.0575H7.8462V28.4782C7.8462 27.8039 8.37226 27.2707 9.00353 27.2707C9.43941 27.2707 9.8302 27.5216 10.0256 27.9136L19.8704 46.0732H27.7313C27.7313 46.0732 37.6062 27.8666 37.6363 27.8039C37.8467 27.4902 38.2074 27.2864 38.5982 27.2864C39.2445 27.2864 39.7555 27.8195 39.7555 28.4939V46.0732H47.6014V24.9184C47.6014 20.5275 44.1895 16.952 39.981 16.952Z" fill="#517485"/>
<path id="Vector_6" d="M239.252 5.31614V37.1502C239.252 37.8089 238.726 38.3577 238.095 38.3577C237.779 38.3577 237.494 38.2323 237.283 38.0127C237.238 37.9343 222.553 19.3514 222.508 19.3043C221.111 17.5793 219.021 16.4973 216.692 16.4973C212.483 16.4973 209.071 20.057 209.071 24.448V68.31L216.932 62.9782V26.4395C216.932 25.7652 217.443 25.232 218.089 25.232C218.42 25.232 218.721 25.3732 218.931 25.6084C218.976 25.6555 233.646 44.2384 233.646 44.2384C235.044 45.9791 237.148 47.0925 239.508 47.0925C243.716 47.0925 247.128 43.5327 247.128 39.1418V0L239.267 5.31614H239.252Z" fill="#517485"/>
</g>
<defs>
<clipPath id="clip0_7727_14258">
<rect width="248" height="69" fill="white"/>
</clipPath>
</defs>
</svg>
