<?xml version="1.0" encoding="UTF-8"?> <svg xmlns="http://www.w3.org/2000/svg" id="Layer_1" data-name="Layer 1" viewBox="0 0 300 130.51"><defs><style>.cls-1{fill:#717171;}.cls-2{fill:#e50013;}.cls-3{fill:#231916;}</style></defs><path class="cls-1" d="M49.88,113.37a14.73,14.73,0,0,1-2.13,2.84c-1.36,1.57-2.27,2.37-2.73,2.37s-.46-.26-.41-.74a9.2,9.2,0,0,1,1.3-3.81c.91-1.58,1.9-2.33,3-2.33a3,3,0,0,1,1.39.39Zm2.64-4.3c-1.36,0-2.56.06-3.25.06q-3.14,0-6.08,3.39A11.77,11.77,0,0,0,40.08,119a3.42,3.42,0,0,0,.54,2.31,2.23,2.23,0,0,0,2,1,5.44,5.44,0,0,0,3.7-2,15.93,15.93,0,0,0,2.62-3.65h.28l-1.83,5.37h4.4l3.81-13c-.71,0-1.6,0-3,0"></path><path class="cls-1" d="M80.46,113.37a10,10,0,0,1-2.13,2.84c-1.3,1.39-2.16,2.1-2.59,2.1-.26,0-.37-.25-.32-.75a9,9,0,0,1,1.27-3.65c.87-1.49,1.8-2.2,2.82-2.2a3.1,3.1,0,0,1,1.34.31Zm2.6-4.3c-1.31,0-3,.06-3,.06-2.13,0-4.15,1.06-6.09,3.17a11.07,11.07,0,0,0-3.1,6.39,3.26,3.26,0,0,0,.53,2.31,2.37,2.37,0,0,0,2.06,1c2.13,0,4.13-1.76,6-5.26h.52c-.3,1-.61,2-.94,3a11.26,11.26,0,0,1-1.44,3.18,3.07,3.07,0,0,1-2.55,1.48,11.82,11.82,0,0,1-5.28-1.57l.33,3.78a19.85,19.85,0,0,0,4,.35c4.59,0,7.44-1.91,8.48-5.68l3.4-12.2c-.67,0-1.7,0-3,0"></path><path class="cls-1" d="M91.21,115.21a6,6,0,0,1,1-2.11,2.39,2.39,0,0,1,1.88-1.17c.61,0,.88.28.81.93-.14,1.57-1.39,2.35-3.73,2.35m1.52,4.49c-1.47,0-2.16-.64-2-1.93a10.08,10.08,0,0,0,5.21-1.51c1.89-1.2,2.93-2.62,3.1-4.32a2.33,2.33,0,0,0-.85-2.14,3.41,3.41,0,0,0-2.24-.73,9.12,9.12,0,0,0-6.41,2.74,9.52,9.52,0,0,0-3.27,6.33,3.4,3.4,0,0,0,1.33,3.23,5.67,5.67,0,0,0,3.49,1A20.72,20.72,0,0,0,97.65,121l.92-3.16a13,13,0,0,1-5.84,1.86"></path><path class="cls-1" d="M112.3,109.4l-.78,2.73a8.87,8.87,0,0,0-2.73-.55c-1.15,0-1.77.39-1.83,1.14,0,.37.24.84.84,1.42,1,.92,1.52,1.47,1.68,1.66a3.17,3.17,0,0,1,.77,2.3,4.11,4.11,0,0,1-2.22,3.33,8.1,8.1,0,0,1-4,.89,17.92,17.92,0,0,1-4.45-.68l.86-3a9.75,9.75,0,0,0,3.82,1.12,1.57,1.57,0,0,0,1-.34,1.14,1.14,0,0,0,.5-.85,2.33,2.33,0,0,0-.75-1.65c-.52-.55-1-1.15-1.54-1.72a3.19,3.19,0,0,1-.71-2.26,3.81,3.81,0,0,1,2.25-3.13,8.47,8.47,0,0,1,3.83-.8c.22,0,1.38.13,3.43.38"></path><path class="cls-1" d="M134.61,104.22l-.77,2.72a6.61,6.61,0,0,0-2.79-.71,2.09,2.09,0,0,0-1.88,1,11.65,11.65,0,0,0-.73,2.15h3.26l-.76,2.55h-3.2l-3.8,13.1H119.5l4.55-15.65a9,9,0,0,1,2.83-4.13,7.29,7.29,0,0,1,4.6-1.54,9,9,0,0,1,3.13.54"></path><path class="cls-1" d="M139.89,117.68a3.45,3.45,0,0,1-2.89,2,1.31,1.31,0,0,1-1.25-.76,2.83,2.83,0,0,1-.23-1.59,8.72,8.72,0,0,1,1.15-3.58,3.35,3.35,0,0,1,2.89-2,1.28,1.28,0,0,1,1.27.71,3,3,0,0,1,.22,1.61,8.73,8.73,0,0,1-1.16,3.57m4.31-7.59a5.52,5.52,0,0,0-3.47-1,9.17,9.17,0,0,0-6.44,2.74,9.65,9.65,0,0,0-3.24,6.33,3.39,3.39,0,0,0,1.32,3.23,5.64,5.64,0,0,0,3.46,1,9.22,9.22,0,0,0,6.42-2.75,9.87,9.87,0,0,0,3.28-6.33,3.41,3.41,0,0,0-1.33-3.22"></path><path class="cls-1" d="M159.57,109.22l-1.26,4c-.28-.31-1.1-.3-1.44-.3-.75,0-1.82.68-3.19,2a8.85,8.85,0,0,0-2.31,3.15l-1.14,4H145.8l3.8-13H154L152,114.73h.27a15.85,15.85,0,0,1,2.63-3.64,5.42,5.42,0,0,1,3.7-2,1.51,1.51,0,0,1,.93.15"></path><path class="cls-1" d="M176.86,109.36l-.74,2.54H174c-.35,1-.69,2.12-1,3.16a18.13,18.13,0,0,0-.72,3.27c-.08.83.22,1.24.89,1.24a2.62,2.62,0,0,0,1.4-.51l-.79,2.77a14.11,14.11,0,0,1-3.3.56,3.54,3.54,0,0,1-2.23-.62,2.22,2.22,0,0,1-.78-2.08,21.1,21.1,0,0,1,.9-4c.43-1.29,2.58-8.37,2.58-8.37l4.59-.66-.78,2.66Z"></path><path class="cls-1" d="M197.49,115.21a6,6,0,0,1,1-2.11,2.41,2.41,0,0,1,1.87-1.17c.61,0,.89.28.83.93-.14,1.57-1.4,2.35-3.73,2.35M199,119.7c-1.48,0-2.18-.64-2.07-1.93a10.15,10.15,0,0,0,5.23-1.51c1.89-1.2,2.94-2.62,3.1-4.32a2.32,2.32,0,0,0-.84-2.14,3.48,3.48,0,0,0-2.25-.73,9.12,9.12,0,0,0-6.41,2.74,9.52,9.52,0,0,0-3.27,6.33,3.43,3.43,0,0,0,1.32,3.23,5.76,5.76,0,0,0,3.48,1,20.72,20.72,0,0,0,6.63-1.39l.92-3.16A13,13,0,0,1,199,119.7"></path><path class="cls-1" d="M240.2,115.21a5.84,5.84,0,0,1,1-2.11,2.4,2.4,0,0,1,1.88-1.17c.61,0,.89.28.82.93q-.23,2.36-3.73,2.35m1.52,4.49c-1.47,0-2.16-.64-2.05-1.93a10,10,0,0,0,5.2-1.51c1.9-1.2,2.94-2.62,3.11-4.32a2.33,2.33,0,0,0-.85-2.14,3.37,3.37,0,0,0-2.22-.73,9.19,9.19,0,0,0-6.44,2.74,9.65,9.65,0,0,0-3.24,6.33,3.38,3.38,0,0,0,1.33,3.23,5.6,5.6,0,0,0,3.46,1,20.56,20.56,0,0,0,6.61-1.39l.94-3.16a13.08,13.08,0,0,1-5.85,1.86"></path><path class="cls-1" d="M259,109.13l-.74,2.54h-2.12c-.35,1-.7,2.35-1,3.39a17.35,17.35,0,0,0-.73,3.28c-.07.82.21,1.23.89,1.23a2.7,2.7,0,0,0,1.41-.52l-.79,2.78a14.14,14.14,0,0,1-3.34.56,3.51,3.51,0,0,1-2.19-.62,2.19,2.19,0,0,1-.77-2.08,21.1,21.1,0,0,1,.9-4c.41-1.29,2.55-8.37,2.55-8.37l4.6-.66-.75,2.43Z"></path><path class="cls-1" d="M268.5,109.13l-.76,2.54h-2.11c-.35,1-.74,2.35-1.13,3.39a15.62,15.62,0,0,0-.76,3.28c-.08.82.22,1.23.94,1.23a2.76,2.76,0,0,0,1.44-.52l-.81,2.78a15.07,15.07,0,0,1-3.38.56,3.55,3.55,0,0,1-2.22-.62,2.19,2.19,0,0,1-.76-2.08,20.19,20.19,0,0,1,.89-4c.41-1.29,2.56-8.37,2.56-8.37l4.67-.66-.7,2.43Z"></path><path class="cls-1" d="M273.11,115.21a6,6,0,0,1,1-2.11,2.41,2.41,0,0,1,1.88-1.17c.62,0,.89.28.82.93-.14,1.57-1.39,2.35-3.73,2.35m1.52,4.49c-1.48,0-2.16-.64-2.05-1.93a10,10,0,0,0,5.2-1.51c1.92-1.2,3-2.62,3.12-4.32a2.35,2.35,0,0,0-.85-2.14,3.4,3.4,0,0,0-2.25-.73,9.1,9.1,0,0,0-6.4,2.74,9.58,9.58,0,0,0-3.25,6.33,3.36,3.36,0,0,0,1.33,3.23,5.61,5.61,0,0,0,3.47,1,20.82,20.82,0,0,0,6.61-1.39l.91-3.16a13,13,0,0,1-5.84,1.86"></path><path class="cls-1" d="M3.17,115.11c-.49,5.11,2.69,8.15,8.53,8.15A44.37,44.37,0,0,0,21,122.1c.12-.37.73-2.36,1-3.2l-.51.13a28.4,28.4,0,0,1-6.93,1.33c-3.53,0-5.69-2.38-5.35-6,.52-5.26,4.77-10.92,10.32-10.92a17.37,17.37,0,0,1,6.51,1.4c.18-.58.86-2.81,1-3.45a28.38,28.38,0,0,0-6.78-.86C10,100.58,3.75,109,3.17,115.11"></path><path class="cls-1" d="M223,112.86c2.44,0,5.28.57,5,3.43-.23,2.59-2.56,3.35-4.93,3.35a6.25,6.25,0,0,1-2-.25Zm2.87-9.14a5.9,5.9,0,0,1,1.54-.23c1.33,0,3.07.17,2.91,1.82a4.76,4.76,0,0,1-4.42,4.17h-1.81Zm-11,18.58h10.66c2.44,0,7.45-1.5,7.89-6.14.27-2.83-2.11-4.33-4.53-5v-.07c3-.74,6.45-3,6.76-6.29.4-4.18-4.39-4.16-7.5-4.16h-6.91Z"></path><path class="cls-1" d="M295.33,109.35l-1.5,3.92a3.35,3.35,0,0,0-1.35-.31c-.78,0-1.84.68-3.21,2a9.25,9.25,0,0,0-2.3,3.16l-1.14,4h-4.41l3.76-13h4.36l-1.9,5.6h.29a15.23,15.23,0,0,1,2.61-3.63,5.36,5.36,0,0,1,3.7-2,2,2,0,0,1,1.09.27"></path><path class="cls-1" d="M67.1,122.1H62.72s2.29-7.16,2.47-8.66c0,0,.1-.48-.2-.37a12.27,12.27,0,0,0-2.47,2.35,10.49,10.49,0,0,0-2,2.72l-1.16,4H55l3.78-13h4.37l-1.91,5.65h.28a15.09,15.09,0,0,1,2.61-3.64,5.43,5.43,0,0,1,3.72-2,2.15,2.15,0,0,1,1.74.76,2.7,2.7,0,0,1,.28,2.59Z"></path><path class="cls-1" d="M32,122.1s2.19-7.32,2.48-8.66c0,0,.14-.51-.22-.37a11.71,11.71,0,0,0-2.45,2.35,11,11,0,0,0-2,2.72l-1.17,4h-4.4l5.27-18.17h4.37q-1.47,5.44-3.41,10.79h.28a15.4,15.4,0,0,1,2.6-3.65,5.47,5.47,0,0,1,3.72-2,2.07,2.07,0,0,1,1.73.76,2.68,2.68,0,0,1,.29,2.59l-2.75,9.68Z"></path><path class="cls-1" d="M184.33,122.1s2.19-7.32,2.48-8.67c0,0,.15-.51-.21-.36a11.85,11.85,0,0,0-2.47,2.35,10.76,10.76,0,0,0-1.95,2.72l-1.15,4h-4.42l5.26-18.16h4.37c-1,3.62-2.13,7.23-3.41,10.79h.29a15.32,15.32,0,0,1,2.6-3.65,5.45,5.45,0,0,1,3.72-2,2.13,2.13,0,0,1,1.75.75,2.78,2.78,0,0,1,.28,2.6l-2.77,9.68Z"></path><polygon class="cls-2" points="35.48 89.58 2.91 89.58 19.19 61.39 51.79 61.39 35.48 89.58"></polygon><polygon class="cls-2" points="68.07 89.58 100.68 89.58 84.37 61.39 51.79 61.39 68.07 89.58"></polygon><polygon class="cls-2" points="68.07 33.15 51.79 4.91 35.48 33.15 51.79 61.39 68.07 33.15"></polygon><polygon class="cls-3" points="115.3 77.58 128.35 77.58 128.35 72.85 115.3 72.85 115.3 67.02 130 67.02 130 62.28 115.3 62.28 109.78 62.28 109.78 67.02 109.78 84.84 109.78 89.58 115.3 89.58 130.38 89.58 130.38 84.84 115.3 84.84 115.3 77.58"></polygon><polygon class="cls-3" points="114.93 37.44 120.73 57.74 120.96 57.74 125.81 57.74 126.04 57.74 131.84 37.44 131.84 57.74 136.98 57.74 136.98 30.43 134.17 30.43 131.75 30.43 129.09 30.43 123.38 49.59 117.67 30.43 115.01 30.43 112.59 30.43 109.78 30.43 109.78 57.74 114.93 57.74 114.93 37.44"></polygon><rect class="cls-3" x="235.13" y="30.43" width="5.5" height="27.3"></rect><rect class="cls-3" x="239.6" y="62.28" width="5.5" height="27.3"></rect><rect class="cls-3" x="289.51" y="30.43" width="5.49" height="27.3"></rect><rect class="cls-3" x="139.17" y="30.43" width="5.51" height="27.3"></rect><polygon class="cls-3" points="281.83 41.07 270.93 41.07 270.93 30.43 265.51 30.43 265.51 57.74 270.93 57.74 270.93 45.82 281.83 45.82 281.83 57.74 287.23 57.74 287.23 30.43 281.83 30.43 281.83 41.07"></polygon><polygon class="cls-3" points="152.82 57.74 158.43 57.74 158.43 35.16 165.11 35.16 165.11 30.43 158.43 30.43 152.82 30.43 146.13 30.43 146.13 35.16 152.82 35.16 152.82 57.74"></polygon><polygon class="cls-3" points="202.98 89.58 208.58 89.58 208.58 67.02 215.25 67.02 215.25 62.28 208.58 62.28 202.98 62.28 196.31 62.28 196.31 67.02 202.98 67.02 202.98 89.58"></polygon><path class="cls-3" d="M199.24,58.51c7,0,10.86-3.21,10.86-9.3V30.43h-5.48V49.7c0,2.35-2,4.31-5.38,4.31-4.13,0-5.38-2.32-5.38-4.31V30.43h-5.41V49.21c0,6.55,4.08,9.3,10.79,9.3"></path><polygon class="cls-3" points="157.66 77.58 170.73 77.58 170.73 72.85 157.66 72.85 157.66 67.02 172.35 67.02 172.35 62.28 157.66 62.28 152.13 62.28 152.13 67.02 152.13 84.84 152.13 89.58 157.66 89.58 172.74 89.58 172.74 84.84 157.66 84.84 157.66 77.58"></polygon><path class="cls-3" d="M217.72,57.74h7.93c5.13,0,8.19-3.09,8.19-7.37a7.52,7.52,0,0,0-5.26-7.16,6.15,6.15,0,0,0,4.33-6.06c0-4-3-6.72-8.57-6.72H212V57.74h5.68Zm6.22-4.14h-6.43V45.67h6.36c2.36,0,4.32,1.34,4.32,4a4,4,0,0,1-4.25,3.94m.4-18.84a3.34,3.34,0,1,1-.3,6.67h-6.53V34.76Z"></path><path class="cls-3" d="M233.13,76.49A6.7,6.7,0,0,0,238,69.88c0-4.87-3.29-7.65-8.86-7.65H216.6V89.54h5.5V78.81h4.77c2.83,0,4.37,1.45,4.85,3.4.5,2.15.37,5.35.92,7.33h5.55a40.89,40.89,0,0,1-1-7.16c-.2-3.7-2.15-5.17-4.08-5.89m-11-2.09V67h6.73a3.58,3.58,0,0,1,3.74,3.73A3.79,3.79,0,0,1,229,74.4Z"></path><polygon class="cls-3" points="137.68 62.28 132.16 62.28 132.16 84.84 132.16 89.58 137.68 89.58 150.56 89.58 150.56 84.84 137.68 84.84 137.68 62.28"></polygon><path class="cls-3" d="M174.34,46.2c4.43.77,6.95,1.59,6.95,4.23,0,1.79-1.78,3.49-5.46,3.49s-5.54-2.09-5.54-4.58H165c0,4.75,3.07,9.11,11.1,9.11,7.63,0,10.94-4.06,10.94-8.67,0-4.31-2.83-7-7.87-8-4.83-.94-8.15-1.15-8.15-4.22,0-2.11,1.91-3.36,4.88-3.36,3.15,0,5,1.57,5,4.17h5.33c0-4.31-3.25-8.74-10.52-8.74-5,0-10.2,2.89-10.2,8.28,0,4.53,3.33,7.33,8.88,8.32"></path><path class="cls-3" d="M251.3,46.2c4.43.77,6.93,1.59,6.93,4.23,0,1.79-1.76,3.49-5.43,3.49s-5.56-2.09-5.56-4.58H242c0,4.75,3.07,9.11,11.08,9.11,7.62,0,10.93-4.06,10.93-8.67,0-4.31-2.82-7-7.84-8-4.85-.94-8.17-1.15-8.17-4.22,0-2.11,1.92-3.36,4.89-3.36,3.14,0,5,1.57,5,4.17h5.32c0-4.31-3.27-8.74-10.51-8.74-5,0-10.18,2.89-10.18,8.28,0,4.53,3.34,7.33,8.86,8.32"></path><path class="cls-3" d="M185.17,85.37c-4.44,0-7-4.35-7-9.53s2.51-9.57,7-9.57c3.36,0,5.12,2.11,5.87,4.68h5.72c-.92-5.37-5.1-9.3-11.75-9.3-8.34,0-12.56,6.37-12.56,14.26S176.84,90.17,185,90.17c6.56,0,11-3.77,11.79-9.63H191c-.75,2.74-2.56,4.83-5.87,4.83"></path><path class="cls-3" d="M259.13,85.37c-4.42,0-7-4.35-7-9.53s2.5-9.57,7-9.57c3.39,0,5.12,2.11,5.94,4.68h5.71c-.92-5.37-5.11-9.3-11.79-9.3-8.34,0-12.56,6.37-12.56,14.26S250.82,90.17,259,90.17c6.62,0,11-3.77,11.83-9.63h-5.75c-.82,2.74-2.61,4.83-5.94,4.83"></path></svg> 