<svg enable-background="new 0 0 200 51" width="157" height="40" viewBox="0 0 200 51" xmlns="http://www.w3.org/2000/svg">
    <g fill="#1d1d1b">
        <path d="m2.2 23.7c0-.8-.2-1-.4-1.4 4.2-2 4.6-5.2 10.7-5.2 3.3 0 6.3 1.1 8.2 4.3 2.2-2 3.6-4.3 8.9-4.3 5.5 0 10 4.8 10 10.3v10.9c0 1.9.5 2.4 1 2.8h-5.2c.9-.6.9-1.3.9-2.7v-10.4c0-4.2-3.1-7.6-7.3-7.6-3.8 0-5.8 3.1-6.6 3.8v14.2c0 1.9.5 2.4 1 2.8h-5.2c.9-.6.9-1.3.9-2.7v-10.5c0-4.2-3.1-7.6-7.3-7.6-3.8 0-5.7 3.1-6.6 3.8v15.3c0 .9.8 1.4 1.2 1.7h-5c.6-.5.7-1.1.7-2.3v-15.2z"/>
        <path d="m42.1 29.6c0-6.9 5.7-12.4 12.5-12.4s12.5 5.5 12.5 12.4-5.7 12.4-12.5 12.4-12.5-5.5-12.5-12.4zm12.5-9.2c-5 0-9.2 4.1-9.2 9.2 0 5 4.2 9.2 9.2 9.2s9.2-4.1 9.2-9.2-4.2-9.2-9.2-9.2z"/>
        <path d="m89.7 9c0-.5-.2-1.1-.8-1.6h4.1v26.2c0 1.1 0 2.8.5 3.2-1 .2-1.9.8-2.7 1.3-3.3 1.9-5.2 3.9-9.3 3.9-7 0-12.4-5.5-12.4-12.6 0-7.2 6-12.2 12.7-12.2 3.2 0 5.9.7 7.7 3.5l.2-.1zm0 15.2c-2.4-2.5-4-3.8-8.5-3.8-5.2 0-8.8 4.2-8.8 9.3 0 4.9 4.2 9 9.1 9 4.2 0 6.4-2.7 8.2-3.6z"/>
        <path d="m128 20.5c1.9-1.6 3-3.2 7.4-3.2 5.7 0 10.4 4.8 10.4 10.3v10.9c0 1.9.5 2.4 1.1 2.8h-5.4c.9-.6 1-1.3 1-2.7v-10.5c0-4.2-3.2-7.6-7.6-7.6-4 0-5.9 3.1-6.8 3.8v15.3c0 .9.8 1.4 1.2 1.7h-5.4c.7-.5.8-1.1.8-2.3v-29.4c0-.9 0-1.7-.8-2.1h4.1z"/>
        <path d="m171 20.8c1.4.9 1.7 1.1 3.2 1.1-.9.6-.9 1.5-.9 3.5v14.4c0 .5.2 1 1 1.5h-4.3v-2.6l-.2-.1c-1.8 2.8-4.6 3.5-8 3.5-7 0-13.3-5-13.3-12.2 0-7.1 5.6-12.6 12.9-12.6 4.3-.1 6.6 1.5 9.6 3.5zm-1 3.3c-1.8-.9-4.1-3.6-8.5-3.6-5.1 0-9.5 4.1-9.5 9 0 5.1 3.7 9.3 9.1 9.3 4.7 0 6.4-1.3 8.9-3.8z"/>
        <path d="m177.5 41.3c.8-.4.9-1.5.9-3.4v-17.7c0-.9 0-1.7-.8-2.1h4.1v21.3c0 1 .3 1.7.9 1.9zm4.7-29.1c0 1.2-1 2.1-2.2 2.1s-2.2-.9-2.2-2.1 1-2.1 2.2-2.1 2.2 1 2.2 2.1z"/>
        <path d="m197.4 20.5h-.9c-2.7 0-6.4 1.6-6.4 6.7v12.2c0 1 .3 1.7.9 1.9h-5.1c.8-.4.9-1.5.9-3.4v-18.2c0-.6-.3-1.2-.5-1.7h3.6v3.1h.1c1.1-2.9 3.6-3.8 6.1-3.8.5 0 .9-.1 1.3-.5z"/>
        <path d="m97.5 7.2-2.7 7h1.7l4.7-7z"/>
    </g>
    <path d="m100.8 6.4h2.4l-3.3 5.1-6 39.1 21.2-.1 7.7-50.4h-21z" fill="#e1251b"/>
    <path d="m113 22.1c-1.2-1-2.8-1.7-4.4-1.7-2.1 0-3.9.7-3.9 3 0 5.3 10.7 2.7 10.7 11.4 0 4.1-3.4 7.2-7.7 7.2-1.8 0-3.2-.2-4.2-.5-1-.2-1.7-.5-2.2-.5-.3 0-.7.3-.9.6v-5.7c1.6 1.7 3.9 2.9 6.4 2.9 2.6 0 5.2-.7 5.2-3.6 0-6.7-10.7-3.5-10.7-11.8 0-3.8 3-6.2 7-6.2 1.4 0 3 .5 3.8.5.3 0 .8-.1 1.1-.4v4.8z"
          fill="#fbfbfb"/>
    <path d="m126.5 43.7c1.6 0 2.2 1.1 2.2 2.1s-.6 2-2.5 2h-.9v2.6h-1.3v-6.7zm-.9 3c.7 0 1.8.1 1.8-.9s-1.1-.9-1.8-.9h-.3v1.9h.3z"
          fill="#1d1d1b"/>
    <path d="m145.4 50.4h-1.4l-.4-1.7h-2l-.4 1.7h-1.4l1.9-6.7h1.8zm-2.8-5.5-.7 2.8h1.4z" fill="#1d1d1b"/>
    <path d="m159.4 43.7c1.5 0 2.1 1.1 2.1 1.9 0 .7-.5 1.4-1.1 1.7l1.3 3h-1.4l-1.2-2.8h-1v2.8h-1.3v-6.7h2.6zm-.7 2.8c.6 0 1.5 0 1.5-.8 0-.9-.9-.8-1.6-.8h-.5v1.6z"
          fill="#1d1d1b"/>
    <path d="m173.4 50.4v-6.7h1.3v6.7z" fill="#1d1d1b"/>
    <path d="m189.8 45.7c-.1-.5-.4-.9-.9-.9-.4 0-.8.3-.8.8 0 1.3 3.1.5 3.1 2.9 0 .8-.6 2-2.3 2-1.3 0-2.2-.6-2.4-1.9l1.3-.2c.1.6.4 1 1 1 .5 0 1-.3 1-.8 0-1.3-3.1-.6-3.1-2.8 0-1.2 1-2.1 2.2-2.1 1.1 0 2 .7 2.1 1.9z"
          fill="#1d1d1b"/>
</svg>