<svg width="139" height="25" viewBox="0 0 139 25" fill="none" xmlns="http://www.w3.org/2000/svg">
<g clip-path="url(#clip0_1356_1398)">
<path d="M54.2746 7.4124H57.3363C58.867 7.4124 60.3283 7.21025 60.3283 5.92992C60.3283 4.91914 59.4237 4.44744 57.4058 4.44744H54.2746V7.4124ZM57.3363 7.95148H53.7179V3.97574H57.3363C58.1712 3.97574 60.8154 3.97574 60.8154 5.92992C60.8154 7.95148 58.38 7.95148 57.3363 7.95148ZM32.5648 7.68194H35.2785C36.2527 7.68194 38.4793 7.54717 38.4793 6.06469C38.4793 4.6496 36.9485 4.51482 35.3481 4.51482H32.4952V7.68194H32.5648ZM35.3481 8.22102H32.0776V3.97574H35.4176C36.5309 3.97574 39.036 3.97574 39.036 6.06469C39.036 8.01888 36.4614 8.22102 35.3481 8.22102ZM12.7336 4.78437C9.32411 4.78437 8.83698 7.68194 8.83698 9.434C8.83698 11.5229 9.53287 14.0836 12.8032 14.0836C15.517 14.0836 16.7695 12.5337 16.7695 9.23183C16.7695 7.54717 16.2128 4.78437 12.7336 4.78437ZM12.8032 14.5552C9.9503 14.5552 8.34994 12.7358 8.34994 9.434C8.34994 6.13207 9.9503 4.24528 12.8032 4.24528C15.6562 4.24528 17.3261 6.06469 17.3261 9.23183C17.2565 12.8033 15.7953 14.5552 12.8032 14.5552ZM54.2746 14.6227H57.9625C60.1891 14.6227 61.3024 14.0836 61.3024 13.0054C61.3024 11.6577 59.3542 11.4555 57.893 11.4555H54.2746V14.6227ZM57.9625 15.0943H53.7876V10.9164H57.9625C58.9367 10.9164 61.8591 10.9164 61.8591 12.938C61.7896 14.4205 60.537 15.0943 57.9625 15.0943ZM41.6801 10.9164L45.9943 15.1617V8.96225C44.7417 10.1752 43.0717 10.6469 41.6801 10.9164ZM46.4813 16.4421L40.5668 10.5795L41.0539 10.5122C42.6543 10.2426 44.6722 9.77092 45.9943 8.15364L46.4813 7.61456V16.4421ZM65.0599 9.02967C66.1037 9.29917 67.0082 9.63608 67.6345 10.1078V7.21024C67.1474 8.01888 66.2429 8.62533 65.0599 9.02967ZM12.8728 0.539084C6.8887 0.539084 0.556663 2.89757 0.556663 9.63608C0.556663 17.9245 9.39364 18.8006 13.1511 18.8006C16.9782 18.8006 22.0577 17.9919 24.2844 14.0162L24.7715 13.1402V18.4636H32.0776V11.0513H33.3997L33.4693 11.1186L40.6363 18.4636H59.5629C62.6245 18.4636 65.9645 18.1941 67.7736 16.3747L68.1912 15.903V18.3962H75.3582V0.808626H68.1912V11.186L67.7736 10.7817C66.9387 10.1078 65.6862 9.56875 64.0162 9.29917L62.8333 9.097L64.0162 8.8275C65.4078 8.49058 67.217 7.74933 67.7041 6.06469L67.9824 5.1213L67.7041 4.1779C66.7995 1.14555 62.4854 0.808626 60.6763 0.808626H46.4813V3.43666L46.0638 3.03235L45.9943 2.96496L45.9247 2.89757L45.8551 2.83019C43.9068 0.808626 40.4276 0.808626 38.1314 0.808626H24.7019V6.13207L24.2148 5.25607C21.849 1.14555 16.0737 0.539084 12.8728 0.539084ZM13.1511 19.3397C4.94038 19.3397 0 15.7008 0 9.63608C0 2.56065 6.61037 0 12.8728 0C16.0041 0 21.5011 0.606469 24.2148 4.24528V0.336928H38.1314C40.4276 0.336928 43.9068 0.336928 45.9943 2.29111V0.336928H60.6763C62.3462 0.336928 66.1037 0.606469 67.7041 2.96496V0.336928H75.9844V19.0027H67.7041V17.1833C65.6862 18.8006 62.4854 19.0027 59.5629 19.0027H40.358L40.2884 18.9353L33.1214 11.5903H32.5648V19.0027H24.2148V15.0943C21.7098 18.5984 16.839 19.3397 13.1511 19.3397Z" fill="#181818"/>
<path d="M57.9624 15.0942H53.7875V10.9163H57.9624C58.9366 10.9163 61.8591 10.9163 61.8591 12.9379C61.7896 14.4204 60.537 15.0942 57.9624 15.0942ZM53.7179 3.97563H57.3363C58.1712 3.97563 60.8154 3.97563 60.8154 5.92981C60.8154 7.95137 58.38 7.95137 57.3363 7.95137H53.7179V3.97563ZM46.4813 16.4419L40.5668 10.5794L41.0538 10.512C42.6543 10.2425 44.6722 9.77082 45.9943 8.15353L46.4813 7.61445V16.4419ZM35.3481 8.22091H32.0776V3.97563H35.4177C36.531 3.97563 39.0359 3.97563 39.0359 6.06458C39.0359 8.01876 36.4614 8.22091 35.3481 8.22091ZM12.8032 14.5552C9.95036 14.5552 8.34992 12.7357 8.34992 9.43382C8.34992 6.13196 9.95036 4.24517 12.8032 4.24517C15.6561 4.24517 17.3261 6.06458 17.3261 9.23174C17.2565 12.8032 15.7953 14.5552 12.8032 14.5552ZM68.1911 0.808516V11.1859L67.7736 10.7816C66.9387 10.1077 65.6862 9.56866 64.0162 9.29907L62.8333 9.09691L64.0162 8.82741C65.4078 8.49049 67.2169 7.74921 67.7041 6.06458L67.9824 5.12118L67.7041 4.17779C66.7995 1.14544 62.4854 0.808516 60.6762 0.808516H46.4813V3.43655L46.0638 3.03224L45.9943 2.96485L45.9246 2.89746L45.855 2.83008C43.9067 0.808516 40.4276 0.808516 38.1314 0.808516H24.7019V6.13196L24.2148 5.25596C21.8489 1.14544 16.0736 0.471588 12.8032 0.471588C6.88868 0.538974 0.556641 2.89746 0.556641 9.63599C0.556641 17.9244 9.39362 18.8004 13.1511 18.8004C16.9782 18.8004 22.0577 17.9918 24.2843 14.0161L24.7715 13.1401V18.4635H32.0776V11.0511H33.3997L33.4693 11.1185L40.6363 18.4635H59.5629C62.6245 18.4635 65.9645 18.194 67.7736 16.3746L68.1911 15.9028V18.3962H75.3582V0.808516H68.1911Z" fill="#B1282E"/>
<path d="M114.673 1.34774C112.863 0.539109 110.776 0.134796 108.55 0.134796C106.323 0.134796 104.235 0.606494 102.426 1.34774H114.673Z" fill="#181818"/>
<path d="M100.895 2.15628C100.269 2.49321 99.7121 2.89752 99.2251 3.36922H117.873C117.386 2.89752 116.76 2.49321 116.203 2.15628H100.895Z" fill="#181818"/>
<path d="M118.709 4.11053H98.4602C98.1117 4.51484 97.764 4.85178 97.4852 5.32347H119.683C119.404 4.91916 119.056 4.51484 118.709 4.11053Z" fill="#181818"/>
<path d="M111.402 7.21022H120.657C120.518 6.80591 120.378 6.40159 120.17 6.06467H110.358C110.706 6.33421 111.124 6.73852 111.402 7.21022Z" fill="#181818"/>
<path d="M105.626 7.21022C105.905 6.73852 106.253 6.33421 106.67 6.06467H96.9982C96.7899 6.46898 96.6505 6.80591 96.5111 7.21022H105.626Z" fill="#181818"/>
<path d="M105.001 9.23185C105.07 8.82752 105.139 8.42327 105.279 8.01892H96.3029C96.2332 8.42327 96.1635 8.82752 96.1635 9.23185H105.001Z" fill="#181818"/>
<path d="M121.005 9.23185C121.005 8.82752 120.935 8.42327 120.865 8.01892H111.82C111.959 8.42327 112.029 8.82752 112.098 9.23185H121.005Z" fill="#181818"/>
<path d="M120.865 11.1186C120.935 10.7143 121.005 10.3773 121.005 9.97308H112.029C112.029 10.3773 111.889 10.7817 111.82 11.1186H120.865Z" fill="#181818"/>
<path d="M105.209 11.1186C105.07 10.7817 105.001 10.3773 105.001 9.97308H96.1635C96.1635 10.3773 96.2332 10.7817 96.3029 11.1186H105.209Z" fill="#181818"/>
<path d="M120.17 13.1401C120.378 12.7359 120.518 12.3315 120.657 11.9272H111.472C111.193 12.3989 110.915 12.8032 110.498 13.1401H120.17Z" fill="#181818"/>
<path d="M106.462 13.1401C106.114 12.8032 105.766 12.3989 105.488 11.9272H96.4423C96.5808 12.3315 96.7202 12.7359 96.9293 13.1401H106.462Z" fill="#181818"/>
<path d="M98.3905 15.1618H118.709C119.056 14.7574 119.404 14.3531 119.683 13.9488H108.688C108.618 13.9488 108.55 13.9488 108.48 13.9488C108.41 13.9488 108.341 13.9488 108.271 13.9488H97.4164C97.6943 14.3531 98.042 14.7574 98.3905 15.1618Z" fill="#181818"/>
<path d="M116.342 17.0486C116.899 16.7117 117.456 16.3073 117.943 15.903H99.2251C99.7121 16.3073 100.269 16.7117 100.826 17.0486H116.342Z" fill="#181818"/>
<path d="M102.287 17.8572C104.165 18.6658 106.253 19.2048 108.618 19.2048C110.915 19.2048 113.072 18.7332 114.951 17.8572H102.287Z" fill="#181818"/>
<path d="M82.3861 17.8572C84.2649 18.6658 86.3519 19.1375 88.6486 19.1375C91.6406 19.1375 93.7282 18.8679 95.537 17.8572H82.3861Z" fill="#181818"/>
<path d="M94.772 1.34774C92.9624 0.539109 90.8756 0.134796 88.6486 0.134796C86.4216 0.134796 84.3344 0.606494 82.5253 1.34774H94.772Z" fill="#181818"/>
<path d="M96.9982 3.36922L97.5549 2.96491C97.1376 2.69536 96.7202 2.42582 96.3029 2.15628H80.9945C80.3683 2.49321 79.8811 2.89752 79.3245 3.36922H96.9982Z" fill="#181818"/>
<path d="M94.0759 5.32341L95.8158 4.17786H78.4895C78.1416 4.51478 77.8632 4.9191 77.585 5.32341H94.0759Z" fill="#181818"/>
<path d="M86.7702 13.1401C86.352 12.8032 86.0044 12.3989 85.7261 11.9272H76.5411C76.6803 12.3315 76.8195 12.7359 77.0283 13.1401H86.7702Z" fill="#181818"/>
<path d="M92.1974 13.1402L91.6406 12.8033C91.5012 12.938 91.3627 13.0054 91.2233 13.1402H92.1974Z" fill="#181818"/>
<path d="M78.4894 15.1618H95.6066L93.5191 13.9488H89.2053C89.1356 13.9488 89.0659 13.9488 88.9962 13.9488C88.9265 13.9488 88.8568 13.9488 88.788 13.9488H77.5153C77.7935 14.3531 78.1415 14.7574 78.4894 15.1618Z" fill="#181818"/>
<path d="M77.0978 6.06467C76.889 6.46898 76.7499 6.80591 76.6107 7.21022H85.8652C86.1437 6.73852 86.561 6.33421 86.9784 6.06467H77.0978Z" fill="#181818"/>
<path d="M90.9445 6.06467C91.2233 6.26683 91.5709 6.53637 91.78 6.80591L92.8935 6.06467H90.9445Z" fill="#181818"/>
<path d="M76.402 8.01892C76.3324 8.42327 76.2629 8.82752 76.1932 9.23185H85.1694C85.239 8.82752 85.3086 8.42327 85.4477 8.01892H76.402Z" fill="#181818"/>
<path d="M76.1932 9.97308C76.1932 10.3773 76.2629 10.7817 76.3324 11.1186H85.3782C85.239 10.7817 85.1694 10.3773 85.1694 9.97308H76.1932Z" fill="#181818"/>
<path d="M96.7202 17.0485C96.9982 16.8464 97.277 16.5769 97.5549 16.2399L96.9293 15.8356H79.3245C79.8116 16.2399 80.3683 16.6442 80.9249 16.9811H96.7202V17.0485Z" fill="#181818"/>
<path d="M137.495 8.89484H127.893V15.9703H137.495V8.89484Z" fill="#B1282E"/>
<path d="M117.456 19.744V16.5095H127.336V24.461C126.084 24.1914 120.865 23.0459 118.291 21.5634C117.386 21.0243 117.456 19.744 117.456 19.744Z" fill="#B1282E"/>
<path d="M136.661 21.7655C134.225 22.8437 129.285 24.0566 127.893 24.4609V16.4421H137.495V20.0808C137.495 20.1482 137.426 21.3612 136.661 21.7655Z" fill="white"/>
<path d="M121.005 8.89484C121.005 9.16442 121.074 9.43392 121.074 9.7035C121.074 12.1293 119.891 14.2857 117.943 15.9703H127.336V8.89484H121.005Z" fill="white"/>
<path d="M137.495 15.903H127.893V8.89492H137.495V15.903ZM137.495 20.1483C137.495 20.1483 137.426 21.3613 136.661 21.7656C134.225 22.8438 129.285 24.0567 127.893 24.461V16.4421H137.495V20.1483ZM127.336 24.461C126.084 24.1914 120.865 23.0459 118.29 21.5634C117.456 21.0918 117.525 19.8114 117.525 19.744V16.5095H127.336V24.461ZM120.935 8.28848C120.935 8.49067 121.004 8.62542 121.004 8.82759H127.336V15.903H117.943C117.595 16.1726 117.247 16.4421 116.899 16.7117V19.6766C116.899 19.744 116.76 21.2938 117.943 21.9678C121.004 23.7198 127.198 24.9327 127.475 25.0001H127.545H127.615C127.893 24.9327 133.947 23.5176 136.87 22.2373C137.982 21.7656 138.052 20.2157 138.052 20.1483V8.28848H120.935Z" fill="#181818"/>
</g>
<defs>
<clipPath id="clip0_1356_1398">
<rect width="138.542" height="25" fill="white"/>
</clipPath>
</defs>
</svg>
