<svg width="256" height="58" viewBox="0 0 256 58" fill="none" xmlns="http://www.w3.org/2000/svg">
<g clip-path="url(#clip0_3830_1633)">
<path d="M0 43.0119H3.74946C4.28691 43.0119 4.8032 43.0628 5.30256 43.1689C5.80193 43.275 6.24204 43.4491 6.61868 43.6995C6.99532 43.95 7.30002 44.281 7.52431 44.697C7.7486 45.113 7.86286 45.6309 7.86286 46.2548C7.86286 46.9595 7.74013 47.5283 7.49892 47.9612C7.2577 48.3942 6.93184 48.7295 6.52135 48.963C6.11086 49.2007 5.63688 49.362 5.0952 49.4469C4.55352 49.5318 3.99068 49.5742 3.40244 49.5742H1.98476V54.2052H0V43.0161V43.0119ZM3.18238 47.8636C3.46592 47.8636 3.75792 47.8551 4.06262 47.8339C4.36732 47.8127 4.64662 47.749 4.90477 47.6429C5.16291 47.5368 5.37027 47.3797 5.53532 47.1675C5.69613 46.9552 5.78077 46.6623 5.78077 46.2803C5.78077 45.9322 5.70883 45.6563 5.56071 45.4526C5.41259 45.2488 5.22216 45.0875 4.99364 44.9772C4.76088 44.8668 4.50697 44.7947 4.2192 44.7649C3.93566 44.7352 3.66059 44.7183 3.39821 44.7183H1.98053V47.8636H3.18238Z" fill="#887A6F"/>
<path d="M10.7151 46.6156H12.6068V47.8169H12.6364C12.848 47.3754 13.1443 47.0316 13.5336 46.7897C13.9229 46.5477 14.3673 46.4246 14.8751 46.4246C14.9894 46.4246 15.1036 46.4374 15.2137 46.4543C15.3237 46.4756 15.4379 46.501 15.5522 46.535V48.3687C15.3956 48.3263 15.239 48.2923 15.0867 48.2668C14.9343 48.2414 14.7862 48.2286 14.6381 48.2286C14.198 48.2286 13.8425 48.3093 13.5759 48.4748C13.3093 48.6404 13.1019 48.8271 12.9623 49.0351C12.8184 49.2474 12.7253 49.4554 12.6787 49.6676C12.6322 49.8798 12.6068 50.0369 12.6068 50.143V54.2052H10.7151V46.6199V46.6156Z" fill="#887A6F"/>
<path d="M17.4439 50.4104C17.4439 49.8077 17.5497 49.2643 17.7655 48.7762C17.9813 48.2881 18.2733 47.8678 18.6415 47.5198C19.0097 47.1717 19.4456 46.9043 19.9492 46.7133C20.4528 46.5223 20.9902 46.4289 21.5573 46.4289C22.1244 46.4289 22.6618 46.5223 23.1654 46.7133C23.669 46.9043 24.1049 47.1717 24.4731 47.5198C24.8412 47.8678 25.1332 48.2881 25.3491 48.7762C25.5649 49.2643 25.6707 49.8119 25.6707 50.4104C25.6707 51.0089 25.5607 51.5565 25.3491 52.0446C25.1332 52.5328 24.8412 52.953 24.4731 53.3011C24.1049 53.6492 23.669 53.9166 23.1654 54.1076C22.6618 54.2986 22.1244 54.392 21.5573 54.392C20.9902 54.392 20.4528 54.2986 19.9492 54.1076C19.4456 53.9166 19.0097 53.6492 18.6415 53.3011C18.2733 52.953 17.9813 52.5328 17.7655 52.0446C17.5497 51.5565 17.4439 51.0089 17.4439 50.4104ZM19.3355 50.4104C19.3355 50.7076 19.3863 50.9919 19.4837 51.2636C19.581 51.5395 19.7291 51.7815 19.9238 51.9895C20.1184 52.2017 20.3512 52.3672 20.6263 52.4946C20.9013 52.6219 21.2103 52.6856 21.5573 52.6856C21.9043 52.6856 22.2132 52.6219 22.4883 52.4946C22.7634 52.3672 22.9961 52.2017 23.1908 51.9895C23.3855 51.7772 23.5336 51.5353 23.6309 51.2636C23.7325 50.9877 23.779 50.7033 23.779 50.4104C23.779 50.1175 23.7282 49.8289 23.6309 49.5572C23.5293 49.2813 23.3855 49.0394 23.1908 48.8314C22.9961 48.6191 22.7634 48.4536 22.4883 48.3263C22.2132 48.1989 21.9043 48.1352 21.5573 48.1352C21.2103 48.1352 20.9013 48.1989 20.6263 48.3263C20.3512 48.4536 20.1184 48.6234 19.9238 48.8314C19.7291 49.0436 19.581 49.2856 19.4837 49.5572C19.3821 49.8331 19.3355 50.1175 19.3355 50.4104Z" fill="#887A6F"/>
<path d="M28.6965 46.6156H30.495V47.7532H30.5247C30.7997 47.2905 31.1637 46.951 31.6292 46.743C32.0905 46.5307 32.5898 46.4289 33.1273 46.4289C33.707 46.4289 34.2233 46.5307 34.6888 46.7387C35.1501 46.9425 35.5437 47.2269 35.8695 47.5834C36.1954 47.94 36.4408 48.3645 36.6101 48.8484C36.7794 49.3323 36.864 49.8544 36.864 50.4147C36.864 50.975 36.7752 51.4971 36.5974 51.981C36.4197 52.4649 36.17 52.8893 35.8484 53.2459C35.5268 53.6025 35.1416 53.8869 34.6888 54.0906C34.236 54.2944 33.7451 54.4005 33.2077 54.4005C32.8522 54.4005 32.5348 54.3623 32.264 54.2901C31.9889 54.2179 31.7477 54.1203 31.5403 54.0057C31.3287 53.8911 31.151 53.768 31.0029 53.6322C30.8547 53.5006 30.7362 53.3732 30.6389 53.2459H30.5924V57.8132H28.7007V46.6156H28.6965ZM34.9681 50.4104C34.9681 50.1175 34.9174 49.8289 34.82 49.5572C34.7185 49.2813 34.5746 49.0394 34.3799 48.8314C34.1852 48.6191 33.9525 48.4536 33.6774 48.3263C33.4023 48.1989 33.0934 48.1352 32.7464 48.1352C32.3994 48.1352 32.0905 48.1989 31.8154 48.3263C31.5403 48.4536 31.3076 48.6234 31.1129 48.8314C30.9182 49.0436 30.7701 49.2856 30.6728 49.5572C30.5712 49.8331 30.5247 50.1175 30.5247 50.4104C30.5247 50.7033 30.5754 50.9919 30.6728 51.2636C30.7743 51.5395 30.9182 51.7815 31.1129 51.9895C31.3076 52.2017 31.5403 52.3672 31.8154 52.4946C32.0905 52.6219 32.3994 52.6856 32.7464 52.6856C33.0934 52.6856 33.4023 52.6219 33.6774 52.4946C33.9525 52.3672 34.1852 52.2017 34.3799 51.9895C34.5746 51.7772 34.7227 51.5353 34.82 51.2636C34.9216 50.9877 34.9681 50.7033 34.9681 50.4104Z" fill="#887A6F"/>
<path d="M41.3964 51.0726C41.4599 51.6414 41.6799 52.0828 42.0566 52.4012C42.4332 52.7153 42.8902 52.8766 43.4277 52.8766C43.9017 52.8766 44.2952 52.779 44.6169 52.5837C44.9385 52.3885 45.2178 52.1423 45.459 51.8494L46.8132 52.8766C46.3731 53.4242 45.878 53.8147 45.332 54.0482C44.7861 54.2816 44.2148 54.3962 43.6139 54.3962C43.0468 54.3962 42.5094 54.3028 42.0058 54.1118C41.5022 53.9208 41.0663 53.6534 40.6981 53.3053C40.3299 52.9573 40.0379 52.537 39.8221 52.0489C39.6063 51.5607 39.5005 51.0132 39.5005 50.4147C39.5005 49.8162 39.6063 49.2686 39.8221 48.7804C40.0379 48.2923 40.3299 47.8721 40.6981 47.524C41.0663 47.1759 41.5022 46.9085 42.0058 46.7175C42.5094 46.5265 43.0468 46.4331 43.6139 46.4331C44.1386 46.4331 44.6211 46.5265 45.057 46.709C45.4929 46.8915 45.8653 47.159 46.1742 47.507C46.4831 47.8551 46.7243 48.2838 46.8978 48.7974C47.0713 49.3068 47.1602 49.8968 47.1602 50.559V51.0811H41.3921V51.0726H41.3964ZM45.2728 49.6506C45.2643 49.0903 45.0908 48.6531 44.7523 48.3305C44.4137 48.0079 43.9482 47.8466 43.3515 47.8466C42.7548 47.8466 42.3359 48.0121 42.0058 48.3347C41.6757 48.6616 41.4726 49.0988 41.4006 49.6464H45.277H45.2728V49.6506Z" fill="#887A6F"/>
<path d="M50.1903 46.6156H52.0819V47.8169H52.1116C52.3232 47.3754 52.6194 47.0316 53.0087 46.7897C53.3981 46.5477 53.8424 46.4246 54.3502 46.4246C54.4645 46.4246 54.5788 46.4374 54.6888 46.4543C54.7988 46.4756 54.9131 46.501 55.0273 46.535V48.3687C54.8708 48.3263 54.7142 48.2923 54.5618 48.2668C54.4095 48.2414 54.2614 48.2286 54.1132 48.2286C53.6731 48.2286 53.3176 48.3093 53.051 48.4748C52.7844 48.6404 52.5771 48.8271 52.4374 49.0351C52.2935 49.2474 52.2004 49.4554 52.1539 49.6676C52.1073 49.8798 52.0819 50.0369 52.0819 50.143V54.2052H50.1903V46.6199V46.6156Z" fill="#887A6F"/>
<path d="M56.6989 48.2286V46.6156H58.2605V44.4169H60.1521V46.6156H62.2342V48.2286H60.1521V51.548C60.1521 51.9258 60.2241 52.2272 60.3637 52.4479C60.5034 52.6686 60.7869 52.779 61.2059 52.779C61.3752 52.779 61.5571 52.762 61.756 52.7238C61.9549 52.6856 62.1115 52.6262 62.23 52.5413V54.1373C62.0311 54.2307 61.7857 54.2986 61.4979 54.3368C61.2101 54.375 60.952 54.392 60.7319 54.392C60.2283 54.392 59.8136 54.3368 59.4962 54.2264C59.1746 54.1161 58.9249 53.9463 58.7387 53.7213C58.5567 53.4963 58.4298 53.212 58.3621 52.8766C58.2943 52.5413 58.2605 52.1508 58.2605 51.7051V48.2286H56.6989Z" fill="#887A6F"/>
<path d="M63.9482 46.6156H66.0302L68.142 51.8791H68.1716L70.0632 46.6156H72.0311L68.4551 55.8309C68.3197 56.1875 68.1673 56.5016 68.0065 56.7733C67.8415 57.0407 67.6511 57.2699 67.431 57.4524C67.2109 57.635 66.9486 57.775 66.6523 57.8642C66.3519 57.9533 65.9922 58 65.5732 58C65.0781 58 64.5956 57.9363 64.1217 57.809L64.3586 56.1026C64.5068 56.1535 64.6591 56.2002 64.8241 56.2384C64.9892 56.2766 65.1542 56.2936 65.3193 56.2936C65.552 56.2936 65.7467 56.2724 65.9033 56.2299C66.0599 56.1875 66.1953 56.1238 66.3053 56.0304C66.4153 55.9413 66.5084 55.8267 66.5804 55.6824C66.6523 55.5381 66.7327 55.3683 66.8174 55.1688L67.1813 54.2689L63.9524 46.6199H63.9482V46.6156Z" fill="#887A6F"/>
<path d="M80.5076 43.0119H84.384C84.9214 43.0119 85.4377 43.0628 85.9371 43.1604C86.4365 43.2623 86.8808 43.4321 87.2701 43.674C87.6595 43.916 87.9684 44.2428 88.2011 44.6546C88.4339 45.0663 88.5482 45.5884 88.5482 46.2209C88.5482 47.0316 88.3239 47.7108 87.8795 48.2584C87.4309 48.8059 86.7962 49.137 85.9625 49.2559L88.9248 54.2052H86.5296L83.9439 49.4639H82.4923V54.2052H80.5076V43.0161V43.0119ZM84.037 47.7532C84.3205 47.7532 84.604 47.7405 84.8876 47.715C85.1711 47.6896 85.4293 47.6259 85.6662 47.524C85.9032 47.4221 86.0937 47.2693 86.2418 47.0656C86.3899 46.8618 86.4618 46.5732 86.4618 46.2039C86.4618 45.8771 86.3941 45.6139 86.2587 45.4144C86.1233 45.2149 85.9455 45.0621 85.7213 44.9644C85.5012 44.8626 85.2558 44.7989 84.9891 44.7649C84.7225 44.7352 84.4602 44.7183 84.2105 44.7183H82.4923V47.7532H84.037Z" fill="#887A6F"/>
<path d="M93.0382 51.0726C93.1017 51.6414 93.3217 52.0828 93.6984 52.4012C94.075 52.7153 94.5321 52.8766 95.0695 52.8766C95.5435 52.8766 95.937 52.779 96.2587 52.5837C96.5803 52.3885 96.8596 52.1423 97.1008 51.8494L98.455 52.8766C98.0149 53.4242 97.5198 53.8147 96.9739 54.0482C96.4279 54.2816 95.8566 54.3962 95.2557 54.3962C94.6886 54.3962 94.1512 54.3028 93.6476 54.1118C93.144 53.9208 92.7081 53.6534 92.3399 53.3053C91.9718 52.9573 91.6798 52.537 91.4639 52.0489C91.2481 51.5607 91.1423 51.0132 91.1423 50.4147C91.1423 49.8162 91.2481 49.2686 91.4639 48.7804C91.6798 48.2923 91.9718 47.8721 92.3399 47.524C92.7081 47.1759 93.144 46.9085 93.6476 46.7175C94.1512 46.5265 94.6886 46.4331 95.2557 46.4331C95.7805 46.4331 96.2629 46.5265 96.6988 46.709C97.1347 46.8915 97.5071 47.159 97.816 47.507C98.1249 47.8551 98.3662 48.2838 98.5397 48.7974C98.7132 49.3068 98.802 49.8968 98.802 50.559V51.0811H93.034V51.0726H93.0382ZM96.9146 49.6506C96.9061 49.0903 96.7326 48.6531 96.3941 48.3305C96.0555 48.0079 95.59 47.8466 94.9933 47.8466C94.3966 47.8466 93.9777 48.0121 93.6476 48.3347C93.3175 48.6616 93.1144 49.0988 93.0424 49.6464H96.9188H96.9146V49.6506Z" fill="#887A6F"/>
<path d="M105.865 48.721C105.497 48.2032 105.002 47.9485 104.384 47.9485C104.13 47.9485 103.885 48.0122 103.643 48.1395C103.402 48.2668 103.279 48.4706 103.279 48.755C103.279 48.9884 103.381 49.154 103.58 49.2601C103.779 49.3662 104.033 49.4554 104.337 49.5275C104.642 49.5997 104.968 49.6761 105.323 49.7567C105.675 49.8374 106.005 49.9562 106.309 50.1218C106.614 50.2873 106.868 50.5081 107.067 50.7924C107.266 51.0768 107.367 51.4674 107.367 51.964C107.367 52.4182 107.27 52.8002 107.075 53.1101C106.881 53.4199 106.627 53.6704 106.318 53.8614C106.009 54.0524 105.658 54.1882 105.268 54.2731C104.879 54.358 104.49 54.4005 104.1 54.4005C103.512 54.4005 102.97 54.3156 102.475 54.1458C101.98 53.976 101.54 53.6704 101.151 53.2289L102.412 52.0446C102.653 52.3206 102.915 52.5413 103.191 52.7153C103.47 52.8893 103.808 52.9742 104.206 52.9742C104.342 52.9742 104.485 52.9573 104.634 52.9275C104.782 52.8978 104.917 52.8427 105.044 52.7705C105.171 52.6983 105.273 52.6049 105.353 52.4946C105.433 52.3842 105.472 52.2569 105.472 52.1083C105.472 51.8451 105.37 51.6499 105.171 51.5225C104.972 51.3952 104.718 51.2933 104.414 51.2127C104.109 51.132 103.779 51.0599 103.428 50.9919C103.076 50.924 102.746 50.8137 102.441 50.6609C102.137 50.508 101.883 50.2958 101.684 50.0199C101.485 49.744 101.384 49.3662 101.384 48.8823C101.384 48.4621 101.468 48.0928 101.642 47.7829C101.815 47.4731 102.044 47.2184 102.327 47.0146C102.611 46.8151 102.937 46.6666 103.305 46.5732C103.673 46.4798 104.045 46.4289 104.422 46.4289C104.926 46.4289 105.425 46.5138 105.92 46.6878C106.415 46.8618 106.813 47.159 107.118 47.5792L105.857 48.7168H105.865V48.721Z" fill="#887A6F"/>
<path d="M109.204 48.2286V46.6156H110.766V44.4169H112.657V46.6156H114.739V48.2286H112.657V51.548C112.657 51.9258 112.729 52.2272 112.869 52.4479C113.009 52.6686 113.292 52.779 113.711 52.779C113.88 52.779 114.062 52.762 114.261 52.7238C114.46 52.6856 114.617 52.6262 114.735 52.5413V54.1373C114.536 54.2307 114.291 54.2986 114.003 54.3368C113.715 54.375 113.457 54.392 113.237 54.392C112.733 54.392 112.319 54.3368 112.001 54.2264C111.68 54.1161 111.43 53.9463 111.244 53.7213C111.062 53.4963 110.935 53.212 110.867 52.8766C110.799 52.5413 110.766 52.1508 110.766 51.7051V48.2286H109.204Z" fill="#887A6F"/>
<path d="M117.101 50.4104C117.101 49.8077 117.207 49.2643 117.422 48.7762C117.638 48.2881 117.93 47.8678 118.298 47.5198C118.667 47.1717 119.102 46.9043 119.606 46.7133C120.11 46.5223 120.647 46.4289 121.214 46.4289C121.781 46.4289 122.319 46.5223 122.822 46.7133C123.326 46.9043 123.762 47.1717 124.13 47.5198C124.498 47.8678 124.79 48.2881 125.006 48.7762C125.222 49.2643 125.328 49.8119 125.328 50.4104C125.328 51.0089 125.218 51.5565 125.006 52.0446C124.79 52.5328 124.498 52.953 124.13 53.3011C123.762 53.6492 123.326 53.9166 122.822 54.1076C122.319 54.2986 121.781 54.392 121.214 54.392C120.647 54.392 120.11 54.2986 119.606 54.1076C119.102 53.9166 118.667 53.6492 118.298 53.3011C117.93 52.953 117.638 52.5328 117.422 52.0446C117.207 51.5565 117.101 51.0089 117.101 50.4104ZM118.992 50.4104C118.992 50.7076 119.043 50.9919 119.141 51.2636C119.238 51.5395 119.386 51.7815 119.581 51.9895C119.775 52.2017 120.008 52.3672 120.283 52.4946C120.558 52.6219 120.867 52.6856 121.214 52.6856C121.561 52.6856 121.87 52.6219 122.145 52.4946C122.42 52.3672 122.653 52.2017 122.848 51.9895C123.042 51.7772 123.19 51.5353 123.288 51.2636C123.389 50.9877 123.436 50.7033 123.436 50.4104C123.436 50.1175 123.385 49.8289 123.288 49.5572C123.186 49.2813 123.042 49.0394 122.848 48.8314C122.653 48.6191 122.42 48.4536 122.145 48.3263C121.87 48.1989 121.561 48.1352 121.214 48.1352C120.867 48.1352 120.558 48.1989 120.283 48.3263C120.008 48.4536 119.775 48.6234 119.581 48.8314C119.386 49.0436 119.238 49.2856 119.141 49.5572C119.039 49.8331 118.992 50.1175 118.992 50.4104Z" fill="#887A6F"/>
<path d="M128.353 46.6156H130.245V47.8169H130.275C130.486 47.3754 130.782 47.0316 131.172 46.7897C131.561 46.5477 132.005 46.4246 132.513 46.4246C132.628 46.4246 132.742 46.4374 132.852 46.4543C132.962 46.4756 133.076 46.501 133.19 46.535V48.3687C133.034 48.3263 132.877 48.2923 132.725 48.2668C132.573 48.2414 132.424 48.2286 132.276 48.2286C131.836 48.2286 131.481 48.3093 131.214 48.4748C130.948 48.6404 130.74 48.8271 130.6 49.0351C130.457 49.2474 130.364 49.4554 130.317 49.6676C130.27 49.8798 130.245 50.0369 130.245 50.143V54.2052H128.353V46.6199V46.6156Z" fill="#887A6F"/>
<path d="M140.469 53.161H140.423C140.148 53.594 139.801 53.9081 139.382 54.1033C138.963 54.2986 138.497 54.3962 137.994 54.3962C137.647 54.3962 137.308 54.3495 136.978 54.2519C136.648 54.1585 136.352 54.0142 136.094 53.8232C135.835 53.6322 135.628 53.3945 135.471 53.1101C135.315 52.8257 135.234 52.4946 135.234 52.1126C135.234 51.7008 135.306 51.3528 135.454 51.0599C135.603 50.7712 135.797 50.5293 136.047 50.334C136.292 50.1388 136.58 49.9817 136.906 49.8671C137.232 49.7525 137.57 49.6634 137.922 49.6082C138.273 49.5487 138.628 49.5148 138.984 49.4978C139.339 49.4808 139.678 49.4723 139.991 49.4723H140.465V49.2686C140.465 48.7932 140.3 48.4409 139.978 48.2032C139.657 47.9655 139.238 47.8466 138.734 47.8466C138.336 47.8466 137.964 47.9188 137.617 48.0588C137.27 48.2032 136.97 48.3942 136.72 48.6361L135.725 47.6386C136.144 47.2057 136.635 46.8958 137.198 46.7048C137.761 46.5138 138.341 46.4204 138.942 46.4204C139.479 46.4204 139.928 46.4798 140.296 46.6029C140.664 46.726 140.969 46.8788 141.21 47.0698C141.451 47.2608 141.637 47.4773 141.768 47.7278C141.9 47.974 141.993 48.2244 142.052 48.4791C142.111 48.7338 142.145 48.9757 142.154 49.2134C142.162 49.4511 142.171 49.6591 142.171 49.8374V54.201H140.469V53.1568V53.161ZM140.359 50.8052H139.966C139.703 50.8052 139.407 50.8179 139.085 50.8349C138.76 50.8561 138.451 50.9071 138.163 50.9835C137.875 51.0641 137.63 51.1787 137.431 51.3315C137.232 51.4843 137.13 51.6966 137.13 51.9725C137.13 52.1508 137.168 52.3036 137.249 52.4224C137.329 52.5455 137.431 52.6474 137.558 52.7323C137.685 52.8172 137.824 52.8766 137.981 52.9148C138.138 52.953 138.294 52.97 138.455 52.97C139.107 52.97 139.589 52.8129 139.898 52.5031C140.207 52.1932 140.363 51.7687 140.363 51.2297V50.8009H140.359V50.8052Z" fill="#887A6F"/>
<path d="M144.583 48.2286V46.6156H146.144V44.4169H148.036V46.6156H150.118V48.2286H148.036V51.548C148.036 51.9258 148.108 52.2272 148.247 52.4479C148.387 52.6686 148.671 52.779 149.09 52.779C149.259 52.779 149.441 52.762 149.64 52.7238C149.839 52.6856 149.995 52.6262 150.114 52.5413V54.1373C149.915 54.2307 149.669 54.2986 149.382 54.3368C149.094 54.375 148.836 54.392 148.616 54.392C148.112 54.392 147.697 54.3368 147.38 54.2264C147.058 54.1161 146.809 53.9463 146.622 53.7213C146.44 53.4963 146.314 53.212 146.246 52.8766C146.178 52.5413 146.144 52.1508 146.144 51.7051V48.2286H144.583Z" fill="#887A6F"/>
<path d="M152.636 44.0391C152.636 43.7335 152.75 43.466 152.975 43.2411C153.199 43.0161 153.487 42.9015 153.834 42.9015C154.181 42.9015 154.473 43.0119 154.71 43.2241C154.947 43.4406 155.065 43.7122 155.065 44.0391C155.065 44.3659 154.947 44.6376 154.71 44.8541C154.473 45.0705 154.181 45.1767 153.834 45.1767C153.487 45.1767 153.199 45.0621 152.975 44.8371C152.75 44.6121 152.636 44.3447 152.636 44.0391ZM152.903 46.6156H154.794V54.201H152.903V46.6156Z" fill="#887A6F"/>
<path d="M157.85 50.4104C157.85 49.8077 157.955 49.2643 158.171 48.7762C158.387 48.2881 158.679 47.8678 159.047 47.5198C159.415 47.1717 159.851 46.9043 160.355 46.7133C160.859 46.5223 161.396 46.4289 161.963 46.4289C162.53 46.4289 163.068 46.5223 163.571 46.7133C164.075 46.9043 164.511 47.1717 164.879 47.5198C165.247 47.8678 165.539 48.2881 165.755 48.7762C165.971 49.2643 166.076 49.8119 166.076 50.4104C166.076 51.0089 165.966 51.5565 165.755 52.0446C165.539 52.5328 165.247 52.953 164.879 53.3011C164.511 53.6492 164.075 53.9166 163.571 54.1076C163.068 54.2986 162.53 54.392 161.963 54.392C161.396 54.392 160.859 54.2986 160.355 54.1076C159.851 53.9166 159.415 53.6492 159.047 53.3011C158.679 52.953 158.387 52.5328 158.171 52.0446C157.955 51.5565 157.85 51.0089 157.85 50.4104ZM159.741 50.4104C159.741 50.7076 159.792 50.9919 159.889 51.2636C159.987 51.5395 160.135 51.7815 160.33 51.9895C160.524 52.2017 160.757 52.3672 161.032 52.4946C161.307 52.6219 161.616 52.6856 161.963 52.6856C162.31 52.6856 162.619 52.6219 162.894 52.4946C163.169 52.3672 163.402 52.2017 163.597 51.9895C163.791 51.7772 163.939 51.5353 164.037 51.2636C164.138 50.9877 164.185 50.7033 164.185 50.4104C164.185 50.1175 164.134 49.8289 164.037 49.5572C163.935 49.2813 163.791 49.0394 163.597 48.8314C163.402 48.6191 163.169 48.4536 162.894 48.3263C162.619 48.1989 162.31 48.1352 161.963 48.1352C161.616 48.1352 161.307 48.1989 161.032 48.3263C160.757 48.4536 160.524 48.6234 160.33 48.8314C160.135 49.0436 159.987 49.2856 159.889 49.5572C159.788 49.8331 159.741 50.1175 159.741 50.4104Z" fill="#887A6F"/>
<path d="M169.102 46.6156H170.901V47.8339H170.93C171.108 47.4561 171.383 47.125 171.751 46.8448C172.12 46.5647 172.619 46.4246 173.25 46.4246C173.753 46.4246 174.181 46.5095 174.536 46.6793C174.887 46.8491 175.175 47.0698 175.395 47.3415C175.615 47.6174 175.772 47.9315 175.869 48.2881C175.962 48.6446 176.013 49.0224 176.013 49.4087V54.1967H174.121V50.3552C174.121 50.143 174.109 49.9095 174.092 49.6506C174.071 49.3917 174.016 49.1497 173.927 48.9248C173.838 48.6998 173.698 48.5088 173.508 48.356C173.317 48.2032 173.059 48.1268 172.737 48.1268C172.416 48.1268 172.158 48.1777 171.942 48.2838C171.726 48.3899 171.548 48.53 171.404 48.7125C171.261 48.8951 171.159 49.0988 171.096 49.328C171.032 49.5615 171.002 49.8034 171.002 50.0539V54.1967H169.111V46.6114H169.102V46.6156Z" fill="#887A6F"/>
<path d="M185.505 43.0119H192.898V44.8116H187.494V47.5622H192.615V49.3662H187.494V52.4012H193.182V54.201H185.505V43.0119Z" fill="#887A6F"/>
<path d="M198.175 50.126L195.56 46.6156H197.862L199.373 48.8908L201.011 46.6156H203.169L200.583 50.126L203.626 54.2052H201.324L199.356 51.4886L197.371 54.2052H195.133L198.175 50.126Z" fill="#887A6F"/>
<path d="M205.945 46.6156H207.744V47.7532H207.773C208.048 47.2905 208.412 46.951 208.878 46.743C209.339 46.5307 209.838 46.4289 210.376 46.4289C210.956 46.4289 211.472 46.5307 211.937 46.7387C212.399 46.9425 212.792 47.2269 213.118 47.5834C213.444 47.94 213.69 48.3645 213.859 48.8484C214.028 49.3323 214.113 49.8544 214.113 50.4147C214.113 50.975 214.024 51.4971 213.846 51.981C213.668 52.4649 213.419 52.8893 213.097 53.2459C212.775 53.6025 212.39 53.8869 211.937 54.0906C211.485 54.2944 210.994 54.4005 210.456 54.4005C210.101 54.4005 209.783 54.3623 209.513 54.2901C209.238 54.2179 208.996 54.1203 208.789 54.0057C208.577 53.8911 208.4 53.768 208.252 53.6322C208.103 53.5006 207.985 53.3732 207.888 53.2459H207.841V57.8132H205.949V46.6156H205.945ZM212.217 50.4104C212.217 50.1175 212.166 49.8289 212.069 49.5572C211.967 49.2813 211.823 49.0394 211.629 48.8314C211.434 48.6191 211.201 48.4536 210.926 48.3263C210.651 48.1989 210.342 48.1352 209.995 48.1352C209.648 48.1352 209.339 48.1989 209.064 48.3263C208.789 48.4536 208.556 48.6234 208.362 48.8314C208.167 49.0436 208.019 49.2856 207.921 49.5572C207.82 49.8331 207.773 50.1175 207.773 50.4104C207.773 50.7033 207.824 50.9919 207.921 51.2636C208.023 51.5395 208.167 51.7815 208.362 51.9895C208.556 52.2017 208.789 52.3672 209.064 52.4946C209.339 52.6219 209.648 52.6856 209.995 52.6856C210.342 52.6856 210.651 52.6219 210.926 52.4946C211.201 52.3672 211.434 52.2017 211.629 51.9895C211.823 51.7772 211.971 51.5353 212.069 51.2636C212.17 50.9877 212.217 50.7033 212.217 50.4104Z" fill="#887A6F"/>
<path d="M218.645 51.0726C218.709 51.6414 218.929 52.0828 219.305 52.4012C219.682 52.7153 220.139 52.8766 220.676 52.8766C221.15 52.8766 221.544 52.779 221.866 52.5837C222.187 52.3885 222.466 52.1423 222.708 51.8494L224.062 52.8766C223.622 53.4242 223.127 53.8147 222.581 54.0482C222.035 54.2816 221.464 54.3962 220.863 54.3962C220.296 54.3962 219.758 54.3028 219.254 54.1118C218.751 53.9208 218.315 53.6534 217.947 53.3053C217.579 52.9573 217.287 52.537 217.071 52.0489C216.855 51.5607 216.749 51.0132 216.749 50.4147C216.749 49.8162 216.855 49.2686 217.071 48.7804C217.287 48.2923 217.579 47.8721 217.947 47.524C218.315 47.1759 218.751 46.9085 219.254 46.7175C219.758 46.5265 220.296 46.4331 220.863 46.4331C221.387 46.4331 221.87 46.5265 222.306 46.709C222.742 46.8915 223.114 47.159 223.423 47.507C223.732 47.8551 223.973 48.2838 224.147 48.7974C224.32 49.3068 224.409 49.8968 224.409 50.559V51.0811H218.641V51.0726H218.645ZM222.522 49.6506C222.513 49.0903 222.34 48.6531 222.001 48.3305C221.662 48.0079 221.197 47.8466 220.6 47.8466C220.004 47.8466 219.585 48.0121 219.254 48.3347C218.924 48.6616 218.721 49.0988 218.649 49.6464H222.526H222.522V49.6506Z" fill="#887A6F"/>
<path d="M227.439 46.6156H229.331V47.8169H229.36C229.572 47.3754 229.868 47.0316 230.257 46.7897C230.647 46.5477 231.091 46.4246 231.599 46.4246C231.713 46.4246 231.827 46.4374 231.937 46.4543C232.047 46.4756 232.162 46.501 232.276 46.535V48.3687C232.119 48.3263 231.963 48.2923 231.81 48.2668C231.658 48.2414 231.51 48.2286 231.362 48.2286C230.922 48.2286 230.566 48.3093 230.3 48.4748C230.033 48.6404 229.826 48.8271 229.686 49.0351C229.542 49.2474 229.449 49.4554 229.403 49.6676C229.356 49.8798 229.331 50.0369 229.331 50.143V54.2052H227.439V46.6199V46.6156Z" fill="#887A6F"/>
<path d="M233.948 48.2286V46.6156H235.509V44.4169H237.401V46.6156H239.483V48.2286H237.401V51.548C237.401 51.9258 237.473 52.2272 237.612 52.4479C237.752 52.6686 238.036 52.779 238.455 52.779C238.624 52.779 238.806 52.762 239.005 52.7238C239.204 52.6856 239.36 52.6262 239.479 52.5413V54.1373C239.28 54.2307 239.034 54.2986 238.747 54.3368C238.459 54.375 238.201 54.392 237.981 54.392C237.477 54.392 237.062 54.3368 236.745 54.2264C236.423 54.1161 236.174 53.9463 235.987 53.7213C235.805 53.4963 235.678 53.212 235.611 52.8766C235.543 52.5413 235.509 52.1508 235.509 51.7051V48.2286H233.948Z" fill="#887A6F"/>
<path d="M246.254 48.721C245.886 48.2032 245.391 47.9485 244.773 47.9485C244.519 47.9485 244.273 48.0122 244.032 48.1395C243.791 48.2668 243.668 48.4706 243.668 48.755C243.668 48.9884 243.77 49.154 243.969 49.2601C244.168 49.3662 244.422 49.4554 244.726 49.5275C245.031 49.5997 245.357 49.6761 245.712 49.7567C246.064 49.8374 246.394 49.9562 246.698 50.1218C247.003 50.2873 247.257 50.5081 247.456 50.7924C247.655 51.0768 247.756 51.4674 247.756 51.964C247.756 52.4182 247.659 52.8002 247.464 53.1101C247.27 53.4199 247.016 53.6704 246.707 53.8614C246.398 54.0524 246.047 54.1882 245.657 54.2731C245.268 54.358 244.879 54.4005 244.489 54.4005C243.901 54.4005 243.359 54.3156 242.864 54.1458C242.369 53.976 241.929 53.6704 241.54 53.2289L242.801 52.0446C243.042 52.3206 243.304 52.5413 243.579 52.7153C243.859 52.8893 244.197 52.9742 244.595 52.9742C244.73 52.9742 244.874 52.9573 245.022 52.9275C245.171 52.8978 245.306 52.8427 245.433 52.7705C245.56 52.6983 245.661 52.6049 245.742 52.4946C245.822 52.3842 245.86 52.2569 245.86 52.1083C245.86 51.8451 245.759 51.6499 245.56 51.5225C245.361 51.3952 245.107 51.2933 244.802 51.2127C244.498 51.132 244.168 51.0599 243.816 50.9919C243.465 50.924 243.135 50.8137 242.83 50.6609C242.526 50.508 242.272 50.2958 242.073 50.0199C241.874 49.744 241.772 49.3662 241.772 48.8823C241.772 48.4621 241.857 48.0928 242.031 47.7829C242.204 47.4731 242.433 47.2184 242.716 47.0146C243 46.8151 243.325 46.6666 243.694 46.5732C244.062 46.4798 244.434 46.4289 244.811 46.4289C245.314 46.4289 245.814 46.5138 246.309 46.6878C246.804 46.8618 247.202 47.159 247.507 47.5792L246.245 48.7168H246.254V48.721Z" fill="#887A6F"/>
<path d="M154.206 3.48068L136.555 35.2398H145.48L148.104 30.1758L165.797 30.1376L168.341 35.2398H178.48L161.798 3.48068H154.206ZM157.24 13.2818L163.258 25.1076H150.859L157.24 13.2818Z" fill="#231F20"/>
<path d="M216.61 3.48068H206.999V35.2398H216.61V3.48068Z" fill="#231F20"/>
<path d="M139.331 19.3517C139.331 8.98186 131.857 3.47644 123.216 3.47644H114.528V11.2528H122.611C127.82 11.2528 130.122 14.1689 130.122 19.3517C130.122 23.796 128.425 26.5678 124.663 27.2724V35.2143C132.674 34.6285 139.331 29.1401 139.331 19.3517Z" fill="#231F20"/>
<path d="M204.561 3.48068H195.196L186.47 23.2484L177.422 3.48068H167.57L182.932 35.2567H189.2L204.561 3.48068Z" fill="#231F20"/>
<path d="M228.061 11.6221C228.061 9.7162 230.16 8.9097 233.228 8.9097C238.675 8.9097 242.098 10.6246 245.937 12.1909V4.77109C241.98 3.76933 238.603 2.9119 233.753 2.9119C227.007 2.9119 220.224 5.14038 220.224 13.0398C220.224 24.9081 240.012 21.0624 240.012 26.4871C240.012 28.5119 238.154 29.8108 233.956 29.8108C230.101 29.8108 223.969 27.6459 220.448 25.948V34.0512C224.439 34.862 229.288 35.8043 234.117 35.8043C243.486 35.8043 247.849 31.3473 247.849 25.3113C247.849 12.9167 228.061 17.1699 228.061 11.6178V11.6221Z" fill="#231F20"/>
<path d="M44.3333 13.2945L50.3511 25.1246H37.9558L44.3333 13.2945ZM41.3033 3.49341L23.652 35.2482H32.5771L35.2009 30.1843L52.8944 30.1461L55.4336 35.2228H65.5732L48.8911 3.49341H41.299H41.3033Z" fill="#B4975A"/>
<path d="M97.8202 3.48492V25.1967C97.8202 32.243 94.4686 35.7279 81.464 35.7279C68.4594 35.7279 65.1077 32.243 65.1077 25.1967V3.48492H74.0751V21.0666C74.0751 26.6569 76.3349 28.4397 81.464 28.4397C86.593 28.4397 88.8571 26.6569 88.8571 21.0666V3.48492H97.8245H97.8202Z" fill="#B4975A"/>
<path d="M101.536 3.48068V35.2398H121.578V27.7054H111.151V3.48068H101.536Z" fill="#B4975A"/>
<path d="M9.46674 35.2228H0.0973206V3.46369H12.5349C28.5187 3.40426 31.1891 6.78731 31.1891 13.511C31.1891 18.698 28.0786 22.9895 18.1464 22.9895C15.8019 22.9895 11.3669 22.9088 9.46674 22.8664V35.2228ZM9.46674 17.6835C10.7194 17.7642 11.9466 17.7515 13.1993 17.7345C20.9055 17.6453 22.2217 15.8201 22.2217 13.2266C22.2217 10.633 20.7405 8.79507 13.2162 8.77385C11.9636 8.77385 10.7194 8.81205 9.46674 8.8927V17.6835Z" fill="#B4975A"/>
<path d="M248.395 0.573039H246.948V0H250.452V0.573039H249.005V4.5079H248.395V0.573039Z" fill="#887A6F"/>
<path d="M251.311 0H252.221L253.651 3.41276H253.677L255.09 0H256V4.5079H255.391V0.802254H255.378L253.863 4.5079H253.457L251.942 0.802254H251.929V4.5079H251.32V0H251.311Z" fill="#887A6F"/>
</g>
<defs>
<clipPath id="clip0_3830_1633">
<rect width="256" height="58" fill="white"/>
</clipPath>
</defs>
</svg>
