<svg width="91" height="47" viewBox="0 0 91 47" fill="none" xmlns="http://www.w3.org/2000/svg">
<path d="M83.9019 29.8133H89.8311V0L83.9019 1.249V11.1417C82.4693 9.86126 80.553 9.10358 78.1424 9.10358C75.392 9.13932 72.7662 10.2622 70.8338 12.229C68.9014 14.1958 67.8179 16.8482 67.8179 19.6119C67.8179 22.3755 68.9014 25.028 70.8338 26.9948C72.7662 28.9616 75.392 30.0844 78.1424 30.1202C80.558 30.1202 82.4723 29.3668 83.9019 28.0939V29.8133ZM78.8895 24.7422C77.8769 24.7551 76.8832 24.4652 76.035 23.9093C75.1867 23.3534 74.5221 22.5566 74.1257 21.6203C73.7292 20.684 73.6188 19.6504 73.8085 18.6508C73.9982 17.6513 74.4795 16.731 75.191 16.007C75.9026 15.2829 76.8124 14.7878 77.8047 14.5846C78.797 14.3813 79.8271 14.4791 80.764 14.8655C81.7009 15.2519 82.5023 15.9095 83.0662 16.7546C83.6302 17.5998 83.9314 18.5943 83.9314 19.6119C83.9338 20.9621 83.4055 22.2587 82.4612 23.2195C81.517 24.1803 80.2333 24.7275 78.8895 24.7422Z" fill="white"/>
<path d="M21.5537 9.5738C21.5537 4.18783 17.091 1.25 11.8215 1.25H0V29.8145H7.12135V17.8978H7.97585L14.2427 29.8145H21.8385L15.0023 17.4489C18.7053 16.5104 21.5537 13.7768 21.5537 9.5738ZM11.2042 12.8106H7.12134V6.33703H11.2042C13.3882 6.33703 14.4799 7.51613 14.4799 9.5738C14.4799 11.6317 13.3882 12.8106 11.2042 12.8106Z" fill="white"/>
<path d="M32.3837 9.16516C26.4139 9.16516 22.0278 13.7352 22.0278 19.6518C22.0278 25.4868 26.4545 30.0568 32.5869 30.0568C37.4196 30.0568 41.2777 27.4281 42.4556 23.2253H36.039C35.4702 24.4905 34.049 25.0444 32.5464 25.0444C30.0282 25.0444 28.3631 23.1201 28.1195 20.8455H42.618C42.6723 20.368 42.6993 19.8877 42.6992 19.4071C42.7029 18.0507 42.4378 16.7072 41.9192 15.4549C41.4006 14.2025 40.6389 13.0665 39.6787 12.1131C38.7184 11.1597 37.5788 10.408 36.3263 9.90189C35.0738 9.39575 33.7335 9.1453 32.3837 9.16516ZM28.3226 17.3155C28.81 15.2041 30.475 13.8681 32.3837 13.8681C34.3739 13.8681 35.917 15.2858 36.4045 17.3155H28.3226Z" fill="white"/>
<path d="M55.3033 9.16516C49.3333 9.16516 44.9473 13.7352 44.9473 19.6518C44.9473 25.4868 49.3741 30.0568 55.5064 30.0568C60.3393 30.0568 64.1974 27.4281 65.3752 23.2253H58.9586C58.3898 24.4905 56.9686 25.0444 55.4658 25.0444C52.9478 25.0444 51.2828 23.1201 51.0392 20.8455H65.5377C65.5919 20.368 65.619 19.8877 65.6188 19.4071C65.6226 18.0507 65.3574 16.7072 64.8388 15.4549C64.3202 14.2025 63.5586 13.0665 62.5983 12.1131C61.6381 11.1597 60.4985 10.408 59.246 9.90189C57.9935 9.39575 56.6532 9.1453 55.3033 9.16516ZM51.2422 17.3155C51.7294 15.2041 53.3947 13.8681 55.3033 13.8681C57.2933 13.8681 58.8367 15.2858 59.3239 17.3155H51.2422Z" fill="white"/>
<path d="M55.7199 36.4102C54.7549 36.4101 53.8115 36.6976 53.009 37.2363C52.2066 37.775 51.5812 38.5406 51.2118 39.4364C50.8425 40.3323 50.7458 41.318 50.9341 42.269C51.1223 43.22 51.587 44.0935 52.2694 44.7792C52.9518 45.4648 53.8212 45.9318 54.7678 46.121C55.7143 46.3102 56.6954 46.2131 57.587 45.8421C58.4786 45.471 59.2407 44.8427 59.7769 44.0365C60.3131 43.2303 60.5993 42.2824 60.5993 41.3128C60.5993 40.0126 60.0852 38.7656 59.1702 37.8462C58.2551 36.9268 57.014 36.4103 55.7199 36.4102Z" fill="white"/>
<path d="M70.7485 36.4102C69.7835 36.4102 68.8401 36.6977 68.0377 37.2364C67.2353 37.7751 66.6099 38.5408 66.2406 39.4366C65.8712 40.3324 65.7746 41.3181 65.9629 42.2691C66.1512 43.2201 66.6159 44.0937 67.2983 44.7793C67.9807 45.4649 68.8501 45.9318 69.7967 46.121C70.7432 46.3102 71.7243 46.2131 72.6159 45.842C73.5075 45.471 74.2695 44.8426 74.8057 44.0364C75.3419 43.2302 75.6281 42.2824 75.6281 41.3128C75.6281 40.669 75.5019 40.0314 75.2567 39.4366C75.0115 38.8418 74.6521 38.3013 74.1989 37.8461C73.7458 37.3908 73.2079 37.0297 72.6159 36.7833C72.0239 36.5369 71.3893 36.4101 70.7485 36.4102Z" fill="white"/>
<path d="M85.7773 36.4102C84.8122 36.4102 83.8688 36.6977 83.0664 37.2364C82.264 37.7751 81.6387 38.5408 81.2694 39.4366C80.9001 40.3324 80.8034 41.3181 80.9917 42.269C81.18 43.22 81.6447 44.0935 82.3271 44.7792C83.0095 45.4648 83.8789 45.9317 84.8254 46.1208C85.7719 46.31 86.753 46.2129 87.6446 45.8419C88.5362 45.4709 89.2982 44.8425 89.8344 44.0363C90.3706 43.2301 90.6568 42.2823 90.6568 41.3127C90.6568 40.6689 90.5306 40.0314 90.2854 39.4366C90.0402 38.8418 89.6807 38.3013 89.2276 37.8461C88.7745 37.3908 88.2366 37.0297 87.6446 36.7833C87.0526 36.5369 86.418 36.4101 85.7773 36.4102Z" fill="white"/>
</svg>
