<?xml version="1.0" encoding="UTF-8"?>
<!DOCTYPE svg PUBLIC "-//W3C//DTD SVG 1.1//EN" "http://www.w3.org/Graphics/SVG/1.1/DTD/svg11.dtd">
<!-- Creator: CorelDRAW 2018 -->
<svg xmlns="http://www.w3.org/2000/svg" xml:space="preserve" width="181.391mm" height="67.3317mm" version="1.1" style="shape-rendering:geometricPrecision; text-rendering:geometricPrecision; image-rendering:optimizeQuality; fill-rule:evenodd; clip-rule:evenodd"
viewBox="0 0 18075.52 6709.57"
 xmlns:xlink="http://www.w3.org/1999/xlink">
 <defs>
  <style type="text/css">
   <![CDATA[
    .fil2 {fill:#F6A409;fill-rule:nonzero}
    .fil1 {fill:#26478D;fill-rule:nonzero}
    .fil0 {fill:#2B4386;fill-rule:nonzero}
   ]]>
  </style>
 </defs>
 <g id="Layer_x0020_1">
  <metadata id="CorelCorpID_0Corel-Layer"/>
  <path class="fil0" d="M139.54 6565.89l139.6 0c215.7,0 383.51,-47.49 503.62,-142.51 120.02,-95.13 179.98,-241.09 179.98,-437.97 0,-392.44 -227.81,-588.62 -683.6,-588.62l-139.6 0 0 1169.1zm-139.54 121.38l0 -1411.81 287.25 0c163.06,0 304.67,23.64 424.75,70.74 120.1,47.2 215.67,124.79 287.16,232.59 71.52,107.96 107.34,242.75 107.34,404.63 0,122.68 -21.62,230.56 -64.77,323.69 -43.19,92.94 -103.07,166.5 -179.96,220.42 -76.95,53.96 -163.29,94.07 -259.03,120.36 -95.76,26.29 -200.98,39.38 -315.49,39.38l-287.25 0z"/>
  <path class="fil0" d="M1407.79 6687.28l0 -1027.54 131.57 0 0 1027.54 -131.57 0zm-12.14 -1256.1l0 -163.76 155.78 0 0 163.76 -155.78 0z"/>
  <path class="fil0" d="M2093.6 6709.57c-95.79,0 -188.91,-17.54 -279.17,-52.61l14.13 -123.35c82.23,43.19 168.55,64.64 258.94,64.64 63.33,0 116.86,-15.11 160.74,-45.48 43.86,-30.31 65.78,-75.16 65.78,-134.51 0,-49.86 -16.16,-89.03 -48.53,-117.25 -32.42,-28.33 -93.78,-61.39 -184.09,-99.15 -84.94,-35.1 -147.99,-72.85 -189.12,-113.33 -41.18,-40.36 -61.67,-95.68 -61.67,-165.83 0,-87.68 31.6,-157.05 95.01,-208.32 63.41,-51.27 143.71,-76.89 240.71,-76.89 87.68,0 165.94,13.48 234.6,40.48l-12.09 117.36c-66.04,-32.39 -140.24,-48.56 -222.52,-48.56 -59.35,0 -108.5,14.83 -147.63,44.5 -39.1,29.68 -58.64,70.73 -58.64,123.35 0,45.87 16.83,82.56 50.56,110.22 33.73,27.63 90.31,56.36 169.86,85.95 93.11,35.08 160.82,75.55 203.33,121.42 42.49,45.87 63.69,103.87 63.69,173.91 0,98.48 -33.98,173.64 -102.14,225.58 -68.14,51.94 -152.05,77.87 -251.75,77.87z"/>
  <path class="fil0" d="M3072.55 6699.44c-105.25,0 -179,-27.63 -221.52,-82.96 -42.45,-55.24 -63.72,-137.47 -63.72,-246.8l0 -594.6 -220.45 0 0 -109.26 220.45 0 0 -234.65 129.5 -44.5 0 279.16 270.97 0 0 109.26 -270.97 0 0 572.37c0,83.66 13.81,145.69 41.44,186.16 27.66,40.39 72.45,60.62 134.51,60.62 37.71,0 73.48,-7.33 107.21,-22.26l6.04 105.22c-40.42,14.85 -84.92,22.26 -133.47,22.26z"/>
  <path class="fil0" d="M3448.71 6687.28l0 -718.03c0,-133.55 -3.36,-236.68 -10.09,-309.5l129.49 0c5.4,72.82 8.11,139.65 8.11,200.23l4.06 0c22.91,-64.63 60.31,-117.95 112.28,-159.76 51.8,-41.78 110.17,-62.71 174.97,-62.71 30.9,0 59.24,4.06 84.86,12.14l-2.04 121.42c-21.53,-6.75 -49.87,-10.15 -84.86,-10.15 -84.97,0 -153.78,36.75 -206.38,110.25 -52.5,73.53 -78.82,168.24 -78.82,284.17l0 531.95 -131.57 0z"/>
  <path class="fil0" d="M4166.79 6687.28l0 -1027.54 131.52 0 0 1027.54 -131.52 0zm-12.16 -1256.1l0 -163.76 155.81 0 0 163.76 -155.81 0z"/>
  <path class="fil0" d="M5097.31 6699.44c-153.78,0 -276.82,-47.88 -369.17,-143.55 -92.38,-95.79 -138.55,-222.63 -138.55,-380.35 0,-153.69 47.15,-280.11 141.58,-379.27 94.34,-99.15 217.07,-148.69 368.18,-148.69 90.26,0 168.52,13.48 234.6,40.48l-12.14 121.33c-62.06,-30.91 -134.9,-46.46 -218.41,-46.46 -110.62,0 -200.35,38.09 -269.06,114.28 -68.78,76.22 -103.18,173.64 -103.18,292.25 0,122.76 33.7,222.19 101.16,298.32 67.32,76.22 158.41,114.26 273.06,114.26 83.58,0 158.42,-17.4 224.54,-52.48l10.07 121.27c-72.83,32.43 -153.78,48.59 -242.7,48.59z"/>
  <path class="fil0" d="M5936.7 6699.44c-105.22,0 -179.08,-27.63 -221.54,-82.96 -42.51,-55.24 -63.66,-137.47 -63.66,-246.8l0 -594.6 -220.48 0 0 -109.26 220.48 0 0 -234.65 129.49 -44.5 0 279.16 270.94 0 0 109.26 -270.94 0 0 572.37c0,83.66 13.76,145.69 41.42,186.16 27.63,40.39 72.47,60.62 134.53,60.62 37.65,0 73.37,-7.33 107.1,-22.26l6.09 105.22c-40.36,14.85 -84.88,22.26 -133.44,22.26z"/>
  <path class="fil0" d="M6737.72 6687.28l0 -135.45c245.43,-209.1 422.14,-383.66 529.96,-523.9 107.91,-140.3 161.86,-270.38 161.86,-390.43 0,-87.6 -28.02,-154.36 -83.9,-200.24 -55.99,-45.87 -126.45,-68.8 -211.45,-68.8 -105.22,0 -211.68,31.04 -319.59,93.08l-24.27 -123.41c117.34,-56.58 236.65,-84.91 358.04,-84.91 124.04,0 226.18,32.67 306.43,98.08 80.24,65.42 120.38,158.78 120.38,280.08 0,101.16 -32.05,205.36 -96.1,312.5 -64.1,107.24 -164.18,228.96 -300.33,365.09 -114.65,112.02 -216.46,199.65 -305.46,262.97l0 4.06c164.46,-5.32 304.08,-8.09 418.65,-8.09l311.55 0 0 119.35 -865.76 0z"/>
  <path class="fil0" d="M7967.47 6236.27l550.24 0 0 -438.9c0,-164.63 3.36,-310.86 10.09,-439.04l-4.03 0c-43.19,82.28 -107.26,188.85 -192.15,319.64l-364.16 558.3zm550.24 451l0 -331.71 -687.71 0 0 -125.39 631.07 -954.71 190.08 0 0 960.81 198.3 0 0 119.29 -198.3 0 0 331.71 -133.44 0z"/>
  <path class="fil0" d="M9519.01 5900.44c175.31,-71.38 263,-171.91 263,-301.4 0,-74.09 -26.02,-131.71 -77.99,-172.96 -51.86,-41.04 -120.33,-61.64 -205.21,-61.64 -83.63,0 -151.77,20.86 -204.32,62.68 -52.6,41.84 -78.9,100.55 -78.9,175.95 0,134.9 101.11,233.97 303.41,297.37zm-16.13 697.81c97.03,0 176.21,-24.25 237.62,-72.72 61.34,-48.55 92,-114.67 92,-198.3 0,-74.12 -28.22,-136.82 -84.92,-188.09 -56.66,-51.27 -145.63,-95.71 -266.96,-133.47 -203.73,67.43 -305.46,171.93 -305.46,313.45 0,85 29.98,152.71 89.97,203.34 60.05,50.56 139.23,75.79 237.74,75.79zm-4.06 109.31c-141.66,0 -255.28,-34.71 -340.83,-104.16 -85.65,-69.5 -128.41,-162.86 -128.41,-280.22 0,-168.52 113.19,-292.53 339.74,-372.13l0 -1.98c-198.22,-74.26 -297.34,-188.8 -297.34,-343.94 0,-103.74 40.41,-188.07 121.38,-252.84 80.95,-64.67 186.69,-97.06 317.59,-97.06 125.36,0 226.13,30.68 302.38,92.05 76.16,61.36 114.23,143.27 114.23,245.72 0,151.09 -100.47,269.03 -301.34,354l0 2.07c114.65,35.02 201.52,82.28 260.89,141.52 59.41,59.35 89.01,136.24 89.01,230.61 0,118.67 -43.81,212.71 -131.49,282.21 -87.68,69.46 -202.92,104.16 -345.81,104.16z"/>
  <path class="fil0" d="M10220.83 6687.28l0 -135.45c245.38,-209.1 422.12,-383.66 529.97,-523.9 107.93,-140.3 161.91,-270.38 161.91,-390.43 0,-87.6 -28.13,-154.36 -83.96,-200.24 -55.96,-45.87 -126.42,-68.8 -211.45,-68.8 -105.19,0 -211.68,31.04 -319.61,93.08l-24.27 -123.41c117.42,-56.58 236.71,-84.91 358.09,-84.91 124.01,0 226.13,32.67 306.46,98.08 80.22,65.42 120.27,158.78 120.27,280.08 0,101.16 -31.97,205.36 -95.99,312.5 -64.13,107.24 -164.2,228.96 -300.36,365.09 -114.65,112.02 -216.48,199.65 -305.48,262.97l0 4.06c164.48,-5.32 304.11,-8.09 418.64,-8.09l311.52 0 0 119.35 -865.73 0z"/>
  <path class="fil1" d="M9405.29 2296.22c-175.25,10.43 -347.83,110.65 -455.31,186.83l0 -107.9c0,-36.5 -29.57,-65.68 -66.1,-65.68l-264.9 0c-36.55,0 -66.12,29.18 -66.12,65.68l0 1604.99c0,36.55 29.57,65.92 66.12,65.92l264.9 0c36.53,0 66.1,-29.37 66.1,-65.92l0 -1109.3c59.85,-49.81 244.87,-188.68 465.32,-208.09 33.87,-2.97 60.13,-31.47 60.13,-65.68l0 -235.19c0,-18.27 -7.29,-35.47 -20.95,-47.77 -12.97,-12.78 -31.16,-19.55 -49.2,-17.9zm-2067.61 997.67c-155.73,14.65 -229.8,85.84 -229.8,223.03 0,84.21 23.28,226.6 177.69,226.6 183.31,0 432.41,-69.25 435.03,-69.97l0 -399.99 -382.92 20.34zm779.82 -438.31l0 1151.64c0,19.13 -8.37,37.34 -22.6,49.7 -14.72,12.65 -33.87,18.33 -52.51,15.62 -134.78,-18.91 -198.86,-61.09 -262.66,-109.98 -2.66,1.07 -300.87,121.47 -567.21,121.47 -320.81,0 -504.82,-202.5 -504.82,-556.34 0,-345.52 168.41,-498.47 581.53,-529.29l431.37 -34.68 0 -104.69c0,-132.52 -78.67,-208.71 -215.83,-208.71 -189,0 -458.68,22.23 -602.46,35.02 -17.94,1.9 -36.17,-3.89 -49.81,-15.86 -13.23,-11.6 -21.56,-28.92 -22.24,-46.77l-8.61 -220.23c-1.35,-33.53 22.57,-62.68 55.41,-67.63 128.61,-20.53 448.68,-67.21 648.61,-67.21 403.85,0 591.84,187.03 591.84,587.95zm-5510.56 -827.98l-145.1 0c-162.08,0 -254.39,12.08 -301.15,21.56l0 685.98c77.43,5.39 226.41,13.33 427.01,11.13 258.72,-2.66 419.16,-140.08 419.16,-358.07 0,-174.33 -104.97,-360.6 -399.91,-360.6zm834.69 1925.89c8.87,20.33 6.86,43.77 -5,62.59 -12.34,18.85 -33,29.98 -55.46,29.98l-307.86 0c-25.99,0 -49.9,-15.47 -60.08,-39.29l-394.31 -887.05c-196.12,-1.35 -366.34,-11.81 -458.23,-18.33l0 878.75c0,36.55 -29.28,65.92 -65.75,65.92l-275.3 0c-36.67,0 -66.18,-29.37 -66.18,-65.92l0 -2225.19c0,-33.62 25.22,-61.81 58.76,-65.48 353.2,-39.94 635.74,-44.1 740.59,-44.1 36.19,0 55.46,0.28 55.46,0.28 677.56,0 819.96,400.16 819.96,735.4 0,280.05 -133.78,482.36 -408.72,618.76l422.12 953.68zm7728.39 -1618.51c-12.14,-16.19 -31.39,-25.51 -52.11,-25.51l-257.32 0c-29.79,0 -55.74,20.03 -63.74,48.84l-345.07 1301.36 -26.54 0 -345.42 -1301.36c-7.69,-28.81 -33.84,-48.84 -63.75,-48.84l-257.04 0c-20.56,0 -39.83,9.32 -52.47,25.51 -12.4,16.28 -16.7,37.2 -11.64,56.69l380.13 1459.37c18.96,72.39 85.87,195.02 218.35,195.02l73.62 0c-6.32,24.3 -13.23,50.49 -20.53,72.86l-3.36 11.07c-20.62,67.27 -51.61,169.03 -239.36,169.03l-328.89 -20.17c-18.57,-1.53 -36.78,5.26 -49.71,18.48 -13.65,13.4 -21.15,31.47 -20.08,50.15l7.99 172.29c1.35,28.95 21.71,53.61 50.26,60.75 96.95,24 281.91,52 434.06,57.82 7.29,0.47 13.9,0.47 20.92,0.47 248.06,0 416.27,-160.55 501.13,-476.48 98.59,-369.92 221.83,-845.99 311.8,-1193.59 40.76,-156.41 75.68,-291.28 101.05,-387.27l49.43 -189.37c5.31,-19.92 0.58,-40.84 -11.75,-57.12zm-6327.38 834.11c0,-388.47 -105.58,-539.45 -375.93,-539.45 -280.2,0 -379.57,141.02 -379.57,539.45 0,361.14 60.41,556.59 379.57,556.59 314.14,0 375.93,-204.07 375.93,-556.59zm403.49 0c0,632.63 -240.45,914.93 -779.42,914.93 -541.66,0 -783.25,-282.3 -783.25,-914.93 0,-623.39 241.59,-901.46 783.25,-901.46 531.69,0 779.42,286.24 779.42,901.46zm1252.35 594.97l11.3 218.27c1.65,32.53 -21.23,61.81 -53.45,67.96 -92.24,17.01 -219.19,37.73 -298.62,37.73 -400.16,0 -521.99,-153.13 -521.99,-654.4l0 -765.83 -153.44 0c-36.5,0 -66.1,-29.62 -66.1,-66.09l0 -226.55c0,-36.5 29.6,-65.68 66.1,-65.68l153.44 0 0 -269.28c0,-30.66 20.58,-57.2 50.06,-64.27l265.07 -64.58c19.6,-4.64 40.25,-0.37 56.16,12.08 15.93,12.73 25.53,31.67 25.53,51.92l0 334.14 403.74 0c36.67,0 65.87,29.18 65.87,65.68l0 226.55c0,36.47 -29.2,66.09 -65.87,66.09l-403.74 0 0 710c0,245.69 8.64,330.77 180.93,330.77 63.52,0 162.81,-4.5 216.29,-7.03 35.5,-0.87 67.15,25.91 68.72,62.52z"/>
  <path class="fil2" d="M15001.07 5363.37c-1270.56,0 -2304.81,-1034.08 -2304.81,-2305.26 0,-1271.05 1034.25,-2304.99 2304.81,-2304.99 1271.07,0 2304.93,1033.94 2304.93,2304.99 0,1271.18 -1033.86,2305.26 -2304.93,2305.26zm3069.02 -2382.52l-0.47 -8.64 -6.72 -3.78c-130.36,-79.18 -301.54,-123.7 -468.79,-127.26 -3.36,-22.2 -24.36,-178.92 -26.94,-201.24 159.96,-45.33 313.29,-132.2 420.74,-243.38l5.62 -5.2 -1.67 -8.53c-7.91,-59.55 -30.6,-142.65 -51.21,-193.02l-3.47 -7.55 -7.89 -2.01c-147.2,-42.03 -323.43,-40.92 -485.15,0 -7.8,-20.81 -67.6,-165.21 -76.19,-185.49 142.51,-86.9 267.5,-210.08 342.49,-343.49l4.17 -6.47 -2.96 -8.3c-21.62,-51.3 -65.03,-125.7 -99.57,-172.74l-4.73 -6.52 -8.89 0c-151.46,-3.27 -320.56,43.16 -469.55,123.4 -13.15,-18.24 -110.23,-144.57 -123.46,-162.13 116.23,-119.8 204.96,-271.67 243.03,-420.13l2.18 -8.36 -5.63 -6.24c-34.62,-45.65 -94.93,-106.84 -140.32,-142.59l-6.21 -4.72 -8.48 1.26c-148.8,37.76 -299.96,126.81 -420.15,242.3 -18.35,-14.01 -144.24,-112.63 -162.51,-127.46 80.22,-141.55 127.29,-305.4 127.29,-456.39 0,-4.23 -0.79,-20.4 -0.79,-20.4l-6.4 -4.92c-46.49,-36.49 -120.11,-78.67 -173.47,-100.38l-7.29 -2.66 -6.83 3.64c-133.59,74.26 -256.15,198.5 -342.1,340.95 -21.5,-8.37 -174.73,-72.72 -194.94,-81.47 20.22,-80.31 32.74,-162.9 32.74,-245.5 0,-83.04 -10.06,-164.9 -32.74,-238.97l-1.9 -7.69 -8.17 -3.21c-50.54,-21.7 -131.43,-43.89 -191.23,-52.51l-8.89 -1.4 -5.43 5.76c-110.39,107.15 -197.24,259.81 -243.1,419.96 -22.8,-3.81 -181.27,-23.47 -205.33,-25.98 -2.18,-165.95 -46.88,-335.95 -125.81,-468.01l-3.94 -7.61 -8.39 -0.31c-57.15,-7.24 -143.76,-7.24 -199.62,0l-8.98 0.31 -3.87 7.61c-78.42,130.7 -122.73,300.58 -125.5,467.51 -23.07,3.02 -184.01,22.68 -207.31,26.49 -45.98,-160.96 -132.99,-314.23 -243.03,-420.83l-6.1 -6.21 -8.98 1.32c-59.32,8.81 -141.29,30.82 -191.81,51.41l-7.72 3.3 -2.94 7.72c-20.84,75.24 -31.97,158.13 -31.97,242.02 0,81 12.92,164.26 31.97,243.64 -20.25,8.67 -174.76,75.21 -195.47,83.57 -86.73,-142.56 -209.46,-267.61 -342.79,-342.84l-7.19 -4.28 -8.39 2.86c-51.21,22.51 -125.41,65.31 -172.26,100.58l-7.29 4.39 0 22.15c0,149.43 46.38,313.87 125.89,456.39 -17.45,14.38 -133.69,105.28 -151.06,119.43 -119.8,-115.79 -271.34,-204.82 -420.72,-243.55l-7.6 -1.53 -5.82 5.45c-45.9,34.37 -107.57,94.79 -142.67,140.52l-5.23 6.63 1.87 8c37.39,148.35 126.48,300.22 242.02,421.03 -12.62,17.76 -113.95,149.6 -127.96,167.9 -144.97,-81.03 -313.68,-128.86 -468.29,-126.7l-7.8 0.39 -5.03 6.89c-33.85,45 -76.55,117.72 -100.05,173.01l-3.36 7.27 4.14 7.52c74.12,132.99 199.43,257.07 342.6,343.97 -7.69,20.42 -66.41,163.45 -75.49,184.23 -164.49,-40.72 -339.82,-41.28 -486.13,1.41l-7.92 2.03 -2.85 7.06c-21.59,51.29 -44,132.16 -52.5,193.1l-0.99 8.33 5.82 6.44c106.87,109.8 260.2,196.62 420.44,241.15 -3.36,22.71 -24.09,180.93 -26.94,202.61 -166.56,3.22 -337.96,47.21 -468.77,125.75l-7.32 4.12 -0.68 8.47c-3.27,28.7 -5.42,64.3 -5.42,100.39 0,35.74 2.15,71.1 5.42,99.57l0.68 8.19 7.32 3.81c130.81,78.31 300.84,123.15 468.37,125.64 3.25,22.91 25.65,185.41 28.51,207.73 -160.71,47.13 -312.87,135.03 -419.74,244.79l-5.7 6.77 0.67 7.41c9.37,60.05 31.38,142.87 52.11,192.68l3.36 7.44 7.6 2.48c148.19,42.35 323.64,40.56 486.45,0 8.28,20.59 71.24,164.55 79.91,185.25 -142.48,85.42 -267.31,208.82 -342.76,342.35l-3.56 7.38 2.85 7.68c21.79,52.34 65.43,126.46 100.25,172.74l5.14 6.58 7.58 0.33c153.05,2.16 322.07,-43.18 468.88,-124.18 13.73,17.23 112.96,146.45 125.92,164.07 -115.26,117.89 -204.76,269.06 -242.83,419.73l-2.07 7.61 4.92 6.66c35.22,45.03 96.1,105.36 140.9,141.86l6.61 5.62 7.88 -2.57c148.61,-36.92 299.39,-125.45 420.75,-241.6 18.35,14.23 146.8,113.02 165.66,127.03 -79.04,144.99 -125.11,310.41 -125.11,460.94l0 16.92 7.58 5.59c44.61,34.01 117.53,75.54 171.98,100.08l7.49 2.65 7.92 -3.83c133.77,-74.65 257.31,-199.96 344.05,-344.22 20.14,8.22 161.13,65.42 181.74,73.64 -20.14,79.49 -31.66,161.44 -31.66,242.19 0,84.66 11.05,167.45 32.56,241.88l1.87 7.97 8.28 2.99c50.62,21.65 132.32,43.86 192.12,53.53l8.86 1.18 5.82 -6.63c110.82,-107.68 197.36,-260.95 240.67,-419.56 23.28,3.75 185.39,26.71 208.1,29.09 3.24,167.48 48.25,337.75 126.67,467.64l3.47 7.13 8.98 1.04c57.53,7.32 143.18,7.32 199.62,0l8.16 -1.04 4.18 -7.13c77.84,-129.89 122.53,-300.44 126.78,-468.57 22.6,-3.16 174.45,-24.41 197.13,-28.16 44.89,161.29 132.02,313.2 242.75,420.77l6.1 5.42 7.41 -0.61c60.47,-9.55 142.47,-30.82 193.57,-51.61l7.21 -3.61 2.58 -7.44c21.5,-75.01 31.27,-157.36 31.27,-241.79 0,-81.81 -11.56,-165.19 -31.27,-245.44 20.81,-7.85 168.12,-71.6 188.65,-80.83 86.82,143.04 210.16,268.31 343.07,343.4l6.61 3.33 7.88 -3.02c52.89,-21.73 127.68,-64.77 173.58,-100.69l6.6 -3.89c0,0 0.51,-17.68 0.51,-22.57 0,-147.37 -46.69,-311.92 -124.13,-456.1 17.37,-13.76 139.01,-108.36 156.38,-122.32 121.39,115.49 272.84,204.18 421.45,242.59l7.88 2.2 6.1 -5.62c45.31,-35.57 106.98,-96.6 142.31,-140.69l5.42 -7.24 -2.76 -7.29c-36.92,-148.16 -125.34,-299.81 -241.15,-420.92 13.42,-17.84 111.6,-146.78 124.91,-165.04 147,80.94 316.05,127.34 468.17,124.07l8.39 0 4.95 -6.13c36.39,-46.41 78.34,-119.01 100.13,-173.95l3.47 -6.94 -4.06 -7.38c-72.6,-130.64 -196.93,-255.05 -339.41,-344.67 8.28,-20.39 66.49,-162.5 75.08,-182.89 161.52,41.56 336.86,42.93 484.37,0l7.22 -2.52 3.24 -7.29c21.7,-51.97 43.61,-132.6 52.89,-192.34l0.78 -8.37 -6.12 -6.35c-106.96,-110.81 -259.31,-196.74 -418.15,-242.24 3.36,-22.21 24.95,-174.56 27.21,-197.05 168.35,-2.91 339.53,-47.74 469.89,-126.45l6.72 -4.2 0.47 -8.79c3.95,-27.71 5.43,-64.07 5.43,-99.77 0,-35.88 -1.48,-71.09 -5.43,-99.12z"/>
  <path class="fil2" d="M16614.51 2436.63c22.91,7.74 32.09,33.22 39.07,58.24 119.91,402.92 119.91,747.56 0,1153.7 -9.65,34.88 -23.78,54.13 -42.31,61.67 -26.66,8.17 -56.05,-11.02 -80.62,-29.17l-784.62 -532.49c-30.09,-20.16 -47.85,-47.57 -47.85,-76.86 0,-28.86 17.37,-56.27 47.85,-77.22l784.62 -531.76c35.42,-25.48 63.16,-33.47 83.86,-26.12zm-287.61 1776.19c-290.69,306.04 -588.28,478.31 -998.06,576.51 -34.71,8.72 -58.7,5.95 -73.59,-6.33 -21.5,-18.04 -18.65,-53.92 -16.47,-85l67.88 -945.55c4.33,-36.78 18.82,-64.55 44.69,-80 25.15,-13.56 57.43,-12.42 89.09,2.83l853.4 413.14c39.86,19.66 61.17,39.04 65.31,60.25 4.18,23.75 -13.19,44.66 -32.25,64.15zm-1327.4 -596.55c-305.59,0 -553.93,-248.38 -553.93,-553.77 0,-186.44 92.94,-359.52 249.12,-462.61 51.32,-34.37 120.78,-19.6 154.81,31.52 33.96,51.64 20.14,121.16 -31.55,155.12 -93.24,61.39 -148.6,164.46 -148.6,275.97 0,181.83 148.3,330.24 330.15,330.24 182.34,0 330.55,-148.41 330.55,-330.24 0,-111.51 -55.36,-215.08 -148.92,-276.28 -51.4,-34.15 -65.42,-103.49 -31.27,-154.95 33.85,-51.15 103.52,-65.75 154.74,-31.8 155.78,103.21 249.12,276.17 249.12,463.03 0,305.4 -248.54,553.77 -554.22,553.77zm-243.13 1180.45c-18.85,15.27 -44.89,10.68 -70.85,4.08 -407.29,-97.22 -706.75,-269.62 -998.03,-576.86 -21.23,-22.01 -31.38,-41.39 -31.38,-58.76 0,-3.14 0,-5.01 0.59,-8.48 4.06,-26.91 36.92,-42.68 64.44,-55.96l853.09 -414c33.25,-15.5 65.51,-16.33 90.57,-1.45 24.66,14.57 40.08,42.26 42.85,78.28l69.17 946.96c2.65,44.97 -3.98,72.49 -20.45,86.21zm-1286.53 -1109.61c-36.92,25.31 -64.24,34.46 -85.17,26.91 -23.27,-8.02 -31.07,-33.56 -38.38,-58.7 -120.69,-402.42 -120.69,-747.62 -1.48,-1153.51 10.35,-34.8 24.95,-53.98 43.42,-60.73 27.32,-9.76 55.93,10.23 81.61,27.86l783.81 533.2c29.62,19.55 46.88,46.96 46.88,76.58 0,28.45 -17.26,55.88 -45.67,76.58l-785.02 531.81zm202.55 -1751.58l0.59 0c291.78,-306.46 590.43,-479.37 998.06,-577.07 25.15,-5.7 52,-10.51 69.95,5.51 17.37,13.54 23.39,41.25 20.14,86.68l-68.97 944.93c-2.07,36.35 -17.18,64.94 -42.83,78.98 -24.77,14.91 -57.22,14.18 -89.61,-1.84l-852.7 -412.89c-27.91,-13.84 -60.27,-28.44 -66.01,-56.61 -2.77,-19.35 6.83,-42.03 31.38,-67.68zm1583.86 -579.27c19.52,-15.86 45.39,-10.83 70.93,-5.49 407.43,98.62 706.58,270.75 998.65,577.6 20.61,21.84 31.88,42.32 31.88,60.39 0,1.7 -0.61,4.55 -0.61,7.16 -6.1,28.08 -37.4,42.87 -65.42,56.24l-852.99 413.11c-33.76,15.91 -65.11,17.45 -89.69,2.18 -25.06,-14.46 -40.76,-42.46 -43.61,-79.12l-68.78 -945.07c-2.85,-45.14 3.36,-72.99 19.64,-87zm-255.17 -325.96c-1117.74,0 -2027.36,909.82 -2027.36,2027.76 0,1118.47 909.62,2028.09 2027.36,2028.09 1118.03,0 2027.98,-909.62 2027.98,-2028.09 0,-1117.94 -909.95,-2027.76 -2027.98,-2027.76z"/>
 </g>
</svg>
