<svg width="39" height="46" viewBox="0 0 39 46" fill="none" xmlns="http://www.w3.org/2000/svg">
<g id="shield 1" clip-path="url(#clip0_1074_14049)">
<path id="Vector" d="M19.3404 44.4603C20.5433 43.2573 23.2379 41.2364 25.8362 40.4184C28.8195 39.5042 36.4701 38.1569 38.2505 30.3138C39.6459 24.1548 36.9994 17.2259 36.7107 14.0983C36.422 11.3556 37.2881 5.14854 37.3843 4.18619C37.5768 2.93515 36.3739 2.45397 35.5559 2.74268C34.2567 3.22385 31.4178 4.13808 28.194 4.18619C24.7295 4.23431 20.4471 1.6841 19.3404 0C18.2337 1.6841 13.9513 4.23431 10.4869 4.18619C7.26301 4.13808 4.4241 3.22385 3.12493 2.74268C2.35506 2.45397 1.15213 2.93515 1.29648 4.18619C1.44083 5.14854 2.25882 11.3556 1.97012 14.0983C1.68142 17.2259 -1.01314 24.1067 0.430372 30.3138C2.21071 38.1569 9.90945 39.5523 12.8446 40.4184C15.4429 41.2364 18.1856 43.2573 19.3404 44.4603Z" fill="#EB2533"/>
<path id="Vector_2" d="M19.3412 43.2093L19.1969 43.0168C17.6571 41.4289 14.5295 39.8411 12.4605 39.3118C6.49395 37.7239 2.93328 35.0294 1.63412 30.9875C0.286841 26.7532 1.2973 22.134 2.11529 18.3808C2.404 16.9854 2.6927 15.6863 2.83705 14.5314C3.17387 11.6925 2.50023 6.11095 2.35588 5.38919C2.21153 4.66743 2.16341 4.18626 2.404 3.94567C2.50023 3.80132 2.64458 3.75321 2.83705 3.75321C3.02952 3.75321 3.2701 3.80132 3.70316 3.94567C4.76174 4.33061 8.08182 5.1486 11.0651 5.05237C13.8559 4.95613 17.1278 3.27203 19.1969 1.58793L19.3412 1.4917L19.4856 1.58793C21.5546 3.22392 24.8266 4.95613 27.6174 5.05237C30.5525 5.1486 33.8726 4.33061 34.9793 3.94567C35.3642 3.80132 35.653 3.75321 35.8454 3.75321C36.0379 3.75321 36.1822 3.80132 36.2785 3.94567C36.4709 4.18626 36.4709 4.66743 36.3266 5.38919C36.1822 6.11095 35.5086 11.6925 35.8454 14.5314C35.9898 15.6863 36.2785 16.9854 36.5672 18.3808C37.3852 22.134 38.4437 26.7532 37.0483 30.9875C35.7492 35.0294 32.1885 37.772 26.222 39.3118C24.2011 39.8411 21.0253 41.4289 19.4856 43.0168L19.3412 43.2093ZM2.88517 4.23438C2.83705 4.23438 2.78893 4.23438 2.78893 4.28249C2.6927 4.42685 2.78893 5.10049 2.83705 5.34107C2.9814 6.06283 3.65504 11.7407 3.31822 14.6277C3.17387 15.7825 2.88517 17.1298 2.54835 18.5252C1.73036 22.2302 0.719895 26.8013 2.01906 30.8913C3.2701 34.7888 6.73454 37.3871 12.5567 38.9268C14.5776 39.4561 17.7053 40.9959 19.3412 42.5838C20.9772 40.9959 24.0567 39.4561 26.1258 38.9268C31.9479 37.3871 35.3642 34.7888 36.6634 30.8913C38.0107 26.8013 37.0002 22.1821 36.1341 18.5252C35.8454 17.1298 35.5086 15.7825 35.3642 14.6277C35.0274 11.7407 35.7011 6.11095 35.8454 5.34107C35.8935 5.10049 36.0379 4.42685 35.8935 4.28249C35.8935 4.28249 35.8454 4.23438 35.7973 4.23438C35.6048 4.23438 35.3161 4.33061 35.0755 4.42685C33.7764 4.90802 30.5044 5.67789 27.5693 5.58166C25.6927 5.53354 22.4207 4.5712 19.3412 2.16534C16.2617 4.61931 12.9898 5.53354 11.1132 5.58166C8.17806 5.67789 4.90609 4.90802 3.60693 4.42685C3.41446 4.33061 3.07764 4.23438 2.88517 4.23438Z" fill="white"/>
<path id="Vector_3" d="M20.4049 5.91853C20.453 6.35158 20.5493 6.78464 20.5011 7.21769C20.3568 6.88087 20.0681 6.54405 19.6831 6.54405C19.2501 6.54405 18.8652 6.88087 18.6246 7.26581C18.5283 7.89133 18.5765 8.51686 18.6727 9.14238C18.9614 9.09426 19.1539 8.80556 19.4426 8.66121C20.0681 8.22815 21.1748 8.56497 21.4635 7.65075L21.5116 7.60263C21.6078 7.84322 21.4635 8.18004 21.3672 8.42062C20.7417 9.52732 19.1539 8.61309 18.6246 9.7679C18.6727 10.5378 18.5283 11.452 18.7208 12.1738C18.8652 12.3181 19.0576 12.27 19.202 12.2219C20.2124 11.9332 20.838 10.9227 21.0785 9.96037H21.1267C21.0785 10.5378 21.0785 11.1633 20.9823 11.7407C19.8275 12.4625 18.6727 13.1361 17.4698 13.7135C18.0472 12.6549 17.6622 11.2595 17.7585 10.0085C17.7103 9.28673 17.7103 8.66121 17.7103 7.89133C17.7103 7.74698 17.566 7.60263 17.4216 7.55451C17.2773 7.5064 17.1329 7.5064 17.0367 7.45828C17.1329 7.31393 17.3254 7.16958 17.5179 7.12146C18.384 6.54405 19.3463 6.111 20.2124 5.62983C20.4049 5.58171 20.3087 5.8223 20.4049 5.91853ZM33.3965 7.93945C33.6852 8.75744 33.3965 9.67167 33.3484 10.5378C33.1078 12.4143 33.0116 14.4834 33.589 16.2637C33.6371 16.4081 33.4447 16.4081 33.3965 16.36C32.9635 16.1194 32.771 15.5901 32.5785 15.157C32.1455 14.2909 31.8568 13.3286 31.3275 12.5106L31.2794 12.6068L31.3275 16.4562C31.3756 16.6005 31.52 16.6487 31.6162 16.7449C31.3275 17.0817 30.8944 17.2261 30.5095 17.4185C30.5095 17.2261 30.6539 17.0817 30.6539 16.8411C30.6539 14.8202 30.6539 12.703 30.5576 10.7784C30.4614 10.4897 30.1246 10.4415 29.884 10.3453C30.2208 10.0566 30.6057 9.86414 30.9907 9.67167C31.135 9.62355 31.2794 9.7679 31.3275 9.86414C31.7124 10.7302 32.0493 11.5964 32.4823 12.4143C32.5304 12.4143 32.5304 12.4143 32.5785 12.3662C32.5785 11.0671 32.8191 9.7679 32.7229 8.42062C32.6748 8.13192 32.1455 8.0838 32.338 7.74698C32.5304 7.60263 32.7229 7.41016 33.0116 7.45828C33.156 7.55451 33.2522 7.7951 33.3965 7.93945ZM16.1225 7.98757C16.0744 8.18004 15.9781 8.3725 15.93 8.56497L15.9781 13.8097C16.0262 13.9541 15.9781 14.0984 16.1225 14.2428L16.3631 14.3871C16.0262 14.6759 15.497 14.9646 15.0158 15.157C15.0158 15.1089 15.0158 15.0127 15.0639 15.0127L15.1601 14.6277L15.112 11.8851C14.9195 11.6926 14.7271 11.9332 14.5346 12.0294C14.1978 12.27 13.7647 12.4143 13.5242 12.703C13.5242 13.5692 13.4279 14.5315 13.5723 15.3976C13.6204 15.5901 13.7647 15.6382 13.9572 15.6863H14.1016C13.6204 16.0712 13.043 16.4081 12.4656 16.6487C12.5618 16.4081 12.658 16.1194 12.7062 15.7825L12.6099 10.6821C12.6099 10.4415 12.3212 10.3453 12.225 10.201C12.658 9.86414 13.1873 9.57543 13.7166 9.33485C13.3317 9.96037 13.6204 10.9708 13.5723 11.7407C13.5723 11.7888 13.6204 11.8369 13.6204 11.8369C14.1497 11.6926 14.5827 11.3077 15.0639 11.0671L15.1601 10.9227V9.09426C15.112 8.94991 15.0158 8.80556 14.8714 8.80556H14.7271C14.7271 8.61309 14.9195 8.66121 15.0158 8.51686C15.3526 8.37251 15.6894 8.03569 16.1225 7.98757ZM11.3589 10.0085C11.5032 10.7784 11.407 11.6926 11.7919 12.3662C11.1664 12.0294 11.3108 11.3077 10.7334 10.9227C10.5409 10.8746 10.4447 11.0189 10.3965 11.1152C10.3484 13.2323 10.4928 15.157 10.5409 17.1779C10.589 17.3223 10.7334 17.3704 10.8296 17.4185H11.0221C10.4447 17.8516 9.77101 18.1403 9.14549 18.4771C9.7229 17.8516 9.43419 16.8411 9.48231 16.0713L9.43419 11.8369C9.38608 11.7407 9.43419 11.5964 9.33796 11.5001C8.80867 11.6445 8.80867 12.27 8.56808 12.703C8.42373 13.3286 8.42373 13.9541 7.89444 14.3871H7.84633C8.3275 13.521 7.89444 12.4143 8.18315 11.5001C9.19361 10.9227 10.2522 10.2491 11.3108 9.71979L11.3589 10.0085ZM29.5472 12.0775C30.317 13.906 30.2208 16.2156 29.4028 17.9959C29.1141 18.429 28.7773 19.0064 28.1999 19.0545C27.7668 19.1026 27.3819 18.9583 27.0451 18.6696C26.179 17.3704 26.0827 15.5901 26.3233 14.0503C26.5639 12.9918 26.9488 11.5482 28.2961 11.3558C28.8735 11.2595 29.2585 11.5964 29.5472 12.0775ZM28.248 11.9813C27.7668 12.1256 27.6225 12.6549 27.5262 13.1361C27.2857 14.6277 27.1413 16.4081 27.5744 17.8035C27.7187 18.0441 27.8631 18.5252 28.248 18.4771C28.7292 18.3328 28.7773 17.8035 28.9216 17.4185C29.2103 15.8788 29.2585 14.0984 28.9698 12.5587C28.7773 12.27 28.5848 11.9813 28.248 11.9813ZM25.9865 12.6068C25.9384 12.8474 25.794 13.1361 25.7459 13.4248V16.5043C25.794 17.5629 25.7459 18.7177 25.8421 19.7282C25.9384 19.8725 25.9865 19.9206 26.1308 20.0169L26.0827 20.065C25.6016 20.4018 25.1204 20.6905 24.6392 20.883C24.8798 20.498 24.9279 19.9206 24.9279 19.3432L24.8798 15.157L24.7836 13.7616C24.7354 13.6173 24.5911 13.521 24.4949 13.4248C24.8798 13.088 25.361 12.9436 25.7459 12.6549C25.8421 12.703 25.8903 12.6068 25.9865 12.6068ZM24.0137 13.9541C24.158 14.724 24.0618 15.542 24.158 16.3118C23.8212 15.8788 23.9656 15.2051 23.3882 14.9164C23.1957 14.8683 23.0513 15.0127 22.9551 15.157L22.907 15.3495V19.247L22.9551 21.316C23.0032 21.5085 23.1957 21.6047 23.3401 21.701C22.9551 22.0378 22.4739 22.3265 21.9447 22.4708L22.089 21.8453V18.4771L22.0409 15.7344C21.9447 15.5901 21.8003 15.5901 21.7041 15.7344C21.2229 16.2156 21.3191 16.9855 20.9823 17.5629H20.9342C20.9823 16.9855 20.9342 16.3118 20.9342 15.7344L20.9823 15.5901C21.9447 15.1089 22.8589 14.4834 23.8212 13.9541C23.9175 13.8097 24.0137 13.8579 24.0137 13.9541ZM18.2396 17.1779C17.999 17.611 17.999 18.0922 17.9028 18.5733L17.6622 19.8244L17.0367 23.3851C16.6999 24.2993 16.8924 25.4541 16.1706 26.1277C16.1706 25.5022 15.9781 24.9729 15.8819 24.4436L14.9195 20.7386C14.8233 20.2574 14.679 19.68 14.1497 19.5357C14.679 19.247 15.1601 18.8139 15.7857 18.6215C15.5451 18.9102 15.6413 19.3432 15.6413 19.68C15.8338 20.6905 16.1225 21.701 16.3631 22.7114C16.4112 22.7114 16.4593 22.7595 16.4593 22.7595C16.6999 21.8934 16.7961 20.9311 16.9405 20.065C16.9886 19.4876 17.2773 18.8139 16.9886 18.2365C16.9405 18.1403 16.8442 18.0922 16.748 18.0922C17.1811 17.7554 17.6622 17.4666 18.1434 17.2261L18.2396 17.1779ZM32.6748 19.9206C32.8191 20.2093 32.8191 20.6424 32.6748 20.9792C32.1936 22.4708 31.5681 23.8662 31.0388 25.3097C31.0388 26.0315 30.9907 26.8976 31.0869 27.6675C31.0869 27.8118 31.2794 27.9081 31.3756 28.0043C30.8944 28.3892 30.317 28.6298 29.8359 28.9666C29.9321 28.6779 30.1246 28.3892 30.1246 28.0524C30.1246 27.1863 30.1246 26.2721 30.0283 25.4541C29.5953 24.5399 29.1622 23.6256 28.6329 22.7114L28.2961 22.4708C28.7773 22.134 29.2585 21.7972 29.8359 21.6047C29.7396 21.9415 29.5472 22.4708 29.7878 22.8077C30.0765 23.3369 30.2208 23.8662 30.5576 24.3955C30.702 24.4436 30.702 24.2512 30.7982 24.1549C31.135 23.0001 31.7606 22.0378 31.9049 20.8348C31.9049 20.4018 31.7124 20.0169 31.3275 19.8725C31.2794 19.8244 31.3275 19.7282 31.3756 19.68C31.6643 19.4876 32.0974 19.4876 32.3861 19.68C32.5785 19.6319 32.6267 19.8244 32.6748 19.9206ZM13.1392 21.6528C13.1392 23.2888 13.1392 24.9248 13.2354 26.6089C13.2836 26.7533 13.2836 26.8976 13.4279 26.9457C13.6204 26.9938 13.7166 26.8976 13.861 26.8014C14.4865 26.1759 14.1497 25.0692 14.8714 24.4918H15.0158C14.8233 25.021 14.7752 25.6466 14.8233 26.2721C14.7752 26.4646 14.8233 26.657 14.7752 26.8495C14.0053 27.3788 13.1392 27.8118 12.3693 28.293L12.3212 28.2449L12.3693 27.4269L12.3212 23.2407L12.2731 21.4604C12.1769 21.1717 11.8882 21.0273 11.6476 21.0273C12.225 20.6905 12.8024 20.2574 13.4279 20.0169C13.0911 20.4499 13.1873 21.0754 13.1392 21.6528ZM27.5262 22.9039C27.5262 23.1926 27.3819 23.4813 27.3819 23.77V26.1759L27.4781 29.7846C27.5262 29.929 27.6706 30.0733 27.8149 30.1696C27.43 30.4583 26.997 30.6989 26.5639 30.8913C26.7083 30.5064 26.612 30.1215 26.612 29.6884L26.5158 26.4164C26.4677 26.3683 26.4677 26.4164 26.4195 26.4164C26.0827 27.2825 25.8421 28.1968 25.5534 29.0629C25.361 29.0148 25.2647 28.7742 25.2166 28.6298C24.9279 28.1968 24.7836 27.7637 24.4467 27.3307C24.3505 27.3307 24.3024 27.3307 24.3024 27.4269C24.3505 28.8704 24.2543 30.1696 24.3986 31.6131C24.4949 31.7574 24.6392 31.8056 24.7354 31.9499C24.3505 32.2867 23.8212 32.5273 23.3882 32.7198C23.4844 32.4311 23.6288 32.0943 23.6288 31.7093L23.5806 28.6779L23.4844 26.0796C23.4363 25.839 23.1476 25.6947 22.907 25.5984C23.2438 25.3579 23.5806 25.021 24.0137 24.9729C24.4467 25.6947 24.8317 26.3683 25.2647 27.0901C25.4091 27.1382 25.4091 26.9457 25.4572 26.8976C25.7459 25.7428 26.0827 24.6361 26.4677 23.4813C26.8045 23.2407 27.1413 23.0482 27.5262 22.9039ZM7.41327 23.7219C6.9321 24.3955 7.02833 25.5022 7.26892 26.224C6.98022 26.224 6.78775 25.9353 6.59528 25.7428C6.49905 25.7428 6.25846 25.7909 6.21034 25.6947C6.35469 25.5022 6.40281 25.3097 6.40281 25.1173C6.35469 24.8286 6.25846 24.5399 5.96976 24.3955C5.5367 24.203 5.00741 24.2512 4.62248 24.4918C4.33377 24.7805 4.09319 25.1654 4.28566 25.5984C4.86306 26.8976 6.49905 27.2825 7.17269 28.5817C7.55762 29.5441 7.46139 30.7951 6.83587 31.6131C6.25846 32.2386 5.48859 32.6717 4.52624 32.4792C3.94884 32.383 3.41955 31.9018 3.22708 31.3244C3.08273 30.747 3.2752 30.2177 3.70825 29.929C3.99695 29.7365 4.47813 29.7365 4.76683 29.929C4.91118 30.0252 4.9593 30.1696 5.00741 30.362C4.91118 30.5064 4.76683 30.362 4.67059 30.4102C4.52624 30.5064 4.33377 30.6026 4.28566 30.7951C4.28566 31.0357 4.23754 31.2282 4.38189 31.3725C4.62248 31.7093 5.00741 31.8056 5.39235 31.7093C5.92164 31.565 6.45093 31.0357 6.54716 30.4583C6.78775 28.293 3.94884 27.9562 3.51578 26.1277C3.32331 25.2616 3.61202 24.4436 4.28566 23.9625C4.9593 23.5294 5.87352 23.5294 6.59528 23.8662C6.83587 23.6738 7.17269 23.5294 7.46139 23.5775L7.41327 23.7219ZM10.2522 21.3641C10.0597 21.5566 10.0597 21.8453 10.0597 22.0859C10.6371 24.0106 11.1183 25.9834 11.6476 27.9562C11.6957 28.1487 11.9363 28.293 11.9363 28.5336C11.4551 28.8223 10.9739 29.111 10.4447 29.3035C10.8296 28.7261 10.589 28.1005 10.3965 27.475C10.3003 27.1382 10.1559 27.1863 10.0116 27.2825C9.77101 27.3788 9.48231 27.5713 9.33796 27.6194C9.14549 27.7156 9.09737 28.0043 9.04925 28.1968C8.95302 28.5817 8.56808 29.5922 9.19361 29.8809C9.28984 29.8809 9.33796 29.929 9.38608 29.8809C8.9049 30.362 8.13503 30.6507 7.55762 30.9876C7.60574 30.6989 7.79821 30.5064 7.89444 30.2658C8.42373 27.7156 8.80867 25.0692 9.28984 22.4708C9.57854 22.0859 9.7229 21.5085 10.2522 21.3641ZM9.86725 24.203L9.7229 24.2512C9.57854 25.0692 9.33796 26.0796 9.33796 26.8976C9.62666 26.7533 9.96348 26.657 10.2041 26.3683L9.86725 24.203Z" fill="white"/>
<path id="Vector_4" d="M22.6652 27.7637C23.0501 28.5817 22.8095 29.5921 22.3284 30.3139C22.1359 30.6988 21.4622 30.7951 21.6066 31.3244C21.8953 32.431 22.184 33.5859 23.1945 34.3076C23.435 34.452 23.7719 34.452 24.0606 34.4039C24.0125 34.6444 23.7238 34.7888 23.4832 34.8369C22.2321 34.885 21.5585 33.5377 21.0773 32.6235C20.933 32.1905 20.7405 31.7093 20.5961 31.2762L20.4999 31.18L20.4037 31.2762C20.4037 32.1905 20.4518 33.1528 20.4037 34.067C20.4518 34.2595 20.6924 34.2114 20.6924 34.3557C20.3074 34.6444 19.8744 34.885 19.3932 35.0775C19.5857 34.2595 19.3451 33.3934 19.4413 32.5273C19.3932 31.1319 19.3932 29.6403 19.3451 28.1967C19.297 28.0524 19.1526 27.9562 19.0083 27.908H18.8158C19.0564 27.6193 19.4413 27.4269 19.8263 27.1863C20.4518 26.8495 21.366 26.6089 22.0397 27.0419C22.2802 27.2344 22.5208 27.5231 22.6652 27.7637ZM20.8848 27.5231C20.6924 27.5231 20.4518 27.6675 20.4037 27.8599C20.3074 28.7741 20.4037 29.7365 20.4037 30.6507C20.4518 30.7951 20.5961 30.7951 20.6924 30.7951C21.0292 30.7951 21.3179 30.5064 21.5104 30.2658C21.7991 29.4959 21.9915 28.4373 21.5104 27.7156C21.366 27.5712 21.1254 27.5231 20.8848 27.5231ZM17.8053 31.8055L18.5752 35.1256C18.5752 35.27 18.7677 35.4143 18.8639 35.4624C18.479 35.7992 18.0459 35.9917 17.661 36.1361C17.8535 35.5105 17.5648 34.885 17.4204 34.3076C17.3723 34.1151 17.1317 34.2114 17.0355 34.3076C16.5543 34.5001 16.0731 34.7407 15.6882 35.0775C15.592 35.703 15.3995 36.3767 15.4476 37.0022C15.5438 37.1465 15.6882 37.2428 15.8325 37.1946V37.2909C15.2551 37.6758 14.7258 38.0126 14.1484 38.2532C14.1966 38.0608 14.389 37.9164 14.4853 37.6758C14.9183 36.5691 15.0627 35.3181 15.2551 34.1633C15.5438 32.4792 15.9288 30.8432 16.1694 29.2072C16.3618 28.726 16.5062 28.1967 16.9392 27.8599C17.0836 29.2072 17.5166 30.4582 17.8053 31.8055ZM16.5062 30.8432L16.3618 31.18C16.2175 32.1423 15.9769 33.1047 15.9288 34.067C16.3618 34.0189 16.7468 33.7302 17.1317 33.4896C17.1798 33.3453 17.1798 33.2972 17.1317 33.1528C16.8911 32.3829 16.7949 31.5649 16.5062 30.8432Z" fill="white"/>
<path id="Vector_5" d="M21.0234 44.6046C21.0234 43.8347 21.649 43.2573 22.4188 43.2573C23.1887 43.2573 23.8142 43.8347 23.8142 44.6046C23.8142 45.4226 23.1887 46 22.4188 46C21.6971 46 21.0234 45.4226 21.0234 44.6046ZM22.4188 45.7594C23.0444 45.7594 23.5255 45.2782 23.5255 44.6046C23.5255 43.9791 23.0444 43.4498 22.4188 43.4498C21.7933 43.4498 21.3121 43.931 21.3121 44.6046C21.3121 45.2782 21.7933 45.7594 22.4188 45.7594ZM22.1301 45.4226H21.8895V43.8347H22.5151C22.9 43.8347 23.0925 43.9791 23.0925 44.2678C23.0925 44.5565 22.9 44.6527 22.6594 44.7008L23.0925 45.3745H22.8038L22.3707 44.7008H22.082L22.1301 45.4226ZM22.4188 44.5084C22.6113 44.5084 22.8038 44.5084 22.8038 44.2678C22.8038 44.0753 22.6113 44.0272 22.467 44.0272H22.1301V44.5084H22.4188Z" fill="#EB2533"/>
<path id="Vector_6" d="M20.547 19.2951C20.8357 20.3055 20.9801 21.4122 21.3169 22.4227C21.365 22.5671 21.6056 22.6152 21.6056 22.7595C21.1725 23.0963 20.7395 23.3369 20.2583 23.5294C20.3064 23.2407 20.4027 22.8076 20.3545 22.4227L20.2102 21.7009C20.1621 21.5566 20.0177 21.6528 19.9215 21.6528C19.6328 21.9415 19.1516 21.9896 18.9591 22.3746C18.9591 22.9039 18.6704 23.3369 18.7667 23.9143C18.8629 24.1068 19.1035 24.1068 19.3441 24.1068C18.7186 24.4436 18.1893 24.8767 17.5156 25.1654C18.2374 23.5294 18.2855 21.6528 18.7186 19.9206C19.1035 18.5252 19.0554 16.9373 19.7771 15.6863L19.8734 15.6382C19.7771 16.8892 20.3545 18.044 20.547 19.2951ZM19.6809 18.6214L19.5365 18.6696C19.3922 19.4876 19.1516 20.498 19.1516 21.316C19.4403 21.1717 19.7771 21.0754 20.0177 20.7867L19.6809 18.6214Z" fill="white"/>
</g>
<defs>
<clipPath id="clip0_1074_14049">
<rect width="38.6381" height="46" fill="white"/>
</clipPath>
</defs>
</svg>
