<svg width="34" height="32" viewBox="0 0 34 32" fill="none" xmlns="http://www.w3.org/2000/svg">
<path d="M23.6736 11.3262L18.5069 2.20527C18.1129 1.50967 17.8407 0.764352 17.6895 0L17.4737 0.381168C16.1949 2.63884 16.1949 5.41989 17.4735 7.67756L21.6071 14.9746C22.8857 17.2321 22.8857 20.0136 21.6071 22.2712L21.3911 22.6524C21.2399 21.8881 20.9677 21.1427 20.5737 20.4472L14.3736 9.50189C13.9796 8.80629 13.7076 8.06097 13.5562 7.29662L13.3404 7.67779C12.066 9.92785 12.062 12.6979 13.3279 14.9516L17.4737 22.2712C18.7526 24.5287 18.7526 27.3102 17.4737 29.5679L17.2577 29.949C17.1066 29.1847 16.8343 28.4394 16.4404 27.744L11.2739 18.6228C10.5808 17.3996 10.2642 16.0225 10.3222 14.6582C4.7912 16.1311 0.973633 19.2584 0.973633 22.8793C0.973633 27.9164 8.36092 32 17.4737 32C26.5863 32 33.9736 27.9164 33.9736 22.8793C33.9736 19.2582 30.1565 16.13 24.625 14.6573C24.576 13.5042 24.2594 12.3602 23.6736 11.3262Z" fill="#EC0000"/>
</svg>
