<svg id="Ebene_1" data-name="Ebene 1" xmlns="http://www.w3.org/2000/svg" xmlns:xlink="http://www.w3.org/1999/xlink" viewBox="0 0 530.49 183.33"><defs><style>.cls-1{fill:#023c59;}.cls-2{fill:#f6a500;}.cls-3{fill:url(#Neues_Verlaufsfeld_3);}.cls-4{fill:url(#Neues_Verlaufsfeld_3-2);}.cls-5{fill:#005d8c;}.cls-6{fill:url(#linear-gradient);}.cls-7{fill:url(#Neues_Verlaufsfeld_3-3);}.cls-8{fill:url(#linear-gradient-2);}.cls-11,.cls-12,.cls-13,.cls-14,.cls-18,.cls-20,.cls-21,.cls-22,.cls-26,.cls-9{opacity:0.6;}.cls-9{fill:url(#linear-gradient-3);}.cls-10{fill:url(#Neues_Verlaufsfeld_3-4);}.cls-11{fill:url(#linear-gradient-4);}.cls-12{fill:url(#linear-gradient-5);}.cls-13{fill:url(#linear-gradient-6);}.cls-14{fill:url(#linear-gradient-7);}.cls-15{fill:url(#Neues_Verlaufsfeld_3-5);}.cls-16{fill:url(#Neues_Verlaufsfeld_3-6);}.cls-17{fill:url(#Neues_Verlaufsfeld_3-7);}.cls-18{fill:url(#linear-gradient-8);}.cls-19{fill:url(#Neues_Verlaufsfeld_3-8);}.cls-20{fill:url(#linear-gradient-9);}.cls-21{fill:url(#linear-gradient-10);}.cls-22{fill:url(#linear-gradient-11);}.cls-23{fill:url(#Neues_Verlaufsfeld_3-9);}.cls-24{fill:url(#Neues_Verlaufsfeld_3-10);}.cls-25{fill:url(#Neues_Verlaufsfeld_3-11);}.cls-26{fill:url(#linear-gradient-12);}</style><linearGradient id="Neues_Verlaufsfeld_3" x1="19.61" y1="77.89" x2="-4.07" y2="16.86" gradientUnits="userSpaceOnUse"><stop offset="0.25" stop-color="#088bcc"/><stop offset="0.83" stop-color="#00679b"/><stop offset="0.98" stop-color="#023c59"/></linearGradient><linearGradient id="Neues_Verlaufsfeld_3-2" x1="21.68" y1="90.31" x2="62.98" y2="49.02" xlink:href="#Neues_Verlaufsfeld_3"/><linearGradient id="linear-gradient" x1="110.32" y1="89.88" x2="153.78" y2="89.88" gradientUnits="userSpaceOnUse"><stop offset="0.01" stop-color="#ffec00"/><stop offset="0.74" stop-color="#ffd400"/></linearGradient><linearGradient id="Neues_Verlaufsfeld_3-3" x1="81.61" y1="112.62" x2="57.93" y2="51.59" xlink:href="#Neues_Verlaufsfeld_3"/><linearGradient id="linear-gradient-2" x1="110.32" y1="79.11" x2="153.78" y2="79.11" xlink:href="#linear-gradient"/><linearGradient id="linear-gradient-3" x1="134" y1="85.49" x2="153.43" y2="55.74" gradientUnits="userSpaceOnUse"><stop offset="0.01" stop-color="#fff"/><stop offset="0.98" stop-color="#fff" stop-opacity="0.2"/></linearGradient><linearGradient id="Neues_Verlaufsfeld_3-4" x1="89.23" y1="109.67" x2="65.55" y2="48.64" xlink:href="#Neues_Verlaufsfeld_3"/><linearGradient id="linear-gradient-4" x1="80.85" y1="50.79" x2="100.28" y2="21.03" xlink:href="#linear-gradient-3"/><linearGradient id="linear-gradient-5" x1="59.3" y1="31.05" x2="78.73" y2="1.29" xlink:href="#linear-gradient-3"/><linearGradient id="linear-gradient-6" x1="74.66" y1="41.07" x2="94.09" y2="11.32" xlink:href="#linear-gradient-3"/><linearGradient id="linear-gradient-7" x1="75.55" y1="41.66" x2="94.99" y2="11.9" xlink:href="#linear-gradient-3"/><linearGradient id="Neues_Verlaufsfeld_3-5" x1="60.92" y1="32.38" x2="96.75" y2="1.41" xlink:href="#Neues_Verlaufsfeld_3"/><linearGradient id="Neues_Verlaufsfeld_3-6" x1="58.45" y1="29.52" x2="94.28" y2="-1.45" xlink:href="#Neues_Verlaufsfeld_3"/><linearGradient id="Neues_Verlaufsfeld_3-7" x1="67.45" y1="39.93" x2="103.28" y2="8.96" xlink:href="#Neues_Verlaufsfeld_3"/><linearGradient id="linear-gradient-8" x1="77.99" y1="43.25" x2="97.42" y2="13.49" xlink:href="#linear-gradient-3"/><linearGradient id="Neues_Verlaufsfeld_3-8" x1="61.27" y1="32.79" x2="97.1" y2="1.82" xlink:href="#Neues_Verlaufsfeld_3"/><linearGradient id="linear-gradient-9" x1="67.6" y1="36.7" x2="87.17" y2="6.74" xlink:href="#linear-gradient-3"/><linearGradient id="linear-gradient-10" x1="95.25" y1="62.32" x2="114.68" y2="32.56" xlink:href="#linear-gradient-3"/><linearGradient id="linear-gradient-11" x1="37.31" y1="16.68" x2="56.74" y2="-13.07" xlink:href="#linear-gradient-3"/><linearGradient id="Neues_Verlaufsfeld_3-9" x1="40.36" y1="16.56" x2="57.36" y2="-4.69" xlink:href="#Neues_Verlaufsfeld_3"/><linearGradient id="Neues_Verlaufsfeld_3-10" x1="92.03" y1="58.49" x2="109.04" y2="37.24" xlink:href="#Neues_Verlaufsfeld_3"/><linearGradient id="Neues_Verlaufsfeld_3-11" x1="92.14" y1="58.58" x2="109.14" y2="37.32" xlink:href="#Neues_Verlaufsfeld_3"/><linearGradient id="linear-gradient-12" x1="92.61" y1="60.67" x2="112.34" y2="30.46" xlink:href="#linear-gradient-3"/></defs><polygon class="cls-1" points="21.98 43.78 20.25 53.39 27.4 55.01 28.52 56.47 17.56 63.39 13.91 76.27 8.34 68.96 1.02 72.04 0.15 70.57 6.8 61.27 5.45 52.43 14.1 52.43 20.87 42.48 21.98 43.78"/><polygon class="cls-1" points="57.23 52.88 55.1 51.13 45.12 60.96 34.55 58.07 34.55 70.38 23.22 79.67 25.12 81.72 37.43 80.57 41.52 90.68 43.58 92.87 49.73 78.64 64.73 74.61 53.77 65.77 57.23 52.88"/><polygon class="cls-2" points="100.97 31.42 100.17 29.08 85.97 35.84 74.63 30.46 74.63 40.65 61.46 47.07 62.13 49.49 75.2 51.61 79.43 65.45 89.24 53.34 105.58 52.57 104.72 50.2 96.16 43.34 100.97 31.42"/><polygon class="cls-1" points="35.63 21.72 34.59 21.17 28.33 22.68 28.14 17.68 27.17 17.13 19.87 25.95 11.98 29.22 14.87 31.91 8.04 41.27 8.91 41.91 17.95 35.56 23.71 38.25 26.41 29.22 35.63 21.72"/><polygon class="cls-3" points="20.96 42.3 19.23 51.91 27.49 54.99 16.54 61.91 12.88 74.79 7.31 67.48 0 70.56 5.77 59.79 4.43 50.95 13.07 50.95 20.96 42.3"/><polygon class="cls-4" points="55.18 50.95 43.07 59.02 32.49 56.14 32.49 68.44 23.07 79.79 35.38 78.63 41.53 90.94 47.68 76.71 62.68 72.67 51.72 63.83 55.18 50.95"/><path class="cls-5" d="M157.48,158.65a16.89,16.89,0,0,1-1.62,7.59,15.58,15.58,0,0,1-4.37,5.45A18.92,18.92,0,0,1,145,175a27.61,27.61,0,0,1-7.89,1.1,28.29,28.29,0,0,1-5.28-.46,31.09,31.09,0,0,1-4.31-1.13,18.94,18.94,0,0,1-3.11-1.38,8.88,8.88,0,0,1-1.81-1.27,3.13,3.13,0,0,1-.78-1.59,14.12,14.12,0,0,1-.24-3c0-.88,0-1.61.09-2.21a6.43,6.43,0,0,1,.28-1.44,1.49,1.49,0,0,1,.5-.78,1.22,1.22,0,0,1,.75-.24,3.6,3.6,0,0,1,1.67.7,29.81,29.81,0,0,0,2.78,1.55,25,25,0,0,0,4.05,1.55,19.1,19.1,0,0,0,5.46.7,12.38,12.38,0,0,0,3.64-.49,7.93,7.93,0,0,0,2.74-1.38,5.88,5.88,0,0,0,1.72-2.2,7.17,7.17,0,0,0,.59-2.93,5.15,5.15,0,0,0-1-3.21,9.89,9.89,0,0,0-2.65-2.37,27.82,27.82,0,0,0-3.71-1.95c-1.39-.61-2.81-1.25-4.28-1.93a37.81,37.81,0,0,1-4.29-2.32,17.23,17.23,0,0,1-3.71-3.09,14.4,14.4,0,0,1-2.65-4.27,15.33,15.33,0,0,1-1-5.89,15.68,15.68,0,0,1,1.46-6.94,14.2,14.2,0,0,1,4-5,16.63,16.63,0,0,1,5.85-3,26.19,26.19,0,0,1,11.05-.68,26.56,26.56,0,0,1,3.65.8,21.24,21.24,0,0,1,3,1.15,7,7,0,0,1,1.73,1.06,2.87,2.87,0,0,1,.58.72,3.35,3.35,0,0,1,.25.79,8.24,8.24,0,0,1,.15,1.23c0,.49,0,1.11,0,1.84s0,1.52-.06,2.08a7.45,7.45,0,0,1-.21,1.4,1.63,1.63,0,0,1-.43.81,1,1,0,0,1-.74.25,3.56,3.56,0,0,1-1.48-.59c-.68-.4-1.52-.83-2.51-1.3a24.38,24.38,0,0,0-3.43-1.27,15.3,15.3,0,0,0-4.29-.57,10.39,10.39,0,0,0-3.18.44,6.66,6.66,0,0,0-2.27,1.23,5,5,0,0,0-1.36,1.89,6.16,6.16,0,0,0-.44,2.34,5.17,5.17,0,0,0,1,3.16,9.59,9.59,0,0,0,2.68,2.37,26.78,26.78,0,0,0,3.79,1.95q2.13.91,4.33,1.94a40.18,40.18,0,0,1,4.33,2.31,17.32,17.32,0,0,1,3.77,3.09,14.42,14.42,0,0,1,2.68,4.25A14.81,14.81,0,0,1,157.48,158.65Z" transform="translate(-48.99 -39.78)"/><path class="cls-5" d="M202.24,166.79c0,.71,0,1.31-.07,1.8a7.94,7.94,0,0,1-.19,1.28,3.46,3.46,0,0,1-.34.91,4.08,4.08,0,0,1-.68.87,8.44,8.44,0,0,1-1.8,1.25,21.3,21.3,0,0,1-3.27,1.47,28.63,28.63,0,0,1-4.41,1.16,29.06,29.06,0,0,1-5.36.47,28.29,28.29,0,0,1-10.19-1.74,20.1,20.1,0,0,1-7.72-5.2,23.18,23.18,0,0,1-4.88-8.63,38.77,38.77,0,0,1-1.7-12.05A38.26,38.26,0,0,1,163.5,136a26,26,0,0,1,5.22-9.12,21.63,21.63,0,0,1,8-5.6,27,27,0,0,1,10.33-1.91,24.29,24.29,0,0,1,4.41.38,27.49,27.49,0,0,1,3.93,1,20.24,20.24,0,0,1,3.24,1.43,9.2,9.2,0,0,1,2,1.38,4.79,4.79,0,0,1,.78,1,3.11,3.11,0,0,1,.34,1,9.5,9.5,0,0,1,.19,1.4c.05.53.07,1.2.07,2s0,1.57-.09,2.16a5.43,5.43,0,0,1-.29,1.45,2.21,2.21,0,0,1-.51.8,1,1,0,0,1-.68.26,2.9,2.9,0,0,1-1.61-.75,29.69,29.69,0,0,0-2.53-1.65,20.62,20.62,0,0,0-3.69-1.66,15.79,15.79,0,0,0-5.11-.74,12.09,12.09,0,0,0-10.21,5.16,17.83,17.83,0,0,0-2.73,6,34.77,34.77,0,0,0,.06,16.31,16.25,16.25,0,0,0,2.84,5.84,11.57,11.57,0,0,0,4.46,3.41,14.7,14.7,0,0,0,5.87,1.13,17,17,0,0,0,5.14-.7,22.31,22.31,0,0,0,3.71-1.55q1.55-.85,2.55-1.53a3.18,3.18,0,0,1,1.54-.68,1.22,1.22,0,0,1,.68.17,1.35,1.35,0,0,1,.43.68,6.45,6.45,0,0,1,.25,1.42C202.21,165,202.24,165.77,202.24,166.79Z" transform="translate(-48.99 -39.78)"/><path class="cls-5" d="M251.37,173.58a1.14,1.14,0,0,1-.28.76,1.92,1.92,0,0,1-.91.56,8.66,8.66,0,0,1-1.7.33,21.76,21.76,0,0,1-2.67.13,22.84,22.84,0,0,1-2.73-.13,8.22,8.22,0,0,1-1.7-.33,2,2,0,0,1-.89-.56,1.14,1.14,0,0,1-.28-.76V151.39H219.68v22.19a1.23,1.23,0,0,1-.26.76,1.8,1.8,0,0,1-.89.56,8.66,8.66,0,0,1-1.7.33,22.25,22.25,0,0,1-2.71.13,22.63,22.63,0,0,1-2.7-.13,8.63,8.63,0,0,1-1.71-.33,2,2,0,0,1-.92-.56,1.18,1.18,0,0,1-.27-.76V121.73a1.2,1.2,0,0,1,.27-.76,1.93,1.93,0,0,1,.92-.55,8.53,8.53,0,0,1,1.71-.34,22.63,22.63,0,0,1,2.7-.13,22.25,22.25,0,0,1,2.71.13,8.56,8.56,0,0,1,1.7.34,1.73,1.73,0,0,1,.89.55,1.25,1.25,0,0,1,.26.76v20.16h20.53V121.73a1.15,1.15,0,0,1,.28-.76,1.86,1.86,0,0,1,.89-.55,8.12,8.12,0,0,1,1.7-.34,22.84,22.84,0,0,1,2.73-.13,21.76,21.76,0,0,1,2.67.13,8.56,8.56,0,0,1,1.7.34,1.84,1.84,0,0,1,.91.55,1.15,1.15,0,0,1,.28.76Z" transform="translate(-48.99 -39.78)"/><path class="cls-5" d="M304.83,171a15.27,15.27,0,0,1,.64,2.42,1.46,1.46,0,0,1-.34,1.33,2.82,2.82,0,0,1-1.66.56c-.79.07-1.88.1-3.26.1s-2.57,0-3.38-.06A7.94,7.94,0,0,1,295,175a1.59,1.59,0,0,1-.89-.53,3,3,0,0,1-.43-.89l-3.69-11H269.36l-3.48,10.74a3.48,3.48,0,0,1-.44,1,1.87,1.87,0,0,1-.89.64,6.86,6.86,0,0,1-1.74.32c-.75.05-1.74.08-2.95.08a27,27,0,0,1-3.06-.13,2.27,2.27,0,0,1-1.52-.61,1.63,1.63,0,0,1-.3-1.38,13.75,13.75,0,0,1,.64-2.38l16.92-48.7a4.25,4.25,0,0,1,.6-1.17,2.06,2.06,0,0,1,1.08-.68,8.71,8.71,0,0,1,2.06-.29c.87,0,2-.07,3.48-.07,1.66,0,3,0,4,.07a11,11,0,0,1,2.32.29,2.22,2.22,0,0,1,1.18.7,4.13,4.13,0,0,1,.62,1.28Zm-25.2-40.26h0L271.82,154h15.57Z" transform="translate(-48.99 -39.78)"/><path class="cls-5" d="M352.1,154.66a25.71,25.71,0,0,1-1.49,9,17.68,17.68,0,0,1-4.37,6.75,19,19,0,0,1-7.12,4.2,30.37,30.37,0,0,1-9.76,1.44,31,31,0,0,1-9.29-1.29,17.86,17.86,0,0,1-7-3.93,17,17,0,0,1-4.35-6.55,25.47,25.47,0,0,1-1.51-9.19V121.73a1.25,1.25,0,0,1,.26-.76,1.75,1.75,0,0,1,.91-.55,9.13,9.13,0,0,1,1.72-.34,28,28,0,0,1,5.39,0,8.59,8.59,0,0,1,1.69.34,1.93,1.93,0,0,1,.92.55,1.2,1.2,0,0,1,.27.76v32.42a17.71,17.71,0,0,0,.81,5.66,10.41,10.41,0,0,0,2.31,4,9.46,9.46,0,0,0,3.61,2.35,13.13,13.13,0,0,0,4.68.79,12.85,12.85,0,0,0,4.71-.81,9.36,9.36,0,0,0,3.53-2.35,10.57,10.57,0,0,0,2.22-3.82,15.52,15.52,0,0,0,.79-5.15V121.73a1.24,1.24,0,0,1,.25-.76,1.77,1.77,0,0,1,.89-.55,8.8,8.8,0,0,1,1.72-.34,22.52,22.52,0,0,1,2.7-.13,21.51,21.51,0,0,1,2.65.13,8.51,8.51,0,0,1,1.67.34,1.73,1.73,0,0,1,.89.55,1.25,1.25,0,0,1,.26.76Z" transform="translate(-48.99 -39.78)"/><path class="cls-5" d="M424.52,173.58a1.26,1.26,0,0,1-.23.76,1.66,1.66,0,0,1-.85.56,8.12,8.12,0,0,1-1.63.33,20.46,20.46,0,0,1-2.59.13,19.82,19.82,0,0,1-2.54-.13,7.85,7.85,0,0,1-1.62-.33,1.86,1.86,0,0,1-.85-.56,1.22,1.22,0,0,1-.25-.76V128.9h-.08L398,173.54a2,2,0,0,1-.55.91,2.64,2.64,0,0,1-1,.57,6.78,6.78,0,0,1-1.67.28q-1,.06-2.46.06c-1,0-1.78,0-2.46-.1a8.37,8.37,0,0,1-1.68-.34,3.19,3.19,0,0,1-1-.58,1.67,1.67,0,0,1-.51-.8L371.19,128.9h-.08v44.68a1.34,1.34,0,0,1-.23.76,1.73,1.73,0,0,1-.87.56,8.72,8.72,0,0,1-1.64.33,19.84,19.84,0,0,1-2.56.13,20.1,20.1,0,0,1-2.55-.13,8.12,8.12,0,0,1-1.63-.33,1.66,1.66,0,0,1-.85-.56,1.27,1.27,0,0,1-.24-.76V124.66a4.51,4.51,0,0,1,1.15-3.31,4.14,4.14,0,0,1,3.06-1.14H372a14.81,14.81,0,0,1,3.35.32,6.35,6.35,0,0,1,2.42,1.06,5.88,5.88,0,0,1,1.7,2,14,14,0,0,1,1.19,3l11.88,32.71h.17l12.3-32.63a17.56,17.56,0,0,1,1.21-3,7,7,0,0,1,1.53-2,5,5,0,0,1,2-1.08,10.47,10.47,0,0,1,2.76-.32h7.51a6,6,0,0,1,2,.29,3.33,3.33,0,0,1,1.36.87,3.88,3.88,0,0,1,.81,1.4,6.16,6.16,0,0,1,.27,1.89Z" transform="translate(-48.99 -39.78)"/><path class="cls-5" d="M476.25,171a14,14,0,0,1,.63,2.42,1.43,1.43,0,0,1-.33,1.33,2.85,2.85,0,0,1-1.66.56c-.79.07-1.88.1-3.27.1s-2.56,0-3.37-.06a7.94,7.94,0,0,1-1.84-.26,1.62,1.62,0,0,1-.9-.53,2.73,2.73,0,0,1-.42-.89l-3.69-11H440.78l-3.48,10.74a3.48,3.48,0,0,1-.44,1,1.9,1.9,0,0,1-.9.64,6.86,6.86,0,0,1-1.74.32c-.75.05-1.73.08-2.94.08a26.9,26.9,0,0,1-3.06-.13,2.32,2.32,0,0,1-1.53-.61,1.66,1.66,0,0,1-.29-1.38,13.55,13.55,0,0,1,.63-2.38L444,122.16a4.25,4.25,0,0,1,.6-1.17,2.06,2.06,0,0,1,1.08-.68,8.71,8.71,0,0,1,2.06-.29c.87,0,2-.07,3.47-.07,1.67,0,3,0,4,.07a10.85,10.85,0,0,1,2.31.29,2.21,2.21,0,0,1,1.19.7,4.13,4.13,0,0,1,.62,1.28Zm-25.2-40.26H451L443.24,154h15.57Z" transform="translate(-48.99 -39.78)"/><path class="cls-5" d="M525.72,171.2a4.16,4.16,0,0,1-.34,1.74,3.63,3.63,0,0,1-.91,1.28,3.59,3.59,0,0,1-1.36.74,5.71,5.71,0,0,1-1.59.23h-4.75a10.17,10.17,0,0,1-2.57-.29,5.08,5.08,0,0,1-2-1.09,9.22,9.22,0,0,1-1.76-2.12,38.61,38.61,0,0,1-1.91-3.46l-13.66-25.66c-.8-1.53-1.6-3.18-2.42-4.95s-1.56-3.48-2.21-5.15h-.08c.11,2,.2,4.07.25,6.09s.09,4.1.09,6.25v28.73a1.27,1.27,0,0,1-.24.76,1.64,1.64,0,0,1-.8.57,6,6,0,0,1-1.55.36,19,19,0,0,1-2.5.13,18.59,18.59,0,0,1-2.46-.13,5.55,5.55,0,0,1-1.53-.36,1.59,1.59,0,0,1-.77-.57,1.4,1.4,0,0,1-.21-.76V124.2a3.74,3.74,0,0,1,1.17-3,4.27,4.27,0,0,1,2.86-1h6a11.66,11.66,0,0,1,2.72.27,5.74,5.74,0,0,1,2,.91,7.25,7.25,0,0,1,1.64,1.77,23,23,0,0,1,1.57,2.77L509.05,146c.62,1.22,1.24,2.41,1.84,3.59s1.2,2.35,1.76,3.52,1.12,2.33,1.66,3.46,1.06,2.26,1.57,3.39h0c-.08-2-.15-4-.19-6.19s-.06-4.2-.06-6.15V121.86a1.22,1.22,0,0,1,.25-.76,2,2,0,0,1,.85-.6,5.61,5.61,0,0,1,1.57-.36,24.34,24.34,0,0,1,2.5-.1,23.44,23.44,0,0,1,2.42.1,4.84,4.84,0,0,1,1.51.36,1.71,1.71,0,0,1,.74.6,1.4,1.4,0,0,1,.21.76Z" transform="translate(-48.99 -39.78)"/><path class="cls-5" d="M579.48,171.2a4.16,4.16,0,0,1-.34,1.74,3.76,3.76,0,0,1-.91,1.28,3.59,3.59,0,0,1-1.36.74,5.71,5.71,0,0,1-1.59.23h-4.75a10.17,10.17,0,0,1-2.57-.29,5.08,5.08,0,0,1-2-1.09,9.22,9.22,0,0,1-1.76-2.12,36.24,36.24,0,0,1-1.91-3.46l-13.66-25.66c-.8-1.53-1.6-3.18-2.42-4.95s-1.56-3.48-2.21-5.15h-.08c.11,2,.19,4.07.25,6.09s.09,4.1.09,6.25v28.73a1.27,1.27,0,0,1-.24.76,1.64,1.64,0,0,1-.8.57,6.12,6.12,0,0,1-1.55.36,19.11,19.11,0,0,1-2.51.13,18.59,18.59,0,0,1-2.46-.13,5.56,5.56,0,0,1-1.52-.36,1.54,1.54,0,0,1-.77-.57,1.4,1.4,0,0,1-.21-.76V124.2a3.74,3.74,0,0,1,1.17-3,4.27,4.27,0,0,1,2.86-1h6a11.66,11.66,0,0,1,2.72.27,5.83,5.83,0,0,1,2,.91,7,7,0,0,1,1.63,1.77,22.9,22.9,0,0,1,1.58,2.77L562.81,146c.62,1.22,1.23,2.41,1.84,3.59s1.2,2.35,1.76,3.52,1.12,2.33,1.66,3.46,1.06,2.26,1.57,3.39h0q-.13-3-.19-6.19c0-2.15-.07-4.2-.07-6.15V121.86a1.23,1.23,0,0,1,.26-.76,2,2,0,0,1,.85-.6,5.52,5.52,0,0,1,1.57-.36,24.34,24.34,0,0,1,2.5-.1,23.44,23.44,0,0,1,2.42.1,4.84,4.84,0,0,1,1.51.36,1.71,1.71,0,0,1,.74.6,1.4,1.4,0,0,1,.21.76Z" transform="translate(-48.99 -39.78)"/><path class="cls-6" d="M122.82,78l-12.5,8.84L123.39,89l4.24,13.84,9.8-12.11,7.77-.36a120.22,120.22,0,0,0-22.38-13.46Z" transform="translate(-48.99 -39.78)"/><path class="cls-7" d="M62.83,71.12l-5.95,10,9-6.35,5.76,2.7,2.69-9,2-1.61A99.14,99.14,0,0,0,60.7,69.13Z" transform="translate(-48.99 -39.78)"/><path class="cls-8" d="M144.36,80.74l4.8-11.93-15,4.43-11.34-5.39v9.06A120.22,120.22,0,0,1,145.2,90.37l8.58-.4Z" transform="translate(-48.99 -39.78)"/><path class="cls-9" d="M144.36,80.74l4.8-11.93-15,4.43-11.34-5.39v9.06A120.22,120.22,0,0,1,145.2,90.37l8.58-.4Z" transform="translate(-48.99 -39.78)"/><path class="cls-10" d="M76.29,61.89l-.18-5-8.27,8.27L60,68.43l.75.7a99.14,99.14,0,0,1,15.66-2.31l7.24-5.89Z" transform="translate(-48.99 -39.78)"/><path class="cls-11" d="M76.29,61.89l-.18-5-8.27,8.27L60,68.43l.75.7a99.14,99.14,0,0,1,15.66-2.31l7.24-5.89Z" transform="translate(-48.99 -39.78)"/><polygon class="cls-1" points="65.14 13.1 66.12 14.67 74.98 16.03 74.98 14.61 65.14 13.1"/><polygon class="cls-12" points="65.14 13.1 66.12 14.67 74.98 16.03 74.98 14.61 65.14 13.1"/><polygon class="cls-1" points="75.06 24.35 75.06 24.36 76.12 26.01 86.31 17.74 99.77 18.7 98.46 17.09 85.17 16.15 75.06 24.35"/><polygon class="cls-13" points="75.06 24.35 75.06 24.36 76.12 26.01 86.31 17.74 99.77 18.7 98.46 17.09 85.17 16.15 75.06 24.35"/><polygon class="cls-1" points="99.94 4.49 99.9 4.5 93.44 10.77 94.67 12.27 101.12 6.02 99.94 4.49"/><polygon class="cls-14" points="99.94 4.49 99.9 4.5 93.44 10.77 94.67 12.27 101.12 6.02 99.94 4.49"/><polygon class="cls-15" points="74.98 16.03 74.98 24.42 75.06 24.35 76.12 16.21 74.98 16.03"/><polygon class="cls-16" points="77.86 9.67 81.5 3.33 89 7.17 99.9 4.5 99.98 4.42 87.86 5.58 80.36 1.73 76.72 8.08 64.98 13.07 65.14 13.1 65.1 13.03 77.86 9.67"/><polygon class="cls-17" points="98.46 17.09 98.64 17.11 94.67 12.27 94.58 12.36 98.46 17.09"/><polygon class="cls-18" points="98.46 17.09 98.64 17.11 94.67 12.27 94.58 12.36 98.46 17.09"/><polygon class="cls-1" points="99.9 4.5 89 7.17 81.5 3.33 77.86 9.67 65.1 13.03 65.14 13.1 74.98 14.61 74.98 16.03 76.12 16.21 75.06 24.35 85.17 16.15 98.46 17.09 94.58 12.36 94.67 12.27 93.44 10.77 99.9 4.5"/><polygon class="cls-19" points="99.9 4.5 89 7.17 81.5 3.33 77.86 9.67 65.1 13.03 65.14 13.1 74.98 14.61 74.98 16.03 76.12 16.21 75.06 24.35 85.17 16.15 98.46 17.09 94.58 12.36 94.67 12.27 93.44 10.77 99.9 4.5"/><polygon class="cls-20" points="99.98 4.42 87.86 5.58 80.36 1.73 76.72 8.08 64.98 13.07 65.14 13.1 74.98 14.61 74.98 16.03 74.98 24.42 75.06 24.35 85.17 16.15 98.46 17.09 94.58 12.36 94.67 12.27 93.44 10.77 99.9 4.5 99.98 4.42"/><path class="cls-1" d="M117.51,40.86l-.3.08c-1.85.91-8.23,4.42-8.23,4.42V51.9l-9.23-.39L89,57.82,89.1,59l10.76-6.34,10.07.39V46.5s6.85-4.23,7.81-4.62Z" transform="translate(-48.99 -39.78)"/><path class="cls-21" d="M117.51,40.86l-.3.08c-1.85.91-8.23,4.42-8.23,4.42V51.9l-9.23-.39L89,57.82,89.1,59l10.76-6.34,10.07.39V46.5s6.85-4.23,7.81-4.62Z" transform="translate(-48.99 -39.78)"/><polygon class="cls-1" points="39.31 9.26 39.34 10.37 43.51 11.53 44.03 10.57 39.31 9.26"/><polygon class="cls-22" points="39.31 9.26 39.34 10.37 43.51 11.53 44.03 10.57 39.31 9.26"/><polygon class="cls-23" points="44.14 11.71 43.51 11.53 40 18.07 40.05 18.04 40.05 17.98 44.14 11.71"/><path class="cls-24" d="M97.94,46.31l6.34-5.39,2.89,2.69,10-2.67.42-.2-10.57,1.73-2.89-2.69-6.34,5.39L88.21,49l.09,0v0Z" transform="translate(-48.99 -39.78)"/><path class="cls-1" d="M109,51.9V45.36s6.38-3.51,8.23-4.42l-10,2.67-2.89-2.69-6.34,5.39L88.3,49v0L93,50.35l-.52,1,.63.17L89,57.77v0l10.71-6.31Z" transform="translate(-48.99 -39.78)"/><path class="cls-25" d="M109,51.9V45.36s6.38-3.51,8.23-4.42l-10,2.67-2.89-2.69-6.34,5.39L88.3,49v0L93,50.35l-.52,1,.63.17L89,57.77v0l10.71-6.31Z" transform="translate(-48.99 -39.78)"/><path class="cls-26" d="M107.06,42.47l-2.89-2.69-6.34,5.39L88.21,49l.09,0L93,50.35l-.52,1L89,57.85l.05,0,10.71-6.31,9.23.39V45.36s6.38-3.51,8.23-4.42l.42-.2Z" transform="translate(-48.99 -39.78)"/><path class="cls-5" d="M142.09,221.45a2.36,2.36,0,0,1,.17.74.49.49,0,0,1-.15.42,1,1,0,0,1-.55.19,9.54,9.54,0,0,1-1,0c-.43,0-.77,0-1,0a2.27,2.27,0,0,1-.58-.1.65.65,0,0,1-.29-.2,1.49,1.49,0,0,1-.17-.31l-2.31-6.54H125l-2.2,6.46a1.09,1.09,0,0,1-.17.32.91.91,0,0,1-.3.23,2,2,0,0,1-.56.13,8.12,8.12,0,0,1-.94,0,6.82,6.82,0,0,1-1-.05.91.91,0,0,1-.54-.2.51.51,0,0,1-.14-.42,2.36,2.36,0,0,1,.17-.74l9-24.94a1,1,0,0,1,.22-.38.91.91,0,0,1,.39-.22,2.6,2.6,0,0,1,.66-.12c.27,0,.62,0,1,0s.81,0,1.1,0a3,3,0,0,1,.71.12.9.9,0,0,1,.41.23,1.26,1.26,0,0,1,.23.39Zm-11.56-22h0l-4.63,13.39h9.34Z" transform="translate(-48.99 -39.78)"/><path class="cls-5" d="M159.39,221.16a6.47,6.47,0,0,1,0,.7,1.86,1.86,0,0,1-.14.47.63.63,0,0,1-.23.29.49.49,0,0,1-.32.1H146.79a1.48,1.48,0,0,1-.9-.32,1.37,1.37,0,0,1-.43-1.14V196.4a.48.48,0,0,1,.38-.48,3.36,3.36,0,0,1,.56-.13,7.34,7.34,0,0,1,1.71,0,3.46,3.46,0,0,1,.55.13.53.53,0,0,1,.29.19.49.49,0,0,1,.08.29v23.23h9.63a.55.55,0,0,1,.32.09.69.69,0,0,1,.23.27,1.55,1.55,0,0,1,.14.47A6.47,6.47,0,0,1,159.39,221.16Z" transform="translate(-48.99 -39.78)"/><path class="cls-5" d="M177,221.16a4.64,4.64,0,0,1,0,.7,1.53,1.53,0,0,1-.14.47.62.62,0,0,1-.22.29.52.52,0,0,1-.33.1H164.4a1.52,1.52,0,0,1-.9-.32,1.37,1.37,0,0,1-.42-1.14V196.4a.46.46,0,0,1,.37-.48,3.36,3.36,0,0,1,.56-.13,6.82,6.82,0,0,1,.85,0,6.64,6.64,0,0,1,.86,0,3.46,3.46,0,0,1,.55.13.48.48,0,0,1,.38.48v23.23h9.62a.58.58,0,0,1,.33.09.67.67,0,0,1,.22.27,1.31,1.31,0,0,1,.14.47A4.64,4.64,0,0,1,177,221.16Z" transform="translate(-48.99 -39.78)"/><path class="cls-5" d="M195.63,221.24a4.33,4.33,0,0,1,0,.66,1.53,1.53,0,0,1-.15.47.68.68,0,0,1-.24.26.53.53,0,0,1-.3.09H182a1.53,1.53,0,0,1-.91-.32,1.37,1.37,0,0,1-.42-1.14V197.32a1.33,1.33,0,0,1,.42-1.13,1.48,1.48,0,0,1,.91-.33h12.74a.53.53,0,0,1,.3.09.56.56,0,0,1,.22.27,2.13,2.13,0,0,1,.13.46,3.52,3.52,0,0,1,.05.7,3.12,3.12,0,0,1-.05.65,2,2,0,0,1-.13.46.64.64,0,0,1-.22.26.61.61,0,0,1-.3.08h-10.5v8.43h9a.53.53,0,0,1,.3.09.73.73,0,0,1,.23.26,1.39,1.39,0,0,1,.14.46,4.52,4.52,0,0,1,0,.68,4.11,4.11,0,0,1,0,.65,1.36,1.36,0,0,1-.14.43.59.59,0,0,1-.23.24.6.6,0,0,1-.3.07h-9v9.61H194.9a.61.61,0,0,1,.3.08.87.87,0,0,1,.24.26,1.31,1.31,0,0,1,.15.46A4.58,4.58,0,0,1,195.63,221.24Z" transform="translate(-48.99 -39.78)"/><path class="cls-5" d="M212,222.09a1,1,0,0,1-.23.38,1,1,0,0,1-.4.23,3.46,3.46,0,0,1-.67.11c-.27,0-.6,0-1,0h-.79a3.45,3.45,0,0,1-.6-.05l-.42-.09a1,1,0,0,1-.3-.14.64.64,0,0,1-.2-.2,1,1,0,0,1-.13-.28l-8.78-24.94a2.69,2.69,0,0,1-.18-.74.46.46,0,0,1,.18-.42,1.14,1.14,0,0,1,.6-.19c.28,0,.65,0,1.12,0s.7,0,.92,0a1.54,1.54,0,0,1,.53.12.56.56,0,0,1,.28.21,1.62,1.62,0,0,1,.18.35l7.7,22.59h0l7.49-22.55a1.37,1.37,0,0,1,.15-.38.52.52,0,0,1,.29-.22,1.82,1.82,0,0,1,.58-.12q.38,0,1,0a8.82,8.82,0,0,1,1,0,.87.87,0,0,1,.51.2.51.51,0,0,1,.1.42,3.21,3.21,0,0,1-.19.74Z" transform="translate(-48.99 -39.78)"/><path class="cls-5" d="M243.15,221.45a2.43,2.43,0,0,1,.18.74.49.49,0,0,1-.15.42,1,1,0,0,1-.55.19,9.54,9.54,0,0,1-1,0c-.43,0-.77,0-1,0a2.27,2.27,0,0,1-.58-.1.65.65,0,0,1-.29-.2,2.13,2.13,0,0,1-.18-.31l-2.3-6.54H226.06l-2.2,6.46a1.38,1.38,0,0,1-.17.32.91.91,0,0,1-.3.23,2,2,0,0,1-.56.13,8.2,8.2,0,0,1-1,0,6.67,6.67,0,0,1-1-.05.91.91,0,0,1-.54-.2.55.55,0,0,1-.15-.42,2.77,2.77,0,0,1,.18-.74l9-24.94a1,1,0,0,1,.21-.38,1,1,0,0,1,.4-.22,2.6,2.6,0,0,1,.66-.12c.27,0,.61,0,1,0s.81,0,1.1,0a3,3,0,0,1,.71.12.9.9,0,0,1,.41.23,1.26,1.26,0,0,1,.23.39Zm-11.55-22h0L227,212.82h9.34Z" transform="translate(-48.99 -39.78)"/><path class="cls-5" d="M260.31,222.18a.48.48,0,0,1-.09.29.55.55,0,0,1-.29.2,3.61,3.61,0,0,1-.55.12,5.23,5.23,0,0,1-.86.05,5.32,5.32,0,0,1-.85-.05,3.51,3.51,0,0,1-.56-.12.55.55,0,0,1-.29-.2.47.47,0,0,1-.08-.29V196.4a.5.5,0,0,1,.09-.29.59.59,0,0,1,.31-.19,3.93,3.93,0,0,1,.56-.13,6.32,6.32,0,0,1,.82,0,6.64,6.64,0,0,1,.86,0,3.46,3.46,0,0,1,.55.13.48.48,0,0,1,.38.48Z" transform="translate(-48.99 -39.78)"/><path class="cls-5" d="M281.11,221.16a4.64,4.64,0,0,1,0,.7,1.88,1.88,0,0,1-.13.47.63.63,0,0,1-.23.29.51.51,0,0,1-.32.1H268.52a1.53,1.53,0,0,1-.91-.32,1.37,1.37,0,0,1-.42-1.14V196.4a.57.57,0,0,1,.08-.29.53.53,0,0,1,.29-.19,3.62,3.62,0,0,1,.56-.13,6.82,6.82,0,0,1,.85,0,6.52,6.52,0,0,1,.86,0,3.21,3.21,0,0,1,.55.13.56.56,0,0,1,.3.19.57.57,0,0,1,.08.29v23.23h9.63a.57.57,0,0,1,.32.09.69.69,0,0,1,.23.27,1.57,1.57,0,0,1,.13.47A4.64,4.64,0,0,1,281.11,221.16Z" transform="translate(-48.99 -39.78)"/><path class="cls-5" d="M308.58,215.18a7.75,7.75,0,0,1-.7,3.37,7.16,7.16,0,0,1-1.93,2.5,8.32,8.32,0,0,1-2.9,1.54,12,12,0,0,1-3.6.52,12.22,12.22,0,0,1-2.5-.23,13.53,13.53,0,0,1-2.06-.56,10,10,0,0,1-1.51-.68,4.13,4.13,0,0,1-.85-.6,1.6,1.6,0,0,1-.36-.64,3.9,3.9,0,0,1-.11-1,5.35,5.35,0,0,1,0-.76,1.82,1.82,0,0,1,.13-.49.55.55,0,0,1,.2-.26.57.57,0,0,1,.29-.07,1.7,1.7,0,0,1,.82.35,13.75,13.75,0,0,0,1.36.77,13.07,13.07,0,0,0,2,.78,9.31,9.31,0,0,0,2.71.36,6.81,6.81,0,0,0,2.13-.31,5.06,5.06,0,0,0,1.66-.88,3.88,3.88,0,0,0,1.07-1.4,4.59,4.59,0,0,0,.37-1.89,3.51,3.51,0,0,0-.52-2,5.12,5.12,0,0,0-1.37-1.42,11.5,11.5,0,0,0-1.94-1.12l-2.23-1a23.49,23.49,0,0,1-2.22-1.17,9.59,9.59,0,0,1-1.93-1.52,6.92,6.92,0,0,1-1.38-2,6.86,6.86,0,0,1-.53-2.82,7.13,7.13,0,0,1,.61-3A6.13,6.13,0,0,1,295,197.3a7.44,7.44,0,0,1,2.59-1.36,11,11,0,0,1,3.25-.47,9.93,9.93,0,0,1,1.79.16,12.22,12.22,0,0,1,1.71.41,10,10,0,0,1,1.42.58,4.39,4.39,0,0,1,.82.52,2.33,2.33,0,0,1,.26.31,1.39,1.39,0,0,1,.1.29,2.34,2.34,0,0,1,.06.43c0,.16,0,.38,0,.64s0,.47,0,.67a2.58,2.58,0,0,1-.09.48.56.56,0,0,1-.18.29.35.35,0,0,1-.26.1,1.69,1.69,0,0,1-.71-.29c-.33-.2-.73-.41-1.2-.66a10.38,10.38,0,0,0-1.67-.66,7.25,7.25,0,0,0-2.17-.3,5.79,5.79,0,0,0-1.95.3,4.06,4.06,0,0,0-1.37.8,3.12,3.12,0,0,0-.81,1.18,3.93,3.93,0,0,0-.27,1.45,3.54,3.54,0,0,0,.52,1.93,5.52,5.52,0,0,0,1.38,1.44,13.47,13.47,0,0,0,2,1.14l2.25,1c.76.36,1.5.74,2.24,1.17a9.65,9.65,0,0,1,2,1.49,6.9,6.9,0,0,1,1.39,2A6.78,6.78,0,0,1,308.58,215.18Z" transform="translate(-48.99 -39.78)"/><path class="cls-5" d="M333.19,212.8a12.4,12.4,0,0,1-.71,4.37,8.85,8.85,0,0,1-2.05,3.24,8.57,8.57,0,0,1-3.23,2,13,13,0,0,1-4.34.68,12.12,12.12,0,0,1-4.05-.64,8.5,8.5,0,0,1-3.13-1.9,8.32,8.32,0,0,1-2-3.14,12.46,12.46,0,0,1-.71-4.36V196.4a.46.46,0,0,1,.37-.48,3.58,3.58,0,0,1,.54-.13,6.63,6.63,0,0,1,.88,0,6.82,6.82,0,0,1,.85,0,3.46,3.46,0,0,1,.55.13.54.54,0,0,1,.28.19.57.57,0,0,1,.08.29v16.23a10.3,10.3,0,0,0,.46,3.26,6,6,0,0,0,1.31,2.31,5.48,5.48,0,0,0,2.08,1.39,7.38,7.38,0,0,0,2.73.47,7.7,7.7,0,0,0,2.77-.46,5.27,5.27,0,0,0,2.05-1.36A6.21,6.21,0,0,0,329.2,216a10,10,0,0,0,.44-3.15V196.4a.48.48,0,0,1,.38-.48,3.46,3.46,0,0,1,.55-.13,6.64,6.64,0,0,1,.86,0,6.53,6.53,0,0,1,.84,0,3.06,3.06,0,0,1,.54.13.57.57,0,0,1,.29.19.5.5,0,0,1,.09.29Z" transform="translate(-48.99 -39.78)"/><path class="cls-5" d="M357.09,218.92a5.15,5.15,0,0,1,0,.58,1.84,1.84,0,0,1-.07.44,1.62,1.62,0,0,1-.13.33,2.39,2.39,0,0,1-.29.35,5.56,5.56,0,0,1-.88.63,9,9,0,0,1-1.65.83,13.78,13.78,0,0,1-2.26.69,12.8,12.8,0,0,1-2.79.28,12.25,12.25,0,0,1-4.72-.87,9.52,9.52,0,0,1-3.59-2.58,11.61,11.61,0,0,1-2.28-4.2,21.07,21.07,0,0,1,.06-11.71,12.85,12.85,0,0,1,2.42-4.43,10.23,10.23,0,0,1,3.72-2.77,11.77,11.77,0,0,1,4.81-1,12.11,12.11,0,0,1,2.26.22,15.31,15.31,0,0,1,2,.55,9.13,9.13,0,0,1,1.66.77,6,6,0,0,1,1,.71,2.41,2.41,0,0,1,.36.43,1.51,1.51,0,0,1,.14.34,4.13,4.13,0,0,1,.08.47,5.85,5.85,0,0,1,0,.64,4.87,4.87,0,0,1,0,.71,2,2,0,0,1-.13.49.81.81,0,0,1-.19.29.48.48,0,0,1-.29.09,1.59,1.59,0,0,1-.81-.41c-.35-.26-.8-.56-1.35-.89a11.13,11.13,0,0,0-2-.89,8.74,8.74,0,0,0-2.83-.4,7.32,7.32,0,0,0-3.26.71,6.85,6.85,0,0,0-2.51,2.11,10.17,10.17,0,0,0-1.62,3.39,18.41,18.41,0,0,0,0,9.09,9.37,9.37,0,0,0,1.58,3.28,6.65,6.65,0,0,0,2.54,2,8.19,8.19,0,0,0,3.4.68,9,9,0,0,0,2.8-.4,11.05,11.05,0,0,0,2.05-.88c.56-.33,1-.62,1.39-.88a1.6,1.6,0,0,1,.85-.4.41.41,0,0,1,.25.07.42.42,0,0,1,.17.23,2.27,2.27,0,0,1,.09.49C357.08,218.34,357.09,218.6,357.09,218.92Z" transform="translate(-48.99 -39.78)"/><path class="cls-5" d="M379.5,218.92c0,.22,0,.41,0,.58a4.08,4.08,0,0,1-.07.44,1.64,1.64,0,0,1-.14.33,1.55,1.55,0,0,1-.29.35,5.84,5.84,0,0,1-.87.63,9,9,0,0,1-1.65.83,14.09,14.09,0,0,1-2.26.69,12.8,12.8,0,0,1-2.79.28,12.22,12.22,0,0,1-4.72-.87,9.36,9.36,0,0,1-3.59-2.58,11.77,11.77,0,0,1-2.29-4.2,21,21,0,0,1,.07-11.71,12.84,12.84,0,0,1,2.41-4.43,10.27,10.27,0,0,1,3.73-2.77,11.69,11.69,0,0,1,4.8-1,12,12,0,0,1,2.26.22,15.06,15.06,0,0,1,2,.55,9.45,9.45,0,0,1,1.66.77,5.77,5.77,0,0,1,1,.71,2.59,2.59,0,0,1,.37.43,1.51,1.51,0,0,1,.13.34,4,4,0,0,1,.09.47,5.85,5.85,0,0,1,0,.64,4.73,4.73,0,0,1,0,.71,1.68,1.68,0,0,1-.12.49.82.82,0,0,1-.2.29.43.43,0,0,1-.28.09,1.52,1.52,0,0,1-.81-.41c-.35-.26-.8-.56-1.35-.89a11.45,11.45,0,0,0-2-.89,8.78,8.78,0,0,0-2.83-.4,7.29,7.29,0,0,0-3.26.71,6.88,6.88,0,0,0-2.52,2.11,10.58,10.58,0,0,0-1.62,3.39,18.73,18.73,0,0,0,0,9.09,9.38,9.38,0,0,0,1.59,3.28,6.62,6.62,0,0,0,2.53,2,8.22,8.22,0,0,0,3.4.68,9.07,9.07,0,0,0,2.81-.4,10.94,10.94,0,0,0,2-.88c.57-.33,1-.62,1.39-.88a1.62,1.62,0,0,1,.86-.4.43.43,0,0,1,.25.07.48.48,0,0,1,.17.23,2.27,2.27,0,0,1,.09.49C379.49,218.34,379.5,218.6,379.5,218.92Z" transform="translate(-48.99 -39.78)"/><path class="cls-5" d="M399.77,221.24a6.15,6.15,0,0,1,0,.66,1.53,1.53,0,0,1-.15.47.68.68,0,0,1-.24.26.53.53,0,0,1-.3.09H386.15a1.52,1.52,0,0,1-.9-.32,1.37,1.37,0,0,1-.42-1.14V197.32a1.33,1.33,0,0,1,.42-1.13,1.47,1.47,0,0,1,.9-.33H398.9a.53.53,0,0,1,.3.09.56.56,0,0,1,.22.27,2.92,2.92,0,0,1,.13.46,4.49,4.49,0,0,1,.05.7,4,4,0,0,1-.05.65,2.64,2.64,0,0,1-.13.46.64.64,0,0,1-.22.26.61.61,0,0,1-.3.08H388.4v8.43h9a.53.53,0,0,1,.3.09.73.73,0,0,1,.23.26,1.39,1.39,0,0,1,.14.46,6.39,6.39,0,0,1,0,.68,5.79,5.79,0,0,1,0,.65,1.36,1.36,0,0,1-.14.43.59.59,0,0,1-.23.24.6.6,0,0,1-.3.07h-9v9.61H399a.61.61,0,0,1,.3.08.87.87,0,0,1,.24.26,1.31,1.31,0,0,1,.15.46A6.43,6.43,0,0,1,399.77,221.24Z" transform="translate(-48.99 -39.78)"/><path class="cls-5" d="M420.17,215.18a7.9,7.9,0,0,1-.69,3.37,7.4,7.4,0,0,1-1.93,2.5,8.45,8.45,0,0,1-2.91,1.54,11.91,11.91,0,0,1-3.6.52,12.29,12.29,0,0,1-2.5-.23,13.86,13.86,0,0,1-2.06-.56,10.45,10.45,0,0,1-1.51-.68,4.44,4.44,0,0,1-.85-.6,1.47,1.47,0,0,1-.35-.64,3.46,3.46,0,0,1-.12-1,7.42,7.42,0,0,1,0-.76,1.82,1.82,0,0,1,.13-.49.51.51,0,0,1,.21-.26.54.54,0,0,1,.29-.07,1.78,1.78,0,0,1,.82.35,11.76,11.76,0,0,0,1.36.77,12.67,12.67,0,0,0,2,.78,9.22,9.22,0,0,0,2.71.36,6.79,6.79,0,0,0,2.12-.31,5,5,0,0,0,1.66-.88,3.77,3.77,0,0,0,1.07-1.4,4.59,4.59,0,0,0,.38-1.89,3.59,3.59,0,0,0-.52-2,5.42,5.42,0,0,0-1.37-1.42,12.35,12.35,0,0,0-1.94-1.12l-2.23-1a21.28,21.28,0,0,1-2.22-1.17,9.32,9.32,0,0,1-1.93-1.52,6.92,6.92,0,0,1-1.38-2,6.7,6.7,0,0,1-.53-2.82,7,7,0,0,1,.61-3,6.1,6.1,0,0,1,1.7-2.21,7.53,7.53,0,0,1,2.59-1.36,11,11,0,0,1,3.25-.47,10,10,0,0,1,1.8.16,12.08,12.08,0,0,1,1.7.41,10,10,0,0,1,1.42.58,4.06,4.06,0,0,1,.82.52,1.73,1.73,0,0,1,.26.31,1.39,1.39,0,0,1,.1.29,2.34,2.34,0,0,1,.06.43,5.48,5.48,0,0,1,0,.64c0,.25,0,.47,0,.67a3.61,3.61,0,0,1-.1.48.56.56,0,0,1-.18.29.35.35,0,0,1-.25.1,1.67,1.67,0,0,1-.72-.29c-.33-.2-.72-.41-1.19-.66a10.76,10.76,0,0,0-1.67-.66,7.34,7.34,0,0,0-2.17-.3,5.71,5.71,0,0,0-2,.3,4,4,0,0,0-1.37.8,3.12,3.12,0,0,0-.81,1.18,3.93,3.93,0,0,0-.27,1.45,3.46,3.46,0,0,0,.52,1.93,5.22,5.22,0,0,0,1.38,1.44,12.49,12.49,0,0,0,2,1.14l2.24,1c.76.36,1.51.74,2.24,1.17a9.38,9.38,0,0,1,2,1.49,6.46,6.46,0,0,1,1.92,4.8Z" transform="translate(-48.99 -39.78)"/><path class="cls-5" d="M440.29,215.18a7.9,7.9,0,0,1-.69,3.37,7.4,7.4,0,0,1-1.93,2.5,8.27,8.27,0,0,1-2.91,1.54,11.91,11.91,0,0,1-3.6.52,12.29,12.29,0,0,1-2.5-.23,13.39,13.39,0,0,1-2.05-.56,10.61,10.61,0,0,1-1.52-.68,4.44,4.44,0,0,1-.85-.6,1.47,1.47,0,0,1-.35-.64,3.51,3.51,0,0,1-.11-1,5.35,5.35,0,0,1,0-.76,1.85,1.85,0,0,1,.12-.49.63.63,0,0,1,.21-.26.54.54,0,0,1,.29-.07,1.74,1.74,0,0,1,.82.35,11.76,11.76,0,0,0,1.36.77,12.67,12.67,0,0,0,2,.78,9.22,9.22,0,0,0,2.71.36,6.9,6.9,0,0,0,2.13-.31,5.16,5.16,0,0,0,1.66-.88,3.75,3.75,0,0,0,1.06-1.4,4.59,4.59,0,0,0,.38-1.89,3.59,3.59,0,0,0-.52-2,5.26,5.26,0,0,0-1.37-1.42,11.91,11.91,0,0,0-1.94-1.12l-2.23-1a23.49,23.49,0,0,1-2.22-1.17,9.59,9.59,0,0,1-1.93-1.52,6.92,6.92,0,0,1-1.38-2,6.86,6.86,0,0,1-.53-2.82,7,7,0,0,1,.61-3,6.21,6.21,0,0,1,1.7-2.21,7.49,7.49,0,0,1,2.6-1.36,10.89,10.89,0,0,1,3.24-.47,10,10,0,0,1,1.8.16,12.08,12.08,0,0,1,1.7.41,9.51,9.51,0,0,1,1.42.58,3.78,3.78,0,0,1,.82.52,1.73,1.73,0,0,1,.26.31,1.36,1.36,0,0,1,.11.29c0,.12,0,.26.06.43s0,.38,0,.64,0,.47,0,.67a1.92,1.92,0,0,1-.1.48.62.62,0,0,1-.17.29.37.37,0,0,1-.26.1,1.77,1.77,0,0,1-.72-.29c-.32-.2-.72-.41-1.19-.66a10.76,10.76,0,0,0-1.67-.66,7.3,7.3,0,0,0-2.17-.3,5.71,5.71,0,0,0-2,.3,4.06,4.06,0,0,0-1.37.8,3.12,3.12,0,0,0-.81,1.18,3.93,3.93,0,0,0-.27,1.45,3.46,3.46,0,0,0,.52,1.93,5.52,5.52,0,0,0,1.38,1.44,13,13,0,0,0,2,1.14l2.24,1c.76.36,1.51.74,2.24,1.17a9.13,9.13,0,0,1,2,1.49,6.72,6.72,0,0,1,1.39,2A6.62,6.62,0,0,1,440.29,215.18Z" transform="translate(-48.99 -39.78)"/><path class="cls-5" d="M468.49,209a20.87,20.87,0,0,1-.77,5.87,12.26,12.26,0,0,1-2.29,4.45,10.07,10.07,0,0,1-3.83,2.83,13.74,13.74,0,0,1-5.38,1,13.88,13.88,0,0,1-5.24-.9,9.2,9.2,0,0,1-3.65-2.63,11.16,11.16,0,0,1-2.15-4.27,22.13,22.13,0,0,1-.7-5.87,20,20,0,0,1,.77-5.77,12,12,0,0,1,2.3-4.41,10.06,10.06,0,0,1,3.84-2.8,13.51,13.51,0,0,1,5.37-1,13.81,13.81,0,0,1,5.17.89,9.36,9.36,0,0,1,3.66,2.61,11,11,0,0,1,2.18,4.23A21.1,21.1,0,0,1,468.49,209Zm-3.78.25a20.92,20.92,0,0,0-.4-4.24,9.74,9.74,0,0,0-1.35-3.41,6.53,6.53,0,0,0-2.52-2.25,8.45,8.45,0,0,0-3.89-.81,8,8,0,0,0-3.9.87,7.35,7.35,0,0,0-2.56,2.33,9.56,9.56,0,0,0-1.41,3.39,19.19,19.19,0,0,0-.43,4.08,22.77,22.77,0,0,0,.4,4.36A9.57,9.57,0,0,0,450,217a6.34,6.34,0,0,0,2.49,2.24,8.67,8.67,0,0,0,3.93.8,8.17,8.17,0,0,0,3.94-.87,7.11,7.11,0,0,0,2.57-2.36,10,10,0,0,0,1.39-3.43A20.3,20.3,0,0,0,464.71,209.23Z" transform="translate(-48.99 -39.78)"/></svg>