<svg width="531" height="184" fill="none" xmlns="http://www.w3.org/2000/svg"><path d="m21.545 43.298-1.707 9.67 7.057 1.63L28 56.067 17.183 63.03 13.58 76l-5.498-7.365L.86 71.734 0 70.254l6.563-9.347-1.332-8.905h8.537L20.45 42l1.095 1.298zM57.411 52.76 55.256 51l-10.098 9.881-10.704-2.898V70.36L23 79.718l1.922 2.063 12.456-1.168 4.128 10.183L43.6 93l6.223-14.319L65 74.616l-11.09-8.895 3.502-12.96z" fill="#023C59"/><path d="M100.403 31.307 99.605 29l-14.162 6.693-11.319-5.337v10.09L61 46.812l.668 2.396 13.035 2.089L78.92 65l9.783-11.99L105 52.257l-.858-2.346-8.536-6.792 4.797-11.812z" fill="#F6A500"/><path d="m36 21.63-1.056-.554-6.353 1.523-.192-5.044-.985-.555-7.408 8.898-8.007 3.3 2.932 2.713L8 41.354l.883.646 9.174-6.406 5.846 2.713 2.74-9.11L36 21.631z" fill="#023C59"/><path d="m20.586 42-1.699 9.758L27 54.885l-10.755 7.027L12.65 75l-5.47-7.433L0 70.695l5.667-10.926-1.316-8.986h8.486L20.587 42z" fill="url(#a)"/><path d="m55.426 51-12.23 8.082-10.683-2.89v12.312L23 79.847l12.431-1.15L41.641 91l6.211-14.234L63 72.726l-11.068-8.833L55.426 51z" fill="url(#b)"/><path d="M108.994 118.534a16.872 16.872 0 0 1-1.624 7.597 15.602 15.602 0 0 1-4.381 5.455 18.983 18.983 0 0 1-6.506 3.312 27.702 27.702 0 0 1-7.91 1.101 28.382 28.382 0 0 1-5.292-.46 31.114 31.114 0 0 1-4.321-1.131 18.978 18.978 0 0 1-3.118-1.381 8.939 8.939 0 0 1-1.814-1.271 3.134 3.134 0 0 1-.782-1.592 14.11 14.11 0 0 1-.24-3.002c0-.881 0-1.612.09-2.212.037-.49.132-.973.28-1.441a1.49 1.49 0 0 1 .501-.781c.217-.161.482-.245.752-.24a3.609 3.609 0 0 1 1.674.7c.9.567 1.831 1.084 2.787 1.552a25.161 25.161 0 0 0 4.06 1.551c1.781.496 3.625.732 5.474.701a12.439 12.439 0 0 0 3.649-.491 7.955 7.955 0 0 0 2.747-1.381 5.883 5.883 0 0 0 1.724-2.202 7.166 7.166 0 0 0 .591-2.933 5.147 5.147 0 0 0-1.002-3.212 9.9 9.9 0 0 0-2.657-2.372 27.877 27.877 0 0 0-3.719-1.952 238.49 238.49 0 0 1-4.29-1.932 37.894 37.894 0 0 1-4.301-2.322 17.25 17.25 0 0 1-3.72-3.092 14.422 14.422 0 0 1-2.656-4.274 15.323 15.323 0 0 1-1.002-5.895c-.05-2.397.45-4.773 1.463-6.946a14.217 14.217 0 0 1 4.01-5.005 16.682 16.682 0 0 1 5.865-3.002 26.297 26.297 0 0 1 11.077-.68c1.237.18 2.46.448 3.659.8a21.32 21.32 0 0 1 3.008 1.151c.626.268 1.21.625 1.734 1.06.231.208.428.451.581.722.116.252.2.517.251.79.081.406.131.818.15 1.231v1.842c0 .73 0 1.521-.06 2.082a7.454 7.454 0 0 1-.21 1.4 1.634 1.634 0 0 1-.431.812 1.006 1.006 0 0 1-.742.25 3.576 3.576 0 0 1-1.484-.59c-.682-.401-1.524-.832-2.516-1.302a24.495 24.495 0 0 0-3.439-1.271 15.365 15.365 0 0 0-4.3-.57 10.431 10.431 0 0 0-3.188.44 6.68 6.68 0 0 0-2.276 1.231 5.005 5.005 0 0 0-1.363 1.892 6.157 6.157 0 0 0-.441 2.342 5.169 5.169 0 0 0 1.002 3.162 9.608 9.608 0 0 0 2.687 2.372 26.888 26.888 0 0 0 3.8 1.952c1.423.607 2.87 1.255 4.34 1.942a40.291 40.291 0 0 1 4.341 2.312 17.375 17.375 0 0 1 3.779 3.092 14.444 14.444 0 0 1 2.687 4.254 14.81 14.81 0 0 1 1.022 5.835zM154 126.89c0 .702 0 1.296-.071 1.78-.028.426-.092.85-.191 1.266a3.403 3.403 0 0 1-.344.9 4.086 4.086 0 0 1-.686.86 8.543 8.543 0 0 1-1.817 1.236 21.716 21.716 0 0 1-3.301 1.453c-1.45.498-2.939.881-4.452 1.147a29.91 29.91 0 0 1-5.41.465 29.112 29.112 0 0 1-10.287-1.72 20.328 20.328 0 0 1-7.793-5.142 22.808 22.808 0 0 1-4.926-8.533 37.6 37.6 0 0 1-1.716-11.915 37.107 37.107 0 0 1 1.888-12.241 25.57 25.57 0 0 1 5.269-9.018 21.842 21.842 0 0 1 8.076-5.537 27.759 27.759 0 0 1 10.427-1.889 25.02 25.02 0 0 1 4.452.376c1.345.233 2.671.564 3.967.989a20.63 20.63 0 0 1 3.271 1.414c.731.365 1.41.824 2.019 1.364.306.294.571.627.787.989.171.308.287.642.343.989.099.456.163.919.192 1.384.051.524.071 1.187.071 1.978 0 .79 0 1.552-.091 2.135-.03.49-.129.972-.293 1.434a2.18 2.18 0 0 1-.515.791 1.019 1.019 0 0 1-.686.257 2.952 2.952 0 0 1-1.625-.741 30.125 30.125 0 0 0-2.554-1.632 21.063 21.063 0 0 0-3.725-1.641 16.25 16.25 0 0 0-5.158-.732c-2.015-.049-4.01.391-5.809 1.282a12.135 12.135 0 0 0-4.498 3.82 17.46 17.46 0 0 0-2.756 5.933 33.693 33.693 0 0 0 .061 16.127 15.92 15.92 0 0 0 2.867 5.774 11.65 11.65 0 0 0 4.502 3.372 15.11 15.11 0 0 0 5.925 1.118c1.756.03 3.506-.203 5.189-.693a22.771 22.771 0 0 0 3.745-1.532c1.043-.561 1.901-1.065 2.574-1.513a3.237 3.237 0 0 1 1.555-.672c.24-.011.479.047.686.168.211.175.363.41.434.672.138.457.222.928.253 1.404.121.504.151 1.266.151 2.274zM203 134.199c.003.282-.097.556-.281.768a1.926 1.926 0 0 1-.913.566 8.698 8.698 0 0 1-1.706.334 21.62 21.62 0 0 1-2.68.131 22.793 22.793 0 0 1-2.739-.131 8.19 8.19 0 0 1-1.706-.334 2.002 2.002 0 0 1-.893-.566 1.154 1.154 0 0 1-.281-.768v-22.424h-20.602v22.424c.001.278-.091.549-.261.768a1.804 1.804 0 0 1-.893.566 8.698 8.698 0 0 1-1.706.334c-.903.099-1.811.143-2.719.131-.905.011-1.81-.033-2.71-.131a8.65 8.65 0 0 1-1.716-.334 2.008 2.008 0 0 1-.923-.566 1.199 1.199 0 0 1-.271-.768V81.801c0-.28.095-.551.271-.768.249-.27.57-.462.923-.556a8.508 8.508 0 0 1 1.716-.344 22.57 22.57 0 0 1 2.71-.131c.908-.012 1.816.032 2.719.131.579.056 1.15.172 1.706.344.348.088.66.282.893.556.169.22.26.49.261.768v20.373h20.602V81.801a1.167 1.167 0 0 1 .281-.768c.239-.268.549-.46.893-.556a8.104 8.104 0 0 1 1.706-.344c.91-.099 1.825-.142 2.739-.131.895-.012 1.79.032 2.68.131.579.056 1.15.172 1.706.344.352.09.67.284.913.556.183.213.283.486.281.768v52.398zM256.313 131.547c.281.796.497 1.613.645 2.444a1.474 1.474 0 0 1-.343 1.343 2.847 2.847 0 0 1-1.674.565c-.796.071-1.895.101-3.287.101s-2.592 0-3.408-.061a7.948 7.948 0 0 1-1.846-.353 1.6 1.6 0 0 1-.897-.535 3.04 3.04 0 0 1-.434-.899l-3.721-11.107h-20.803l-3.509 10.845a3.488 3.488 0 0 1-.444 1.009c-.227.301-.54.526-.897.647a6.932 6.932 0 0 1-1.755.323c-.756.05-1.754.081-2.974.081a27.402 27.402 0 0 1-3.086-.132 2.288 2.288 0 0 1-1.533-.616 1.644 1.644 0 0 1-.302-1.393 13.95 13.95 0 0 1 .645-2.403l17.062-49.175c.139-.422.343-.82.605-1.18a2.078 2.078 0 0 1 1.089-.688 8.772 8.772 0 0 1 2.077-.292c.878 0 2.017-.071 3.51-.071 1.673 0 3.025 0 4.033.07.788.015 1.572.113 2.34.294.461.103.877.35 1.189.706.282.392.493.829.626 1.293l17.092 49.184zm-25.412-40.652-7.875 23.487h15.701l-7.826-23.487zM302.997 114.646a25.575 25.575 0 0 1-1.493 8.983 17.634 17.634 0 0 1-4.38 6.737 19.063 19.063 0 0 1-7.136 4.193 30.581 30.581 0 0 1-9.782 1.437 31.21 31.21 0 0 1-9.311-1.288 17.923 17.923 0 0 1-7.016-3.922 16.962 16.962 0 0 1-4.36-6.538 25.33 25.33 0 0 1-1.513-9.173V81.778c0-.274.092-.54.26-.758.24-.273.558-.465.912-.55a9.203 9.203 0 0 1 1.724-.338 28.178 28.178 0 0 1 5.402 0c.575.056 1.142.17 1.694.339.353.093.673.283.922.549.176.214.271.482.271.758v32.359a17.588 17.588 0 0 0 .812 5.649 10.382 10.382 0 0 0 2.315 3.993 9.487 9.487 0 0 0 3.618 2.345c1.503.545 3.092.812 4.691.789a12.9 12.9 0 0 0 4.72-.809 9.38 9.38 0 0 0 3.538-2.345 10.52 10.52 0 0 0 2.225-3.813c.553-1.657.821-3.394.792-5.14V81.778a1.23 1.23 0 0 1 .251-.758c.235-.269.546-.46.892-.55a8.856 8.856 0 0 1 1.724-.338c.898-.098 1.802-.141 2.706-.13.887-.011 1.774.032 2.656.13.568.056 1.129.17 1.674.339.347.087.658.278.892.549.168.217.26.484.26.758l.04 32.868zM376 134.191c.007.275-.074.546-.23.771a1.655 1.655 0 0 1-.851.569c-.53.168-1.077.28-1.63.335-.86.1-1.725.144-2.59.132a19.61 19.61 0 0 1-2.541-.132 7.736 7.736 0 0 1-1.62-.335 1.856 1.856 0 0 1-.85-.569 1.243 1.243 0 0 1-.25-.771V88.828h-.08l-15.883 45.322a2.037 2.037 0 0 1-.55.924 2.634 2.634 0 0 1-1 .579 6.677 6.677 0 0 1-1.67.284c-.667.041-1.487.061-2.461.061-1 0-1.78 0-2.46-.101a8.315 8.315 0 0 1-1.68-.346 3.15 3.15 0 0 1-1-.589 1.696 1.696 0 0 1-.51-.812l-15.483-45.322h-.08v45.363c.002.275-.078.544-.23.771-.226.276-.53.474-.87.569a8.586 8.586 0 0 1-1.64.335c-.85.1-1.705.144-2.561.132a19.749 19.749 0 0 1-2.55-.132 8.026 8.026 0 0 1-1.63-.335 1.655 1.655 0 0 1-.851-.569 1.307 1.307 0 0 1-.24-.771V84.523a4.65 4.65 0 0 1 .241-1.798 4.584 4.584 0 0 1 .91-1.563 4.13 4.13 0 0 1 1.413-.898 4.081 4.081 0 0 1 1.647-.259h7.251c1.126-.021 2.25.088 3.351.325a6.3 6.3 0 0 1 2.42 1.076 5.94 5.94 0 0 1 1.7 2.03c.511.966.911 1.988 1.191 3.046l11.881 33.211h.17l12.302-33.13a18.04 18.04 0 0 1 1.211-3.045 7.092 7.092 0 0 1 1.53-2.03 4.977 4.977 0 0 1 2-1.097c.902-.233 1.83-.342 2.761-.325h7.511a5.916 5.916 0 0 1 2 .294c.518.177.985.48 1.36.884.366.41.642.895.811 1.421.187.621.278 1.269.27 1.919l.06 49.607zM427.317 131.507c.285.794.497 1.611.636 2.442a1.446 1.446 0 0 1-.333 1.342 2.88 2.88 0 0 1-1.674.565c-.797.071-1.896.101-3.298.101-1.402 0-2.581 0-3.398-.061a7.967 7.967 0 0 1-1.856-.262 1.636 1.636 0 0 1-.908-.535 2.742 2.742 0 0 1-.423-.898l-3.721-11.098h-20.795l-3.51 10.836a3.527 3.527 0 0 1-.444 1.009 1.92 1.92 0 0 1-.907.646 6.903 6.903 0 0 1-1.755.322c-.756.051-1.745.081-2.965.081a27.178 27.178 0 0 1-3.086-.131 2.338 2.338 0 0 1-1.543-.615 1.67 1.67 0 0 1-.292-1.393c.138-.818.351-1.622.635-2.401l17.114-49.227c.139-.423.343-.821.605-1.18a2.078 2.078 0 0 1 1.089-.687 8.79 8.79 0 0 1 2.078-.292c.877 0 2.017-.071 3.499-.071 1.684 0 3.026 0 4.034.07.785.014 1.566.112 2.33.293.465.101.885.349 1.2.707.281.39.493.828.625 1.291l17.063 49.146zm-25.413-40.62h-.051l-7.825 23.468h15.702l-7.826-23.468zM475.999 131.787a4.276 4.276 0 0 1-.338 1.762 3.67 3.67 0 0 1-.904 1.295 3.544 3.544 0 0 1-1.351.749 5.565 5.565 0 0 1-1.58.233h-4.719a9.909 9.909 0 0 1-2.554-.294 5.012 5.012 0 0 1-1.987-1.103 9.287 9.287 0 0 1-1.749-2.146 39.263 39.263 0 0 1-1.898-3.502l-13.572-25.974a118.35 118.35 0 0 1-2.404-5.01 91.598 91.598 0 0 1-2.196-5.213h-.079c.109 2.024.198 4.12.248 6.164.05 2.045.089 4.15.089 6.327v29.081c.004.276-.08.545-.238.769a1.626 1.626 0 0 1-.795.577 5.88 5.88 0 0 1-1.54.365c-.824.099-1.654.143-2.484.131a18.312 18.312 0 0 1-2.444-.131 5.462 5.462 0 0 1-1.52-.365 1.57 1.57 0 0 1-.765-.577 1.436 1.436 0 0 1-.209-.769V84.212a3.844 3.844 0 0 1 .244-1.652c.201-.525.515-.998.918-1.384a4.195 4.195 0 0 1 2.842-1.012h5.962a11.37 11.37 0 0 1 2.702.273 5.657 5.657 0 0 1 1.987.921 7.28 7.28 0 0 1 1.63 1.792 23.426 23.426 0 0 1 1.56 2.803l10.581 20.326c.616 1.235 1.232 2.44 1.828 3.634.596 1.194 1.193 2.379 1.749 3.563.556 1.184 1.113 2.359 1.649 3.502a167.87 167.87 0 0 1 1.56 3.432 292.446 292.446 0 0 1-.189-6.266 351.74 351.74 0 0 1-.059-6.225V81.844a1.248 1.248 0 0 1 .248-.77 1.99 1.99 0 0 1 .845-.607c.5-.197 1.025-.32 1.56-.364.825-.077 1.655-.111 2.484-.101.802-.009 1.605.025 2.404.1a4.733 4.733 0 0 1 1.5.365c.297.128.552.338.736.608.14.23.213.497.208.769l.04 49.943zM529.999 131.787a4.268 4.268 0 0 1-.338 1.761 3.79 3.79 0 0 1-.904 1.296 3.544 3.544 0 0 1-1.351.749 5.565 5.565 0 0 1-1.58.233h-4.719a9.909 9.909 0 0 1-2.554-.294 5.012 5.012 0 0 1-1.987-1.103 9.287 9.287 0 0 1-1.749-2.146 37.05 37.05 0 0 1-1.898-3.502l-13.572-25.974a118.35 118.35 0 0 1-2.404-5.01 91.598 91.598 0 0 1-2.196-5.213h-.08c.11 2.024.189 4.12.249 6.164.059 2.045.089 4.15.089 6.327v29.081c.004.276-.08.545-.238.769a1.626 1.626 0 0 1-.795.577 5.97 5.97 0 0 1-1.54.364c-.828.1-1.661.144-2.494.132a18.147 18.147 0 0 1-2.444-.132 5.428 5.428 0 0 1-1.51-.364 1.529 1.529 0 0 1-.765-.577 1.436 1.436 0 0 1-.209-.769V84.212a3.844 3.844 0 0 1 .244-1.652c.201-.525.515-.998.918-1.384a4.195 4.195 0 0 1 2.842-1.012h5.961c.909-.018 1.816.074 2.703.273a5.737 5.737 0 0 1 1.987.921 7.06 7.06 0 0 1 1.62 1.792 23.434 23.434 0 0 1 1.57 2.803l10.581 20.326c.616 1.235 1.222 2.44 1.828 3.634a129.738 129.738 0 0 1 1.749 3.563c.556 1.184 1.113 2.359 1.649 3.502a167.87 167.87 0 0 1 1.56 3.432 262.79 262.79 0 0 1-.189-6.266c0-2.176-.069-4.251-.069-6.225V81.844a1.26 1.26 0 0 1 .258-.77 1.99 1.99 0 0 1 .845-.607 5.393 5.393 0 0 1 1.56-.364c.825-.077 1.655-.111 2.484-.101.802-.009 1.605.025 2.404.1a4.733 4.733 0 0 1 1.5.365c.297.128.552.338.736.608.14.23.213.497.208.769l.04 49.943z" fill="#005D8C"/><path d="M73.543 38.093 61 46.957l13.115 2.166L78.37 63l9.833-12.143 7.797-.36A120.655 120.655 0 0 0 73.543 37v1.093z" fill="url(#c)"/><path d="M13.812 31.182 8 41l8.792-6.234 5.627 2.65 2.627-8.835L27 27a96.391 96.391 0 0 0-15.268 2.229l2.08 1.953z" fill="url(#d)"/><path d="m95.568 41.165 4.806-12.184-15.02 4.524L74 28v9.253A119.927 119.927 0 0 1 96.409 51l8.591-.408-9.432-9.427z" fill="url(#e)"/><path opacity=".6" d="m95.568 41.165 4.806-12.184-15.02 4.524L74 28v9.253A119.927 119.927 0 0 1 96.409 51l8.591-.408-9.432-9.427z" fill="url(#f)"/><path d="M27.531 21.902 27.348 17l-8.392 8.108L11 28.314l.761.686a103.91 103.91 0 0 1 15.892-2.265L35 20.961l-7.469.941z" fill="url(#g)"/><path opacity=".6" d="M27.531 21.902 27.348 17l-8.392 8.108L11 28.314l.761.686a103.91 103.91 0 0 1 15.892-2.265L35 20.961l-7.469.941z" fill="url(#h)"/><path d="m65 13 .996 1.607L75 16v-1.444L65 13z" fill="#023C59"/><path opacity=".6" d="m65 13 .996 1.607L75 16v-1.444L65 13z" fill="url(#i)"/><path d="M75 24.318 76.072 26l10.31-8.379 13.618.963-1.325-1.622L85.229 16 75 24.318z" fill="#023C59"/><path opacity=".6" d="M75 24.318 76.072 26l10.31-8.379 13.618.963-1.325-1.622L85.229 16 75 24.318z" fill="url(#j)"/><path d="m99.77 4-.04.01L93 10.458 94.281 12 101 5.573 99.77 4z" fill="#023C59"/><path opacity=".6" d="m99.77 4-.04.01L93 10.458 94.281 12 101 5.573 99.77 4z" fill="url(#k)"/><path d="M75 16v8l.07-.057.93-7.771L75 16z" fill="url(#l)"/><path d="m77.88 9.679 3.64-6.14 7.5 3.719 10.9-2.585.08-.068-12.12 1.113L80.38 2l-3.64 6.14L65 12.97l.16.03-.04-.068L77.88 9.68z" fill="url(#m)"/><path d="M98.823 16.99 99 17l-3.911-5-.089.093 3.823 4.897z" fill="url(#n)"/><path opacity=".6" d="M98.823 16.99 99 17l-3.911-5-.089.093 3.823 4.897z" fill="url(#o)"/><path d="M100 4.168 89.037 6.835 81.494 3l-3.66 6.331L65 12.686l.04.07 9.897 1.518v1.408l1.146.18L75.017 24l10.168-8.198 13.367.948-3.903-4.733.09-.09-1.236-1.498L100 4.17z" fill="#023C59"/><path d="M100 4.168 89.037 6.835 81.494 3l-3.66 6.331L65 12.686l.04.07 9.897 1.518v1.408l1.146.18L75.017 24l10.168-8.198 13.367.948-3.903-4.733.09-.09-1.236-1.498L100 4.17z" fill="url(#p)"/><path opacity=".6" d="M100 4.61 87.88 5.724 80.38 2l-3.64 6.15L65 12.99l.16.03L75 14.493V24l.08-.058 10.11-7.964 13.29.921-3.88-4.597.09-.088-1.23-1.455 6.46-6.082.08-.068z" fill="url(#q)"/><path d="m68.768 1-.303.08c-1.867.902-8.304 4.385-8.304 4.385v6.49l-9.314-.387L40 17.829 40.1 19l10.858-6.291 10.161.387v-6.5S68.031 2.4 69 2.012L68.768 1z" fill="#023C59"/><path opacity=".6" d="m68.768 1-.303.08c-1.867.902-8.304 4.385-8.304 4.385v6.49l-9.314-.387L40 17.829 40.1 19l10.858-6.291 10.161.387v-6.5S68.031 2.4 69 2.012L68.768 1z" fill="url(#r)"/><path d="m39 9 .032 1.474L43.449 12 44 10.724 39 9z" fill="#023C59"/><path opacity=".6" d="m39 9 .032 1.474L43.449 12 44 10.724 39 9z" fill="url(#s)"/><path d="M44 12.156 43.393 12 40 18l.068-.028-.01-.046L44 12.157z" fill="url(#t)"/><path d="m48.604 6.374 6.258-5.261 2.853 2.626 9.87-2.607L68 .937 57.567 2.626 54.714 0l-6.258 5.261L39 9h.089l9.515-2.626z" fill="url(#u)"/><path d="M59.75 12.078V5.48S66.145 1.938 68 1.02L57.976 3.714 55.079 1l-6.355 5.438L39 9.152l4.711 1.362-.52 1.009.63.171L39.702 18l10.737-6.366 9.312.444z" fill="#023C59"/><path d="M59.75 12.078V5.48S66.145 1.938 68 1.02L57.976 3.714 55.079 1l-6.355 5.438L39 9.152l4.711 1.362-.52 1.009.63.171L39.702 18l10.737-6.366 9.312.444z" fill="url(#v)"/><path opacity=".6" d="M57.575 2.68 54.727 0l-6.248 5.37L39 9.183h.089l4.631 1.345-.512.996L39.778 18h.05l10.553-6.286 9.095.389V5.558s6.287-3.496 8.11-4.402l.414-.2L57.575 2.68z" fill="url(#w)"/><path d="M92.901 172.823a12.261 12.261 0 0 1-.712 4.321 8.715 8.715 0 0 1-1.977 3.204 8.587 8.587 0 0 1-3.202 1.978 12.787 12.787 0 0 1-4.28.673 11.945 11.945 0 0 1-3.955-.633 8.518 8.518 0 0 1-3.104-1.879 8.226 8.226 0 0 1-1.977-3.105 12.33 12.33 0 0 1-.692-4.312v-16.465a.454.454 0 0 1 .366-.474c.174-.057.353-.1.534-.129.286-.019.573-.019.86 0 .28-.018.56-.018.84 0 .185.026.367.069.544.129.111.028.209.095.276.187a.487.487 0 0 1 .08.287v16.05a10.479 10.479 0 0 0 .454 3.224 6.13 6.13 0 0 0 1.305 2.284 5.393 5.393 0 0 0 2.046 1.375 7.288 7.288 0 0 0 2.699.464 7.583 7.583 0 0 0 2.738-.455 5.248 5.248 0 0 0 2.037-1.344 5.998 5.998 0 0 0 1.265-2.245 9.894 9.894 0 0 0 .445-3.115v-16.238a.455.455 0 0 1 .365-.474c.178-.057.36-.1.544-.129.287-.018.574-.018.86 0a6.39 6.39 0 0 1 .83 0c.181.029.36.072.534.129a.597.597 0 0 1 .287.187c.059.085.09.185.089.287l-.099 16.218zm-7.908-24.069c.128-.159.278-.299.445-.416.146-.099.306-.176.474-.227.21-.057.426-.093.643-.109h.88c.331-.01.663.02.988.089.18.033.348.115.484.237a.328.328 0 0 1 .1.327 1.14 1.14 0 0 1-.238.395l-4.656 4.351c-.12.116-.249.221-.385.317a1.503 1.503 0 0 1-.396.178c-.17.055-.346.092-.524.108h-.731a4.592 4.592 0 0 1-.732-.049.702.702 0 0 1-.375-.168.281.281 0 0 1-.06-.277.996.996 0 0 1 .228-.386l3.855-4.37zM114.997 175.242a7.397 7.397 0 0 1-.71 3.297 7.303 7.303 0 0 1-1.985 2.445c-.882.688-1.9 1.2-2.993 1.507-1.2.349-2.449.52-3.704.508a13.188 13.188 0 0 1-2.571-.225 14.388 14.388 0 0 1-2.109-.547 11.183 11.183 0 0 1-1.564-.666 4.536 4.536 0 0 1-.874-.587 1.52 1.52 0 0 1-.36-.626 3.266 3.266 0 0 1-.113-.978 4.98 4.98 0 0 1 0-.743 1.74 1.74 0 0 1 .123-.48.63.63 0 0 1 .216-.254.57.57 0 0 1 .299-.068c.307.042.598.16.843.342.448.28.916.532 1.399.753.662.309 1.35.565 2.057.763a9.93 9.93 0 0 0 2.788.352 7.4 7.4 0 0 0 2.191-.303 5.4 5.4 0 0 0 1.708-.861 3.691 3.691 0 0 0 1.09-1.369c.266-.583.4-1.214.391-1.849a3.306 3.306 0 0 0-.535-1.957 5.29 5.29 0 0 0-1.409-1.389 12.381 12.381 0 0 0-1.996-1.095l-2.294-.979a24.44 24.44 0 0 1-2.283-1.144 9.81 9.81 0 0 1-1.986-1.487 6.786 6.786 0 0 1-1.42-1.956 6.425 6.425 0 0 1-.544-2.759 6.565 6.565 0 0 1 .627-2.935c.403-.837 1.001-1.576 1.749-2.162a7.848 7.848 0 0 1 2.674-1.33 11.759 11.759 0 0 1 3.333-.46c.621-.001 1.241.052 1.852.157.592.093 1.177.227 1.748.401.503.151.991.341 1.461.567.303.135.587.306.844.509.101.091.191.192.267.303.049.09.087.185.113.284 0 .117 0 .254.062.42.062.167 0 .372 0 .627v.655c-.013.16-.048.318-.103.469a.595.595 0 0 1-.175.284.387.387 0 0 1-.267.098 1.866 1.866 0 0 1-.741-.284c-.329-.195-.74-.401-1.224-.645a11.306 11.306 0 0 0-1.718-.646 7.853 7.853 0 0 0-2.232-.293 6.145 6.145 0 0 0-2.057.293c-.52.17-.998.436-1.41.783a3.05 3.05 0 0 0-.833 1.154c-.186.452-.28.933-.277 1.418a3.262 3.262 0 0 0 .534 1.888c.38.548.861 1.025 1.42 1.409.65.429 1.338.802 2.057 1.115l2.304.978c.782.353 1.554.724 2.305 1.145a9.373 9.373 0 0 1 2.057 1.457 6.588 6.588 0 0 1 1.43 1.957c.388.865.574 1.799.545 2.739zM134.991 163.876a9.778 9.778 0 0 1-.642 3.632 7.815 7.815 0 0 1-1.85 2.762 8.28 8.28 0 0 1-2.92 1.771c-1.35.44-2.761.65-4.177.62h-2.92v9.677a.489.489 0 0 1-.088.29.626.626 0 0 1-.282.2 2.958 2.958 0 0 1-.525.12c-.278.04-.558.057-.838.05-.28.007-.56-.009-.837-.05a3.282 3.282 0 0 1-.535-.12.538.538 0 0 1-.283-.2.488.488 0 0 1-.087-.29v-24.797a1.455 1.455 0 0 1 .428-1.181c.271-.238.617-.366.974-.36h5.587c.565 0 1.11 0 1.626.08.619.064 1.233.168 1.84.31.76.183 1.489.483 2.161.891a6.747 6.747 0 0 1 1.869 1.611 7.082 7.082 0 0 1 1.188 2.212c.248.9.353 1.836.311 2.772zm-3.66.27a5.676 5.676 0 0 0-.604-2.742 4.189 4.189 0 0 0-1.47-1.641 4.774 4.774 0 0 0-1.82-.621 11.684 11.684 0 0 0-1.83-.15h-3.213v10.778h3.135a7.304 7.304 0 0 0 2.619-.411 4.841 4.841 0 0 0 1.742-1.161 4.721 4.721 0 0 0 1.071-1.761 6.606 6.606 0 0 0 .37-2.291zM155 181.521c.001.221-.016.441-.05.66a1.288 1.288 0 0 1-.141.469.674.674 0 0 1-.24.26.53.53 0 0 1-.301.09h-12.927a1.485 1.485 0 0 1-.902-.32 1.36 1.36 0 0 1-.432-1.139v-23.924a1.335 1.335 0 0 1 .432-1.129c.253-.21.572-.327.902-.33h12.776a.56.56 0 0 1 .522.36c.064.147.111.302.14.46.019.232.019.466 0 .699.018.216.018.434 0 .65a1.889 1.889 0 0 1-.14.459.565.565 0 0 1-.221.26.578.578 0 0 1-.301.08h-10.53v8.424h9.026c.107 0 .212.031.301.09a.73.73 0 0 1 .231.26c.074.143.118.3.13.46a4.415 4.415 0 0 1 0 1.329c-.015.15-.059.296-.13.43a.606.606 0 0 1-.231.24.593.593 0 0 1-.301.069h-9.026v9.604h10.681c.105 0 .209.028.301.08a.864.864 0 0 1 .24.26c.079.141.127.298.141.459.034.229.051.459.05.69zm-7.712-27.451h-.732a2.475 2.475 0 0 1-.512-.09 1.093 1.093 0 0 1-.371-.18 4.54 4.54 0 0 1-.341-.31l-4.432-4.727a.817.817 0 0 1-.231-.37.217.217 0 0 1 .08-.249.996.996 0 0 1 .422-.13c.247-.019.495-.019.742 0h1.003c.202.015.402.041.601.08a.857.857 0 0 1 .351.16l.251.209 3.209 3.558 3.33-3.478c.077-.093.169-.173.27-.24.127-.081.266-.142.412-.179.204-.048.412-.074.621-.08h.933a5.52 5.52 0 0 1 .802.05.69.69 0 0 1 .401.15.206.206 0 0 1 .061.239 1.173 1.173 0 0 1-.221.35l-4.643 4.707a2.01 2.01 0 0 1-.351.3 1.8 1.8 0 0 1-.421.18 2.614 2.614 0 0 1-.532.1l-.702-.05zM177.992 178.953c.011.189.011.379 0 .568-.01.145-.033.29-.068.431-.03.114-.076.223-.137.323a1.505 1.505 0 0 1-.283.343c-.26.236-.544.443-.849.617a8.714 8.714 0 0 1-1.61.813c-.715.289-1.453.515-2.206.676-.895.192-1.808.284-2.723.275a11.91 11.91 0 0 1-4.606-.853 9.208 9.208 0 0 1-3.504-2.527 11.383 11.383 0 0 1-2.225-4.114 20.715 20.715 0 0 1 .058-11.472 12.62 12.62 0 0 1 2.362-4.34 9.917 9.917 0 0 1 3.631-2.713 11.435 11.435 0 0 1 4.684-.98c.744.002 1.486.074 2.216.216a15 15 0 0 1 1.952.538 8.933 8.933 0 0 1 1.62.755c.346.2.673.433.976.695.13.129.247.27.351.422.059.105.105.216.137.333.034.151.06.305.078.46a5.96 5.96 0 0 1 0 .627c.016.232.016.464 0 .696a2.001 2.001 0 0 1-.127.48.706.706 0 0 1-.195.284.422.422 0 0 1-.274.088 1.553 1.553 0 0 1-.79-.402 16.492 16.492 0 0 0-1.318-.872 10.868 10.868 0 0 0-1.952-.872 8.533 8.533 0 0 0-2.762-.391 7.116 7.116 0 0 0-3.181.695 6.837 6.837 0 0 0-2.46 2.067 10.182 10.182 0 0 0-1.571 3.321 16.105 16.105 0 0 0-.566 4.487c-.02 1.491.164 2.977.547 4.418a9.019 9.019 0 0 0 1.542 3.213 6.48 6.48 0 0 0 2.479 1.959 7.94 7.94 0 0 0 3.318.666 8.749 8.749 0 0 0 2.732-.391 11.107 11.107 0 0 0 1.952-.862c.547-.324.976-.608 1.357-.863.231-.211.52-.347.829-.391a.408.408 0 0 1 .41.293c.047.157.077.318.088.481.088.235.088.489.088.803zM202 182.341a.544.544 0 0 1-.079.289.585.585 0 0 1-.285.199 3.54 3.54 0 0 1-.54.12 4.948 4.948 0 0 1-.825.049 5.218 5.218 0 0 1-.865-.049 3.321 3.321 0 0 1-.52-.12.617.617 0 0 1-.295-.199.563.563 0 0 1-.079-.289v-11.865h-12.005v11.865a.553.553 0 0 1-.078.289.649.649 0 0 1-.285.199 3.841 3.841 0 0 1-.541.12 7.229 7.229 0 0 1-1.689 0 3.694 3.694 0 0 1-.55-.12.585.585 0 0 1-.285-.199.544.544 0 0 1-.079-.289v-25.683c0-.102.027-.202.079-.289a.516.516 0 0 1 .285-.19c.179-.058.363-.101.55-.129a7.121 7.121 0 0 1 1.689 0c.183.029.364.072.541.129a.454.454 0 0 1 .363.479v10.709h12.005v-10.709a.583.583 0 0 1 .079-.289.548.548 0 0 1 .295-.19c.169-.058.343-.101.52-.129a6.57 6.57 0 0 1 .865 0c.275-.018.55-.018.825 0 .183.028.364.071.54.129a.516.516 0 0 1 .285.19.563.563 0 0 1 .079.289v25.683zM228.926 182.282a.89.89 0 0 1-.233.379 1.03 1.03 0 0 1-.406.229 3.569 3.569 0 0 1-.681.11h-1.828a3.352 3.352 0 0 1-.6-.05l-.436-.09a1.028 1.028 0 0 1-.305-.139.636.636 0 0 1-.203-.2.978.978 0 0 1-.132-.279l-8.919-24.881a2.652 2.652 0 0 1-.182-.738.513.513 0 0 1 .182-.419 1.22 1.22 0 0 1 .61-.19h2.082c.185.011.367.051.539.12a.68.68 0 0 1 .284.209c.071.11.129.227.173.35l7.821 22.536 7.608-22.496c.031-.134.082-.261.152-.38a.53.53 0 0 1 .295-.219c.188-.07.387-.111.589-.12h1.016a9.044 9.044 0 0 1 1.015 0c.19.01.372.08.518.2a.483.483 0 0 1 .102.197.49.49 0 0 1 0 .222c-.034.253-.099.5-.193.738l-8.868 24.911zM256.991 181.512c.012.221.012.443 0 .664a1.54 1.54 0 0 1-.15.472.69.69 0 0 1-.241.262.537.537 0 0 1-.301.09h-12.967a1.504 1.504 0 0 1-.902-.322 1.38 1.38 0 0 1-.421-1.146v-24.064a1.33 1.33 0 0 1 .421-1.136c.255-.21.573-.327.902-.332h12.757a.531.531 0 0 1 .3.09c.1.063.175.159.211.272.064.148.111.303.14.462a4.604 4.604 0 0 1 0 1.357c-.027.16-.074.315-.14.463a.546.546 0 0 1-.211.261.607.607 0 0 1-.3.08h-10.51v8.474h9.025c.107 0 .212.031.301.091a.734.734 0 0 1 .231.261c.073.145.121.302.14.463.012.227.012.455 0 .683.012.218.012.436 0 .654-.022.15-.07.297-.14.432a.59.59 0 0 1-.231.241.594.594 0 0 1-.301.07h-9.025v9.661h10.68a.61.61 0 0 1 .301.08c.097.07.179.159.241.261.078.144.129.301.15.463.026.23.039.462.04.693zM285.995 175.242a7.265 7.265 0 0 1-.72 3.297 7.051 7.051 0 0 1-1.983 2.445 8.706 8.706 0 0 1-2.981 1.507c-1.2.347-2.447.519-3.701.508a13.185 13.185 0 0 1-2.57-.225 14.336 14.336 0 0 1-2.117-.548 10.49 10.49 0 0 1-1.552-.665 4.515 4.515 0 0 1-.874-.587 1.544 1.544 0 0 1-.37-.626 3.629 3.629 0 0 1-.113-.978 4.85 4.85 0 0 1 0-.743c.021-.165.066-.327.134-.48a.54.54 0 0 1 .205-.254.614.614 0 0 1 .298-.069c.308.041.599.159.843.343a13.518 13.518 0 0 0 3.454 1.516 9.871 9.871 0 0 0 2.775.352 7.334 7.334 0 0 0 2.19-.303 5.287 5.287 0 0 0 1.706-.861c.472-.37.848-.839 1.1-1.369a4.3 4.3 0 0 0 .38-1.849 3.312 3.312 0 0 0-.534-1.957 5.147 5.147 0 0 0-1.409-1.389 11.902 11.902 0 0 0-1.994-1.095l-2.292-.979a24.546 24.546 0 0 1-2.282-1.144 9.862 9.862 0 0 1-1.984-1.487 7.181 7.181 0 0 1-1.418-1.956 6.425 6.425 0 0 1-.545-2.759 6.573 6.573 0 0 1 .637-2.935 5.916 5.916 0 0 1 1.748-2.162 7.791 7.791 0 0 1 2.662-1.33 11.881 11.881 0 0 1 3.341-.46c.617-.001 1.233.052 1.84.157.595.093 1.182.227 1.757.401.501.153.989.343 1.46.567.301.137.584.308.843.509.098.093.187.195.267.303.045.091.08.186.103.284.034.138.055.279.062.42.012.209.012.418 0 .626v.656a2.497 2.497 0 0 1-.093.469.544.544 0 0 1-.185.284.372.372 0 0 1-.267.098 1.779 1.779 0 0 1-.73-.284c-.339-.195-.75-.401-1.233-.645a11.048 11.048 0 0 0-1.717-.646 7.776 7.776 0 0 0-2.231-.293 6.23 6.23 0 0 0-2.004.293c-.519.17-.998.436-1.408.783a3.05 3.05 0 0 0-.833 1.154 3.88 3.88 0 0 0-.267 1.418 3.34 3.34 0 0 0 .524 1.888c.379.548.86 1.025 1.419 1.409.65.427 1.338.8 2.055 1.115l2.313.978c.781.353 1.542.724 2.303 1.145a9.948 9.948 0 0 1 2.056 1.457 6.754 6.754 0 0 1 1.428 1.957c.37.869.541 1.802.504 2.739zM306.987 157.541c.017.227.017.454 0 .681a1.316 1.316 0 0 1-.139.47.59.59 0 0 1-.229.26.508.508 0 0 1-.298.08h-7.551v23.306a.558.558 0 0 1-.08.29.641.641 0 0 1-.289.2 3.788 3.788 0 0 1-.547.121c-.283.04-.569.056-.855.05a5.443 5.443 0 0 1-.856-.05 3.663 3.663 0 0 1-.557-.121.641.641 0 0 1-.289-.2.557.557 0 0 1-.079-.29v-23.306h-7.512a.534.534 0 0 1-.517-.34 1.882 1.882 0 0 1-.139-.47 4.681 4.681 0 0 1 0-1.371c.025-.169.072-.334.139-.491a.512.512 0 0 1 .219-.27.52.52 0 0 1 .298-.09h18.575a.52.52 0 0 1 .298.09.57.57 0 0 1 .229.27c.077.154.124.32.139.491.03.228.044.459.04.69zM326.819 181.642c.094.236.154.484.179.737a.516.516 0 0 1-.159.419.989.989 0 0 1-.547.189 9.693 9.693 0 0 1-.994 0h-.994a2.328 2.328 0 0 1-.586-.1.7.7 0 0 1-.289-.199 1.52 1.52 0 0 1-.169-.309l-2.296-6.517H309.82l-2.187 6.437a1.123 1.123 0 0 1-.169.319.892.892 0 0 1-.299.229c-.178.07-.365.114-.556.13a8.101 8.101 0 0 1-.935 0 6.742 6.742 0 0 1-.994-.05.992.992 0 0 1-.537-.199.511.511 0 0 1-.139-.419 2.34 2.34 0 0 1 .169-.737l8.947-24.851c.048-.139.122-.268.219-.379a.899.899 0 0 1 .388-.219 2.79 2.79 0 0 1 .666-.12H316.48c.24.012.477.052.706.12a.844.844 0 0 1 .408.229c.102.112.18.245.228.389l8.997 24.901zm-11.492-21.922-4.593 13.322h9.285l-4.692-13.322zm2.476-10.961c.128-.16.279-.301.447-.418.147-.1.307-.177.477-.229.212-.057.428-.094.646-.11h.885c.334-.01.668.02.994.09.182.033.35.115.487.239a.33.33 0 0 1 .1.329 1.156 1.156 0 0 1-.239.398l-4.682 4.385a3.28 3.28 0 0 1-.388.318c-.123.08-.257.14-.398.18a2.484 2.484 0 0 1-.526.109h-.736a4.537 4.537 0 0 1-.736-.049.714.714 0 0 1-.378-.17.285.285 0 0 1-.068-.131.287.287 0 0 1 .009-.148.997.997 0 0 1 .228-.388l3.878-4.405zM339 175.955c.006.97-.092 1.939-.294 2.89a5.68 5.68 0 0 1-1.012 2.228 4.677 4.677 0 0 1-1.882 1.421 7.268 7.268 0 0 1-2.885.503 7.463 7.463 0 0 1-2.227-.336 7.008 7.008 0 0 1-.84-.325 2.174 2.174 0 0 1-.475-.296 2.975 2.975 0 0 1-.183-.247 2.154 2.154 0 0 1-.131-.295 2.298 2.298 0 0 1-.071-.434v-1.371c.011-.164.052-.324.121-.474a.625.625 0 0 1 .193-.246.526.526 0 0 1 .283-.069.893.893 0 0 1 .435.158l.628.335c.274.134.558.246.85.335.367.109.75.162 1.134.158.412.01.823-.051 1.214-.178.345-.117.64-.343.84-.641.261-.394.434-.838.506-1.301.127-.714.185-1.437.172-2.16v-19.005a.545.545 0 0 1 .081-.266.615.615 0 0 1 .294-.198c.179-.066.366-.11.556-.128.29-.017.581-.017.871 0 .286-.017.574-.017.86 0 .191.016.379.059.557.128a.607.607 0 0 1 .293.198.42.42 0 0 1 .102.266l.01 19.35zM350 182.34a.443.443 0 0 1-.101.289.62.62 0 0 1-.325.2 4.112 4.112 0 0 1-.616.119 6.33 6.33 0 0 1-.964.05 6.58 6.58 0 0 1-.952-.05 4.562 4.562 0 0 1-.627-.119.674.674 0 0 1-.325-.2.499.499 0 0 1-.09-.289v-25.717a.46.46 0 0 1 .101-.29.677.677 0 0 1 .347-.189c.206-.057.415-.1.628-.13a7.81 7.81 0 0 1 .918 0c.321-.019.643-.019.964 0 .209.027.415.071.616.13a.552.552 0 0 1 .31.171.443.443 0 0 1 .116.308v25.717z" fill="#005D8C"/><defs><linearGradient id="l" x1="62.667" y1="31.599" x2="96.307" y2="4.849" gradientUnits="userSpaceOnUse"><stop offset=".25" stop-color="#088BCC"/><stop offset=".83" stop-color="#00679B"/><stop offset=".98" stop-color="#023C59"/></linearGradient><linearGradient id="a" x1="19.261" y1="78.138" x2="-5.375" y2="16.721" gradientUnits="userSpaceOnUse"><stop offset=".25" stop-color="#088BCC"/><stop offset=".83" stop-color="#00679B"/><stop offset=".98" stop-color="#023C59"/></linearGradient><linearGradient id="c" x1="61" y1="50.005" x2="104.61" y2="50.005" gradientUnits="userSpaceOnUse"><stop offset=".01" stop-color="#FFEC00"/><stop offset=".74" stop-color="#FFD400"/></linearGradient><linearGradient id="d" x1="32.158" y1="71.926" x2="8.824" y2="12.087" gradientUnits="userSpaceOnUse"><stop offset=".25" stop-color="#088BCC"/><stop offset=".83" stop-color="#00679B"/><stop offset=".98" stop-color="#023C59"/></linearGradient><linearGradient id="e" x1="61.484" y1="39.5" x2="105" y2="39.5" gradientUnits="userSpaceOnUse"><stop offset=".01" stop-color="#FFEC00"/><stop offset=".74" stop-color="#FFD400"/></linearGradient><linearGradient id="f" x1="85.194" y1="46.016" x2="105.194" y2="15.995" gradientUnits="userSpaceOnUse"><stop offset=".01" stop-color="#fff"/><stop offset=".98" stop-color="#fff" stop-opacity=".2"/></linearGradient><linearGradient id="g" x1="40.663" y1="68.745" x2="18.037" y2="8.385" gradientUnits="userSpaceOnUse"><stop offset=".25" stop-color="#088BCC"/><stop offset=".83" stop-color="#00679B"/><stop offset=".98" stop-color="#023C59"/></linearGradient><linearGradient id="h" x1="32.159" y1="11.02" x2="50.936" y2="-18.75" gradientUnits="userSpaceOnUse"><stop offset=".01" stop-color="#fff"/><stop offset=".98" stop-color="#fff" stop-opacity=".2"/></linearGradient><linearGradient id="i" x1="59.065" y1="31.379" x2="79.019" y2="1.045" gradientUnits="userSpaceOnUse"><stop offset=".01" stop-color="#fff"/><stop offset=".98" stop-color="#fff" stop-opacity=".2"/></linearGradient><linearGradient id="j" x1="74.595" y1="41.258" x2="94.292" y2="11.132" gradientUnits="userSpaceOnUse"><stop offset=".01" stop-color="#fff"/><stop offset=".98" stop-color="#fff" stop-opacity=".2"/></linearGradient><linearGradient id="k" x1="74.365" y1="42.221" x2="94.239" y2="11.394" gradientUnits="userSpaceOnUse"><stop offset=".01" stop-color="#fff"/><stop offset=".98" stop-color="#fff" stop-opacity=".2"/></linearGradient><linearGradient id="b" x1="21.596" y1="90.37" x2="62.905" y2="48.675" gradientUnits="userSpaceOnUse"><stop offset=".25" stop-color="#088BCC"/><stop offset=".83" stop-color="#00679B"/><stop offset=".98" stop-color="#023C59"/></linearGradient><linearGradient id="m" x1="58.47" y1="28.909" x2="93.309" y2="-2.19" gradientUnits="userSpaceOnUse"><stop offset=".25" stop-color="#088BCC"/><stop offset=".83" stop-color="#00679B"/><stop offset=".98" stop-color="#023C59"/></linearGradient><linearGradient id="n" x1="68.271" y1="40.585" x2="104.992" y2="10.314" gradientUnits="userSpaceOnUse"><stop offset=".25" stop-color="#088BCC"/><stop offset=".83" stop-color="#00679B"/><stop offset=".98" stop-color="#023C59"/></linearGradient><linearGradient id="o" x1="78.655" y1="44.004" x2="99.094" y2="14.158" gradientUnits="userSpaceOnUse"><stop offset=".01" stop-color="#fff"/><stop offset=".98" stop-color="#fff" stop-opacity=".2"/></linearGradient><linearGradient id="p" x1="61.148" y1="32.418" x2="96.963" y2="1.238" gradientUnits="userSpaceOnUse"><stop offset=".25" stop-color="#088BCC"/><stop offset=".83" stop-color="#00679B"/><stop offset=".98" stop-color="#023C59"/></linearGradient><linearGradient id="q" x1="67.62" y1="35.912" x2="86.365" y2="6.337" gradientUnits="userSpaceOnUse"><stop offset=".01" stop-color="#fff"/><stop offset=".98" stop-color="#fff" stop-opacity=".2"/></linearGradient><linearGradient id="r" x1="46.306" y1="22.294" x2="65.455" y2="-7.53" gradientUnits="userSpaceOnUse"><stop offset=".01" stop-color="#fff"/><stop offset=".98" stop-color="#fff" stop-opacity=".2"/></linearGradient><linearGradient id="s" x1="36.881" y1="18.776" x2="64.204" y2="-14.916" gradientUnits="userSpaceOnUse"><stop offset=".01" stop-color="#fff"/><stop offset=".98" stop-color="#fff" stop-opacity=".2"/></linearGradient><linearGradient id="t" x1="40.357" y1="16.622" x2="55.797" y2="-3.633" gradientUnits="userSpaceOnUse"><stop offset=".25" stop-color="#088BCC"/><stop offset=".83" stop-color="#00679B"/><stop offset=".98" stop-color="#023C59"/></linearGradient><linearGradient id="u" x1="42.771" y1="18.264" x2="59.333" y2="-2.659" gradientUnits="userSpaceOnUse"><stop offset=".25" stop-color="#088BCC"/><stop offset=".83" stop-color="#00679B"/><stop offset=".98" stop-color="#023C59"/></linearGradient><linearGradient id="v" x1="42.849" y1="18.817" x2="60.025" y2="-2.524" gradientUnits="userSpaceOnUse"><stop offset=".25" stop-color="#088BCC"/><stop offset=".83" stop-color="#00679B"/><stop offset=".98" stop-color="#023C59"/></linearGradient><linearGradient id="w" x1="43.336" y1="20.809" x2="63.074" y2="-9.088" gradientUnits="userSpaceOnUse"><stop offset=".01" stop-color="#fff"/><stop offset=".98" stop-color="#fff" stop-opacity=".2"/></linearGradient></defs></svg>