<svg fill="none" xmlns="http://www.w3.org/2000/svg" viewBox="0 0 149 30"><path d="M118.873 3.858c5.293 0 7.406 2.648 6.882 6.388-.403 2.872-2.07 4.78-4.825 5.886l3.098 5.693c1.187 2.178 3.179 3.572 5.959 3.572a9.432 9.432 0 0 0 9.177-7.264v.005h4.933c-1.175 7.16-7.228 11.768-14.11 11.768-4.596 0-8.406-1.66-11.258-7.098l-3.076-5.864h-3.11l-.814 5.794h-5.046l2.654-18.88h9.536ZM11.356 3.312c2.968 0 5.685.998 7.466 2.42l-3.011 3.341c-1.58-1.096-3.206-1.692-5.036-1.692l-.002.005c-1.917 0-2.927.47-3.085 1.525-.13.877.156 1.333 3.738 2.196 5.067 1.221 7.05 2.316 6.504 6.183-.266 1.871-2.247 5.865-9.342 5.865-3.612 0-6.46-1.161-8.588-3.078l3.213-3.107c1.873 1.5 3.518 2.111 5.918 2.111 2.258 0 3.306-.724 3.446-1.672.16-1.078-.726-1.495-3.848-2.285-5.342-1.353-6.588-2.95-6.166-5.918.45-3.179 3.357-5.894 8.793-5.894Zm39.773.544c5.292 0 7.406 2.648 6.882 6.388h.002c-.404 2.851-2.048 4.77-4.825 5.885l3.593 6.607h-5.83l-3.042-5.794H44.8l-.815 5.794h-5.046l2.655-18.88h9.536ZM37.196 7.988H27.03l-.483 3.399h9.22l-.52 3.68h-9.22l-.502 3.535H35.83l-.587 4.132H20.126l2.675-18.878h14.981l-.586 4.132Zm30.528 8.229 6.171-12.36h5.529L69.093 22.733h-4.747L59.357 3.856h5.665l2.702 12.36Zm16.142 6.517h-5.072l2.651-18.878h5.076l-2.655 18.878Zm21.786-18.878-.584 4.132H94.9l-.48 3.399h9.22l-.523 3.68h-9.22l-.499 3.535h10.303l-.586 4.132H87.996l2.675-18.878h14.981ZM45.347 13.04h4.243c1.85 0 3.08-.889 3.289-2.38h-.003c.259-1.836-1.051-2.469-2.668-2.469h-4.182l-.68 4.849Zm67.746 0h4.244c1.85 0 3.08-.89 3.288-2.38h-.002c.259-1.836-1.051-2.469-2.668-2.469h-4.182l-.68 4.849Z" fill="#24226A"/><path d="m141.633 0 1.484 3.4 3.325-1.65-1.049 3.56 3.607.873-3.092 2.052 2.203 2.987-3.689-.413-.231 3.704-2.558-2.69-2.561 2.69-.231-3.704-3.689.413 2.203-2.987-3.092-2.052 3.607-.872-1.047-3.561 3.323 1.65 1.487-3.4Z" fill="#F55B41"/></svg>