<?xml version="1.0" encoding="utf-8"?>
<svg version="1.1" xmlns="http://www.w3.org/2000/svg" xmlns:xlink="http://www.w3.org/1999/xlink" x="0px" y="0px" width="140px"
	 height="30px" viewBox="0 0 140 30" enable-background="new 0 0 140 30" xml:space="preserve">
<g id="">
	<rect x="0.8" y="0.8" fill="#FFFFFF" width="17.3" height="17.3"/>
</g>
<g id="">
	<g>
		<g>
			<g>
				<path fill="#FF0000" d="M10.6,15.3c2.4-0.4,4.3-2.3,4.7-4.7h-4.7V15.3z"/>
				<path fill="#FF0000" d="M3.7,8.4h4.7V3.7C6,4.1,4.1,6,3.7,8.4z"/>
				<path fill="#FF0000" d="M0,0v19h19V0H0z M9.5,17.4c-4.4,0-7.9-3.5-7.9-7.9s3.5-7.9,7.9-7.9s7.9,3.5,7.9,7.9
					C17.4,13.8,13.8,17.4,9.5,17.4z"/>
				<path fill="#FF0000" d="M8.4,15.3v-4.7H3.7C4.1,13,6,14.9,8.4,15.3z"/>
				<path fill="#FF0000" d="M10.6,3.7v4.7h4.7C14.9,6,13,4.1,10.6,3.7z"/>
			</g>
			<path d="M32.5,8.3c2.9,0.1,5.6,0.9,5.6,3.5c0,2.9-3.3,4.2-7.2,4.2c-2.5,0-6-1.1-7.9-2.6l1.8-2.1c1.2,0.9,3.7,2.1,6.1,2.1
				c2.5,0,3.8-0.6,3.8-1.4c0-0.7-0.7-1-2.5-1c-0.5,0-3.1,0-3.2,0h-0.5c-3.5-0.2-5.1-1.6-5.1-3.7c0-1.7,1.7-4,7.1-4
				c2.7,0,6,1.2,7.8,2.6L36.5,8c-1.2-1.1-3.3-2.1-6-2.1c-2.3,0-3.7,0.3-3.9,1.2c-0.1,0.8,0.5,1.2,3,1.2c0.5,0,2.4,0,2.4,0
				C32.1,8.3,32.4,8.3,32.5,8.3"/>
			<polyline points="74.4,3.6 69.7,10.9 65,3.6 62.1,3.6 62.1,15.3 65,15.3 65,8.6 69.7,15.8 74.4,8.5 74.4,15.3 77.4,15.3
				77.3,3.6 74.4,3.6 			"/>
			<polyline points="124.7,6.4 124.7,3.6 112.4,3.6 112.4,6.2 120.3,6.2 111.9,12.5 111.9,15.3 125.6,15.3 125.6,12.8 116.2,12.8
				124.7,6.4 			"/>
			<path d="M133.2,16c-5.5,0-6.8-2.1-6.8-4.9c0-1.2,0-7.4,0-7.4h2.9c0,0,0,5.9,0,6.6c0,1.8,0.5,3.2,3.8,3.2s3.8-1.4,3.8-3.2
				c0-0.7,0-6.6,0-6.6h2.9c0,0,0,6.2,0,7.4C140,13.8,138.7,16,133.2,16"/>
			<path d="M108,4.7c-0.8-0.6-1.8-1-4.1-1c-1,0-7.7,0-7.7,0v11.7h10.6c1.4,0,2.3-0.6,2.8-1.1c0.7-0.7,1.3-2.1,1-4.3
				C110.5,8,109.6,5.9,108,4.7 M107.5,11.8c-0.1,0.2-0.4,0.9-1.6,0.9h-6.6V6.2c0,0,3.2,0,4,0c1.3,0,2.2,0.1,2.9,0.9
				C107.5,8.3,107.8,10.9,107.5,11.8z"/>
			<polyline points="51.7,9.1 43,9.1 43,3.7 40,3.7 40,15.3 42.9,15.3 42.9,11.7 51.7,11.7 51.7,15.3 54.7,15.3 54.7,3.6 51.7,3.6
				51.7,9.1 			"/>
			<polyline points="56.9,15.3 59.9,15.3 59.9,3.6 56.9,3.6 56.9,15.3 			"/>
			<path d="M88.5,3.6h-3l-6.9,11.7h3.6l0.9-1.5v-0.1h7.8v0.1l0.9,1.5h3.6L88.5,3.6 M84.4,11.2L87,6.5l2.5,4.7H84.4z"/>
		</g>
		<g>
			<g>
				<path d="M30.6,21.8h4.2v1h-3.2V25h2.9v1h-2.9v2.5h3.2v1h-4.2C30.6,29.5,30.6,21.8,30.6,21.8z"/>
				<path d="M37.8,26.5L36,23.8h1.3l1.2,2l1.2-2h1.1L39,26.4l2,2.9h-1.3l-1.4-2.2l-1.4,2.2h-1.2L37.8,26.5z"/>
				<path d="M45.6,24.8c-0.4-0.2-0.8-0.2-1.1-0.2c-1.1,0-1.8,1-1.8,2.1c0,1,0.5,2.1,1.8,2.1c0.3,0,0.8-0.1,1.1-0.3l0.1,0.9
					c-0.4,0.2-0.9,0.2-1.3,0.2c-1.7,0-2.8-1.3-2.8-2.9c0-1.7,1.1-2.9,2.8-2.9c0.4,0,0.9,0.1,1.2,0.2V24.8z"/>
				<path d="M51.2,29.2c-0.4,0.1-0.8,0.4-1.7,0.4c-2,0-2.9-1.2-2.9-3c0-1.6,1-2.8,2.6-2.8c1.8,0,2.4,1.3,2.4,3.1h-4
					c0,1.1,0.9,1.8,1.8,1.8c0.7,0,1.5-0.3,1.7-0.6v1.1H51.2z M50.6,26.1c0-0.8-0.5-1.5-1.4-1.5c-1,0-1.4,0.8-1.5,1.5H50.6z"/>
				<path d="M52.9,21.2h1v8.2h-1V21.2z"/>
				<path d="M55.7,21.2h1v8.2h-1V21.2z"/>
				<path d="M62.8,29.2c-0.4,0.1-0.8,0.4-1.7,0.4c-2,0-2.9-1.2-2.9-3c0-1.6,1-2.8,2.6-2.8c1.8,0,2.4,1.3,2.4,3.1h-4
					c0,1.1,0.9,1.8,1.8,1.8c0.7,0,1.5-0.3,1.7-0.6v1.1H62.8z M62.1,26.1c0-0.8-0.5-1.5-1.4-1.5c-1,0-1.4,0.8-1.5,1.5H62.1z"/>
				<path d="M74.3,24.8c-0.4-0.2-0.8-0.2-1.1-0.2c-1.1,0-1.8,1-1.8,2.1c0,1,0.5,2.1,1.8,2.1c0.3,0,0.8-0.1,1.1-0.3l0.1,0.9
					c-0.4,0.2-0.9,0.2-1.3,0.2c-1.7,0-2.8-1.3-2.8-2.9c0-1.7,1.1-2.9,2.8-2.9c0.4,0,0.9,0.1,1.2,0.2L74.3,24.8z"/>
				<path d="M79.9,29.2c-0.4,0.1-0.8,0.4-1.7,0.4c-2,0-2.9-1.2-2.9-3c0-1.6,1-2.8,2.6-2.8c1.8,0,2.4,1.3,2.4,3.1h-4
					c0,1.1,0.9,1.8,1.8,1.8c0.7,0,1.5-0.3,1.7-0.6L79.9,29.2L79.9,29.2z M79.2,26.1c0-0.8-0.5-1.5-1.4-1.5c-1,0-1.4,0.8-1.5,1.5
					H79.2z"/>
				<path d="M85,23.8h1v5.5h-1V23.8z"/>
				<path d="M106.7,24.8c-0.4-0.2-0.8-0.2-1.1-0.2c-1.1,0-1.8,1-1.8,2.1c0,1,0.5,2.1,1.8,2.1c0.3,0,0.8-0.1,1.1-0.3l0.1,0.9
					c-0.4,0.2-0.9,0.2-1.3,0.2c-1.7,0-2.8-1.3-2.8-2.9c0-1.7,1.1-2.9,2.8-2.9c0.4,0,0.9,0.1,1.2,0.2L106.7,24.8z"/>
				<path d="M115.5,29.2c-0.4,0.1-0.8,0.4-1.7,0.4c-2,0-2.9-1.2-2.9-3c0-1.6,1-2.8,2.6-2.8c1.8,0,2.4,1.3,2.4,3.1h-4
					c0,1.1,0.9,1.8,1.8,1.8c0.7,0,1.5-0.3,1.7-0.6L115.5,29.2L115.5,29.2z M114.9,26.1c0-0.8-0.5-1.5-1.4-1.5c-1,0-1.4,0.8-1.5,1.5
					H114.9z"/>
				<path d="M127.2,24.8c-0.4-0.2-0.8-0.2-1.1-0.2c-1.1,0-1.8,1-1.8,2.1c0,1,0.5,2.1,1.8,2.1c0.3,0,0.8-0.1,1.1-0.3l0.1,0.9
					c-0.4,0.2-0.9,0.2-1.3,0.2c-1.7,0-2.8-1.3-2.8-2.9c0-1.7,1.1-2.9,2.8-2.9c0.4,0,0.9,0.1,1.2,0.2L127.2,24.8z"/>
				<path d="M132.8,29.2c-0.4,0.1-0.8,0.4-1.8,0.4c-2,0-2.9-1.2-2.9-3c0-1.6,1-2.8,2.6-2.8c1.8,0,2.4,1.3,2.4,3.1h-4
					c0,1.1,0.9,1.8,1.8,1.8c0.7,0,1.5-0.3,1.7-0.6v1.1H132.8z M132.2,26.1c0-0.8-0.5-1.5-1.4-1.5c-1,0-1.4,0.8-1.5,1.5H132.2z"/>
				<path d="M69.2,27.2v-0.1V27l0,0c-0.1-2.5-1.8-3.2-2.7-3.2h-1.7l0,0h-0.5v5.5h1v-4.5h1.2c0.1,0,1.6,0,1.7,2.2v2.3h1V27.2
					L69.2,27.2z"/>
				<path d="M92.8,27.2v-0.1V27l0,0c-0.1-2.5-1.8-3.2-2.7-3.2h-1.7l0,0h-0.5v5.5h1v-4.5h1.2c0.1,0,1.6,0,1.7,2.2v2.3h1V27.2
					L92.8,27.2z"/>
				<path d="M122.1,27.2v-0.1V27l0,0c-0.1-2.5-1.8-3.2-2.7-3.2h-1.7l0,0h-0.5v5.5h1v-4.5h1.2c0.1,0,1.6,0,1.7,2.2v2.3h1V27.2
					L122.1,27.2z"/>
				<path d="M86.2,22.1c0,0.3-0.3,0.6-0.6,0.6c-0.3,0-0.6-0.3-0.6-0.6c0-0.3,0.3-0.6,0.6-0.6C85.9,21.4,86.2,21.7,86.2,22.1z"/>
				<path d="M108.4,23.8h1v5.5h-1V23.8z"/>
				<path d="M109.6,22.1c0,0.3-0.3,0.6-0.6,0.6c-0.3,0-0.6-0.3-0.6-0.6c0-0.3,0.3-0.6,0.6-0.6C109.3,21.4,109.6,21.7,109.6,22.1z"/>
			</g>
			<path d="M101.2,22.9c-0.6-0.2-0.9-0.3-1.4-0.3c-0.6,0-1.3,0.2-1.3,1c0,1.5,3.3,1.1,3.3,3.6c0,1.6-1.3,2.3-2.8,2.3
				c-0.5,0-1.1-0.2-1.6-0.3l0.1-1c0.4,0.2,1,0.4,1.6,0.4s1.5-0.3,1.5-1.2c0-1.7-3.3-1.2-3.3-3.6c0-1.3,1.1-2.1,2.4-2.1
				c0.5,0,1.1,0.1,1.6,0.3L101.2,22.9z"/>
		</g>
	</g>
</g>
</svg>
