<?xml version="1.0" encoding="UTF-8"?> <svg xmlns="http://www.w3.org/2000/svg" id="Logo-SmittysTakeout" width="100.1" height="45" viewBox="0 0 100.1 45"><path d="M88.2,39.3c-.5.4-.9.9-1.3,1.4-.1.3.3.6.3.6l.5.2s-2.5.4-2.8.3c0,0-1.5,0-1.3,2.2-.4-1-2.3-2.1-2.3-2.1-.4,1.2-1.3,2.2-2.5,2.7-.3.1-.5-.4-.3-.6,1.1-.3,1.9-1.3,2.1-2.4-1-.5-2.2-.4-3.2,0,1.7-1.7.8-2.3.8-2.3-.2-.3-2.1-2.3-2.1-2.3h.5c0,.1.5.2.6-.1,0-.6,0-1.3-.1-1.9,0,0,.7.8,1.1.8.3,0,.4-.3.6-.6.1.8,1.1,2.1,1.6,2.2.2,0,.5.2.6-.1.1-.7.4-2.5.4-2.8s0-.8,0-1c0,0,.6,1,.9,1,.7,0,1.7-1.8,1.7-1.8,0,0-.3,2,.3,2.5.3.2,1.3-.2,1.3-.2,0,0-.4.5-.6.8s-1,1.9-1.3,2.6c-.2.3.2.5.4.5.8,0,2,0,2.5-.5,0,.4-.2.7.1.9.5.1,1,.1,1.4,0h0ZM19.8,27.4c-.2-1-.8-1.9-1.6-2.6-1-.6-2.1-.9-3.3-1-1.2,0-2.5-.1-3.7,0-1.8.1-3.8-.7-3.7-2.5.2-1.8,2.6-4.9,6-6.9,0,0,3.8-2,5.1-1.7,1.3.3-.6,3-.6,3,0,0-1.6,2.1-.8,3.4.7,1.3,1.6,1.2,1.6,1.2,0,0,.4,0,.7-.8l3-4.6s1.1-1.8-.2-3c-.7-.5-1.5-.9-2.4-.9-.7,0-1.4,0-2.2,0-1.4.2-2.8.7-4.1,1.4-2.1,1.2-4.1,2.6-5.8,4.4-1.7,1.6-3,3.6-3.9,5.7-.3.8-.4,1.6-.3,2.5,0,0,.2,2.2,3.4,2.9,1.5.2,2.9.2,4.4,0,3-.2,3.7.2,4.6.9.5.4.8,1.1.8,1.8-.2,2-1,4-2.2,5.6-1.2,1.6-2.6,3-4.2,4.2,0,0-5.3,3.8-8.2,1.8,0,0-1.2-.6.3-3.1,1.6-2.5,5.1-4.6,5.1-4.6,0,0,1.2-.6,1.7-.8.5-.2,1.5-.5,1.5-1.2s-1.5-.7-1.5-.7c-2.2,0-4.2.9-5.9,2.3C.7,36.2,0,40.7,0,40.7c-.3,1.7.9,3.3,2.6,3.6,0,0,.2,0,.2,0,3.3.5,6.3-1.4,6.3-1.4,3.1-1.6,5.8-4,7.8-6.8,3.5-4.9,2.9-8.6,2.9-8.6ZM50.4,8.7s1.9,1.3,3.2-1.7c1.3-3-.9-3.5-.9-3.5-1.6-.3-2.4,1.5-2.4,1.5-1.2,2.8.1,3.7.1,3.7h0ZM100.1,13.4v.2c-.1.8-1.6,1-1.6,1-1.5.3-2.9.6-4.3,1.1-.3,3.1-2.2,5.9-4.9,7.5-.3.1-.7.2-1,.3-1.3.3-3.2.3-2.9-2,.3-1.8,1.6-3.3,2.9-4.3.6-.5,1.3-.9,2-1.3v-3s-2,2.5-2,2.5l-4.5,5.5s-.9,1.7-1.6,1c-.7-.7.3-1.6.3-1.6l5.8-7.3,1.8-2.2c2.6-3.4,4.4-5.7,4.4-5.7.3-.5,1.1-.3,1.1-.3.7.4.1,1.4-.5,2.7-.4,1.1-.6,2.3-.5,3.4v3c0,0,5.3-1.7,5.7-.6,0,0,0,.1,0,.2h0ZM89.9,17.5c-.6.3-1.2.7-1.7,1.2-.5.4-.9.8-1.2,1.3-1.4,2.3.4,2.2.4,2.2.3,0,.6-.2.8-.4,1.5-1.2,1.7-4.3,1.7-4.3h0ZM89.1,8.4c.5.2.9-.4.9-.4,1.7-2,2.8-4.5,3.1-7.2,0-.3-.5-.9-1.8-.7s-2,.7-2,1.6c0,.9.8,1.8-.2,5.4,0,.2-.5,1.1,0,1.3h0ZM94.2,25.2h.6v1.7h.4v-1.7h.6v-.3h-1.6v.3h0ZM97.3,26.4l-.6-1.5h-.6v2h.4v-1.6h0l.6,1.6h.2l.6-1.6h0v1.6h.4v-2h-.6l-.6,1.5h0ZM91.2,28.5c-.5,1.9-2.2,1.5-7.3,1.6-3.7.1-7.7.4-7.7.4l-3.1,5.9c-1.4,2.6-4.6,3.5-5.1,3.2-.4-.2.2-1.3.2-1.3l3.8-7.4c-1.5.1-6.8.9-10.7,1.4-2.6.4-4.7.7-4.7.7-17.3,3.2-24.8,6.2-24.8,6.2l-10.6,3.4s-2.4.6-3.7,0c-.2,0-.3-.2-.4-.3v-.2c.2-.5,1.6-.9,1.6-.9,0,0,4.8-2.3,19.1-6,7.3-1.9,16.3-3.5,23.4-4.6,6.9-1.1,11.9-1.7,11.9-1.7l3.5-7-2.7,1.9c-.7.5-1.6.8-2.4.7-1.3-.2-.6-2.8-.6-2.8l.6-2.2c0-.1,0-.3,0-.4l-.8.9s-6.4,7.6-8.4,6.5c-2-1,0-5.6,0-5.6h-.2c0-.1-1,1-1,1l-2.5,2.8s-4.4,4.6-6.3,4.1c-2-.4-.9-4.4-.9-4.4l-.2-.2-2.8,2.9s-3.2,3.4-4.7,3.1c-1.5-.2-.7-3.3-.7-3.3l-.2-.2-4.6,5.4c-.4.6-1.2.8-1.7.4,0,0,0,0-.1,0-1.3-.8.5-5.6.6-6,.1-.3,0-.3,0-.3-.7.5-4.8,6.4-5.6,7.8-.8,1.4-1.8,1.1-1.8,1.1-1.8-.6-1.2-2.9-.5-4.6.7-1.7,2.8-6.2,2.8-6.2-3,2.7-8.7,11.4-8.7,11.4,0,0-.7,1.2-1.6,1.1-.5-.1-1-.5-1.2-1.1-.2-1,0-2.1.6-3,1-1.7,3.5-7.2,3.8-7.8.3-.6,1.8-4.4,1.8-4.4,0,0,.5-1,1.8.2,1.3,1.2-.1,4.5-.1,4.5l.8-.8s3.9-4.1,5.8-3.8c1.9.3,1.1,2.7,1.1,2.7,0,0-.6,1.3,0,.6.7-.7,3.2-2.8,3.2-2.8.6-.5,1.4-.7,2.1-.6,1.6.6.6,2.6.6,2.6l-.9,2-.6,1.4c-.7,1.4.7-.2.7-.2.8-.9,1.8-2.3,2.5-3.2s2-2.9,3-4.3c.5-.8,1.5-1.3,2.5-1,1.2.3.5,1.5.2,2.2-.3.6-2.5,5.6-2.5,5.6-.4,1-.1.8-.1.8,0,0,.2,0,.5-.3.4-.3,1.7-1.9,1.7-1.9,1.6-1.8,6.1-9,6.1-9l1.9-3.7-14.6,3.1c-.3,0-.6,0-1,0l-.7-.2c-.7-.2,0-.5,0-.5l5.9-1.7s10.4-2.5,10.8-2.5c.3,0,.6-.2.8-.3l2.3-4.8c.2-.5.5-.9.9-1.3.3-.4.7-.7,1.1-.9,0,0,1.4-.9,2.4-.8,1.1.2-.6,2.7-.6,2.7l-2.3,4.4,7-1.4,2.5-4.8c.5-.7,1.1-1.2,1.8-1.7,1.7-1,2.4-.8,2.4-.8,1,.3.1,1.5.1,1.5l-2.5,4.9,6.8-1.3s1.1-.2,1.1.5c0,.7-1,.8-1,.8l-7.9,1.7-3.3,6.8-3.6,7.5c-.7,1.3.3.6.3.6,0,0,1.2-1,3-2.7,1.7-1.8,3.2-3.6,4.6-5.6.3-.5,1.9-2.8,2.2-3.4.3-.4.6-.7,1-.9.7-.4,1.6-.6,2.4-.4,0,0,.6.3-.2,1.7-.8,1.4-2.9,5.9-2.9,5.9l-.8,2.1c-.8,1.7.4.6.4.6l1.3-1.2c2.5-2.1,6.3-8,6.6-8.7.2-.4.6-.8,1-1.1.8-.3,1.6-.4,2.4-.3.9.2.2,1.5.2,1.5l-9.4,17.9,12-.8c1.5,0,2,.3,1.8,1h0ZM64.6,15.4s2.2-4,3.3-6.3l-6.8,1.4s-5,10.6-5.8,12.4c-.3.7-.6,1.3-.7,2,0,0,0,.5.7-.1,2.1-1.6,4.1-3.3,5.9-5.2,0,0,0,0,0,0,1.2-1.3,2.4-2.7,3.4-4.2Z" fill="white"></path><path d="M35.1,40.6v4.2h-1.4v-4.2h-1.2v-1.2h3.7v1.2h-1.2,0ZM40.4,43.9h-2l-.3.9h-1.5l2.1-5.4h1.5l2.1,5.4h-1.5s-.3-.9-.3-.9ZM40,42.8l-.6-1.8-.6,1.8h1.3ZM44.7,41.7l1.7-2.2h1.7l-2.1,2.6,2.3,2.9h-1.8l-1.8-2.4v2.4h-1.4v-5.4h1.4v2.2h0ZM52.5,40.6h-1.7v.9h1.6v1.2h-1.6v.9h1.7v1.2h-3.1v-5.4h3.1v1.2ZM53.7,42.1c0-.4,0-.8.2-1.1s.4-.7.6-.9.6-.5.9-.6.8-.2,1.2-.2.8,0,1.2.2c.4.1.7.3.9.6.3.3.5.6.6.9s.2.7.2,1.1,0,.8-.2,1.1-.4.7-.6.9c-.3.3-.6.5-.9.6s-.8.2-1.2.2-.8,0-1.2-.2c-.4-.1-.7-.3-.9-.6-.3-.3-.5-.6-.6-.9s-.2-.7-.2-1.1ZM55.2,42.1c0,.2,0,.4.1.6s.2.3.3.5.3.2.5.3c.2,0,.4.1.6.1s.4,0,.6-.1c.2,0,.3-.2.5-.3s.3-.3.3-.5.1-.4.1-.6,0-.4-.1-.6-.2-.3-.3-.5-.3-.2-.5-.3c-.2,0-.4-.1-.6-.1s-.4,0-.6.1-.3.2-.5.3-.2.3-.3.5c0,.2-.1.4-.1.6ZM62.5,39.4v2.9c0,.2,0,.3,0,.5s0,.3.1.4c0,.1.2.2.3.3.1,0,.3.1.5.1s.4,0,.5-.1.2-.2.3-.3.1-.3.1-.4c0-.2,0-.3,0-.5v-2.9h1.4v3.1c0,.8-.2,1.5-.6,1.8-.4.4-1,.6-1.8.6s-1.4-.2-1.8-.6-.6-1-.6-1.8v-3.1h1.4,0ZM69.5,40.6v4.2h-1.4v-4.2h-1.2v-1.2h3.7v1.2h-1.2,0Z" fill="white"></path></svg> 