<?xml version="1.0" encoding="UTF-8"?>
<svg xmlns="http://www.w3.org/2000/svg" viewBox="0 0 2567.91 805.14">
  <g id="Titre">
    <g>
      <path d="M831.52,594.1c-4.62-3.1-9.74-5.67-15.34-7.72-5.61-2.04-11.12-3.86-16.53-5.44-4.62-1.45-8.78-2.94-12.47-4.46-3.7-1.52-6.67-3.37-8.91-5.54-2.25-2.18-3.37-5.11-3.37-8.81,0-3.3.99-6.2,2.97-8.71,1.98-2.51,4.62-4.42,7.92-5.74,3.3-1.32,6.93-1.91,10.89-1.78,3.56,0,6.96.63,10.2,1.88,3.23,1.26,5.97,2.94,8.22,5.05,2.24,2.11,3.69,4.62,4.36,7.52l24.75-6.73c-2.11-6.47-5.38-11.91-9.8-16.33-4.42-4.42-9.87-7.79-16.33-10.1-6.47-2.31-13.73-3.46-21.78-3.46-9.5,0-17.89,1.52-25.15,4.55-7.26,3.04-12.97,7.52-17.13,13.46-4.16,5.94-6.24,13.14-6.24,21.58,0,6.73,1.22,12.31,3.66,16.73,2.44,4.42,5.74,8.02,9.9,10.79,4.16,2.77,8.84,5.08,14.06,6.93,5.21,1.85,10.46,3.56,15.74,5.15,5.67,1.72,10.66,3.5,14.95,5.35,4.29,1.85,7.62,4.09,10,6.73,2.38,2.64,3.56,5.94,3.56,9.9,0,5.02-1.92,9.27-5.74,12.77-3.83,3.5-9.64,5.25-17.42,5.25-4.75,0-8.94-.76-12.57-2.28-3.63-1.52-6.57-3.66-8.81-6.43-2.25-2.77-3.7-6-4.36-9.7l-24.75,6.93c1.45,7,4.55,13.04,9.31,18.12,4.75,5.08,10.79,8.94,18.12,11.58,7.33,2.64,15.48,3.96,24.45,3.96,10.95,0,20.06-1.85,27.32-5.54,7.26-3.69,12.7-8.64,16.33-14.85,3.63-6.2,5.45-13.13,5.45-20.79,0-7.26-1.42-13.27-4.26-18.02-2.84-4.75-6.57-8.68-11.19-11.78Z" style="fill: #1c365b;"/>
      <path d="M982.4,543.51c-6.47-6.34-13.96-11.22-22.47-14.65-8.51-3.43-17.72-5.15-27.62-5.15s-18.94,1.72-27.52,5.15c-8.58,3.43-16.07,8.32-22.47,14.65-6.4,6.34-11.42,13.79-15.05,22.37-3.63,8.58-5.44,18.09-5.44,28.51s1.81,19.97,5.44,28.61c3.63,8.65,8.64,16.11,15.05,22.37,6.4,6.27,13.89,11.12,22.47,14.55,8.58,3.43,17.75,5.15,27.52,5.15s19.11-1.71,27.62-5.15c8.51-3.43,16-8.28,22.47-14.55,6.47-6.27,11.51-13.73,15.15-22.37,3.63-8.64,5.44-18.18,5.44-28.61s-1.82-19.93-5.44-28.51c-3.63-8.58-8.68-16.04-15.15-22.37ZM970.22,619.54c-3.76,7.13-8.91,12.71-15.44,16.73-6.53,4.03-13.96,6.04-22.27,6.04s-16.14-1.98-22.67-5.94c-6.53-3.96-11.65-9.57-15.34-16.83-3.7-7.26-5.54-15.64-5.54-25.15s1.85-18.02,5.54-25.15c3.69-7.13,8.81-12.7,15.34-16.73,6.53-4.03,14.09-6.04,22.67-6.04s15.74,2.01,22.27,6.04c6.53,4.03,11.68,9.6,15.44,16.73,3.76,7.13,5.64,15.51,5.64,25.15s-1.88,18.02-5.64,25.15Z" style="fill: #1c365b;"/>
      <polygon points="1023.19 663.7 1049.92 663.7 1049.92 604.29 1102.78 604.29 1102.78 582.71 1049.92 582.71 1049.92 547.47 1120.6 547.47 1120.6 525.1 1023.19 525.1 1023.19 663.7" style="fill: #1c365b;"/>
      <path d="M1220.29,607.07c6.27-2.51,11.39-5.84,15.35-10s6.86-8.78,8.71-13.86c1.85-5.08,2.77-10.2,2.77-15.34,0-7.65-1.82-14.75-5.44-21.29-3.63-6.53-9.11-11.75-16.43-15.64-7.33-3.89-16.6-5.84-27.82-5.84h-57.02v138.6h26.73v-52.87h22.2l30.67,52.87h29.9l-33.5-55.3c1.35-.4,2.66-.83,3.9-1.33ZM1167.13,547.47h29.5c7.92,0,13.76,1.85,17.52,5.54,3.76,3.7,5.64,8.65,5.64,14.85,0,4.23-.83,7.89-2.47,10.99-1.65,3.1-4.19,5.48-7.62,7.13-3.43,1.65-7.79,2.47-13.07,2.47h-29.5v-40.99Z" style="fill: #1c365b;"/>
      <polygon points="1270.29 663.7 1367.7 663.7 1367.7 641.32 1297.02 641.32 1297.02 604.29 1349.88 604.29 1349.88 582.71 1297.02 582.71 1297.02 547.47 1367.7 547.47 1367.7 525.1 1270.29 525.1 1270.29 663.7" style="fill: #1c365b;"/>
      <path d="M1484.72,631.62c-4.49,3.96-9.34,6.77-14.55,8.42-5.22,1.65-10.46,2.48-15.74,2.48-8.45,0-15.97-2.05-22.57-6.14-6.6-4.09-11.72-9.73-15.35-16.93-3.63-7.19-5.44-15.54-5.44-25.05s1.81-17.88,5.44-25.15c3.63-7.26,8.74-12.9,15.35-16.93,6.6-4.03,14.12-6.04,22.57-6.04,5.15,0,10.23.79,15.25,2.38,5.02,1.58,9.67,4.09,13.96,7.52,4.29,3.43,7.89,7.92,10.79,13.46l22.37-6.53c-5.54-12.67-13.83-22.41-24.85-29.21-11.02-6.8-23.66-10.2-37.92-10.2-9.9,0-19.11,1.72-27.62,5.15-8.51,3.43-15.94,8.29-22.28,14.55-6.34,6.27-11.25,13.73-14.75,22.37-3.5,8.65-5.25,18.19-5.25,28.61s1.75,19.77,5.25,28.41c3.5,8.65,8.42,16.14,14.75,22.47s13.76,11.22,22.28,14.65c8.51,3.43,17.72,5.15,27.62,5.15,14.65,0,27.59-3.59,38.81-10.79,11.22-7.19,19.67-17.98,25.34-32.37l-21.98-6.14c-3.17,6.6-7,11.88-11.48,15.84Z" style="fill: #1c365b;"/>
      <path d="M1669.75,565.88c-3.63-8.58-8.68-16.04-15.15-22.37-6.47-6.34-13.96-11.22-22.47-14.65-8.51-3.43-17.72-5.15-27.62-5.15s-18.94,1.72-27.52,5.15c-8.58,3.43-16.07,8.32-22.47,14.65-6.4,6.34-11.42,13.79-15.05,22.37-3.63,8.58-5.45,18.09-5.45,28.51s1.81,19.97,5.45,28.61c3.63,8.65,8.64,16.11,15.05,22.37,6.4,6.27,13.89,11.12,22.47,14.55,8.58,3.43,17.75,5.15,27.52,5.15s19.11-1.71,27.62-5.15c8.51-3.43,16-8.28,22.47-14.55,6.47-6.27,11.52-13.73,15.15-22.37,3.63-8.64,5.44-18.18,5.44-28.61s-1.82-19.93-5.44-28.51ZM1642.42,619.54c-3.76,7.13-8.91,12.71-15.44,16.73-6.53,4.03-13.96,6.04-22.27,6.04s-16.14-1.98-22.67-5.94c-6.53-3.96-11.65-9.57-15.35-16.83-3.7-7.26-5.54-15.64-5.54-25.15s1.85-18.02,5.54-25.15c3.69-7.13,8.81-12.7,15.35-16.73,6.53-4.03,14.09-6.04,22.67-6.04s15.74,2.01,22.27,6.04c6.53,4.03,11.68,9.6,15.44,16.73s5.64,15.51,5.64,25.15-1.88,18.02-5.64,25.15Z" style="fill: #1c365b;"/>
    </g>
  </g>
  <g id="Logotype">
    <path d="M2171.51,142.34s126.78,0,149.91,0c66.19,0,98.69,55.76,98.15,96.02-.45,33.65-22.43,72.2-72.38,87.82l79.28,115.34h-37.92c-17.48,0-33.81-8.7-43.57-23.2l-48.11-71.49c-6.67-10.34-18.13-16.58-30.44-16.58h-38.72v56.49c0,30.22-25.98,54.68-56.2,54.55V142.34ZM2323.77,194.73h-96.06v82.77h96.06c22.86,0,41.39-18.53,41.39-41.39h0c0-22.86-18.53-41.39-41.39-41.39Z" style="fill: #1c365b;"/>
    <path d="M906.86,261.06h159.99v39.97c0,16.12-3.01,31.71-9.04,46.78-6.03,15.06-15.1,29.9-27.23,44.49-15.39,18.51-33.33,32.32-53.8,41.44s-43.56,13.67-69.27,13.67c-22.65,0-43.35-3.76-62.08-11.27-18.73-7.51-35.87-18.82-51.41-33.93-30.71-30.06-46.07-67.06-46.07-110.98s15.57-80.89,46.72-110.87c30.64-29.98,68.25-44.98,112.83-44.98,24.68,0,47.92,5.09,69.7,15.25,10.82,5.15,20.95,11.6,30.39,19.33,9.44,7.73,18.26,16.9,26.47,27.5-6.32,6.1-13.14,10.75-20.48,13.94-3.12,1.38-6.53,2.48-10.24,3.32-3.7.84-7.59,1.17-11.65.98-4.07-.19-8.32-.98-12.74-2.4-4.43-1.42-8.97-3.72-13.61-6.92-8.21-6.18-17.1-10.81-26.68-13.94-9.58-3.13-20.04-4.68-31.37-4.68-27.16,0-50.9,10.02-71.23,30.06-20.26,20.12-30.39,44.58-30.39,73.41,0,14.45,2.52,27.75,7.57,39.92,5.05,12.17,12.65,23.33,22.82,33.49,10.24,10.16,21.24,17.77,33,22.82,11.76,5.04,24.5,7.57,38.23,7.57,12.63,0,24.36-1.78,35.18-5.34,10.82-3.56,20.76-8.96,29.84-16.23,17.93-13.94,29.88-33.73,35.83-59.36h-48.21c-29.3,0-53.05-23.74-53.07-53.04h0Z" style="fill: #1c365b;"/>
    <path d="M1175.33,197.56v243.96h-55.22V142.34h0c30.5,0,55.22,24.72,55.22,55.22Z" style="fill: #1c365b;"/>
    <path d="M1441.83,324.77v-182.43h0c29.41,0,56.2,23.84,56.2,53.26v209.69c0,24.73-11.23,36.23-21.45,36.23h0l-173.73-174.37v174.37h0c-31.04,0-56.2-25.16-56.2-56.2v-204.85c.84-24.19,8.84-38.13,19.75-38.13h0l175.42,182.43Z" style="fill: #1c365b;"/>
    <path d="M1926.74,261.82h120.35s0-67.2,0-67.2h-120.35c-28.87,0-52.28-23.41-52.28-52.28h0s228.83,0,228.83,0v299.18h-228.83c0-28.87,23.41-52.28,52.28-52.28h120.35s0-74.93,0-74.93h-67.78c-29,0-52.53-23.49-52.57-52.49h0Z" style="fill: #96c63e;"/>
    <path d="M1701.37,261.06h159.99v39.97c0,16.12-3.01,31.71-9.04,46.78-6.03,15.06-15.1,29.9-27.23,44.49-15.39,18.51-33.33,32.32-53.8,41.44-20.48,9.12-43.56,13.67-69.27,13.67-22.65,0-43.35-3.76-62.08-11.27-18.73-7.51-35.87-18.82-51.41-33.93-30.71-30.06-46.07-67.06-46.07-110.98s15.57-80.89,46.72-110.87c30.64-29.98,68.25-44.98,112.83-44.98,24.68,0,47.92,5.09,69.7,15.25,10.82,5.15,20.95,11.6,30.39,19.33,9.44,7.73,18.26,16.9,26.47,27.5-6.32,6.1-13.14,10.75-20.48,13.94-3.12,1.38-6.53,2.48-10.24,3.32-3.7.84-7.59,1.17-11.65.98-4.07-.19-8.32-.98-12.74-2.4-4.43-1.42-8.97-3.72-13.61-6.92-8.21-6.18-17.1-10.81-26.68-13.94-9.58-3.13-20.04-4.68-31.37-4.68-27.16,0-50.9,10.02-71.23,30.06-20.26,20.12-30.39,44.58-30.39,73.41,0,14.45,2.52,27.75,7.57,39.92,5.05,12.17,12.65,23.33,22.82,33.49,10.24,10.16,21.24,17.77,33,22.82,11.76,5.04,24.5,7.57,38.23,7.57,12.63,0,24.36-1.78,35.18-5.34,10.82-3.56,20.76-8.96,29.84-16.23,17.93-13.94,29.88-33.73,35.83-59.36h-48.21c-29.3,0-53.05-23.74-53.07-53.04h0Z" style="fill: #1c365b;"/>
    <path d="M141.44,142.4h521.32C466.27,529.15,141.44,663.72,141.44,663.72V142.4Z" style="fill: #1c365b;"/>
    <path d="M662.76,663.72h-349.53s226.41-127.51,349.53-478.88v478.88Z" style="fill: #96c63e;"/>
  </g>
</svg>