<?xml version="1.0" encoding="utf-8"?>
<!-- Generator: Adobe Illustrator 27.0.1, SVG Export Plug-In . SVG Version: 6.00 Build 0)  -->
<svg version="1.1" id="Ebene_1" xmlns="http://www.w3.org/2000/svg" xmlns:xlink="http://www.w3.org/1999/xlink" x="0px" y="0px"
	 viewBox="0 0 232.6 68" style="enable-background:new 0 0 232.6 68;" xml:space="preserve">
<style type="text/css">
	.st0{fill:#EE7203;}
	.st1{enable-background:new    ;}
</style>
<polygon class="st0" points="105.9,6.4 82.8,6.4 82.8,13.3 89.9,13.3 89.9,36 98.9,36 98.9,13.3 105.9,13.3 "/>
<g>
	<path class="st0" d="M18.5,42.5c-0.1,0-0.2,0-0.3-0.1c-0.1-0.1-0.1-0.3,0-0.5l0.1-0.1c1-1.4,9.6-14.1,12.3-23.3
		c2-6.9,0.1-11.1-0.5-12.2l0-0.1c-0.1-0.1-0.1-0.3,0-0.4c0.1-0.1,0.2-0.1,0.3-0.1c0,0,0.1,0,0.1,0l0.1,0c2.9,0.9,17.3,5.6,17.3,13.7
		c0,12-27.8,22.5-29,23C18.7,42.5,18.5,42.5,18.5,42.5"/>
	<path class="st0" d="M220.9,5.6c-4.8,0-9.4,1.7-12.3,4.5c-2.9,2.8-4.3,6.6-4.3,11.3c0,12.2,10.5,15.4,16.1,15.4s10.2-1.6,10.9-1.8
		V20h-8.6v9.9c-0.3,0.1-0.9,0.4-1.9,0.4c-1.2,0-7.3-0.4-7.3-8.6c0-6.4,2.6-9.5,8.1-9.5c2.5,0,5.4,0.9,7.4,1.5l0.9-6.5
		C227.7,6.4,224.2,5.6,220.9,5.6"/>
	<path class="st0" d="M82.4,27c0-6.1-5.4-7.9-9-9.2l-1.7-0.6c-2.3-0.8-4.1-1.5-4-3.2c0.1-1.3,1.3-2,3.7-2c2.9,0,6.9,1.2,7.8,1.4
		l1-6.3c-2.4-0.9-5.5-1.5-9-1.5c-3.3,0-7.7,0.5-10.4,3.2c-1.5,1.5-2.3,3.5-2.3,6c0,5.5,4.9,7.4,8.5,8.7l3.1,1.2
		c1.9,0.7,3.3,1.3,3.1,3.2c-0.2,2.2-2.9,2.5-4,2.5c-2.3,0-7.8-1.5-9.8-2.1l-1,6.6c0.9,0.3,6.2,1.8,9.8,1.9c5.3,0.2,9.2-0.8,11.6-3
		C81.5,32.2,82.4,29.9,82.4,27"/>
	<path class="st0" d="M29.2,0c0.1,0,0.2,0.1,0.3,0.1c0.1,0.1,0.1,0.3,0,0.4l-0.1,0.1c-1,1.4-9.6,14.1-12.3,23.3
		c-2,6.9-0.1,11.1,0.5,12.2l0,0.1c0.1,0.1,0.1,0.3,0,0.4c-0.1,0.1-0.2,0.1-0.3,0.1c0,0-0.1,0-0.1,0l-0.1,0C14.4,35.9,0,31.2,0,23
		C0,11,27.8,0.5,29,0.1C29.1,0.1,29.2,0,29.2,0"/>
	<path class="st0" d="M166.9,6.4l-2.8,11.8c-0.3,1.2-1.7,7.5-1.7,7.7c0-0.2-1.4-6.5-1.7-7.7l-2.8-11.8h-8l-2.8,11.8
		c-0.3,1.2-1.7,7.5-1.7,7.7c0-0.2-1.4-6.5-1.7-7.7l-2.8-11.8h-8.7l8,29.5h9.3l2.5-9.5c0.3-1.2,1.8-7.5,1.9-7.7
		c0,0.2,1.6,6.5,1.9,7.7l2.5,9.5h9.3l8-29.5L166.9,6.4L166.9,6.4z"/>
</g>
<path class="st0" d="M123.3,6.4h-8.9L103.3,36h9l1.6-4.6H124l1.6,4.6h9L123.3,6.4L123.3,6.4z M115.7,25.2l3.2-9.4l3.2,9.4H115.7z"/>
<path class="st0" d="M193,6.4h-8.9L172.9,36h9l1.6-4.6h10.1l1.6,4.6h9L193,6.4L193,6.4z M185.3,25.2l3.2-9.4l3.2,9.4H185.3
	L185.3,25.2z"/>
<g class="st1">
	<path class="st0" d="M62.3,64.4c-0.8,0-1.5-0.1-2.1-0.3c-0.6-0.2-1.1-0.5-1.5-0.7c-0.3-0.2-0.5-0.5-0.5-0.9c0-0.2,0.1-0.5,0.3-0.6
		c0.2-0.2,0.4-0.3,0.7-0.3c0.2,0,0.4,0.1,0.7,0.2c0.4,0.3,0.9,0.5,1.3,0.6c0.4,0.1,0.9,0.2,1.4,0.2c0.7,0,1.3-0.2,1.7-0.5
		c0.4-0.3,0.6-0.7,0.6-1.2c0-0.4-0.1-0.8-0.4-1s-0.9-0.5-1.7-0.6L62,59.2c-2.4-0.3-3.5-1.4-3.5-3.3c0-0.5,0.1-1,0.3-1.4
		c0.2-0.4,0.4-0.8,0.8-1.1c0.3-0.3,0.8-0.5,1.2-0.7c0.5-0.2,1-0.2,1.6-0.2c0.6,0,1.2,0.1,1.8,0.2c0.6,0.1,1,0.3,1.4,0.6
		c0.3,0.2,0.5,0.5,0.5,0.8c0,0.3-0.1,0.5-0.2,0.6c-0.2,0.2-0.4,0.2-0.6,0.2c-0.1,0-0.2,0-0.3,0s-0.2-0.1-0.3-0.1
		c-0.3-0.2-0.7-0.3-1-0.4c-0.4-0.1-0.7-0.1-1.1-0.1c-0.6,0-1.1,0.1-1.4,0.4c-0.3,0.3-0.5,0.7-0.5,1.1c0,0.4,0.2,0.8,0.5,1
		c0.3,0.3,0.9,0.4,1.6,0.6l0.6,0.1c1.2,0.2,2.1,0.5,2.7,1.1c0.6,0.6,0.9,1.3,0.9,2.3c0,0.5-0.1,1-0.3,1.4c-0.2,0.4-0.5,0.8-0.8,1.1
		c-0.4,0.3-0.8,0.6-1.4,0.7C63.7,64.3,63.1,64.4,62.3,64.4z"/>
</g>
<g class="st1">
	<path class="st0" d="M68.6,54.4c-0.3,0-0.6-0.1-0.8-0.3c-0.2-0.2-0.3-0.4-0.3-0.7s0.1-0.5,0.3-0.7c0.2-0.2,0.4-0.3,0.8-0.3h6.9
		c0.3,0,0.6,0.1,0.8,0.3c0.2,0.2,0.3,0.4,0.3,0.7s-0.1,0.5-0.3,0.7c-0.2,0.2-0.4,0.3-0.8,0.3h-2.3c-0.1,0-0.1,0-0.1,0.1v8.8
		c0,0.3-0.1,0.6-0.3,0.8c-0.2,0.2-0.4,0.3-0.7,0.3s-0.5-0.1-0.7-0.3S71,63.6,71,63.2v-8.8c0-0.1,0-0.1-0.1-0.1H68.6z"/>
</g>
<g class="st1">
	<path class="st0" d="M76,63.4c0-0.1,0-0.1,0-0.2c0-0.1,0-0.1,0.1-0.2l3.4-9.4c0.1-0.4,0.3-0.6,0.5-0.8c0.2-0.2,0.5-0.3,0.8-0.3
		s0.6,0.1,0.8,0.3c0.2,0.2,0.4,0.5,0.5,0.8l3.4,9.4c0,0.1,0,0.1,0.1,0.2s0,0.1,0,0.2c0,0.3-0.1,0.5-0.3,0.7
		c-0.2,0.2-0.4,0.2-0.7,0.2c-0.2,0-0.4-0.1-0.6-0.2c-0.2-0.1-0.3-0.3-0.4-0.5L83,61.8h-4.5l-0.6,1.8c-0.1,0.2-0.2,0.4-0.4,0.5
		c-0.2,0.1-0.4,0.2-0.6,0.2c-0.3,0-0.5-0.1-0.7-0.2C76.1,63.9,76,63.7,76,63.4z M82.4,60l-1.6-4.5h-0.1L79.2,60H82.4z"/>
	<path class="st0" d="M96.7,63.2c-0.1,0.4-0.2,0.7-0.4,0.8s-0.4,0.2-0.7,0.2s-0.5-0.1-0.7-0.2c-0.2-0.2-0.3-0.4-0.4-0.8l-2-7.2h0
		l-2,7.2c-0.1,0.4-0.2,0.6-0.4,0.8c-0.2,0.2-0.4,0.2-0.7,0.2s-0.5-0.1-0.7-0.2c-0.2-0.2-0.3-0.4-0.4-0.8l-2.5-9.4
		c0-0.1-0.1-0.3-0.1-0.4c0-0.3,0.1-0.5,0.3-0.7c0.2-0.2,0.4-0.3,0.7-0.3c0.3,0,0.5,0.1,0.6,0.2c0.2,0.1,0.3,0.4,0.4,0.7l1.8,7.2h0
		l2-7.2c0.2-0.6,0.5-0.9,1-0.9s0.8,0.3,1,0.9l2,7.2h0l1.7-7.2c0.1-0.3,0.2-0.6,0.4-0.7c0.2-0.1,0.4-0.2,0.6-0.2
		c0.3,0,0.5,0.1,0.7,0.3c0.2,0.2,0.3,0.4,0.3,0.7c0,0.1,0,0.3-0.1,0.4L96.7,63.2z"/>
</g>
<g class="st1">
	<path class="st0" d="M100.1,63.4c0-0.1,0-0.1,0-0.2c0-0.1,0-0.1,0.1-0.2l3.4-9.4c0.1-0.4,0.3-0.6,0.5-0.8c0.2-0.2,0.5-0.3,0.8-0.3
		s0.6,0.1,0.8,0.3c0.2,0.2,0.4,0.5,0.5,0.8l3.4,9.4c0,0.1,0,0.1,0.1,0.2s0,0.1,0,0.2c0,0.3-0.1,0.5-0.3,0.7
		c-0.2,0.2-0.4,0.2-0.7,0.2c-0.2,0-0.4-0.1-0.6-0.2c-0.2-0.1-0.3-0.3-0.4-0.5l-0.6-1.8h-4.5l-0.6,1.8c-0.1,0.2-0.2,0.4-0.4,0.5
		c-0.2,0.1-0.4,0.2-0.6,0.2c-0.3,0-0.5-0.1-0.7-0.2C100.2,63.9,100.1,63.7,100.1,63.4z M106.5,60l-1.6-4.5h-0.1l-1.6,4.5H106.5z"/>
	<path class="st0" d="M111.5,61.6c-0.1-0.2-0.1-0.4-0.2-0.6c0-0.2-0.1-0.4-0.1-0.7s0-0.5-0.1-0.8c0-0.3,0-0.7,0-1.1s0-0.8,0-1.1
		c0-0.3,0-0.6,0.1-0.8c0-0.2,0.1-0.5,0.1-0.7c0-0.2,0.1-0.4,0.2-0.6c0.3-0.9,0.8-1.6,1.5-2.1c0.7-0.5,1.6-0.7,2.6-0.7
		c0.9,0,1.7,0.2,2.3,0.5s1.1,0.8,1.4,1.3c0.1,0.2,0.2,0.4,0.2,0.6c0,0.3-0.1,0.5-0.3,0.7c-0.2,0.2-0.4,0.3-0.7,0.3
		c-0.2,0-0.3,0-0.5-0.1c-0.1-0.1-0.3-0.2-0.4-0.4c-0.5-0.7-1.2-1-2.1-1c-0.6,0-1.1,0.1-1.4,0.4s-0.6,0.7-0.8,1.1
		c0,0.1-0.1,0.3-0.1,0.4c0,0.1-0.1,0.3-0.1,0.5c0,0.2,0,0.4,0,0.7c0,0.3,0,0.6,0,1s0,0.7,0,1c0,0.3,0,0.5,0,0.7c0,0.2,0,0.4,0.1,0.5
		c0,0.1,0.1,0.3,0.1,0.4c0.2,0.5,0.4,0.9,0.8,1.1c0.4,0.3,0.8,0.4,1.4,0.4c0.5,0,1-0.1,1.4-0.4c0.4-0.3,0.6-0.6,0.8-1.1
		c0.1-0.2,0.1-0.4,0.1-0.7c0-0.3,0-0.5,0-0.8c0-0.1,0-0.1-0.1-0.1h-1.3c-0.3,0-0.5-0.1-0.7-0.2s-0.2-0.4-0.2-0.6
		c0-0.3,0.1-0.5,0.2-0.6s0.4-0.2,0.7-0.2h2.6c0.3,0,0.5,0.1,0.6,0.2c0.1,0.1,0.2,0.3,0.2,0.6V59c0,0.5,0,0.9-0.1,1.4
		c0,0.5-0.1,0.9-0.2,1.2c-0.3,0.9-0.8,1.6-1.5,2.1c-0.7,0.5-1.6,0.7-2.6,0.7c-1,0-1.9-0.2-2.6-0.7C112.3,63.2,111.8,62.5,111.5,61.6
		z"/>
	<path class="st0" d="M126.4,53.5c0-0.3,0.1-0.5,0.2-0.7s0.4-0.2,0.7-0.2h5.8c0.3,0,0.6,0.1,0.8,0.3c0.2,0.2,0.3,0.4,0.3,0.7
		s-0.1,0.5-0.3,0.7c-0.2,0.2-0.4,0.3-0.8,0.3h-4.6c-0.1,0-0.1,0-0.1,0.1v2.8c0,0.1,0,0.1,0.1,0.1h3.7c0.3,0,0.6,0.1,0.8,0.3
		c0.2,0.2,0.3,0.4,0.3,0.7c0,0.3-0.1,0.5-0.3,0.7c-0.2,0.2-0.4,0.3-0.8,0.3h-3.7c-0.1,0-0.1,0-0.1,0.1v2.9c0,0.1,0,0.1,0.1,0.1h4.6
		c0.3,0,0.6,0.1,0.8,0.3c0.2,0.2,0.3,0.4,0.3,0.7c0,0.3-0.1,0.5-0.3,0.7c-0.2,0.2-0.4,0.3-0.8,0.3h-5.8c-0.3,0-0.5-0.1-0.7-0.2
		c-0.2-0.2-0.2-0.4-0.2-0.7V53.5z"/>
	<path class="st0" d="M138,56.7c0.2-0.3,0.5-0.5,0.9-0.7c0.4-0.2,0.8-0.3,1.3-0.3c0.4,0,0.8,0.1,1.2,0.2s0.6,0.4,0.9,0.6
		c0.3,0.3,0.4,0.6,0.6,1c0.1,0.4,0.2,0.8,0.2,1.2v4.5c0,0.3-0.1,0.6-0.3,0.7c-0.2,0.2-0.4,0.3-0.7,0.3c-0.3,0-0.5-0.1-0.7-0.3
		c-0.2-0.2-0.3-0.4-0.3-0.7v-4c0-0.5-0.1-1-0.4-1.3c-0.3-0.3-0.6-0.5-1.2-0.5c-0.5,0-0.9,0.2-1.2,0.5c-0.3,0.3-0.4,0.8-0.4,1.3v4
		c0,0.3-0.1,0.6-0.3,0.7c-0.2,0.2-0.4,0.3-0.7,0.3s-0.5-0.1-0.7-0.3c-0.2-0.2-0.3-0.4-0.3-0.7v-6.4c0-0.3,0.1-0.6,0.3-0.7
		c0.2-0.2,0.4-0.3,0.7-0.3s0.5,0.1,0.7,0.2C137.9,56.3,138,56.5,138,56.7L138,56.7z"/>
	<path class="st0" d="M148.8,64.4c-0.9,0-1.6-0.2-2.2-0.6c-0.6-0.4-1-1-1.2-1.7c-0.1-0.3-0.2-0.6-0.2-0.9c-0.1-0.3-0.1-0.7-0.1-1.1
		s0-0.8,0.1-1.1c0-0.3,0.1-0.6,0.2-0.9c0.2-0.7,0.6-1.3,1.2-1.7s1.3-0.6,2.1-0.6c0.9,0,1.6,0.2,2.2,0.6c0.6,0.4,1,1,1.2,1.7
		c0.1,0.3,0.2,0.6,0.2,0.9c0,0.3,0.1,0.7,0.1,1.1c0,0.2-0.1,0.4-0.2,0.5s-0.3,0.2-0.5,0.2h-4.6c-0.1,0-0.1,0-0.1,0.1
		c0,0.1,0,0.2,0,0.3c0,0.1,0.1,0.2,0.1,0.3c0.3,0.8,0.9,1.3,1.9,1.3c0.4,0,0.7,0,0.9-0.1c0.3-0.1,0.5-0.2,0.8-0.4
		c0.1-0.1,0.2-0.1,0.3-0.2c0.1-0.1,0.2-0.1,0.4-0.1c0.3,0,0.4,0.1,0.6,0.2s0.2,0.3,0.2,0.6c0,0.3-0.1,0.5-0.4,0.8
		c-0.4,0.3-0.8,0.5-1.3,0.7S149.5,64.4,148.8,64.4z M150.4,59.2c0-0.3,0-0.5-0.1-0.7c-0.1-0.3-0.3-0.6-0.6-0.8
		c-0.3-0.2-0.6-0.3-1-0.3c-0.4,0-0.7,0.1-1,0.3s-0.5,0.4-0.6,0.8c-0.1,0.2-0.1,0.4-0.1,0.7c0,0.1,0,0.1,0.1,0.1h3.3
		C150.4,59.3,150.4,59.2,150.4,59.2z"/>
</g>
<g class="st1">
	<path class="st0" d="M156.4,56.9L156.4,56.9c0.2-0.3,0.5-0.6,0.8-0.8c0.4-0.2,0.8-0.3,1.3-0.3c0.2,0,0.4,0,0.6,0.1
		c0.2,0,0.3,0.1,0.4,0.2c0.3,0.2,0.5,0.4,0.5,0.8c0,0.3-0.1,0.5-0.3,0.7c-0.2,0.2-0.4,0.3-0.7,0.3c-0.1,0-0.3,0-0.4-0.1
		c-0.1,0-0.3-0.1-0.4-0.1s-0.3,0-0.4,0c-0.5,0-0.9,0.2-1.2,0.6c-0.2,0.4-0.4,0.9-0.4,1.5v3.7c0,0.3-0.1,0.6-0.3,0.7
		c-0.2,0.2-0.4,0.3-0.7,0.3c-0.3,0-0.5-0.1-0.7-0.3c-0.2-0.2-0.3-0.4-0.3-0.7v-6.4c0-0.3,0.1-0.6,0.3-0.7c0.2-0.2,0.4-0.3,0.7-0.3
		s0.5,0.1,0.7,0.3C156.3,56.3,156.4,56.6,156.4,56.9L156.4,56.9z"/>
</g>
<g class="st1">
	<path class="st0" d="M164.2,67.5c-0.3,0-0.5,0-0.8-0.1c-0.3-0.1-0.5-0.1-0.8-0.2c-0.2-0.1-0.4-0.2-0.6-0.3s-0.3-0.2-0.5-0.4
		c-0.1-0.1-0.2-0.2-0.2-0.3s-0.1-0.2-0.1-0.3c0-0.2,0.1-0.4,0.2-0.6c0.2-0.2,0.4-0.2,0.6-0.2c0.1,0,0.3,0,0.4,0.1s0.3,0.1,0.4,0.2
		c0.4,0.3,0.9,0.4,1.4,0.4c0.6,0,1-0.2,1.4-0.5c0.3-0.3,0.5-0.8,0.5-1.5V63h0c-0.2,0.3-0.5,0.6-0.8,0.7c-0.4,0.2-0.8,0.2-1.4,0.2
		c-0.7,0-1.3-0.2-1.7-0.5c-0.5-0.4-0.8-0.9-1-1.5c-0.1-0.3-0.2-0.6-0.2-0.9s-0.1-0.7-0.1-1.1c0-0.8,0.1-1.5,0.3-2.1
		c0.2-0.7,0.6-1.2,1-1.5c0.5-0.4,1-0.5,1.7-0.5c0.6,0,1.1,0.1,1.4,0.3c0.4,0.2,0.6,0.4,0.8,0.7h0v-0.2c0-0.2,0.1-0.4,0.3-0.5
		s0.4-0.2,0.6-0.2c0.3,0,0.5,0.1,0.7,0.3c0.2,0.2,0.3,0.4,0.3,0.7v6.7c0,1.3-0.3,2.3-1,3C166.4,67.2,165.4,67.5,164.2,67.5z
		 M166.1,59.9c0-0.5-0.1-0.9-0.2-1.3c-0.1-0.4-0.3-0.6-0.5-0.8c-0.2-0.2-0.5-0.3-0.9-0.3s-0.7,0.1-0.9,0.3c-0.2,0.2-0.4,0.5-0.5,0.8
		c-0.1,0.4-0.2,0.8-0.2,1.3c0,0.5,0.1,1,0.2,1.3c0.1,0.4,0.3,0.6,0.5,0.8c0.2,0.2,0.5,0.3,0.9,0.3s0.7-0.1,0.9-0.3
		c0.2-0.2,0.4-0.5,0.5-0.8C166,60.8,166.1,60.4,166.1,59.9z"/>
	<path class="st0" d="M170.3,53.6c0-0.3,0.1-0.6,0.3-0.8c0.2-0.2,0.5-0.3,0.8-0.3s0.6,0.1,0.8,0.3c0.2,0.2,0.3,0.5,0.3,0.8
		s-0.1,0.6-0.3,0.8c-0.2,0.2-0.5,0.3-0.8,0.3s-0.6-0.1-0.8-0.3S170.3,53.9,170.3,53.6z M171.5,64.3c-0.3,0-0.5-0.1-0.7-0.3
		c-0.2-0.2-0.3-0.4-0.3-0.7v-6.4c0-0.3,0.1-0.6,0.3-0.7c0.2-0.2,0.4-0.3,0.7-0.3s0.5,0.1,0.7,0.3c0.2,0.2,0.3,0.4,0.3,0.7v6.4
		c0,0.3-0.1,0.6-0.3,0.7C172,64.2,171.8,64.3,171.5,64.3z"/>
	<path class="st0" d="M178.2,64.4c-0.9,0-1.6-0.2-2.2-0.6c-0.6-0.4-1-1-1.2-1.7c-0.1-0.3-0.2-0.6-0.2-0.9c-0.1-0.3-0.1-0.7-0.1-1.1
		s0-0.8,0.1-1.1c0-0.3,0.1-0.6,0.2-0.9c0.2-0.7,0.6-1.3,1.2-1.7s1.3-0.6,2.1-0.6c0.9,0,1.6,0.2,2.2,0.6c0.6,0.4,1,1,1.2,1.7
		c0.1,0.3,0.2,0.6,0.2,0.9c0,0.3,0.1,0.7,0.1,1.1c0,0.2-0.1,0.4-0.2,0.5s-0.3,0.2-0.5,0.2h-4.6c-0.1,0-0.1,0-0.1,0.1
		c0,0.1,0,0.2,0,0.3c0,0.1,0.1,0.2,0.1,0.3c0.3,0.8,0.9,1.3,1.9,1.3c0.4,0,0.7,0,0.9-0.1c0.3-0.1,0.5-0.2,0.8-0.4
		c0.1-0.1,0.2-0.1,0.3-0.2c0.1-0.1,0.2-0.1,0.4-0.1c0.3,0,0.4,0.1,0.6,0.2s0.2,0.3,0.2,0.6c0,0.3-0.1,0.5-0.4,0.8
		c-0.4,0.3-0.8,0.5-1.3,0.7S178.9,64.4,178.2,64.4z M179.9,59.2c0-0.3,0-0.5-0.1-0.7c-0.1-0.3-0.3-0.6-0.6-0.8
		c-0.3-0.2-0.6-0.3-1-0.3c-0.4,0-0.7,0.1-1,0.3s-0.5,0.4-0.6,0.8c-0.1,0.2-0.1,0.4-0.1,0.7c0,0.1,0,0.1,0.1,0.1h3.3
		C179.9,59.3,179.9,59.2,179.9,59.2z"/>
	<path class="st0" d="M188,61.6c-0.1-0.2-0.1-0.4-0.2-0.6c0-0.2-0.1-0.4-0.1-0.7c0-0.2,0-0.5-0.1-0.8c0-0.3,0-0.7,0-1.1s0-0.8,0-1.1
		c0-0.3,0-0.6,0.1-0.8c0-0.2,0.1-0.5,0.1-0.7c0-0.2,0.1-0.4,0.2-0.6c0.3-0.9,0.8-1.6,1.5-2.1s1.6-0.7,2.6-0.7c0.9,0,1.7,0.2,2.3,0.5
		s1.1,0.8,1.4,1.3c0.1,0.2,0.2,0.4,0.2,0.6c0,0.3-0.1,0.5-0.3,0.7c-0.2,0.2-0.4,0.3-0.7,0.3c-0.2,0-0.3,0-0.5-0.1
		c-0.1-0.1-0.3-0.2-0.4-0.4c-0.5-0.7-1.2-1-2.1-1c-0.6,0-1.1,0.1-1.4,0.4s-0.6,0.7-0.8,1.1c0,0.1-0.1,0.3-0.1,0.4
		c0,0.1-0.1,0.3-0.1,0.5c0,0.2,0,0.4,0,0.7s0,0.6,0,1s0,0.7,0,1c0,0.3,0,0.5,0,0.7s0,0.4,0.1,0.5c0,0.1,0.1,0.3,0.1,0.4
		c0.2,0.5,0.4,0.9,0.8,1.1s0.8,0.4,1.4,0.4c0.5,0,1-0.1,1.4-0.4c0.4-0.3,0.6-0.6,0.8-1.1c0.1-0.2,0.1-0.4,0.1-0.7c0-0.3,0-0.5,0-0.8
		c0-0.1,0-0.1-0.1-0.1h-1.3c-0.3,0-0.5-0.1-0.7-0.2s-0.2-0.4-0.2-0.6c0-0.3,0.1-0.5,0.2-0.6s0.4-0.2,0.7-0.2h2.6
		c0.3,0,0.5,0.1,0.6,0.2c0.1,0.1,0.2,0.3,0.2,0.6V59c0,0.5,0,0.9-0.1,1.4s-0.1,0.9-0.2,1.2c-0.3,0.9-0.8,1.6-1.5,2.1
		c-0.7,0.5-1.6,0.7-2.6,0.7c-1,0-1.9-0.2-2.6-0.7S188.3,62.5,188,61.6z"/>
	<path class="st0" d="M198.7,56.9c0-0.3,0.1-0.6,0.3-0.7c0.2-0.2,0.4-0.3,0.7-0.3c0.3,0,0.5,0.1,0.7,0.2c0.2,0.2,0.3,0.4,0.3,0.6h0
		c0.2-0.3,0.5-0.5,0.8-0.7s0.8-0.3,1.4-0.3c0.5,0,0.9,0.1,1.3,0.3c0.4,0.2,0.7,0.5,1,0.8h0c0.3-0.3,0.7-0.6,1.1-0.8s0.9-0.3,1.5-0.3
		c0.5,0,0.9,0.1,1.3,0.2c0.4,0.2,0.7,0.4,0.9,0.6c0.3,0.3,0.5,0.6,0.6,1c0.1,0.4,0.2,0.8,0.2,1.2v4.5c0,0.3-0.1,0.6-0.3,0.7
		c-0.2,0.2-0.4,0.3-0.7,0.3s-0.5-0.1-0.7-0.3c-0.2-0.2-0.3-0.4-0.3-0.7v-4c0-0.5-0.1-1-0.4-1.3c-0.3-0.3-0.7-0.5-1.2-0.5
		c-0.5,0-0.9,0.2-1.2,0.5c-0.3,0.3-0.4,0.8-0.4,1.3v4c0,0.3-0.1,0.6-0.3,0.7c-0.2,0.2-0.4,0.3-0.7,0.3c-0.3,0-0.5-0.1-0.7-0.3
		c-0.2-0.2-0.3-0.4-0.3-0.7v-4c0-0.5-0.1-1-0.4-1.3c-0.3-0.3-0.7-0.5-1.2-0.5c-0.5,0-0.9,0.2-1.2,0.5c-0.3,0.3-0.4,0.8-0.4,1.3v4
		c0,0.3-0.1,0.6-0.3,0.7c-0.2,0.2-0.4,0.3-0.7,0.3c-0.3,0-0.5-0.1-0.7-0.3c-0.2-0.2-0.3-0.4-0.3-0.7V56.9z"/>
	<path class="st0" d="M214.2,52.5c0.3,0,0.5,0.1,0.7,0.3c0.2,0.2,0.3,0.4,0.3,0.7v3.3h0c0.2-0.3,0.5-0.5,0.8-0.7s0.8-0.3,1.4-0.3
		c0.7,0,1.3,0.2,1.8,0.6c0.5,0.4,0.8,0.9,1.1,1.5c0.1,0.3,0.2,0.7,0.2,1c0,0.3,0.1,0.8,0.1,1.2s0,0.9-0.1,1.2c0,0.3-0.1,0.7-0.2,1
		c-0.2,0.7-0.6,1.2-1.1,1.5c-0.5,0.4-1.1,0.6-1.8,0.6c-0.6,0-1.1-0.1-1.4-0.3c-0.4-0.2-0.6-0.4-0.8-0.7h0c0,0.3-0.1,0.5-0.3,0.6
		s-0.4,0.2-0.7,0.2c-0.3,0-0.5-0.1-0.7-0.3c-0.2-0.2-0.3-0.4-0.3-0.7v-9.8c0-0.3,0.1-0.6,0.3-0.7C213.6,52.6,213.9,52.5,214.2,52.5z
		 M216.8,57.5c-0.4,0-0.7,0.1-1,0.2c-0.3,0.2-0.5,0.4-0.6,0.8c-0.1,0.3-0.2,0.8-0.2,1.5s0.1,1.2,0.2,1.5c0.1,0.4,0.3,0.7,0.6,0.8
		c0.3,0.2,0.6,0.2,1,0.2s0.7-0.1,0.9-0.2c0.3-0.2,0.5-0.4,0.6-0.8c0.1-0.3,0.2-0.8,0.2-1.5s-0.1-1.2-0.2-1.5
		c-0.1-0.4-0.3-0.7-0.6-0.8S217.2,57.5,216.8,57.5z"/>
	<path class="st0" d="M222.6,53.5c0-0.3,0.1-0.6,0.3-0.8c0.2-0.2,0.4-0.3,0.7-0.3c0.3,0,0.5,0.1,0.7,0.3c0.2,0.2,0.3,0.4,0.3,0.8
		v3.8c0,0.1,0,0.1,0.1,0.1h4.4c0.1,0,0.1,0,0.1-0.1v-3.8c0-0.3,0.1-0.6,0.3-0.8s0.4-0.3,0.7-0.3c0.3,0,0.5,0.1,0.7,0.3
		s0.3,0.4,0.3,0.8v9.7c0,0.3-0.1,0.6-0.3,0.8s-0.4,0.3-0.7,0.3c-0.3,0-0.5-0.1-0.7-0.3s-0.3-0.4-0.3-0.8v-3.9c0-0.1,0-0.1-0.1-0.1
		h-4.4c-0.1,0-0.1,0-0.1,0.1v3.9c0,0.3-0.1,0.6-0.3,0.8c-0.2,0.2-0.4,0.3-0.7,0.3c-0.3,0-0.5-0.1-0.7-0.3c-0.2-0.2-0.3-0.4-0.3-0.8
		V53.5z"/>
</g>
</svg>
