<svg width="293" height="44" fill="none" xmlns="http://www.w3.org/2000/svg"><path d="M1.48 42.146V28.895c5.336.897 10.403 1.345 15.202 1.345 2.646 0 3.968-.582 3.968-1.75 0-.716-.572-1.322-1.715-1.815-1.143-.493-2.85-1.108-5.146-1.75-3.887-1.084-7.175-2.455-9.82-4.271C1.322 18.839 0 16.137 0 12.549c0-4.26 1.439-7.99 5.431-9.497C9.423 1.545 14.826.791 21.644.791c6.349 0 11.81.12 17.774.928v13.386c-5.696-.851-10.695-1.278-15-1.278-2.242 0-3.363.494-3.363 1.48 0 .628.582 1.189 1.75 1.681 1.165.495 2.778 1.016 4.842 1.548 2.823.726 5.235 1.513 7.231 2.387a13.609 13.609 0 015.045 3.767c1.367 1.638 2.052 3.733 2.052 6.29 0 8.386-7.332 12.578-21.997 12.578-7.04 0-13.206-.47-18.497-1.412H1.48zm49.136-3.834c-3.834-3.498-5.751-8.318-5.751-14.462 0-9.327-.113-16.771-.337-22.332h22.534c-.225 5.516-.336 12.982-.336 22.4 0 3.273 1.165 4.91 3.498 4.91 2.332 0 3.43-1.636 3.43-4.91 0-9.372-.113-16.84-.337-22.4h22.534c-.225 5.516-.336 12.96-.336 22.332 0 6.144-1.907 10.964-5.718 14.462-3.812 3.497-10.337 5.247-19.574 5.247-9.238 0-15.774-1.75-19.608-5.247zm72.006-19.642c2.556 0 3.834-1.3 3.834-3.902 0-1.3-.337-2.264-1.009-2.893-.673-.627-1.592-.94-2.759-.94-.941 0-1.659.022-2.152.067v7.668h2.086zM99.348 42.549c.224-4.44.336-11.075.336-19.91 0-9.776-.112-16.817-.336-21.122h24.417c7.758 0 13.363.886 16.816 2.657 3.452 1.772 5.18 4.518 5.18 8.24 0 2.063-.617 3.834-1.85 5.314-1.234 1.48-3.016 2.6-5.347 3.363v.538c2.735.583 4.944 1.682 6.626 3.296 1.681 1.614 2.523 3.678 2.523 6.188 0 3.947-1.907 6.84-5.718 8.678-3.812 1.839-10.001 2.757-18.565 2.757H99.348v.001zm26.469-10.392c.74-.65 1.109-1.715 1.109-3.195 0-1.39-.369-2.422-1.109-3.094-.741-.672-1.739-1.009-2.994-1.009h-2.287v8.207a32.32 32.32 0 002.287.067c1.255 0 2.253-.325 2.994-.975v-.001z" fill="#02BA3E"/><path d="M153.993 43.423c-1.238-.09-2.773-.268-4.603-.538l3.139-15.942c.735.134 1.44.202 2.113.202 2.69 0 4.318-1.435 4.883-4.305 1.705-8.654 2.992-15.762 3.863-21.323h22.534c-1.311 5.516-3.079 13.924-5.303 25.225-1.113 5.65-3.345 9.866-6.695 12.645-3.351 2.781-8.231 4.17-14.644 4.17-2.287 0-4.05-.044-5.287-.134zm93.863-.873c.657-2.197 1.303-4.911 1.94-8.14l.397-2.017-7.462-24.956-1.862-5.92h20.93l2.555 15.47 9.329-15.47H293c-1.715 2.333-3.087 4.283-4.112 5.852l-16.833 25.023-.398 2.018c-.636 3.229-1.058 5.942-1.266 8.139h-22.535zm-32.188-16.211c1.14-1.09 1.904-2.609 2.287-4.56.383-1.95.217-3.47-.497-4.56-.714-1.09-1.908-1.633-3.582-1.633s-3.082.545-4.224 1.633c-1.141 1.09-1.904 2.61-2.287 4.56-.383 1.951-.217 3.471.496 4.56.713 1.09 1.907 1.633 3.582 1.633 1.675 0 3.082-.545 4.224-1.633h.001zm-22.172 14.395c-3.816-1.882-6.453-4.468-7.911-7.759-1.459-3.289-1.773-7.044-.944-11.264.828-4.22 2.616-7.963 5.361-11.23 2.746-3.267 6.394-5.83 10.945-7.69C205.498.93 210.829 0 216.937 0c6.109 0 11.085.93 14.928 2.79 3.843 1.861 6.484 4.425 7.924 7.691 1.44 3.267 1.746 7.01.917 11.23-.828 4.22-2.607 7.975-5.334 11.264-2.728 3.29-6.38 5.877-10.958 7.76-4.578 1.881-9.921 2.824-16.03 2.824-6.11 0-11.072-.942-14.888-2.825z" fill="#FFCD00"/></svg>