<svg xmlns="http://www.w3.org/2000/svg" width="182.923" height="45.238" viewBox="0 0 182.923 45.238">
  <g id="Group_161" data-name="Group 161" transform="translate(-108.055 -24.356)">
    <g id="Group_4" data-name="Group 4" transform="translate(159.437 36.688)">
      <path id="Fill_41" data-name="Fill 41" d="M15.528,10.967a7.732,7.732,0,0,0-2.1-1.306,16.1,16.1,0,0,0-2.764-.872A21.571,21.571,0,0,1,7,7.637a1.67,1.67,0,0,1-1.175-1.5,1.63,1.63,0,0,1,.705-1.328,4.268,4.268,0,0,1,2.5-.543,8.837,8.837,0,0,1,3.128.5,8.669,8.669,0,0,1,2.141,1.109l2.615-3.613a10.869,10.869,0,0,0-3.363-1.7A15.714,15.714,0,0,0,9.037,0,10.561,10.561,0,0,0,6.063.434,9.351,9.351,0,0,0,3.405,1.676a6.484,6.484,0,0,0-1.906,2A5.117,5.117,0,0,0,.772,6.4a4.959,4.959,0,0,0,.621,2.548,6.413,6.413,0,0,0,1.585,1.829,8.066,8.066,0,0,0,2.077,1.195,17.684,17.684,0,0,0,2.141.7,25.908,25.908,0,0,1,2.658.741A7.985,7.985,0,0,1,11.4,14.1a1.857,1.857,0,0,1,.727.72,1.879,1.879,0,0,1,.172.8,1.478,1.478,0,0,1-.984,1.437,6.547,6.547,0,0,1-2.614.434,8.051,8.051,0,0,1-3.278-.629,7.481,7.481,0,0,1-2.376-1.59L0,18.626A8.488,8.488,0,0,0,3.64,21a15.155,15.155,0,0,0,5.1.8,11.691,11.691,0,0,0,3.32-.456,9.236,9.236,0,0,0,2.74-1.283,6.215,6.215,0,0,0,1.866-2.024,5.311,5.311,0,0,0,.684-2.677,6.281,6.281,0,0,0-.471-2.545,5.352,5.352,0,0,0-1.349-1.85" transform="translate(0 0.001)" fill="#00549e"/>
      <path id="Fill_42" data-name="Fill 42" d="M11.567,13.971,5.828,0H0L9.038,20.174,8.4,21.8A11.655,11.655,0,0,1,7,24.48a2.03,2.03,0,0,1-1.692.862,2.367,2.367,0,0,1-1.285-.33,10.249,10.249,0,0,1-.941-.676L.816,27.946A6.358,6.358,0,0,0,2.807,29.1a8.42,8.42,0,0,0,2.848.413,5.67,5.67,0,0,0,3.254-.869A7.627,7.627,0,0,0,11.072,26.4a15.545,15.545,0,0,0,1.479-2.982c.4-1.073.8-2.053,1.2-3.069L22.145,0H16.619Z" transform="translate(18.546 0.822)" fill="#00549e"/>
      <path id="Fill_43" data-name="Fill 43" d="M11.1,0A7.926,7.926,0,0,0,8.962.263,7.635,7.635,0,0,0,7.27.937a6.891,6.891,0,0,0-1.286.893,11.239,11.239,0,0,0-.92.975L4.936.561H0V20.872H5.1V9.791a6.007,6.007,0,0,1,.39-2.11,5.562,5.562,0,0,1,1.022-1.72A4.547,4.547,0,0,1,9.985,4.4a3.53,3.53,0,0,1,2.669,1.067,4.1,4.1,0,0,1,.994,3.024V20.872h5.1V8.444a9.1,9.1,0,0,0-1.935-6.157A7.094,7.094,0,0,0,11.1,0" transform="translate(43.295 0.261)" fill="#00549e"/>
      <path id="Fill_44" data-name="Fill 44" d="M10.623,21.8a11.3,11.3,0,0,1-4.37-.825A9.861,9.861,0,0,1,2.89,18.691a9.949,9.949,0,0,1-2.141-3.5A13.109,13.109,0,0,1,0,10.663a11.568,11.568,0,0,1,.749-4.2,10.382,10.382,0,0,1,2.1-3.374A9.865,9.865,0,0,1,6.061.828,10.137,10.137,0,0,1,10.193,0a9.746,9.746,0,0,1,4.648,1.024A8.7,8.7,0,0,1,17.9,3.7a11.189,11.189,0,0,1,1.708,3.742,17.7,17.7,0,0,1,.55,4.265v.766H5.1a4,4,0,0,0,.492,2.031A5.151,5.151,0,0,0,6.876,16.06a5.759,5.759,0,0,0,1.8,1,6.092,6.092,0,0,0,1.992.345,10.269,10.269,0,0,0,2.547-.28,10.1,10.1,0,0,0,1.864-.655,5.91,5.91,0,0,0,1.263-.782c.329-.279.581-.505.749-.673l2.742,3.133-.255.258-.016.016-.439.445a8.6,8.6,0,0,1-1.669,1.239,12.824,12.824,0,0,1-2.783,1.173A13.8,13.8,0,0,1,10.623,21.8Zm-.43-17.493a5.569,5.569,0,0,0-2.206.42A5.259,5.259,0,0,0,6.381,5.782,4.56,4.56,0,0,0,5.4,7.213a3.562,3.562,0,0,0-.341,1.6h9.851a4,4,0,0,0-.3-1.6,4.5,4.5,0,0,0-.88-1.447,4.544,4.544,0,0,0-1.477-1.041A4.866,4.866,0,0,0,10.193,4.311Z" transform="translate(66.048 0.001)" fill="#00549e"/>
      <path id="Fill_45" data-name="Fill 45" d="M11.222,14.626,5.826,0H0L8.525,20.311h5.137L22.145,0H16.619Z" transform="translate(86.907 0.822)" fill="#00549e"/>
      <path id="Fill_46" data-name="Fill 46" d="M10.794,21.8a10.868,10.868,0,0,1-4.39-.872A10.22,10.22,0,0,1,3,18.561a10.908,10.908,0,0,1-2.2-3.481,11.494,11.494,0,0,1,0-8.4A10.677,10.677,0,0,1,3,3.221,10.454,10.454,0,0,1,6.4.872,10.839,10.839,0,0,1,10.794,0a10.837,10.837,0,0,1,4.389.872,10.461,10.461,0,0,1,3.406,2.349A10.768,10.768,0,0,1,20.8,6.681a11.531,11.531,0,0,1,0,8.4,11,11,0,0,1-2.208,3.481,10.228,10.228,0,0,1-3.406,2.371A10.866,10.866,0,0,1,10.794,21.8Zm0-17.364a5.194,5.194,0,0,0-2.527.587A5.534,5.534,0,0,0,6.491,6.551,6.429,6.429,0,0,0,5.44,8.639,7.853,7.853,0,0,0,5.1,10.88a7.749,7.749,0,0,0,.343,2.261,6.739,6.739,0,0,0,1.051,2.093,5.39,5.39,0,0,0,1.777,1.543,5.184,5.184,0,0,0,2.527.589,5.175,5.175,0,0,0,2.525-.589A5.406,5.406,0,0,0,15.1,15.235a6.776,6.776,0,0,0,1.051-2.093,7.839,7.839,0,0,0,.341-2.261,7.947,7.947,0,0,0-.341-2.241A6.552,6.552,0,0,0,15.1,6.551a5.553,5.553,0,0,0-1.779-1.523A5.185,5.185,0,0,0,10.794,4.44Z" transform="translate(109.951 0)" fill="#00549e"/>
    </g>
    <g id="Group_7" data-name="Group 7" transform="translate(108.055 24.356)">
      <path id="Fill_35" data-name="Fill 35" d="M3.253,12.3a6.5,6.5,0,0,0,3.044.881h0L17.91,13.2,12.15,3.091l-.006.007a6.552,6.552,0,0,0-11.25.192A6.6,6.6,0,0,0,3.253,12.3" transform="translate(0 8.042)" fill="#00549e"/>
      <path id="Fill_36" data-name="Fill 36" d="M0,6.562A6.552,6.552,0,0,0,.728,9.657v0l5.83,10.126L12.391,9.713v0A6.589,6.589,0,1,0,0,6.562" transform="translate(13.817 0)" fill="#00549e"/>
      <path id="Fill_37" data-name="Fill 37" d="M8.1.876a6.541,6.541,0,0,0-2.28,2.212l0,0L0,13.2l11.574.033,0-.01a6.462,6.462,0,0,0,3.038-.876,6.649,6.649,0,0,0,2.422-9.025A6.512,6.512,0,0,0,8.1.876" transform="translate(22.784 8.047)" fill="#00549e"/>
      <path id="Fill_38" data-name="Fill 38" d="M14.631.913A6.518,6.518,0,0,0,11.587.03L11.6.023,0,0,5.758,10.1h0A5.746,5.746,0,0,0,8.021,12.32,6.593,6.593,0,0,0,14.631.913" transform="translate(22.852 23.98)" fill="#00549e"/>
      <path id="Fill_39" data-name="Fill 39" d="M13.119,13.21a6.612,6.612,0,0,0-.764-3.094l.012,0L6.589,0,.777,10.07l0,0A6.711,6.711,0,0,0,0,13.15a6.56,6.56,0,1,0,13.119.06" transform="translate(13.764 25.465)" fill="#00549e"/>
      <path id="Fill_40" data-name="Fill 40" d="M9.8,12.334a6.552,6.552,0,0,0,2.28-2.212l0,.012L17.9.037,6.329,0l0,0A6.608,6.608,0,0,0,3.291.868,6.645,6.645,0,0,0,.868,9.889,6.51,6.51,0,0,0,9.8,12.334" transform="translate(0.055 23.98)" fill="#00549e"/>
    </g>
  </g>
</svg>
