<?xml version="1.0" encoding="UTF-8"?>
<svg id="Layer_1" data-name="Layer 1" xmlns="http://www.w3.org/2000/svg" viewBox="0 0 3467.7 650.6">
  <defs>
    <style>
      .cls-1 {
        fill: #fff;
      }
    </style>
  </defs>
  <path class="cls-1" d="M679.72,81.73c111.92,41.05,195.49,132.94,245.56,252.47-58.14-104.84-146.01-181.41-256.7-222.48-110.72-40.31-241.17-58.12-354.35-15.81,116.93-58.94,253.5-55.85,365.49-14.19M330.92,34.52c-111.29,43.57-192.95,136.62-239.97,258.02,55.7-106.65,142.17-185.03,251.7-227.9,110.09-42.88,239.4-48.41,353.13-8.6C577.61-.33,442.17-8.93,330.92,34.52M477.52,98.25c-110.16,4.94-209.7,61.94-287.62,153.23,81.01-75.94,180.61-118.82,288.75-123.17,108.96-4.9,228.89,16.54,316.08,85.21-85.92-83.99-206.57-120.16-317.21-115.27M493.56,290.04c32.75,0,59.34,26.4,59.34,58.85s-26.59,58.81-59.34,58.81-59.36-26.38-59.36-58.81,26.61-58.85,59.36-58.85M595.64,643.6c0-178.3,248.61-259.77,392.06-280.7-144.08,0-385.31,13.58-494.15,121.4C385.42,376.47,143.47,362.89,0,362.89c142.91,20.93,391.47,102.4,391.47,280.7h204.17Z"/>
  <path class="cls-1" d="M3404.42,288.62c-8.04-17.26-18.71-28.45-32.06-33.72,32.06-14.58,47.45-35.71,47.45-64.91,0-53.61-35.4-77.47-108.26-77.47h-99.49v267.51h67.46v-108.67c3.36,0,5.31-.61,8.04-.61,26.75,0,38.71,7.9,49.5,32.49l34.01,76.79h76.2l-42.84-91.41ZM3312.21,222.43h-32.7v-62.82h32.7c24.84,0,36.76,11.81,36.76,31.08,0,21.18-11.38,31.74-36.76,31.74M3050.99,266.07h108.26v-49.57h-108.26v-54.24h113.59v-49.75h-181v267.51h184.32v-50.41h-116.91v-63.55ZM2820.56,268.07l-67.5-155.55h-72.13l122.92,270.05h29.38l131.6-270.05h-73.54l-70.73,155.55ZM2545.26,107.93c-43.39,0-77.49,12.67-104.92,38.35-27.4,25.88-42.05,60.28-42.05,100.06s14.65,73.97,42.05,99.88c27.43,25.77,61.53,39.08,104.92,39.08s77.51-13.31,104.92-39.08c27.36-25.91,42.07-59.56,42.07-99.88s-14.71-74.18-42.07-100.06c-27.4-25.68-62.17-38.35-104.92-38.35M2545.26,328.37c-44.78,0-77.49-33.76-77.49-82.03s32.72-82.21,77.49-82.21,76.83,33.79,76.83,82.21-32.72,82.03-76.83,82.03M2191.2,246.34c0-51.06,33.33-82.81,88.16-82.81,29.4,0,60.17,9.85,89.55,29.11v-62.87c-29.38-14.53-60.89-21.84-94.2-21.84-94.2,0-153.69,56.88-153.69,138.41,0,40.35,15.37,76.06,42.1,101.17,26.11,24.48,62.14,37.78,104.9,37.78,37.44,0,71.52-9.33,103.58-27.9v-62.21c-32.06,22.57-65.55,33.81-98.18,33.81-50.77,0-82.21-33.04-82.21-82.65M2010.81,380.03h69.43V112.56h-69.43v267.46ZM1915.88,140.38c-33.42-25.13-68.12-27.86-111.55-27.86h-100.86v267.51h100.86c39.51,0,70.86-.79,100.88-19.91,41.5-26.5,63.51-66.16,63.51-113.77,0-43.82-18.03-80.13-52.84-105.96M1821.13,325.65h-50.13v-158.84h50.13c46.75,0,78.11,32.56,78.11,79.54s-31.36,79.31-78.11,79.31M1543.85,266.07h108.17v-49.57h-108.17v-54.24h113.57v-49.75h-181.07v267.51h184.3v-50.41h-116.8v-63.55ZM1276.57,220.43l-86.87-107.92h-59.44v267.51h66.16v-165.52l80.15,97.93,80.15-97.93v165.52h66.8V112.52h-60.12l-86.82,107.92Z"/>
  <g>
    <polygon class="cls-1" points="1130.26 496.02 1160.78 496.02 1160.78 616.17 1232.65 616.17 1232.65 643.56 1130.26 643.56 1130.26 496.02"/>
    <path class="cls-1" d="M1367,588.25h40.95l-20.36-62.71-20.59,62.71ZM1405.02,496.02l53.26,147.54h-31.94l-10.03-30.4h-57.25l-9.63,30.4h-32.2l52.64-147.54h35.16Z"/>
    <path class="cls-1" d="M2192.05,588.25h40.99l-20.41-62.71-20.58,62.71ZM2230,496.02l53.18,147.54h-31.94l-9.97-30.4h-57.21l-9.6,30.4h-32.06l52.46-147.54h35.13Z"/>
    <polygon class="cls-1" points="2403.84 522.17 2360.11 522.17 2360.11 496.02 2477.76 496.02 2477.76 522.17 2434.17 522.17 2434.17 643.49 2403.84 643.49 2403.84 522.17"/>
    <polygon class="cls-1" points="2766.15 496.02 2799.88 496.02 2831.45 606.35 2863.25 496.02 2896.73 496.02 2846.29 643.56 2817.17 643.56 2766.15 496.02"/>
    <path class="cls-1" d="M3016.87,588.25h41.17l-20.59-62.71-20.58,62.71ZM3054.82,496.02l53.18,147.54h-31.68l-10.11-30.4h-57.43l-9.34,30.4h-32.09l52.52-147.54h34.95Z"/>
    <path class="cls-1" d="M1598.43,616.83c8.28,0,14.5-1.54,18.54-4.47,3.88-3,5.82-7.91,5.82-14.58,0-7.25-1.94-12.31-5.82-15.16-4.03-2.86-10.26-4.33-18.69-4.33h-35.89v38.54h36.04ZM1597.04,553.02c7.47,0,12.96-1.17,16.45-3.66,3.55-2.57,5.39-6.67,5.39-12.38s-1.83-9.74-5.53-11.94c-3.59-2.35-8.98-3.44-16.38-3.44h-34.58v31.43h34.65ZM1533.45,496.02h69.67c15.1,0,26.74,3.22,34.58,9.6,7.84,6.3,11.72,15.68,11.72,27.69,0,14.8-5.93,24.84-17.65,30.4,15.09,6.01,22.71,17.66,22.71,34.8,0,14.21-4.54,24.98-13.63,32.97-9.3,8.2-22.63,12.09-40.08,12.09h-67.32v-147.54Z"/>
    <path class="cls-1" d="M1759.01,569.79c0,16.63,3.59,29.38,10.99,37.95,7.14,8.94,17.36,13.41,30.11,13.41s23.22-4.47,30.62-13.41c7.11-8.57,10.81-21.32,10.81-37.95s-3.7-29.16-10.81-38.09c-7.4-8.94-17.65-13.26-30.62-13.26s-22.97,4.32-30.11,13.26c-7.4,8.94-10.99,21.46-10.99,38.09M1728.1,569.79c0-11.87,1.72-22.71,4.98-32.23,3.37-9.53,8.2-17.66,14.43-24.54,6.3-6.67,13.92-12.01,22.79-15.53,8.79-3.52,18.75-5.42,29.81-5.42s21.1,1.9,30.11,5.42c8.79,3.52,16.41,8.86,22.71,15.53,6.08,6.89,10.84,15.02,14.29,24.54,3.44,9.52,5.09,20.36,5.09,32.23s-1.65,22.71-5.09,32.16c-3.44,9.82-8.2,17.73-14.29,24.69-6.3,6.74-13.92,11.87-22.71,15.46-9.01,3.88-18.9,5.5-30.11,5.5s-21.02-1.61-29.81-5.5c-8.87-3.59-16.49-8.72-22.79-15.46-6.23-6.96-11.06-14.87-14.43-24.69-3.26-9.45-4.98-20.22-4.98-32.16"/>
    <path class="cls-1" d="M2011.65,560.41c7.8,0,13.51-1.54,17.25-4.61,3.52-3.15,5.31-8.13,5.31-14.8,0-13.11-6.85-19.56-21.13-19.56h-37.1v38.97h35.68ZM1945.6,496.02h71.5c16.34,0,28.28,3.3,35.86,10.03,7.87,6.82,11.76,17.44,11.76,31.72,0,9.01-1.98,16.48-5.71,22.42-3.7,6.08-9.01,10.18-16.34,12.45,7.03,2.49,11.87,6.08,14.06,11.28,2.64,5.2,3.96,12.16,4.1,20.95l.74,17.51c.22,4.32.29,7.84,1.02,10.48.44,2.49,2.13,4.54,4.69,6.15v4.54h-33.26c-1.17-2.34-1.98-4.91-2.31-7.91-.7-3.22-.98-6.59-1.13-10.7l-.43-15.6c-.07-4.32-.66-7.91-1.25-10.84-.81-2.93-2.05-5.42-3.59-7.18-1.72-1.9-3.74-3.3-6.7-4.1-2.67-.8-6.33-1.24-10.51-1.24h-32.12v57.58h-30.37v-147.54Z"/>
    <path class="cls-1" d="M2596.66,495.58v92.45c0,11.13,2.2,19.41,6.59,24.76,4.4,5.27,11.69,8.13,21.91,8.13s17.65-2.86,21.97-7.98c4.69-5.35,6.81-13.77,6.81-24.91v-92.45h30.37v95.82c0,18.24-5.17,32.09-15.28,41.9-9.89,9.45-24.73,14.29-43.74,14.29s-33.69-4.83-43.81-14.29c-10.26-9.82-15.35-23.66-15.35-41.9v-95.82h30.51Z"/>
    <path class="cls-1" d="M3249.25,560.41c7.66,0,13.56-1.54,17.11-4.61,3.55-3.15,5.38-8.13,5.38-14.8,0-13.11-7.1-19.56-21.17-19.56h-37.22v38.97h35.89ZM3183.17,496.02h71.72c15.97,0,27.73,3.3,35.6,10.03,7.73,6.82,11.72,17.44,11.72,31.72,0,9.01-1.9,16.48-5.72,22.42-3.73,6.08-9.08,10.18-16.41,12.45,7.18,2.49,11.94,6.08,14.43,11.28,2.35,5.2,3.59,12.16,3.7,20.95l.84,17.51c.22,4.32.33,7.84.95,10.48.37,2.49,2.13,4.54,4.69,6.15v4.54h-33.04c-1.32-2.34-1.98-4.91-2.49-7.91-.51-3.22-.99-6.59-1.03-10.7l-.48-15.6c-.26-4.32-.66-7.91-1.32-10.84-.77-2.93-1.94-5.42-3.55-7.18-1.76-1.9-3.96-3.3-6.67-4.1-2.71-.8-6.3-1.24-10.4-1.24h-32.38v57.58h-30.18v-147.54Z"/>
    <rect class="cls-1" x="3417.45" y="495.95" width="30.22" height="147.54"/>
  </g>
</svg>