<?xml version="1.0" encoding="utf-8"?>
<!-- Generator: Adobe Illustrator 27.9.0, SVG Export Plug-In . SVG Version: 6.00 Build 0)  -->
<svg version="1.1" id="Layer_2_00000058567912669181023880000003160816518626632586_"
	 xmlns="http://www.w3.org/2000/svg" xmlns:xlink="http://www.w3.org/1999/xlink" x="0px" y="0px" viewBox="0 0 259.8 64"
	 style="enable-background:new 0 0 259.8 64;" xml:space="preserve">
<style type="text/css">
	.st0{fill:#FFFFFF;}
	.st1{fill:#FECC00;}
</style>
<g id="Layer_1-2">
	<g>
		<path class="st0" d="M0,13.5h16.7V64h14.8V13.5h16.7V0H0L0,13.5L0,13.5z M88.2,29.9v-0.2c3.2-1.3,5.5-3.2,7-5.8
			c1.4-2.5,2.2-5.3,2.2-8.4c0-5-1.7-8.8-5.2-11.5s-8.7-4-15.6-4H52.8v63.9h27.7c6.5,0,11.5-1.6,15-4.9c3.5-3.3,5.2-7.6,5.2-12.9
			c0-4.1-1-7.5-3.1-10.3C95.5,33.1,92.4,31.1,88.2,29.9L88.2,29.9L88.2,29.9z M67.4,13.3h6.5c2.9,0,5,0.6,6.4,1.7s2.1,2.6,2.1,4.5
			c0,1.9-0.7,3.4-2.3,4.5c-1.5,1.1-3.4,1.6-5.7,1.6h-7L67.4,13.3C67.4,13.3,67.4,13.3,67.4,13.3z M82.7,49.1c-1.7,1.2-4,1.7-6.8,1.7
			h-8.5V37.3h8.5c3.1,0,5.4,0.6,7,1.9c1.6,1.2,2.4,2.9,2.4,4.9C85.2,46.2,84.4,47.9,82.7,49.1L82.7,49.1z M168.8,0l-10.7,39.3H158
			L148.4,0h-15.6L123,39.3h-0.2L112.2,0H96.4L116.1,64h13.6l11-42.1h0.1L151.4,64H165L184.7,0H168.8z M208.6,0h-14.2L171.2,64h15.6
			l3.7-11.4h22.1l3.7,11.4h15.6L208.6,0z M194.5,39.8l6.8-21.5h0.2l6.9,21.5H194.5z"/>
		<path class="st1" d="M259.8,64L236.5,0h-12.2L247.5,64H259.8z"/>
	</g>
</g>
</svg>
