<svg xmlns="http://www.w3.org/2000/svg" id="_Layer_" data-name="&amp;lt;Layer&amp;gt;" viewBox="0 0 244 68.6"><defs><style>      .cls-1 {        fill: #1d1d1b;      }      .cls-1, .cls-2 {        stroke-width: 0px;      }      .cls-3 {        fill: #ffed00;        stroke: #1d1d1b;        stroke-width: 1.9px;      }      .cls-2 {        fill: #fff;      }    </style></defs><path class="cls-3" d="M17.1,6h209.7c6.8,0,12.3,5.5,12.3,12.3v17.1c0,6.8-5.5,12.3-12.3,12.3H17.1c-6.8,0-12.3-5.5-12.3-12.3v-17.1c0-6.8,5.5-12.3,12.3-12.3Z"></path><polygon class="cls-1" points="166.3 47.6 166.3 5.5 226.8 5.5 231.3 7.4 235.2 9.6 238.4 15.3 239.1 19.2 238.8 36.3 237.7 41 235.6 43.8 232.4 46.7 228.8 47.4 166.3 47.6"></polygon><g><path class="cls-1" d="M66.2,34.4v-11.3h-6.2v-3.7h17v3.7h-6.2v11.3h-4.6Z"></path><path class="cls-1" d="M83.5,23.1v2.3h11.1v3.1h-11.1v2.3h11.9v3.6h-16.5v-14.9h16.3v3.6h-11.7Z"></path><path class="cls-1" d="M116.2,24.4c0,2.5-.6,3.7-2.5,4.1,1.6.4,2.4,1.3,2.4,2.8v3.1h-4.6v-2.3c0-1.3-.6-1.5-2.1-1.5h-6.8v3.8h-4.6v-14.9h12c4.5,0,6.1,1,6.1,4.9ZM102.7,23.2v3.7h7.2c1.3,0,1.6-.6,1.6-2s-.5-1.7-1.6-1.7h-7.2Z"></path><path class="cls-1" d="M137.3,24.4c0,2.5-.6,3.7-2.5,4.1,1.6.4,2.4,1.3,2.4,2.8v3.1h-4.6v-2.3c0-1.3-.6-1.5-2.1-1.5h-6.8v3.8h-4.6v-14.9h12c4.5,0,6.1,1,6.1,4.9ZM123.8,23.2v3.7h7.2c1.3,0,1.6-.6,1.6-2s-.5-1.7-1.6-1.7h-7.2Z"></path><path class="cls-1" d="M138.7,34.4l8.1-14.9h5.8l8,14.9h-5l-1.4-2.5h-9.1l-1.5,2.5h-5ZM152.6,28.3l-2.9-5.3-2.8,5.3h5.7Z"></path><path class="cls-2" d="M191.8,24.5v5.1c0,3.3-1.6,4.8-5.2,4.8h-14.4v-14.9h13.1c4.4,0,6.5,1.4,6.5,5ZM176.8,23.2v7.6h7.7c1.9,0,2.8-.8,2.8-2.4v-2.6c0-1.8-1.1-2.5-3.4-2.5h-7.1Z"></path><path class="cls-2" d="M192.6,34.4l8.1-14.9h5.8l8,14.9h-5l-1.4-2.5h-9.1l-1.5,2.5h-5ZM206.5,28.3l-2.9-5.3-2.8,5.3h5.7Z"></path><path class="cls-2" d="M219,34.4v-11.3h-6.2v-3.7h17v3.7h-6.2v11.3h-4.6Z"></path></g><g><path class="cls-1" d="M30.3,15.2c6,0,10.9,4.9,10.9,10.9s-4.9,10.9-10.9,10.9v2.8c7.6,0,13.7-6.2,13.7-13.8s-6.1-13.8-13.7-13.8v2.8Z"></path><polygon class="cls-1" points="36.4 19.8 24.6 19.8 24.6 22.6 29.1 22.6 29.1 33.9 31.9 33.9 31.9 22.6 36.4 22.6 36.4 19.8"></polygon></g><g><path class="cls-1" d="M80.8,52.3v8.6c0,.6,0,1.4,0,1.8h-1.2v-1.2h0c-.4.8-1.3,1.4-2.4,1.4-1.7,0-3-1.5-3-3.6,0-2.4,1.5-3.8,3.2-3.8s1.8.5,2.1,1.1h0v-4.3h1.3ZM79.5,58.5c0-.2,0-.4,0-.5-.2-.8-.9-1.5-1.9-1.5s-2.1,1.2-2.1,2.8.7,2.6,2.1,2.6,1.7-.6,1.9-1.5c0-.2,0-.4,0-.6v-1.2Z"></path><path class="cls-1" d="M89.4,59.1c0,2.6-1.8,3.8-3.5,3.8s-3.4-1.4-3.4-3.7,1.6-3.8,3.5-3.8,3.4,1.5,3.4,3.7ZM83.7,59.2c0,1.6.9,2.7,2.2,2.7s2.2-1.2,2.2-2.8-.6-2.7-2.1-2.7-2.2,1.4-2.2,2.8Z"></path><path class="cls-1" d="M91.4,55.6l.9,3.6c.2.8.4,1.5.5,2.3h0c.2-.7.4-1.5.6-2.3l1.2-3.6h1.1l1.1,3.6c.3.9.5,1.6.6,2.3h0c.1-.7.3-1.5.5-2.3l1-3.6h1.3l-2.3,7.1h-1.2l-1.1-3.4c-.2-.8-.5-1.5-.6-2.3h0c-.2.9-.4,1.6-.6,2.4l-1.1,3.4h-1.2l-2.1-7.1h1.3Z"></path><path class="cls-1" d="M101.7,57.5c0-.7,0-1.3,0-1.9h1.1v1.2h.1c.4-.7,1.2-1.3,2.4-1.3s2.5.6,2.5,3v4.3h-1.3v-4.1c0-1.1-.4-2.1-1.6-2.1s-1.5.6-1.7,1.3c0,.2,0,.4,0,.6v4.3h-1.3v-5.2Z"></path><path class="cls-1" d="M114.6,53.6v2h1.9v1h-1.9v3.8c0,.9.2,1.4,1,1.4s.6,0,.8,0v1c-.2.1-.6.2-1.1.2s-1.1-.2-1.4-.5c-.4-.4-.5-1-.5-1.9v-3.9h-1.1v-1h1.1v-1.7l1.3-.3Z"></path><path class="cls-1" d="M124.2,59.1c0,2.6-1.8,3.8-3.5,3.8s-3.4-1.4-3.4-3.7,1.6-3.8,3.5-3.8,3.4,1.5,3.4,3.7ZM118.6,59.2c0,1.6.9,2.7,2.2,2.7s2.2-1.2,2.2-2.8-.6-2.7-2.1-2.7-2.2,1.4-2.2,2.8Z"></path><path class="cls-1" d="M129.7,59.4c0,1.8,1.1,2.5,2.4,2.5s1.5-.2,2-.4l.2.9c-.5.2-1.2.4-2.4.4-2.2,0-3.5-1.4-3.5-3.6s1.3-3.8,3.3-3.8,2.9,2,2.9,3.4,0,.5,0,.6h-5ZM133.5,58.5c0-.8-.3-2.1-1.8-2.1s-1.9,1.2-2,2.1h3.8Z"></path><path class="cls-1" d="M140.3,62.7v-.9h-.1c-.4.6-1.2,1.1-2.2,1.1-1.4,0-2.2-1-2.2-2,0-1.7,1.5-2.7,4.3-2.6h0c0-.7-.2-1.8-1.6-1.8s-1.4.2-1.9.5l-.3-.9c.6-.4,1.4-.6,2.3-.6,2.2,0,2.7,1.5,2.7,2.9v2.7c0,.6,0,1.2.1,1.7h-1.2ZM140.1,59.1c-1.4,0-3,.2-3,1.6s.6,1.2,1.2,1.2,1.5-.6,1.7-1.2c0-.1,0-.3,0-.4v-1.2Z"></path><path class="cls-1" d="M143.4,57.8c0-.8,0-1.6,0-2.2h1.1v1.4h.1c.3-1,1.1-1.6,2-1.6s.2,0,.4,0v1.2c-.1,0-.3,0-.4,0-.9,0-1.6.7-1.7,1.7,0,.2,0,.4,0,.6v3.8h-1.3v-4.9Z"></path><path class="cls-1" d="M150.2,53.6v2h1.9v1h-1.9v3.8c0,.9.2,1.4,1,1.4s.6,0,.8,0v1c-.2.1-.6.2-1.1.2s-1.1-.2-1.4-.5c-.4-.4-.5-1-.5-1.9v-3.9h-1.1v-1h1.1v-1.7l1.3-.3Z"></path><path class="cls-1" d="M153.5,52.3h1.3v4.4h0c.2-.4.5-.7.9-.9.4-.2.8-.4,1.3-.4,1,0,2.5.6,2.5,3v4.2h-1.3v-4.1c0-1.1-.4-2.1-1.6-2.1s-1.5.6-1.7,1.3c0,.2,0,.4,0,.6v4.3h-1.3v-10.4Z"></path><path class="cls-1" d="M171.4,55.5c0,.5,0,1.1,0,2.1v4c0,1.4-.3,2.5-1.1,3.2-.8.7-1.9.9-2.9.9s-1.9-.2-2.6-.6l.4-1.7c.5.3,1.2.5,2.1.5s1.9-.6,1.9-1.9v-.5h0c-.4.6-1.1.9-1.9.9-1.8,0-3-1.4-3-3.5s1.5-3.8,3.3-3.8,1.6.4,2,1h0v-.9h2ZM169.1,58.5c0-.1,0-.3,0-.4-.2-.6-.6-1-1.2-1s-1.5.7-1.5,2,.5,1.9,1.5,1.9,1-.4,1.2-.9c0-.2,0-.4,0-.6v-1.1Z"></path><path class="cls-1" d="M174.9,59.8c0,.9,1,1.4,2,1.4s1.4-.1,2-.3l.3,1.5c-.7.3-1.6.4-2.6.4-2.4,0-3.8-1.4-3.8-3.7s1.1-3.8,3.6-3.8,3.2,1.8,3.2,3.6,0,.7,0,.9h-4.6ZM177.5,58.3c0-.5-.2-1.5-1.3-1.5s-1.3.9-1.4,1.5h2.6Z"></path><path class="cls-1" d="M188,59c0,2.6-1.9,3.8-3.8,3.8s-3.7-1.4-3.7-3.7,1.5-3.8,3.8-3.8,3.7,1.5,3.7,3.7ZM182.8,59.1c0,1.2.5,2.2,1.5,2.2s1.4-.9,1.4-2.2-.4-2.2-1.4-2.2-1.5,1.1-1.5,2.2Z"></path><path class="cls-1" d="M189.4,57.9c0-.9,0-1.8,0-2.4h1.9v1h.1c.5-.8,1.4-1.2,2.4-1.2,1.6,0,3,1.4,3,3.7s-1.7,3.9-3.3,3.9-1.5-.4-1.9-.8h0v3.6h-2.2v-7.7ZM191.6,59.6c0,.2,0,.3,0,.5.1.6.7,1.1,1.3,1.1,1,0,1.5-.8,1.5-2s-.5-2-1.5-2-1.2.5-1.3,1.1c0,.1,0,.3,0,.4v1Z"></path><path class="cls-1" d="M198.2,52.3h2.2v4.1h0c.2-.3.5-.5.9-.7.3-.2.8-.3,1.2-.3,1.4,0,2.5,1,2.5,3.1v4.2h-2.2v-4c0-.9-.3-1.6-1.2-1.6s-1,.4-1.1.8c0,.1,0,.3,0,.5v4.3h-2.2v-10.4Z"></path><path class="cls-1" d="M208.2,55.5l1.1,3.5c.1.4.3,1,.4,1.3h0c.1-.4.2-.9.3-1.3l.9-3.5h2.4l-1.7,4.7c-1,2.9-1.7,4-2.5,4.7-.8.7-1.6.9-2.2,1l-.5-1.9c.3,0,.6-.2,1-.4.3-.2.7-.5.9-.9,0-.1.1-.2.1-.3s0-.2-.1-.4l-2.6-6.6h2.5Z"></path><path class="cls-1" d="M214,60.8c.4.2,1.3.5,1.9.5s1-.2,1-.6-.2-.5-1.1-.8c-1.5-.5-2.1-1.3-2-2.2,0-1.3,1.1-2.4,2.9-2.4s1.6.2,2,.4l-.4,1.5c-.3-.2-.9-.4-1.6-.4s-.9.2-.9.6.3.5,1.2.8c1.4.5,1.9,1.2,2,2.2,0,1.3-1.1,2.3-3.1,2.3s-1.8-.2-2.3-.5l.4-1.6Z"></path><path class="cls-1" d="M222.7,53.5c0,.6-.5,1.1-1.2,1.1s-1.2-.5-1.2-1.1c0-.6.5-1.1,1.2-1.1s1.2.5,1.2,1.1ZM220.4,62.7v-7.2h2.2v7.2h-2.2Z"></path><path class="cls-1" d="M229.8,62.5c-.4.2-1.1.3-2,.3-2.3,0-3.8-1.4-3.8-3.7s1.4-3.8,4.1-3.8,1.2.1,1.7.3l-.4,1.7c-.3-.1-.7-.2-1.2-.2-1.2,0-1.9.8-1.9,2,0,1.3.9,2,2,2s.9,0,1.3-.2l.3,1.6Z"></path><path class="cls-1" d="M231,60.8c.4.2,1.3.5,1.9.5s1-.2,1-.6-.2-.5-1.1-.8c-1.5-.5-2.1-1.3-2-2.2,0-1.3,1.1-2.4,2.9-2.4s1.6.2,2,.4l-.4,1.5c-.3-.2-.9-.4-1.6-.4s-.9.2-.9.6.3.5,1.2.8c1.4.5,1.9,1.2,2,2.2,0,1.3-1.1,2.3-3.1,2.3s-1.8-.2-2.3-.5l.4-1.6Z"></path></g></svg>