<?xml version="1.0" encoding="UTF-8" standalone="no"?>
<!-- Created with Inkscape (http://www.inkscape.org/) -->

<svg
   version="1.1"
   id="svg1"
   width="1383.6667"
   height="307.56"
   viewBox="0 0 1383.6667 307.56"
   xmlns="http://www.w3.org/2000/svg"
   xmlns:svg="http://www.w3.org/2000/svg">
  <defs
     id="defs1">
    <clipPath
       clipPathUnits="userSpaceOnUse"
       id="clipPath3">
      <path
         d="M 0,230.67 H 1037.75 V 0 H 0 Z"
         transform="translate(-525.19001,-165.43)"
         id="path3" />
    </clipPath>
    <clipPath
       clipPathUnits="userSpaceOnUse"
       id="clipPath5">
      <path
         d="M 0,230.67 H 1037.75 V 0 H 0 Z"
         transform="translate(-597.67001,-192.78)"
         id="path5" />
    </clipPath>
    <clipPath
       clipPathUnits="userSpaceOnUse"
       id="clipPath7">
      <path
         d="M 0,230.67 H 1037.75 V 0 H 0 Z"
         transform="translate(-645.46001,-165.43)"
         id="path7" />
    </clipPath>
    <clipPath
       clipPathUnits="userSpaceOnUse"
       id="clipPath9">
      <path
         d="M 0,230.67 H 1037.75 V 0 H 0 Z"
         transform="translate(-673.31002,-154.79001)"
         id="path9" />
    </clipPath>
    <clipPath
       clipPathUnits="userSpaceOnUse"
       id="clipPath11">
      <path
         d="M 0,230.67 H 1037.75 V 0 H 0 Z"
         transform="translate(-747.09002,-158.92)"
         id="path11" />
    </clipPath>
    <clipPath
       clipPathUnits="userSpaceOnUse"
       id="clipPath13">
      <path
         d="M 0,230.67 H 1037.75 V 0 H 0 Z"
         transform="translate(-473.86001,-72.129999)"
         id="path13" />
    </clipPath>
    <clipPath
       clipPathUnits="userSpaceOnUse"
       id="clipPath15">
      <path
         d="M 0,230.67 H 1037.75 V 0 H 0 Z"
         transform="translate(-523.49002,-73.220004)"
         id="path15" />
    </clipPath>
    <clipPath
       clipPathUnits="userSpaceOnUse"
       id="clipPath17">
      <path
         d="M 0,230.67 H 1037.75 V 0 H 0 Z"
         transform="translate(-576.93001,-45.980004)"
         id="path17" />
    </clipPath>
    <clipPath
       clipPathUnits="userSpaceOnUse"
       id="clipPath19">
      <path
         d="M 0,230.67 H 1037.75 V 0 H 0 Z"
         transform="translate(-599.92001,-66.600002)"
         id="path19" />
    </clipPath>
    <clipPath
       clipPathUnits="userSpaceOnUse"
       id="clipPath21">
      <path
         d="M 0,230.67 H 1037.75 V 0 H 0 Z"
         transform="translate(-670.33001,-51.440004)"
         id="path21" />
    </clipPath>
    <clipPath
       clipPathUnits="userSpaceOnUse"
       id="clipPath23">
      <path
         d="M 0,230.67 H 1037.75 V 0 H 0 Z"
         transform="translate(-687.81002,-23.510003)"
         id="path23" />
    </clipPath>
    <clipPath
       clipPathUnits="userSpaceOnUse"
       id="clipPath25">
      <path
         d="M 0,230.67 H 1037.75 V 0 H 0 Z"
         transform="translate(-737.12002,-23.510003)"
         id="path25" />
    </clipPath>
    <clipPath
       clipPathUnits="userSpaceOnUse"
       id="clipPath27">
      <path
         d="M 0,230.67 H 1037.75 V 0 H 0 Z"
         id="path27" />
    </clipPath>
    <clipPath
       clipPathUnits="userSpaceOnUse"
       id="clipPath29">
      <path
         d="M 0,230.67 H 1037.75 V 0 H 0 Z"
         transform="translate(-860.5,-45.980004)"
         id="path29" />
    </clipPath>
    <clipPath
       clipPathUnits="userSpaceOnUse"
       id="clipPath31">
      <path
         d="M 0,230.67 H 1037.75 V 0 H 0 Z"
         transform="translate(-929.41,-52.059999)"
         id="path31" />
    </clipPath>
    <clipPath
       clipPathUnits="userSpaceOnUse"
       id="clipPath33">
      <path
         d="M 0,230.67 H 1037.75 V 0 H 0 Z"
         transform="translate(-982,-40.230001)"
         id="path33" />
    </clipPath>
    <clipPath
       clipPathUnits="userSpaceOnUse"
       id="clipPath35">
      <path
         d="M 0,230.67 H 1037.75 V 0 H 0 Z"
         transform="translate(-1006.7601,-30.669998)"
         id="path35" />
    </clipPath>
    <clipPath
       clipPathUnits="userSpaceOnUse"
       id="clipPath37">
      <path
         d="M 0,230.67 H 1037.75 V 0 H 0 Z"
         id="path37" />
    </clipPath>
    <clipPath
       clipPathUnits="userSpaceOnUse"
       id="clipPath39">
      <path
         d="M 0,230.67 H 1037.75 V 0 H 0 Z"
         transform="translate(-185.00001,-24.780001)"
         id="path39" />
    </clipPath>
  </defs>
  <g
     id="layer-MC0">
    <path
       id="path1"
       d="M 0,0 H -20.19 V -64.24 H -34.94 V 0 H -55.35 V 12.81 H 0 Z"
       style="fill:#352e38;fill-opacity:1;fill-rule:nonzero;stroke:none"
       transform="matrix(1.3333333,0,0,-1.3333333,641.65333,38.08)" />
    <path
       id="path2"
       d="m 0,0 c 0,9.44 -6.41,15.95 -15.74,15.95 -9.33,0 -15.84,-6.51 -15.84,-16.06 0,-9.55 6.51,-16.06 15.84,-16.06 C -6.41,-16.17 0,-9.55 0,0 m -45.58,-0.11 c 0,16.49 12.15,28.54 29.84,28.54 17.69,0 29.74,-12 29.74,-28.54 0,-16.54 -12.19,-28.54 -29.74,-28.54 -17.55,0 -29.84,12.05 -29.84,28.54"
       style="fill:#352e38;fill-opacity:1;fill-rule:nonzero;stroke:none"
       transform="matrix(1.3333333,0,0,-1.3333333,700.25333,86.986667)"
       clip-path="url(#clipPath3)" />
    <path
       id="path4"
       d="m 0,0 -24,-61.75 c -4.13,-10.75 -10.31,-16.17 -21.06,-16.17 -3.105,-0.068 -6.195,0.448 -9.11,1.52 l 1.62,11.61 c 1.604,-0.578 3.295,-0.872 5,-0.87 5,0 8.68,1.85 11.28,7.92 l 2.06,5 L -56.43,0 h 14.86 l 14.44,-37.33 13,37.33 z"
       style="fill:#352e38;fill-opacity:1;fill-rule:nonzero;stroke:none"
       transform="matrix(1.3333333,0,0,-1.3333333,796.89333,50.52)"
       clip-path="url(#clipPath5)" />
    <path
       id="path6"
       d="m 0,0 c 0,9.44 -6.4,15.95 -15.73,15.95 -9.33,0 -15.85,-6.51 -15.85,-16.06 0,-9.55 6.51,-16.06 15.85,-16.06 C -6.39,-16.17 0,-9.55 0,0 m -45.58,-0.11 c 0,16.49 12.15,28.54 29.85,28.54 17.7,0 29.73,-12 29.73,-28.54 0,-16.54 -12.16,-28.54 -29.73,-28.54 -17.57,0 -29.85,12.05 -29.85,28.54"
       style="fill:#352e38;fill-opacity:1;fill-rule:nonzero;stroke:none"
       transform="matrix(1.3333333,0,0,-1.3333333,860.61333,86.986667)"
       clip-path="url(#clipPath7)" />
    <path
       id="path8"
       d="m 0,0 v 26.59 h -8.47 v 11.4 H 0 V 53.4 l 13.56,1.73 V 37.99 H 28.43 V 26.59 H 13.56 V 1.88 c 0,-5.21 2.39,-7.6 6.51,-7.6 3.341,0.18 6.585,1.187 9.44,2.93 l 2.17,-11 C 27.242,-16.612 22.079,-18.082 16.82,-18.02 6.29,-18.01 0,-12.12 0,0"
       style="fill:#352e38;fill-opacity:1;fill-rule:nonzero;stroke:none"
       transform="matrix(1.3333333,0,0,-1.3333333,897.74667,101.17333)"
       clip-path="url(#clipPath9)" />
    <path
       id="path10"
       d="M 0,0 V 3.69 C -16.6,3.36 -22.14,0.87 -22.14,-5.1 c 0,-4.34 3,-7.06 8.58,-7.06 C -6.95,-12.16 0,-8.47 0,0 M 13.57,13.56 V -21.05 H 0.11 v 7.59 c -3.47,-5 -10.09,-8.79 -18.56,-8.79 -10.74,0 -17.8,6.19 -17.8,16.39 0,12.81 11.29,17.58 36.25,17.9 v 1.09 c 0,6.51 -3.8,10.64 -12.15,10.64 -6.17,-0.129 -12.153,-2.138 -17.15,-5.76 l -3.15,10.74 c 6.854,4.092 14.698,6.229 22.68,6.18 14.11,0.01 23.34,-6.5 23.34,-21.37"
       style="fill:#352e38;fill-opacity:1;fill-rule:nonzero;stroke:none"
       transform="matrix(1.3333333,0,0,-1.3333333,996.12,95.666667)"
       clip-path="url(#clipPath11)" />
    <path
       id="path12"
       d="m 0,0 c 0,12.37 -8.14,16.5 -18.45,16.5 h -12.41 v -34 h 12.37 C -8.14,-17.46 0,-11.18 0,0 m 8.35,0 c 0,-12.91 -9,-24.63 -25.93,-24.63 h -13.28 v -28.76 h -8.1 v 77.05 h 21.38 C -0.65,23.66 8.35,14.32 8.35,0"
       style="fill:#352e38;fill-opacity:1;fill-rule:nonzero;stroke:none"
       transform="matrix(1.3333333,0,0,-1.3333333,631.81333,211.38667)"
       clip-path="url(#clipPath13)" />
    <path
       id="path14"
       d="m 0,0 -1.84,-7.38 c -1.772,0.659 -3.64,1.024 -5.53,1.08 -9.12,0 -13.35,-8 -13.35,-19.2 v -29 h -7.49 V 0 h 7.49 v -9.77 c 3.14,8.14 7.92,11 14.1,11 C -4.355,1.251 -2.107,0.834 0,0"
       style="fill:#352e38;fill-opacity:1;fill-rule:nonzero;stroke:none"
       transform="matrix(1.3333333,0,0,-1.3333333,697.98667,209.93333)"
       clip-path="url(#clipPath15)" />
    <path
       id="path16"
       d="m 0,0 c 0,12.59 -8.68,21.05 -20.84,21.05 -12.37,0 -20.72,-8.57 -20.72,-20.94 0,-12.7 8.57,-21.16 20.72,-21.16 C -8.46,-21.05 0,-12.48 0,0 m -49.38,0 c 0,16.6 11.72,28.32 28.54,28.32 C -4.02,28.32 7.71,16.6 7.71,0 c 0,-16.6 -11.72,-28.31 -28.55,-28.31 -16.83,0 -28.54,11.71 -28.54,28.31"
       style="fill:#352e38;fill-opacity:1;fill-rule:nonzero;stroke:none"
       transform="matrix(1.3333333,0,0,-1.3333333,769.24,246.25333)"
       clip-path="url(#clipPath17)" />
    <path
       id="path18"
       d="M 0,0 H -9.55 V 6.62 H 0 v 9.77 c 0,11.71 5.65,17.57 14.76,17.57 3.46,-0.009 6.875,-0.784 10,-2.27 l -1.74,-6.84 c -2.238,1.319 -4.782,2.029 -7.38,2.06 -4.88,0 -8,-2.71 -8,-11.07 V 6.62 H 20.99 V 0 H 7.6 V -47.86 H 0 Z"
       style="fill:#352e38;fill-opacity:1;fill-rule:nonzero;stroke:none"
       transform="matrix(1.3333333,0,0,-1.3333333,799.89333,218.76)"
       clip-path="url(#clipPath19)" />
    <path
       id="path20"
       d="m 0,0 c -1.2,9.34 -7.81,16.18 -17.58,16.18 -9,0 -16.93,-6.52 -18.67,-16.18 z m 8,-6 h -44.71 c 0.32,-12.81 8.46,-20.84 21,-20.84 7.333,-0.034 14.414,2.677 19.85,7.6 l 2.17,-6.73 c -4.66,-4.23 -12.8,-7.82 -22.46,-7.82 -17.47,0 -28.21,12.7 -28.21,28.33 0,16.28 11.5,28.32 26.8,28.32 15.3,0 25.61,-11.61 25.61,-27.89 z"
       style="fill:#352e38;fill-opacity:1;fill-rule:nonzero;stroke:none"
       transform="matrix(1.3333333,0,0,-1.3333333,893.77333,238.97333)"
       clip-path="url(#clipPath21)" />
    <path
       id="path22"
       d="M 0,0 2.06,6.73 C 6.963,2.726 13.1,0.543 19.43,0.55 c 7.49,0 12.15,3.47 12.15,9.11 0,5.64 -4.88,7.27 -13.45,10 -8.25,2.49 -16.5,5.42 -16.5,15.51 0,9.77 7.81,15.63 19.21,15.63 5.814,0.041 11.524,-1.538 16.49,-4.56 L 35.7,39.52 c -4.452,3.045 -9.688,4.74 -15.08,4.88 -6.84,0 -11.39,-3.15 -11.39,-8.46 0,-5.75 5.64,-7.71 12.58,-9.66 C 31.04,23.67 39.07,20.42 39.07,10.43 39.07,0.78 31.69,-5.85 18.99,-5.85 11.4,-5.84 3.8,-3.36 0,0"
       style="fill:#352e38;fill-opacity:1;fill-rule:nonzero;stroke:none"
       transform="matrix(1.3333333,0,0,-1.3333333,917.08,276.21333)"
       clip-path="url(#clipPath23)" />
    <path
       id="path24"
       d="M 0,0 2.07,6.73 C 6.969,2.726 13.103,0.542 19.43,0.55 c 7.49,0 12.15,3.47 12.15,9.11 0,5.64 -4.88,7.27 -13.45,10 -8.25,2.49 -16.5,5.42 -16.5,15.51 0,9.77 7.82,15.63 19.21,15.63 5.817,0.041 11.53,-1.538 16.5,-4.56 l -1.63,-6.72 c -4.455,3.047 -9.695,4.742 -15.09,4.88 -6.83,0 -11.39,-3.15 -11.39,-8.46 0,-5.75 5.64,-7.71 12.59,-9.66 C 31.04,23.67 39.07,20.42 39.07,10.43 39.07,0.78 31.69,-5.85 19,-5.85 11.4,-5.84 3.8,-3.36 0,0"
       style="fill:#352e38;fill-opacity:1;fill-rule:nonzero;stroke:none"
       transform="matrix(1.3333333,0,0,-1.3333333,982.82667,276.21333)"
       clip-path="url(#clipPath25)" />
    <path
       id="path26"
       d="m 790,73.22 h 7.6 V 18.74 H 790 Z m -1.83,17.69 c 0.005,3.176 2.584,5.746 5.76,5.74 3.176,-0.006 5.745,-2.584 5.74,-5.76 -0.006,-3.172 -2.578,-5.74 -5.75,-5.74 -3.126,-0.05 -5.7,2.443 -5.75,5.568 -10e-4,0.064 -10e-4,0.128 0,0.192"
       style="fill:#352e38;fill-opacity:1;fill-rule:nonzero;stroke:none"
       transform="matrix(1.3333333,0,0,-1.3333333,0,307.56)"
       clip-path="url(#clipPath27)" />
    <path
       id="path28"
       d="m 0,0 c 0,12.59 -8.68,21.05 -20.84,21.05 -12.37,0 -20.72,-8.57 -20.72,-20.94 0,-12.7 8.57,-21.16 20.72,-21.16 C -8.5,-21.05 0,-12.48 0,0 m -49.38,0 c 0,16.6 11.72,28.32 28.54,28.32 C -4.02,28.32 7.71,16.6 7.71,0 c 0,-16.6 -11.72,-28.31 -28.55,-28.31 -16.83,0 -28.54,11.71 -28.54,28.31"
       style="fill:#352e38;fill-opacity:1;fill-rule:nonzero;stroke:none"
       transform="matrix(1.3333333,0,0,-1.3333333,1147.3333,246.25333)"
       clip-path="url(#clipPath29)" />
    <path
       id="path30"
       d="m 0,0 v -33.32 h -7.6 v 31.25 c 0,11.4 -5,17.37 -14.43,17.37 -10.2,0 -17.58,-7.38 -17.58,-17.58 v -31 h -7.6 v 54.44 h 7.6 V 11.07 c 3.58,6.83 10.63,11.17 20,11.17 C -7.49,22.24 0,14.97 0,0"
       style="fill:#352e38;fill-opacity:1;fill-rule:nonzero;stroke:none"
       transform="matrix(1.3333333,0,0,-1.3333333,1239.2133,238.14667)"
       clip-path="url(#clipPath31)" />
    <path
       id="path32"
       d="M 0,0 V 5.44 C -23.77,5.23 -30.93,1.75 -30.93,-6.17 c 0,-6.08 4.23,-10.09 12.15,-10.09 C -10.41,-16.28 0,-11.83 0,0 M 7.6,12.37 V -21.49 H 0.12 v 9.55 c -3.37,-6.08 -10.64,-10.64 -20.41,-10.64 -11.72,0 -18.55,6.3 -18.55,16.18 0,12.26 10.52,17.14 38.85,17.36 v 1.41 c 0,9 -5.21,15 -15.41,15 -6.547,-0.124 -12.86,-2.461 -17.91,-6.63 l -2.17,6.84 c 6.195,4.339 13.598,6.616 21.16,6.51 C -0.54,34.07 7.6,26.91 7.6,12.37"
       style="fill:#352e38;fill-opacity:1;fill-rule:nonzero;stroke:none"
       transform="matrix(1.3333333,0,0,-1.3333333,1309.3333,253.92)"
       clip-path="url(#clipPath33)" />
    <path
       id="path34"
       d="M 0,0 V 69.68 H 7.59 V 1.09 c 0,-5.1 2.07,-7.16 5.32,-7.16 1.957,0.102 3.875,0.581 5.65,1.41 l 1.19,-6.4 c -2.649,-1.362 -5.592,-2.049 -8.57,-2 C 4.34,-13 0,-9 0,0"
       style="fill:#352e38;fill-opacity:1;fill-rule:nonzero;stroke:none"
       transform="matrix(1.3333333,0,0,-1.3333333,1342.3467,266.66667)"
       clip-path="url(#clipPath35)" />
    <path
       id="path36"
       d="m 377.13,214.91 h 6.9 V 18.74 h -6.9 z"
       style="fill:#352e38;fill-opacity:1;fill-rule:nonzero;stroke:none"
       transform="matrix(1.3333333,0,0,-1.3333333,0,307.56)"
       clip-path="url(#clipPath37)" />
    <path
       id="path38"
       d="m 0,0 c 15.77,11.7 27.19,46.18 27.19,86.9 v 4.8 c 45.72,6.85 78.5,25.45 78.5,47.31 0.002,1.004 -0.068,2.006 -0.21,3 11.64,-14 18.31,-30.23 18.31,-47.58 C 123.78,44.89 69.37,4.18 0,0 m -147.31,94.39 c 0,17.35 6.67,33.6 18.3,47.58 -0.133,-0.994 -0.2,-1.997 -0.2,-3 0,-21.86 32.78,-40.46 78.5,-47.31 v -4.8 c 0,-40.72 11.42,-75.2 27.18,-86.9 -69.38,4.22 -123.78,44.93 -123.78,94.43 m 135.54,83.68 c -17,0 -31.44,-25.4 -36.78,-60.84 -32.18,5 -54.65,16.44 -54.65,29.72 0,17.94 40.94,32.44 91.43,32.44 50.49,0 91.43,-14.5 91.43,-32.44 0,-13.28 -22.46,-24.69 -54.64,-29.72 -5.34,35.44 -19.8,60.84 -36.79,60.84 z M -34.43,115.5 c 3.54,22.77 12.35,38.9 22.66,38.9 10.31,0 19.13,-16.13 22.67,-38.9 -7.25,-0.65 -14.84,-1 -22.67,-1 -7.83,0 -15.41,0.39 -22.66,1 m 22.66,-83.35 c -13,0 -23.6,25.59 -24.28,57.8 7.83,-0.71 16,-1.08 24.28,-1.08 8.28,0 16.45,0.37 24.29,1.08 -0.69,-32.21 -11.3,-57.8 -24.29,-57.8 m 0,160.74 C -99.16,192.89 -170,147.07 -170,90.55 c 0,-56.52 70.84,-102.33 158.23,-102.33 87.39,0 158.24,45.82 158.24,102.33 0,56.51 -70.85,102.34 -158.24,102.34"
       style="fill:#352e38;fill-opacity:1;fill-rule:nonzero;stroke:none"
       transform="matrix(1.3333333,0,0,-1.3333333,246.66667,274.52)"
       clip-path="url(#clipPath39)" />
  </g>
</svg>
