<svg width="111" height="28" viewBox="0 0 111 28" fill="none" xmlns="http://www.w3.org/2000/svg">
<path fill-rule="evenodd" clip-rule="evenodd" d="M72.0221 9.43238C72.0221 9.43238 69.9065 10.8924 69.8554 10.9317L69.8376 10.9454C69.6585 11.0831 69.4269 11.2612 69.3943 11.9149C69.3805 12.1968 69.2987 14.1855 69.2936 14.4382C69.2885 14.7095 69.1694 15.4608 68.3088 14.6993L66.6521 13.2397C66.649 13.2369 66.644 13.2321 66.6373 13.2254C66.5392 13.1283 66.0594 12.6531 65.3387 12.9662L63.0804 13.8742C63.0804 13.8742 61.7221 14.4324 62.2281 13.204C62.6837 12.0912 63.0014 11.1559 63.1309 10.7746L63.1568 10.6986C63.2694 10.364 63.2285 9.8942 62.9539 9.56511C62.8283 9.41638 61.7431 7.97311 61.4964 7.61711C61.4964 7.61711 60.6043 6.55347 62.0894 6.62438C62.0894 6.62438 64.6244 6.68256 64.6646 6.68656C64.7063 6.69093 65.1811 6.72329 65.5209 6.18802C65.9374 5.5262 67.1617 3.98184 66.9085 4.31056L66.9242 4.29046C67.1462 4.00517 67.6262 3.38865 67.9469 4.48147C67.9469 4.48147 68.4145 5.95311 68.634 6.57238L68.6374 6.58178C68.7869 6.99837 68.8867 7.27638 69.6337 7.51893L71.9634 8.36511C71.9634 8.36511 73.0518 8.70547 72.0221 9.43238ZM76.3874 2.90074C70.4096 -0.199622 64.5045 -0.528349 60.8332 0.579652C54.0445 2.62729 51.9386 11.3098 58.2294 15.564C58.6104 15.8222 58.3688 16.3655 57.894 17.2277L57.8053 17.3903C57.1979 18.5065 56.117 20.4926 54.2784 21.9484C54.1644 22.0387 54.0543 22.1238 53.9493 22.2049L53.9492 22.205C52.9839 22.951 52.4538 23.3606 53.3175 24.3858C53.3175 24.3858 55.444 26.7829 57.0153 27.4782C58.9085 28.3149 59.3833 28.1742 60.793 26.8462C61.6794 26.0095 63.4371 23.7295 65.5557 20.0928C66.6568 18.2018 68.1259 18.168 67.9267 21.2768C67.9267 21.2768 67.6369 24.2688 67.5561 24.8877C67.3207 26.6706 67.505 27.2877 69.0926 27.3037C69.0926 27.3037 72.5031 27.1146 73.6861 26.9466C75.1857 26.7428 75.2617 26.5022 75.5804 25.4932C75.616 25.3806 75.6546 25.2585 75.6985 25.1258C78.026 18.0702 78.2234 5.95856 78.2234 5.95856C78.3255 4.33456 77.8155 3.6422 76.3874 2.90074ZM19.0296 18.1909C18.1632 17.8975 17.517 16.5033 17.8307 14.9865C18.1422 13.4727 19.1962 12.4214 20.1741 12.7356C21.042 13.0174 21.6827 14.4982 21.3785 16.0156C21.0579 17.6294 20.0191 18.5295 19.0296 18.1909ZM26.5562 12.0989C25.4685 10.2709 23.7237 9.09926 21.6432 8.80108C18.989 8.42181 16.4188 9.51963 14.9396 11.6614C13.8537 13.236 13.5031 15.1324 13.9576 17C15.0515 21.5073 19.4298 22.7691 22.1681 21.9465C25.2591 21.0185 26.9879 19.1902 27.4584 16.3585C27.683 14.9949 27.3534 13.4414 26.5562 12.0989ZM82.5547 8.71782L82.5621 8.70625C83.1786 7.75789 83.919 7.9117 84.4224 8.10989L85.1294 8.37607C85.7173 8.59207 86.3794 8.83643 86.6844 8.99571C87.2074 9.27316 87.3671 9.98298 87.0524 10.6477L86.8362 11.075L86.7897 11.1648C86.275 12.1587 85.4898 13.6752 85.2761 15.5833C85.1885 16.3717 85.5514 17.1473 86.1259 17.3844C86.7681 17.651 87.7442 17.2386 88.5602 16.2026C89.8055 14.6266 90.0018 12.0717 90.0312 9.19025L90.0355 8.98698C90.0706 8.23061 90.4716 7.76407 91.1351 7.70698C91.7936 7.64916 92.3764 7.62698 92.6434 7.64007C93.3478 7.67207 93.7666 8.10152 93.7934 8.81898C93.9241 11.9193 93.4098 18.7946 88.8196 21.523C86.6844 22.7914 84.3217 22.8848 82.4984 21.7746C80.8573 20.7743 79.9452 18.9332 80.0561 16.8463C80.3029 12.1959 82.2717 9.15492 82.5547 8.71782ZM98.5218 6.47465C96.5315 7.54956 95.5061 9.01938 95.2968 11.0987C95.0208 13.8116 98.536 15.7304 99.5887 16.305L99.6914 16.3612C100.773 16.9557 100.813 17.643 100.534 18.0507C100.09 18.6917 98.862 18.5114 97.9572 18.1452C96.964 17.7434 96.4606 17.267 95.6427 16.3052C95.1642 15.7434 93.7053 17.3557 93.4767 18.4801C93.3791 18.9575 93.5448 19.2001 93.8171 19.5989C93.8379 19.6294 93.8593 19.6607 93.8813 19.6932C94.6767 20.8736 97.2295 22.9612 100.933 23.2423C101.953 23.3197 104.613 23.3812 106.405 21.6965C107.132 21.015 107.923 19.8848 108.196 18.5412C108.385 17.6125 108.371 16.3921 107.653 15.2823C106.643 13.7208 104.964 12.6852 103.096 11.7987C100.376 10.5056 100.902 9.73829 101.51 9.38302C102.08 9.05101 104.017 9.28483 105.536 10.7423C106.304 11.4812 107.899 9.18956 107.234 8.40992C104.81 5.56374 100.696 5.29901 98.5218 6.47465ZM32.0868 24.1993C34.6106 23.116 41.072 11.8142 42.5863 6.87382C42.8917 5.87891 42.7975 5.584 41.7942 5.532C40.7525 5.47745 39.755 5.46909 39.1117 5.47381C39.0017 5.47447 38.8917 5.4692 38.7833 5.464C38.2935 5.4405 37.8352 5.4185 37.5383 5.95236C37.225 6.54363 35.2434 10.276 34.7754 10.8495C34.5816 11.0858 34.3415 11.1396 34.0771 10.9491L30.4076 6.13527C30.3931 6.11827 30.3789 6.10144 30.365 6.08487C30.1452 5.82327 29.9827 5.62998 29.1703 5.95418C28.3079 6.30072 27.0797 6.83709 26.3067 7.23127C25.5352 7.62509 25.5305 7.86727 26.2296 8.892C26.5302 9.33135 28.7964 12.4528 30.0534 14.1842L30.0536 14.1844C30.5172 14.8231 30.8436 15.2725 30.8832 15.3284C30.9726 15.4545 31.0494 15.72 31.0288 15.9793C30.9353 17.1484 28.978 19.1516 27.4039 20.4647C26.9884 20.8109 27.5038 21.4676 27.7422 21.7556C28.2804 22.3993 29.9498 24.1524 31.2892 24.3429C31.6424 24.3917 31.7248 24.356 32.0434 24.2181L32.0868 24.1993ZM44.3164 7.79829C42.6586 8.87283 41.8705 10.2216 41.8317 12.0412C41.7788 14.4976 45.043 16.1252 45.8609 16.4914C46.8432 16.9307 46.9837 17.4587 46.808 17.859C46.549 18.4474 45.9623 18.5572 45.2759 18.4081C44.4619 18.2349 43.7652 17.6897 43.1061 17.174L43.1061 17.174C42.7549 16.8992 42.4144 16.6327 42.0726 16.4354C41.5166 16.1117 40.6998 17.2187 40.5792 18.2092C40.5227 18.663 40.6589 18.9128 41.0164 19.2339C41.0705 19.2829 41.128 19.3357 41.1891 19.3918C42.1637 20.2865 44.0485 22.017 47.5857 22.1768C48.4789 22.2183 50.7991 22.0376 52.2418 20.4485C52.825 19.8059 53.4374 18.9496 53.5812 17.7667C53.6798 16.9481 53.4965 15.9496 52.8811 14.9747C52.3631 14.1612 51.4192 13.3488 49.7629 12.6354C47.0779 11.4794 47.9254 10.3197 48.5647 10.1008C49.1084 9.91538 50.065 10.0572 51.6539 11.0572C52.5149 11.5983 53.6573 9.47465 52.9456 8.9372C49.3804 6.25974 46.1278 6.62592 44.3164 7.79829ZM1.29893 5.47247C7.1286 5.42265 9.10188 5.30665 14.3629 4.40447C15.4093 4.22332 15.6078 4.68446 15.7719 5.06565C15.7932 5.11526 15.814 5.16352 15.836 5.20883C15.9982 5.53865 16.3068 7.25865 16.2869 7.70192C16.2825 7.78885 16.2871 7.88364 16.2919 7.98136V7.98141C16.3114 8.3767 16.3331 8.82011 15.7643 8.98629C14.0897 9.47559 13.3498 9.7093 12.4528 9.99263L12.4528 9.99263L12.4526 9.99271C12.1631 10.0842 11.8572 10.1808 11.4982 10.2928C10.8494 10.4957 10.8596 10.7751 10.8778 11.2768L10.8803 11.3459C10.9853 14.3608 11.9445 18.3423 12.6236 20.5696C12.9097 21.5067 13.0372 22.1772 12.4095 22.4223C11.5399 22.763 9.11022 23.4496 8.45861 23.5928C7.36806 23.8321 7.18005 23.0308 7.0732 22.5753L7.06268 22.5307C6.10429 18.5256 5.62835 14.4412 5.53599 12.9143C5.48926 12.1365 5.24623 11.4114 4.54645 11.427C4.26199 11.4336 3.96395 11.4519 3.61057 11.4736H3.61055C3.07167 11.5066 2.4041 11.5475 1.45975 11.567C0.624144 11.5837 0.181531 11.5321 0.0692477 10.779C-0.0430354 10.0292 -0.0115237 6.62483 0.111626 6.09174C0.234775 5.55865 0.828065 5.47647 1.29893 5.47247ZM109.281 6.8604H109.151V6.86004V6.47458C109.194 6.46655 109.238 6.46314 109.281 6.4644C109.488 6.4644 109.566 6.56368 109.566 6.66549C109.566 6.80222 109.437 6.8604 109.281 6.8604ZM108.974 7.49095H109.151V7.00077H109.279C109.425 7.00077 109.503 7.05895 109.528 7.20222C109.549 7.35095 109.576 7.45822 109.602 7.49095H109.792C109.776 7.45858 109.751 7.39131 109.723 7.20949C109.7 7.04477 109.632 6.95131 109.532 6.93095V6.92586C109.657 6.88877 109.758 6.79495 109.758 6.64331C109.758 6.53531 109.718 6.45568 109.652 6.40913C109.581 6.35931 109.468 6.31931 109.295 6.31931C109.171 6.31931 109.09 6.33087 109.008 6.34257C108.997 6.34416 108.986 6.34575 108.974 6.34731V7.49095ZM108.526 6.89713C108.526 6.41677 108.895 6.03168 109.347 6.03168C109.8 6.03168 110.164 6.41677 110.164 6.89968C110.164 7.38331 109.8 7.77204 109.347 7.7644C108.895 7.7644 108.526 7.38331 108.526 6.89713ZM110.352 6.89713C110.352 6.32186 109.907 5.86877 109.347 5.86877V5.86913C108.785 5.86913 108.334 6.32186 108.334 6.89713C108.334 7.4724 108.786 7.9244 109.347 7.9244C109.907 7.9244 110.352 7.4724 110.352 6.89713Z" fill="white"/>
</svg>
