<svg xmlns="http://www.w3.org/2000/svg" xmlns:xlink="http://www.w3.org/1999/xlink" id="Ebene_1" x="0px" y="0px" viewBox="0 0 772 198.67" style="enable-background:new 0 0 772 198.67;" xml:space="preserve"> <style type="text/css"> .st0{fill:#FFFFFF;} .st1{fill-rule:evenodd;clip-rule:evenodd;fill:#FFFFFF;} </style> <g> <g> <defs> <path id="SVGID_1_" d="M19.56,3.92h733.46c8.81,0,15.94,6.1,15.94,13.62v164.1c0,7.52-7.14,13.62-15.94,13.62H19.56 c-8.81,0-15.94-6.1-15.94-13.62V17.54C3.61,10.02,10.75,3.92,19.56,3.92z"></path> </defs> <use xlink:href="#SVGID_1_" style="overflow:visible;fill:#E40521;"></use> <clipPath id="SVGID_00000181069475441916858500000003279004154927450762_"> <use xlink:href="#SVGID_1_" style="overflow:visible;"></use> </clipPath> </g> </g> <g> <path class="st0" d="M126.26,44.62c1.16-2.29-0.5-4.99-3.06-4.99H32.65l8.14-15.8h203.93l-7.96,15.51h-53.54 c-2.59,0-4.95,1.45-6.12,3.76l-47.95,94.49H79.1L126.26,44.62z"></path> </g> <path class="st0" d="M210.89,56.3c0.01-0.02,0.04-0.04,0.06-0.04h115.01c5.18,0,8.49,5.51,6.07,10.08l-19.26,36.33 c-0.01,0.02-0.04,0.04-0.06,0.04h-47.04l12.92-25.66c1.15-2.28-0.51-4.98-3.07-4.98h-22.44c-0.03,0-33.15,65.51-33.15,65.51 l-50.41,0L210.89,56.3z"></path> <g> <polygon class="st0" points="318.27,137.58 359.7,56.29 409.88,56.29 368.46,137.58 "></polygon> <polygon class="st0" points="376.29,23.58 426.58,23.58 418.63,39.09 368.34,39.09 "></polygon> </g> <path class="st0" d="M429.6,65.64c2.93-5.74,8.84-9.35,15.28-9.35h121.85l-7.91,15.75H480.7c-2.41,0-4.62,1.35-5.72,3.49 l-6.15,11.98l71.22-0.03c5.13,0,8.45,5.41,6.12,9.98l-15.66,30.74c-2.93,5.76-8.85,9.38-15.31,9.37l-124.11,0.01l8.36-16.46 l78.75-0.14c2.39,0,4.58-1.33,5.69-3.45l7.56-14.45l-69.74-0.05c-5.13,0-8.44-5.42-6.11-9.99L429.6,65.64z"></path> <path class="st1" d="M612.57,106.57c1.07-2.23,3.32-3.66,5.8-3.66h30.85c0.1,0,0.16,0.1,0.12,0.19l-8.62,17.8h-29.68 c-2.47,0-4.09-2.57-3.03-4.8L612.57,106.57z M591.7,56.26l-7.75,15.76L660.33,72c2.5,0,4.12,2.64,2.99,4.87L658,87.41 c-0.02,0.04-0.07,0.07-0.12,0.07l-72.19,0.03c-6.45,0-12.35,3.62-15.28,9.36l-14.14,30.74c-2.33,4.57,0.99,9.99,6.12,9.99h119.03 l36.4-71.4c2.32-4.57-1-9.94-6.12-9.94L591.7,56.26z"></path> <g> <path class="st0" d="M79.13,152.43h13.03v2.7H81.86v6.33h9.58v2.7h-9.58v6.81h10.8v2.7H79.13V152.43z"></path> <path class="st0" d="M137.87,152.43h2.74v18.54h9.26v2.7h-12V152.43z"></path> <path class="st0" d="M193.98,152.43h13.03v2.7h-10.29v6.33h9.58v2.7h-9.58v6.81h10.8v2.7h-13.54V152.43z"></path> <path class="st0" d="M266.77,157.02c-1.14-1.56-3.02-2.43-4.87-2.43c-4.53,0-7.52,3.81-7.52,8.64c0,4.47,2.82,8.28,7.52,8.28 c2.31,0,4.08-1.08,5.27-2.85l2.31,1.83c-0.6,0.87-3.02,3.72-7.64,3.72c-6.41,0-10.38-5.64-10.38-10.98c0-6.6,4.3-11.34,10.52-11.34 c2.65,0,5.44,1.05,7.07,3.3L266.77,157.02z"></path> <path class="st0" d="M318.33,155.13h-6.5v-2.7h15.73v2.7h-6.5v18.54h-2.74V155.13z"></path> <path class="st0" d="M371.79,152.43h7.1c5.16,0,6.47,3.27,6.47,5.94c0,2.7-1.91,5.25-4.96,5.61l5.73,9.69h-3.42l-5.13-9.36h-3.05 v9.36h-2.74V152.43z M374.53,161.79h3.59c2.17,0,4.33-0.54,4.33-3.42s-2.17-3.42-4.33-3.42h-3.59V161.79z"></path> <path class="st0" d="M429.28,163.05c0-6.3,4.36-11.16,10.52-11.16s10.52,4.86,10.52,11.16s-4.36,11.16-10.52,11.16 S429.28,169.35,429.28,163.05z M447.41,163.05c0-4.65-2.99-8.46-7.61-8.46s-7.61,3.81-7.61,8.46c0,4.65,2.99,8.46,7.61,8.46 S447.41,167.7,447.41,163.05z"></path> <path class="st0" d="M495.57,152.43h3.59l11.12,17.46h0.06v-17.46h2.74v21.24h-3.48l-11.23-17.46h-0.06v17.46h-2.74V152.43z"></path> <path class="st0" d="M559.58,152.43h2.74v21.24h-2.74V152.43z"></path> <path class="st0" d="M622.88,157.02c-1.14-1.56-3.02-2.43-4.88-2.43c-4.53,0-7.52,3.81-7.52,8.64c0,4.47,2.82,8.28,7.52,8.28 c2.31,0,4.08-1.08,5.27-2.85l2.31,1.83c-0.6,0.87-3.02,3.72-7.64,3.72c-6.41,0-10.38-5.64-10.38-10.98c0-6.6,4.3-11.34,10.52-11.34 c2.65,0,5.44,1.05,7.07,3.3L622.88,157.02z"></path> <path class="st0" d="M670.81,169.23c0.97,1.56,2.65,2.28,4.28,2.28c1.8,0,4.02-1.2,4.02-3.54c0-4.89-9.95-1.86-9.95-10.14 c0-2.49,2-5.94,6.84-5.94c2.2,0,4.3,0.48,5.81,2.43l-2.22,2.13c-0.68-1.11-2.02-1.86-3.59-1.86c-3.02,0-3.93,1.92-3.93,3.24 c0,5.37,9.95,2.16,9.95,9.81c0,4.11-3.14,6.57-7.01,6.57c-2.59,0-5.07-0.93-6.44-2.94L670.81,169.23z"></path> </g> <path class="st0" d="M730.44,124.27c0,7.37-5.84,13.54-13.26,13.54c-7.42,0-13.25-6.17-13.25-13.54c0-7.09,5.85-13.26,13.25-13.26 C724.59,111.02,730.44,117.19,730.44,124.27L730.44,124.27z M728.52,124.27c0-6.06-5.02-11.33-11.34-11.33 c-6.31,0-11.33,5.27-11.33,11.33c0,6.35,5.03,11.62,11.33,11.62C723.49,135.9,728.52,130.63,728.52,124.27L728.52,124.27z"></path> <g> <path class="st0" d="M712.29,116.85h4.97c2.75,0,5.34,0.94,5.34,4.31c0,2.16-1.2,3.76-3.32,4.08l3.8,6.65h-3.07l-3.32-6.37h-1.85 v6.37h-2.55V116.85z M716.81,123.23c1.44,0,3.11-0.13,3.11-2.08c0-1.78-1.58-1.99-2.89-1.99h-2.19v4.08H716.81z"></path> </g> </svg>