<?xml version="1.0" encoding="UTF-8"?>
<!DOCTYPE svg PUBLIC "-//W3C//DTD SVG 1.0//EN" "http://www.w3.org/TR/2001/REC-SVG-20010904/DTD/svg10.dtd">
<!-- Creator: CorelDRAW -->
<svg xmlns="http://www.w3.org/2000/svg" xml:space="preserve" width="236px" height="108px" version="1.0" style="shape-rendering:geometricPrecision; text-rendering:geometricPrecision; image-rendering:optimizeQuality; fill-rule:evenodd; clip-rule:evenodd"
viewBox="0 0 23600 10812.5"
 xmlns:xlink="http://www.w3.org/1999/xlink"
 xmlns:xodm="http://www.corel.com/coreldraw/odm/2003">
 <defs>
  <style type="text/css">
   <![CDATA[
    .fil0 {fill:white}
   ]]>
  </style>
 </defs>
 <g id="Warstwa_x0020_1">
  <metadata id="CorelCorpID_0Corel-Layer"/>
  <g id="_2406333466848">
   <path class="fil0" d="M11369.3 4533.6l761.3 0 0 -324.3 -1870.3 0 0 324.3 756.6 0 0 2810.1 352.4 0 0 -2810.1zm4130.6 1921.9l371.2 888.2 385.4 0 -1409.7 -3284.8 -1442.7 3284.8 380.6 0 376 -888.2 1339.2 0zm-136.3 -324.2l-1057.3 0 535.7 -1254.7 521.6 1254.7zm3248.7 -1922l-352.4 0 0 3134.4 1212.4 0 0 -324.3 -860 0 0 -2810.1zm1268.3 561.5l95 0 0 -185.2c7.1,1.1 8.3,1.1 17.8,1.1 8.3,0 15.4,0 27.3,-2.3 11.9,22.5 17.8,32 27.3,48.7 23.7,41.6 42.8,68.8 61.8,90.2 32,35.6 72.4,53.4 123.5,53.4 22.5,0 39.1,-3.5 40.3,-9.5l7.1 -26c-55.8,-4.9 -103.2,-53.5 -169.7,-175.9 67.7,-23.7 103.2,-67.6 103.2,-124.6 0,-42.7 -18.9,-79.6 -53.4,-100.9 -27.3,-16.6 -59.4,-22.6 -131.8,-22.6 -19,0 -34.4,0 -80.7,1.2 -42.8,1.2 -20.2,0 -67.7,1.2l0 451.2zm95 -397.8c14.3,-1.2 27.2,-1.2 41.6,-1.2 70,0 98.5,21.4 98.5,72.5 0,61.7 -32.1,89 -104.5,89 -13,0 -21.3,0 -35.6,-2.4l0 -157.9zm84.4 -233.9c-238.7,0 -427.6,181.7 -427.6,410.8 0,226.8 188.9,409.9 421.6,409.9 232.7,0 421.5,-183.1 421.5,-409.9 0,-223.2 -188.8,-410.8 -415.5,-410.8zm0 67.7c185.2,0 339.5,155.5 339.5,343.1 0,193.6 -154.3,349.1 -345.5,349.1 -191.2,0 -345.6,-155.5 -345.6,-349.1 0,-80.7 28.6,-159.1 80.8,-220.8 68.9,-80.8 160.2,-122.3 270.8,-122.3zm-15586 2.5l-385.3 0 1268.7 3318.4 1273.5 -3318.4 -380.6 0 -888.2 2387.2 -888.1 -2387.2z"/>
   <path class="fil0" d="M4615.2 9947.6c-50.6,-88.2 -134.5,-137.5 -234.3,-137.5 -141.7,0 -247.3,101.3 -247.3,235.8 0,109.9 42,160.5 190.9,234.3l27.5 13 27.5 14.4 27.5 13c41.9,21.8 75.1,39.1 96.9,50.7 60.7,34.7 93.9,86.7 93.9,146 0,124.4 -105.5,227 -235.7,227 -69.3,0 -137.4,-30.3 -177.9,-80.9 -18.8,-24.6 -30.3,-44.8 -53.4,-92.6l-53.6 26c56.4,137.4 151.9,207.1 284.9,207.1 163.4,0 300.8,-127.5 300.8,-280.8 0,-81 -33.2,-143.2 -101.2,-188 -43.4,-27.5 -68,-40.5 -192.4,-99.8 -131.5,-63.6 -170.6,-105.5 -170.6,-183.6 0,-102.7 78.1,-182.2 180.8,-182.2 82.4,0 134.5,31.8 189.4,115.7l46.3 -37.6zm3516.6 523.5l127.3 316.6 70.9 0 -402.1 -993.4 -404.9 993.4 69.4 0 128.7 -316.6 410.7 0zm-23 -57.9l-364.5 0 183.6 -457 180.9 457zm3181.1 -590l-62.2 0 0 620.4c0,127.2 10.1,173.5 50.6,228.4 57.8,81 163.4,131.9 277.6,131.9 112.8,0 218.4,-50.9 276.2,-131.9 40.5,-54.9 50.7,-101.2 50.7,-228.4l0 -620.4 -62.2 0 0 603c0,118.6 -7.3,164.9 -34.7,206.8 -42,65 -137.4,111.3 -230,111.3 -94,0 -189.4,-46.3 -231.3,-111.3 -27.5,-41.9 -34.7,-88.2 -34.7,-206.8l0 -603zm3629.4 964.8l62.2 0 0 -823.1 809.8 847.6 0 -989.3 -62.2 0 0 837.3 -809.8 -847.4 0 974.9zm4405.9 -316.9l127.3 316.6 70.9 0 -402 -993.4 -404.9 993.4 69.4 0 128.7 -316.6 410.6 0zm-23.1 -57.9l-364.4 0 183.7 -457 180.7 457z"/>
   <path class="fil0" d="M7669.2 7441.1l212.2 0c56.1,-955.8 -443.5,-1685.5 -103.5,-2472.5 353.4,-818.5 342.6,-1234.6 122.8,-2068 -202.3,-766.6 -114.8,-984.3 237.2,-1717.7 171.3,-356.9 402.4,-783.8 425.5,-1182.9l-212.4 0c-35.6,660 -799.1,1501.9 -771.8,2312.1 25.5,756.9 539.5,1291.2 62.6,2440.3 -139.1,335.2 -193.4,430.1 -196.3,820.7 -4.2,577.8 263,1158.1 223.7,1868z"/>
   <path class="fil0" d="M8219.6 7441.1l212.3 0c55,-960.3 -443,-1685.2 -103.6,-2472.7 352.8,-818.4 343.3,-1234.1 122.7,-2067.9 -202.7,-766.4 -113.8,-985.6 237.3,-1717.9 171.1,-356.9 403.4,-783.3 425.6,-1182.6l-212.5 0c-40.1,703.5 -839.7,1517.4 -766.7,2395.8 62.4,749.8 517.1,1254.6 57.1,2356.5 -115.6,277.2 -182.1,399.1 -194.4,724.2 -24.7,652.7 264.1,1230.4 222.2,1964.6z"/>
   <path class="fil0" d="M8770 7441.1l212.4 0c56,-954.3 -443.2,-1682.5 -103.9,-2472.6 350.7,-816.5 345.6,-1234.8 123.1,-2068 -204,-763.6 -111.8,-990.8 237.1,-1717.7 175.3,-365.3 399.8,-772.7 425.6,-1182.8l-212.2 0c-39,671.2 -799,1497.2 -771.7,2312.2 25.3,756.5 539.5,1294.7 62,2440.2 -138,331.2 -193.5,433.5 -195.7,819.6 -3.2,593.8 263.2,1158.7 223.3,1869.1z"/>
   <polygon class="fil0" points="0,8771.5 0,8954.5 23600,8954.4 23600,8771.5 "/>
  </g>
 </g>
</svg>
