<svg width="350" height="40" viewBox="0 0 350 40" fill="none" xmlns="http://www.w3.org/2000/svg">
<path d="M199.976 12.3443C199.915 13.2456 199.151 13.9747 198.256 13.9747C197.36 13.9747 196.656 13.2354 196.717 12.324C196.777 11.4126 197.551 10.6835 198.447 10.6835C199.342 10.6835 200.036 11.4228 199.976 12.3342" fill="white"/>
<path d="M214.198 18.0962C214.209 18.7949 213.806 19.6557 213.062 20.4759L209.743 21.9342C210.527 20.5772 210.768 19.7468 210.758 19.3519C210.758 18.9164 210.547 18.7342 210.266 18.7342C209.441 18.7342 205.518 19.9392 199.966 32.8202L196.445 33.357L196.183 33.1848L202.48 19.3013C202.762 18.6734 202.601 18.5013 201.957 18.2177C205.075 17.4886 205.558 17.3772 205.558 17.3772C205.659 17.357 205.759 17.3468 205.85 17.3468C206.423 17.3468 206.655 17.8126 206.383 18.4506L204.542 22.6633C207.027 18.8861 210.064 16.881 212.579 16.881C213.585 16.881 214.198 17.2962 214.209 18.0962" fill="white"/>
<path d="M197.37 18.481C197.37 18.481 195.429 22.7443 191.627 31.1494C191.456 31.524 191.285 32.1316 191.959 32.1316C192.925 32.1316 194.373 31.6557 196.143 30.2177L195.127 31.7165C194.675 32.0709 192.452 33.4785 189.454 33.4785C187.825 33.4785 187.272 32.4253 187.925 30.9671C189.887 26.6329 191.466 23.2911 193.256 19.5038C193.598 18.7747 193.488 18.6532 192.854 18.3494L196.415 17.4684C196.586 17.4278 196.737 17.4076 196.878 17.4076C197.511 17.4076 197.632 17.8835 197.37 18.4709" fill="white"/>
<path d="M155.868 8.05064C152.791 9.76203 150.809 13.1241 149.32 16.2329C147.58 19.8684 146.262 23.8076 144.029 27.1696C142.008 30.2076 139.463 31.919 136.083 33.5899L136.707 32.3949C138.226 31.5848 139.775 28.9114 140.67 27.0076C141.917 24.3747 143.345 20.7494 144.874 17.3873C146.816 13.0937 149.079 8.97216 154.219 7.8076C155.154 7.59494 156.19 7.41266 157.458 7.27089C156.884 7.51393 156.17 7.88861 155.868 8.06076" fill="white"/>
<path d="M163.171 9.49873C163.171 13.3671 160.616 16 156.593 17.7722C158.836 19.0785 160.244 21.6304 160.244 24.1823C160.244 33.4481 150.457 38.7544 139.292 38.7544C133.579 38.7544 126.96 37.0329 126.96 32.7797C126.96 29.9848 129.686 28.3443 133.116 28.1013V28.1823C131.295 28.7291 129.907 30.3595 129.907 32.2228C129.907 35.5342 134.061 37.6304 139.664 37.6304C147.58 37.6304 156.11 33.5797 156.11 24.9823C156.11 21.438 154.098 19.2304 152.086 18.8658L151.915 18.481C156.019 17.6608 159.359 14.5823 159.359 10.4304C159.359 5.2962 155.486 2.94684 150.195 2.94684C143.627 2.94684 136.314 7.15949 136.314 13.9747C136.314 17.2658 138.055 20.0506 141.686 21.9646H138.216C135.842 20.243 134.735 17.5494 134.735 14.957C134.735 6.74431 143.506 1.70127 151.865 1.70127C157.629 1.70127 163.181 4.06076 163.181 9.49873" fill="white"/>
<path d="M112.908 22.5215C114.89 20.1418 117.696 17.2152 120.784 17.2152C121.89 17.2152 123.087 17.5089 123.087 18.9671C123.087 19.7873 122.776 20.5873 122.464 21.2962C121.196 24.2127 119.406 27.1392 118.179 30.0759C117.998 30.5013 117.736 31.1089 117.736 31.5747C117.736 31.919 117.927 32.1013 118.36 32.1013C119.416 32.1013 120.764 31.4228 122.413 30.1772L121.267 31.7772C119.496 32.8506 117.736 33.4684 116.046 33.4684C114.99 33.4684 114.014 32.9721 114.014 31.8481C114.014 30.4506 115.614 27.4127 116.288 26.0658C116.881 24.8709 119.486 20.1215 119.486 19.1696C119.486 18.8456 119.335 18.6633 119.034 18.6633C118.521 18.6633 117.988 18.957 117.636 19.1696C114.226 21.2354 111.067 26.5114 109.126 30.6633C109.126 30.6633 108.734 31.4532 108.12 32.8101L104.69 33.2759L104.419 33.1038C106.088 28.9519 108.17 25.2051 109.85 21.2557C110.303 20.2025 110.534 19.5038 110.534 19.0987C110.534 18.8557 110.434 18.6734 110.132 18.6734C109.609 18.6734 108.945 19.038 108.573 19.2709C104.72 21.7114 101.059 28.8506 99.178 32.9418L95.6273 33.4278L95.3557 33.2557C95.919 32.0405 100.536 22.1975 101.612 19.5848C101.894 18.9063 101.783 18.6329 101.129 18.3595C101.884 18.1873 102.648 17.9747 103.382 17.7924C104.117 17.6101 104.861 17.438 105.153 17.438C105.485 17.438 105.797 17.6304 105.797 18.0354C105.797 18.319 105.263 19.5848 104.73 20.8202C104.398 21.5696 104.056 22.3291 103.805 22.8962C105.646 20.4759 108.502 17.2152 111.631 17.2152C112.727 17.2152 114.075 17.4278 114.075 18.9468C114.075 20.0608 113.401 21.4987 112.918 22.5114" fill="white"/>
<path d="M81.7967 12.3443C81.7364 13.2456 80.9719 13.9747 80.0767 13.9747C79.1815 13.9747 78.4874 13.2354 78.5377 12.3241C78.5981 11.4127 79.3625 10.6835 80.2678 10.6835C81.1731 10.6835 81.8571 11.4228 81.7967 12.3342" fill="white"/>
<path d="M78.8597 18.481C78.8597 18.481 76.9184 22.7443 73.1061 31.1494C72.9351 31.524 72.7641 32.1316 73.4381 32.1316C74.2428 32.1316 75.8521 31.6658 77.6225 30.2177L76.6065 31.7266C76.1539 32.0911 73.9309 33.4785 70.9335 33.4785C69.2939 33.4785 68.7508 32.4253 69.4146 30.9671C71.3459 26.7038 72.915 23.362 74.7457 19.5038C75.0877 18.7747 74.977 18.6532 74.3434 18.3494L77.9041 17.4684C78.0751 17.4278 78.226 17.4076 78.3668 17.4076C79.0106 17.4076 79.1212 17.8835 78.8597 18.4709" fill="white"/>
<path d="M74.0717 8.8C74.0717 8.8 72.1304 13.0532 63.9326 31.1595C63.7616 31.5342 63.5906 32.1519 64.2646 32.1519C65.2101 32.1519 66.6786 31.6861 68.4389 30.2481L67.433 31.7468C66.9804 32.1114 64.7977 33.4886 61.8002 33.4886C60.1707 33.4886 59.6175 32.4354 60.2813 30.9772C62.2126 26.7139 68.1673 13.6709 69.998 9.82278C70.34 9.09367 70.2293 8.97215 69.5956 8.66835L73.1262 7.80759C73.2972 7.76709 73.4481 7.74683 73.5789 7.74683C74.2226 7.74683 74.3333 8.22278 74.0717 8.82025" fill="white"/>
<path d="M174.799 8.8C174.799 8.8 172.858 13.0532 164.66 31.1595C164.489 31.5342 164.318 32.1519 164.992 32.1519C165.937 32.1519 167.406 31.6861 169.166 30.2481L168.16 31.7468C167.708 32.1114 165.525 33.4886 162.527 33.4886C160.898 33.4886 160.345 32.4354 161.009 30.9772C162.94 26.7139 168.894 13.6709 170.725 9.82278C171.067 9.09367 170.946 8.97215 170.313 8.66835L173.843 7.80759C174.014 7.76709 174.165 7.74683 174.296 7.74683C174.94 7.74683 175.05 8.22278 174.789 8.82025" fill="white"/>
<path d="M54.3569 12.3443C54.2966 13.2456 53.5321 13.9747 52.6269 13.9747C51.7216 13.9747 51.0376 13.2354 51.0979 12.3241C51.1583 11.4127 51.9228 10.6835 52.828 10.6835C53.7333 10.6835 54.4173 11.4228 54.367 12.3342" fill="white"/>
<path d="M65.0493 8.8C65.0493 8.8 63.1079 13.0532 54.9102 31.1595C54.7392 31.5342 54.5682 32.1519 55.2421 32.1519C56.1776 32.1519 57.6562 31.6861 59.4265 30.238L58.4106 31.7468C57.9579 32.1013 55.7752 33.4886 52.7777 33.4886C51.1482 33.4886 50.595 32.4354 51.2589 30.9772C53.1901 26.7139 59.1448 13.6709 60.9755 9.82278C61.3175 9.09367 61.2069 8.97215 60.5631 8.66835L64.0937 7.80759C64.2647 7.76709 64.4156 7.74683 64.5463 7.74683C65.1901 7.74683 65.3007 8.22278 65.0392 8.82025" fill="white"/>
<path d="M51.4198 18.481C51.4198 18.481 49.4784 22.7443 45.6662 31.1494C45.4952 31.524 45.3242 32.1316 45.9982 32.1316C46.8934 32.1316 48.4122 31.6658 50.1725 30.2278L49.1666 31.7266C48.714 32.0911 46.491 33.4785 43.4936 33.4785C41.8641 33.4785 41.3108 32.4253 41.9747 30.9671C43.906 26.7038 45.4751 23.362 47.3058 19.5038C47.6478 18.7747 47.5371 18.6532 46.9034 18.3494L50.4742 17.4684C50.6452 17.4278 50.7961 17.4076 50.9269 17.4076C51.5706 17.4076 51.6813 17.8835 51.4198 18.4709" fill="white"/>
<path d="M64.8983 1.77215C58.7524 1.63038 54.5479 3.72658 51.1079 7.06835C47.4365 10.6228 44.8514 15.4228 42.2462 19.7873C38.3133 26.3899 33.4952 33.6101 28.7274 35.3114C27.9227 35.5949 27.0678 35.757 26.2128 35.757C25.6596 35.757 25.1164 35.7468 24.5632 35.6253L24.5129 35.5241C25.6394 33.7316 26.1927 31.4734 26.7559 29.4987C28.0435 24.9418 28.6369 20.6886 29.9747 15.8785C28.134 18.6127 25.4383 22.562 22.5514 26.4203C19.383 30.6329 15.9429 34.2279 12.7745 35.2709C11.8692 35.5646 10.813 35.757 9.86751 35.757C9.264 35.757 8.67054 35.7367 7.98655 35.6253L7.93626 35.5038C11.5976 29.8734 18.4576 17.1342 18.4576 11.0481C18.4576 7.26076 16.5464 4.3443 12.2313 4.3443C6.13576 4.33418 1.31768 8.86076 1.31768 14.6532C1.31768 17.6506 2.98741 20.8 6.45764 22.2785H2.99747C0.915335 20.5873 0 17.8937 0 15.5747C0 8.25316 6.07541 3.23038 13.4987 3.23038C18.4978 3.23038 22.1089 6.00506 22.1089 10.9165C22.1089 17.7418 16.1139 28.8101 12.352 34.6025C17.16 33.2759 22.9136 23.6759 25.6596 19.5544C28.8984 14.6937 32.1977 9.73165 37.1465 6.47089V7.49367C36.5732 7.79747 36.2613 8.20253 35.9395 8.69873C35.1247 9.97468 34.3603 12.5975 33.7266 15.3316C33.0929 18.0557 32.5799 20.8608 32.248 22.4709C31.4433 26.4203 30.4475 31.1797 28.1541 34.6228C28.9387 34.4405 29.6025 34.0354 30.3066 33.5899C34.481 30.9063 38.0116 23.2304 40.657 18.9266C46.2898 9.77215 53.3912 0.901266 64.9486 0.0607595C65.6124 0.0101266 66.2763 0.0101266 67.3526 0L64.9083 1.77215H64.8983Z" fill="white"/>
<path d="M179.728 28.6886C177.696 31.6051 175.483 33.6 172.697 33.6C171.037 33.6 170.112 32.6886 170.112 31.2101C170.112 28.7696 172.596 24.2937 174.376 21.9747C176.237 19.5443 178.973 17.5595 182.464 17.5595C183.238 17.5595 184.174 17.6608 184.898 18.0152L188.67 17.1544C188.67 17.1544 185.34 23.9798 183.479 28.476C183.107 29.3772 182.625 30.5823 182.625 31.4329C182.625 31.8785 182.785 32.2025 183.479 32.2025C184.455 32.2025 185.602 31.676 187.191 30.5114L186.215 31.9392C184.797 32.8506 183.057 33.5291 181.357 33.5291C179.577 33.5291 179.024 32.5266 179.024 31.4532C179.024 30.643 179.355 29.6405 179.738 28.6886M183.701 20.1924L184.526 18.5215C184.214 18.3899 183.811 18.2886 183.379 18.2886C181.538 18.2886 179.848 19.7266 178.571 21.3367C177.555 22.6127 173.813 28.4051 173.813 31.0785C173.813 31.6354 173.984 31.9089 174.547 31.9089C176.459 31.9089 179.547 28.5873 183.701 20.1924Z" fill="white"/>
<path d="M88.2645 28.6886C86.2326 31.6051 84.0298 33.6 81.2335 33.6C79.5638 33.6 78.6484 32.6886 78.6484 31.2101C78.6484 28.7696 81.1329 24.2937 82.9133 21.9747C84.7741 19.5443 87.5101 17.5595 91.0004 17.5595C91.785 17.5595 92.7205 17.6608 93.4346 18.0152L97.2066 17.1544C97.2066 17.1544 93.8772 23.9798 92.0164 28.476C91.6442 29.3772 91.1614 30.5823 91.1614 31.4329C91.1614 31.8785 91.3223 32.2025 92.0164 32.2025C92.992 32.2025 94.1387 31.676 95.728 30.5114L94.7523 31.9494C93.334 32.8608 91.5939 33.5392 89.904 33.5392C88.1136 33.5392 87.5704 32.5367 87.5704 31.4633C87.5704 30.6532 87.9024 29.6506 88.2846 28.6987M92.2376 20.1924L93.0624 18.5215C92.7506 18.3899 92.3483 18.2886 91.9158 18.2886C90.075 18.2886 88.3751 19.7266 87.1077 21.3367C86.0918 22.6127 82.35 28.4051 82.35 31.0785C82.35 31.6354 82.521 31.9089 83.0843 31.9089C84.9954 31.9089 88.0834 28.5873 92.2477 20.1924" fill="white"/>
<path d="M344.126 34.1772H347.063V25.4683H350V22.9873H341.179V25.4683H344.116V34.1772H344.126ZM330.949 34.1772H333.755V30.9367C333.755 30.2481 333.705 29.5291 333.615 28.7696C333.524 28.0101 333.443 27.3114 333.373 26.6734H333.443L334.5 29.1645L336.964 34.1772H339.972V22.9873H337.165V26.2278C337.165 26.5721 337.175 26.9266 337.205 27.3013C337.236 27.6759 337.266 28.0506 337.296 28.4152C337.326 28.7899 337.366 29.1544 337.417 29.5088C337.467 29.8633 337.497 30.1873 337.537 30.4911H337.467L336.411 27.9797L333.946 22.9873H330.939V34.1772H330.949ZM321.433 34.1772H328.786V31.6962H324.371V29.7013H327.992V27.2202H324.371V25.4683H328.615V22.9873H321.433V34.1772ZM308.166 34.1772H310.872V30.8759C310.872 30.5924 310.852 30.2785 310.832 29.9342C310.802 29.5899 310.771 29.2354 310.741 28.8709C310.711 28.5063 310.671 28.1519 310.62 27.8076C310.57 27.4633 310.53 27.1494 310.5 26.8759H310.57L311.455 29.4886L312.994 33.2557H314.091L315.63 29.4886L316.555 26.8759H316.625C316.595 27.1494 316.555 27.4633 316.505 27.8076C316.454 28.1519 316.424 28.5063 316.384 28.8709C316.354 29.2354 316.314 29.5899 316.294 29.9342C316.263 30.2785 316.253 30.5924 316.253 30.8759V34.1772H318.989V22.9873H315.941L314.262 27.6354L313.648 29.4582H313.578L312.964 27.6354L311.224 22.9873H308.176V34.1772H308.166ZM298.661 34.1772H306.014V31.6962H301.598V29.7013H305.219V27.2202H301.598V25.4683H305.843V22.9873H298.661V34.1772ZM287.576 31.1696C287.868 31.8886 288.26 32.4861 288.763 32.962C289.266 33.438 289.849 33.7924 290.523 34.0253C291.197 34.2582 291.911 34.3797 292.676 34.3797C293.44 34.3797 294.195 34.2481 294.869 33.9747C295.543 33.7013 296.096 33.3772 296.498 33.0025V27.6658H292.253V30.0759H293.893V31.6253C293.792 31.6962 293.662 31.7468 293.511 31.7772C293.36 31.8076 293.199 31.8278 293.038 31.8278C292.032 31.8278 291.298 31.5443 290.835 30.9873C290.372 30.4202 290.131 29.6202 290.131 28.557C290.131 28.0506 290.201 27.5949 290.322 27.2C290.453 26.7949 290.644 26.4607 290.875 26.1873C291.107 25.9139 291.398 25.7013 291.71 25.5494C292.032 25.3975 292.374 25.3266 292.756 25.3266C293.199 25.3266 293.561 25.3873 293.843 25.5291C294.124 25.6607 294.396 25.843 294.667 26.0861L296.277 24.2633C295.875 23.8582 295.382 23.5139 294.788 23.2202C294.195 22.9266 293.511 22.7848 292.716 22.7848C291.921 22.7848 291.227 22.9164 290.553 23.1797C289.88 23.443 289.276 23.8278 288.763 24.324C288.25 24.8202 287.848 25.438 287.546 26.1671C287.254 26.8962 287.103 27.7266 287.103 28.6683C287.103 29.6101 287.244 30.4506 287.536 31.1696M283.784 34.1772H286.892L283.502 22.9873H279.942L276.552 34.1772H279.559L280.103 31.7975H283.211L283.754 34.1772H283.784ZM280.656 29.5088L280.847 28.7291C280.988 28.1924 281.118 27.6051 281.249 26.9772C281.38 26.3494 281.511 25.7519 281.631 25.1747H281.702C281.843 25.7418 281.973 26.3392 282.114 26.9671C282.255 27.5949 282.386 28.1823 282.527 28.719L282.718 29.4987H280.666L280.656 29.5088ZM266.483 34.1772H269.29V30.9367C269.29 30.2481 269.239 29.5291 269.149 28.7696C269.058 28.0101 268.978 27.3114 268.907 26.6734H268.978L270.034 29.1645L272.498 34.1772H275.506V22.9873H272.699V26.2278C272.699 26.5721 272.709 26.9266 272.74 27.3013C272.77 27.6759 272.8 28.0506 272.83 28.4152C272.86 28.7899 272.901 29.1544 272.951 29.5088C273.001 29.8633 273.041 30.1873 273.072 30.4911H273.001L271.945 27.9797L269.481 22.9873H266.473V34.1772H266.483ZM262.309 34.1772H265.417L262.027 22.9873H258.466L255.077 34.1772H258.084L258.627 31.7975H261.736L262.279 34.1772H262.309ZM259.181 29.5088L259.372 28.7291C259.513 28.1924 259.643 27.6051 259.774 26.9772C259.905 26.3494 260.036 25.7519 260.156 25.1747H260.227C260.368 25.7418 260.498 26.3392 260.639 26.9671C260.78 27.5949 260.911 28.1823 261.052 28.719L261.243 29.4987H259.191L259.181 29.5088ZM243.228 34.1772H245.933V30.8759C245.933 30.5924 245.923 30.2785 245.893 29.9342C245.863 29.5899 245.833 29.2354 245.803 28.8709C245.772 28.5063 245.732 28.1519 245.682 27.8076C245.632 27.4633 245.602 27.1494 245.561 26.8759H245.632L246.517 29.4886L248.056 33.2557H249.152L250.691 29.4886L251.617 26.8759H251.687C251.657 27.1494 251.617 27.4633 251.566 27.8076C251.526 28.1519 251.486 28.5063 251.446 28.8709C251.415 29.2354 251.375 29.5899 251.355 29.9342C251.325 30.2785 251.315 30.5924 251.315 30.8759V34.1772H254.051V22.9873H251.003L249.323 27.6354L248.71 29.4582H248.639L248.026 27.6354L246.285 22.9873H243.238V34.1772H243.228Z" fill="white"/>
<path d="M333.373 18.481H336.31V9.77214H339.247V7.29113H330.426V9.77214H333.363V18.481H333.373ZM320.186 18.481H322.993V15.2405C322.993 14.5519 322.942 13.8329 322.852 13.0734C322.761 12.3139 322.681 11.6152 322.61 10.9772H322.681L323.737 13.4785L326.201 18.4911H329.209V7.29113H326.402V10.5316C326.402 10.8759 326.413 11.2304 326.443 11.6051C326.473 11.9797 326.503 12.3544 326.533 12.719C326.563 13.0937 326.604 13.4582 326.654 13.8126C326.704 14.1671 326.734 14.4911 326.775 14.7949H326.704L325.648 12.2835L323.184 7.29113H320.176V18.481H320.186ZM310.681 18.481H318.034V16H313.618V14.0051H317.239V11.524H313.618V9.77214H317.863V7.29113H310.681V18.481ZM297.413 18.481H300.119V15.1797C300.119 14.8962 300.109 14.5721 300.079 14.2278C300.049 13.8835 300.019 13.5291 299.988 13.1645C299.958 12.8 299.918 12.4456 299.868 12.1013C299.817 11.7569 299.787 11.443 299.747 11.1696H299.818L300.703 13.7823L302.242 17.5494H303.338L304.877 13.7823L305.802 11.1696H305.873C305.843 11.443 305.802 11.7569 305.752 12.1013C305.702 12.4456 305.662 12.8 305.631 13.1645C305.601 13.5291 305.561 13.8835 305.541 14.2278C305.511 14.5721 305.501 14.8861 305.501 15.1797V18.481H308.237V7.29113H305.189L303.509 11.9392L302.895 13.762H302.825L302.211 11.9392L300.471 7.29113H297.424V18.481H297.413ZM289.89 18.481H292.827V9.77214H295.764V7.29113H286.942V9.77214H289.88V18.481H289.89ZM278.292 17.0835C278.896 17.6304 279.569 18.0354 280.314 18.2987C281.058 18.5519 281.782 18.6835 282.497 18.6835C283.211 18.6835 283.804 18.5823 284.347 18.3899C284.88 18.1975 285.333 17.9342 285.705 17.6101C286.077 17.2861 286.359 16.9013 286.55 16.4658C286.741 16.0304 286.842 15.5747 286.842 15.1088C286.842 14.3291 286.651 13.6911 286.279 13.1949C285.906 12.6987 285.363 12.3139 284.669 12.0405L283.321 11.5038C282.808 11.3114 282.406 11.1392 282.114 10.9975C281.823 10.8557 281.682 10.6532 281.682 10.3899C281.682 10.1266 281.782 9.94429 281.994 9.82277C282.195 9.70125 282.486 9.63037 282.849 9.63037C283.261 9.63037 283.633 9.70125 283.985 9.8329C284.337 9.97467 284.699 10.1671 285.072 10.4405L286.54 8.5772C286.027 8.06075 285.444 7.68606 284.79 7.44303C284.136 7.19999 283.482 7.07847 282.849 7.07847C282.245 7.07847 281.692 7.16961 281.179 7.35189C280.666 7.53416 280.233 7.78733 279.871 8.10125C279.509 8.41518 279.217 8.77973 279.016 9.20505C278.815 9.62024 278.704 10.0759 278.704 10.5519C278.704 10.9569 278.765 11.3215 278.886 11.6557C279.006 11.9899 279.167 12.2835 279.368 12.5468C279.569 12.8 279.811 13.0329 280.082 13.2152C280.354 13.4076 280.636 13.5595 280.937 13.6709L282.326 14.2582C282.567 14.3494 282.778 14.4304 282.959 14.5114C283.14 14.5823 283.301 14.6633 283.432 14.7443C283.563 14.8253 283.663 14.9063 283.734 15.0076C283.804 15.0987 283.834 15.2101 283.834 15.3519C283.834 15.6051 283.734 15.7975 283.533 15.9392C283.331 16.081 283.01 16.1418 282.567 16.1418C282.155 16.1418 281.722 16.0405 281.259 15.838C280.797 15.6354 280.364 15.3721 279.972 15.0582L278.292 17.0937V17.0835ZM269.903 18.481H277.256V16H272.84V14.0051H276.461V11.524H272.84V9.77214H277.085V7.29113H269.903V18.481ZM261.997 18.481H265.558L268.837 7.29113H265.829L264.703 12.1823C264.552 12.7797 264.421 13.3671 264.3 13.9443C264.18 14.5215 264.039 15.119 263.878 15.7266H263.808C263.647 15.119 263.516 14.5215 263.395 13.9443C263.285 13.3671 263.144 12.7797 262.983 12.1823L261.816 7.29113H258.708L261.987 18.481H261.997ZM248.629 18.481H251.436V15.2405C251.436 14.5519 251.385 13.8329 251.295 13.0734C251.204 12.3139 251.124 11.6152 251.053 10.9772H251.124L252.18 13.4785L254.644 18.4911H257.652V7.29113H254.845V10.5316C254.845 10.8759 254.855 11.2304 254.886 11.6051C254.916 11.9797 254.946 12.3544 254.976 12.719C255.006 13.0937 255.047 13.4582 255.097 13.8126C255.137 14.1671 255.177 14.4911 255.218 14.7949H255.147L254.091 12.2835L251.627 7.29113H248.619V18.481H248.629ZM243.228 18.481H246.165V7.29113H243.228V18.481Z" fill="white"/>
<path d="M227.828 0.506329H226.319V40H227.828V0.506329Z" fill="white"/>
</svg>
