<svg width="163" height="35" viewBox="0 0 163 35" fill="none" xmlns="http://www.w3.org/2000/svg">
<path d="M127.188 11.7824V29.1113H133.33V11.7824H139.033V6.95824H121.484V11.7824H127.188ZM155.956 14.8856H148.497V6.95824H142.355V29.1113H148.497V19.9008H155.956V29.1113H162.129V6.95824H155.956V14.8856ZM50.2139 21.6218L47.1113 6.95824H41L46.6411 29.1113H53.1274L56.9192 14.6664L60.7114 29.1113H67.1985L72.8396 6.95824H66.7282L63.626 21.6218L59.7712 6.95824H54.068L50.2139 21.6218ZM88.9156 11.1247H95.0585V6.95824H88.9156V11.1247ZM81.6763 11.1247V6.95824H75.5337V11.1247H81.6763ZM88.9156 13.1936V20.2743C88.9156 23.471 87.3475 24.597 85.3106 24.597C83.2749 24.597 81.6763 23.471 81.6763 20.3036V13.1936H75.5337V20.5866C75.5337 26.4146 78.7621 29.6133 85.3106 29.6133C91.8934 29.6133 95.0585 26.4146 95.0585 20.6183V13.1936H88.9156ZM113.2 14.2258C113.2 15.7935 112.135 16.9229 109.908 16.9229H105.71V11.5328H109.908C112.135 11.5328 113.2 12.6593 113.2 14.2258ZM112.948 29.1113H119.874L114.89 20.5572C117.649 19.3973 119.216 17.1724 119.216 14.2258C119.216 9.83816 116.335 6.95824 110.63 6.95824H99.6936V29.1113H105.71V21.4356H108.75L112.948 29.1113Z" fill="black"/>
<path d="M18.5325 29.5151V34.8438C26.1307 33.4176 31.7442 26.7987 31.7442 19.3662V19.0857H0V19.3662C0 26.7987 5.6146 33.4176 13.2121 34.8438V29.5151H18.5325ZM31.7442 13.7087H0V0.101585H13.2121V5.45181H18.5325V0.101585H31.7442V13.7087Z" fill="#ED1C24"/>
</svg>
