<svg xmlns="http://www.w3.org/2000/svg" xmlns:xlink="http://www.w3.org/1999/xlink" id="Layer_1" version="1.1" viewBox="0 0 72 72"><defs><style> .st0 { fill: #92278f; } .st1 { fill: #fff; } .st2 { fill: #00a1e4; } .st3 { fill: url(#radial-gradient); } .st4 { fill: url(#radial-gradient1); } </style><radialGradient id="radial-gradient" cx="433" cy="-65.8" fx="433" fy="-65.8" r="19.3" gradientTransform="translate(-649.4 110) scale(1.6)" gradientUnits="userSpaceOnUse"><stop offset="0" stop-color="#c6168d"></stop><stop offset=".6" stop-color="#92278f"></stop><stop offset="1" stop-color="#5c2d91"></stop></radialGradient><radialGradient id="radial-gradient1" cx="409.7" cy="-62.4" fx="409.7" fy="-62.4" r="42" gradientTransform="translate(-649.4 110) scale(1.6)" gradientUnits="userSpaceOnUse"><stop offset="0" stop-color="#00aeef"></stop><stop offset=".6" stop-color="#00a1e4"></stop><stop offset="1" stop-color="#0061af"></stop></radialGradient></defs><rect class="st1" y="2.9" width="72" height="66.2"></rect><g id="logo_-_blue"><g><path class="st3" d="M62.8,10.3h-19.4c-1.4,0-2.6,1.2-2.6,2.6s0,.9.3,1.2l9.7,16.8c.4.8,1.3,1.3,2.2,1.3s1.8-.5,2.2-1.3l9.7-16.8c.2-.4.3-.8.3-1.2,0-1.4-1.2-2.6-2.6-2.6Z"></path><g><path class="st0" d="M66.8,11.7c0-.8.6-1.4,1.4-1.4h0c.8,0,1.4.6,1.4,1.4h0c0,.8-.6,1.4-1.4,1.4h0c-.8,0-1.4-.6-1.4-1.4h0ZM67.1,11.7c0,.6.5,1.1,1.1,1.1h0c.6,0,1.1-.5,1.1-1.1h0c0-.6-.5-1.1-1.1-1.1h0c-.6,0-1.1.5-1.1,1.1h0Z"></path><path class="st0" d="M68.8,12.4h-.1c0,0,0,0-.1,0l-.4-.5h-.1v.5c0,0,0,0,0,0h0c0,0,0,0,0,0v-1.3c0,0,0,0,0,0h.4c.2,0,.3,0,.4,0,0,0,.1.2.1.4s0,.4-.3.4l.4.4c0,0,0,.1,0,.1ZM68.4,11.2c0,0-.3,0-.4,0v.5h.3c0,0,.1,0,.2,0,0,0,0,0,0-.2,0-.2,0-.2,0-.2Z"></path></g><path class="st4" d="M32.7,34.2s0,0,0,0h0s0,0,0,0ZM49.7,34.5v-.2c-.1,0-12.1-20.8-12.1-20.8l-.2-.4c-1-1.8-3-2.9-5.1-2.9h-9.9c-1.1,0-2,.9-2,2s0,.7.2.9l12.1,21c.6.9.9,2,.9,3.2s-.3,2.2-.8,3.1l-10.5,18.2c-.2.3-.2.6-.2.9,0,1.1.9,2,2,2h10.2c2.2,0,4.1-1.1,5.1-2.9l.2-.4,10.1-17.5.2-.3c.5-.9.8-1.9.8-3s-.3-2.2-.8-3.1Z"></path><g><path class="st2" d="M21.8,43c-.2,0-.4,0-.5.1-.6.1-1.2.2-1.9.2s-.7,0-.9-.2c-.5-.2-.5-.8-.5-1.6h3.8c.5,0,.6,0,.6-.9s0-2-.6-2.6c-.4-.6-1.2-1-2.5-1s-2.2.4-2.7,1c-.5.7-.6,1.6-.6,2.9s.2,2.5.9,3.1c.5.5,1.3.7,2.5.7s1.6,0,2.3-.2c.5,0,.6-.3.6-.7s0-.4,0-.5c0-.2-.2-.5-.4-.5ZM17.9,40.1c0-1.1.2-1.5,1.3-1.5s1.2.4,1.2,1.4v.3h-2.5ZM12.4,37c-.8,0-1.6.3-2.1.5v-2.8c0-.3-.1-.7-.6-.7h-.7c-.4,0-.7.1-.7.7v9.3c0,.4.1.6.6.6h.8c.5,0,.6-.3.6-.7v-3.5c0-1.1.2-1.5,1.3-1.5s1.2.4,1.2,1.3v.3h0c0,.1,0,.3,0,.5v2.9c0,.5.2.7.6.7h.8c.5,0,.6-.3.6-.7v-4.7c0-1-.5-2.2-2.4-2.2Z"></path><path class="st2" d="M6.8,38.9h-1.7v3.1c0,.7,0,1,0,1.1,0,0,.1.1.2.1.4,0,.9-.2,1.3-.2s.4.3.4.4v.6c0,.6-.2.7-.6.8-.5,0-.8,0-1.3,0-1.6,0-2-.6-2-2.4v-3.5h-.4c-.3,0-.4-.2-.4-.4v-.7c0-.4.2-.5.4-.5h.4v-1.2c0-.5.2-.7.7-.7h.7c.5,0,.6.4.6.7v1.2h1.5c.3,0,.5,0,.5.5v.5c0,.5,0,.6-.4.6Z"></path></g><g><path class="st0" d="M43,56.9l1.2,2,1.1.6c.2,0,.2.2,0,.4v.2c-.2.2-.3.2-.5.1l-1.1-.6h-2.4c0,0-.1,0-.2,0-.1,0,0-.2,0-.3l.2-.3c0-.2.2-.2.3-.2h1.7s-.9-1.4-.9-1.4c0-.1,0-.2,0-.3v-.2c.2-.1.3-.2.4,0,0,0,.1.1.2.2Z"></path><path class="st0" d="M48.3,54.9v.2c-.2.2-.3.2-.5,0l-2.2-1.1c0,.1.2.3.3.4.4.5.8.9,1.1,1.3.1.1.1.2,0,.4h0c0,.3-.2.3-.4.3-.4,0-1-.2-1.6-.3-.2,0-.3,0-.5-.1l2,1.4c.1,0,.2.2,0,.4v.2c-.2.2-.3.2-.5.1l-2.9-2c-.2-.1-.1-.2,0-.4l.2-.3c0-.1.2-.2.3-.2.6,0,1.6.3,2.4.4-.5-.6-1.2-1.4-1.6-1.9,0-.1,0-.2,0-.4l.2-.3c0-.1.2-.2.4-.1l3.2,1.5c.2,0,.2.2,0,.4Z"></path><path class="st0" d="M49.9,52.2c-.1.2-.2.4-.3.6-.1.2-.3.4-.4.6-.6.6-1.3.4-2.2,0-1.5-.9-1.5-1.5-.9-2.5.1-.2.2-.4.4-.6.1-.2.2-.2.3-.2h.2c.2.2.2.3.1.4-.1.2-.2.3-.3.5,0,.2-.2.4-.3.6,0,.4.4.6,1,1,.6.3,1.1.6,1.4.2,0,0,.2-.2.3-.4.2-.3.2-.4.3-.6,0-.2.2-.2.4,0h.2c.1.2.1.3,0,.5Z"></path><path class="st0" d="M51.8,48.8l-.2.3c0,.2-.2.2-.3.1h-.8c-.1,0-.2.2-.4.5-.1.2-.2.4-.3.6l.5.6c.1.1.2.2,0,.4v.2c-.2.2-.3.2-.4.1,0,0,0,0-.1-.1l-2.4-2.8c-.1-.2-.2-.2,0-.4v-.2c.2-.2.3-.2.5-.2l3.7.6s0,0,0,0c.1,0,0,.2,0,.3ZM48.4,48.7l1,1.1c0-.1.1-.3.2-.4,0-.2.2-.3.2-.4l-1.5-.3Z"></path></g></g></g></svg>