<?xml version="1.0" encoding="UTF-8"?>
<svg id="svg2" xmlns="http://www.w3.org/2000/svg" xmlns:svg="http://www.w3.org/2000/svg" xmlns:sodipodi="http://sodipodi.sourceforge.net/DTD/sodipodi-0.dtd" xmlns:inkscape="http://www.inkscape.org/namespaces/inkscape" version="1.1" viewBox="0 0 1004.2 186.6">
  <!-- Generator: Adobe Illustrator 29.8.1, SVG Export Plug-In . SVG Version: 2.1.1 Build 2)  -->
  <defs>
    <style>
      .st0 {
        fill: #014e2e;
      }
    </style>
  </defs>
  <sodipodi:namedview id="namedview4" bordercolor="#000000" borderopacity="0.25" fit-margin-bottom="0" fit-margin-left="0" fit-margin-right="0" fit-margin-top="0" inkscape:current-layer="g8" inkscape:cx="-1106.6311" inkscape:cy="370.34665" inkscape:deskcolor="#d1d1d1" inkscape:pagecheckerboard="0" inkscape:pageopacity="0.0" inkscape:pageshadow="2" inkscape:showpageshadow="2" inkscape:window-height="1135" inkscape:window-maximized="1" inkscape:window-width="1852" inkscape:window-x="68" inkscape:window-y="32" inkscape:zoom="0.11340726" pagecolor="#ffffff" showgrid="false"/>
  <g>
    <path class="st0" d="M65.4,1.9h20.8l-33.8,55.5v34.6h-18.4v-34.7L0,1.9h21.3l22.2,38.9L65.4,1.9ZM194.9,92h65.8v-16.2h-47.5v-19.7h33.9v-15.4h-33.9v-22.6h47.5V1.9h-65.8v90.1ZM788.7,40h-36.7V1.9h-18.3v90.1h18.3v-35.9h36.7v35.9h18.4V1.9h-18.4v38.1ZM835.6,92h65.8v-16.2h-47.5v-19.7h33.9v-15.4h-33.9v-22.6h47.5V1.9h-65.8v90.1ZM669.4,16.7c10.7,0,20,5.9,25.6,15.4h20.2l-.8-2.1c-6.8-17.8-24.2-30.1-44.9-30.1s-48.2,20.8-48.2,47.3,21.1,47,48.2,47,38.1-12.3,44.9-30.2l.8-2.1h-20.2c-5.6,9.6-14.9,15.5-25.6,15.5-16.3,0-29.5-13.8-29.5-30.5s13.2-30.3,29.5-30.3M134.5,68.6L112.2,1.9h-19.8l32.2,90.1h19.5L176.7,1.9h-19.6l-22.6,66.7ZM971.7,41.8c6.7,0,12-5.3,12-12s-5.3-12-12-12h-27.4v24h27.3ZM1004.2,92.1h-2.6s-18.1,0-18.1,0l-17.7-35.9h-21.4v35.9h-18.4V2h49.1c15,0,27.1,12.1,27.1,27.1s-7.3,21.5-17.6,25.4l19.6,37.6ZM558.6,77.5c16.1,0,29.4-13.6,29.4-30.5s-13.1-30.3-29.4-30.3-29.5,13.6-29.5,30.3,13.2,30.5,29.5,30.5M558.6,0c27,0,48.1,20.7,48.1,47s-21.2,47.2-48.1,47.2-48.2-20.4-48.2-46.9S531.7,0,558.6,0M343,45.3c-4.8-3.1-10.3-5-21.9-7.8-19.7-4.5-20.9-6.1-20.9-11.7s5.1-10.7,15.2-10.7,14.9,3.5,16.8,11.5h18C348.5,9.5,336.1,0,316.3,0s-33.8,10.4-33.8,27.1,3.2,14.3,9.4,18.4c3.9,2.8,12.7,5.7,24.5,8.7l1.8.5,3.4.7c2.9.7,5.8,1.7,7.5,2.5,4.9,2.4,6.4,4.8,6.4,8.8,0,7.2-5.9,12.1-17.1,12.1s-19.2-4.8-20.8-14.7h-18.2c1.4,19,15.5,30,37.9,30s36.4-10.7,36.4-28.9-3.7-15.2-10.7-20M464.5,41.8c6.7,0,12-5.3,12-12s-5.3-12-11.9-12h-27.3v24h27.3ZM497,92h-2.6s-18.1,0-18.1,0l-17.7-35.9h-21.4v35.9h-18.4V1.9h49.1c15,0,27.1,12.1,27.1,27.1s-7.3,21.5-17.6,25.4l19.5,37.6Z"/>
    <polygon class="st0" points="319.6 128.4 319.6 185.4 331.2 185.4 331.2 163 359 163 359 152.2 331.2 152.2 331.2 139.2 362.5 139.2 362.5 128.4 319.6 128.4"/>
    <path class="st0" d="M389.4,156.3h13.2c6.4,0,10.3-3.1,10.3-8.2,0-7.2-6.5-8.3-10.4-8.3h-13.1v16.5ZM427.6,185.5h-13.9l-13.5-19.2h-10.6v19.2h-11.6v-57h25.5c7,0,12.7,2,16.6,5.8,3.2,3.3,4.9,7.6,4.9,12.6,0,8.5-4.4,14.6-12.4,17.4l15.2,21.3Z"/>
    <path class="st0" d="M465.7,143.7l8,18.5h-16l7.9-18.5ZM460.7,128.1l-25.1,57.4h12.1l5.7-13.3h24.7l5.6,13.3h12.4l-25.1-57.4h-10.2Z"/>
    <polygon class="st0" points="546.5 128.5 546.5 164.7 518.5 128.5 508.1 128.5 508.1 185.5 519.6 185.5 519.6 148.2 548.5 185.5 558 185.5 558 128.5 546.5 128.5"/>
    <path class="st0" d="M601.5,186.6c-16.5,0-29-12.6-29-29.3v-.2c0-16.8,12.6-29.4,29.3-29.4s17.7,4.5,22.3,8.8l.7.7-7.5,8.6-.7-.7c-5-4.6-9.4-6.5-14.8-6.5-9.7,0-17.1,7.9-17.1,18.4s7.4,18.7,17.2,18.7,10.6-2.6,15.1-6.8l.7-.7,7.6,7.6-.7.7c-6.8,7-13.7,10.1-23,10.1"/>
    <polygon class="st0" points="638.6 128.5 638.6 185.5 681.8 185.5 681.8 174.9 650.3 174.9 650.3 162.2 677.9 162.2 677.9 151.5 650.3 151.5 650.3 139.1 681.4 139.1 681.4 128.5 638.6 128.5"/>
  </g>
</svg>